/* XPM */
static char *p1[] = {
/* columns rows colors chars-per-pixel */
"32 32 79 1 ",
"  c #0E1D2B",
". c #0D2133",
"X c #0C2539",
"o c #0A293F",
"O c #0A2B42",
"+ c #0A2F49",
"@ c #0B314D",
"# c #0B3552",
"$ c #0B3857",
"% c #0C3C5D",
"& c #103956",
"* c #103C5C",
"= c #0C3F61",
"- c #0D476D",
"; c #0D486F",
": c #134364",
"> c #16476A",
", c #0D4A71",
"< c #114E76",
"1 c #184D72",
"2 c #114F78",
"3 c #13517B",
"4 c #1A5279",
"5 c #165783",
"6 c #175885",
"7 c #185986",
"8 c #1A5C8A",
"9 c #1B608F",
"0 c #1D6494",
"q c #1F6798",
"w c #1F699A",
"e c #20628E",
"r c #246692",
"t c #286A96",
"y c #216C9F",
"u c #2B6E9A",
"i c #2E709C",
"p c #226FA2",
"a c #2471A5",
"s c #2675AB",
"d c #2877AE",
"f c #2778AE",
"g c #2878AE",
"h c #3376A1",
"j c #3B7DA9",
"k c #2A7CB3",
"l c #2C7FB8",
"z c #3E81AC",
"x c #2E82BB",
"c c #3280B4",
"v c #3284BB",
"b c #3988BD",
"n c #4184AE",
"m c #498CB7",
"M c #458EBD",
"N c #4A8FB9",
"B c #4F93BD",
"V c #5095BF",
"C c #2F85C0",
"Z c #3087C3",
"A c #3189C6",
"S c #338ECC",
"D c #3590CE",
"F c #3D94CE",
"G c #3692D1",
"H c #4592C3",
"J c #4296CD",
"K c #4896C8",
"L c #4598CF",
"P c #4B9BCE",
"I c #539FCF",
"U c #56A0CF",
"Y c #5BA3CE",
"T c #54A0D0",
"R c #5CA4D0",
"E c #62A6CF",
"W c #61A7D0",
"Q c #62A8D1",
"! c #489848",
/* pixels */
"!!!!!!!!!!!YTTTTTTRYT!!!!!!!!!!!",
"!!!!!!!!!YQHvvvvvvvDJTT!!!!!!!!!",
"!!!!!!!JLHmu7888880gkkbIT!!!!!!!",
"!!!!!!SPQj687333333766pSPQ!!!!!!",
"!!!!SJPMjt632,;,;,,2370pvKIE!!!!",
"!!!!SLWn6672,,;,3ap<<766pSIQ!!!!",
"!!DFIBir776<,<3pkAAls8879ylKIE!!",
"!!SJRm7672<,,ys1:38ZZCs666sDIQ!!",
"!!SJEm8862;;;%$OO+#,0Gx086dGTQ!!",
"!!FJVz78r5;,;@OOOO@-5kxAs6pvKU!!",
"!!WBe86aDw;,;#OOOO@-,,qDg777lDYW",
"SFEV89pas8;,;@OXXO@;;;0Gg677kDIE",
"SFYV7yDa;;,=$+o  O+#%;5wr777kDIE",
"SFEB8ySa;;,#OX.  ..O@;6a0777kDYE",
"SFWV8yDa;;,#O.     O@;208777kDIE",
"SFRV8yDp;,;#O      O@;,;2778kDIE",
"SFEV7ySs5,;#O      o#-,,3677kDUR",
"SFYV8pSSCq;#O      o@---3676kGUQ",
"SFRV8rlZGw;#o..  ..O@-388666kDUQ",
"SFWB867qspr84#O  o+#%-0Sf668kDUE",
"SFWB8863,8aCS>OX.O@-;-0Dg776kDUE",
"!LWB87753,;80*OOOO@;;;0Dg676kDUE",
"!!JKmj7663;;;@OO+O@,6fsy06wxHUY!",
"!!SFQM8663;;;#OOOO%alAk567sGUQ!!",
"!!SJWm7663,,;<<+O=;5556776sSTE!!",
"!!SJTBt06662,pg1:55,,56780kFIQ!!",
"!!!!SJYn6682;<2psfp,,876pSKW!!!!",
"!!!!SJImhr632,,,,,,2368ycLIW!!!!",
"!!!!!!SPWj667322323676ySPE!!!!!!",
"!!!!!!!JPHnt7777868sddvII!!!!!!!",
"!!!!!!!!!JPvlklkklxSFIT!!!!!!!!!",
"!!!!!!!!!!!IUITUUTTIU!!!!!!!!!!!"
};
