/* XPM */
static char *p2[] = {
/* columns rows colors chars-per-pixel */
"32 32 81 1 ",
"  c #0E1D2B",
". c #0D1F30",
"X c #0C2233",
"o c #0B263A",
"O c #0B283E",
"+ c #0A2A42",
"@ c #0B314C",
"# c #0C3552",
"$ c #0C3857",
"% c #0C3A59",
"& c #123652",
"* c #0C3E60",
"= c #0C4164",
"- c #0C476D",
"; c #0D486F",
": c #124365",
"> c #164769",
", c #16496D",
"< c #0E4A71",
"1 c #104E76",
"2 c #114F79",
"3 c #13527C",
"4 c #165682",
"5 c #175885",
"6 c #185986",
"7 c #1A5D8B",
"8 c #1C608E",
"9 c #1D6494",
"0 c #1F6798",
"q c #1F689A",
"w c #20628E",
"e c #236592",
"r c #266894",
"t c #21699B",
"y c #2E709C",
"u c #236EA2",
"i c #2471A6",
"p c #2873A6",
"a c #2676AB",
"s c #2A77AC",
"d c #2778AE",
"f c #2879AF",
"g c #3275A1",
"h c #3678A4",
"j c #3A7DA8",
"k c #2A7BB3",
"l c #2B7FB8",
"z c #3F82AC",
"x c #2D82BC",
"c c #3180B5",
"v c #3383B8",
"b c #3885B8",
"n c #4184AE",
"m c #468DBB",
"M c #4690BF",
"N c #4E94BF",
"B c #5194BE",
"V c #2F87C2",
"C c #3189C4",
"Z c #398DC6",
"A c #338ECC",
"S c #3690CD",
"D c #3C93CE",
"F c #3692D1",
"G c #3D95D0",
"H c #4795C7",
"J c #4D94C0",
"K c #4496CD",
"L c #4699CE",
"P c #4D9CCE",
"I c #569BC4",
"U c #589CC5",
"Y c #529FCE",
"T c #589FCB",
"R c #56A0CF",
"E c #5DA3CE",
"W c #54A0D0",
"Q c #5AA3D0",
"! c #61A6CF",
"~ c #62A7D0",
"^ c #489848",
/* pixels */
"^^^^^^^^^^^^^^^^^^^^^^^^^^^^^^^^",
"^^^^^^^^^^^WWWYYYYYYY^^^^^^^^^^^",
"^^^^^^^^^P~maaaaaakADPW^^^^^^^^^",
"^^^^^^ADYMhr5555557uuubLR~^^^^^^",
"^^^^^^SKEn44431<112455iCYQ^^^^^^",
"^^^^ADQJr863<<<;--<<2579vKR!^^^^",
"^^^^DKNz7563<;<55<;;<555ixPY^^^^",
"^^ASQUe6553<;7qVCu09934666xDE!^^",
"^^ADRUw663<7ixCr66eAd<3567xDE!^^",
"^^ADTIw460fxA8,@O+#7qkq566lSR~^^",
"^^WTgr664uFa4%++++@-9Vi5669tZL!!",
"AAYEr5665qx9-#+OO+#<<2<<4647CDE!",
"SSR!w66tAi<-%#+ .+@%=<;<3667CD~~",
"ASYTr667u9;$+oX  XO+#<<;3669VDE!",
"ASWEr7su<;<%+X    .+#<7a0667CD~~",
"SSREr7Ck<;;%+X    .+#<37al97CDE!",
"ZSRUr68843;$+X     O#<;;dA07CD~!",
"SSREr550Ci<$+.    .O#;<<dAq7VDE!",
"SSREr54tSi1$OoX  XX+#;;<dA07CD~~",
"ASREr56tSxp3%@O. +@%=;<;dA07CDE!",
"ASWEr4668iAxk,@+&e9<;;<3dC07CDQ!",
"^^RTy866444iCxkpr,:<;;qxu980ZK!!",
"^^DDYN9552-<3ta,#+@-35ixq6kZRE^^",
"^^ASEU855794;*%++#%-4aq667xGE!^^",
"^^ADQIw650ait4;@@09<<34666vGQ~^^",
"^^^^KKmj65579uitt07<2666ulHY^^^^",
"^^^^ADENe762<4776<-<2667lDR!^^^^",
"^^^^^^DKIz5541<<1<1445uVPR^^^^^^",
"^^^^^^ADWmye5555447t00lLR!^^^^^^",
"^^^^^^^^AKYbuuuuuuaCDLY!^^^^^^^^",
"^^^^^^^^^^^LPPYPPYYPY^^^^^^^^^^^",
"^^^^^^^^^^^^^^^^^^^^^^^^^^^^^^^^"
};
