/* XPM */
static char *p3[] = {
/* columns rows colors chars-per-pixel */
"32 32 92 1 ",
"  c #0E1C2B",
". c #0F202F",
"X c #0D2132",
"o c #0B253A",
"O c #0B293F",
"+ c #112435",
"@ c #11293D",
"# c #0A2A42",
"$ c #0A2E48",
"% c #122D43",
"& c #0B324D",
"* c #15364F",
"= c #0C3552",
"- c #0B3857",
"; c #0C3A5A",
": c #173A56",
"> c #183953",
", c #113B5A",
"< c #0F3F60",
"1 c #0D4266",
"2 c #0C466C",
"3 c #0D486F",
"4 c #144365",
"5 c #15496D",
"6 c #0D4A71",
"7 c #104D76",
"8 c #184C71",
"9 c #114F78",
"0 c #13527D",
"q c #165682",
"w c #1D5780",
"e c #175885",
"r c #185986",
"t c #175B88",
"y c #1A5D8A",
"u c #1A608E",
"i c #1D6494",
"p c #1F6798",
"a c #1F699B",
"s c #21628F",
"d c #236491",
"f c #276995",
"g c #286A96",
"h c #216B9D",
"j c #2A6C98",
"k c #31739E",
"l c #226DA1",
"z c #2471A5",
"x c #2A74A7",
"c c #2675AA",
"v c #2976AB",
"b c #2778AF",
"n c #2878AF",
"m c #3275A1",
"M c #377AA5",
"N c #3B7EAA",
"B c #2A7CB3",
"V c #2C7FB9",
"C c #2D82BC",
"Z c #3483B7",
"A c #3587BF",
"S c #3588BF",
"D c #3B8ABE",
"F c #4185B0",
"G c #4388B5",
"H c #498CB6",
"J c #478DB9",
"K c #4D91BC",
"L c #2F85C0",
"P c #3086C1",
"I c #3289C5",
"U c #3C8DC2",
"Y c #348ECC",
"T c #3691CE",
"R c #3A92CE",
"E c #4493C5",
"W c #4993C2",
"Q c #4296CD",
"! c #4896C8",
"~ c #4799CF",
"^ c #4C9BCE",
"/ c #5499C3",
"( c #5A9EC7",
") c #529ECE",
"_ c #589DC8",
"` c #56A0CF",
"' c #5AA2CF",
"] c #56A1D0",
"[ c #5CA4D0",
"{ c #62A6CF",
"} c #61A7D1",
"| c #489848",
/* pixels */
"||||||||||||||||||||||||||||||||",
"||||||||||||||||||||||||||||||||",
"||||||||||})^^^^^^^^){||||||||||",
"||||||||Y^{GhlllllzITQ^[||||||||",
"||||||YQ{HjseeqqqqeipivQ){||||||",
"||||||RQKZrqq66et66qqehCE''|||||",
"||||YR}Kyye06eilz9666ettcT){||||",
"|||R^!Fmree96il3;6669etepcU^'|||",
"||YR}/yrthBu332==pzzaqqerrcT]}||",
"||YR[/siCPIh3-=yh85eicatrrBT]}||",
"||RQ/HyhYb063=#-,#$26qqtrrcP^'||",
"||'_fyqhYc663=####$2336qqrryZR'{",
"YT`(dylBTc366=#oo#=paay60rrtVT[{",
"YR'(diIYYc6<-$# +wd0eilzdrrtVT'{",
"YT'(dtpcTc6-#XX .>:%&2iIcyttCT'{",
"YT'(deepLlq<#X     O&39qlIheVR`{",
"YY'(drrq7hYh5#     O&363aTltCT'{",
"YY'(drr03rzhs*     O&363lTzeVT'{",
"YR'(srtq336-#.    X#&363lTltVR'{",
"YR'(drr0336;#Oo +fd&&363aYltVT'{",
"YT[(drr063321=#X@xB07666tlitVT'}",
"YT[(srrq77366=###*4LB766iVdtVT'{",
"||^^Nktrr0363=####,IV60ettplU^'{",
"||YR'_yrr0666-##&wdhu37rrrbT`{||",
"||YR[/yericy632=,CC7369rernR)}||",
"||YR'/fsrype6lLvzt067qqryuVR(}||",
"||||RQ'Hrer96lVy96337rrqlI^[||||",
"||||YR^WMjrq966636670qilZ~`}||||",
"||||||YQ}Gtrrq00000rrrhY^}||||||",
"|||||||R~EJmtytttyuBVVD)[|||||||",
"||||||||||QUAAAAAAIRQ][|||||||||",
"|||||||||||`[[[['{''[|||||||||||"
};
