/* XPM */
static char *p3[] = {
/* columns rows colors chars-per-pixel */
"32 32 97 2 ",
"   c #0D1A27",
".  c #0E1C2B",
"X  c #0D2133",
"o  c #0B263A",
"O  c #09283F",
"+  c #112435",
"@  c #11283B",
"#  c #0A2A42",
"$  c #0A2E48",
"%  c #102E46",
"&  c #0B324D",
"*  c #153047",
"=  c #0C3551",
"-  c #0D3957",
";  c #0B3B5A",
":  c #133955",
">  c #183B56",
",  c #103B59",
"<  c #0C3F61",
"1  c #103F60",
"2  c #13405F",
"3  c #0C4367",
"4  c #0C476D",
"5  c #0D486F",
"6  c #134263",
"7  c #1A4565",
"8  c #16476A",
"9  c #16486A",
"0  c #1E4A6C",
"q  c #0E4A71",
"w  c #104D76",
"e  c #184E74",
"r  c #114F78",
"t  c #13517C",
"y  c #165683",
"u  c #175885",
"i  c #185986",
"p  c #175B88",
"a  c #195C89",
"s  c #205F8B",
"d  c #1C608E",
"f  c #1D6393",
"g  c #1E6798",
"h  c #1F689A",
"j  c #20608C",
"k  c #236592",
"l  c #276895",
"z  c #286A96",
"x  c #226B9D",
"c  c #2A6C99",
"v  c #2F719D",
"b  c #226EA1",
"n  c #2471A5",
"m  c #2871A4",
"M  c #2674A9",
"N  c #2877AD",
"B  c #2778AE",
"V  c #2B79AF",
"C  c #3274A0",
"Z  c #377AA5",
"A  c #387BA6",
"S  c #3C7FAA",
"D  c #2A7BB3",
"F  c #2C7FB8",
"G  c #3E81AC",
"H  c #2D82BB",
"J  c #3181B7",
"K  c #3284BB",
"L  c #3886BB",
"P  c #3A88BC",
"I  c #498CB6",
"U  c #458DBC",
"Y  c #488EBA",
"T  c #4E92BC",
"R  c #2F87C2",
"E  c #3287C1",
"W  c #3189C5",
"Q  c #3E8CC0",
"!  c #338FCD",
"~  c #3590CF",
"^  c #3B93CE",
"/  c #3691D0",
"(  c #418FC2",
")  c #4894C4",
"_  c #4296CD",
"`  c #4698CE",
"'  c #4C9BCE",
"]  c #5297C1",
"[  c #529ECF",
"{  c #56A0CF",
"}  c #5AA2CF",
"|  c #54A0D0",
" . c #5AA3D0",
".. c #62A6CF",
"X. c #60A6D0",
"o. c #62A8D1",
"O. c #489848",
/* pixels */
"O.O.O.O.O.O.O.O.O.O.O. . . .|  . . .|  . .O.O.O.O.O.O.O.O.O.O.O.",
"O.O.O.O.O.O.O.O.O. .o.( K K K K K K E ~ _  . .O.O.O.O.O.O.O.O.O.",
"O.O.O.O.O.O.O._ ` ) I c u a a a a a f D F D ( | | O.O.O.O.O.O.O.",
"O.O.O.O.O.O.! ' X.A u a u y r t t t t a u a b ! [ X.O.O.O.O.O.O.",
"O.O.O.O.! _ ' U S z u t t q q h x q q r y u f M P ' [ ..O.O.O.O.",
"O.O.O.O.! ` X.G u u u r q h M h d q 5 q w u u u M ! [ ..O.O.O.O.",
"O.O.! _ | U v k u a a r q p a - = q w q r y u u f x L _ } ..O.O.",
"O.O.! _ X.I u a a M R a q 4 3 - 6 M N D b y y u u u D ~ { X.O.O.",
"O.O.! _ ..I y b W W R a 4 = = z x 1 < t f B x u u u D / { ..O.O.",
"O.O.^ _ T I u M / x r q 4 & # & & # & 4 q r y u a u M K ' [ O.O.",
"O.O.X.T s a u M ~ g 4 5 4 & # # # # & 4 5 5 w y y u a a K ^ ....",
"! ^ X.T i f b F ~ g 5 q 4 & # o o O - f h h u 5 r a u a F ~ } ..",
"! ^ X.T a x ! ~ ! g 4 < ; $ # . @ i s s k b b x f u u a F ^  .X.",
"! _ X.T a f b F / g 4 = # X X . + 0 7 # = 4 h ~ M u u u H ^  .X.",
"! ^ X.T a y y m ! h q = # . . . .   . # = 5 t f b F x u K ~ } X.",
"! ^ X.T a a i a u n F w & X . . .   X # = 5 5 5 b / b a F ~ } ..",
"! ^ X.T a i a r 4 b W V c %   .   . . # = 4 q 5 n ! b u H /  .X.",
"! _ X.T a i i t 5 w r < : X . . .   . # = q q 4 b / b u H / } ..",
"! ^ ..Y a i i r 5 q 5 = O X X . + > > # = 4 q 5 n / b u K ~ } ..",
"! _ ..T s i a r 5 5 5 ; - # O . * E D - ; 4 q q g D h u H ~ } ..",
"! ^ X.T a u a r 5 q 5 q 4 & # o % s k h f q q q d M f a H ~ } ..",
"O._ X.T a a u y t w 5 5 5 $ # # # O 9 ! B q q t f m f a H ~ } ..",
"O.O._ ) I A u a a r 5 q 4 & # # # # 9 W B q r u u u b F ) [ O.O.",
"O.O./ _ X.I u u u t r q 4 & # # : m m a y q r u i a D ^  ...O.O.",
"O.O.! _ X.I u u i b D a 4 w w - 9 H D q 5 q r u u u D / [ ..O.O.",
"O.O.! _  .U z d u a f r q D R D b y r 5 r u u u a f F _ } o.O.O.",
"O.O.O.O.~ _ } S u u u w q M D y r q 5 5 w u u u M W [ X.O.O.O.O.",
"O.O.O.O.! _ [ I C k u t r w q 5 5 5 q r t u f x K ` | X.O.O.O.O.",
"O.O.O.O.O.O.! ' o.A u u i t r r r r t u u u b ! [ ..O.O.O.O.O.O.",
"O.O.O.O.O.O.O._ ` U G l i i a i a u f M M B P ' [ O.O.O.O.O.O.O.",
"O.O.O.O.O.O.O.O.O.` ` L D D D D D D F ! _ [ { O.O.O.O.O.O.O.O.O.",
"O.O.O.O.O.O.O.O.O.O.O.[ { [ | { [ | [ [ { O.O.O.O.O.O.O.O.O.O.O."
};
