/* XPM */
static char *p4[] = {
/* columns rows colors chars-per-pixel */
"32 32 88 1 ",
"  c #0E1D2B",
". c #0D1F30",
"X c #0D2133",
"o c #0B263B",
"O c #0A283F",
"+ c #0A2A42",
"@ c #0A2F49",
"# c #0B324D",
"$ c #0C3653",
"% c #0C3A59",
"& c #103956",
"* c #123C5B",
"= c #0C3F60",
"- c #0D4164",
"; c #0C476D",
": c #0D486F",
"> c #154364",
", c #0E4A71",
"< c #104D75",
"1 c #184E74",
"2 c #114F78",
"3 c #13527C",
"4 c #1B547B",
"5 c #165682",
"6 c #175885",
"7 c #185986",
"8 c #175B88",
"9 c #1A5D8A",
"0 c #1C608F",
"q c #1D6494",
"w c #1F6798",
"e c #1F699B",
"r c #20628E",
"t c #216491",
"y c #276995",
"u c #216B9D",
"i c #2B6D99",
"p c #30739F",
"a c #226EA1",
"s c #2471A5",
"d c #2872A5",
"f c #2675AA",
"g c #2778AE",
"h c #2878AF",
"j c #3375A1",
"k c #3678A3",
"l c #387AA5",
"z c #3B7EA9",
"x c #2C7DB5",
"c c #2B7FB8",
"v c #3F82AD",
"b c #2D82BC",
"n c #3482B7",
"m c #3283BA",
"M c #3D87B8",
"N c #3788BF",
"B c #3A89BD",
"V c #458AB6",
"C c #488CB6",
"Z c #448CBA",
"A c #4B8FB9",
"S c #4D91BB",
"D c #2E85C0",
"F c #3087C2",
"G c #3289C5",
"H c #3B8DC4",
"J c #338ECD",
"K c #3590CE",
"L c #3B93CE",
"P c #3692D1",
"I c #3C94D0",
"U c #4B96C6",
"Y c #4296CD",
"T c #4897CB",
"R c #4699CF",
"E c #4C9ACD",
"W c #5197C3",
"Q c #5498C2",
"! c #529FCF",
"~ c #5A9FC9",
"^ c #539FD0",
"/ c #56A0CF",
"( c #5CA3CF",
") c #57A2D0",
"_ c #5DA4D0",
"` c #61A6CF",
"' c #60A6D0",
"] c #489848",
/* pixels */
"]]]]]]]]]]]]]]]]]]]]]]]]]]]]]]]]",
"]]]]]]]]]]])^^!!^!!!^]]]]]]]]]]]",
"]]]]]]]]J)`VffffffxJLE^']]]]]]]]",
"]]]]]]JYEVjr6655659uaanR/`]]]]]]",
"]]]]]]LT(k5553,,,<2565aGE']]]]]]",
"]]]]JY_Vt963,,,,;,,,2699cL/`]]]]",
"]]]]YTAk6762,:,89,,,2696ucT!]]]]",
"]]JL(S98653,,qaGFaeeq25679cL(`]]",
"]]JL_S9673<qgFF914qJg,5677cP(`]]",
"]]LY~C967acFF4>@++$5ecu677xG!(]]",
"]](Wyt665fPu2$++++#:8Da5779yGY(`",
"JL(Q96699ux8;@+OO+#:,2<,3779bL``",
"JL(Q976sPe,=%@O  +@%=::,5669FL_`",
"JL(Qr799w5;$+oX  Xo+$:,,3669DL(`",
"JL_Q9qbu,;,$O.    .+$:0ge989FL(`",
"JL_W9yDa;,,$+     .+$:26fDy9FL(`",
"KL(Q979903:$+.     O$:::gJe9DL('",
"JL(Q076dKe:$O.     +$,,:gJe9DP(`",
"KL'Q976sKe,$+oX  XO+$,,:sJe9FL``",
"JL'Sr76aJbx6>#O X#$=-:::gJe8bL(`",
"JL(Q06675sDDb1&*>it,,,25fDy9DL_'",
"]])Wpy76532acFFdt*%::;eJa9quHR(`",
"]]JL_S8682:,<0t&++$;5wahw8xK(`]]",
"]]KL_S866qs6,=%+@%=;5wq669cK(`]]",
"]]JL_Sr97qusf6,$*su<<35799mL(`]]",
"]]]]LTQz67656sgfs63;<777sDE_]]]]",
"]]]]JY)Zir73,3333:,<37qqmY)']]]]",
"]]]]]]KE`z5773,3223666sJE']]]]]]",
"]]]]]]]YEZvy7777760fgfBE/]]]]]]]",
"]]]]]]]]]YRGcnxcccmLY!)]]]]]]]]]",
"]]]]]]]]]]]!(/))))//(]]]]]]]]]]]",
"]]]]]]]]]]]]]]]]]]]]]]]]]]]]]]]]"
};
