/* XPM */
static char *portal4_[] = {
/* columns rows colors chars-per-pixel */
"32 32 79 1 ",
"  c black",
". c #0E1D2B",
"X c #0D2132",
"o c #0C2438",
"O c #0A293F",
"+ c #0A2B42",
"@ c #0A2F48",
"# c #0B314C",
"$ c #0C3654",
"% c #0C3D5D",
"& c #123E5E",
"* c #0D4163",
"= c #0D466C",
"- c #0D486F",
"; c #154566",
": c #15496D",
"> c #18496B",
", c #0E4B72",
"< c #104E77",
"1 c #194D72",
"2 c #114F79",
"3 c #13517C",
"4 c #1C567F",
"5 c #155682",
"6 c #175885",
"7 c #185986",
"8 c #175B88",
"9 c #1A5C8A",
"0 c #1C6393",
"q c #1F6799",
"w c #1F689A",
"e c #20618E",
"r c #236593",
"t c #20699B",
"y c #2D6F9B",
"u c #2E719C",
"i c #226EA1",
"p c #2471A5",
"a c #2F76A6",
"s c #2675AB",
"d c #2977AD",
"f c #2B78AD",
"g c #3476A1",
"h c #3479A7",
"j c #2A7CB4",
"k c #2B7FB8",
"l c #3E82AD",
"z c #2E83BD",
"x c #3687BD",
"c c #3B8ABE",
"v c #4184AF",
"b c #498DB7",
"n c #468DBA",
"m c #4B8FB9",
"M c #4A90BC",
"N c #5094BE",
"B c #2F86C1",
"V c #3087C2",
"C c #3189C5",
"Z c #3E8DC1",
"A c #338ECC",
"S c #3490CE",
"D c #3D94CE",
"F c #3692D1",
"G c #4694C6",
"H c #4995C6",
"J c #4395CB",
"K c #4799CE",
"L c #4D9CCE",
"P c #5296C0",
"I c #529ECE",
"U c #57A1CF",
"Y c #5EA4CE",
"T c #56A1D1",
"R c #5EA5D0",
"E c #62A6CF",
"W c #61A6D0",
"Q c #62A8D1",
"! c #489848",
/* pixels */
"!!!!!!!!!!!!!!!!!!!!!!!!!!!!!!!!",
"!!!!!!!!!!QLGGKGGGKKKR!!!!!!!!!!",
"!!!!!!!!JHNh000000wkzxGIT!!!!!!!",
"!!!!!!AKEl897533333996tAKEE!!!!!",
"!!!!AJTnur73<,,---,<<79wfJIE!!!!",
"!!!DJGmh7772--,80,-,,676wjcIU!!!",
"!!AJRm9773<3<wszBiipt33777pSLE!!",
"!!ADQm97777pzjd1&&:jj87777pSLE!!",
"!!LGvg776pAji*@+++@=7Ck9770scLT!",
"ADQP97776iV0=$+OO+@=,87,3777sAIQ",
"ADRM977tCt2=%#OX.O+%*,,=<776dAIE",
"ADQN9990t6-$+oX..Xo+#=,<3767sAIE",
"ADRN9tVi--,$+X.....O#-5piw07sFIE",
"ADQN70s0,,,$+X.....O@-,,0Ad6dAIE",
"ADRP976tj0,$O......+@-,-0Ad6sAIE",
"ADQM977pFi-$+oX...oO@---0Aj7sAIE",
"ADQN877iCzs7;#OX.#$%%,=-0Aj6sSIQ",
"ADRN96776wzzz7;;:ee<,,<8wzi5sALQ",
"!!KHvg7762,9izVr4##=,,9Cj80scLI!",
"!!AJEm97766,=::#+@#=3ppw06pFIE!!",
"!!AJRM877wsi02=##79,,65777pSLE!!",
"!!!DJGmg66890iitr09<,7770jcIU!!!",
"!!!!AJTnyr73,3553,-<378rfJLE!!!!",
"!!!!!!SKYl8763<3333778tAKEE!!!!!",
"!!!!!!!!JGMh000000wkzxZII!!!!!!!",
"!!!!!!!!!!FJJGGGJGGKKR!!!!!!!!!!",
"!!!!!!!!!!!!!!!!!!!!!!!!!!!!!!!!",
"!!!!!!!!!!!!!!!!!!!!!!!!!!!!!!!!",
"!!!!!!!!!!!!!!!!!!!!!!!!!!!!!!!!",
"!!!!!!!!!!!!!!!!!!!!!!!!!!!!!!!!",
"!!!!!!!!!!!!!!!!!!!!!!!!!!!!!!!!",
"!!!!!!!!!!!!!!!!!!!!!!!!!!!!!!!!"
};
