/* XPM */
static char *portal1_[] = {
/* columns rows colors chars-per-pixel */
"32 32 81 1 ",
"  c #0E1D2B",
". c #0D2132",
"X c #0B263A",
"o c #0A283E",
"O c #0A2B42",
"+ c #0B314C",
"@ c #0C3552",
"# c #0D3856",
"$ c #0B3C5C",
"% c #0E4265",
"& c #0C466C",
"* c #0D486F",
"= c #154567",
"- c #0E4A71",
"; c #114D76",
": c #114F78",
"> c #1A5076",
", c #13527C",
"< c #1A527A",
"1 c #165682",
"2 c #175885",
"3 c #185986",
"4 c #175B88",
"5 c #1A5C8A",
"6 c #1C608E",
"7 c #1C6393",
"8 c #1F6698",
"9 c #1F699B",
"0 c #21638F",
"q c #236795",
"w c #276996",
"e c #286A96",
"r c #216B9D",
"t c #2B6D99",
"y c #2E709C",
"u c #226EA1",
"i c #2471A5",
"p c #2675AB",
"a c #2875AA",
"s c #2778AE",
"d c #2979AF",
"f c #3678A4",
"g c #3C7FA9",
"h c #2A7CB4",
"j c #3E81AC",
"k c #2D82BB",
"l c #3D84B2",
"z c #3686BB",
"x c #3987BC",
"c c #4285AF",
"v c #4287B2",
"b c #498CB7",
"n c #448EBD",
"m c #4A8EB9",
"M c #4F93BD",
"N c #2F86C1",
"B c #3086C2",
"V c #3189C5",
"C c #398BC1",
"Z c #338ECD",
"A c #388FC9",
"S c #3590CE",
"D c #3C93CE",
"F c #3591D0",
"G c #4691C1",
"H c #4A93C1",
"J c #4396CD",
"K c #4897C9",
"L c #4799CE",
"P c #4C9BCE",
"I c #5195C0",
"U c #599DC6",
"Y c #529ECF",
"T c #56A0CF",
"R c #5CA3CE",
"E c #54A0D0",
"W c #5DA5D0",
"Q c #62A6CF",
"! c #61A6D0",
"~ c #62A8D1",
"^ c #489848",
/* pixels */
"^^^^^^^^^^^YYYEEEEEYY^^^^^^^^^^^",
"^^^^^^^^DYRliiiiuipVAKPR^^^^^^^^",
"^^^^^^ZLRle52,1,122787aDP~^^^^^^",
"^^^^^JLGct21,;-**--:,27pxPT^^^^^",
"^^^^DJUg223;**-,2sp1,222uBKR^^^^",
"^^ZDWmq52,1;-27qrphBku8235hDYQ^^",
"^^ZJ~m222,**-,<@+@%7iZh552sSYQ^^",
"^^DKIj3591***+OOOO+%1hkVi2ukKR^^",
"^LWH553iZ9*-*+OOOO+*--8Fh235hFW~",
"ZD~M3qki51*&=+O..o+&&-5Ni233hFY~",
"ZDQM5uSi***#OoX  XoO@*197333hDYQ",
"ZD~M3uZi**-@O      o+*,75333hDYQ",
"ZDQM2uFi**-@O.     X@***:325hZY~",
"ZD~M3rFh92*@O      o+***:332hZRQ",
"ZD~M5rBVF9*@O.    .O+*;12252hZYQ",
"ZDRM555rpu72;@o  oO@$*5Va222hDYQ",
"ZJ~M323,-27hV=OXoO+***7Fs222hFT~",
"^^EHyw322-*,,@OOOO+&,49ki25rzJYQ",
"^^ZJ~b332,***+OOOO@8pVh522pZYQ^^",
"^^ZD~b222,;--;;+O$&2553222pSYQ^^",
"^^ZDEGfe222;-8u2<77--1227rzLYQ^^",
"^^^^ZJWv652,---5775-:235aDPQ^^^^",
"^^^^^^DKUf222:-:--,212rBKRQ^^^^^",
"^^^^^^^JLmje2553436ippzLY^^^^^^^",
"^^^^^^^^^DLCxCzzzzCDJEW^^^^^^^^^",
"^^^^^^^^^^^^WWWWWWWW^^^^^^^^^^^^",
"^^^^^^^^^^^^^^^^^^^^^^^^^^^^^^^^",
"^^^^^^^^^^^^^^^^^^^^^^^^^^^^^^^^",
"^^^^^^^^^^^^^^^^^^^^^^^^^^^^^^^^",
"^^^^^^^^^^^^^^^^^^^^^^^^^^^^^^^^",
"^^^^^^^^^^^^^^^^^^^^^^^^^^^^^^^^",
"^^^^^^^^^^^^^^^^^^^^^^^^^^^^^^^^"
};
