/* XPM */
static char *portal3_[] = {
/* columns rows colors chars-per-pixel */
"32 32 90 1 ",
"  c black",
". c #0E1C2B",
"X c #0D2335",
"o c #0C273B",
"O c #0B283E",
"+ c #0A2B43",
"@ c #0B2F49",
"# c #142D41",
"$ c #0D324D",
"% c #153249",
"& c #0C3654",
"* c #0D3855",
"= c #0B3A59",
"- c #143A57",
"; c #123D5B",
": c #0C3E60",
"> c #0C4164",
", c #0D456A",
"< c #0D486F",
"1 c #124264",
"2 c #164668",
"3 c #12486C",
"4 c #0D4A71",
"5 c #114E76",
"6 c #1A4D72",
"7 c #114F78",
"8 c #13527C",
"9 c #1C567E",
"0 c #215479",
"q c #165682",
"w c #185782",
"e c #175885",
"r c #185986",
"t c #1A5C8A",
"y c #1D608E",
"u c #1C6393",
"i c #1F6798",
"p c #1F699A",
"a c #21618E",
"s c #236592",
"d c #276894",
"f c #216A9C",
"g c #2C6D99",
"h c #2F719D",
"j c #30739F",
"k c #226DA1",
"l c #2471A5",
"z c #2675AA",
"x c #2976AB",
"c c #2A78AE",
"v c #387BA6",
"b c #2B7CB3",
"n c #2C7FB8",
"m c #3D80AB",
"M c #2D82BC",
"N c #3884B7",
"B c #3788BE",
"V c #3888BE",
"C c #4184AE",
"Z c #4285B0",
"A c #458BB7",
"S c #488DB9",
"D c #4E92BD",
"F c #5296BF",
"G c #2F86C1",
"H c #3087C2",
"J c #318AC6",
"K c #3A8DC4",
"L c #338ECC",
"P c #398FC8",
"I c #3590CF",
"U c #3D93CD",
"Y c #3591D0",
"T c #4792C2",
"R c #4B95C5",
"E c #4396CC",
"W c #4698CE",
"Q c #4B9BCE",
"! c #5296C0",
"~ c #589DC6",
"^ c #509ECF",
"/ c #519FD0",
"( c #55A0CF",
") c #5BA3CF",
"_ c #57A2D0",
"` c #5EA5D0",
"' c #61A6CF",
"] c #61A7D0",
"[ c #63A8D1",
"{ c #489848",
/* pixels */
"{{{{{{{{{{{{{{{{{{{{{{{{{{{{{{{{",
"{{{{{{{{{{{{```)````){{{{{{{{{{{",
"{{{{{{{{{{[RKKBKVVVUE/({{{{{{{{{",
"{{{{{{{EQTZhrrrrrttkccbW^{{{{{{{",
"{{{{{{YW~mrqq75qr758rruMP)){{{{{",
"{{{{LE)Sstr84eyfkq<44qryiPE''{{{",
"{{LUQTvgqrt84ri3&4858qqrtkcEQ'{{",
"{{LE'FttizJp<,>13yfllyrrrquLW''{",
"{{IE)DrfLMkt<&@3t;$,7pperqiJE`]{",
"{{/RjgrkLz<44&++O++><<4qqttixEQ'",
"LU]FttfbLz<4<&+OoO@quut74qtrfLE]",
"LU`FtsJJYl4:&@+..6y98upzltqqfLW'",
"LU]!ttuzYl<=+X...#%#+>7bbfurfLE'",
"IU`!trrukkk6@X.....O@>44qJntfLW'",
"LU]!trr8<uGxs-.....O@,4<qJMtfLW'",
"LU`!ttr8447,&o.....O+,44qLMtfLW'",
"LU)Ftrr84<<=+Oo..0s-@>4<qGMrpLW`",
"LU'Ftrr8<<4<>&+XXactq44<7kprpIW'",
"{E'Fatrq77<44&++O+$bJq47elkrfLW'",
"{{UWFCtrr7<44&+++-1xM84rreuMK(){",
"{{LU]Dtrrtpq<=&$$lHr744rrruLE''{",
"{{YU)Datruke<ibfsuy5488rrtfLW''{",
"{{{{UE~Crre74ibu85<<4qrryMP)){{{",
"{{{{{EWTCleq874444<78qtlbW^'{{{{",
"{{{{{{LW_Adarqqq8qqtuufPW'[{{{{{",
"{{{{{{{{UWRNkkkllllGJTW)){{{{{{{",
"{{{{{{{{{{{W///^^^^^^{{{{{{{{{{{",
"{{{{{{{{{{{{{{{{{{{{{{{{{{{{{{{{",
"{{{{{{{{{{{{{{{{{{{{{{{{{{{{{{{{",
"{{{{{{{{{{{{{{{{{{{{{{{{{{{{{{{{",
"{{{{{{{{{{{{{{{{{{{{{{{{{{{{{{{{",
"{{{{{{{{{{{{{{{{{{{{{{{{{{{{{{{{",
};
