/* XPM */
static char *portal2_[] = {
/* columns rows colors chars-per-pixel */
"32 32 80 1 ",
"  c black",
". c #0E1D2C",
"X c #0C2233",
"o c #0A283E",
"O c #0A2A42",
"+ c #0B2F49",
"@ c #0C324D",
"# c #0B3552",
"$ c #0C3D5E",
"% c #123E5E",
"& c #0D4265",
"* c #0C466C",
"= c #0D486F",
"- c #164567",
"; c #15476B",
": c #15496D",
"> c #194B6F",
", c #0E4A72",
"< c #104D76",
"1 c #114F78",
"2 c #195077",
"3 c #13527C",
"4 c #1B547C",
"5 c #155682",
"6 c #175885",
"7 c #185986",
"8 c #195C89",
"9 c #1B608F",
"0 c #1C6393",
"q c #1F6799",
"w c #1F699A",
"e c #21628F",
"r c #226492",
"t c #216B9D",
"y c #2C6E9A",
"u c #2E709C",
"i c #31739F",
"p c #226EA1",
"a c #2471A5",
"s c #2C74A4",
"d c #2675AA",
"f c #2877AD",
"g c #3274A0",
"h c #387CA7",
"j c #397CA8",
"k c #2A7CB4",
"l c #3F82AD",
"z c #2D82BB",
"x c #3281B6",
"c c #3285BD",
"v c #3788BE",
"b c #4084AF",
"n c #438AB7",
"m c #488CB6",
"M c #438AB8",
"N c #4B8EB8",
"B c #4E92BC",
"V c #5296BF",
"C c #2F86C0",
"Z c #3189C5",
"A c #338ECC",
"S c #3691CE",
"D c #3B93CE",
"F c #3591D0",
"G c #4592C5",
"H c #4A95C5",
"J c #4395CB",
"K c #4799CF",
"L c #4C9BCE",
"P c #539FCF",
"I c #4297D0",
"U c #4398D0",
"Y c #56A0CF",
"T c #5AA3CF",
"R c #56A2D0",
"E c #5CA5D1",
"W c #62A6CF",
"Q c #60A6D0",
"! c #62A8D1",
"~ c #489848",
/* pixels */
"~~~~~~~~~~~~~~~~~~~~~~~~~~~~~~~~",
"~~~~~~~~~~!LGHJGJHLULE~~~~~~~~~~",
"~~~~~~~DJHHgq0q000tzcvGR~~~~~~~~",
"~~~~~~ALWj877313315888aAL!~~~~~~",
"~~~~AURMu073,,=,=,,,378txUPW~~~~",
"~~~DJGNg777,,,,88,=,,866tkGPT~~~",
"~~AD!m8773113wfcCppdw15778kSYW~~",
"~~AJ!m77777fzkd:%%2kd76777kDYW~~",
"~~KHbg777fAkw$+OOO@,9Ad677tfGLE~",
"SJ!B77775aC8*@OOOO@*185<3777kDE!",
"ADEB877pZw1&$+o.XO+$&===3778zDEW",
"AD!B8880q5=#OX...XoO#=<15777kDYT",
"SDTV7tZw*=,#O......o#=8dpr88zDEE",
"AD!B80d9,,*#OX....Xo#=,,aAp7zDY!",
"SJEB877tk9,#OX.....O#=,=pFp8kDYW",
"AD!B877sFw*#oXX..XXO#=,=pFp8zDTW",
"AD!B877aZzd4&+o..@#%&===aFp7zFE!",
"AD!B77777pzzz4--<e8,,,37azw7kDEE",
"~~LGbi7751<9pzcr4@#<,,wAa7tdGLY~",
"~~AJ!m77773<*<;+OO#*6ppw97kFY!~~",
"~~AJ!m777wdw01&+#88,156666kDYW~~",
"~~~DUGmg57700pptrr8,1677tkGPT~~~",
"~~~~AJYny973,3555,=,179rkUYW~~~~",
"~~~~~~SKWh876313133887aAL!~~~~~~",
"~~~~~~~DIGBs000000tzcvGYY~~~~~~~",
"~~~~~~~~~~DJGGJGJGGKLE~~~~~~~~~~",
"~~~~~~~~~~~~~~~~~~~~~~~~~~~~~~~~",
"~~~~~~~~~~~~~~~~~~~~~~~~~~~~~~~~",
"~~~~~~~~~~~~~~~~~~~~~~~~~~~~~~~~",
"~~~~~~~~~~~~~~~~~~~~~~~~~~~~~~~~",
"~~~~~~~~~~~~        ~~~~~~~~~~~~",
"~~~~~~~~~~~~        ~~~~~~~~~~~~"
};
