/* XPM */
static char *potion[] = {
/* columns rows colors chars-per-pixel */
"33 40 160 2 ",
"   c #555358",
".  c #59565D",
"X  c #595B5C",
"o  c #476F49",
"O  c #467D47",
"+  c #477E49",
"@  c #536356",
"#  c #506852",
"$  c #576359",
"%  c #5A665C",
"&  c #5C6C5E",
"*  c #567259",
"=  c #5A725C",
"-  c #5F5A63",
";  c #6C6B6E",
":  c #607162",
">  c #6E6F71",
",  c #6F7071",
"<  c #767678",
"1  c #7B7B7D",
"2  c #B01F34",
"3  c #B12237",
"4  c #B2253A",
"5  c #B4293D",
"6  c #BA2B3D",
"7  c #B63043",
"8  c #B83447",
"9  c #B83548",
"0  c #BA3C4E",
"q  c #C62F40",
"w  c #C63040",
"e  c #CE3444",
"r  c #CF3C4B",
"t  c #BD4355",
"y  c #BF4759",
"u  c #BF4A5B",
"i  c #CA4656",
"p  c #C74D5D",
"a  c #D04F5D",
"s  c #C25363",
"d  c #C85464",
"f  c #D05967",
"g  c #D05D6B",
"h  c #C76271",
"j  c #C86372",
"k  c #D46976",
"l  c #4A874B",
"z  c #4B8A4C",
"x  c #439643",
"c  c #469846",
"v  c #499649",
"b  c #489848",
"n  c #538C54",
"m  c #529453",
"M  c #549955",
"N  c #579058",
"B  c #5A955B",
"V  c #5B9F5D",
"C  c #69856B",
"Z  c #6B8D6C",
"A  c #669467",
"S  c #639C63",
"D  c #758F77",
"F  c #778379",
"G  c #7B857D",
"H  c #759177",
"J  c #729B73",
"K  c #7B9F7C",
"L  c #68A167",
"P  c #6CA56C",
"I  c #73AC73",
"U  c #7BA27E",
"Y  c #73A274",
"T  c #76B076",
"R  c #CB7582",
"E  c #CF7985",
"W  c #D47782",
"Q  c #DA7C87",
"!  c #D27D8A",
"~  c #828E84",
"^  c #838285",
"/  c #869888",
"(  c #908F92",
")  c #919F93",
"_  c #979799",
"`  c #9C9D9E",
"'  c #919293",
"]  c #85A381",
"[  c #84AD85",
"{  c #95AD8E",
"}  c #92B18C",
"|  c #8EB592",
" . c #9BB29B",
".. c #9E9DA0",
"X. c #B39AA1",
"o. c #9FA5A1",
"O. c #A1A1A3",
"+. c #A6A7A8",
"@. c #B0A8A5",
"#. c #B3A9AC",
"$. c #ABB0AC",
"%. c #A6BFAA",
"&. c #AFB0B0",
"*. c #B5B5B6",
"=. c #B5B8B7",
"-. c #B8B5BA",
";. c #BABABB",
":. c #C6828D",
">. c #D78A96",
",. c #D98F99",
"<. c #C0919A",
"1. c #DA929D",
"2. c #DC96A0",
"3. c #DC9BA5",
"4. c #CBA4A9",
"5. c #DDA2AC",
"6. c #D8A9AF",
"7. c #CCAFB6",
"8. c #D9AAB2",
"9. c #C3B6B9",
"0. c #C9BEBB",
"q. c #D5B7BF",
"w. c #E2A4AC",
"e. c #E0A7B2",
"r. c #E2ADB4",
"t. c #E4B2BA",
"y. c #E9B9BF",
"u. c #B6CEB9",
"i. c #BFD5BE",
"p. c #C2BFC3",
"a. c #EBBFC7",
"s. c #E4BDC5",
"d. c #BFD8C0",
"f. c #C4C4C4",
"g. c #C4C8C5",
"h. c #C7C7C8",
"j. c #CCCCCD",
"k. c #D1CECE",
"l. c #C0D8C1",
"z. c #CFCFD0",
"x. c #D5D5D5",
"c. c #DDDEDD",
"v. c #E6C5CD",
"b. c #EBC4CA",
"n. c #EECFD3",
"m. c #EFD0D5",
"M. c #E3D1D4",
"N. c #F0D6DA",
"B. c #F2DADD",
"V. c #E9DFE1",
"C. c #E3E3E3",
"Z. c #E9E4E5",
"A. c #EDEBEC",
"S. c #EFEFF0",
"D. c #F2EFF0",
"F. c #F9EEF0",
"G. c #F5F5F5",
"H. c #F9F3F4",
"J. c #FCF7F8",
"K. c #FEFEFE",
/* pixels */
"b b b b b b b b b b b b b b b b b b v c b b b b b b b c b b b b b ",
"b b b b b b b b b b b b b b b b b b b b b v b b b b b b b b b b b ",
"b b b b b b b b b b b b b b b b b b b b b b b b b b b b b b b b b ",
"b b b b b b b b b b b b b b b b b b b b b b b c b b b b b b b b b ",
"b b b b b b b b b b b b b b b b b b b b b b b b b b b b b b b b b ",
"b b b b b b b b b b b b b b b b b b b b b b b b b b b c b b b b b ",
"b b b b b b b b b b v v b b b b b b b b b b b b b b b v b b b b b ",
"b b b b b b b b b b b b b b b b b b b b b b b b b b b b b b b b b ",
"b b b b b b b b b b b b b b b b b b b b b b b b b b b b b b b b b ",
"b b b b b b b b b b b b b b b b b b b b b b b b b b b b b b b b b ",
"b b b b b b b b b b b b b b b b b b v c b b b b b b b b b b b b b ",
"b b b b b b b b b b b b l # * = = = * v c b c v b b b b b b b b b ",
"b b b b b b b b b b b x n ;         X Z M x b b b b b b b b b b b ",
"b b b b b b b b b b b M K ` 1 > ; , 1 ..K M b b b b b b b b b b b ",
"b b b b b b b b b b b J $.j.j.g.d.h.z.;.o.J c b b b b b v b b b b ",
"b b b b b b b b b b b b Y p.G.J.H.J.S.O.A b b b b b b b c b b b b ",
"b b b b b b b b v v v b S &.J.K.K.K.D.( n x b b b b b b b b b b c ",
"b b b b b v b v x x x B / =.G.K.K.K.S...D B x x x c b b b b b b b ",
"b b b b b b v B L I I  .d.z.K.K.K.K.G.h.=. .I P S N v v c b b b b ",
"b b b v v m H O.g.c.S.G.J.K.K.K.K.K.K.K.J.G.C.x.=.( C m v v b b b ",
"b b b z % ( g.A.G.K.K.K.K.K.K.K.K.K.K.K.K.J.H.H.D.c.=.G $ l c v b ",
"c b l @ ^ k.D.J.K.K.K.K.K.K.K.K.K.H.B.v.r.3.,.>.2.t.M.f.< @ + b b ",
"b b o . +.A.b.w.w.s.b.m.N.N.n.b.r.,.E j s y 0 0 0 h t.Z._ . o c b ",
"b b O : +.V.1.p i f k W ! ! R h p 7 5 4 4 3 3 3 2 0 2.V.` & l c b ",
"b b b m ~ k.5.g e e e w 6 4 4 4 4 4 2 7 4 3 4 7 7 j 8.h.F n b b b ",
"b b b b m ) 9.6.W a r e w 6 4 4 2 4 4 4 4 7 8 u R 4.#.~ m b b b b ",
"b b b b b B L { 7.5.,.Q k d y y t t i s j R :.<.X.] S m b b b b b ",
"b b b b b c x V [ } 0.v.a.t.5.5.5.e.e.r.a.p.@.U J M c b b b b b b ",
"b b b b b b b c c b | i.l.l.l.i.g.l.d.l.d.u.J v x c b b b b b b v ",
"b b b b b b b b b b b v v v v b b b b b b b c c b b b b b b b b b ",
"b b b b b b b b b b b b b b b b b b b b b b b b b b b b b b b b b ",
"b b b b b b b b b b b b b b b b b b b b b b b b b b b b b b b b b ",
"b b b b b b b b b b b b c b b b b b b b b b b b b b b b b b b b b ",
"b b b b b b b b b b b b b b b b b b b b b b b b b b b b b b b b b ",
"b b b b b b b b b b b b b b b b b b b b b b b b b b b b c b b b b ",
"b b b b b b b b b b b b b b b b b b b b b b b b b b b b b b b b b ",
"b b b b b b c b b b b b b b b b b b v b b b b b b b b b b b b b b ",
"b b b b b b v b b b b b v b b b b b c b b b b b b b b b b b b b b ",
"b b b b b b b b b b c b b b b b b b b b b b b b c b b b b b b b b ",
"b b b b b b b b b b b b b b b b b b b b b b b b v b b b b b b b b "
};
