/* XPM */
static char *potion[] = {
/* columns rows colors chars-per-pixel */
"32 32 231 2 ",
"   c #565759",
".  c #58595B",
"X  c #5A5B5D",
"o  c #5A5D5D",
"O  c #476F48",
"+  c #476F49",
"@  c #477049",
"#  c #4B7F4C",
"$  c #527053",
"%  c #537F55",
"&  c #5E5F61",
"*  c #5D6160",
"=  c #5D6361",
"-  c #5E6360",
";  c #5F6461",
":  c #646667",
">  c #636866",
",  c #6A6C6D",
"<  c #697D6B",
"1  c #79777C",
"2  c #7E7E7F",
"3  c #B22539",
"4  c #B3263B",
"5  c #B3273B",
"6  c #B3273C",
"7  c #B3283C",
"8  c #B3283D",
"9  c #B4293D",
"0  c #B42A3E",
"q  c #B82B3E",
"w  c #B42B40",
"e  c #B52C40",
"r  c #B52D40",
"t  c #B73246",
"y  c #B93042",
"u  c #B73448",
"i  c #B83648",
"p  c #BB3E51",
"a  c #C33142",
"s  c #C13344",
"d  c #CC3243",
"f  c #CF3645",
"g  c #CE3646",
"h  c #CE3747",
"j  c #D03E4D",
"k  c #BD485A",
"l  c #C04C5D",
"z  c #CD4B5A",
"x  c #D04E5C",
"c  c #C35565",
"v  c #C45A6A",
"b  c #C55C6C",
"n  c #C65E6D",
"m  c #CA5B69",
"M  c #C7606F",
"N  c #C86372",
"B  c #CB6775",
"V  c #CA6877",
"C  c #CA6977",
"Z  c #D06471",
"A  c #C7717D",
"S  c #D4737F",
"D  c #4C804D",
"F  c #469646",
"G  c #469747",
"H  c #479747",
"J  c #479847",
"K  c #499449",
"L  c #489549",
"P  c #499549",
"I  c #489748",
"U  c #499749",
"Y  c #49954A",
"T  c #4A964A",
"R  c #4A974B",
"E  c #4B974B",
"W  c #4C974C",
"Q  c #4D964D",
"!  c #479848",
"~  c #489848",
"^  c #489849",
"/  c #499849",
"(  c #489A48",
")  c #4A994A",
"_  c #4B984B",
"`  c #4A9A4A",
"'  c #4C994B",
"]  c #4C984C",
"[  c #4C994C",
"{  c #4D984D",
"}  c #4D994D",
"|  c #4D9A4D",
" . c #4D984E",
".. c #4D994E",
"X. c #4E994E",
"o. c #4F984F",
"O. c #4E9A4E",
"+. c #4F9B4F",
"@. c #4F9C4F",
"#. c #558955",
"$. c #588D59",
"%. c #539454",
"&. c #579757",
"*. c #509C50",
"=. c #519C51",
"-. c #519D51",
";. c #569C56",
":. c #579D57",
">. c #6B856C",
",. c #609C60",
"<. c #758E77",
"1. c #778B79",
"2. c #7A947C",
"3. c #7B9B7B",
"4. c #7F9B7F",
"5. c #68A468",
"6. c #CE7481",
"7. c #CF7A87",
"8. c #D17B87",
"9. c #D67B86",
"0. c #D67B87",
"q. c #838D85",
"w. c #868A88",
"e. c #8D8E8F",
"r. c #809A82",
"t. c #8B908D",
"y. c #879C88",
"u. c #8A9B8C",
"i. c #8A9F8C",
"p. c #909492",
"a. c #939D95",
"s. c #9C9D9E",
"d. c #8DAC8C",
"f. c #8FA990",
"g. c #90A192",
"h. c #9DA29F",
"j. c #A0A1A2",
"k. c #A7A0A1",
"l. c #A2A5A3",
"z. c #A5ACA6",
"x. c #ACACAD",
"c. c #ACAEAE",
"v. c #BAA3A3",
"b. c #B5AFAD",
"n. c #B2B2B3",
"m. c #B5BAB6",
"M. c #B7B7B9",
"N. c #BABABB",
"B. c #BBB9BC",
"V. c #BCBEBD",
"C. c #D58490",
"Z. c #D58793",
"A. c #D98E97",
"S. c #D28E98",
"D. c #DA8E98",
"F. c #D8909B",
"G. c #D9939D",
"H. c #DD939C",
"J. c #C999A0",
"K. c #C99FA4",
"L. c #D798A2",
"P. c #DD9CA5",
"I. c #D5A3A9",
"U. c #DEA0AA",
"Y. c #DFA4AC",
"T. c #DCA6AD",
"R. c #C3B9B9",
"E. c #C4BBBA",
"W. c #D1B5B6",
"Q. c #E2AFB6",
"!. c #C2C2C3",
"~. c #C3C3C4",
"^. c #C4C1C5",
"/. c #C6C6C7",
"(. c #C2C8C2",
"). c #C3C8C4",
"_. c #C8C9C8",
"`. c #CCCBCC",
"'. c #CFCDD0",
"]. c #CFCFD0",
"[. c #D7D1D2",
"{. c #D1D5D1",
"}. c #D2D5D1",
"|. c #D7D7D7",
" X c #DFD6D7",
".X c #D9D7DA",
"XX c #DADEDA",
"oX c #DDDDDD",
"OX c #E8C3C8",
"+X c #EDCCD1",
"@X c #E2DAD7",
"#X c #E2DBD8",
"$X c #E3DFDB",
"%X c #E0DFDC",
"&X c #E4DFDC",
"*X c #E2E1DD",
"=X c #E5E3DF",
"-X c #E3E0E1",
";X c #E2E6E2",
":X c #EAE7E7",
">X c #ECEAEB",
",X c #E8ECE8",
"<X c #F0E1E3",
"1X c #F6E4E7",
"2X c #F2E5E8",
"3X c #F7E6E9",
"4X c #F7EAEC",
"5X c #F6EDEF",
"6X c #F9EDEF",
"7X c #FAEEEF",
"8X c #F0F0F0",
"9X c #F3F4F3",
"0X c #F4F3F4",
"qX c #FAF1F3",
"wX c #FCF5F6",
"eX c #FCF6F7",
"rX c #F8F7F8",
"tX c #FDF7F8",
"yX c #F9F9F9",
"uX c #FBFBFB",
"iX c #FDF9F9",
"pX c #FDFAFA",
"aX c #FDFAFB",
"sX c #FCFBFB",
"dX c #FDFBFB",
"fX c #FCFCFC",
"gX c #FDFDFD",
"hX c #FEFCFD",
"jX c #FEFEFE",
"kX c #FFFEFE",
"lX c #FFFFFF",
/* pixels */
"~ ~ ~ ~ ~ ~ ~ ~ ~ ~ ~ ~ ~ ~ ~ ~ ~ ~ ~ ~ ~ ~ ~ ~ ~ ~ ~ ~ ~ ~ ~ ~ ",
"~ ~ ~ ~ ~ ~ ~ ~ ~ ~ ~ ~ ~ ~ ~ ~ ~ ~ ~ ~ ~ ~ ~ ~ ~ ~ ~ ~ ~ ~ ~ ~ ",
"~ ~ ~ ~ ~ ~ ~ ~ ~ ~ ~ ~ ~ ~ ~ ~ ~ ~ ~ ~ ~ ~ ~ ~ ~ ~ ~ ~ ~ ~ ~ ~ ",
"~ ~ ~ ~ ~ ~ ~ ~ ~ ~ ~ ~ ~ ~ ~ ~ ~ ~ ~ ~ ~ ~ ~ ~ ~ ~ ~ ~ ~ ~ ~ ~ ",
"~ ~ ~ ~ ~ ~ ~ ~ ~ ~ ~ ~ ~ ~ ~ ~ ~ ~ ~ ~ ~ ~ ~ ~ ~ ~ ~ ~ ~ ~ ~ ~ ",
"~ ~ ~ ~ ~ ~ ~ ~ ~ ~ ~ ~ ~ ~ ~ ~ ~ ~ ~ ~ ~ ~ ~ ~ ~ ~ ~ ~ ~ ~ ~ ~ ",
"~ ~ ~ ~ ~ ~ ~ ~ ~ ~ ~ ~ ~ ~ ~ ~ ~ ~ ~ ~ ~ ~ ~ ~ ~ ~ ~ ~ ~ ~ ~ ~ ",
"~ ~ ~ ~ ~ ~ ~ ~ ~ ~ ~ ~ ~ ~ I I ~ ~ ~ ~ ~ ~ ~ ~ ~ ~ ~ ~ ~ ~ ~ ~ ",
"~ ~ ~ ~ ~ ~ ~ ~ ~ ~ ~ ~ I I K I Y I I ~ ~ ~ ~ ~ ~ ~ ~ ~ ~ ~ ~ ~ ",
"~ ~ ~ ~ ~ ~ ~ ~ ~ ~ ~ ~ $ o - - : - % ~ ~ ~ ~ ~ ~ ~ ~ ~ ~ ~ ~ ~ ",
"~ ~ ~ ~ ~ ~ ~ ~ ~ J ~ ..2.1 .     . 2 4...! ~ ~ ~ ~ ~ ~ ~ ~ ~ ~ ",
"~ ~ ~ ~ ~ ~ ~ ~ ~ J ..i.V.`.~.N.N./.!.c.y...! ~ ~ ~ ~ ~ ~ ~ ~ ~ ",
"~ ~ ~ ~ ~ ~ ~ ~ ~ ~ ~ ' f..XgXgXyXgX^.1._ ~ ~ ~ ~ ~ ~ ~ ~ ~ ~ ~ ",
"~ ~ ~ ~ ~ ~ ~ ~ ~ ~ ~ ..r.'.gXgXgXgXN.>._ I ~ ~ ~ ~ ~ I ~ ~ ~ ~ ",
"~ ~ ~ ~ ~ ~ Q ....*.:.g.n.oXgXgXgXgX].j.u.:.*.+.Q I I I ~ ~ ~ ~ ",
"~ ~ ~ I I Q 1.l.).XX,X9XyXgXgXgXgXgXsXyX8X;X{.m.p.< o.I I ~ ~ ~ ",
"~ ~ ~ D > h.|.0XdXgXgXgXgXgXgXgXgXgXdXdXtXqX6X5X:X_.t.- # I ~ ~ ",
"~ ! @ o s.>X4X3X6XtXdXdXhXdXdXeX3X+XQ.G.8.C M N Z.OX-Xe.. + ~ ~ ",
"~ ! O , N.<XC.m Z 9.D.P.Y.U.D.6.c p t e 9 6 6 3 u 8.2Xc.> @ ~ ~ ",
"~ ~ F $.p. XA.z d f h s y e 9 8 5 5 9 5 6 6 3 6 l L.[.w.#.J ~ ~ ",
"~ ~ ~ ! &.a.R.I.S x j h a q 5 5 5 5 6 9 w u k A K.b.q.%.J ~ ~ ~ ",
"~ ~ ~ ! ~ ....d.R.W.T.H.9.B b v v n B 8.S.J.v.k.3...E ~ ! ~ ~ ~ ",
"~ ~ ~ ~ ~ ~ ! ....5.(.%X-X=X#X#X@X#X&X=X{.z.,...~ ~ ~ ~ ~ ~ ~ ~ ",
"~ ~ ~ ~ ~ ! ! ~ ~ ~ *.*.-.-.*.*.*.*.-.*.*...~ ~ ~ ~ ~ ~ ~ ~ ~ ~ ",
"~ ~ ~ ~ ~ ~ ~ ~ ~ ~ ~ ~ ~ ~ ~ ~ ~ ~ ~ ~ ~ ~ ~ ~ ~ ~ ~ ~ ~ ~ ~ ~ ",
"~ ~ ~ ~ ~ ~ ~ ~ ~ ~ ~ ~ ~ ~ ~ ~ ~ ~ ~ ~ ~ ~ ~ ~ ~ ~ ~ ~ ~ ~ ~ ~ ",
"~ ~ ~ ~ ~ ~ ~ ~ ~ ~ ~ ~ ~ ~ ~ ~ ~ ~ ~ ~ ~ ~ ~ ~ ~ ~ ~ ~ ~ ~ ~ ~ ",
"~ ~ ~ ~ ~ ~ ~ ~ ~ ~ ~ ~ ~ ~ ~ ~ ~ ~ ~ ~ ~ ~ ~ ~ ~ ~ ~ ~ ~ ~ ~ ~ ",
"~ ~ ~ ~ ~ ~ ~ ~ ~ ~ ~ ~ ~ ~ ~ ~ ~ ~ ~ ~ ~ ~ ~ ~ ~ ~ ~ ~ ~ ~ ~ ~ ",
"~ ~ ~ ~ ~ ~ ~ ~ ~ ~ ~ ~ ~ ~ ~ ~ ~ ~ ~ ~ ~ ~ ~ ~ ~ ~ ~ ~ ~ ~ ~ ~ ",
"~ ~ ~ ~ ~ ~ ~ ~ ~ ~ ~ ~ ~ ~ ~ ~ ~ ~ ~ ~ ~ ~ ~ ~ ~ ~ ~ ~ ~ ~ ~ ~ ",
"~ ~ ~ ~ ~ ~ ~ ~ ~ ~ ~ ~ ~ ~ ~ ~ ~ ~ ~ ~ ~ ~ ~ ~ ~ ~ ~ ~ ~ ~ ~ ~ "
};
