/* XPM */
static char *potionx32xz[] = {
/* columns rows colors chars-per-pixel */
"32 32 159 2 ",
"   c #4E4F51",
".  c #535456",
"X  c #57585A",
"o  c #595A5C",
"O  c #525D55",
"+  c #476E48",
"@  c #487049",
"#  c #497F4A",
"$  c #4F6451",
"%  c #4E6950",
"&  c #5B655E",
"*  c #576B58",
"=  c #547356",
"-  c #5E5D61",
";  c #5F6162",
":  c #5E6F60",
">  c #5E7F60",
",  c #616364",
"<  c #666669",
"1  c #656B69",
"2  c #6B6B6E",
"3  c #627C64",
"4  c #6B736E",
"5  c #697C6C",
"6  c #6F6D71",
"7  c #707372",
"8  c #777C7A",
"9  c #7A7A7C",
"0  c #B2263B",
"q  c #B3283C",
"w  c #BD2C3F",
"e  c #B52E42",
"r  c #BC2E41",
"t  c #B73246",
"y  c #B73548",
"u  c #BA3649",
"i  c #BA3B4E",
"p  c #BA3E50",
"a  c #C63344",
"s  c #CC3343",
"d  c #C83949",
"f  c #D23645",
"g  c #BC4253",
"h  c #BE4658",
"j  c #BF4A5B",
"k  c #C04253",
"l  c #C94E5D",
"z  c #CA4353",
"x  c #C14F60",
"c  c #C35665",
"v  c #C65E6D",
"b  c #CA6573",
"n  c #CE6977",
"m  c #CC6D7B",
"M  c #D26C79",
"N  c #CF727F",
"B  c #4A814B",
"V  c #4B8B4B",
"C  c #469746",
"Z  c #479847",
"A  c #4A964A",
"S  c #489848",
"D  c #4F8250",
"F  c #578758",
"G  c #578A58",
"H  c #528553",
"J  c #519451",
"K  c #529B53",
"L  c #5E9C5E",
"P  c #5F8F60",
"I  c #69846A",
"U  c #6D886E",
"Y  c #738E75",
"T  c #79937B",
"R  c #789979",
"E  c #62A262",
"W  c #6DA96D",
"Q  c #7F7F81",
"!  c #CE7481",
"~  c #D07682",
"^  c #D07986",
"/  c #7F9A80",
"(  c #838484",
")  c #808A81",
"_  c #8A8D8C",
"`  c #869B88",
"'  c #8D9D8D",
"]  c #8F9091",
"[  c #8D9E90",
"{  c #939395",
"}  c #979899",
"|  c #9B9C9D",
" . c #87A288",
".. c #8FA98F",
"X. c #93A394",
"o. c #98B299",
"O. c #A2A4A3",
"+. c #A7ABA9",
"@. c #A9ABAB",
"#. c #ABBBAC",
"$. c #AFAFB0",
"%. c #AFB6B0",
"&. c #B3B4B4",
"*. c #B5BAB7",
"=. c #B6B7B8",
"-. c #BBBABB",
";. c #D68994",
":. c #D98C96",
">. c #D88F99",
",. c #D7939D",
"<. c #D9949E",
"1. c #D997A1",
"2. c #DA9FA8",
"3. c #DD9CA5",
"4. c #C0BEBF",
"5. c #DBB7BC",
"6. c #E2ACB4",
"7. c #E4B5BC",
"8. c #B0C1B1",
"9. c #BDC0BE",
"0. c #D5BFC2",
"q. c #C4C3C5",
"w. c #C9C6C7",
"e. c #C7C7C8",
"r. c #C9C7CA",
"t. c #CACBCB",
"y. c #C2CAC3",
"u. c #DBC2C5",
"i. c #D0CECF",
"p. c #CFCDD0",
"a. c #D3D2D4",
"s. c #DBD6D3",
"d. c #D7D9D6",
"f. c #D7D7D8",
"g. c #DBDBDC",
"h. c #E3C0C5",
"j. c #E1C7CB",
"k. c #EBC6CB",
"l. c #E6C9CD",
"z. c #EACACE",
"x. c #EDCDD2",
"c. c #EFD1D6",
"v. c #E1DDDF",
"b. c #EFDCDE",
"n. c #F0D5D9",
"m. c #F2DADD",
"M. c #E1DEE2",
"N. c #E4E4E5",
"B. c #E9E0E2",
"V. c #EDEDED",
"C. c #F3E3E6",
"Z. c #F7E7E9",
"A. c #F5EBEC",
"S. c #F9ECEE",
"D. c #F7EFF0",
"F. c #F6F4F5",
"G. c #FAF4F5",
"H. c #F8F7F8",
"J. c #FEFEFE",
/* pixels */
"S S S S S S S S S S S S S S S S S S S S S S S S S S S S S S S S ",
"S S S S Z S S Z S S S S S S S S A A A A S Z S Z Z S S A S S S S ",
"S S S Z S S S S S S S S = , 1 2 1 1 - = S S S S Z Z Z Z Z S S S ",
"S Z S S S Z S S S S S S % . o o o X . % S S Z S Z Z Z Z Z S S S ",
"S S S S S S S S S S S A 3 o         - 3 K S S S Z S S S Z S S Z ",
"S S Z S Z S Z S S S K 8.r.} o . . - | t.#.K C S Z S S S Z Z S A ",
"S Z Z S S S S S S S A X.r.g.e.&.=.t.p.-.' K Z S Z Z S S S S S S ",
"S S S S S Z S S S S S S o.M.J.J.J.J.r.T S S S S Z Z S S S S S S ",
"S S S S S S S S S Z S Z ..g.J.J.J.J.q.Y S S S S S S S S S S S Z ",
"S Z S S S S Z S S S S S  .a.J.J.J.J.4.U S S S S Z S S S S S Z Z ",
"S Z Z S S Z Z S S S S Z / p.J.J.J.J.-.I S S S S A S S S A Z Z Z ",
"S S S S S S S S S S S S T r.J.J.J.J.=.3 Z S S S S S S S S S S S ",
"S S S S S A Z S S A K 5 { a.J.J.J.J.q.Q : A S S Z Z Z Z S S S S ",
"Z S S S Z Z S S I _ *.d.V.H.J.J.J.J.H.N.t.O.9 F A A Z Z S S S S ",
"S S Z S S V * ( 9.V.H.J.J.J.J.J.J.J.J.J.J.H.M.+.6 $ A Z S S S S ",
"S S S Z V & | g.H.J.J.J.J.J.J.J.J.J.J.J.J.J.J.H.t.( O V S S S S ",
"S S A # o } N.J.J.J.J.J.J.J.J.J.J.J.J.J.J.J.J.J.H.f./   @ S S S ",
"S A S # 8 g.H.J.J.J.J.J.J.J.J.J.J.J.J.J.G.m.x.n.S.F.t.2 # S S S ",
"S S @ & O.F.J.J.J.J.J.J.J.J.J.J.J.S.k.<.b j i g ^ x.A.] o @ S S ",
"S S + < -.D.k.7.z.S.G.J.J.J.G.C.6.m g q q 0 0 0 i ;.A.+., + S S ",
"S S @ 7 4.m.n u k b ;.6.7.6.,.v y q q q 0 0 0 0 e ! C.&.< + S S ",
"S S + < $.m.n d s a w e y t w q q q q 0 q q 0 0 t ~ B.O., + S S ",
"Z Z Z G ] B.;.z s f s w q q q q q q q q q q q 0 k 1.M.( H Z S S ",
"Z Z Z V 2 q.h.M a f f f w q q q q q q q 0 q 0 e ! l.%.; B S S S ",
"Z S S Z J ( i.7.M d s f s w q q q q 0 q q q t M 0.-.4 V S S S S ",
"S Z Z S A A ` w.l.:.l d a w q q q q q e t x ,.0.@.5 A S S S S S ",
"S S Z S S S S R &.f.z.3.N c g i p h c ~ 2.0.-._ 3 A Z Z S S S S ",
"S S S S S S S A S W d.G.G.C.m.c.x.m.Z.D.M.O.L S A Z Z Z S S S S ",
"Z S S S S S S S Z E y.V.H.J.H.H.J.H.J.H.N.&.L Z Z S S Z S S S S ",
"S S S S S S S S S S K X.@.*.8.9.*.&.&.+.[ K Z Z S S S S S S S S ",
"S S S S S S S S S S S A A K K A A K A A A S S S S S S S S S S Z ",
"Z S S S S S S S S S S S S S S S S S S S Z S S Z S S S S Z S S S "
};
