/* XPM */
static char *potion32[] = {
/* columns rows colors chars-per-pixel */
"33 40 111 2 ",
"   c #010201",
".  c #060D06",
"X  c #130606",
"o  c #1D0B0A",
"O  c #091309",
"+  c #0D1B0D",
"@  c #15150C",
"#  c #101A0D",
"$  c #240F0D",
"%  c #31070D",
"&  c #3A060E",
"*  c #3A0F10",
"=  c #321513",
"-  c #3D1113",
";  c #341814",
":  c #0F200F",
">  c #112411",
",  c #192513",
"<  c #152C15",
"1  c #193519",
"2  c #1B381B",
"3  c #282415",
"4  c #332B1A",
"5  c #243C1E",
"6  c #31361E",
"7  c #440C12",
"8  c #4D0E15",
"9  c #540E16",
"0  c #451014",
"q  c #4D1517",
"w  c #401E18",
"e  c #4D1B19",
"r  c #551A1B",
"t  c #5C1B1D",
"y  c #64151C",
"u  c #6C131D",
"i  c #671C1F",
"p  c #75151F",
"a  c #40291D",
"s  c #5C201E",
"d  c #7F1621",
"f  c #7D1822",
"g  c #4F2E21",
"h  c #493B26",
"j  c #5F3326",
"k  c #742D27",
"l  c #204521",
"z  c #294422",
"x  c #244B24",
"c  c #3A4F2A",
"v  c #265026",
"b  c #275428",
"n  c #285528",
"m  c #2B5C2C",
"M  c #375B2E",
"N  c #3C5F30",
"B  c #2F642F",
"V  c #316731",
"C  c #326D33",
"Z  c #3C6C35",
"A  c #367336",
"S  c #387738",
"D  c #424B2A",
"F  c #475D31",
"G  c #426F37",
"H  c #4A6E39",
"J  c #48753B",
"K  c #457D3D",
"L  c #487D3E",
"P  c #841B25",
"I  c #8A1C26",
"U  c #971F2A",
"Y  c #9A1D2A",
"T  c #A41F2B",
"R  c #A91F2C",
"E  c #812227",
"W  c #9B202C",
"Q  c #A3202C",
"!  c #A9222E",
"~  c #A32632",
"^  c #AD2431",
"/  c #B32532",
"(  c #BD2633",
")  c #B62D39",
"_  c #BA303C",
"`  c #C12633",
"'  c #C22836",
"]  c #C3333F",
"[  c #C23945",
"{  c #C23D49",
"}  c #C2404B",
"|  c #C54853",
" . c #C84D57",
".. c #C7535D",
"X. c #C85E68",
"o. c #CA6C74",
"O. c #3E833E",
"+. c #42843F",
"@. c #48803F",
"#. c #458540",
"$. c #438B42",
"%. c #488D44",
"&. c #469446",
"*. c #489145",
"=. c #489748",
"-. c #479948",
";. c #489848",
":. c #4BA24C",
">. c #CD7A81",
",. c #CE8389",
"<. c #D29CA1",
/* pixels */
";.;.=.=.=.=.=.-.=.;.;.=.;.;.;.;.=.;.;.=.;.;.;.;.;.;.=.=.=.-.-.;.;.",
";.;.;.;.=.=.;.;.;.;.;.;.;.;.;.;.;.;.;.;.;.;.;.;.;.;.=.;.=.=.;.;.;.",
"=.;.;.;.;.;.;.;.;.;.;.;.;.;.;.;.;.;.;.;.-.;.=.=.;.;.;.;.;.;.;.;.;.",
";.;.;.=.;.;.;.;.;.=.;.;.=.;.;.=.=.;.=.;.-.=.=.;.;.;.;.;.;.;.;.;.;.",
";.;.;.;.=.-.;.;.;.;.;.=.;.;.;.;.=.=.;.;.;.;.;.;.;.;.;.;.;.;.;.;.=.",
";.;.;.;.=.=.;.;.;.;.;.;.;.;.;.;.=.=.;.;.=.=.;.;.;.;.;.;.;.;.;.;.;.",
";.;.-.;.;.;.;.;.;.;.;.;.;.;.;.;.=.;.;.;.=.;.;.;.;.;.;.;.=.=.;.;.;.",
"=.=.=.=.=.;.;.;.;.;.;.;.;.;.;.;.=.-.;.;.-.;.;.;.;.;.-.-.=.=.=.=.;.",
"=.;.;.;.=.=.=.-.;.;.;.;.;.;.;.-.-.=.;.;.=.;.;.=.;.;.-.;.;.;.;.;.;.",
"-.;.;.;.=.=.=.-.;.;.;.;.;.-.;.$.O.#.$.&.;.;.;.;.;.;.=.=.;.;.;.;.;.",
"=.=.;.;.;.;.;.;.;.;.;.;.-.-.&.2 + O > O.;.;.;.;.;.;.=.=.;.-.;.;.=.",
"=.;.;.;.;.;.;.;.;.;.;.;.-.O.2 m A A V 2 S ;.;.=.;.;.=.=.;.=.=.=.;.",
"-.;.=.=.-.-.;.;.;.;.;.;.-.O.. 2 v x x   m :.;.;.=.=.;.;.;.;.;.;.;.",
";.;.=.=.;.;.;.;.;.;.;.-.-.O..   O +   > S :.;.;.-.=.;.;.;.;.;.;.;.",
";.;.;.;.;.;.;.;.;.=.=.-.:.#.+   v C O O.;.-.;.;.;.;.;.;.;.;.;.=.;.",
";.;.;.;.;.;.;.;.=.=.=.=.;.=.O.> x C O O.-.;.;.;.;.;.;.;.;.-.=.=.=.",
";.;.-.-.;.=.;.;.;.;.;.;.;.;.=.> x C O O.;.;.;.;.;.;.;.;.;.;.;.;.;.",
";.;.;.=.;.;.;.=.=.;.;.;.;.;.&.< x A O O.:.;.;.;.;.;.;.;.;.;.;.;.;.",
";.;.=.=.;.=.;.;.=.=.;.;.;.;.;.> x C O S ;.;.;.;.;.;.;.;.;.=.;.;.;.",
";.;.=.=.=.;.;.;.=.=.;.;.;.;.O.< n S > #.;.;.;.;.;.;.;.;.;.;.;.;.;.",
";.;.;.;.=.;.;.=.=.;.;.;.;.O.> V &.&.$.;.;.;.;.;.;.;.;.;.;.;.;.;.;.",
";.;.;.;.;.;.;.;.-.;.;.:.A 2 B $.-.=.;.;.x m -.=.;.=.;.;.;.=.;.;.=.",
"=.=.;.;.;.;.;.;.;.;.-.A > . &.:.-.;.;.;.< O B =.;.;.;.=.;.=.=.;.;.",
"=.=.;.;.;.;.;.;.;.;.S l < 2 Z G $.-.-.-.b # @ Z *.;.;.;.;.;.;.;.;.",
"=.=.;.;.;.;.;.;.-.&.: x %.J r 7 D $.$.=.$.c % = K -.;.;.;.;.;.;.;.",
"-.-.;.;.;.;.;.;.;.%.: o a t T I t ; 3 #.z - y e #.-.;.-.;.;.;.;.;.",
";.;.;.;.;.;.;.;.+.6 $ 9 I ~ { ) T d 0 4 ; u W y 4 Z -.-.;.;.;.;.=.",
";.;.;.;.;.;.-.-.K - p Y )  .o.[ ` / P f f W ^ I & M ;.-.;.;.;.;.;.",
";.;.;.;.;.;.;.-.L r ! ' | >.o.[ ( ( ( ( ( / ^ ^ 8 F :.;.;.;.;.;.;.",
";.;.;.;.;.;.=.:.K r Q ' X.<.[ ( ( ( ( ( / ^ ^ ^ 8 Z -.;.;.;.;.;.;.",
";.;.;.;.;.;.=.-.L e U ( ..,.[ ( ( ( ( / / / ^ U 7 M ;.;.;.;.;.;.;.",
";.;.;.;.;.-.-.-.$.H k R ] { ' ` ( ( / ^ ^ / Q i F $.;.=.;.;.;.=.;.",
";.;.;.;.;.;.;.=.-.;.j Y ` ( ( ` ( ) / / ^ / U q #.;.;.;.;.;.=.;.;.",
";.;.;.;.;.;.;.;.-.*.a p ! ( / / / ^ ! ^ ^ Q E h #.;.;.;.;.;.;.;.;.",
";.;.;.;.;.;.=.=.-.&.< * p I I I I P P P P p g $.;.;.;.;.;.=.;.=.=.",
";.;.;.=.;.;.-.=.;.;.&.5 X X X X X X X X X X , &.;.;.;.;.;.;.;.;.;.",
"=.;.=.=.=.=.;.;.;.;.;.O.C C C C C C C C C C S =.;.;.;.;.;.;.;.;.;.",
";.;.;.;.=.=.;.;.;.;.;.;.-.;.:.;.:.;.-.;.:.;.-.;.;.;.;.;.;.;.;.=.;.",
";.;.;.=.=.;.;.;.;.;.;.;.;.;.;.;.;.;.;.;.;.;.;.;.;.;.;.;.;.;.;.;.;.",
"=.;.;.;.-.;.;.;.;.;.;.;.;.;.;.;.=.;.;.=.;.;.;.;.;.;.;.;.;.;.;.;.=."
};
