/* XPM */
static char *potion32[] = {
/* columns rows colors chars-per-pixel */
"32 32 195 2 ",
"   c #010201",
".  c #030603",
"X  c #040804",
"o  c #040904",
"O  c #050B05",
"+  c #0A0805",
"@  c #0C0A06",
"#  c #0D0A07",
"$  c #0E0A07",
"%  c #090E07",
"&  c #0C0F08",
"*  c #071007",
"=  c #081108",
"-  c #091309",
";  c #091409",
":  c #0B170B",
">  c #0D1B0D",
",  c #0E1D0E",
"<  c #13100A",
"1  c #151F10",
"2  c #290D0D",
"3  c #290E0E",
"4  c #2E0C0E",
"5  c #2E0D0E",
"6  c #3B0C11",
"7  c #2E1310",
"8  c #321010",
"9  c #3F1214",
"0  c #122512",
"q  c #122712",
"w  c #132813",
"e  c #162E16",
"r  c #173017",
"t  c #173117",
"y  c #193419",
"u  c #1B381B",
"i  c #1E3F1E",
"p  c #3C2219",
"a  c #420E13",
"s  c #441114",
"d  c #451315",
"f  c #471617",
"g  c #491717",
"h  c #591018",
"j  c #591218",
"k  c #5E1319",
"l  c #5A161A",
"z  c #5A161B",
"x  c #5E191D",
"c  c #5F191D",
"v  c #64101A",
"b  c #66101B",
"n  c #64121A",
"m  c #67131B",
"M  c #64151D",
"N  c #67161D",
"B  c #68141C",
"V  c #751820",
"C  c #771E22",
"Z  c #7E1B23",
"A  c #1F421F",
"S  c #234722",
"D  c #2C4423",
"F  c #224822",
"G  c #244C24",
"H  c #374224",
"J  c #374726",
"K  c #384224",
"L  c #265026",
"P  c #265126",
"I  c #285428",
"U  c #285528",
"Y  c #37582C",
"T  c #306530",
"R  c #306630",
"E  c #3C6231",
"W  c #3E6332",
"Q  c #316831",
"!  c #376833",
"~  c #336C33",
"^  c #346D34",
"/  c #377136",
"(  c #387337",
")  c #397337",
"_  c #3E7338",
"`  c #397839",
"'  c #397A3A",
"]  c #3B7A3A",
"[  c #3B7D3B",
"{  c #47532D",
"}  c #495D32",
"|  c #4A5D32",
" . c #476133",
".. c #446433",
"X. c #446434",
"o. c #486133",
"O. c #4B753C",
"+. c #4B7B3E",
"@. c #50763D",
"#. c #811B24",
"$. c #831E25",
"%. c #891C25",
"&. c #8A1C26",
"*. c #8B1C26",
"=. c #8D1E28",
"-. c #8E1E28",
";. c #911E28",
":. c #911E29",
">. c #941F29",
",. c #961F2A",
"<. c #9F212C",
"1. c #A0222D",
"2. c #A4212E",
"3. c #A7232E",
"4. c #A7232F",
"5. c #AB222E",
"6. c #AC2430",
"7. c #AD2431",
"8. c #AE2431",
"9. c #AF2431",
"0. c #AF2531",
"q. c #B02430",
"w. c #B02431",
"e. c #B02531",
"r. c #B22430",
"t. c #B32530",
"y. c #B02532",
"u. c #B12532",
"i. c #B22532",
"p. c #B52431",
"a. c #B62431",
"s. c #B72531",
"d. c #B52532",
"f. c #B62532",
"g. c #B42632",
"h. c #B72632",
"j. c #BB2632",
"k. c #BA2633",
"l. c #BB2633",
"z. c #BF2431",
"x. c #BC2633",
"c. c #BD2633",
"v. c #BF2734",
"b. c #B02934",
"n. c #BD2936",
"m. c #BF2936",
"M. c #BF2A36",
"N. c #BE2C38",
"B. c #C02734",
"V. c #C02835",
"C. c #C12B38",
"Z. c #C02E3B",
"A. c #C1414C",
"S. c #C34651",
"D. c #C5505A",
"F. c #C96069",
"G. c #C96870",
"H. c #CC7078",
"J. c #CC757D",
"K. c #CC777F",
"L. c #3F843F",
"P. c #3F853F",
"I. c #46823F",
"U. c #408640",
"Y. c #408740",
"T. c #428B42",
"R. c #448F44",
"E. c #458F44",
"W. c #449044",
"Q. c #459145",
"!. c #479145",
"~. c #459245",
"^. c #469245",
"/. c #469446",
"(. c #479547",
"). c #469647",
"_. c #479647",
"`. c #479747",
"'. c #499447",
"]. c #469847",
"[. c #489748",
"{. c #479848",
"}. c #479948",
"|. c #489848",
" X c #489948",
".X c #499949",
"XX c #489A49",
"oX c #499A49",
"OX c #489B49",
"+X c #489C49",
"@X c #489D4A",
"#X c #499D4A",
"$X c #4A9C4A",
"%X c #4A9D4A",
"&X c #CF888E",
/* pixels */
"|.|.|.|.|.|.|.|.|.|.|.|.|.|.|.|.|.|.|.|.|.|.|.|.|.|.|.|.|.|.|.|.",
"|.|.|.|.|.|.|.|.|.|.|.|.|.|.|.|.|.|.|.|.|.|.|.|.|.|.|.|.|.|.|.|.",
"|.|.|.|.|.|.|.|.|.|.|.|.|.|.|.|.|.|.|.|.|.|.|.|.|.|.|.|.|.|.|.|.",
"|.|.|.|.|.|.|.|.|.|.|.|.|.|.|.|.|.|.|.|.|.|.|.|.|.|.|.|.|.|.|.|.",
"|.|.|.|.|.|.|.|.|.|.|.|.|.|.|.|.|.|.|.|.|.|.|.|.|.|.|.|.|.|.|.|.",
"|.|.|.|.|.|.|.|.|.|.|.|.|.|.|.|.|.|.|.|.|.|.|.|.|.|.|.|.|.|.|.|.",
"|.|.|.|.|.|.|.|.|.|.|.|.|.|.|.|.|.|.|.}.|.|.|.|.|.|.|.|.|.|.|.|.",
"|.|.|.|.|.|.|.|.|.|.|.|.|.|._.Q.Q.R._.'.|.|.|.|.|.|.|.|.|.|.|.|.",
"|.|.|.|.|.|.|.|.|.|.|.|.|.|.^ = = = U _.|.|.|.|.|.|.|.|.|.|.|.|.",
"|.|.|.|.|.|.|.|.|.|.|.|.%XL w P.T.T.i y |.|.|.|.|.|.|.|.|.|.|.|.",
"|.|.|.|.|.|.|.|.|.|.|.|.%XL   o % o X u |.|.|.|.|.|.|.|.|.|.|.|.",
"|.|.|.|.|.|.|.|.|.|.|.|.%XU . = [ 0 F }.|.|.|.|.|.|.|.|.|.|.|.|.",
"|.|.|.|.|.|.|.|.|.|.|.|.|.|.R ; P.w G %X|.|.|.|.|.|.|.|.|.|.|.|.",
"|.|.|.|.|.|.|.|.|.|.|.|.|.%X^ ; P.0 G %X|.|.|.|.|.|.|.|.|.|.|.|.",
"|.|.|.|.|.|.|.|.|.|.|.|.|.%X^ ; P.w G %X|.|.|.|.|.|.|.|.|.|.|.|.",
"|.|.|.|.|.|.|.|.|.|.|.|.|.|.Q > P.e L %X|.|.|.|.|.|.|.|.|.|.|.|.",
"|.|.|.|.|.|.|.|.|.|.|.|.'.L r R.].Q._._.Q.].}.|.|.|.|.|.|.|.|.|.",
"|.|.|.|.|.|.|.|.|.|.].Q.r A _.|.|.|.%XT , I.].|.|.|.|.|.|.|.|.|.",
"|.|.|.|.|.|.|.|.|.|.P.0 % F '.!.'.|.%XR o % ) |.|.}.|.|.|.|.|.|.",
"|.|.|.|.|.|.|.}.%X] : ) W.{ s p I.Q._._._ 7 5 W %X}.|.|.|.|.|.|.",
"|.|.|.|.|.|.|.}.|./ + 8 g $.5.Z f 3 Y ! 3 N h } ].|.|.|.|.|.|.|.",
"|.|.|.|.|.|.|.%XW 5 a %.b.A.S.j.p.V d 9 M 4.#.6 D |.|.|.|.|.|.|.",
"|.|.|.|.|.|.}.+XX.n q.n.D.J.G.B.c.p.p.i.7.7.i.v H %X|.|.|.|.|.|.",
"|.|.|.|.|.|.|.%Xo.m j.C.&XK.n.c.c.c.j.p.i.7.i.m H +X|.|.|.|.|.|.",
"|.|.|.|.|.|.|.%X..z 4.N.H.F.B.c.c.n.p.7.7.7.1.j H %X|.|.|.|.|.|.",
"|.|.|.|.|.|.].].}.O.C p.C.V.B.n.c.p.i.7.i.i.B } ].].|.|.|.|.|.|.",
"|.|.|.|.|.|.|.|.+X+.M 1.j.p.j.p.p.7.7.i.7.1.z ..%X|.|.|.|.|.|.|.",
"|.|.|.|.|.|.|.|.+X[ < v &.<.<.&.=.=.=.;.&.x O.].].|.|.|.|.|.|.|.",
"|.|.|.|.|.|.|.|.|.|.Y.1 @ $ $ $ $ @ @ @ @ & ] %X|.|.|.|.|.|.|.|.",
"|.|.|.|.|.|.|.|.|.|.[.Q.Q.R.Q.R.Q.Q.Q.R.W.Q._.|.|.|.|.|.|.|.|.|.",
"|.|.|.|.|.|.|.|.|.|.|.|.[.|.|.|.|.|.[.|.|.|.|.|.|.|.|.|.|.|.|.|.",
"|.|.|.|.|.|.|.|.|.|.|.|.|.|.|.|.|.|.|.|.|.|.|.|.|.|.|.|.|.|.|.|."
};
