/* XPM */
static char *potionx32xz[] = {
/* columns rows colors chars-per-pixel */
"33 40 175 2 ",
"   c #4A4B4D",
".  c #4E4F51",
"X  c #4F5052",
"o  c #4E5950",
"O  c #525355",
"+  c #515E54",
"@  c #555658",
"#  c #5A5A5D",
"$  c #58555B",
"%  c #477148",
"&  c #487149",
"*  c #4F6D51",
"=  c #556958",
"-  c #58655B",
";  c #547256",
":  c #537B54",
">  c #5A775C",
",  c #5D5B60",
"<  c #615F64",
"1  c #5F6062",
"2  c #5F6B61",
"3  c #626265",
"4  c #656569",
"5  c #6A6E6C",
"6  c #647566",
"7  c #6E7170",
"8  c #717373",
"9  c #7B7C7D",
"0  c #B2263B",
"q  c #B3283C",
"w  c #BA293C",
"e  c #C42C3E",
"r  c #C92D3E",
"t  c #B52E41",
"y  c #B63245",
"u  c #B8374A",
"i  c #BA3B4E",
"p  c #BF3244",
"a  c #C42F40",
"s  c #C73142",
"d  c #CC3242",
"f  c #C73748",
"g  c #C83C4D",
"h  c #C13D4E",
"j  c #D23645",
"k  c #C13F50",
"l  c #BD4355",
"z  c #BF4A5B",
"x  c #C34253",
"c  c #C04B5C",
"v  c #CA4A59",
"b  c #C25263",
"n  c #CC5665",
"m  c #C76270",
"M  c #CA6573",
"N  c #CA6876",
"B  c #CD727F",
"V  c #D3717D",
"C  c #468547",
"Z  c #4A844A",
"A  c #4C8B4C",
"S  c #459745",
"D  c #469946",
"F  c #489A47",
"G  c #479648",
"H  c #4A944A",
"J  c #489848",
"K  c #538B53",
"L  c #578658",
"P  c #58815A",
"I  c #568B56",
"U  c #5C955C",
"Y  c #529652",
"T  c #69826A",
"R  c #619462",
"E  c #649B64",
"W  c #699C69",
"Q  c #6E8F70",
"!  c #778A79",
"~  c #749B75",
"^  c #7C977D",
"/  c #68A268",
"(  c #70A470",
")  c #7CA47D",
"_  c #7DAE7D",
"`  c #7E7E81",
"'  c #CD7481",
"]  c #D47B87",
"[  c #848586",
"{  c #87888A",
"}  c #8B8D8D",
"|  c #8B9D8C",
" . c #8F8B90",
".. c #8F9091",
"X. c #969898",
"o. c #9B9C9D",
"O. c #949495",
"+. c #87A687",
"@. c #8AA18B",
"#. c #8BAB8C",
"$. c #8EA391",
"%. c #96A497",
"&. c #93AA95",
"*. c #9DA79E",
"=. c #99AB9A",
"-. c #9AB19B",
";. c #9F9FA1",
":. c #9FA0A1",
">. c #A3A3A4",
",. c #AAA5AA",
"<. c #AAAAAB",
"1. c #AEBBAF",
"2. c #A8B4A9",
"3. c #B0AFB2",
"4. c #B3B3B4",
"5. c #BCBBBD",
"6. c #D4828D",
"7. c #D48691",
"8. c #D68A95",
"9. c #DA8C97",
"0. c #DA8E99",
"q. c #D8929C",
"w. c #DE9CA6",
"e. c #D898A1",
"r. c #DEA3AB",
"t. c #DEA7B0",
"y. c #CEB3BA",
"u. c #E0A5AE",
"i. c #E1AAB2",
"p. c #E3B6BD",
"a. c #ACC0AD",
"s. c #B5C9B5",
"d. c #C2C0BD",
"f. c #BFBDC0",
"g. c #C3BFC4",
"h. c #DABDC2",
"j. c #E8BEC5",
"k. c #E7BCC1",
"l. c #C3C2C3",
"z. c #C6C0C8",
"x. c #CAC6CA",
"c. c #CCCBCD",
"v. c #CCC1C7",
"b. c #D7C7CA",
"n. c #DFC8CC",
"m. c #CFCDD0",
"M. c #D0CFD2",
"N. c #D4D3D5",
"B. c #D7D7D8",
"V. c #D8D6D9",
"C. c #DCDAD8",
"Z. c #E6C2C7",
"A. c #E9C0C6",
"S. c #EAC6CB",
"D. c #EECACF",
"F. c #E2C2C9",
"G. c #EBDDDF",
"H. c #F2D9DD",
"J. c #E5DFE1",
"K. c #F3DEE1",
"L. c #E3E3E3",
"P. c #ECE3E5",
"I. c #E7E6E8",
"U. c #E7E9E9",
"Y. c #EDECEC",
"T. c #F6E5E7",
"R. c #F7E7E9",
"E. c #F3EBEC",
"W. c #F8ECEE",
"Q. c #F9EEF0",
"!. c #F2EFF2",
"~. c #F4F4F4",
"^. c #FBF3F4",
"/. c #FCF7F8",
"(. c #FEFEFE",
/* pixels */
"J J J J J J J J J J J J J J J J J S G J J J J J J J J J J J J J J ",
"J J J J J J J J J J J J J F F F F F J J J J J J J J J J J J J J J ",
"J J J J J J J J J J J J H : > P P P P : A F F G J J J J J J J J J ",
"J J J J J J J J J J J F Z , 4 4 4 4 1 , Z F J F J J J J J J J J J ",
"J J G J J J G J J J J J Z @ @ @ , @ , X : D G G J J J J J J J J J ",
"J J J J J J J J J J J J K 1 X X X   O 2 K D G G J J G J J J J J J ",
"J J J J J J J J J J S _ 1.;.#       1 :.1._ S G J J J J J J J J J ",
"J J J J J J J J J J S #.m.x.o.[ ` { :.c.g.+.F G J J J J J J J J J ",
"J J J J J J J J J J D W 2.B.L.N.m.B.L.g.%.W G J J J J J J J J J J ",
"J J J J J J J G J J G G ( x.~.(.(.(.~.:.R G F J J J J G J J J J J ",
"J J G J J J J J J G G S / l./.(.(.(.~.;.U D F G J J J J J J J J J ",
"J J J J J J J J J D D S E 5./.(.(.(.!.X.U D G G J J J J J J J J J ",
"J J J J J J J J J J G D E 4./.(.(.(.Y.O.U F G G J J G J J J J J J ",
"J J J J J J J G J J D G R <.~.(.(.(.Y...I G G G J J J J G J J J J ",
"J J J J J J J J J J J G R >.~.(.(.(.Y...L G J J J J J J J J J J J ",
"J J J G J J J J J J J P 9 4.~.(.(.(.Y.o.5 : J G J J J J J J J J J ",
"J J J J J J F D H T @.1.c.I.(.(.(.(./.B.5.*.^ > H J F F F J J J J ",
"J J J J J J Z L | 4.N.Y./.(.(.(.(.(.(.(.~.L.z.;.Q : & J F J J J J ",
"J J J J J C 6  .l.!.(.(.(.(.(.(.(.(.(.(.(.(.(.I.4.` = Z J J J J J ",
"J J F J A - ..N./.(.(.(.(.(.(.(.(.(.(.(.(.(.(.(.~.l.` + A J J J J ",
"J J F C + [ M./.(.(.(.(.(.(.(.(.(.(.(.(.(.(.(.(.(.~.5.8 o C F F J ",
"J J F A 4 5.!.(.(.(.(.(.(.(.(.(.(.(.(.(.(./.E.T.Q.(.U.<.# C F J J ",
"J J Z ; [ J.(.(.(.(.(.(.(.(.(.(.(.(./.T.A.r.0.6.q.S.E.B.8 * C F J ",
"J F % , >.Y.^.W.^.(.(.(.(.(.(.(.^.K.j.8.m l y t u ' D.U. .# & F J ",
"J J % 4 3.E.D.t.p.H.Q.^././.^.R.j.7.b t q 0 0 0 0 l w.Y.:., % F J ",
"J D % 4 4.P.8.l x m 8.i.j.A.i.6.b y q q 0 0 0 0 0 u 0.P.,.1 % J J ",
"J F % 1 <.G.] p r f h c b b c u t 0 0 q q q 0 0 0 u 9.P.:., % F J ",
"J F C > X.P.0.x j r e w 0 0 0 0 0 0 q 0 q q q q 0 l w.J.} ; C J J ",
"J J F K 9 B.i.n d j j a w 0 0 0 q q q q q q 0 q 0 N p.m.7 A J J J ",
"J F F C 2 4.F.0.g j j j s q q q q 0 q q 0 0 0 q i e.b.:.= Z F J J ",
"J J J D K ! x.Z.] g d j d s q q q 0 0 0 0 0 0 u 6.h.3.6 A J J J J ",
"J J J J J Y $.v.Z.6.v d a e q 0 0 0 0 0 0 t c 8.h.,.! A J J J J J ",
"J J J J J D U $.x.F.w.V n h t q q q y i b B e.y.,.! K J J J J J J ",
"J J J J J J D U +.s.C.S.u.6.B N m N ' 8.t.h.d.&.T A D J J J J J J ",
"J J J J J J J J G Y s.~./.Q.T.H.H.T.T.~.~.c.| Y J J J J J J J J S ",
"J J J J J J J J G J a.U.(.(.(.(././.(.(./.B.=.J D J J J J J J J J ",
"J J J J J J J J D J / -.g.x.c.N.N.m.c.x.5.&.E J J J J J J J J J J ",
"J J J J J J J J J D S U ~ ) ) ) ) ) ) ) ~ U S D J J J J J J J J J ",
"J J J J J J J J J J J D S G D G G S S G D D J J J J J J J J J J J ",
"J J J J J J J J J J J J D G D D J D D J J D J J J J J J J J J J J "
};
