/* XPM */
static char *potion32x[] = {
/* columns rows colors chars-per-pixel */
"32 32 158 2 ",
"   c #4C4D4F",
".  c #4C514F",
"X  c #4B594E",
"o  c #4E4E51",
"O  c #4E5151",
"+  c #4E5C51",
"@  c #515354",
"#  c #525F53",
"$  c #565759",
"%  c #595B5C",
"&  c #4A634C",
"*  c #4B6B4D",
"=  c #4A714B",
"-  c #4E6250",
";  c #4E6850",
":  c #526455",
">  c #556956",
",  c #576459",
"<  c #5C695E",
"1  c #5A645C",
"2  c #4F7550",
"3  c #527354",
"4  c #557158",
"5  c #59745B",
"6  c #5E5C61",
"7  c #605E63",
"8  c #626465",
"9  c #636865",
"0  c #656668",
"q  c #66696A",
"w  c #696B6C",
"e  c #627064",
"r  c #6B746D",
"t  c #6A786C",
"y  c #617C64",
"u  c #6E6C70",
"i  c #727374",
"p  c #797C7B",
"a  c #B3273B",
"s  c #B3283C",
"d  c #BC2C3E",
"f  c #C32E3F",
"g  c #B62D41",
"h  c #B63245",
"j  c #BB3345",
"k  c #BB3648",
"l  c #B9394C",
"z  c #C12E40",
"x  c #C23445",
"c  c #CB3243",
"v  c #C63748",
"b  c #D13545",
"n  c #BD4455",
"m  c #BE485A",
"M  c #C24455",
"N  c #C84151",
"B  c #C54758",
"V  c #C45766",
"C  c #C55C6B",
"Z  c #CB5A68",
"A  c #CA6372",
"S  c #CA6876",
"D  c #CC717E",
"F  c #4C804C",
"G  c #4C8D4D",
"H  c #469746",
"J  c #469846",
"K  c #489847",
"L  c #499449",
"P  c #489848",
"I  c #528653",
"U  c #548855",
"Y  c #529153",
"T  c #539B53",
"R  c #59965A",
"E  c #5B9C5C",
"W  c #648565",
"Q  c #639364",
"!  c #6C9D6C",
"~  c #768078",
"^  c #738175",
"/  c #7CA97C",
"(  c #CE7481",
")  c #D07A86",
"_  c #D57E8A",
"`  c #7E8281",
"'  c #818283",
"]  c #808882",
"[  c #8A8B8C",
"{  c #849186",
"}  c #839885",
"|  c #879488",
" . c #8F8F90",
".. c #908F92",
"X. c #8E9E90",
"o. c #929E93",
"O. c #979598",
"+. c #98979A",
"@. c #979898",
"#. c #9D9D9F",
"$. c #85A686",
"%. c #9F9FA1",
"&. c #9FA4A1",
"*. c #A2A3A3",
"=. c #A3AFA4",
"-. c #A6A7A8",
";. c #A8A7A9",
":. c #ACADAE",
">. c #ACB7AD",
",. c #A5B1A5",
"<. c #ADB0B1",
"1. c #B4B5B5",
"2. c #B4B8B5",
"3. c #BCBCBD",
"4. c #D3818D",
"5. c #D48591",
"6. c #D58994",
"7. c #D78E98",
"8. c #D9939D",
"9. c #DA97A1",
"0. c #DC9CA5",
"q. c #DF9FA8",
"w. c #DEA4AD",
"e. c #DEA9B1",
"r. c #E2AAB2",
"t. c #E4B3BA",
"y. c #E6B8BF",
"u. c #BFBFC0",
"i. c #E9BEC4",
"p. c #BDC0C0",
"a. c #C4C3C5",
"s. c #C8C6C6",
"d. c #C7C7C8",
"f. c #C7C9C8",
"g. c #CBCCCC",
"h. c #DFCACD",
"j. c #D2D3D3",
"k. c #DAD3D4",
"l. c #DBDCDB",
"z. c #ECCACF",
"x. c #EAC4C9",
"c. c #EECFD4",
"v. c #EED1D6",
"b. c #E3DBDC",
"n. c #EBD9DC",
"m. c #E4DEE0",
"M. c #E2E3E3",
"N. c #EAE2E3",
"B. c #E7E8E8",
"V. c #EBEBEB",
"C. c #F4E3E6",
"Z. c #F3E7E9",
"A. c #F6EBEC",
"S. c #F8EAEC",
"D. c #F9EEF0",
"F. c #F4F4F4",
"G. c #FBF4F5",
"H. c #FEFEFE",
/* pixels */
"P P P P K P P P P P P P 5 q q q q q 7 5 P P P P P P P P P P P P ",
"P P P P P P P K P P P P 4 8 8 0 0 8 6 4 P P P P P P P P P P P P ",
"P P P P P P P P P P P P ; o @ O @ o o ; P P P P P P P P P P P P ",
"P P P K P K P P P P T X.p $ o o o o 6 y T L P P P P P P P P P P ",
"K P P P P P P P K E >.M.u.` $ $ $ 6 [ d.l.&.E H P P P P P P P P ",
"P P P K P K P P P P T ,.l.M.f.u.u.g.M.g.o.T P P P P J P P P P P ",
"P P P P K P K P P K L ~ g.H.H.H.H.H.B.;.> L P P P P P P P P P P ",
"P P P P P P P P L L L t a.G.H.H.H.H.B.*.: L P P P P P P P P P P ",
"K P P P P P P P P P L e u.G.H.H.H.H.M.%.+ L P K P P P P P P P P ",
"P P P K P P P P P P L < 1.F.H.H.H.H.M.O.+ P P P P P P P P P P P ",
"K L P P P P P P P P L , :.V.H.H.H.H.l. .+ P P P P P J P P P P P ",
"K K P P P P P P P P L , -.V.H.H.H.H.j.[ X G P K P P P P P P P J ",
"P P K P P L P L L R ` @.g.F.H.H.H.H.B.2.] i Y L L L P P P P P P ",
"P P P P P L > i &.g.B.G.H.H.H.H.H.H.H.H.V.l.2.[ 8 - L P P P P P ",
"P P P K G r *.k.F.H.H.H.H.H.H.H.H.H.H.H.H.H.H.V.a.[ , G P P P P ",
"K P K I p d.F.H.H.H.H.H.H.H.H.H.H.H.H.H.H.H.H.H.H.M.:.q O = J P ",
"H K 3 ` j.G.H.H.H.H.H.H.H.H.H.H.H.H.H.H.H.H.H.H.H.H.V.2.u * P P ",
"L & i u.H.H.H.H.H.H.H.H.H.H.H.H.H.H.H.H.H.G.G.G.G.G.H.F.;.0 & P ",
"  $ &.V.H.H.H.H.H.H.H.H.H.H.H.H.H.H.G.S.x.0.) S S 6.z.G.l.[ o O ",
"  0 3.H.G.F.G.H.H.H.H.H.H.H.H.G.D.z.8.C l g s s s h C v.F.:.% o ",
"  i f.G.t.S ) q.c.C.G.G.G.G.C.y.( n g s s s s a a a l r.D.3.q   ",
"  i g.C.4.j d x n V ( 6.5.) V l s s s s s s s a g a h 0.A.p.0   ",
". 8 3.C.8.x c b c j s s s s a a s s s s s s s s a a k r.Z.:.% . ",
"P : #.b.i.B c b b c z d s s a a s s s s s s s s a g V c.j. .& P ",
"P & u 3.C.5.N c b b b z d a s s s s s s s s a a a l 9.N.*.8 & K ",
"K K 2 ` f.n._ N c b b b z s s s a s s s s a s a m 7.n.:.w = K K ",
"P P K I ` s.n.q.Z v c c x g a a s s a a a s h A e.k.*.8 2 K P P ",
"P K K L Y ~ 2.b.c.q.A M k g s s a g g h m ( e.x.3.} T L K P P K ",
"P H P P P P P $.a.B.Z.c.e.8.6._ 4.6.0.i.n.b.u...W P P P K K K K ",
"P P P P P P P P / j.H.H.H.H.H.H.G.H.H.F.G.l.%.Q P P P K K K K P ",
"P P P P P P P K ! <.l.V.F.F.H.F.G.H.F.V.B.j.*.Q K K P P K P P P ",
"P P P P P P P P P T T | +.%.%.&.&.&.%.+.| T P P K K P P P P P P "
};
