/* XPM */
static char *potion32x[] = {
/* columns rows colors chars-per-pixel */
"33 40 183 2 ",
"   c #4B4C4E",
".  c #4A564D",
"X  c #4E4E51",
"o  c #4F5052",
"O  c #4D5950",
"+  c #515254",
"@  c #595A5D",
"#  c #555A58",
"$  c #4A634C",
"%  c #4A6C4C",
"&  c #456947",
"*  c #49734B",
"=  c #4A7B4B",
"-  c #477549",
";  c #4F6951",
":  c #516E53",
">  c #5A635C",
",  c #506652",
"<  c #4F7351",
"1  c #547356",
"2  c #537C54",
"3  c #5A775C",
"4  c #5E5F61",
"5  c #605F63",
"6  c #5E6661",
"7  c #5F7960",
"8  c #626366",
"9  c #656769",
"0  c #66686A",
"q  c #6A6A6C",
"w  c #636D65",
"e  c #637E65",
"r  c #677069",
"t  c #677F69",
"y  c #687E6A",
"u  c #6E6D71",
"i  c #716F74",
"p  c #6F7071",
"a  c #6F7B70",
"s  c #727274",
"d  c #7B7B7D",
"f  c #757777",
"g  c #B12237",
"h  c #B2253A",
"j  c #B3283C",
"k  c #B92B3E",
"l  c #B9273A",
"z  c #C52E3F",
"x  c #CB2F3F",
"c  c #C12739",
"v  c #B52E42",
"b  c #BA2D40",
"n  c #B63144",
"m  c #BB3749",
"M  c #BC3B4D",
"N  c #BC3647",
"B  c #BC3F51",
"V  c #C22F41",
"C  c #C63141",
"Z  c #CB3343",
"A  c #C73D4D",
"S  c #D23544",
"D  c #BD4254",
"F  c #BF4758",
"G  c #BF4A5B",
"H  c #C94655",
"J  c #C14B5B",
"K  c #C34454",
"L  c #C14F60",
"P  c #C25363",
"I  c #C65E6D",
"U  c #CA5A69",
"Y  c #C96775",
"T  c #CB6C79",
"R  c #CC707D",
"E  c #4B824C",
"W  c #478848",
"Q  c #488B49",
"!  c #449744",
"~  c #479947",
"^  c #489947",
"/  c #499649",
"(  c #489848",
")  c #4F8550",
"_  c #508651",
"`  c #538854",
"'  c #5C815E",
"]  c #529952",
"[  c #5D9D5D",
"{  c #549755",
"}  c #58A158",
"|  c #5E8D60",
" . c #688A69",
".. c #6E926F",
"X. c #629963",
"o. c #79817B",
"O. c #6F9271",
"+. c #7B937D",
"@. c #779879",
"#. c #7AA77B",
"$. c #807F83",
"%. c #CE7582",
"&. c #CF7985",
"*. c #D27A86",
"=. c #D47D89",
"-. c #858887",
";. c #868489",
":. c #88878A",
">. c #8E8C90",
",. c #908E92",
"<. c #8F9091",
"1. c #929294",
"2. c #969798",
"3. c #979899",
"4. c #9B9B9D",
"5. c #949997",
"6. c #8AA48B",
"7. c #84A385",
"8. c #97AD98",
"9. c #93AD93",
"0. c #9DB49E",
"q. c #9C9EA0",
"w. c #A19FA2",
"e. c #9FA4A0",
"r. c #A2A2A4",
"t. c #A6A9A8",
"y. c #AAACAC",
"u. c #A2BAA2",
"i. c #AEB1B2",
"p. c #B3B4B4",
"a. c #BBBCBC",
"s. c #B7B7B9",
"d. c #D3838E",
"f. c #D58A95",
"g. c #D88B95",
"h. c #D88F99",
"j. c #D58A95",
"k. c #D9949E",
"l. c #D6939D",
"z. c #DC9BA4",
"x. c #DEA3AB",
"c. c #DFB9BF",
"v. c #E2ACB4",
"b. c #E4B5BB",
"n. c #E7B9BF",
"m. c #A9C1AA",
"M. c #BBC1BB",
"N. c #C3BEC2",
"B. c #E7BCC2",
"V. c #C2C4C4",
"C. c #C4CEC5",
"Z. c #CBCCCC",
"A. c #C8C5C9",
"S. c #D9C6CA",
"D. c #C5D0C5",
"F. c #CFCED0",
"G. c #DBCFD2",
"H. c #CFD6D0",
"J. c #D4D4D4",
"K. c #DBD5D7",
"L. c #DCDBDC",
"P. c #E9C5CB",
"I. c #E7C4CA",
"U. c #ECCED2",
"Y. c #ECD2D6",
"T. c #E7DCDE",
"R. c #F0D6DA",
"E. c #F1DBDE",
"W. c #F3DDE0",
"Q. c #DFE0E0",
"!. c #E3E3E3",
"~. c #EAE4E5",
"^. c #ECECED",
"/. c #E9E6EA",
"(. c #F4E1E4",
"). c #F4E6E9",
"_. c #F6E9EB",
"`. c #F9ECEE",
"'. c #F9EFF0",
"]. c #F4F3F3",
"[. c #FBF3F4",
"{. c #F7F7F8",
"}. c #FEFEFE",
/* pixels */
"( ( ( ( ( ( ( ( ( ( ( ^ ` 9 9 0 0 0 9 8 ` ! ( ( ( ( ( ( ( ( ( ( ( ",
"( ( ( ( ( ( ( ( ( ( ( ^ E 8 9 0 0 9 9 4 ) ~ ( ( ( ( ( ( ^ ( ( ( ( ",
"( ( ( ( ( ( ( ( ( ( ^ ~ E # # @ @ @ @ + E ~ ( ( ( ( ^ ( ( ( ( ( ( ",
"( ( ( ( ( ( ( ( ( ^ ! ] ' + X X + o X + = ! ( ( ( ( ( ( ( ( ^ ( ( ",
"( ( ( ( ( ( ( ( ( ( ] 7.1.8 +   o X + 0 X.} ] ( ( ( ( ( ( ( ( ( ( ",
"( ( ( ( ( ( ( ( ( / 8.J.J.1.> + o + 8 e.J.C.9./ ( ( ( ( ( ( ( ( ( ",
"( ( ( ( ( ( ( ( ( ( X.u.J.J.i.r.q.r.p.J.A.8.[ ( ( ( ( ( ( ( ( ( ( ",
"( ( ( ( ( ( ( ( ( ( ! O.s.].^./././.^.Q.4.' ! ( ( ( ( ( ( ( ( ( ( ",
"( ( ( ( ( ( ( ( ( ( ( 3 4.].}.}.}.}.}.K.d % ^ ( ( ( ( ( ( ( ( ( ( ",
"( ( ( ( ( ( ( ( ( ( ^ 3 4.^.}.}.}.}.{.J.d * ^ ( ( ( ( ( ( ( ( ( ( ",
"( ( ( ( ( ( ( ( ( ( ^ 2 1.^.}.}.}.}.}.Z.d % ( ( ( ( ( ( ( ( ( ( ( ",
"( ( ( ( ( ( ( ( ( ^ ^ 1 >./.}.}.}.}.{.A.s & ( ( ( ( ( ( ( ( ( ( ( ",
"( ( ( ( ( ( ( ( ( ( ( 1 -.!.{.}.}.}.{.V.s % ( ( ( ( ( ( ( ( ( ( ( ",
"( ( ( ( ( ( ( ( ( ( ( % $.L.}.}.}.}.{.a.q & ! ( ( ( ( ( ( ( ( ( ( ",
"( ( ( ( ( ( ( ( ( ( / : $.J.}.}.}.}.{.a.q % / / ( ( ( ( ( ( ( ( ( ",
"( ( ( ( ! ( ! / ( / O.:.y./.}.}.}.}.{.J.2.f w / ( ! ! ( ( ( ( ( ( ",
"( ( ( ( ( ( = > +.0.V.L.^.{.}.}.}.}.}.].!.Z.p.6.y , = ~ ( ( ( ( ( ",
"( ( ( ( ( _ a 3.V./.].}.}.}.}.}.}.}.}.}.}.}.^.J.p.;.> = ( ^ ^ ( ( ",
"( ( ( ( ` o.i.!.}.}.}.}.}.}.}.}.}.}.}.}.}.}.}.}.].F.3.q E E / ( ( ",
"( ( ( ` d V.].}.}.}.}.}.}.}.}.}.}.}.}.}.}.}.}.}.}.}.!.y.9 + * ^ ( ",
"( ( = f V.].}.}.}.}.}.}.}.}.}.}.}.}.}.}.}.}.}.}.}.}.}.!.r.9 * ! ( ",
"( - w r.^.}.}.}.}.}.}.}.}.}.}.}.}.}.}.}.}.}.}.}.}.}.}.}.L.>.> * ( ",
"* O ;.F.}.}.}.}.}.}.}.}.}.}.}.}.}.}.}.}.[.(.U.B.v.b.U.'.{.a.s . * ",
"X # r.^.}.}.}.}.}.}.}.}.}.}.}.}.}.}.`.R.b.l.T P G P %.b.[.Q.>.+ X ",
"  9 s.{.[.)._.[.}.}.}.}.}.}.}.}.].R.v.R F v h h h g n Y E.].t.@ X ",
"  i V.[.P.=.=.x.P._.[.}.}.}.[.R.z.Y B v j j h j j h h F n.'.i.8   ",
"  i V.`.z.D N H I *.l.v.v.x.h.T G v j h j j j j j j h D v.'.s.8   ",
"  9 a._.k.M c z V N B J L J B j h h j j j j j j j j g D v._.i.6 X ",
"$ > y.).v.K x S Z z l g g g g h h j j j j j j j j j j J I.~.q.# $ ",
"( ; <.K.U.U Z S S S Z k j j j j j j j j j j j j j h n T W.Z.$.$ ( ",
"( $ i s.).h.H x S S S C k j j j j j j j j j j j j h G x.~.q.8 $ ( ",
"( W 1 ;.J.U.=.A x S S S C k j h j j j j j j j h g B g.Y.a.i % W ( ",
"( ( W e 4.K.B.d.H Z Z S Z b j j j j j j h h g j F j.B.N.d 1 E ^ ^ ",
"( ( ( / t t.K.P.g.U A Z C j h h h h h h h v B I l.S.M.+.: W ~ ^ ( ",
"( ( ( ( / y r.J.E.b.=.U K N n n v v n m D I f.B.F.y.O.( ( ( ( ( ( ",
"( ( ( ( ( ( ] #.a.T.(.Y.b.l.d.*.%.*.j.z.B.U.G.p.:. ./ ^ ( ( ( ( ( ",
"( ( ( ( ( ( ! / #.Z.].}.'._.W.W.E.W.(._.[.].J.5.| ( ^ ( ( ( ( ( ( ",
"( ( ( ( ( ( ( ! [ p./.}.}.}.}.}.}.}.}.}.}.].Z.1.{ ! ( ( ( ( ( ( ( ",
"( ( ( ( ( ( ( ( ] 7.m.D.J.L.!.!.Q.!.Q.K.J.C.u.7.] ^ ( ( ( ( ( ( ( ",
"( ( ( ( ( ( ( ( ( ( ( O.1.2.4.4.4.q.4.2.>...^ ( ( ( ( ( ( ( ( ( ( "
};
