/* XPM */
static char *tree50[] = {
/* columns rows colors chars-per-pixel */
"33 40 98 2 ",
"   c #282A27",
".  c #262E28",
"X  c #2A2D28",
"o  c #27362A",
"O  c #2A352A",
"+  c #273A2B",
"@  c #2B3C2B",
"#  c #35362B",
"$  c #323C2C",
"%  c #3B3B2C",
"&  c #443D2D",
"*  c #27442C",
"=  c #2B432D",
"-  c #274C2E",
";  c #294B2E",
":  c #324427",
">  c #32432C",
",  c #30482E",
"<  c #27512F",
"1  c #28512F",
"2  c #32512E",
"3  c #274F30",
"4  c #2D4B30",
"5  c #334C31",
"6  c #275331",
"7  c #295531",
"8  c #275B35",
"9  c #285B34",
"0  c #285F38",
"q  c #315333",
"w  c #3D5134",
"e  c #355D36",
"r  c #3A5D38",
"t  c #296037",
"y  c #27623A",
"u  c #28643B",
"i  c #29683F",
"p  c #366238",
"a  c #396639",
"s  c #336C3B",
"d  c #3A6B3B",
"f  c #35733D",
"g  c #3D753E",
"h  c #3E7A3F",
"j  c #46432D",
"k  c #4C432E",
"l  c #444D29",
"z  c #48482F",
"x  c #50462F",
"c  c #54492F",
"v  c #434730",
"b  c #464830",
"n  c #4C4A31",
"m  c #524730",
"M  c #564A30",
"N  c #5B4D31",
"B  c #4D5333",
"V  c #4B5E37",
"C  c #5E5133",
"Z  c #5E5A37",
"A  c #5F5C39",
"S  c #625334",
"D  c #685734",
"F  c #6C5A36",
"G  c #6B5A38",
"H  c #705D37",
"J  c #705C39",
"K  c #47643A",
"L  c #4B653B",
"P  c #446F3B",
"I  c #5B643A",
"U  c #566E3D",
"Y  c #44743D",
"T  c #43783F",
"R  c #52713F",
"E  c #75623D",
"W  c #7C653D",
"Q  c #286740",
"!  c #296940",
"~  c #377B42",
"^  c #397D40",
"/  c #5B6B40",
"(  c #427C40",
")  c #776940",
"_  c #786940",
"`  c #836D43",
"'  c #8B7345",
"]  c #87764B",
"[  c #3D8343",
"{  c #3F8843",
"}  c #428543",
"|  c #448C45",
" . c #498945",
".. c #469347",
"X. c #489447",
"o. c #479748",
"O. c #489748",
"+. c #489848",
/* pixels */
"+.+.+.O.+.O.....| L l : = 6 8 y y y 0 6 = + 7 g | ....o.O.O.O.O.O.",
"+.+.+.+.O.| g a a w q 7 8 8 y y y y y 8 7 1 6 9 p d g | O.O.O.O.O.",
"+.+.+.X.} a 7 ; - 6 9 y u 0 0 8 8 8 8 y t 8 9 1 6 4 7 a } X.O.O.O.",
"O.+.+.| a = ; 4 6 8 t y u 8 8 8 0 8 9 0 y y y 8 7 6 4 4 a | O.O.+.",
"O.O.| ~ , 4 6 y y i y 8 8 8 t t u u t 9 9 8 u u u 8 6 4 5 ~ | O.+.",
"O.| g 5 = 6 y u y t 8 9 8 y y y y y i t 8 9 9 9 u ! y 6 @ q g ..o.",
"O.^ q @ 3 0 u Q t 9 9 t t y t t 0 8 u u u 8 9 9 0 u u 0 3 = q g o.",
" .e = 3 0 u Q y 8 9 8 y y y t t t t 8 u i u 8 9 9 y u u 8 - ; e } ",
"d 5 - 9 y i y 8 9 9 9 i u t t y y i 9 t t i t 9 9 8 y i y 8 - q d ",
"5 4 6 8 y i y 9 9 7 t y u t t y i y t 9 y i t 9 7 9 y i u 8 6 ; 5 ",
"@ - 9 y u y 9 9 9 9 t y u t 9 t y t 9 t i u t 9 7 9 8 u i y 9 ; O ",
"o - 8 y u t 9 9 7 7 9 y u t 9 9 8 9 9 t t t 9 7 6 7 9 y i u 8 - O ",
"o - 8 u i y 9 9 9 1 7 9 u u t t 9 t 8 y t t 9 7 9 9 9 y u u 8 - o ",
"o - 8 u i t 9 9 9 7 7 9 t i u u t y y i t t 7 9 7 9 8 y ! u 9 - o ",
"O ; 8 u u 8 8 9 9 9 7 7 9 y i i i i i t t 7 9 1 9 9 8 u i u 8 - o ",
"o ; 9 8 u u t 9 9 7 7 9 9 9 t t t t t 7 1 7 7 7 1 9 t u i 8 9 - O ",
"o - 9 9 y u u y 9 9 7 7 9 7 7 9 t 9 9 7 7 7 9 7 9 8 u u u 8 9 < O ",
"+ - < 9 t u i u t t 7 9 9 9 7 9 9 7 9 9 7 9 9 9 t u u y 8 8 < - @ ",
"- ; < 7 9 8 u i i u t 9 9 7 7 9 9 9 7 7 7 8 u t i i u 8 7 7 < - 5 ",
"r ; - 7 9 9 t u i i u t 9 9 9 7 7 7 7 7 9 t i i i u y 9 9 7 - ; r ",
"Y 2 = 1 7 9 9 t i i i i u 9 9 9 9 9 9 9 t i i i i t 9 9 9 7 - 2 Y ",
"{ p - - 7 9 9 9 u i i i i y y t t t y t u i i i u t 7 9 7 - - p | ",
"+.T q * - < 7 9 9 t t u y i i i i i i i i t t y 9 7 7 7 - * 2 h o.",
"+.| a = * < 7 7 7 9 7 9 t t i i i i t i t 9 9 9 9 7 7 - @ * a | O.",
"+.X.T v $ @ 6 9 9 9 7 9 9 9 t i u u t 9 9 9 9 9 9 9 1 @ # 2 T o.O.",
"+.} U D j @ * 7 7 9 7 7 9 9 9 9 9 9 9 9 7 6 9 7 7 7 - @ j S R } o.",
"X.g I F & X o = - 1 - - 1 7 9 9 9 9 9 1 1 1 3 - - * o X j F I h ..",
"X.T K z #   X O $ : : @ * = < - 1 1 - * * * > @ : O     # z V T o.",
"X.| d 4 @ O X # & # k k % $ $ : > > > # % & & & & # X o @ ; a  .O.",
"o.o.h 8 6 o # & k k C S N k x x k k x k N S N x x & # + - 9 ^ +.+.",
"o.o.{ s 8 = j S F N M S D N N C S N N S D S N N F S z : 9 i | +.+.",
"+.+...h 0 , j N F H M N N N x c M c x M N N M H H N j : t h ..+.+.",
"+.+.o.{ a B C C C D M k k k c N C N m k k k m D S N N B p { o.+.+.",
"+.+.X.| L _ W S k m j % # & N D G D N & % % j M k S W _ L | o.o.+.",
"O.+.o. ./ ] ` C % % @ + $ & N D D S C & $ @ $ % % C ` ] /  .o.+.+.",
"+.+.O.| K Z C z @ ; 6 1 = % k N C C x % = 6 ; ; , b C Z K | +.+.O.",
"+.+.+...( Y Y d s s y 6 6 > m E ` E x , 3 9 0 s d P P Y ( ..+.+.+.",
"+.+.+.O.X.| | ..| | [ ~ u 7 n W ' E n 7 u f ~ { | | ......O.+.+.+.",
"+.O.+.+.+.+.+.+.+.+.O.| ^ s w C J S w s [ | ..O.o.+.+.+.+.+.+.+.+.",
"+.+.+.+.+.+.+.+.+.+.O.o.o.[ e b k b e [ X.O.+.+.o.o.+.+.+.+.+.+.+."
};
