/* XPM */
static char *tree[] = {
/* columns rows colors chars-per-pixel */
"33 40 90 1 ",
"  c #2A2C29",
". c #27372A",
"X c #29362A",
"o c #263A2B",
"O c #2B3C2C",
"+ c #34342B",
"@ c #3C372B",
"# c #323E2C",
"$ c #3C3A2C",
"% c #443D2C",
"& c #483F2E",
"* c #433E31",
"= c #27432C",
"- c #2B452D",
"; c #274C2E",
": c #294B2E",
"> c #33412D",
", c #27532F",
"< c #28522F",
"1 c #2F4630",
"2 c #2C4D30",
"3 c #314B32",
"4 c #3C4F34",
"5 c #275430",
"6 c #285531",
"7 c #275A33",
"8 c #285A32",
"9 c #285F38",
"0 c #315233",
"q c #355C37",
"w c #385D38",
"e c #2B6136",
"r c #28643C",
"t c #356137",
"y c #356138",
"u c #396439",
"i c #326C3B",
"p c #3A6C3B",
"a c #34743E",
"s c #3E753E",
"d c #3F793F",
"f c #45432D",
"g c #4D432E",
"h c #49482F",
"j c #51452E",
"k c #55482F",
"l c #584B2F",
"z c #454630",
"x c #484730",
"c c #4D4830",
"v c #574A30",
"b c #5C4E31",
"n c #4D5434",
"m c #4B5D36",
"M c #5C5134",
"N c #5D5939",
"B c #625333",
"V c #685735",
"C c #6C5A36",
"Z c #605B3C",
"A c #6B5A38",
"S c #725E3A",
"D c #47603A",
"F c #4B653B",
"G c #406E3C",
"H c #5D633A",
"J c #45733D",
"K c #43793F",
"L c #72603C",
"P c #79653E",
"I c #286840",
"U c #397E41",
"Y c #5B6A41",
"T c #427C40",
"R c #577440",
"E c #776C45",
"W c #7D6A42",
"Q c #846E43",
"! c #8D7545",
"~ c #89774D",
"^ c #3D8443",
"/ c #3F8844",
"( c #438643",
") c #448C45",
"_ c #4A8945",
"` c #469447",
"' c #479748",
"] c #489748",
"[ c #479848",
"{ c #489848",
/* pixels */
"{{{{{{]]`a0O=<9rrr75=O3U_`''{{{{{",
"{{]{])sut,<;6rrrerrr7;2qwus){{{{{",
"{{{](u32,,7rrr98897rr975222y('{{{",
"{{{)u1=579rrr8888888rIr77511u_{{{",
"{{)T1:6rIrre779rrr777errrr7;-s`[[",
"]_U3=5rIr7887errrrre7777rI95O3s'[",
"]T0=29rre779rre989err7779Irr;O6T[",
"(q=;7Irr878rr99er98rrre77rIr72-q(",
"p6:8rIr778rrr98rIr97rre859rrr8:0p",
"31<9rrre68rrr89rIr9errr8,8rrrr<:1",
"O:89rre888rrr9899988rIe8888rrr8:X",
"X:8rrr88887rr9888789rr8,888rrr8:X",
"X;7rIr868,88eer877eIe888667rIr7<X",
"X:7rrr868,,8erIrrrIIe8888,7rIr7:X",
"X;7rrr7688,88eIrrrrr88,8887rrr9;X",
"X;7eIrr7,888889rrr9788,886erre8:X",
".;,8rIre8888888898888,8888rIr88,X",
".,,87rrre888,8,,888,8888erIr78,;O",
":=,,7rrIrrr88,7888,888rrIIrr88,=3",
"u:;887eIrrr88887,87,8rIIIr788,;;w",
"K0=,888erIIIree78,78rIIIre88,,=<K",
")u-:88,8rrIIrr99eeerIIIIr8888;:t)",
"]K0o;,8799IIrrirrIIIrrrre8<8:o0K]",
"]`uOo,,8889errrrIIrre77788<:--u)]",
"]]Tq+=,588<888eerre88<8<8,<-+4K`]",
"{(HZ%O;88<88<888e88888<8,8:XfZH('",
"{JHV% X=:;<:<88888<8,,;;,=. $CHK'",
"{Kmh+  X##>#=;;;;,:;=>>O-X  +hFT'",
"')p-X  +@%&f@#>>>>>#%&g%%+  O>p`'",
"{'^e5O+%gglVl&jjfgggbVlg&%#o<8U'{",
"{{/i8-hBCbkBVblBVblbVBlbCBh-6a/'{",
"{{`U8>fbCCklBbjjkkgbBllCCbf:ea`'{",
"{{'(ynMbMCjggjjlMlggjgjVbbMny/'{{",
"{{')FEWBgkf$@%bVCVM&@@fkgVPPF('{{",
"{{'_Y~QB@$>O#%bVVVB%OO>$$NQ~Y_'{{",
"{{{)DNMhO-,,:>jlMbg$:<<-OfMND_[{{",
"{{{`TJJpii97:3gLQLh-57eipJJJT`{{{",
"{{{]]`)`)/UUe6hP!Ph5raU/`))`'[{{{",
"{{{{]{{{[[')^i4BSB4i^)'['[[{]{{]{",
"{{{{{{{{[''''/qxgzq)'{{{[[{{{{{{{"
};
