/* XPM */
static char *down_4__[] = {
/* columns rows colors chars-per-pixel */
"30 40 222 2 ",
"   c #010202",
".  c #020A02",
"X  c #0C0A08",
"o  c #150D07",
"O  c #031A07",
"+  c #19110A",
"@  c #1E1612",
"#  c #22130C",
"$  c #2A1A13",
"%  c #251F1F",
"&  c #331C11",
"*  c #072408",
"=  c #103210",
"-  c #382415",
";  c #242F18",
":  c #1E1D22",
">  c #153328",
",  c #1F2021",
"<  c #232325",
"1  c #2A2A2C",
"2  c #3C312A",
"3  c #303032",
"4  c #472915",
"5  c #4A361C",
"6  c #5B331B",
"7  c #473F0C",
"8  c #6D3D1D",
"9  c #673F1D",
"0  c #723F1E",
"q  c #4C2B21",
"w  c #532E21",
"e  c #5D3420",
"r  c #4A3D2F",
"t  c #6C3D20",
"y  c #094918",
"u  c #124A14",
"i  c #0A561D",
"p  c #114A0F",
"a  c #2C5216",
"s  c #164D24",
"d  c #2E4F2C",
"f  c #0D6622",
"g  c #116923",
"h  c #0E7728",
"j  c #117C29",
"k  c #177625",
"l  c #227526",
"z  c #2E702C",
"x  c #27761C",
"c  c #4D4C00",
"v  c #59461E",
"b  c #72401F",
"n  c #59473B",
"m  c #4C5A25",
"M  c #654725",
"N  c #744222",
"B  c #7D4C2B",
"V  c #764928",
"C  c #7E532A",
"Z  c #68543B",
"A  c #4F732B",
"S  c #627124",
"D  c #1A3948",
"F  c #36484E",
"G  c #3C5D7E",
"H  c #3E4D7F",
"J  c #4C5A4F",
"K  c #534D59",
"L  c #565757",
"P  c #4C4B4B",
"I  c #635F5E",
"U  c #5E635F",
"Y  c #7D6359",
"T  c #514A60",
"R  c #596768",
"E  c #646464",
"W  c #6A696A",
"Q  c #676769",
"!  c #6E6D72",
"~  c #787678",
"^  c #786962",
"/  c #87582C",
"(  c #895B36",
")  c #804F2A",
"_  c #966936",
"`  c #94783E",
"'  c #8D6630",
"]  c #A6773B",
"[  c #A67C2D",
"{  c #966A43",
"}  c #8D7154",
"|  c #A47B41",
" . c #A67D48",
".. c #A37A55",
"X. c #847D76",
"o. c #18842A",
"O. c #288927",
"+. c #388B23",
"@. c #348924",
"#. c #369C2A",
"$. c #399F29",
"%. c #369323",
"&. c #28912A",
"*. c #3DA229",
"=. c #7D9C1A",
"-. c #7BBF1D",
";. c #4C932E",
":. c #6C9233",
">. c #43A52A",
",. c #70B025",
"<. c #7BC01C",
"1. c #3F8842",
"2. c #4F8744",
"3. c #B2941A",
"4. c #B8A915",
"5. c #A9823D",
"6. c #AB863C",
"7. c #B79634",
"8. c #B38F30",
"9. c #B7A72A",
"0. c #BFA231",
"q. c #8BB216",
"w. c #CBB710",
"e. c #CCB525",
"r. c #D1BD21",
"t. c #D4B42C",
"y. c #CBAD31",
"u. c #98C612",
"i. c #DBD705",
"p. c #D5C21E",
"a. c #DAC81B",
"s. c #C4C20C",
"d. c #E7DA13",
"f. c #ECE40D",
"g. c #EEE90B",
"h. c #FDFD01",
"j. c #F5F703",
"k. c #ECE210",
"l. c #F6EA17",
"z. c #F3EE08",
"x. c #D5C427",
"c. c #EDD429",
"v. c #E6C13D",
"b. c #E8C53A",
"n. c #EDD529",
"m. c #8A9F5E",
"M. c #BA8C47",
"N. c #AD8557",
"B. c #B08953",
"V. c #AF8951",
"C. c #9FB15F",
"Z. c #B48D66",
"A. c #BA9565",
"S. c #B79675",
"D. c #AA906F",
"F. c #C29449",
"G. c #DAAD49",
"H. c #D4A250",
"J. c #DDAC54",
"K. c #DBB340",
"L. c #E3B748",
"P. c #C5A275",
"I. c #DABB76",
"U. c #E1C07B",
"Y. c #32549F",
"T. c #576FA8",
"R. c #30A2BC",
"E. c #2B88A6",
"W. c #7D8680",
"Q. c #7480A2",
"!. c #09A2DA",
"~. c #04A8E3",
"^. c #77C6D5",
"/. c #878686",
"(. c #989695",
"). c #BB9F89",
"_. c #BFA899",
"`. c #8895B7",
"'. c #86B5B3",
"]. c #AEADAD",
"[. c #A3A5A6",
"{. c #B4B4B5",
"}. c #BAB9B9",
"|. c #B5A9A0",
" X c #CAAA84",
".X c #CFB288",
"XX c #CFB087",
"oX c #D4B48B",
"OX c #D2B087",
"+X c #C2AC9D",
"@X c #D8B992",
"#X c #CFB38E",
"$X c #C8B9A4",
"%X c #DCC09E",
"&X c #E1C297",
"*X c #DAC7A6",
"=X c #D4C5BB",
"-X c #EBCEA5",
";X c #E6CAA2",
":X c #F6DDB6",
">X c #EED4AD",
",X c #FFE6BD",
"<X c #FCE4BA",
"1X c #B4BCCF",
"2X c #C0BFC0",
"3X c #CBCBCC",
"4X c #C8C5C4",
"5X c #DDD1CA",
"6X c #D7D7D7",
"7X c #E3D9D1",
"8X c #FFE9C1",
"9X c #FAE6C5",
"0X c #E9E3DD",
"qX c #FFF2D9",
"wX c #DCE3EA",
"eX c #E7E7E7",
"rX c #EAEAEA",
"tX c #EEE8E4",
"yX c #F3F3F2",
"uX c #489848",
"iX c #FBF8F3",
"pX c #CDD6E9",
/* pixels */
"uXuXuXuXuXuXuXuXuXyX3 O h j j h j j = . 6XuXuXuXuXuXuXuXuXuX",
"uXuXuXuXuXuXuXuX3X[.> y h j j j j j i = 2.}.yXuXuXuXuXuXuXuX",
"uXuXuXuXuXuXuXuX! . f j j j j h j j h h * 1 rXuXuXuXuXuXuXuX",
"uXuXuXuXuXuX3XE d y h h j h j j h h j h i s L [.uXuXuXuXuXuX",
"uXuXuXuXuXeX[.. y o.o.o.j j o.j o.o.o.j o.f . U eXiXuXuXuXuX",
"uXuXuXuXrXP > f o.*.#.#.*.$.#.$.#.#.#.#.*.&.k s < }.uXuXuXuX",
"uXuXuXuXtX% * o.;.:.-.,.:.,.<.<.-.-.<.<.,.+.o.i   ].uXuXuXuX",
"uXuXuXuXrX< * >.:.5.g.f.` p.h.h.h.h.h.h.7.V.>.a   {.uXuXuXuX",
"uXuXuX[.I u a :.9.a.t.e.a.f.h.r.p.h.d.e.a.x.C.2.y J ~ yXuXuX",
"iXiXiXI X g ;. .p.h.7.7.h.h.h.7.7.j.r.| d.l.U.m.j * % wXiXyX",
"Z.P.@X} 6 v C H.c.h.z.k.K.n.h.7.7.j.p.| 6.y.l.9.M 6 V #XXXZ.",
"_ N.&XZ.{ / ` v.l.h.l.l.v.c.d.y.y.d.t.N. .8.h.w.) { ..@XP._ ",
"8 ..8X,X:XB.0.h.h.h.L.v.h.r.6.k.f.6.A.OXB.8.h.a.| &X<X8XP.N ",
"_.).Z.'.^.{ [ c.x.t.G.v.h.r.| f.f.] A.oXOXI.c.y.| '.^.D.S.+X",
"uX=XN E.~.Z ' G.M.| H.v.h.r.6.f.f.5.A.@X>X:XJ.F.| R.!.Z D.uX",
"uXyX7XR > 4.w./ _  .H.v.h.j.f.b.K.5.P.<X;XOX( 3.f.m D 3XtXuX",
"uXuXuXE o f.i.) C ( F.K.l.l.l.y.F.N.P.@XS.N.V 3.h.c : eXuXuX",
"uXuXuXU o i.d.] 5   ( M.L.J.J./ / XXN.N # + { e.h.c : eXuXuX",
"uXuXuXU . r.t.( } W.^ ^ ] ] ] A.S...} T ~ X.' 8.n.c : eXuXuX",
"uXuXuXQ + M.8.b |.uXT.Y.B 0 C &X;XB T Y.pX0XV _ H.2 1 eXuXuX",
"uXuXuX6X{.r - b  X9XT.T.5X=X&X<X9X5X`.Y.=X;X$ @ ; (.3XiXuXuX",
"uXuXuXuXyXK 2 6 D.;XQ.Q.iXqX,X,X9XiX1XT.$X#X@ o o (.6XuXuXuX",
"uXuXuXuXuXyX].X M N.>X9X8X8X,X,X8X9X8X:XA.{ q w 8 $ 1 eXuXuX",
"uXuXuXuXuXuX{.  5 _ Z. X-X-X-X-X-X-X@XS.{ / q e 0 # : eXuXuX",
"uXuXuXuXuXuX{.  4 b b ' XXXX.X.X.X.X..8 0 t 4 6 8 # < eXuXuX",
"uXuXuXuXuXuX}.  ~ 5X5X|.r d 1.1.1.2.z z M t u ; # /.3XiXuXuX",
"uXuXuXuXuX6X(.o /.wXwX[.  = k @.%.%.x l m v = = 1 $XuXuXuXuX",
"uXuXuXuXrX3 $ 8 J G Y.F   - V i.j.j.4.8 z f . R yXuXuXuXuXuX",
"uXuXuXuXeX< + 0 n K ~ U O a S q.u.u.=.A @.l * n (.6XuXuXuXuX",
"uXuXuXuXrX< + N N V P.D.p x *.o.j h &.>.>.%.p * . ].uXuXuXuX",
"uXuXuXuXeX% 2 @X@X.Xn 2 g @.>.#.#.#.$.>.&.k O J }.rXuXuXuXuX",
"uXuXuXuXrXP P %X*X#X; O f l +.@.@.+.+.@.g i   W uXuXuXuXuXuX",
"uXuXuXuXuXrX].+ X X     . . . . . X . X . .   W uXuXuXuXuXuX",
"uXuXuXuXuXuX3XW Q W E E E E E E K   X + @ o   Q uXuXuXuXuXuX",
"uXuXuXuXuXuXuXuXuXuXuXuXuXuXuXuX3XX # q q -   Q uXuXuXuXuXuX",
"uXuXuXuXuXuXuXuXuXuXuXuXuXuXuXuX3XX @ q e 6 - r K 3XuXuXuXuX",
"uXuXuXuXuXuXuXuXuXuXuXuXuXuXuXuX3XX # w t 0 w $   ].uXuXuXuX",
"uXuXuXuXuXuXuXuXuXuXuXuXuXuXuXuX3XX & t 0 0 0 4   ].uXuXuXuX",
"uXuXuXuXuXuXuXuXuXuXuXuXuXuXuXuX6XW n 4 4 4 4 r L 3XuXuXuXuX",
"uXuXuXuXuXuXuXuXuXuXuXuXuXuXuXuXuXuX/.        W uXuXuXuXuXuX"
};
