/* XPM */
static char *down_1__[] = {
/* columns rows colors chars-per-pixel */
"32 40 208 2 ",
"   c #010101",
".  c #060705",
"X  c #150B08",
"o  c #071806",
"O  c #051606",
"+  c #191709",
"@  c #181718",
"#  c #2A1B13",
"$  c #311B0F",
"%  c #06260D",
"&  c #0F3F1B",
"*  c #113611",
"=  c #3B2418",
"-  c #242D1B",
";  c #2B2B2C",
":  c #282629",
">  c #342C28",
",  c #37312C",
"<  c #363638",
"1  c #432516",
"2  c #5E351A",
"3  c #57341E",
"4  c #653A1C",
"5  c #703E1D",
"6  c #452B21",
"7  c #583325",
"8  c #4A3223",
"9  c #643A22",
"0  c #703F21",
"q  c #0C4717",
"w  c #0A511C",
"e  c #125313",
"r  c #12591C",
"t  c #284D1A",
"y  c #39491D",
"u  c #11631F",
"i  c #1A4D27",
"p  c #385D2C",
"a  c #106922",
"s  c #0C7A27",
"d  c #0E7B29",
"f  c #0D7126",
"g  c #117B29",
"h  c #107627",
"j  c #0C6622",
"k  c #276E27",
"l  c #2A6D27",
"z  c #73431F",
"x  c #485822",
"c  c #5D4D3B",
"v  c #694324",
"b  c #744221",
"n  c #7B4C24",
"m  c #7B4825",
"M  c #635220",
"N  c #7D5032",
"B  c #785C2C",
"V  c #566424",
"C  c #457030",
"Z  c #253547",
"A  c #2E4052",
"S  c #4A4745",
"D  c #565657",
"F  c #5A5957",
"G  c #445749",
"H  c #6B5451",
"J  c #79664E",
"K  c #50536D",
"L  c #696969",
"P  c #6E6F70",
"I  c #71716C",
"U  c #8C621C",
"Y  c #966F18",
"T  c #85582D",
"R  c #865835",
"E  c #896638",
"W  c #946937",
"Q  c #98763C",
"!  c #94742F",
"~  c #A57C3D",
"^  c #A2773D",
"/  c #835D45",
"(  c #8A6241",
")  c #976A45",
"_  c #9B7945",
"`  c #9A7357",
"'  c #8E755A",
"]  c #A47B41",
"[  c #A17647",
"{  c #A67D58",
"}  c #8A7C65",
"|  c #1E8629",
" . c #1E882A",
".. c #2B8524",
"X. c #228B2A",
"o. c #298D27",
"O. c #3E8924",
"+. c #2A9129",
"@. c #3D9926",
"#. c #319729",
"$. c #329829",
"%. c #439B23",
"&. c #4A9D2C",
"*. c #4F8227",
"=. c #41A529",
"-. c #4DA22B",
";. c #54AC26",
":. c #6A9533",
">. c #538E4A",
",. c #79837C",
"<. c #84AA16",
"1. c #A6A500",
"2. c #91813D",
"3. c #988124",
"4. c #AB853C",
"5. c #AA8537",
"6. c #BB9B31",
"7. c #B79438",
"8. c #AE9833",
"9. c #B9A52C",
"0. c #C3BF1F",
"q. c #C4A92A",
"w. c #CEB823",
"e. c #D2BC22",
"r. c #CEA638",
"t. c #E0BB3E",
"y. c #99C711",
"u. c #A6C930",
"i. c #D6C51C",
"p. c #DFD116",
"a. c #D6CC09",
"s. c #E7D916",
"d. c #E8DE0F",
"f. c #F5EE07",
"g. c #FEFD01",
"h. c #F7F305",
"j. c #EDE311",
"k. c #F6E718",
"l. c #E8F006",
"z. c #DAC324",
"x. c #E7C438",
"c. c #ECD526",
"v. c #A98343",
"b. c #BC8C46",
"n. c #AC8358",
"m. c #B38C58",
"M. c #BA925C",
"N. c #9A8B78",
"B. c #BD996F",
"V. c #A59752",
"C. c #C69748",
"Z. c #DAA851",
"A. c #D1AA46",
"S. c #E1B051",
"D. c #E6BE43",
"F. c #C19D70",
"G. c #C8A576",
"H. c #C4A06C",
"J. c #A6E65B",
"K. c #2C4F9C",
"L. c #00648A",
"P. c #2F52A0",
"I. c #566080",
"U. c #6074A3",
"Y. c #06BCFF",
"T. c #838383",
"R. c #8C8C8C",
"E. c #8D8E94",
"W. c #9C9B9C",
"Q. c #979797",
"!. c #8E929E",
"~. c #9AB99C",
"^. c #A8A7A7",
"/. c #BBAEA1",
"(. c #B8B8B9",
"). c #A0B6A9",
"_. c #97B9A7",
"`. c #D0AE86",
"'. c #D5B48B",
"]. c #D8B58B",
"[. c #DCBC93",
"{. c #DABB94",
"}. c #DDC196",
"|. c #E3C49B",
" X c #D7C3A9",
".X c #D1C0B4",
"XX c #E7C9A1",
"oX c #ECD0A7",
"OX c #EED2A9",
"+X c #F1D4AB",
"@X c #F4DBB2",
"#X c #FEE6BD",
"$X c #F9E2BC",
"%X c #91AEC6",
"&X c #B9BFCF",
"*X c #BAC5DD",
"=X c #8DDFFC",
"-X c #D6D6D6",
";X c #D9D9D9",
":X c #D0D3DA",
">X c #CBCCC8",
",X c #E8DBCE",
"<X c #FFE8C0",
"1X c #FCE8C8",
"2X c #E9E8E7",
"3X c #F4F4F4",
"4X c #489848",
"5X c #FEFAF1",
/* pixels */
"4X4X4X4X4X4X4X4X4X4X^.  q s s d d d g q   ^.4X4X4X4X4X4X4X4X4X4X",
"4X4X4X4X4X4X4X4X3X(.,.% r | | | | | | r % ,.(.3X4X4X4X4X4X4X4X4X",
"4X4X4X4X4X4X4X4X-X@ % s +.=.=.=.=.=.=.+.s % @ -X4X4X4X4X4X4X4X4X",
"4X4X4X4X4X4X3XQ.P q w g | +.+.o.o.o.o.| s w & I Q.3X4X4X4X4X4X4X",
"4X4X4X4X4X4X2X; O h s d d g s s d g | s s | f . ; 2X4X4X4X4X4X4X",
"4X4X4X4X4XR.S i u #.$.$.$.$.$.$.$.$.$.$.#.+.#.j i S R.4X4X4X4X4X",
"4X4X4X4X4XD   a X.=.;.;.;.;.-.-.-.-.;.=.=.-.=.X.f   D 4X4X4X4X4X",
"4X4X4X4X4XF   ..-.2.9.l.l.l.8._ _ 8.l.i._ 2.2.&...  F 4X4X4X4X4X",
"4X4X4X2X(.G % *.:._ q.g.l.s.q.6.^ 6.g.s.6.5._ :.*.% G (.2X4X4X4X",
"4X4X4XR.. w g Q _ ] q.g.w.4.d.h.4.6.g.g.g.q.[ ] Q g w . R.4X4X4X",
"{. X,XN.$ y x v.C.w.z.c.z.e.z.i.w.z.c.c.i.e.w.4.Q p y $ N.,X X X",
"Q m.'.{ m b n C.D.g.k.S.c.g.6.4.h.k.Z.C.[ p.g.7.Q b z z n.`.m.^ ",
"T _ +XXX'.{ Q s.s.q.e.k.z.6.4.4.h.j.7.M.G.C.9.p.i.! n.].|.+X[ T ",
"R ` +X@X#XF.Q d.s.v.q.g.e.4.v.4.d.p.] H.{.M.4.j.j.5.H.#X@X+X` N ",
"2X.XR { [.) m 5.b.Z.x.g.h.f.D.C.U W G.|.@XH.~ A.A.~ M.}.{ R .X2X",
"4X,X` N.).v.Y W ~ Z.x.k.j.j.r.b.E { [.+X<XG.b.C.C.6.M.).R.` ,X5X",
"4X4X4X=XY.J.h.U T Z.S.S.C.^ T T G.{.#X<X<X|.`.R U h.J.Y.=X4X4X4X",
"4X4X4X%XL.u.g.Y R B Q C.^ R ) { |.oXoX].B.' H R ! g.u.L.%X4X4X4X",
"4X4X4XR.  1.g.7.R . = ] T 0 F.{.@X@X'.{ 9 # . E 6.g.1.  R.4X4X4X",
"4X4X4XR.  3.x.! ( ^.!.K H m `.@X1XXX) H K !.^.( W t.3.  R.4X4X4X",
"4X4X4XQ.@ E C.n / 5X*XP.D R {.1X<X[.T D K.*X5X/ n C.E @ Q.4X4X4X",
"4X4X4X2X;XF + X , $X(.K.%X2X1X@X<X1X2X%XK.&X@X, X + F ;X2X4X4X4X",
"4X4X4X4X4XT.< . # |./.U.&X5X1X<X#X1X5X&XU./.[.= . < T.4X4X4X4X4X",
"4X4X4X4X4X4X2X; + _ H.$X<X$X1X1X#X<X<X<X@XF.[ X ; 2X4X4X4X4X4X4X",
"4X4X4X4X4X(.T.i - U _ B.{.OXoXoXoXOXOX{.F._ E - i R.(.4X4X4X4X4X",
"4X4X4X4X4XD   j h v b b n.'.'.'.`.'.'.n.5 z z h j   D 4X4X4X4X4X",
"4X4X4X(.D A A _.~.y t l C >.>.>.>.>.>.*.l y y ~.~.> 6 D (.4X4X4X",
"4X3X2XT.  Z K :X>Xt e | | s s s s s s s s e t >X>X9 # . T.2X3X4X",
"4X>X; , 7 9 9 > > v x s s | s s s d d d s x 4 > > 4 4 4 6 ; >X4X",
"4X(.. = E ) E @ o M x k h k O.%.@.O.k k k V M o + ( ( E =   (.4X",
"4X(.. c ].oX@Xp e @.*.b 0 b a.g.g.a.v b z *.=.e p @XOX].c   (.4X",
"4X;XI J J I N.- * +.*.V V x <.y.y.<.x V V O.o.* - } } ( L P ;X4X",
"4X4X4XR.        O h X.=.X.g d d d d d X.=.X.f O   .     R.4X4X4X",
"4X4X4X-X^.^.W.@ . % w X.+.#.#.#.#.#.#.o.X.w % . @ W.^.^.-X4X4X4X",
"4X4X4X4X4X3X2X, .   % f o.%.@.@.%.@.@...f % .   > 2X3X4X4X4X4X4X",
"4X4X4X4X4XP : 3 3 1 # O O o o O o o o o O # 1 7 7 ; P 4X4X4X4X4X",
"4X4X4X4X4XF   2 5 7 = X . . : < < :   . X 1 7 5 2   D 4X4X4X4X4X",
"4X4X4X4X4XD   2 0 0 9 6 X   (.3X3X(.  X 6 4 z z 2   D 4X4X4X4X4X",
"4X4X4X4X4XW.L 8 1 1 = $ S L -X4X4X;XP S # $ 1 1 8 L W.4X4X4X4X4X",
"4X4X4X4X4X4X3X;         R.4X4X4X4X4X4XR.        ; 3X4X4X4X4X4X4X"
};
