/* XPM */
static char *down_3__[] = {
/* columns rows colors chars-per-pixel */
"33 40 236 2 ",
"   c #010101",
".  c #0A0809",
"X  c #050804",
"o  c #170C07",
"O  c #011206",
"+  c #051809",
"@  c #181509",
"#  c #1B191A",
"$  c #091F18",
"%  c #24140B",
"&  c #331E11",
"*  c #07280C",
"=  c #0C3717",
"-  c #163413",
";  c #2C241D",
":  c #3B2719",
">  c #2F3111",
",  c #1E1E20",
"<  c #232224",
"1  c #332921",
"2  c #27363F",
"3  c #3B3B3C",
"4  c #333535",
"5  c #3A3525",
"6  c #482917",
"7  c #512D1A",
"8  c #57311A",
"9  c #6C3B1B",
"0  c #653A1B",
"q  c #713E1D",
"w  c #4C3B2C",
"e  c #653D27",
"r  c #0A4816",
"t  c #134914",
"y  c #0B561C",
"u  c #195617",
"i  c #0E400D",
"p  c #225616",
"a  c #21571F",
"s  c #304919",
"d  c #2C651B",
"f  c #125623",
"g  c #134D22",
"h  c #315239",
"j  c #0D6923",
"k  c #0F7326",
"l  c #0F7728",
"z  c #0F7A29",
"x  c #0F7827",
"c  c #137C26",
"v  c #117D2A",
"b  c #197326",
"n  c #166B23",
"m  c #287625",
"M  c #366F28",
"N  c #5A431C",
"B  c #6C411F",
"V  c #794C1C",
"C  c #584924",
"Z  c #4A423C",
"A  c #684623",
"S  c #754322",
"D  c #7C4C2C",
"F  c #7D4A22",
"G  c #72582B",
"H  c #6C563D",
"J  c #506C2F",
"K  c #736E3B",
"L  c #746F1D",
"P  c #003A50",
"I  c #283E52",
"U  c #27415B",
"Y  c #3B5570",
"T  c #575756",
"R  c #4C4B4D",
"E  c #74684B",
"W  c #55586F",
"Q  c #6C6C6D",
"!  c #696461",
"~  c #7A736C",
"^  c #7A7A7B",
"/  c #727473",
"(  c #5C6965",
")  c #855B1A",
"_  c #8C6B18",
"`  c #85552A",
"'  c #875835",
"]  c #8B6439",
"[  c #926535",
"{  c #98733D",
"}  c #8F6427",
"|  c #A77B3D",
" . c #A3752D",
".. c #825D46",
"X. c #8D6448",
"o. c #946945",
"O. c #927155",
"+. c #A47A41",
"@. c #A47A45",
"#. c #A37A56",
"$. c #9C7E64",
"%. c #1A8429",
"&. c #15812A",
"*. c #238B29",
"=. c #298725",
"-. c #2C9329",
";. c #379B29",
":. c #368928",
">. c #3EA129",
",. c #469629",
"<. c #49A827",
"1. c #43A529",
"2. c #4AA629",
"3. c #64A230",
"4. c #738A37",
"5. c #59904E",
"6. c #558848",
"7. c #79827B",
"8. c #B6A411",
"9. c #958939",
"0. c #908A38",
"q. c #AA833C",
"w. c #AC8838",
"e. c #B89635",
"r. c #AF8C30",
"t. c #BDA02C",
"y. c #A8AA29",
"u. c #969D15",
"i. c #C0993F",
"p. c #C2A62C",
"a. c #C7AD28",
"s. c #CEB923",
"d. c #C9B026",
"f. c #D1BB22",
"g. c #C7A93D",
"h. c #C6B114",
"j. c #BDC81A",
"k. c #D8C61C",
"l. c #D1D70E",
"z. c #E5D814",
"x. c #D4EA0A",
"c. c #C8E00A",
"v. c #ECE50B",
"b. c #F2EB0B",
"n. c #F4EF07",
"m. c #F6F205",
"M. c #FEFD01",
"N. c #FBF607",
"B. c #EDE916",
"V. c #F2E317",
"C. c #EBF403",
"Z. c #E5CA2A",
"A. c #E9CA35",
"S. c #C6F23A",
"D. c #A98249",
"F. c #AB8143",
"G. c #B28C59",
"H. c #B68D4C",
"J. c #B38D67",
"K. c #BA956D",
"L. c #BA9671",
"P. c #B9997E",
"I. c #BFA179",
"U. c #AEB37A",
"Y. c #A6945B",
"T. c #C99A4A",
"R. c #DDAB53",
"E. c #D6A451",
"W. c #D7AD48",
"Q. c #E3B847",
"!. c #C19D6C",
"~. c #C19D77",
"^. c #C7A47C",
"/. c #D2B278",
"(. c #E4B666",
"). c #BCCA44",
"_. c #C3C047",
"`. c #3A5291",
"'. c #2D4E9A",
"]. c #0277A3",
"[. c #3254A0",
"{. c #455482",
"}. c #447287",
"|. c #5A71A7",
" X c #4C67A4",
".X c #318BA4",
"XX c #7F8481",
"oX c #7582A5",
"OX c #06BDFD",
"+X c #7F93C0",
"@X c #53BCD3",
"#X c #0CC0F8",
"$X c #888787",
"%X c #949390",
"&X c #B79D8B",
"*X c #A69E8E",
"=X c #AFA79F",
"-X c #8790A9",
";X c #A9A9A9",
":X c #B6B6B6",
">X c #AFB2B0",
",X c #97B1AB",
"<X c #CEAD86",
"1X c #D5B48B",
"2X c #D5B485",
"3X c #D9BA92",
"4X c #CAB090",
"5X c #C4B9B0",
"6X c #DDC196",
"7X c #E3C59A",
"8X c #EACDA4",
"9X c #E6C8A0",
"0X c #F5DCB5",
"qX c #EFD5AB",
"wX c #FEE5BC",
"eX c #FFE8BF",
"rX c #DAC8B7",
"tX c #AFB5C6",
"yX c #B8C1CC",
"uX c #C9C9C9",
"iX c #C1C2C2",
"pX c #DADBDC",
"aX c #D6D5D4",
"sX c #CAD3D0",
"dX c #FFEAC1",
"fX c #F6E2C3",
"gX c #ECE4D9",
"hX c #F9ECD8",
"jX c #EBEBEB",
"kX c #E4E3E5",
"lX c #F5EEE5",
"zX c #FCF4E6",
"xX c #F6F6F6",
"cX c #489848",
"vX c #F8F6F4",
"bX c #E4DAD4",
/* pixels */
"cXcXcXcXcXcXcXcXcXcXcXcXkX# O l z &.r   *XcXcXcXcXcXcXcXcXcXcXcXcX",
"cXcXcXcXcXcXcXcXcXaXuXuX>X- = z z z r + 7.uXuXuXxXcXcXcXcXcXcXcXcX",
"cXcXcXcXcXcXcXcXcXT . . . j z z z z z z = . . # aXcXcXcXcXcXcXcXcX",
"cXcXcXcXcXcXcXuX;Xh * - t m %.*.%.*.*.%.u - * = $X:XxXcXcXcXcXcXcX",
"cXcXcXcXcXcXcXQ   y v ;.>.>.>.>.1.1.>.>.>.1.%.l O < jXcXcXcXcXcXcX",
"cXcXcXcXcXcXcXQ   y v *.-.-.-.-.-.-.-.-.-.-.&.k O < kXcXcXcXcXcXcX",
"cXcXcXcXcXcXcXQ   y &.z z z z z z z z z z z &.k O < kXcXcXcXcXcXcX",
"cXcXcXcXcX:XT h y %.-.;.-.-.;.;.-.-.;.-.-.-.-.-.y g T $XxXcXcXcXcX",
"cXcXcXcXcX$X  r &.;.1.2.2.1.2.<.1.2.2.2.2.2.1.;.%.k   4 xXcXcXcXcX",
"cXcXcXcXcX%X  p ;.4.0.l.c.9.9.x.j.0.y.x.x.x.y.0.,.=.X 3 xXcXcXcXcX",
"cXcXcXxXkXXXO M 2.0.w.b.m.e.t.M.z.@.f.M.m.b.p.w.3.;.+ h pXjXcXcXcX",
"cXcXcX:X, t k J F.k.n.M.M.m.m.M.z.+.f.M.f.w.z.b.Q.i.b f # Q cXcXcX",
"gXgXlX=Xo - m K H.v.M.b.v.M.M.V.f.+.s.M.a.+.k.B.A.g.M u o ! lXgXgX",
"D.G.3XJ.9 q S | R.V.m.e.e.m.v.w.| @.s.M.d.+.| w.b.b.G S 9 o.3X!.D.",
"[ @.7X<X#.o.` q.T.B.M.g.e.N.V.+.w.p.s.z.g.G.@.q.b.b.} ' #.K.7XK.[ ",
"9 ] 0XdXdX1X+.+.@.z.M.Q.Q.N.v.+.p.M.f.+.!.2XG.q.b.m.w.G.wXeXdXL.9 ",
"&X&XK.K.L.G.{ t.k.Z.A.Q.Q.N.v.| p.M.k.+.!.1X2X/.A.Z.q.G.8X3XK.P.&X",
"cXbXF B B ` | k.M.A.R.R.Q.N.v.+.p.M.k.+.!.1X0X0X(.R.F.D.1XJ.9 &XcX",
"cXsX; U .X( ` r.a.W.R.H.H.A.Z.z.v.M.h.D ~.0X9X7X@. .k._.@X}.% $XcX",
"cXuX. P #X.XS } @.T.E.F.F.E.Q.N.M.N.8.S ~.wX3X~.' ) m.S.#X].  $.cX",
"cXuX. 5 U.W.l.t.+.8 > ] D.R.W.e.r._ +.~.#.o.w 1 ] w.N.B.*XE O 7.cX",
"cXsX< C T.Z.M.d.{ w # E #.T.T.+.[ D #.<XX.e ; , ] w.b.V.W.{ # $XcX",
"cXxXpX*Xo G Q. .S 5XpX|.{.D ` S #.qXK.D W `.tXpXX.` W.e.% T pXjXcX",
"cXcXcXyX4 H H.} ` rXvX|.`.X.X.' J.eX<XX.W [.sXvXH 0 q.{ 4 ^ cXcXcX",
"cXcXcXxXxX$XX A @.7XfX|. XkXzX0XwXwXhXxX+X'.5XwX; X . w xXxXcXcXcX",
"cXcXcXcXcX:XT H G ~.7X-X-XkXzXdXwXwXhXzXtXoX4X2X; X @ w ;XyXcXcXcX",
"cXcXcXcXcXcXxXQ   G D.qXdXdXeXeXwXwXeXeXeXeX!.{ o X 9 8   T cXcXcX",
"cXcXcXcXcXcXcXQ   A [ J.~.9X8X8X8X8X8X8X<XL.o.' ~ ~ e 8 : Z $XiXcX",
"cXcXcXcXcXcXcXQ   7 S q ` ^.2X2X1X2X1X1Xo.9 9 D lXjXw 8 S 6   $.cX",
"cXcXcXcXcXcXcXQ   p d s s 6.5.5.5.5.5.5.J s & & T ! $.O.S 6   |.cX",
"cXcXcXcXcXxXxXQ X y %.t t k x c &.&.&.x y i O     @ &XK.S 6 . Y.cX",
"cXcXcXcXcX;X3 I U ,XsXH N C L c.c.c.u.C N N a y X . 1 1 o T tXpXcX",
"cXcXcXxXjX$.  I Y tXkXE 9 e _ v.C.C.8.B A V m v * X   X # Q cXcXcX",
"cXcXcX:X< 1 e e A W }., . n m =.=.-.=.b :.,.;.>.b y X 4 aXjXcXcXcX",
"cXcXcX>X  : X.' ' R I $ * k &.&.%.&.%.&.-.>.1.>.n y X 3 xXcXcXcXcX",
"cXcXcX;X  E wX7X<X5 . y l x %.>.>.>.>.>.>.1.<.>.* X   3 xXcXcXcXcX",
"cXcXcXuXT ~ *XY.O.; X y j %.-.>.1.>.1.1.;.;.m d @ o   w xXcXcXcXcX",
"cXcXcXcXcX$X          * u ;.1.1.1.1.1.1.*.v *   : 6   I xXcXcXcXcX",
"cXcXcXcXcXiX^ ^ ^ ^ / - * u p p p p p p t = O   % 1 Q %XcXcXcXcXcX",
"cXcXcXcXcXcXcXcXcXcXvX4                   X       < jXcXcXcXcXcXcX"
};
