/* XPM */
static char *right_2__[] = {
/* columns rows colors chars-per-pixel */
"38 40 231 2 ",
"   c #010101",
".  c #0B0504",
"X  c #020B03",
"o  c #0B0A0A",
"O  c #0D0906",
"+  c #170D09",
"@  c #041806",
"#  c #1D110D",
"$  c #12140C",
"%  c #1A1919",
"&  c #0F0F11",
"*  c #24150C",
"=  c #2A190D",
"-  c #321C16",
";  c #2C1A13",
":  c #07290B",
">  c #0A3D0A",
",  c #09310A",
"<  c #062E10",
"1  c #0D2910",
"2  c #083310",
"3  c #183E10",
"4  c #143B10",
"5  c #14290E",
"6  c #2B2416",
"7  c #382716",
"8  c #353317",
"9  c #1E2420",
"0  c #2B2A2B",
"q  c #262425",
"w  c #3A3327",
"e  c #363535",
"r  c #2D3027",
"t  c #4D2B16",
"y  c #45261D",
"u  c #49281F",
"i  c #47381C",
"p  c #58341D",
"a  c #4E3416",
"s  c #64381C",
"d  c #713E1F",
"f  c #4B2920",
"g  c #522D20",
"h  c #46352C",
"j  c #5B3420",
"k  c #463F39",
"l  c #683B21",
"z  c #723F20",
"x  c #0D420D",
"c  c #10490F",
"v  c #0C4D13",
"b  c #144A11",
"n  c #0D5516",
"m  c #0E5619",
"M  c #0C591B",
"N  c #155211",
"B  c #195B16",
"V  c #255D18",
"C  c #0F661F",
"Z  c #1C6218",
"A  c #216316",
"S  c #35781C",
"D  c #2E5230",
"F  c #0D6521",
"G  c #0F6B21",
"H  c #0F7A29",
"J  c #0F7124",
"K  c #117B29",
"L  c #167525",
"P  c #156C24",
"I  c #256829",
"U  c #3A6B2A",
"Y  c #175526",
"T  c #4B4309",
"R  c #75441D",
"E  c #7F581D",
"W  c #5B4A24",
"Q  c #425B2E",
"!  c #525323",
"~  c #4B423A",
"^  c #52483E",
"/  c #6F4426",
"(  c #744221",
")  c #7B4B27",
"_  c #436232",
"`  c #4E682B",
"'  c #003043",
"]  c #4D4D4E",
"[  c #454744",
"{  c #545354",
"}  c #575758",
"|  c #515145",
" . c #7B6755",
".. c #585C6F",
"X. c #7A7D7A",
"o. c #676666",
"O. c #5E6747",
"+. c #977119",
"@. c #88572A",
"#. c #855837",
"$. c #986933",
"%. c #A67D3F",
"&. c #A3783D",
"*. c #A07B2C",
"=. c #946844",
"-. c #9E7641",
";. c #8D654B",
":. c #A77C43",
">. c #967D61",
",. c #836C66",
"<. c #2E811F",
"1. c #19842A",
"2. c #1A8130",
"3. c #218A29",
"4. c #268525",
"5. c #338721",
"6. c #348B22",
"7. c #3D9D27",
"8. c #379727",
"9. c #2E9329",
"0. c #3EA229",
"q. c #3FA327",
"w. c #58A31E",
"e. c #61AB1D",
"r. c #70BA1F",
"t. c #528226",
"y. c #5A9C28",
"u. c #498D29",
"i. c #629F2D",
"p. c #41A429",
"a. c #4CA829",
"s. c #51AB30",
"d. c #6EB426",
"f. c #59AF44",
"g. c #718974",
"h. c #BDBD00",
"j. c #AC863A",
"k. c #B69435",
"l. c #B99735",
"z. c #B29136",
"x. c #B3AB21",
"c. c #C7A82F",
"v. c #A6CB0F",
"b. c #DED207",
"n. c #D9CD13",
"m. c #E9DE13",
"M. c #E7D915",
"N. c #DDEF07",
"B. c #EDE50C",
"V. c #F2EC0A",
"C. c #FCFC01",
"Z. c #F8F507",
"A. c #EEEC0E",
"S. c #E7C23C",
"D. c #F5EB2E",
"F. c #AC8346",
"G. c #B38943",
"H. c #B18C57",
"J. c #B79358",
"K. c #B09350",
"L. c #958675",
"P. c #A68C6D",
"I. c #B89466",
"U. c #AC9774",
"Y. c #B99A74",
"T. c #BDBD7D",
"R. c #B2A149",
"E. c #CE9E4C",
"W. c #C1914A",
"Q. c #D09E4D",
"!. c #CBA84C",
"~. c #D3A24E",
"^. c #DBAD4B",
"/. c #DDB344",
"(. c #D3A350",
"). c #DAA952",
"_. c #C7A951",
"`. c #E1B44A",
"'. c #C8A57A",
"]. c #3B5BA2",
"[. c #4E6399",
"{. c #455486",
"}. c #00B5FB",
"|. c #39B4CD",
" X c #62B7C2",
".X c #3EC5F0",
"XX c #888685",
"oX c #9B9B9C",
"OX c #939190",
"+X c #93A992",
"@X c #B1A494",
"#X c #A6A6A6",
"$X c #BCBCBC",
"%X c #B4B3B4",
"&X c #A9B4AD",
"*X c #C7AA86",
"=X c #D4B38B",
"-X c #D7B68C",
";X c #DCBC93",
":X c #D6BA95",
">X c #CDB694",
",X c #B2C3B2",
"<X c #B5D9B5",
"1X c #C8C396",
"2X c #CCD09E",
"3X c #E1C299",
"4X c #C0C0A9",
"5X c #F7DCB3",
"6X c #F1D8AD",
"7X c #C7E4BF",
"8X c #FDE4BB",
"9X c #FCE3B7",
"0X c #FFFFAB",
"qX c #C5C5C5",
"wX c #D1D5D0",
"eX c #EADDCD",
"rX c #FEEAC2",
"tX c #FDE9C9",
"yX c #E8E0DA",
"uX c #D8DEEC",
"iX c #E4E4E5",
"pX c #EBECEC",
"aX c #E7EDE7",
"sX c #F1EAE0",
"dX c #ECF4EA",
"fX c #F7F3EE",
"gX c #F2F2F2",
"hX c #F9F6F2",
"jX c #489848",
"kX c #F8F8F6",
"lX c #DAE1EF",
/* pixels */
"jXjXjXjXjXjXjXjXjXjXjX7Xp.p.p.p.p.p.p.6.c N 0.u.R ) &.I.gXjXjXjXjXjXjXjXjXjX",
"jXjXjXjXjXkXaXaXdXdXdX<Xp.p.p.p.p.p.7.5.b B a.y.@.@.%.I.sXfXjXjXjXjXjXjXjXjX",
"jXjXjXjXjX<XD U f.f.f.s.p.p.p.p.p.6.N B 8.e.N.V.V.m.^.(.J.Y.hXjXjXjXjXjXjXjX",
"jXjXjXkXaX+Xv Z q.q.0.q.p.p.p.p.7.5.c A a.r.C.Z.C.B.^.E.j.J.sXgXjXjXjXjXjXjX",
"jXjXkX,XD I J 1.p.p.p.p.p.p.p.6.N Z 8.y._.!.`./.z.j.F.k.V.m.J.Y.hXjXjXjXjXjX",
"jXjXjX&Xx n K 3.p.p.p.p.p.p.p.6.x B q.i./.`.).(.F.:.:.k.V.B.z.J.sXhXjXjXjXjX",
"jXjXjX&Xx m H 3.p.p.p.p.p.p.p.6.x B p.r.Z.M.F.G.~.).~.~.k.l.B.m.J.Y.hXjXjXjX",
"jXkXfX+Xx m H 3.p.p.7.7.7.q.p.5.x B 7.r.Z.M.j.G.).).).E.:.k.C.V.j.H.fXjXjXjX",
"jX,XD I J J K 3.p.6.N N N A p.5.x B 0.s.z.c.A.M.j.:.@.@.Q./.C.V.j.H.gXjXjXjX",
"pX+Xx M K K K 1.p.5.c c c B p.5.c A a.y.&.l.Z.m.:.&.) #.Q.`.Z.B.j.H.gXjXjXjX",
"0 3 x m K K K K 1.3.8.6.8.<.N A 6.e.N.n.&.j.z.G.'.'.'.I.@.@.`./.:.H.fXjXjXjX",
"  @ x m K K K H K 1.q.q.q.5.x Z 0.r.C.m.:.-.:.H.-X-X-X'.( @.Q.Q.F.I.fXjXjXjX",
"  @ x n K K K K K 1.1.L N B J J 1.w.C.m.%.F.'.-X6X6X:XY.* * ) =.eXsXkXjXjXjX",
"  @ x m K K K H K H H C x N J J K y.Z.m.j.H.=X;X5X6X=XP.o + ( ;.fXjXjXjXjXjX",
"  @ 4 m K K K K H C n m J F v U R.R.z.x.V.D.9X>Xw h #./ . q qXyXjXjXjXjXjXjX",
"o 1 > m K K H K K C b B 2.P c ` ^.Q.:.l.C.D.8X>X& & z j . r iXjXjXjXjXjXjXjX",
"wXg.X 2 K F v n M ` 1X2X2X>XU.H.@.$.).E.k._.9XrXqX%X{...L.>.e } pXjXjXjXjXjX",
"jXoX  : K C x x x O.8X8XrX6X-XY.d @.^.Q.:.J.5XtXjXlX].[.>XY.. q pXjXjXjXjXjX",
"jXoX  < 1.F x , X D H.'.8X8X5X=Xz +.V.n.@.=.9XtXjXuX].[.>XY.o q pXjXjXjXjXjX",
"jXoX  < H C x :   - &.I.9X8XrX:X) +.C.b.R =.5XtXjXuX].[.*XU.& 0 pXjXjXjXjXjX",
"jXoX  @ n > X X   O = W J.+X.X XW.c.C.b.R =.5XtXtXrX@XL.w ~ %XqXkXjXjXjXjXjX",
"jXoXo @ x ,   . .     6 -.g.}.|.`.`.C.b.R =.5X8X5X5X-XU.. q gXjXjXjXjXjXjXjX",
"jXiX$XX.X ] $XT.h.x.P. .6 9 9 _ D.n.+.*.I.'.;X;X3X*Xh q   q pXjXjXjXjXjXjXjX",
"jXjXjX#X. } jX0XC.D.-X>.    o T C.b.d #.=X=X=X=X=XP.o     0 pXjXjXjXjXjXjXjX",
"jXjXjXiX$XwXjX%XT T w r , :   8 S.k.* 6 U _ _ Q w | %X#Xj g [ o.pXjXjXjXjXjX",
"jXjXjXjXjXjXjX#X      X x ,   7 ).j.  X > x x ,   0 kXyX) p   q pXjXjXjXjXjX",
"jXjXjXjXjXjXjXiX%XX.  + T y   5 u.U   @ C C C C M Y ] k * w #XqXkXjXjXjXjXjX",
"jXjXjXjXjXjXjXjXjX&X  * z p   : H M   @ K K K K K P       q gXjXjXjXjXjXjXjX",
"jXjXjXjXjXqX] ] ] D 1 5 * k &X+XH P u T H H H 5.v.v.S V   0 pXjXjXjXjXjXjXjX",
"jXjXjXjXjXoX      @ 4 ,   [ jXwX2.I / W L H H 7.C.N.s.6.X 0 pXjXjXjXjXjXjXjX",
"jXjXjX$X{ ^ t -     @ $ - h ,.XX<X+X; 6 ! ! ! ` e.w.p.5.X o ] { { { } o.pXjX",
"jXjXjXoX  = R t       + f u -  .jXqX  # d R R / L K p.5.X             % iXjX",
"jX$X} ^ t p R t   w U.>.j j f h } ] M B t.t.t.u.8.9.1.L X . ; - y t t a { } ",
"jXoX  * ( ( ( t   ^ rX:X/ l g 7   @ H 1.0.0.0.q.p.0.K P   . f f ( ( ( s     ",
"jXoX  = ( l j -   % | ;.=X>.# % m F 9.8.p.0.1.L 3 4 < 1 ; - f g z ( ( s .   ",
"jXoX  = ( l f -     . ~ 8X@X  : K 1.q.p.p.0.2.F       . f f f g z ( ( s .   ",
"jXoX  * j g f -   e oXXXO.k   X : 2 3 3 b 4 2 r oXXXo . f f f f j g - 7 OX#X",
"jXoX  # f f f -   { jX%X                      e kXwXo . f f f f f 7   % pXjX",
"jXwXoXo.# # # k oX$XjXiXoXoXoXoXoXoXoXoXoXoXoX&XjXpXoXXX% # # # # q OX#XgXjX",
"jXjXjX#X      } jXjXjXjXjXjXjXjXjXjXjXjXjXjXjXjXjXjXjXwXo         q pXjXjXjX"
};
