/* XPM */
static char *right_1__[] = {
/* columns rows colors chars-per-pixel */
"31 40 233 2 ",
"   c #010101",
".  c #020C02",
"X  c #0B0A04",
"o  c #0A0A0B",
"O  c #0B0606",
"+  c #140B08",
"@  c #031306",
"#  c #071909",
"$  c #171309",
"%  c #1B1B1D",
"&  c #171615",
"*  c #001119",
"=  c #291813",
"-  c #291612",
";  c #2E1C0E",
":  c #06270C",
">  c #0B3C0B",
",  c #08350B",
"<  c #182C13",
"1  c #173612",
"2  c #0B2C10",
"3  c #28241A",
"4  c #3C2211",
"5  c #39251A",
"6  c #293F1E",
"7  c #312A12",
"8  c #0A2730",
"9  c #242323",
"0  c #29292B",
"q  c #342C2B",
"w  c #45261D",
"e  c #472817",
"r  c #502D1E",
"t  c #683A1D",
"y  c #703D1E",
"u  c #4C2A21",
"i  c #463B2E",
"p  c #5B3320",
"a  c #4E3628",
"s  c #713D20",
"d  c #0C420D",
"f  c #0A4314",
"g  c #0D4B12",
"h  c #0A4A1A",
"j  c #0D5B1A",
"k  c #0D5315",
"l  c #1B5C14",
"z  c #1A4A16",
"x  c #234918",
"c  c #205115",
"v  c #0E631D",
"b  c #0F681F",
"n  c #1C6719",
"m  c #206517",
"M  c #236A19",
"N  c #2B6C19",
"B  c #2B771D",
"V  c #3C5B23",
"C  c #2B5324",
"Z  c #0F6D22",
"A  c #0D6522",
"S  c #0E7325",
"D  c #0D7C2A",
"F  c #0D7A26",
"G  c #107626",
"H  c #107B29",
"J  c #187826",
"K  c #187329",
"L  c #276223",
"P  c #2E7030",
"I  c #4B500B",
"U  c #7A4D1C",
"Y  c #797801",
"T  c #55453A",
"R  c #4F4F28",
"E  c #754121",
"W  c #784828",
"Q  c #674C2A",
"!  c #50712C",
"~  c #636F31",
"^  c #25515E",
"/  c #387540",
"(  c #004864",
")  c #575755",
"_  c #584748",
"`  c #675846",
"'  c #526E4F",
"]  c #77695A",
"[  c #79644C",
"{  c #5F6560",
"}  c #656664",
"|  c #787776",
" . c #6F736C",
".. c #885E19",
"X. c #85542C",
"o. c #855535",
"O. c #9C7525",
"+. c #866732",
"@. c #996A37",
"#. c #9A763B",
"$. c #936D20",
"%. c #A4783D",
"&. c #876B1A",
"*. c #9C7149",
"=. c #906D4A",
"-. c #A47B41",
";. c #A47B49",
":. c #8E7973",
">. c #83706B",
",. c #30821F",
"<. c #1D8629",
"1. c #1A8429",
"2. c #1A8034",
"3. c #268E29",
"4. c #2D8127",
"5. c #328921",
"6. c #2F9629",
"7. c #389425",
"8. c #228731",
"9. c #3EA229",
"0. c #5E851E",
"q. c #4A8627",
"w. c #41A429",
"e. c #4AA52B",
"r. c #5AB122",
"t. c #6BA626",
"y. c #318945",
"u. c #60864F",
"i. c #62A05C",
"p. c #4D9D60",
"a. c #6F8F6F",
"s. c #5A874B",
"d. c #BABA00",
"f. c #BBB608",
"g. c #92803E",
"h. c #A9863B",
"j. c #B28F37",
"k. c #B18C3B",
"l. c #B79734",
"z. c #AF8C2F",
"x. c #BEA423",
"c. c #8CB133",
"v. c #D4BD27",
"b. c #C5A731",
"n. c #91C313",
"m. c #BBD511",
"M. c #CFCD18",
"N. c #E8DA18",
"B. c #F3EC09",
"V. c #F9F602",
"C. c #FDFB01",
"Z. c #F6F204",
"A. c #F0E31D",
"S. c #FDFB19",
"D. c #ECE80F",
"F. c #EBD52B",
"G. c #F8F22A",
"H. c #CEE80A",
"J. c #82825B",
"K. c #AE8444",
"L. c #B78844",
"P. c #BD9247",
"I. c #B38D5A",
"U. c #AC9645",
"Y. c #908373",
"T. c #B3946F",
"R. c #C99B4B",
"E. c #C1924B",
"W. c #C3A64A",
"Q. c #D5A947",
"!. c #DDAA53",
"~. c #E0AD53",
"^. c #E1B15A",
"/. c #C19C75",
"(. c #C19D68",
"). c #C6A26E",
"_. c #C3A67C",
"`. c #D1B576",
"'. c #2D4F9C",
"]. c #669F8B",
"[. c #00B5F7",
"{. c #5DCDE8",
"}. c #878786",
"|. c #819C81",
" X c #8A8892",
".X c #979696",
"XX c #83BB90",
"oX c #90A091",
"OX c #B2A694",
"+X c #ABABAC",
"@X c #A5A5A6",
"#X c #B6B6B7",
"$X c #A9B4AA",
"%X c #96B5A6",
"&X c #C6AC8A",
"*X c #D8B78D",
"=X c #D9B88E",
"-X c #D5B589",
";X c #D0B590",
":X c #D1BDA1",
">X c #A8CFAF",
",X c #DAC496",
"<X c #E2C397",
"1X c #E0C48A",
"2X c #D4C8B0",
"3X c #EACDA4",
"4X c #F3D8AF",
"5X c #F6DBB1",
"6X c #EED1A8",
"7X c #FEE5BC",
"8X c #FCE6B9",
"9X c #FDEAAF",
"0X c #AEBBD8",
"qX c #CBCBCC",
"wX c #C3C5C3",
"eX c #D9D9DA",
"rX c #D3D4CA",
"tX c #E1D4C3",
"yX c #CBE2D0",
"uX c #D4E7D9",
"iX c #FFEDCF",
"pX c #FFE9C4",
"aX c #EDE5DA",
"sX c #F8ECD8",
"dX c #E0DFE0",
"fX c #EBEBEB",
"gX c #E4E4E4",
"hX c #FDFDE4",
"jX c #F5F0E9",
"kX c #F2F2F2",
"lX c #489848",
"zX c #F8F6F3",
"xX c #F0EFF0",
/* pixels */
"lXlXlXlXlXlXlXlXuX2.3.w.w.w.w.w.l g S K Q W #.&XlXlXlXlXlXlXlX",
"lXlXlXlXlXuXyXyX>X8.3.9.w.w.w.w.l d J 4.&.O.l.`.sXsXaXzXlXlXlX",
"lXlXlXlXlXp.H 2.8.7.w.w.w.w.w.w.l d 7.r.B.V.C.F.!.E.;.tXlXlXlX",
"lXlXlXqX$Xy.H <.3.9.w.w.w.w.7.B M m t.c.A.N.N.v.R.b.b.,X2XzXlX",
"lXlXlXu.d b 1.9.w.w.w.w.w.w.M d 5.e.W.~.~.Q.-.-.-.v.C.x.K.aXlX",
"lXqX|.P v S 1.<.6.w.w.w.w.w.M d 5.e.U.W.F.v.-.K.E.b.M.v.v.;X:X",
"lX].> v D D F F 1.w.w.w.w.w.M f 5.e.g.j.V.N.K.P.~.P.%.N.C.l.-.",
"lXY.d b H D F F G M m m m n B 5.n.M.h.j.Z.A.).I.@.K.R.A.C.O.W ",
"zXa.g Z H H H H Z d d d d > B e.H.C.j.j.Z.A.*XI.s %.~.A.V.$.W ",
"' K S J H H H H H Z Z G j > n <.H.V.j.%.l.R.-X&X/.;.X.%.l.2XtX",
"> j H H H G G J G H H G v f n K m.D.l.h.K.I.=X=X*X;.t @.I.aXlX",
"d v H H H k g d k H A g v H ~ #.h.j.D.A.-X=X7X6X*X` O @XjXlXlX",
", j H G Z d , > g Z b g v S ~ *.#.h.B.S.1X=X;X&X/.T   +XlXlXlX",
"  f H j > @ . > d > k F j d I W @.h.B.S.9XOXo ; W 4   +XlXlXlX",
"  2 Z g > . . > c ' u.i.s.! Q E %.P.M.F.9X2X) _ _ T i }.+XfXlX",
"  : d d d .   , V 8XpX7X3X-X=.E E.~.;.I.5XiXlX0X'. X-Xi o qXlX",
"  2 v > 2 } | 2 6 _.<X7X5X3X=.4 x.F.@.@.5XiXlX0X'. X*Xi o qXlX",
"  f D : o qXgX% - #.(.pX7X7X)   d.Z...o.5XiXlX0X'. X;Xi o wXlX",
"  2 k # o qXgX9 X 7 Q ).%X{.^   f.V...o.5XpXiX2X.X} a Y.@XfXlX",
"o : > # & qXfX0 O O 3 @.].[.(   d.C...o.5X7X7X6X-X` O +XlXlXlX",
"wX{ . }.wXkXhXM.f.k.+.= % 8 * o d.C.&.X.*X<X<XY.5 | wXfXlXlXlX",
"lX}.& #XlXlXhXG.A.Q.+..   . . . f.B.U W T._._.] % .XlXlXlXlXlX",
"lXfXdXkXlXlXlXhX2X3 $ d h S 2   h.Q.7 @ C x & } gXxXlXlXlXlXlX",
"lXlXlXlXlXlXlXlXqXo @ k j A < $ +.h.3 # g > @ ) qXgXlXlXlXlXlX",
"lXlXlXlXlXlXlXlXqXo 2 D h   e s - @ A F F J J k o  XlXlXlXlXlX",
"lXlXlXlXlXlXlXlXqXo 2 D h   7 ! 1 : h j F F F N I J.@XaXlXlXlX",
"lXlXlXlXlXlXlXlXqXo : D >   h 2.S S @ @ S H 1.r.C.0.O +XlXlXlX",
"lXlXlXlXlXlXkX.X} - 3 C <   ' ].XX].& X C ! V 0.n.I   +XlXlXlX",
"lXlXlXlXlXlXgX% O u u u -   .XlXlXjX0 X y E E R D ,   +XlXlXlX",
"lXlXlXlXlXlXgX% @ C C u -   _ :.:.>.& $ ! q.! q.6.z   +XlXlXlX",
"lXlXlXlXlXlXgX9 # S L u =   - w w e O @ 7.w.w.w.9.c o +XlXlXlX",
"lXlXlXlXlXlXzXqX@X: d q.x   4 t t t X @ J 3.w.B :  .wXfXlXlXlX",
"lXlXlXlXlXlXlXlXrX9 x 7.x   r W W W + @ A J 7.L = .XlXlXlXlXlX",
"lXlXlXlXlXlXlXlXlXdX.X# .   [ -X3X3X9   . @ # { gXxXlXlXlXlXlX",
"lXlXlXlXlXlXlXlXlXlX#Xq %   ` T.&X&X3 O o O + ) qXfXlXlXlXlXlX",
"lXlXlXlXlXlXlXlXlXlXlXkX}.    o o o w u u u s e o  XlXlXlXlXlX",
"lXlXlXlXlXlXlXlXlXlXlXlX+X) %       5 u p p E e   }.lXlXlXlXlX",
"lXlXlXlXlXlXlXlXlXlXlXlXlXlX}       w r E E E e   }.lXlXlXlXlX",
"lXlXlXlXlXlXlXlXlXlXlXlXlXlX+X| | | 5 - 4 4 4 T | wXlXlXlXlXlX",
"lXlXlXlXlXlXlXlXlXlXlXlXlXlXlXlXlXxX0         } lXlXlXlXlXlXlX"
};
