/* XPM */
static char *up_1__[] = {
/* columns rows colors chars-per-pixel */
"34 40 218 2 ",
"   c #010101",
".  c #010A03",
"X  c #0C0C0D",
"o  c #080607",
"O  c #130B06",
"+  c #190D09",
"@  c #041806",
"#  c #1C120B",
"$  c #0E0E13",
"%  c #161718",
"&  c #22130D",
"*  c #25190E",
"=  c #341D0F",
"-  c #251510",
";  c #221812",
":  c #291812",
">  c #361E14",
",  c #0A2C09",
"<  c #062609",
"1  c #0A320A",
"2  c #0C3D0B",
"3  c #15350E",
"4  c #062F10",
"5  c #19391A",
"6  c #0B2B0D",
"7  c #333300",
"8  c #3A2517",
"9  c #233514",
"0  c #313816",
"q  c #292E10",
"w  c #1F1D20",
"e  c #3C332C",
"r  c #302D2D",
"t  c #432616",
"y  c #59361A",
"u  c #502B1D",
"i  c #6D3B1B",
"p  c #673719",
"a  c #713F1F",
"s  c #4C2A21",
"d  c #433324",
"f  c #543D24",
"g  c #502D21",
"h  c #6E3E21",
"j  c #633621",
"k  c #723F20",
"l  c #0D420D",
"z  c #10470E",
"x  c #0A4314",
"c  c #0D4D13",
"v  c #0A4918",
"b  c #1E4812",
"n  c #0E5516",
"m  c #0C5519",
"M  c #0D5B1B",
"N  c #145718",
"B  c #274715",
"V  c #245817",
"C  c #0E621D",
"Z  c #1E6216",
"A  c #17661C",
"S  c #246C19",
"D  c #266519",
"F  c #28751C",
"G  c #33611B",
"H  c #115521",
"J  c #344B21",
"K  c #0E6621",
"L  c #0E6B22",
"P  c #0F7225",
"I  c #0F7B29",
"U  c #107526",
"Y  c #107C29",
"T  c #187525",
"R  c #276928",
"E  c #3A6425",
"W  c #307034",
"Q  c #57481A",
"!  c #48541D",
"~  c #535514",
"^  c #554A33",
"/  c #764221",
"(  c #7B4A27",
")  c #675922",
"_  c #735329",
"`  c #476725",
"'  c #5C6D24",
"]  c #476136",
"[  c #546F2B",
"{  c #636123",
"}  c #77712D",
"|  c #2A3746",
" . c #0C664B",
".. c #087B76",
"X. c #327C7F",
"o. c #2F4F6F",
"O. c #585657",
"+. c #494A47",
"@. c #5C6A4C",
"#. c #67625D",
"$. c #68744C",
"%. c #505863",
"&. c #506461",
"*. c #696A68",
"=. c #767677",
"-. c #6D7A6E",
";. c #9C7718",
":. c #835228",
">. c #8A5D36",
",. c #93673A",
"<. c #9E743C",
"1. c #94703B",
"2. c #8C6C38",
"3. c #A57C3E",
"4. c #A27936",
"5. c #885E43",
"6. c #956A47",
"7. c #8E6F4F",
"8. c #A47A43",
"9. c #A17540",
"0. c #867669",
"q. c #2D811F",
"w. c #1B8429",
"e. c #14802A",
"r. c #248C29",
"t. c #278725",
"y. c #338A22",
"u. c #328420",
"i. c #2D9429",
"p. c #389927",
"a. c #3DA229",
"s. c #3FA026",
"d. c #4B991E",
"f. c #4B8D27",
"g. c #41A429",
"h. c #4AA928",
"j. c #44A82A",
"k. c #66AE2B",
"l. c #36924B",
"z. c #7E8C77",
"x. c #A19F04",
"c. c #ACAD00",
"v. c #8E823D",
"b. c #8F9931",
"n. c #B38D3A",
"m. c #B39037",
"M. c #AE9A30",
"N. c #9BA733",
"B. c #9C8B10",
"V. c #CAB70D",
"C. c #CCD51A",
"Z. c #F0DD1B",
"A. c #D6EB09",
"S. c #C1E10C",
"D. c #ECE20E",
"F. c #FAF601",
"G. c #F9FA03",
"H. c #F7F20F",
"J. c #EAC43B",
"K. c #EDE520",
"L. c #918F51",
"P. c #AB844B",
"I. c #AF8650",
"U. c #958868",
"Y. c #A78568",
"T. c #B28C65",
"R. c #BB9769",
"E. c #A6947A",
"W. c #A88975",
"Q. c #A9A578",
"!. c #D2AB4F",
"~. c #C9A96E",
"^. c #BDEF44",
"/. c #0393B1",
"(. c #098FA4",
"). c #2C8FAD",
"_. c #04BFFF",
"`. c #848484",
"'. c #8B8B8C",
"]. c #959591",
"[. c #AE9881",
"{. c #B69A86",
"}. c #A19E9D",
"|. c #B7A88F",
" X c #ACACAC",
".X c #A1A2A5",
"XX c #B6B6B6",
"oX c #88A68A",
"OX c #C5AA88",
"+X c #D6B588",
"@X c #C7B097",
"#X c #CCB8A6",
"$X c #E4C59A",
"%X c #D7C4AA",
"&X c #D3C4B9",
"*X c #EED0A7",
"=X c #E1D2BC",
"-X c #F4DBB2",
";X c #FBE4BC",
":X c #B8C7CC",
">X c #CCCBCC",
",X c #C7C7C6",
"<X c #D5D5D5",
"1X c #DBDBDB",
"2X c #DCCFC7",
"3X c #EEDECB",
"4X c #E8DFDA",
"5X c #FFEAC1",
"6X c #EAE2D9",
"7X c #F6F2D6",
"8X c #E5E5E5",
"9X c #EBEBEB",
"0X c #F2ECE3",
"qX c #F5F0EC",
"wX c #F5F5F5",
"eX c #489848",
"rX c #F7F9F4",
"tX c #EAF4EB",
/* pixels */
"eXeXeXeXeXeXeXeXeXeXeXeXeXW.i ,.3.<.8.8.<./ 5.qXeXeXeXeXeXeXeXeXeXeX",
"eXeXeXeXeXeXeXeXeXeXeX9X<XY.( n.m.m.m.3.<._ 6.7X7X6XqXeXeXeXeXeXeXeX",
"eXeXeXeXeXeXeXeXeXeXeX`.X 2.!.K.F.F.H.m.9.9.m.H.K.P.OXrXeXeXeXeXeXeX",
"eXeXeXeXeXeXeXeXeX8X>X*.@ } !.C.A.A.A.b.v.v.M.G.H.3.R.6X0XeXeXeXeXeX",
"eXeXeXeXeXeXeXeXeX].o V g.g.h.h.h.h.h.h.g.g.k.G.D.n.8.P.OXeXeXeXeXeX",
"eXeXeXeXeXeXeX8XXX-.6 V y.y.y.y.y.y.y.y.y.u.d.S.C.I.n.M.~.=X6XeXeXeX",
"eXeXeXeXeXeXeX.X  B g.S 2 l l l 2 l l z l z N s.k.!.J.G.V./ [.eXeXeX",
"eXeXeXeXeX8X X-.< N u.F Z Z Z Z D Z D N D N Z q.f.L.N.c.B.:.{.eXeXeX",
"eXeXeXeXeXXX  4 I C 2 F g.g.g.s.g.g.g.g.g.g.p.z z T M   8 <.@XeXeXeX",
"eXeXeXeXeX X  < K A S y.g.g.g.g.g.g.g.g.g.g.p.S Z A v   ^ OX=XeXeXeX",
"eXeXeXeXeXXXo @ l F g.g.g.g.g.g.g.g.g.g.g.g.g.g.p.z ,   O.eXeXeXeXeX",
"eXrX%X%X3X|.@ 1 M A F y.g.g.g.g.g.g.g.g.g.g.g.F S C c @ @.5X&X%X6XeX",
"eX0XP.I.+XU.z n Y C 2 F g.g.g.g.g.g.g.g.g.g.p.l c Y L l ] +XR.<.#XeX",
"{.{.+X+X*XQ.l n Y P M t.g.g.g.g.g.g.g.g.g.g.p.A C Y C l $.*X$X+XOX{.",
"i >.-X5X5X|.z M Y Y Y i.g.g.g.g.g.g.g.g.g.g.a.e.e.I L 2 f.;X;X5XT.i ",
"#X@X8.W.~.L.x N Y L n T r.p.g.g.g.g.p.g.g.r.w.M C I L 3 @.~.R.Y.{.#X",
"eX4X( ( 9.} l n Y C x M Y i.g.g.g.g.g.g.a.e.U x c Y L 2 E 9.>.i |.eX",
"eXwX,X@X:.@./...n 1 @ v Y w.r.p.g.g.g.t.w.Y L @ < c P /.X.:.W.#X6XeX",
"eXeXeX2X/ &._.(.l <   x Y Y Y i.g.j.s.e.I Y K . . l  ._.).i {.eXeXeX",
"eXeXeX>X: ! ^.N.Q =   x Y Y Y e.w.w.w.Y I I K . + y } ^.b.+ 0.eXeXeX",
"eXeXeX,X$ ~ F.V./ t   2 Y Y Y Y Y Y U Y Y U L . # k ;.F.x.  =.eXeXeX",
"eXeXeXwX<X].7 Q 4.f   4 c L Y Y Y Y Y Y U n l   * <._ 7 @.>X8XeXeXeX",
"eXeXeXeXeXXX% d <.f   @ 2 C Y Y Y Y Y Y U l 1   * 1._ $ *.eXeXeXeXeX",
"eXeXeXeXeXwX1X'.+ O   . . m Y Y Y Y Y Y P @ .   o O +.<X8XeXeXeXeXeX",
"eXeXeXeXeXrX9X].. . . .   v P Y Y Y I U L .   . .   +.1X9XeXeXeXeXeX",
"eXeXeXeXeXXXw 5 L M 2 @   4 c L Y Y U n 2 . . 1 x L H % =.eXeXeXeXeX",
"eXeXeXwX1X}.o 5 l.R l , . , 2 K Y Y U x 1 @ @ 2 N l.W o O.<X8XeXeXeX",
"eXeXeX,X% w 8 0.rXoX2 M P 4   M Y Y I @ . K L l W wX:Xo.| $ =.eXeXeX",
"eXrX<X}.+ - u 0.>Xz.b N Y 4   c P P K @ . L U b ] ,X.X%.| O #.>X8XeX",
"eX<X% # j k a t o 8 a E I 4   , c l 2 . . L T / g $ ; h / j 8 . '.eX",
"eX<X$ * 6.6.>.j . 0 ) ` R 9 & , , 1 , # * R E ) Q . q 5.6.6.f   `.eX",
"eX<XX e ;X-X+XU.2 F g.' / k a &     o y a / ) g.y.x ] +X$X5XU.  `.eX",
"eX8XO.*.[.E.0.^ 1 D j.f.) { { B 3 3 b ~ { { ' g.y., J 7.U.[.0.+.XXeX",
"eXeXeX,Xo         V j.j.g.g.g.g.a.s.s.g.g.j.g.j.u.o         =.eXeXeX",
"eXeXeX1X*.+.  o + 9 D F i.p.g.g.a.j.j.a.a.i.i.S V # $   r #..XeXeXeX",
"eXeXeXeXeXXX  # g :   x e.i.g.g.j.j.a.s.a.e.L   O s >   O.eXeXeXeXeX",
"eXeXeXeXeX<X=.O.- ; - 0 E [ ' G V V V [ [ ` J - - - d =. XeXeXeXeXeX",
"eXeXeXeXeXeXeX}.  - s p / / / &       p / / / s >   +.wXeXeXeXeXeXeX",
"eXeXeXeXeXeXeX<X'.O.& : = = = *.'.'.`.d = = = & e `. XeXeXeXeXeXeXeX",
"eXeXeXeXeXeXeXeXeX'.          XXeXeX9Xr         e wXeXeXeXeXeXeXeXeX"
};
