/* XPM */
static char *up_3__[] = {
/* columns rows colors chars-per-pixel */
"33 40 209 2 ",
"   c #000201",
".  c #010B03",
"X  c #0A0802",
"o  c #050609",
"O  c #0B0909",
"+  c #190E07",
"@  c #130B08",
"#  c #031505",
"$  c #051C07",
"%  c #1C1607",
"&  c #151618",
"*  c #181716",
"=  c #0A1119",
"-  c #24150D",
";  c #25190D",
":  c #371E0F",
">  c #291814",
",  c #361E11",
"<  c #04240C",
"1  c #082C09",
"2  c #072107",
"3  c #1B2406",
"4  c #0A330B",
"5  c #0B3D0B",
"6  c #07360C",
"7  c #0F3D0F",
"8  c #373700",
"9  c #3A2414",
"0  c #111D2B",
"q  c #0D1824",
"w  c #0F2731",
"e  c #232325",
"r  c #372C26",
"t  c #383738",
"y  c #4D301B",
"u  c #6C3C1C",
"i  c #723F1D",
"p  c #49332A",
"a  c #6B3D20",
"s  c #0C420D",
"d  c #14490D",
"f  c #1D4F0C",
"g  c #0D4B13",
"h  c #0B4D1A",
"j  c #0A411A",
"k  c #124C10",
"l  c #144817",
"z  c #0E5215",
"x  c #0E5C1B",
"c  c #0B511A",
"v  c #1B5310",
"b  c #25540C",
"n  c #205712",
"m  c #2C4918",
"M  c #0F641E",
"N  c #0F681F",
"B  c #1B6018",
"V  c #3E680A",
"C  c #27731B",
"Z  c #2E7A1C",
"A  c #286F19",
"S  c #1C4720",
"D  c #125222",
"F  c #32552A",
"G  c #0D6321",
"H  c #0E6D24",
"J  c #116822",
"K  c #0C7325",
"L  c #117526",
"P  c #107C29",
"I  c #197A28",
"U  c #2B7A20",
"Y  c #5E5C01",
"T  c #75411F",
"R  c #41660C",
"E  c #4E5623",
"W  c #465522",
"Q  c #5A562D",
"!  c #744321",
"~  c #784827",
"^  c #685030",
"/  c #6F5325",
"(  c #687E33",
")  c #393B45",
"_  c #00425A",
"`  c #0C6940",
"'  c #315375",
"]  c #2E4F70",
"[  c #086C62",
"{  c #595959",
"}  c #555554",
"|  c #4D4F4C",
" . c #655646",
".. c #615B5A",
"X. c #477156",
"o. c #737D52",
"O. c #5D6268",
"+. c #746F6C",
"@. c #7F7F62",
"#. c #7C7D7C",
"$. c #767676",
"%. c #6F6F70",
"&. c #99731D",
"*. c #87582C",
"=. c #885937",
"-. c #987035",
";. c #A5773A",
":. c #936845",
">. c #A57B43",
",. c #A47B45",
"<. c #2E811F",
"1. c #19842A",
"2. c #298D28",
"3. c #338321",
"4. c #3C9B26",
"5. c #329629",
"6. c #3A9D29",
"7. c #379928",
"8. c #2D9329",
"9. c #3DA129",
"0. c #5EA41A",
"q. c #60A61A",
"w. c #4C8D27",
"e. c #41A529",
"r. c #57B025",
"t. c #69B821",
"y. c #768150",
"u. c #5EA56E",
"i. c #818005",
"p. c #A58216",
"a. c #99AC05",
"s. c #97BE1B",
"d. c #B89833",
"f. c #B69632",
"g. c #AFBD31",
"h. c #DFBD37",
"j. c #C9B127",
"k. c #B7C403",
"l. c #B0D40E",
"z. c #B3D319",
"x. c #BDE00E",
"c. c #92C715",
"v. c #C4C408",
"b. c #D2CE04",
"n. c #D1D802",
"m. c #C8D80A",
"M. c #E7EB01",
"N. c #FCFB01",
"B. c #F9F00B",
"V. c #F6E619",
"C. c #EAF604",
"Z. c #E9CD2F",
"A. c #B08D5C",
"S. c #B89155",
"D. c #A1A443",
"F. c #869465",
"G. c #A5846C",
"H. c #BD9B6D",
"J. c #AC8B72",
"K. c #B48B64",
"L. c #97A770",
"P. c #C5964B",
"I. c #D3A153",
"U. c #E0AF52",
"Y. c #E3B751",
"T. c #C4A06E",
"R. c #C6A470",
"E. c #A5EA5E",
"W. c #047D84",
"Q. c #397E8F",
"!. c #7F7F80",
"~. c #7C8594",
"^. c #00BEFF",
"/. c #848484",
"(. c #8B8A8C",
"). c #999997",
"_. c #839C81",
"`. c #B79F8F",
"'. c #BAA293",
"]. c #ABABAB",
"[. c #B6AEA8",
"{. c #BBBBBC",
"}. c #98A7B6",
"|. c #CBAC87",
" X c #D4B48B",
".X c #DDBE9B",
"XX c #C9B9B1",
"oX c #CFBCA8",
"OX c #E2C296",
"+X c #DACAB8",
"@X c #F0DAB8",
"#X c #FEE5BC",
"$X c #B7C3CE",
"%X c #C5C6C6",
"&X c #CBCBCC",
"*X c #DEDEDE",
"=X c #CFD0D0",
"-X c #E3D7CB",
";X c #E4DAD4",
":X c #FFE8C0",
">X c #EDE5DA",
",X c #F6ECDA",
"<X c #DFDFE0",
"1X c #E3E3E3",
"2X c #EDEBE9",
"3X c #F6F2EC",
"4X c #489848",
"5X c #F6F5F4",
"6X c #F2ECE4",
/* pixels */
"4X4X4X4X4X4X4X4X4X4X4X4X-X~ *.>.>.>.>.;.~ ~ 3X4X4X4X4X4X4X4X4X4X4X",
"4X4X4X4X4X4X4X4X4X4X5X=X[.=.-.d.f.f.f.f.&.;.-X,X>X6X4X4X4X4X4X4X4X",
"4X4X4X4X4X4X4X4X4X4X1Xe 9 I.Z.N.N.N.N.N.B.B.Y.I.>.R.4X4X4X4X4X4X4X",
"4X4X4X4X4X4X4X4X5X{.).r m D.g.x.x.x.x.x.x.x.Z.h.S.T.+X6X4X4X4X4X4X",
"4X4X4X4X4X4X4X4X4X) . 5.e.e.e.9.e.e.9.e.9.r.C.B.U.P.;.oX4X4X4X4X4X",
"4X4X4X4X4X4X4X].y.F n A C C C C C C C C C 3.c.z.Z.h.P.H.'.;X4X4X4X",
"4X4X4X4X4X4X4X{   <.4.g s s s 5 s s s 5 s k 7.t.N.V.U.;.i XX4X4X4X",
"4X4X4X4X4X].{ F h B A <.3.3.3.3.3.U 3.3.<.Z A A q.s.V.j.=.+X4X4X4X",
"4X4X4X4X4X!.  h P g k 4.e.e.e.e.e.e.e.e.e.4.k g K 0.N.h.>.@X4X4X4X",
"4X4X4X4X4X!.  4 z G L 9.e.9.e.e.e.e.e.e.e.7.k s z n R L.>X3X4X4X4X",
"4X4X3X3X5XF.  1 g N I 7.9.9.9.e.e.e.e.e.e.4.v g 5 5 6 u.4X3X2X4X4X",
"4X>XA.H..Xo.5 M K z z I P 1.2.e.e.e.e.e.e.e.4.Z . $ s y..XH.A.>X4X",
"*X+XS.T.OXo.s M P z z x G P 1.7.7.7.9.e.e.9.9.U   # 5 y.OXT.A.+X;X",
"~ =.@X#X:XF.s N 1.P H . $ P 1.P L P 5.e.e.9.1.G . # s F.#X#X#X:.! ",
"G.J.|. XOXy.s N P P K 2 < h x G K P 2.5.8.8.1.G   # s y.OX X|.J.G.",
"4X-X! *.>.Q s N P P K g 6   # s x P P P P P P M   # s Q >.*.! -X4X",
"4X6X'.G.=.X.W.` x x x s 5 2 2 2 4 7 c G L L G g   w [ X.=.J.'.6X4X",
"4X4X4XXX*.Q.^.[ d s s s s s 1       1 g L L g 4   _ ^.Q.~ XX4X4X4X",
"4X4X4X[.- ( E.( y d s s s s 5 1 1 1 $ $ g z s 4   F E.w.- [.4X4X4X",
"4X4X5X].  &.N.p.T m d s s s s s s s #   4 7 s 4   Y N.&.o ].4X4X4X",
"4X4X4X2X%Xy.8 / -.k.k.n s s s s s s 5 1 # . # 3 / / 8 @.%X2X4X4X4X",
"4X4X4X4X4X(.q ^ ;.b.n.V b b f s s s f b 3 %   % -.^ & (.4X4X4X4X4X",
"4X4X4X4X4X3X1X{ X % 8 b.M.M.a.5 s s a.M.M.v.%   O { 1X5X4X4X4X4X4X",
"4X4X4X4X4X1X=X| # . 3 k.n.b.a.R R V a.b.n.k.3 # # | &X1X4X4X4X4X4X",
"4X4X4X4X4X/.O c K g s d 7 X Y N.N.N.Y . 7 d 7 l K c o /.4X4X4X4X4X",
"4X2X].].]...@ X.u.S 4 z g < R l.l.l.R < k z 1 l u.X.q O.].].].2X4X",
"4X&XO     - y [.5Xt . H P P P P P P P P I H . t 5X$X' w     O &X4X",
"/.+.9 , , t ) (.}.e . H P P P P P L P P P H . e '.(.' ) : 9 9 +./.",
"  + i i i | ' ' ] = . H P P P P P P P P K H . + a ^ ' | T ! i +   ",
"  + a =.K. .0 0 0 j D W W E E W E E E E E W h l - > 0  .K.=.u +   ",
"o * a :. X .    . G I / T T ! ! ! ! ! ! ~ ^ I G        . X:.u * o ",
"%X).% - r *   7 x 2.5.w.w.w.w.w.w.w.w.w.w.w.7.2.G 7   + r - - ).%X",
"4X=Xe & & O   j L 5.9.9.e.e.9.e.e.e.e.e.e.e.9.5.L D * * & & e &X4X",
"4X5X;X*X1X%.  . # J 1.9.e.e.e.e.e.e.e.e.e.9.1.J # } 1X1X*X*X>X5X4X",
"4X4X4X4X4X!.  o @ h H 3.3.3.3.3.3.3.3.<.3.3.J c   | =X1X4X4X4X4X4X",
"4X4X4X4X4X!.  , y O   o .   . .     . o . .       o O /.4X4X4X4X4X",
"4X4X4X4X4X].| r > O     & | } } } } *   - - - - + O   !.4X4X4X4X4X",
"4X4X4X4X4X4X4X{         t 3X4X4X4X4X{   y ! i a y ,   !.4X4X4X4X4X",
"4X4X4X4X4X4X4X].$.#.$.$.).5X4X4X4X4X].%.y y 9 : - p !.{.4X4X4X4X4X",
"4X4X4X4X4X4X4X4X4X4X4X4X4X4X4X4X4X4X4X5Xt         { 4X4X4X4X4X4X4X"
};
