/* XPM */
static char *xpm__portal3[] = {
/* columns rows colors chars-per-pixel */
"32 32 94 2 ",
"   c #010101",
".  c #090909",
"X  c #121212",
"o  c #0E1C2A",
"O  c #0C2235",
"+  c #0C263A",
"@  c #0B283E",
"#  c #102233",
"$  c #0A2B43",
"%  c #0B2F49",
"&  c #142E44",
"*  c #0B304B",
"=  c #15334B",
"-  c #0D3653",
";  c #0C3856",
":  c #0C3B5A",
">  c #173750",
",  c #163C59",
"<  c #18415F",
"1  c #0C4163",
"2  c #0C456B",
"3  c #0D486F",
"4  c #144263",
"5  c #144668",
"6  c #0E4A72",
"7  c #104E76",
"8  c #184C71",
"9  c #114F78",
"0  c #13527C",
"q  c #1B537B",
"w  c #165682",
"e  c #175885",
"r  c #185986",
"t  c #175B88",
"y  c #1A5D8B",
"u  c #1B608E",
"i  c #1D6494",
"p  c #1E6798",
"a  c #1F6A9C",
"s  c #21618E",
"d  c #236592",
"f  c #286A96",
"g  c #226B9D",
"h  c #2A6C99",
"j  c #236EA1",
"k  c #2572A6",
"l  c #2872A5",
"z  c #2675AB",
"x  c #2A76AA",
"c  c #2778AF",
"v  c #2979AF",
"b  c #377AA5",
"n  c #387BA6",
"m  c #397DA9",
"M  c #2A7BB3",
"N  c #2C7FB9",
"B  c #2D82BC",
"V  c #3281B7",
"C  c #3E84B1",
"Z  c #3485BC",
"A  c #3886BA",
"S  c #3888BD",
"D  c #4184AF",
"F  c #4386B0",
"G  c #458BB7",
"H  c #4D90BA",
"J  c #2F87C3",
"K  c #3187C2",
"L  c #3189C5",
"P  c #3A8FC7",
"I  c #338ECC",
"U  c #3690CE",
"Y  c #3B93CE",
"T  c #3D94D0",
"R  c #4593C5",
"E  c #4A96C6",
"W  c #4296CD",
"Q  c #4598CF",
"!  c #4E9CCE",
"~  c #5599C2",
"^  c #599DC6",
"/  c #529ECE",
"(  c #4196D0",
")  c #4B9BD0",
"_  c #519FD2",
"`  c #56A1CF",
"'  c #5CA3CE",
"]  c #55A1D0",
"[  c #5DA5D1",
"{  c #61A6CF",
"}  c #61A6D0",
"|  c #65A9D1",
" . c #69ABD2",
".. c None",
/* pixels */
"................................................................",
"..........................} [ } } [ } [ [ ......................",
"......................| ' S Z Z Z Z S U W ] } ..................",
"..................) ! G b y y e e e t g z x S ) | ..............",
"................Y Q ~ h r w 0 6 e w 7 0 w w g K / | ............",
"............Y Y ' G s e w 6 w i j i 6 3 7 e t u B W { ..........",
"..........Y ) ! m f w t r 6 w i : 1 0 0 0 w w r p x W `  .......",
"..........I / ^ d y a B B 6 1 1 5 q g g k u y r w g I / | ......",
"..........U ! ^ s j I c i 7 ; * q 8 * 1 9 p u e e i L ) | ......",
"..........] C f e j I y 3 3 ; $ @ $ % : 3 3 9 e e y d V ( } ....",
"......I W } n e g M I y 3 3 : $ + + $ 0 p p e 6 w t e c Y '  ...",
"......I W } n y B I I u 2 - % @ o = u q 0 u j c y e e M T '  ...",
"......I T } n e u z I y 1 $ O o o # & $ % 2 u M j d e c Y ]  ...",
"......I ( } n e r y a k i - + o o o o + % 2 6 7 B B t c T '  ...",
"......I W } m e r 0 6 z B d 4 o o o o + % 2 6 7 N J t M Y '  ...",
"......I Y } m e r 0 6 6 3 - + o o o o + % 2 6 6 N B t c T '  ...",
"......I W { n e t 0 6 6 2 % $ O o > f 4 * 2 6 6 M N t c T ' | ..",
"......I W } n w r 0 6 6 2 2 - $ O , l d e 6 3 6 a j t c Y [  ...",
"........) ' m y t w 0 6 6 6 : $ $ % $ j K 9 7 0 g g t M Y [  ...",
"..........W E H d e t 6 2 6 ; $ $ * 4 g M 9 0 e w i B E [ ......",
"..........I _ ' d e e i i 6 1 ; % 8 L i 6 6 0 e r d I / | ......",
"..........I ) ^ h y t d i 6 i c g d y 0 6 0 w t y g U _ | ......",
"............( T ^ F r e w 6 i c e 7 3 3 6 r r e M Y '  .........",
".............._ ) R F d r 0 6 6 6 6 6 9 0 r i M R ] ............",
"................Y ) ` n d t e w w w w y i i M W [  .............",
"....................( ! R x k l l k k Z I E / | ................",
"........................../ _ / _ / _ / / ......................",
"................................................................",
"................................................................",
"................................................................",
"......................X .                 . ....................",
".........................                 . ...................."
};
