/* XPM */
static char *xpm__portal2[] = {
/* columns rows colors chars-per-pixel */
"32 32 76 1 ",
"  c black",
". c #0E1D2B",
"X c #0D2132",
"o c #0B263A",
"O c #0B293F",
"+ c #0A2B43",
"@ c #0A2F49",
"# c #0B314C",
"$ c #0C3551",
"% c #0C3C5C",
"& c #123F5E",
"* c #0C3F61",
"= c #0C4063",
"- c #0C466C",
"; c #0D486F",
": c #144465",
"> c #104568",
", c #134A6F",
"< c #0E4A72",
"1 c #114E76",
"2 c #184C71",
"3 c #114F78",
"4 c #13527C",
"5 c #155681",
"6 c #175885",
"7 c #185986",
"8 c #1A5D8A",
"9 c #1B608E",
"0 c #1D6393",
"q c #1F6798",
"w c #1F689A",
"e c #20628E",
"r c #226695",
"t c #296A97",
"y c #216A9C",
"u c #2C6F9A",
"i c #2E709C",
"p c #226EA2",
"a c #2470A5",
"s c #2675AA",
"d c #377AA5",
"f c #387BA6",
"g c #3C7EA9",
"h c #2B7DB5",
"j c #2B7FB9",
"k c #307FB4",
"l c #3D80AB",
"z c #2D81BB",
"x c #3C84B2",
"c c #3585BC",
"v c #3A8ABF",
"b c #4487B2",
"n c #4488B4",
"m c #498FBC",
"M c #4990BE",
"N c #2F86C2",
"B c #3087C2",
"V c #3289C5",
"C c #3C8BC0",
"Z c #338ECB",
"A c #3791CE",
"S c #3A92CD",
"D c #4691C1",
"F c #4B95C3",
"G c #4596CA",
"H c #4799CE",
"J c #4A9ACE",
"K c #519DCC",
"L c #4599D0",
"P c #519FD0",
"I c #56A1CF",
"U c #5BA2CE",
"Y c #5DA4D0",
"T c #62A6CF",
"R c #62A7D0",
"E c None",
/* pixels */
"EEEEEEEEEEEEEEEEEEEEEEEEEEEEEEEE",
"EEEEEEEEEEUGGGGGGHPREEEEEEEEEEEE",
"EEEEEEEEGFnrq000yjcCKREEEEEEEEEE",
"EEEEEEAGUi7744444880VJREEEEEEEEE",
"EEEEEAPMi941<<;;<158qkLUEEEEEEEE",
"EEEESHMf665;;384;;466whJYEEEEEEE",
"EEEZGTt76411whNspa83678VHREEEEEE",
"EEEZHUt666qzhy:&2hp6668VHREEEEEE",
"EEEJDgr67jBp=@+O@;pN878pcKYEEEEE",
"EESYb6667hs<$+O+#;563476pAUTEEEE",
"EESYb66yV81%#o.o@%-;<366aAYREEEE",
"EESYb680q3*+oX..o+%<3566aAUREEEE",
"EEAYn8ja;<=+X....+%3ppq6aAITEEEE",
"EEAYn8pq<<=+X....+%<<pN0pAUREEEE",
"EESYn660h5*+X....O%<;pV0pAUREEEE",
"EESYb56pZ8*+o...X+%;;pV0aAUTEEEE",
"EEAYb76yNhy>$o.+$%-;;wV0pAIREEEE",
"EESYb6776szN7::701<<8pj8pAYREEEE",
"EEEJMge66<5yck8&#-<5cs8acJYEEEEE",
"EEEZHUt6664>,:+@$;9ay08BHREEEEEE",
"EEEAHUt78paq4*@28<35668BHTEEEEEE",
"EEEESGMf6660ypr08<466yhJIEEEEEEE",
"EEEEEAIMi85<455<<<56qkHUEEEEEEEE",
"EEEEEEZGUi8643434880BHTEEEEEEEEE",
"EEEEEEEEGDxq0000yzcCKUEEEEEEEEEE",
"EEEEEEEEEESGDGGGGHJYEEEEEEEEEEEE",
"EEEEEEEEEEEEEEEEEEEEEEEEEEEEEEEE",
"EEEEEEEEEEEEEEEEEEEEEEEEEEEEEEEE",
"EEEEEEEEEEEEEEEEEEEEEEEEEEEEEEEE",
"EEEEEEEEEEEEEEEEEEEEEEEEEEEEEEEE",
"EEEEEEEEEEE       EEEEEEEEEEEEEE",
"EEEEEEEEEEE       EEEEEEEEEEEEEE"
};
