/* XPM */
static char *up_static[] = {
/* columns rows colors chars-per-pixel */
"32 32 191 2 ",
"   c #010101",
".  c #030A04",
"X  c #0A0907",
"o  c #190E0B",
"O  c #140B06",
"+  c #021307",
"@  c #0C150A",
"#  c #151008",
"$  c #181709",
"%  c #2E1B15",
"&  c #251C15",
"*  c #2E1911",
"=  c #052A0E",
"-  c #05250B",
";  c #0D2710",
":  c #073B14",
">  c #1E3414",
",  c #2F271F",
"<  c #3E2313",
"1  c #3D2B18",
"2  c #362F26",
"3  c #382E22",
"4  c #343028",
"5  c #462716",
"6  c #58321B",
"7  c #542E19",
"8  c #67391C",
"9  c #4C3729",
"0  c #4D3A31",
"q  c #683B22",
"w  c #134D0F",
"e  c #084217",
"r  c #0D501B",
"t  c #16561A",
"y  c #274C1C",
"u  c #32551D",
"i  c #345829",
"p  c #0C6321",
"a  c #116822",
"s  c #0D7B29",
"d  c #0E7126",
"f  c #1C7827",
"g  c #1E6F32",
"h  c #296D27",
"j  c #256E27",
"k  c #237822",
"l  c #367828",
"z  c #277C31",
"x  c #327B37",
"c  c #346F29",
"v  c #4A421D",
"b  c #74411F",
"n  c #5C4D3C",
"m  c #57412E",
"M  c #6C4620",
"N  c #694821",
"B  c #744522",
"V  c #794A25",
"C  c #635520",
"Z  c #72513E",
"A  c #536124",
"S  c #677F32",
"D  c #003144",
"F  c #1B2F43",
"G  c #35526C",
"H  c #55474C",
"J  c #7E5A43",
"K  c #5F5769",
"L  c #605A65",
"P  c #6B6866",
"I  c #736A68",
"U  c #8E651B",
"Y  c #90671D",
"T  c #86572B",
"R  c #865B34",
"E  c #866335",
"W  c #936539",
"Q  c #997B3C",
"!  c #8F773D",
"~  c #A67E3E",
"^  c #A17837",
"/  c #8A5E40",
"(  c #8F6441",
")  c #966844",
"_  c #9D7348",
"`  c #906C53",
"'  c #A37841",
"]  c #8D7A61",
"[  c #1B8529",
"{  c #228B29",
"}  c #2A8B28",
"|  c #278425",
" . c #368722",
".. c #398A22",
"X. c #29932A",
"o. c #26912A",
"O. c #2E8438",
"+. c #3C9B27",
"@. c #3DA129",
"#. c #4C9C1F",
"$. c #4E8F27",
"%. c #508126",
"&. c #449420",
"*. c #4B9E2C",
"=. c #678032",
"-. c #4EA32A",
";. c #56AE25",
":. c #51A728",
">. c #9E8F16",
",. c #B79C14",
"<. c #A6B817",
"1. c #93813E",
"2. c #85893A",
"3. c #AC882F",
"4. c #AC9E2F",
"5. c #BA9D2A",
"6. c #AC853C",
"7. c #BA9B31",
"8. c #B69435",
"9. c #B4A92A",
"0. c #C3BF1F",
"q. c #C5AA28",
"w. c #CDB527",
"e. c #D3BC24",
"r. c #D5B234",
"t. c #DAC91B",
"y. c #CBC70B",
"u. c #E5D813",
"i. c #F0DE1E",
"p. c #F4ED07",
"a. c #E7F305",
"s. c #EDF503",
"d. c #FFFE01",
"f. c #F7F307",
"g. c #EEE213",
"h. c #F6EA14",
"j. c #EDE40E",
"k. c #E3C82E",
"l. c #F2DA25",
"z. c #EBCE30",
"x. c #9A8345",
"c. c #9C8057",
"v. c #AB8349",
"b. c #B58943",
"n. c #BC9449",
"m. c #AD8457",
"M. c #B58F5F",
"N. c #BB945D",
"B. c #B2A15A",
"V. c #AD8660",
"C. c #B58F6A",
"Z. c #BA9664",
"A. c #C49647",
"S. c #C08E47",
"D. c #D8A84E",
"F. c #D5A84A",
"G. c #E2B846",
"H. c #C19D76",
"J. c #C9A67C",
"K. c #A5DF56",
"L. c #A7E157",
"P. c #2F519D",
"I. c #0BB5F2",
"U. c #B8B5B5",
"Y. c #A9B6A4",
"T. c #C3AD84",
"R. c #CBAA83",
"E. c #D0AC85",
"W. c #C6B185",
"Q. c #D5B38A",
"!. c #DDBE95",
"~. c #BCD1BD",
"^. c #DFC29C",
"/. c #E3C59C",
"(. c #E4C7A0",
"). c #EDCFA5",
"_. c #E1CEA6",
"`. c #EDD1A8",
"'. c #F2D5AC",
"]. c #F5DCB5",
"[. c #FDE4BB",
"{. c #FFE8BF",
"}. c #9BA8C7",
"|. c #BBC7D5",
" X c #C3CBC0",
".X c #E1D6C7",
"XX c #FDE9C6",
"oX c #FFF1D6",
"OX c #F2EDEA",
"+X c #FBF5EC",
"@X c #489848",
/* pixels */
"@X@X@X@X@X@X@X@X@X@X@X  e s s s s s s :   @X@X@X@X@X@X@X@X@X@X@X",
"@X@X@X@X@X@X@X@X@X@X@X+ r [ [ [ [ [ [ r + @X@X@X@X@X@X@X@X@X@X@X",
"@X@X@X@X@X@X@X@X@X  = d } @.@.@.@.@.@.} d =   @X@X@X@X@X@X@X@X@X",
"@X@X@X@X@X@X@X  + r p [ [ [ [ [ [ [ [ [ s p r +   @X@X@X@X@X@X@X",
"@X@X@X@X@X@X@X= : [ { [ [ { { { { { [ { { { [ : = @X@X@X@X@X@X@X",
"@X@X@X@X@X  . a [ -.:.;.;.;.-.*.-.-.;.-.-.*.-.[ a .   @X@X@X@X@X",
"@X@X@X@X@X  . | *._ 9.a.a.a.4.! Q 4.a.y.x.x.1.-.| .   @X@X@X@X@X",
"@X@X@X@X  : r S 2.' q.d.u.q.t.t.v.5.d.j.t.8._ 2.S r :   @X@X@X@X",
"@X@X@X0 o y l 6.b.q.e.h.e.5.t.u.q.r.h.i.u.e.7.6.! c y o 6 @X@X@X",
"^ m.Q.M.V V V A.G.f.l.D.i.f.7.6.f.h.D.A.v.t.p.8.^ V q T M.Q.m.^ ",
"V _ ].'./.N.^ u.g.8.w.h.e.8.' 6.f.g.6.A.J.n.7.u.u.Q M./.'.]._ V ",
"@X( C.E.).m.T w.w.A.e.d.u.e.F.A.,.4.Z.E.`.Z.~ k.k.~ H./.E.C.( @X",
"@X@X8 ] Y.x.U W ' D.z.h.h.g.r.b.R _ !.`.[.J.v.A.A.7.B.Y.] q @X@X",
"@X@X@X@XI.L.p.U R D.D.D.n.6.T R J.!.].[.[./.J.R Y f.L.I.@X@X@X@X",
"@X@X@X@XD <.d.3.R 1 N b.W T m.H.`.'./.H._ 0 3 R 3.d.<.D @X@X@X@X",
"@X@X@X@X  >.l.^ ( P P P Z b J._.[._.V.` H L P R ^ l.>.  @X@X@X@X",
"@X@X@X@X  E n.b J OX|.P.K E ^.{.XX^./ L P.|.OXJ B n.E   @X@X@X@X",
"@X@X@X@X@X# # X 4 ].U.P.}.OXXX{.[.XXOX}.P.U.].4 X # # @X@X@X@X@X",
"@X@X@X@X@X@X@X. & Z.T.U..XoXXX{.[.XXoX.XU.T.Z.&   @X@X@X@X@X@X@X",
"@X@X@X@X@X@X@X= > R m.Q.(.'.'.'.'.'.'./.Q.v.E > - @X@X@X@X@X@X@X",
"@X@X@X@X@X. X g x N M M c.W.J.W.T.T.W.m.N M N l g X   @X@X@X@X@X",
"@X@X@X@X. F G |.~.y t f z O.O.O.O.O.O.z f t y ~. X9 %   @X@X@X@X",
"@X@X  * 5 0 H P P 9 u d s s s s s s s s d u 9 P P q 7 5 *   @X@X",
"@X@X  1 E ) W $ $ C A h h h ..#.&.&.h h h A C @ $ / ) R 1   @X@X",
"@X@X  n R.(._.i w +.S N M N y.s.s.y.M N N %.@.w i _.(.R.n   @X@X",
"@X@X@X& , 4 4 @ - f [ $.l j  .#.#...j l $.} f @ @ 4 2 , & @X@X@X",
"@X@X@X@X        . : p X.X.o.o.o.o.o.} X.X.p : .         @X@X@X@X",
"@X@X@X@X@X@X@XO O O ; p k .. . . . . .k a ; X O O @X@X@X@X@X@X@X",
"@X@X@X@X@X  . 6 8 7 % . . . . . . . . . . % 5 q 6     @X@X@X@X@X",
"@X@X@X@X@X    8 B 8 6 % o . @X@X@X@X  o % 7 q V 8 X   @X@X@X@X@X",
"@X@X@X@X@X@X  5 5 5 5 % o   @X@X@X@X  o % 5 5 5 <   @X@X@X@X@X@X",
"@X@X@X@X@X@X@X          @X@X@X@X@X@X@X@X          @X@X@X@X@X@X@X"
};
