/* XPM */
static char *left_static[] = {
/* columns rows colors chars-per-pixel */
"32 32 189 2 ",
"   c #010101",
".  c #020A03",
"X  c #0A0905",
"o  c #0C0606",
"O  c #130807",
"+  c #1A0C08",
"@  c #031305",
"#  c #051C09",
"$  c #071A07",
"%  c #1E180B",
"&  c #1D1714",
"*  c #321C0F",
"=  c #251612",
"-  c #361E14",
";  c #351F18",
":  c #27160B",
">  c #05240D",
",  c #062B0F",
"<  c #082B09",
"1  c #0B2408",
"2  c #18270D",
"3  c #0C3D0C",
"4  c #0C340B",
"5  c #072F10",
"6  c #083713",
"7  c #163B10",
"8  c #27230C",
"9  c #302E00",
"0  c #372E0E",
"q  c #333101",
"w  c #262718",
"e  c #362816",
"r  c #243119",
"t  c #382E24",
"y  c #3A3D22",
"u  c #363937",
"i  c #4B291F",
"p  c #452716",
"a  c #43311E",
"s  c #54381A",
"d  c #6B3C1F",
"f  c #4F2C20",
"g  c #563820",
"h  c #473D31",
"j  c #6C3D21",
"k  c #0D450E",
"l  c #11490F",
"z  c #0D4911",
"x  c #084918",
"c  c #164811",
"v  c #0C5215",
"b  c #0E5B1A",
"n  c #0E5817",
"m  c #135615",
"M  c #235414",
"N  c #24451B",
"B  c #0E641E",
"V  c #196319",
"C  c #236817",
"Z  c #29751C",
"A  c #2E4F21",
"S  c #225E25",
"D  c #0E6B22",
"F  c #0F7124",
"G  c #0F7929",
"H  c #117425",
"J  c #117629",
"K  c #107C29",
"L  c #197B2C",
"P  c #166A21",
"I  c #306C26",
"U  c #484617",
"Y  c #50441D",
"T  c #545401",
"R  c #427E17",
"E  c #594837",
"W  c #524B29",
"Q  c #654728",
"!  c #754323",
"~  c #784E21",
"^  c #634E30",
"/  c #6A5633",
"(  c #705730",
")  c #517B2B",
"_  c #636423",
"`  c #003955",
"'  c #245F74",
"]  c #564A55",
"[  c #645950",
"{  c #5C7746",
"}  c #786853",
"|  c #615C67",
" . c #617266",
".. c #9A7616",
"X. c #84532A",
"o. c #905E2D",
"O. c #865F34",
"+. c #9C6E39",
"@. c #936E39",
"#. c #A47B3F",
"$. c #9D7554",
"%. c #8A6243",
"&. c #A0754F",
"*. c #A57C5A",
"=. c #1B8429",
"-. c #2A8E28",
";. c #378A23",
":. c #3A9725",
">. c #3D9F29",
",. c #379626",
"<. c #2A9129",
"1. c #3DA229",
"2. c #5A8725",
"3. c #41A429",
"4. c #4CA321",
"5. c #59AA23",
"6. c #60AE20",
"7. c #708250",
"8. c #8FBE12",
"9. c #BDBC00",
"0. c #8D8839",
"q. c #B7982B",
"w. c #AC843E",
"e. c #AD8939",
"r. c #BB9C32",
"t. c #BB993B",
"y. c #B38C3D",
"u. c #93A23E",
"i. c #BEA02F",
"p. c #C8B50D",
"a. c #C49D3F",
"s. c #C4A92A",
"d. c #CDB526",
"f. c #C5A635",
"g. c #DFBF35",
"h. c #E1BA3F",
"j. c #89C31D",
"k. c #D7C61B",
"l. c #DAD215",
"z. c #E6DA11",
"x. c #EDEB03",
"c. c #E2EF07",
"v. c #F8F705",
"b. c #EBE111",
"n. c #F8EC14",
"m. c #E7CA30",
"M. c #F1E533",
"N. c #9F9A42",
"B. c #B68947",
"V. c #BB9346",
"C. c #B58F5E",
"Z. c #AD834D",
"A. c #888F72",
"S. c #B49775",
"D. c #B18E67",
"F. c #81AB6D",
"G. c #B1A275",
"H. c #CB9B4C",
"J. c #D7AD41",
"K. c #D6A64C",
"L. c #D4B244",
"P. c #C19C77",
"I. c #D5B778",
"U. c #C9A571",
"Y. c #E5D059",
"T. c #FFF641",
"R. c #127699",
"E. c #536697",
"W. c #68C8DB",
"Q. c #8B8883",
"!. c #BDA481",
"~. c #BEB0AE",
"^. c #C7AA84",
"/. c #CBAD8A",
"(. c #C3B091",
"). c #DCBC92",
"_. c #C8BBB3",
"`. c #E4C59C",
"'. c #F3D7AD",
"]. c #F7DEB6",
"[. c #E8CFA9",
"{. c #FDE5BC",
"}. c #8A9DC9",
"|. c #B9D9C1",
" X c #BFE0C8",
".X c #FFE8C2",
"XX c #FFEFD1",
"oX c #FFFDF7",
"OX c #489848",
/* pixels */
"OXOXOXOXOXOXOXOXOXOXOXOXOXOXOXOXOXOXOXOXOXOXOXOXOXOXOXOXOXOXOXOX",
"OXOXOXOXOXOX+.! I D c :.3.3.3.=.OXOXOXOXOXOXOXOXOXOXOXOXOXOXOXOX",
"OXOXOXOXOXf.q...R H k ,.3.3.3.-.=.OXOXOXOXOXOXOXOXOXOXOXOXOXOXOX",
"OXOXOXw.H.m.v.v.j.;.l ;.3.3.3.3.,.K K OXOXOXOXOXOXOXOXOXOXOXOXOX",
"OXOXq.z.H.y.r.h.K.u.;.C Z 3.3.3.1.,.=.b k OXOXOXOXOXOXOXOXOXOXOX",
"OXs.d.k.t.B.Z.m.h.u.:.l Z 3.3.3.1.<.K D n OXOXOXOXOXOXOXOXOXOXOX",
"&.k.z.B.H.V.t.v.s.0.5.V Z :.:.:.-.K K K F k OXOXOXOXOXOXOXOXOXOX",
"! p.n.K.o.&.I.v.s.r.c.6.Z l l l b K K K D k OXOXOXOXOXOXOXOXOXOX",
"OXq.q.+.*.!./.s.y.r.v.4.P k D B D K K K H D z OXOXOXOXOXOXOXOXOX",
"OXOXO.s S.).).C.a.d.l.2.S b D H H D D H K K n k OXOXOXOXOXOXOXOX",
"OXOXOXo D.).[.(.M.z.#.#.) F z F B k 3 b K G v 3 OXOXOXOXOXOXOXOX",
"OXOXOXo ^ g E [.T.z.#.X.U v D B k k @ < n G 5 . OXOXOXOXOXOXOXOX",
"OXOXw [ ] | Q.].Y.d.H.! ( } 7.F.{ 3 . > z b #   OXOXOXOXOXOXOXOX",
"OX  t (.E.}.oX.XS.w.h.~ Z.`.{.{.G.4 . $ 3 z @   OXOXOXOXOXOXOXOX",
"OX  t !.E.}.oX.X*...x.q } .X.XU.( . OX  # D >   OXOXOXOXOXOXOXOX",
"OXOX= W *._.XXXX*...x.q ' W.G.^ %   OX  @ z $   OXOXOXOXOXOXOXOX",
"OXOXOXX } !.'.'.$...x.q ` R./ Y s T OXOX. < @ OXOXOXOXOXOXOXOXOX",
"OXOXOXOX  E ^.^.%...x.q   . . O.g.v.OXOXOX  OXOXOXOXOXOXOXOXOXOX",
"OXOXOXOXOX& w A 2 s g.= 5 B 3 2 0 OXOXOXOXOXOXOXOXOXOXOXOXOXOXOX",
"OXOXOXOXOX> x b x N ^ p r 6 b > . OXOXOXOXOXOXOXOXOXOXOXOXOXOXOX",
"OXOXOXOX9 M K K D x # Y e @ F >   OXOXOXOXOXOXOXOXOXOXOXOXOXOXOX",
"OXOXOXX 9.8.J K 5 > J L 7 @ F ,   OXOXOXOXOXOXOXOXOXOXOXOXOXOXOX",
"OXOXOX. R 2.W W % u |. X .  y t =   OXOXOXOXOXOXOXOXOXOXOXOXOXOX",
"OXOXOX. P R _ _ 2 u ~._.| o p y r   OXOXOXOXOXOXOXOXOXOXOXOXOXOX",
"OXOXOX. Z 3.3.3.7 + f f = o a S x   OXOXOXOXOXOXOXOXOXOXOXOXOXOX",
"OXOXOXOX@ M 1.L 5 + d j - $ ;.7 . OXOXOXOXOXOXOXOXOXOXOXOXOXOXOX",
"OXOXOXOXOX2 c 6 @ t S.D.g X c 2 OXOXOXOXOXOXOXOXOXOXOXOXOXOXOXOX",
"OXOXOXOXOXO + O O h (.S.E     OXOXOXOXOXOXOXOXOXOXOXOXOXOXOXOXOX",
"OXOXOXOX  * d i f ; o o   . OXOXOXOXOXOXOXOXOXOXOXOXOXOXOXOXOXOX",
"OXOXOXOX  * ! j f ;       OXOXOXOXOXOXOXOXOXOXOXOXOXOXOXOXOXOXOX",
"OXOXOXOXOX: p p - =     OXOXOXOXOXOXOXOXOXOXOXOXOXOXOXOXOXOXOXOX",
"OXOXOXOXOXOX        OXOXOXOXOXOXOXOXOXOXOXOXOXOXOXOXOXOXOXOXOXOX"
};
