/* XPM */
static char *right_static[] = {
/* columns rows colors chars-per-pixel */
"32 32 189 2 ",
"   c #010101",
".  c #020A03",
"X  c #0A0905",
"o  c #0C0606",
"O  c #130807",
"+  c #1A0C08",
"@  c #031305",
"#  c #051C09",
"$  c #071A07",
"%  c #1E180B",
"&  c #1D1714",
"*  c #321C0F",
"=  c #251612",
"-  c #361E14",
";  c #351F18",
":  c #27160B",
">  c #05240D",
",  c #062B0F",
"<  c #082B09",
"1  c #0B2408",
"2  c #18270D",
"3  c #0C3D0C",
"4  c #0C340B",
"5  c #072F10",
"6  c #083713",
"7  c #163B10",
"8  c #27230C",
"9  c #302E00",
"0  c #372E0E",
"q  c #333101",
"w  c #262718",
"e  c #362816",
"r  c #243119",
"t  c #382E24",
"y  c #3A3D22",
"u  c #363937",
"i  c #4B291F",
"p  c #452716",
"a  c #43311E",
"s  c #54381A",
"d  c #6B3C1F",
"f  c #4F2C20",
"g  c #563820",
"h  c #473D31",
"j  c #6C3D21",
"k  c #0D450E",
"l  c #11490F",
"z  c #0D4911",
"x  c #084918",
"c  c #164811",
"v  c #0C5215",
"b  c #0E5B1A",
"n  c #0E5817",
"m  c #135615",
"M  c #235414",
"N  c #24451B",
"B  c #0E641E",
"V  c #196319",
"C  c #236817",
"Z  c #29751C",
"A  c #2E4F21",
"S  c #225E25",
"D  c #0E6B22",
"F  c #0F7124",
"G  c #0F7929",
"H  c #117425",
"J  c #117629",
"K  c #107C29",
"L  c #197B2C",
"P  c #166A21",
"I  c #306C26",
"U  c #484617",
"Y  c #50441D",
"T  c #545401",
"R  c #427E17",
"E  c #594837",
"W  c #524B29",
"Q  c #654728",
"!  c #754323",
"~  c #784E21",
"^  c #634E30",
"/  c #6A5633",
"(  c #705730",
")  c #517B2B",
"_  c #636423",
"`  c #003955",
"'  c #245F74",
"]  c #564A55",
"[  c #645950",
"{  c #5C7746",
"}  c #786853",
"|  c #615C67",
" . c #617266",
".. c #9A7616",
"X. c #84532A",
"o. c #905E2D",
"O. c #865F34",
"+. c #9C6E39",
"@. c #936E39",
"#. c #A47B3F",
"$. c #9D7554",
"%. c #8A6243",
"&. c #A0754F",
"*. c #A57C5A",
"=. c #1B8429",
"-. c #2A8E28",
";. c #378A23",
":. c #3A9725",
">. c #3D9F29",
",. c #379626",
"<. c #2A9129",
"1. c #3DA229",
"2. c #5A8725",
"3. c #41A429",
"4. c #4CA321",
"5. c #59AA23",
"6. c #60AE20",
"7. c #708250",
"8. c #8FBE12",
"9. c #BDBC00",
"0. c #8D8839",
"q. c #B7982B",
"w. c #AC843E",
"e. c #AD8939",
"r. c #BB9C32",
"t. c #BB993B",
"y. c #B38C3D",
"u. c #93A23E",
"i. c #BEA02F",
"p. c #C8B50D",
"a. c #C49D3F",
"s. c #C4A92A",
"d. c #CDB526",
"f. c #C5A635",
"g. c #DFBF35",
"h. c #E1BA3F",
"j. c #89C31D",
"k. c #D7C61B",
"l. c #DAD215",
"z. c #E6DA11",
"x. c #EDEB03",
"c. c #E2EF07",
"v. c #F8F705",
"b. c #EBE111",
"n. c #F8EC14",
"m. c #E7CA30",
"M. c #F1E533",
"N. c #9F9A42",
"B. c #B68947",
"V. c #BB9346",
"C. c #B58F5E",
"Z. c #AD834D",
"A. c #888F72",
"S. c #B49775",
"D. c #B18E67",
"F. c #81AB6D",
"G. c #B1A275",
"H. c #CB9B4C",
"J. c #D7AD41",
"K. c #D6A64C",
"L. c #D4B244",
"P. c #C19C77",
"I. c #D5B778",
"U. c #C9A571",
"Y. c #E5D059",
"T. c #FFF641",
"R. c #127699",
"E. c #536697",
"W. c #68C8DB",
"Q. c #8B8883",
"!. c #BDA481",
"~. c #BEB0AE",
"^. c #C7AA84",
"/. c #CBAD8A",
"(. c #C3B091",
"). c #DCBC92",
"_. c #C8BBB3",
"`. c #E4C59C",
"'. c #F3D7AD",
"]. c #F7DEB6",
"[. c #E8CFA9",
"{. c #FDE5BC",
"}. c #8A9DC9",
"|. c #B9D9C1",
" X c #BFE0C8",
".X c #FFE8C2",
"XX c #FFEFD1",
"oX c #FFFDF7",
"OX c #489848",
/* pixels */
"OXOXOXOXOXOXOXOXOXOXOXOXOXOXOXOXOXOXOXOXOXOXOXOXOXOXOXOXOXOXOXOX",
"OXOXOXOXOXOXOXOXOXOXOXOXOXOXOXOX=.3.3.3.,.l D I ! +.OXOXOXOXOXOX",
"OXOXOXOXOXOXOXOXOXOXOXOXOXOXOX=.<.3.3.3.;.l H I ..q.f.OXOXOXOXOX",
"OXOXOXOXOXOXOXOXOXOXOXOXOXK K ,.3.3.3.3.:.l ;.8.v.v.m.H.Z.OXOXOX",
"OXOXOXOXOXOXOXOXOXOXOXk b =.,.1.3.3.3.Z V :.u.L.L.r.e.r.z.r.OXOX",
"OXOXOXOXOXOXOXOXOXOXOXn B =.<.>.3.3.3.C l 3.N.h.m.w.B.H.k.d.s.OX",
"OXOXOXOXOXOXOXOXOXOXk F G G K -.:.:.:.Z C 5.0.s.v.V.V.H.B.b.k.+.",
"OXOXOXOXOXOXOXOXOXOXk F G =.K b l l l Z 6.c.r.s.v.I.&.o.K.n.p.! ",
"OXOXOXOXOXOXOXOXOXz D J =.G G D B B l B 4.x.f.y.s.I.S.*.+.a.q.OX",
"OXOXOXOXOXOXOXOXk v K K F B D G K B n S 2.l.d.t.C.).).S.s O.OXOX",
"OXOXOXOXOXOXOXOX3 v G G b k k B B v F ) &.e.z.M.).[.`.D.X OXOXOX",
"OXOXOXOXOXOXOXOX. < G n < @ k k b B v U X.#.z.M.[.E W j   OXOXOX",
"OXOXOXOXOXOXOXOX  $ b z 1 . 3 { F.F.7.( X.H.s.Y.].Q.| ] [ w OXOX",
"OXOXOXOXOXOXOXOX  @ z 3 $ . 5 G.'.{.`.$.~ J.w.P..XoX}.E./.t   OX",
"OXOXOXOXOXOXOXOX  > D #   OX. ( U.{.{.} q x...*..XoX}.E./.t   OX",
"OXOXOXOXOXOXOXOX  $ x @   OX  % / G.W.' 9 x...*..XXX_.A.h = OXOX",
"OXOXOXOXOXOXOXOXOX@ < . OXOXT U Y ^ R.` 9 x...$.'.'.!.} X OXOXOX",
"OXOXOXOXOXOXOXOXOXOX  OXOXOXv.h.@.. .   q x...%.^.^.E   OXOXOXOX",
"OXOXOXOXOXOXOXOXOXOXOXOXOXOXOX0 2 6 B 5 8 L.s 2 A w & OXOXOXOXOX",
"OXOXOXOXOXOXOXOXOXOXOXOXOXOXOX  # b x w p Q A x b k > OXOXOXOXOX",
"OXOXOXOXOXOXOXOXOXOXOXOXOXOXOX  > F @ e Y # x F K =.M 9 OXOXOXOX",
"OXOXOXOXOXOXOXOXOXOXOXOXOXOXOX  > F @ 6 L J > 6 H H j.p.X OXOXOX",
"OXOXOXOXOXOXOXOXOXOXOXOXOXOX  = e y .  . X|.u % W W 2.R . OXOXOX",
"OXOXOXOXOXOXOXOXOXOXOXOXOXOX  r U f   | _.~.u % _ _ I P . OXOXOX",
"OXOXOXOXOXOXOXOXOXOXOXOXOXOX  x S t o : f f O 7 3.3.3.Z o OXOXOX",
"OXOXOXOXOXOXOXOXOXOXOXOXOXOXOX. 7 2.$ * j j + , =.3.M @ OXOXOXOX",
"OXOXOXOXOXOXOXOXOXOXOXOXOXOXOXOX1 c . E D.P.t . 3 c 4 OXOXOXOXOX",
"OXOXOXOXOXOXOXOXOXOXOXOXOXOXOXOXOX    E S.(.h o X O O OXOXOXOXOX",
"OXOXOXOXOXOXOXOXOXOXOXOXOXOXOXOXOXOX    o X ; f i d *   OXOXOXOX",
"OXOXOXOXOXOXOXOXOXOXOXOXOXOXOXOXOXOXOX      ; g d ! *   OXOXOXOX",
"OXOXOXOXOXOXOXOXOXOXOXOXOXOXOXOXOXOXOXOX    : - p p : OXOXOXOXOX",
"OXOXOXOXOXOXOXOXOXOXOXOXOXOXOXOXOXOXOXOXOXOX        OXOXOXOXOXOX"
};
