/* XPM */
static char *down_static[] = {
/* columns rows colors chars-per-pixel */
"32 32 172 2 ",
"   c #010101",
".  c #090404",
"X  c #020903",
"o  c #0E0805",
"O  c #140B06",
"+  c #120A09",
"@  c #021106",
"#  c #051C06",
"$  c #0A1807",
"%  c #111101",
"&  c #17170A",
"*  c #161311",
"=  c #181613",
"-  c #27160E",
";  c #311B0D",
":  c #2C1810",
">  c #251D19",
",  c #231310",
"<  c #381F10",
"1  c #381F18",
"2  c #06270B",
"3  c #0B2509",
"4  c #062C0C",
"5  c #132F0D",
"6  c #0A360C",
"7  c #0A390A",
"8  c #13310B",
"9  c #062E10",
"0  c #0F2A11",
"q  c #063713",
"w  c #083E14",
"e  c #23230D",
"r  c #262012",
"t  c #2E2214",
"y  c #3C2113",
"u  c #3A261A",
"i  c #233315",
"p  c #3B3313",
"a  c #132232",
"s  c #402F1A",
"d  c #423C1A",
"f  c #51321F",
"g  c #6B3B1C",
"h  c #673C1E",
"j  c #713E1E",
"k  c #5B392D",
"l  c #663D22",
"z  c #6B3E22",
"x  c #0D450D",
"c  c #0D4B12",
"v  c #094618",
"b  c #0A4310",
"n  c #144C13",
"m  c #1E4913",
"M  c #0C531A",
"N  c #0C5B1C",
"B  c #165513",
"V  c #175618",
"C  c #294B1E",
"Z  c #0F651E",
"A  c #1E6417",
"S  c #18691C",
"D  c #21651A",
"F  c #276E1A",
"G  c #2D7D1E",
"H  c #26711A",
"J  c #095A38",
"K  c #3C4C29",
"L  c #0E6B21",
"P  c #0E6824",
"I  c #116D21",
"U  c #0F7225",
"Y  c #0F7728",
"T  c #0F7B29",
"R  c #107425",
"E  c #107C29",
"W  c #1B7328",
"Q  c #3D6039",
"!  c #5B5E03",
"~  c #6F5F13",
"^  c #485823",
"/  c #585F27",
"(  c #564636",
")  c #6D4C21",
"_  c #754321",
"`  c #7A4D26",
"'  c #7A5E2D",
"]  c #4F642E",
"[  c #526D25",
"{  c #547223",
"}  c #576F3D",
"|  c #273847",
" . c #617B4A",
".. c #6C6251",
"X. c #475B72",
"o. c #8F651F",
"O. c #88582B",
"+. c #8D5F3D",
"@. c #8B6534",
"#. c #866435",
"$. c #966A38",
"%. c #A37A3E",
"&. c #986C49",
"*. c #A37A42",
"=. c #A07B55",
"-. c #2E811F",
";. c #34851E",
":. c #1F8729",
">. c #248C29",
",. c #338E23",
"<. c #348728",
"1. c #398F24",
"2. c #3C9425",
"3. c #3D9B27",
"4. c #359A29",
"5. c #389927",
"6. c #3DA128",
"7. c #508726",
"8. c #58892D",
"9. c #469B28",
"0. c #489828",
"q. c #4F8633",
"w. c #649831",
"e. c #41A429",
"r. c #53AA2A",
"t. c #7AB22C",
"y. c #749F49",
"u. c #959300",
"i. c #A5841C",
"p. c #AD8930",
"a. c #B18F31",
"s. c #B49235",
"d. c #B99933",
"f. c #B7983A",
"g. c #80BD23",
"h. c #CDBB0C",
"j. c #83C51B",
"k. c #9CCB12",
"l. c #D6D000",
"z. c #DECF17",
"x. c #CBDC11",
"c. c #E4D913",
"v. c #D5E60C",
"b. c #FCF903",
"n. c #F2E517",
"m. c #A8805C",
"M. c #B58E58",
"N. c #B28842",
"B. c #B38B65",
"V. c #B79166",
"C. c #B99360",
"Z. c #AE9672",
"A. c #DEAD50",
"S. c #C1A94B",
"D. c #E3B844",
"F. c #C39F79",
"G. c #C8A573",
"H. c #98E065",
"J. c #298CAA",
"K. c #00ADE7",
"L. c #80B28A",
"P. c #84AB8F",
"I. c #C7AD8A",
"U. c #D5B48B",
"Y. c #DEBE96",
"T. c #C6BEBD",
"R. c #BCC2BA",
"E. c #DECCA8",
"W. c #F8DDB3",
"Q. c #FCE3BA",
"!. c #C2C4CB",
"~. c #489848",
/* pixels */
"~.~.~.~.~.~.~.~.~.~.~.~.~._ $.*.*.*.*.+._ ~.~.~.~.~.~.~.~.~.~.~.",
"~.~.~.~.~.~.~.~.~.~.~.~.` O.p.d.d.s.*.$.` i.~.~.~.~.~.~.~.~.~.~.",
"~.~.~.~.~.~.~.~.~.~.~.  ' A.n.b.b.c.%.*.%.z.b.s.*.~.~.~.~.~.~.~.",
"~.~.~.~.~.~.~.~.~.  5 F 8.t.g.j.j.t.w.w.w.x.b.s.*.*.~.~.~.~.~.~.",
"~.~.~.~.~.~.~.~.~.3 m 2.,.,.,.,.,.,.1.1.,.k.v.f.N.d.a.~.~.~.~.~.",
"~.~.~.~.~.~.~.  $ 2.-.x x x x x x x x c x ;.r.S.D.b.h._ ~.~.~.~.",
"~.~.~.~.~.~.X v N A F <.-.-.G <.;.-.-.-.-.H D 7.8.! ~ $.~.~.~.~.",
"~.~.~.~.~.  X N Z B F e.e.e.e.e.e.e.e.e.e.H B Z N   t *.~.~.~.~.",
"~.~.~.~.~.    7 B 3.e.e.e.e.e.e.e.e.e.e.e.e.3.B 6   X ~.~.~.~.~.",
"~.~.%.C.U.K 4 N Z D G e.e.e.e.e.e.e.e.e.e.G A Z N 4 K U.C.%.~.~.",
"~.~.M.G.Y.} x U U c A e.e.e.e.e.6.e.e.e.e.A c U U b } Y.G.M.~.~.",
"j &.W.Q.Q. .b I T U >.e.e.e.e.e.e.e.e.e.6.>.T T L x  .Q.Q.W.&.j ",
"~.+.=.V.G.] x R Y N I >.4.e.e.e.e.e.e.4.>.S N Y R x ] G.V.=.&.~.",
"~.~.g O.&.] J I Z 7 c T >.5.6.e.e.6.5.>.T c 6 Z L J Q $.O.g ~.~.",
"~.~.~.~._ J.K.J 7 X 4 E E E 5.e.e.4.:.T E 4 X 7 J K.J._ ~.~.~.~.",
"~.~.~.~.; y.H.] p   4 T E E >.>.>.:.T T T 2 . s ] H.y.; ~.~.~.~.",
"~.~.~.~.  u.l.o.l . 4 L U E T T T T E Y U 2 . h o.l.u.  ~.~.~.~.",
"~.~.~.~.~.% & @.#.. # x Z E E T E E E Z x # . #.#.& % ~.~.~.~.~.",
"~.~.~.~.~.~.~.s u   X # M E E E E E E M # X X u s ~.~.~.~.~.~.~.",
"~.~.~.~.~.~.~.@ @ X X   v U U E E Y U w   X X X @ ~.~.~.~.~.~.~.",
"~.~.~.~.~.  X N Z x 2   2 c I E T L c 2   3 x P N X   ~.~.~.~.~.",
"~.~.~.~.  , t P.L.n b v 4 # P E E P # 4 v x n L.P.| a   ~.~.~.~.",
"~.~.~.o O 1 k T.R.C V T q   M R R M   q T V C R.!.X.| O o ~.~.~.",
"~.~.  ; h g h > > h ^ T q   6 n x 6   q T ^ h > > l z h ;   ~.~.",
"~.~.  ( F.B.=.i 8 { [ ^ d y 3 # # & s d ^ { { 8 i =.B.F.(   ~.~.",
"~.~.  ..E.I.Z.C n 6.7.) ) ~ r $ $ e ) ) ) 7.6.x C Z.I.E...  ~.~.",
"~.~.~.* * * * X 2 3.e.0.0.9.2.2.2.2.e.0.9.e.3.3 X * * = * ~.~.~.",
"~.~.~.~.~.    , - C D >.4.6.e.e.e.e.e.5.>.D C > =     ~.~.~.~.~.",
"~.~.~.~.~.  . 1 1 . 0 W <.0.1.1.1.1.0.<.W 0 . 1 1 .   ~.~.~.~.~.",
"~.~.~.~.~.~.~.. + u f ) ) ) - $ $ e ) ) ) f 1 + . ~.~.~.~.~.~.~.",
"~.~.~.~.~.~.~.~.. , ; < < < O ~.~.O < < < : , . ~.~.~.~.~.~.~.~.",
"~.~.~.~.~.~.~.~.~.          ~.~.~.~.          ~.~.~.~.~.~.~.~.~."
};
