/* XPM */
static char *down_1__[] = {
/* columns rows colors chars-per-pixel */
"26 32 216 2 ",
"   c #0D0905",
".  c #070704",
"X  c #1B150A",
"o  c #0D1F10",
"O  c #1D1915",
"+  c #1A1712",
"@  c #091C08",
"#  c #21140E",
"$  c #271C13",
"%  c #0D230D",
"&  c #10210D",
"*  c #092F11",
"=  c #063712",
"-  c #193918",
";  c #37241C",
":  c #1D3625",
">  c #2C2725",
",  c #2D332E",
"<  c #3E352C",
"1  c #3A3838",
"2  c #3C2B23",
"3  c #492B1A",
"4  c #522E1A",
"5  c #55321C",
"6  c #6A3B1D",
"7  c #4C3828",
"8  c #453C35",
"9  c #543524",
"0  c #683B22",
"q  c #15511A",
"w  c #154617",
"e  c #334D1A",
"r  c #14641F",
"t  c #0E601F",
"y  c #2E7B1F",
"u  c #125721",
"i  c #164F24",
"p  c #3A4A3D",
"a  c #39513E",
"s  c #166B21",
"d  c #0C7A27",
"f  c #0E7A27",
"g  c #137C27",
"h  c #127D29",
"j  c #157124",
"k  c #276D27",
"l  c #386C28",
"z  c #247826",
"x  c #2C7D3F",
"c  c #377F34",
"v  c #474319",
"b  c #69511F",
"n  c #535033",
"m  c #664825",
"M  c #694D33",
"N  c #775833",
"B  c #6F5230",
"V  c #58622A",
"C  c #4D7D26",
"Z  c #776437",
"A  c #283749",
"S  c #2F4B53",
"D  c #474B46",
"F  c #47584B",
"G  c #515051",
"H  c #59505C",
"J  c #4A5252",
"K  c #665A54",
"L  c #59714B",
"P  c #63605F",
"I  c #655E62",
"U  c #656B65",
"Y  c #626262",
"T  c #766E68",
"R  c #6C796C",
"E  c #6A7773",
"W  c #767777",
"Q  c #707860",
"!  c #A17E1E",
"~  c #875B2A",
"^  c #875A36",
"/  c #8E692D",
"(  c #8E6533",
")  c #966D38",
"_  c #977A37",
"`  c #93692B",
"'  c #A67C3E",
"]  c #A17E21",
"[  c #886A4B",
"{  c #936944",
"}  c #9C7551",
"|  c #A47E48",
" . c #A47A53",
".. c #887B72",
"X. c #158028",
"o. c #188228",
"O. c #228C29",
"+. c #278726",
"@. c #348D24",
"#. c #378324",
"$. c #2C9329",
"%. c #2F9828",
"&. c #329829",
"*. c #379224",
"=. c #37853A",
"-. c #60A61B",
";. c #4A8322",
":. c #52942D",
">. c #459922",
",. c #6B9533",
"<. c #7DAC27",
"1. c #459745",
"2. c #479847",
"3. c #4A974A",
"4. c #489848",
"5. c #549C52",
"6. c #559056",
"7. c #558F55",
"8. c #5BA25B",
"9. c #6B966A",
"0. c #70997B",
"q. c #6D846E",
"w. c #6AA66A",
"e. c #6AA76A",
"r. c #7EB37D",
"t. c #72AA71",
"y. c #978A17",
"u. c #85BC1F",
"i. c #A0AF13",
"p. c #88863D",
"a. c #A7833D",
"s. c #B18C39",
"d. c #BA9638",
"f. c #B59A2D",
"g. c #BCA12D",
"h. c #C4A92B",
"j. c #C7AA2B",
"k. c #CCB425",
"l. c #D2BB26",
"z. c #C8A731",
"x. c #DCBC35",
"c. c #8FC719",
"v. c #D6C41E",
"b. c #D6C90D",
"n. c #E6D816",
"m. c #E3D70F",
"M. c #D9E707",
"N. c #EDE60C",
"B. c #F4EF09",
"V. c #D9C421",
"C. c #E4CC28",
"Z. c #E6C437",
"A. c #EFDA22",
"S. c #A78543",
"D. c #AD845E",
"F. c #BE9354",
"G. c #B4904D",
"H. c #8B8A77",
"J. c #AB8A67",
"K. c #BC9768",
"L. c #AE9970",
"P. c #BBAC7E",
"I. c #B2AA60",
"U. c #C79A49",
"Y. c #C19C6B",
"T. c #C19D77",
"R. c #C9A87E",
"E. c #CFA04B",
"W. c #A0DA4E",
"Q. c #405B92",
"!. c #787983",
"~. c #5A75AA",
"^. c #817F82",
"/. c #70B5A1",
"(. c #32ACD6",
"). c #838783",
"_. c #9E9D9C",
"`. c #969897",
"'. c #889887",
"]. c #B89B83",
"[. c #83A382",
"{. c #87AB87",
"}. c #8CBE8C",
"|. c #95AE95",
" X c #96B496",
".X c #B9A886",
"XX c #ABAA89",
"oX c #AFAEAE",
"OX c #A1BEA1",
"+X c #B7B6B7",
"@X c #89B2B1",
"#X c #CEAC83",
"$X c #C4A784",
"%X c #D0AE85",
"&X c #D4B488",
"*X c #CCBF9F",
"=X c #D1B892",
"-X c #C8BDB2",
";X c #CDBEAE",
":X c #99C299",
">X c #A1C8A1",
",X c #B4C8B8",
"<X c #CEC3B8",
"1X c #E9CCA3",
"2X c #E7CBA2",
"3X c #EDD1A9",
"4X c #F1D5AC",
"5X c #F4D9B0",
"6X c #FCE4BD",
"7X c #F7E0BC",
"8X c #B4BFD5",
"9X c #D0D7D0",
"0X c #C3CED9",
"qX c #FAE8CA",
"wX c #F6E8D2",
"eX c #D4E2CA",
/* pixels */
"4.4.4.4.4.1.8.t.'.o t d h d h s o /.9.7.4.4.4.4.4.4.",
"4.4.4.4.4.1.:X_.F q z %.%.%.&.z q F _.OX=.2.4.4.4.4.",
"4.4.4.1.8. X'.a = h $.&.&.&.&.$.d = n '.:X8.4.4.4.4.",
"4.4.4.1.e.oX, u f h h h h h O.g d g q , oXe.4.4.4.4.",
"4.4.1.4.q.p u O.&.%.%.@.$.@.&.*.%.&.O.u p R 4.4.4.2.",
"4.4.1.1.D % +.:.<.c.c.u.,.,.u.u.,.,.:.o.* D 2.2.4.4.",
"4.1.r.|.F - :.p.h.B.N.l.S.| v.N.g.a.p.:.- F |.r.2.2.",
"5.5.[.J i l _ a.k.N.k.l.m.d.v.B.N.g.S._ l i G H.5.8.",
"P.*X.X7 3 V U.l.C.C.V.V.l.v.C.C.l.v.j.' V e 7 .X*X.X",
") Y.%X .^ _ Z.n.n.Z.n.j.s.B.C.U.G.x.b.g.` ^  .#XK._ ",
"^ T.5X3XK.f.N.j.k.N.z.a.s.n.k.F.R.U.j.n.f.Y.3X4XP.^ ",
"-X]. .=X .` d.U.Z.B.N.x.U.] S.#X1XT.s.x.s.Y.=XJ.].<X",
"t.XXH.@XG.y.) U.Z.A.C.j.' | T.4X6X%XU.G.z.I.@XH.XXeX",
"4.4./.(.W.b.~ ' U.E.| ( ) R.1X4X2X$X .~ b.W.(./.2.3.",
"4.4.0.S i.m.) 7 m | ~ } R.3X3XR.[ 7 7 ) m.i.S 0.2.4.",
"4.4.9.> ! k.( ..!.I M  .4X7X#X[ H !...) z.! > 9.2.4.",
"4.1.[.I Z ( M ;X8XQ.T $X6X6XR.Q Q.8X-XM / Z I H.2.2.",
"4.1.r.OXU # # L.+X~.0XwX6X6XwX0X~.+X].# O U OX{.2.2.",
"4.4.1.1.9.W + Q R.-XqXqXqX6XqXqX-X$X[ O W 9.1.4.4.2.",
"4.4.1.4.|.W - b | R.2X4X4X4X4X2XR. .M - E |.4.4.4.4.",
"1.1.5.6.J : x n m N L.P.P.P.P.J.N m V x : D 7.6.2.2.",
"8.}.|.G A E ,XL q k #.=.=.=.=.=.r e L ,XK ; H |.:X8.",
"t.+XI 2 7 K E n e h o.d d d d d g e V T M 3 3 K ,Xe.",
"w.W O N { M + v V k z #.>.>.#.k k V v @ M ) N # E 8.",
"w.q.7 J.=XL.w z C m m y.M.M.y.b m C #.w L.=XJ.< ).e.",
"9.{.Q D D 8 & s @.C l ;.-.-.;.l C @.s & 8 n G R {.8.",
"4.:./...I D   = r %.O.O.O.O.O.O.$.s * . D I W {.1.1.",
"4.4.5.e.9X_.$   * s @.*.*.*.*.#.j * . # `.9Xt.5.1.4.",
"4.4.4.3.U < 5 3 $ @ % & & & @ @ @ $ 3 9 8 U 1.1.4.4.",
"4.4.4.3.D X 0 0 3 $ . 1 ).^.1 . # 4 0 6 # D 4.4.4.4.",
"4.4.4.3.E 8 4 4 3 ; , `.>X>X`.1 ; 3 5 5 8 E 4.4.4.4.",
"4.4.4.3.t._.O     > q.9.3.3.8.q.>     # _.t.4.4.4.4."
};
