/* XPM */
static char *down_3__[] = {
/* columns rows colors chars-per-pixel */
"26 32 220 2 ",
"   c #060804",
".  c #081305",
"X  c #061508",
"o  c #1A1915",
"O  c #140E09",
"+  c #271A0D",
"@  c #241C17",
"#  c #301E13",
"$  c #09280D",
"%  c #092712",
"&  c #163911",
"*  c #10300E",
"=  c #322818",
"-  c #1E3624",
";  c #082836",
":  c #262826",
">  c #3B2E25",
",  c #383634",
"<  c #2B332F",
"1  c #4D3C1C",
"2  c #56331B",
"3  c #463527",
"4  c #5B3D23",
"5  c #423932",
"6  c #4C3729",
"7  c #643E24",
"8  c #154716",
"9  c #0C591D",
"0  c #12571D",
"q  c #084B16",
"w  c #234716",
"e  c #394F1C",
"r  c #0E611E",
"t  c #18611F",
"y  c #26621C",
"u  c #2E741D",
"i  c #164822",
"p  c #274D2F",
"a  c #0D6422",
"s  c #186822",
"d  c #0F7929",
"f  c #157626",
"g  c #236624",
"h  c #277B25",
"j  c #337035",
"k  c #64431D",
"l  c #564634",
"z  c #4B4B26",
"x  c #644824",
"c  c #644C32",
"v  c #794F30",
"b  c #547722",
"n  c #416524",
"m  c #73662F",
"M  c #1F3741",
"N  c #3D4A48",
"B  c #0C4960",
"V  c #304A63",
"C  c #484848",
"Z  c #594C42",
"A  c #585455",
"S  c #725B52",
"D  c #6C594C",
"F  c #556E4F",
"G  c #746759",
"H  c #736048",
"J  c #4E6E6D",
"K  c #676966",
"L  c #677869",
"P  c #777067",
"I  c #797878",
"U  c #756B6B",
"Y  c #875A36",
"T  c #85562D",
"R  c #8A663A",
"E  c #956838",
"W  c #967331",
"Q  c #936C22",
"!  c #A57B3B",
"~  c #885E41",
"^  c #8D6547",
"/  c #926541",
"(  c #9D7349",
")  c #A47A4A",
"_  c #A37B58",
"`  c #857A70",
"'  c #907C66",
"]  c #1B8529",
"[  c #16812A",
"{  c #268E29",
"}  c #288726",
"|  c #358B25",
" . c #2A9229",
".. c #369A29",
"X. c #3B9E29",
"o. c #399427",
"O. c #3EA129",
"+. c #63961D",
"@. c #78B319",
"#. c #4B8B2A",
"$. c #698B33",
"%. c #789133",
"&. c #42A329",
"*. c #75A433",
"=. c #449644",
"-. c #469846",
";. c #489848",
":. c #549D54",
">. c #599559",
",. c #59835A",
"<. c #6A9859",
"1. c #688B4E",
"2. c #59A259",
"3. c #659D65",
"4. c #6D896D",
"5. c #6BAA6C",
"6. c #65A665",
"7. c #73A773",
"8. c #7AB37A",
"9. c #6EAD70",
"0. c #8E8119",
"q. c #BEA716",
"w. c #A9A612",
"e. c #9A9032",
"r. c #AB843B",
"t. c #B18D38",
"y. c #B89734",
"u. c #B2902E",
"i. c #91A22C",
"p. c #95A929",
"a. c #B1A92B",
"s. c #D1BF19",
"d. c #C5B216",
"f. c #C39D38",
"g. c #C5A82A",
"h. c #CCB425",
"j. c #CDB724",
"k. c #D1BC21",
"l. c #DFB93E",
"z. c #B6D712",
"x. c #D9C71C",
"c. c #DFD016",
"v. c #E6D817",
"b. c #D8E708",
"n. c #ECE40D",
"m. c #F2EB0A",
"M. c #F9F604",
"N. c #F6F206",
"B. c #EEE218",
"V. c #F2E816",
"C. c #DBC323",
"Z. c #D1C13B",
"A. c #E5CD28",
"S. c #ECD12C",
"D. c #CFEB36",
"F. c #AD8447",
"G. c #BD9747",
"H. c #AF8853",
"J. c #B68D51",
"K. c #BAAB45",
"L. c #999C6F",
"P. c #AD8965",
"I. c #BB976C",
"U. c #B39372",
"Y. c #84A17F",
"T. c #A9A874",
"R. c #C49848",
"E. c #CF9F50",
"W. c #D2A54C",
"Q. c #E2B747",
"!. c #C19D70",
"~. c #C8A57A",
"^. c #E8C447",
"/. c #45598E",
"(. c #737E89",
"). c #536BA4",
"_. c #7DAF80",
"`. c #1F9CC1",
"'. c #34B7CB",
"]. c #8A8889",
"[. c #8E9B8E",
"{. c #929394",
"}. c #999084",
"|. c #B99B82",
" X c #86A888",
".X c #8BBA87",
"XX c #96A096",
"oX c #98BA99",
"OX c #9BA380",
"+X c #ACAC9A",
"@X c #A09DA0",
"#X c #96AAAC",
"$X c #ACAEBB",
"%X c #ACB2AC",
"&X c #959BAE",
"*X c #CBAD88",
"=X c #D5B48C",
"-X c #C4AD93",
";X c #DCBD93",
":X c #DDBF98",
">X c #D0AF87",
",X c #C3BEBC",
"<X c #D0BEAE",
"1X c #A4C4A6",
"2X c #B2CCB1",
"3X c #DFC39B",
"4X c #E3C596",
"5X c #DBC5A8",
"6X c #E6CBA6",
"7X c #EDD2A9",
"8X c #F5DCB3",
"9X c #F8DFB6",
"0X c #E3D1BC",
"qX c #FFE6BD",
"wX c #93A4C2",
"eX c #BEC5D7",
"rX c #C6D3C6",
"tX c #D0CFCD",
"yX c #F9E6C4",
"uX c #F9EDD8",
/* pixels */
";.;.;.;.;.-.;.5.9.2XC $ d d q : Y.5.9.6.-.-.-.;.;.-.",
";.;.;.;.;.-.;.[.I U p 9 d d a i K I {.2X=.-.-.;.;.;.",
";.-.;.;.-.7. Xp X $ s [ ] [ ] f * X - XXoX5.-.;.;.;.",
";.;.;.-.-.4.C i f | o.X.O.O.....o.h a < @X_.-.-.;.;.",
";.;.;.;.;.,.: q f {  .{ { { { { { ] a X ].8.=.-.;.;.",
";.;.;.;.3.F - a ] ] ] ] } ] ] ] ] ] f % K _._.;.;.-.",
";.;.-.:.I - s  .X.&.X.&.O.X.&.O.O.O...d - A rX;.;.;.",
";.;.:.2.K $ } $.i.z.i.i.z.i.p.z.z.w.*.o.8 < rX:.;.-.",
"-.#.1X$XF 8 $.e.j.N.C.x.m.f.h.N.n.s.y.*.y p $XoX=.=.",
".X.XoX, 8 j W c.M.M.N.N.m.y.h.m.y.j.V.Q.$.0 @ 4..X.X",
"*X:X-X4 1 m R.B.n.h.n.n.g.r.h.m.y.t.h.v.e.z 1 U.5X>X",
"E I.=XP.Y E R.B.B.y.B.c.! y.j.x.R.) t.m.d.T ( ~.*XE ",
"Y U.7X6XI.) t.c.B.Q.V.c.t.v.x.F.~.!.y.V.k.H.7X8X=X^ ",
"OX|.( ( ) u.v.A.Q.Q.V.v.t.v.c.F.~.4X4X^.f.H.;XI.P.L.",
"9.}.5 J H ! s.l.E.E.A.A.s.m.s.! =X7X4XG.y.K.#XA S 3.",
"9.I ; `.J Q ! R.J.F.E.Z.m.m.q.Y =X3XI.Y q.D.'.B l >.",
"5.I @ L.Z.j.r.4 1 ) E.W.y.Q ) I.( c , R s.V.T.z C >.",
"9.%XG R h.k.W G K U ( ! E _ H.' S A K / g.C.W G {.6.",
"2..X#Xl m r.T 5XeX/.S Y E :X>X~ /.wXtX~ E r.5 4..X2.",
"-.=.1XrXG 6 E 4X,X).$X0X6X9X0XtX).&X5X> @ l ,X1X=.-.",
"-.-.:.6.[.K c P.-X$XtXuXqXqXuXuX$X+XI.o O 3 ]. X=.-.",
"-.;.-.=.5. X: k P.3X8X9X8X8X8X8X6X!.R 3 6 2 # A 7.:.",
";.;.-.-.&.L @ 2 T E ~.;X;X;X3X>X( T ~ ,X' 2 4 3 U 3.",
";.;.;.;.:.4.: w e e F <.<.<.<.1.z = 3 U ` ^ 7 # N >.",
";.;.-.:.tX{.< j j e g h o.&.| g w * .   Z ' 7 > U <.",
";.-.7.oXI < V #X%Xx k 0.b.b.w.x x e 9 . o @ @ L oX2.",
";.-.oX].6 3 C (.(.: e #.@.@.+.n b | { 0 X @ ].[.=.-.",
";.-. X: 6 ^ Y A < $ 0 [ f ] ] ] o.&...s % , rX6.-.-.",
";.;. X, ' 3X!., $ a d ] X.O.X.X.X.&.| $   , rX;.-.;.",
";.;.8.,.U D l o X 9 ] O.O.&.&.X. .g & # O , rX;.;.-.",
";.;.;.2.].C C C , * y u u u u u 9 $   # 5 K _.;.;.;.",
";.;.;.;.>.>.>.5.XXo . X X X . . .     O (._.=.-.;.;."
};
