/* XPM */
static char *left_1__[] = {
/* columns rows colors chars-per-pixel */
"25 32 227 2 ",
"   c #030B04",
".  c #0B0907",
"X  c #130D0B",
"o  c #160C07",
"O  c #061205",
"+  c #071C09",
"@  c #0D180C",
"#  c #18150A",
"$  c #161814",
"%  c #2A1912",
"&  c #06270B",
"*  c #1E210C",
"=  c #0B380C",
"-  c #142812",
";  c #0A3912",
":  c #173D14",
">  c #0C2F10",
",  c #292117",
"<  c #39251A",
"1  c #2C361B",
"2  c #001521",
"3  c #153126",
"4  c #2B2C2B",
"5  c #332E2C",
"6  c #322A23",
"7  c #393735",
"8  c #2F382D",
"9  c #48281B",
"0  c #47341B",
"q  c #55351B",
"w  c #562F1D",
"e  c #63381E",
"r  c #4B392A",
"t  c #543424",
"y  c #5F3520",
"u  c #463D3D",
"i  c #6C3D21",
"p  c #0C440E",
"a  c #0B4610",
"s  c #0B4C15",
"d  c #0B4B18",
"f  c #124D11",
"g  c #144513",
"h  c #0C5415",
"j  c #0E5B19",
"k  c #175916",
"l  c #254D12",
"z  c #0E641E",
"x  c #0E681F",
"c  c #16611A",
"v  c #2B7A1D",
"b  c #296E1A",
"n  c #185825",
"m  c #394C22",
"M  c #2C5724",
"N  c #3C463C",
"B  c #0E6C21",
"V  c #0D6421",
"C  c #196823",
"Z  c #0F7927",
"A  c #0E7C29",
"S  c #0D7525",
"D  c #107425",
"F  c #117B29",
"G  c #187826",
"H  c #2F7626",
"J  c #51411E",
"K  c #677B0F",
"L  c #475A23",
"P  c #5B5526",
"I  c #524539",
"U  c #5F503F",
"Y  c #534730",
"T  c #674925",
"R  c #784926",
"E  c #735A34",
"W  c #577824",
"Q  c #4A6F36",
"!  c #5B720E",
"~  c #3F5B4E",
"^  c #484645",
"/  c #565754",
"(  c #574B45",
")  c #6C5843",
"_  c #477547",
"`  c #4C714D",
"'  c #6F6954",
"]  c #52777F",
"[  c #696D67",
"{  c #737567",
"}  c #787878",
"|  c #85572D",
" . c #875B30",
".. c #966A3A",
"X. c #997637",
"o. c #A27638",
"O. c #987A52",
"+. c #89704E",
"@. c #A77A45",
"#. c #158129",
"$. c #258A28",
"%. c #348A23",
"&. c #3B9B27",
"*. c #369626",
"=. c #289029",
"-. c #3EA129",
";. c #5AA51C",
":. c #4B8525",
">. c #459E25",
",. c #799C38",
"<. c #41A429",
"1. c #78A82E",
"2. c #398D4C",
"3. c #3D974A",
"4. c #459745",
"5. c #479847",
"6. c #489848",
"7. c #529C52",
"8. c #5B9D5B",
"9. c #589554",
"0. c #5B8554",
"q. c #5AA25A",
"w. c #4E9D61",
"e. c #778279",
"r. c #6F926F",
"t. c #62A362",
"y. c #6CAB6C",
"u. c #67A768",
"i. c #6FAE70",
"p. c #77AD77",
"a. c #78B075",
"s. c #71AD6E",
"d. c #6E844F",
"f. c #A49619",
"g. c #BCA416",
"h. c #8C9E30",
"j. c #A8893E",
"k. c #B28C3B",
"l. c #B79A30",
"z. c #BFA030",
"x. c #BEA129",
"c. c #C3AE0C",
"v. c #C2B70D",
"b. c #C9B81B",
"n. c #C6AE17",
"m. c #C09A39",
"M. c #CCB627",
"N. c #CAAA37",
"B. c #CDAB30",
"V. c #ACC912",
"C. c #C9C900",
"Z. c #D7C31E",
"A. c #D0D317",
"S. c #E8DC15",
"D. c #CDE709",
"F. c #F3EA0E",
"G. c #F4ED15",
"H. c #F4EF11",
"J. c #D9C92C",
"K. c #E7D42E",
"L. c #8E8056",
"P. c #AB8343",
"I. c #B28C50",
"U. c #8E826C",
"Y. c #A98A68",
"T. c #AC9678",
"R. c #B69673",
"E. c #92AF7A",
"W. c #C49A46",
"Q. c #C1924A",
"!. c #C7A74A",
"~. c #DCB444",
"^. c #CDAE55",
"/. c #C09A73",
"(. c #C7A276",
"). c #C8B26C",
"_. c #DBC170",
"`. c #F5ED6A",
"'. c #096285",
"]. c #7C7D8D",
"[. c #5E75B2",
"{. c #3AA5BB",
"}. c #79A585",
"|. c #7AB686",
" X c #868885",
".X c #8E9B8E",
"XX c #909296",
"oX c #AC9F87",
"OX c #86A686",
"+X c #87B98A",
"@X c #9BA39B",
"#X c #94B794",
"$X c #90AE8F",
"%X c #BBAE82",
"&X c #B8B19C",
"*X c #A9A9A7",
"=X c #A9B9A9",
"-X c #B4B7B5",
";X c #B1B7A3",
":X c #8D94A7",
">X c #C1AA8A",
",X c #CBB086",
"<X c #D9B88E",
"1X c #D2BE95",
"2X c #E0BF94",
"3X c #99C397",
"4X c #A4C49E",
"5X c #9BC7A4",
"6X c #A5C8A3",
"7X c #B9C8AC",
"8X c #B4CFB2",
"9X c #DBC198",
"0X c #C6C398",
"qX c #E0C19A",
"wX c #EDD78A",
"eX c #CDE194",
"rX c #F9E49B",
"tX c #DBC5A7",
"yX c #CDCBA7",
"uX c #E8CAA4",
"iX c #F2DAB0",
"pX c #F0E4B2",
"aX c #AED3C8",
"sX c #D5DED5",
"dX c #C7C6C8",
"fX c #DDE5DD",
"gX c #FEE7C1",
/* pixels */
"6.5.t.s.y.E.I.| P G c f >.-.<.-.$.w.5Xy.y.u.6.6.6.",
"5.4.;XdXtXwXJ.n.f.*.c k >.<.<.<.*.-.|.|.5X3X6.6.6.",
"q.6X0X!.W.~.S.G.S.1.v k %.&.>.<.-.-.$.#.2.}.p.4.6.",
"a.tX!.S.M.P.P.N.~.!.h.$.k $.-.<.-.-.*.$.B _ r.7.6.",
",X^.Z.Z.N.Q.@.B.J.m.h.%.f v <.<.-.-.=.#.Z V _ $Xt.",
"..b.H.m.I.Q.I.Z.F.k.h.;.b v %.%.%.=.F F A D j ` 8.",
"| g.F.N.....).K.S.k.b.D.>.b f f f j D F F Z h ` 7.",
"&X).m.o.@.R.<X^.x.j.Z.D.*.k a z B B D F F F B H _ ",
"s.1XY.T O.<X<X(.I.N.M.A.:.c j B Z Z B x D D Z B g ",
"4.s.=X5 ) <XuX2X).G.M.o.X.Q x f x B f p s S Z B a ",
"6.6..X4 t +.( oXrXH.M.X. .L j x j h p & & h S j + ",
"u.6X XI I ( ^ oXrXK.B.@.| P Q 9.0.Q g O   = j s   ",
"i. X6 T.].[.}.8XrXI.I.W.R O.qXiXiXT.M > $ ; a =   ",
"u.].% oX].[.}.yXuX..n.b.0 Y.iXpX<XO.- {  X> s s   ",
"y.*X' +.} :XyXpX2X| n.C.# ] aX9XO.0 # *XdX$ ; d   ",
"7.t.$X^ ) ,XiXgXqX .c.C.* '.{.L.0 # * *XdX4 > ; $ ",
"6.4.+X=X[ ( %X9X(.| v.C.# 2 2 , E l.g.rXsX7X~ 7 .X",
"6.6.6.7.*X{ ' +.' w f.n.# + > + J j.`.eXt.8X*XXXu.",
"6.6.6.7.fX*X8 > g @ E o.* a V d + u 8Xq.4.q.+X+X8.",
"6.5.7.q. X8 n B B V : < q , > B & ~ #X-.6.6.5.4.6.",
"6.4.#X.Xd.! G A D s ; g m $ & B & ~ $X4.5.5.6.6.6.",
"6.5.E.7 K V.v b n O n 3.6.g @ n - 7 $X}.7.5.5.6.6.",
"4.4.}.4 l :.P T 0 X ].|.u./ # < < < 7 -Xy.5.5.6.6.",
"6.4.}.4 h %.W W L O / U.{ u X 9 m 1   XXy.5.6.6.6.",
"4.4.$X/ M %.<.&.H O , t t # X 1 k n 7 -Xy.5.6.6.6.",
"6.4.OX#X[ g %.=.V . 9 i i % - H g N *X6Xq.5.5.5.6.",
"6.6.4.7.-Xe.M : + . ) /.Y.r . : [ ;X3X3.6.6.6.6.6.",
"6.6.6.9.fX@X6 o o o ' >XY.r X 7 @Xa.t.5.5.6.5.6.6.",
"6.6.4.7.} , q w 9 9 % $ X . ( =Xt.4.5.5.6.5.6.6.6.",
"6.6.6.6.[ o i i y w #     ~ r.8.5.5.6.5.6.6.6.5.5.",
"6.6.6.9..X^ t q 9 < 7 ^ / e.5.5.6.6.6.6.6.5.5.6.6.",
"6.6.6.6.t.0.5 . . X  X}.9.8.6.6.5.6.6.5.6.6.6.6.6."
};
