/* XPM */
static char *left_3__[] = {
/* columns rows colors chars-per-pixel */
"30 32 235 2 ",
"   c #030302",
".  c #020B02",
"X  c #0B0806",
"o  c #120B09",
"O  c #1A0F0A",
"+  c #150B05",
"@  c #021B06",
"#  c #0B1A0A",
"$  c #071407",
"%  c #1B120C",
"&  c #141212",
"*  c #191714",
"=  c #0A1716",
"-  c #29170C",
";  c #291A13",
":  c #331C13",
">  c #082A09",
",  c #082508",
"<  c #0B380C",
"1  c #173717",
"2  c #113210",
"3  c #2B2415",
"4  c #37261A",
"5  c #253618",
"6  c #222222",
"7  c #292928",
"8  c #372821",
"9  c #3E3827",
"0  c #363635",
"q  c #2F3E30",
"w  c #41241B",
"e  c #482C1A",
"r  c #532E1F",
"t  c #59341C",
"y  c #4F3818",
"u  c #65391D",
"i  c #653B1D",
"p  c #4D2B21",
"a  c #48382C",
"s  c #563625",
"d  c #473C36",
"f  c #51352B",
"g  c #683C21",
"h  c #0C4C12",
"j  c #0B4411",
"k  c #124F12",
"l  c #174316",
"z  c #0E5D1A",
"x  c #0E5215",
"c  c #165715",
"v  c #114A0F",
"b  c #0D621C",
"n  c #1E6317",
"m  c #26701A",
"M  c #2C7C1E",
"N  c #29721A",
"B  c #266E1A",
"V  c #1B5226",
"C  c #3A453B",
"Z  c #2E542B",
"A  c #0E6C23",
"S  c #0D6522",
"D  c #166924",
"F  c #0F7326",
"G  c #117425",
"H  c #117B29",
"J  c #197624",
"K  c #2C732D",
"L  c #6A4F17",
"P  c #7D6E1E",
"I  c #554B3C",
"U  c #544E27",
"Y  c #754724",
"T  c #655625",
"R  c #674831",
"E  c #577738",
"W  c #53642E",
"Q  c #63713E",
"!  c #495A11",
"~  c #3E4540",
"^  c #3F794A",
"/  c #474745",
"(  c #524E47",
")  c #5B5B5B",
"_  c #575655",
"`  c #515A4D",
"'  c #685A4B",
"]  c #705E50",
"[  c #556B50",
"{  c #7A6B55",
"}  c #65675D",
"|  c #6A6767",
" . c #78746F",
".. c #777875",
"X. c #747163",
"o. c #90681C",
"O. c #85562B",
"+. c #865936",
"@. c #8F693A",
"#. c #A87C3D",
"$. c #976E47",
"%. c #92724A",
"&. c #A67D42",
"*. c #188129",
"=. c #16812A",
"-. c #288625",
";. c #348A23",
":. c #379325",
">. c #349A29",
",. c #3A9726",
"<. c #3D853E",
"1. c #2C9229",
"2. c #3FA327",
"3. c #529E1F",
"4. c #6BAC1A",
"5. c #469826",
"6. c #4C8D27",
"7. c #6D982F",
"8. c #41A429",
"9. c #4EA523",
"0. c #4DA72A",
"q. c #7CAE27",
"w. c #3F9440",
"e. c #459645",
"r. c #479847",
"t. c #489848",
"y. c #4A944A",
"u. c #539D53",
"i. c #599959",
"p. c #5F885F",
"a. c #5CA35C",
"s. c #56A057",
"d. c #5E8760",
"f. c #619D61",
"g. c #659766",
"h. c #778578",
"j. c #729273",
"k. c #64A463",
"l. c #69A869",
"z. c #75AD73",
"x. c #77B377",
"c. c #65B452",
"v. c #B3991A",
"b. c #97BE17",
"n. c #8B893E",
"m. c #AC833A",
"M. c #B38B39",
"N. c #BA943D",
"B. c #B19637",
"V. c #80AC2F",
"C. c #BDA437",
"Z. c #BEA12C",
"A. c #888C0F",
"S. c #C9B911",
"D. c #C89D39",
"F. c #C5A82D",
"G. c #D2BB23",
"H. c #D6B939",
"J. c #C6AB2B",
"K. c #E1BE39",
"L. c #8DC51C",
"P. c #BEDC0D",
"I. c #DECD19",
"U. c #D8C617",
"Y. c #C0DD10",
"T. c #E4D812",
"R. c #D8E809",
"E. c #F1EB0B",
"W. c #F3ED0C",
"Q. c #DDC92E",
"!. c #E5CB2C",
"~. c #E9E834",
"^. c #AC8648",
"/. c #B48945",
"(. c #B38E50",
"). c #9DA042",
"_. c #9E8B74",
"`. c #AA8C6D",
"'. c #B39674",
"]. c #81B379",
"[. c #B3AA44",
"{. c #C59749",
"}. c #C19854",
"|. c #D4A44D",
" X c #D7A651",
".X c #C19F76",
"XX c #C19E6E",
"oX c #C6A478",
"OX c #81C272",
"+X c #465B91",
"@X c #4E6397",
"#X c #0F80A5",
"$X c #7FA980",
"%X c #4DC4E5",
"&X c #859985",
"*X c #909091",
"=X c #AB9A84",
"-X c #99A485",
";X c #87B986",
":X c #98A898",
">X c #97B797",
",X c #87A78D",
"<X c #A9B7A8",
"1X c #B0B4B0",
"2X c #9F9DA2",
"3X c #C5A884",
"4X c #D5B58B",
"5X c #CDB89A",
"6X c #DABD96",
"7X c #CDB38E",
"8X c #99C399",
"9X c #8FC18E",
"0X c #ABCE94",
"qX c #ABC9A8",
"wX c #B4CFAD",
"eX c #B3D4AB",
"rX c #B9C5B9",
"tX c #B9D0B5",
"yX c #E4C899",
"uX c #EFD982",
"iX c #F7E28A",
"pX c #DBC9A3",
"aX c #DCD4A7",
"sX c #CAC6B8",
"dX c #CECBB7",
"fX c #F2D7AE",
"gX c #ECD5AE",
"hX c #F9E3BB",
"jX c #E8E0B7",
"kX c #91A3CA",
"lX c #C7CEC7",
"zX c #CFD5CC",
"xX c #D8E0CD",
"cX c #DAE0D2",
"vX c #F1E3C2",
/* pixels */
"t.t.t.t.t.e.l.xX(.@.Y 6.M v M 8.8.8.8.8.OX8Xz.x.x.l.u.r.r.r.",
"r.t.t.r.e.l.sXpX}.M.v.b.4.N N ;.,.8.8.8.c.0XeXqX>XtXs.w.r.t.",
"t.t.r.r.k.zX7X/.|.!.W.W.Y.9.B c :.8.8.8.8.8.8.:.c $XqX;Xr.r.",
"t.t.e.k.dX3XQ.I.N.N.F.K.H.[.7.M n M 2.8.8.8.8.>.J K h.zX$Xe.",
"t.t.k.dXaXC.U.I.N././.{.|.K.V.:.k m ,.8.8.8.8.2.=.z Z rX$Xr.",
"t.r.wX3XC.E.G./.|. X X/.F.E.L.:.k B 8.8.8.8.8.>.=.S Z >X9Xa.",
"t.e.wX.XF.W.Q.(.#.M.(.G.U.G.q.>.k m ,.M m N :.,.=.F D d.qXz.",
"t.e.wX'.Z.E.Q.{.O.@./.T.U.^.7.5.c N ,.n k k -.:.=.H H x [ eX",
"t.e.wXoX/.H.#.@.XX.XoX{.M.#.U.P.3.m c ;.>.:.-.=.H H F x 1 0 ",
"t.r.;X5X.X/.Y g .X6XyXXX^.^.U.R.9.J c M ;.1.=.H H H F x >   ",
"t.t.r.;XsX+.; ; '.yXfX6XoX^.I.R.:.G A x z G J =.H H F x >   ",
"t.t.r.a.cXsX( o +.] ' 7XuXI.G.Z.B.E z b b x b H H H F x >   ",
"t.t.t.t.8XzX| 8 g d d 5XiXT.J.m.[.@.K 6.<.K n J F F F j 1 0 ",
"t.r.t.a.1X0 { =X+XkX<XhXyX(.{.{.O.%.3XpXaXaX[ k j S F , ` ,X",
"t.t.r.a.1X* { 3X+XkXz.jXyX@.J.G.O.&.gXhXfX4XI > < b A @ ) f.",
"t.r.r.a.1X7 { =X+XkX,XjX4XO.S.E.O.`.jXhX4X&.4 . < z S @ ) f.",
"t.t.t.s.tX1X| d _.dXvXhX4XO.S.E.D.:X%X:X%.3     . > j . _ f.",
"t.t.t.t.r.8X| % %.3XfXfX4X@.v.U.!.z.#X` R a ! y ( Z 2 I *Xl.",
"t.t.t.t.r.>X .X o ] 4X4X4XoX$.o.E.A.= X a '.Q.~.0X[ 7 &X$Xi.",
"t.t.t.a.>X} d f *X..I E Q [ 9 y J.P X @ 1 W L n.].&X2X>Xw.r.",
"t.r.r.a.rX~ 8 R sX..= < h j # 3 B.T X 2 2 X * ) $Xu.s.u.t.t.",
"t.t.t.s.<X<X} O 6 q S A F A , # K l X r e X ..>Xz.w.r.t.t.t.",
"r.r.t.t.5.8X| . 2 M 4.-.H H 5 5 D ^ | a : , [ [ [ j.u.r.t.t.",
"y.u.y.r.e.>X| $ 5.L.R.5.J G ! i K ;XzX0 $ < # & = h.u.u.t.t.",
"x.2X/ C ~ / 6 # :.9.3.W U U 4 9 >X-XX.p * .   X w a ) ,X<.r.",
"g...- O O o X $ -.1.-.W T L 5 q j.' p r s a % O i y 8 X.k.s.",
"6 w u u t 4 O $ A -.>.5.5.5.*.S 6 7 e g %.5X( O u g u 4  .k.",
"  - Y Y g p : ; 2 l c -.>.2.>.-.j 2 : _.`.{ 7 o e g i + _ a.",
"7 8 i g g p p 4 X & 6 D K ;.;.1.A < & =X_.0 & o w u g o ) f.",
",X .- w r p p w   ) 1XC @ , , , @ .   3 } &X0 o w r w o _ f.",
"z.1X) 8 ; ; : 8 _ 2XqXh.) ) ) ) ) ) ) ) *Xx.&X_ 8 ; : / *Xl.",
"u.z.1X/ X X   7 >Xl.u.i.f.k.f.f.f.f.f.f.g.u.g.d.7   6 $Xk.u."
};
