/* XPM */
static char *left_2__[] = {
/* columns rows colors chars-per-pixel */
"29 32 230 2 ",
"   c #020202",
".  c #030A04",
"X  c #0B0B09",
"o  c #080605",
"O  c #140D0A",
"+  c #031205",
"@  c #071708",
"#  c #1C160C",
"$  c #191616",
"%  c #091016",
"&  c #361E0F",
"*  c #291C16",
"=  c #341C16",
"-  c #25170B",
";  c #072A0A",
":  c #09320C",
">  c #09360C",
",  c #0D2D13",
"<  c #083C12",
"1  c #17361A",
"2  c #17330D",
"3  c #28221B",
"4  c #392519",
"5  c #262A13",
"6  c #1C3B20",
"7  c #262626",
"8  c #362C26",
"9  c #273628",
"0  c #393839",
"q  c #47271B",
"w  c #4C321B",
"e  c #673A1D",
"r  c #42352C",
"t  c #4E3326",
"y  c #663F25",
"u  c #0C440F",
"i  c #0D4C11",
"p  c #0A4513",
"a  c #134C12",
"s  c #1A4A14",
"d  c #0C541B",
"f  c #0D5416",
"g  c #195A14",
"h  c #15561B",
"j  c #244917",
"k  c #0D641D",
"l  c #1B661A",
"z  c #13751F",
"x  c #2C7D1E",
"c  c #27731C",
"v  c #226919",
"b  c #165223",
"n  c #1F482A",
"m  c #225626",
"M  c #3D413E",
"N  c #214C24",
"B  c #0E6B23",
"V  c #126A23",
"C  c #136021",
"Z  c #0F7325",
"A  c #0F7B29",
"S  c #147324",
"D  c #117827",
"F  c #117C29",
"G  c #177626",
"H  c #246829",
"J  c #287B20",
"K  c #386D25",
"L  c #545615",
"P  c #6F6F14",
"I  c #564A26",
"U  c #525233",
"Y  c #6E4926",
"T  c #7D502B",
"R  c #70522B",
"E  c #4F722A",
"W  c #3E4741",
"Q  c #3D6541",
"!  c #555755",
"~  c #494E49",
"^  c #665549",
"/  c #755D45",
"(  c #557957",
")  c #526851",
"_  c #68645B",
"`  c #6E6C4C",
"'  c #567C6F",
"]  c #696666",
"[  c #797879",
"{  c #6D7670",
"}  c #545773",
"|  c #9B7A16",
" . c #86592B",
".. c #8A5E38",
"X. c #876531",
"o. c #936936",
"O. c #9B7130",
"+. c #A57A3F",
"@. c #A37F27",
"#. c #9E7959",
"$. c #8C704D",
"%. c #1A8128",
"&. c #2F8321",
"*. c #258827",
"=. c #308722",
"-. c #2D9429",
";. c #2E992A",
":. c #3B9A26",
">. c #379A29",
",. c #338C37",
"<. c #3FA128",
"1. c #4B921F",
"2. c #4E8929",
"3. c #499F2B",
"4. c #659633",
"5. c #41A529",
"6. c #49A628",
"7. c #6FAA23",
"8. c #3B934B",
"9. c #368746",
"0. c #459745",
"q. c #479847",
"w. c #489848",
"e. c #539E53",
"r. c #5D9A5D",
"t. c #5D864D",
"y. c #798352",
"u. c #5DA35D",
"i. c #59A157",
"p. c #61A55E",
"a. c #5E816A",
"s. c #649863",
"d. c #778579",
"f. c #659479",
"g. c #6D8F6F",
"h. c #62A562",
"j. c #6DAB6C",
"k. c #67A966",
"l. c #72AD71",
"z. c #78AD72",
"x. c #7DB57D",
"c. c #70AE6E",
"v. c #A5851C",
"b. c #BAA017",
"n. c #918B2E",
"m. c #AB863A",
"M. c #AA8B3F",
"N. c #B5942E",
"B. c #AFA429",
"V. c #CBB810",
"C. c #C2983B",
"Z. c #CCB327",
"A. c #D4BE24",
"S. c #CAA537",
"D. c #D4B534",
"F. c #B3C723",
"G. c #D8C71B",
"H. c #C7D712",
"J. c #DFD81A",
"K. c #CFC810",
"L. c #E3D418",
"P. c #F3ED08",
"I. c #F5F008",
"U. c #D7C222",
"Y. c #E2C733",
"T. c #EFDF27",
"R. c #FAF03C",
"E. c #8C825B",
"W. c #B68A45",
"Q. c #BA9646",
"!. c #AF8954",
"~. c #BFA15F",
"^. c #988A6A",
"/. c #A48D6E",
"(. c #B59266",
"). c #AD9475",
"_. c #B08E69",
"`. c #A8AB7F",
"'. c #C59B46",
"]. c #C9A544",
"[. c #D4A64C",
"{. c #D7B156",
"}. c #C6A572",
"|. c #C9AF6A",
" X c #DBC34A",
".X c #E7D240",
"XX c #7F7F80",
"oX c #4F69AB",
"OX c #1F98BE",
"+X c #7FB98C",
"@X c #76BFD5",
"#X c #878884",
"$X c #989886",
"%X c #948D91",
"&X c #929090",
"*X c #A0989B",
"=X c #8BA68B",
"-X c #86B789",
";X c #95AA96",
":X c #98B996",
">X c #9ABB8A",
",X c #B0AE86",
"<X c #9FBCA7",
"1X c #A6AAA5",
"2X c #A5BDA5",
"3X c #B2B9AE",
"4X c #C9AB85",
"5X c #D8B78E",
"6X c #CAAE91",
"7X c #99C394",
"8X c #9FC1A6",
"9X c #A9C4A9",
"0X c #BCC9BC",
"qX c #B0CFA5",
"wX c #ABCA84",
"eX c #E1C898",
"rX c #E9D19F",
"tX c #C6C4A7",
"yX c #CDD8B5",
"uX c #D6C7AA",
"iX c #E6CAA1",
"pX c #EDD4A8",
"aX c #F2D7AE",
"sX c #F8DFB7",
"dX c #FBE3BA",
"fX c #BEC3C0",
"gX c #C5D7C6",
"hX c #C9CEC0",
"jX c #E5E3E2",
"kX c #DFE6C8",
/* pixels */
"w.w.q.k.l.7X}.X.Y H l i &.<.5.*.8.0Xj.c.w.q.w.q.q.q.q.w.w.",
"w.0.k.6XuXpX XN.X.2.c i &.<.5.-.,.wX7X8X7X+Xq.q.q.q.w.w.q.",
"0.k.yX~.'.[.L.L.M.4.=.a x 5.5.5.<.<.;.9.fXgX8Xk.q.w.w.q.w.",
"l.tX}.L.G.W.m.C.].7.=.a x 5.5.5.5.<.<.;.8.9.t.r.e.q.q.w.w.",
"iX|.Z.V.Z.Q.W.].Y.F.7.c c &.<.5.5.5.5.<.-.D m g.9Xc.w.w.q.",
"+.Z.I.S.W.[.[.Y.I.I.H.6.l g >.<.<.<.<.<.<.-.G f s.fXk.8.q.",
" .b.I.[.+.O.+.D.I.U.n.6.v g >.x g g &.<.5.-.F Z H a.9XqXp.",
"#.Q.V.S.W.$.#.].K.A.B.4.K v x c l l J -.;.*.A A B n l.c.e.",
"z.6X..$.!.6X5X}.W.L.L.W.4.=.f c :.:.*.A %.A %.A k m r.u.e.",
"h.:X$XU / 5XpXiX}.T.L.m.E J S l l *.%.A A A A A Z V ) =Xh.",
"q.3.:X0 r ).).,XeXR.L.m.E H V d u k B A A A A A F D i ( r.",
"w.e.=X0 = y q _ rXR.K.m. .I s d s a k A A A Z A A D i ( r.",
"l.1X! $.] } { 1XsX XS.'. . .#.^.,X,Xt.f d p ; i k D f s ~ ",
"g.+X$ ).%XoX+XyXdX(.m.Y.O...5XaXsXiXy.> : j M 1 p V f ; . ",
"f.&X$ /.%XoX+XyXdX#.| L.v...pXdXaX(.I . . ~ =XM @ u u : . ",
"j.tX#X^ ] *X3XsXaX#.| P.D.$X@X2X(.w # % [ =X-X3X_ @ > ; . ",
"w.e.:X] ^ ).iXsXaX!.v.K..X>XOXa.R 4 5 I hXu.w.u.;X0 , 1 0 ",
"q.0.-X<X#X8 /.5X5X4X!.X.V.F.6 % 5 m.U.J.wXe.w.w.7X;X~ ~ ;X",
"q.w.0.e.0X#X_ ^ ` ` U w N.Z.# + 2 I P n.>Xw.w.q.0.k.1X1Xs.",
"w.q.0.q.-XfXW ; i f < @ T O.# : : . O M 0Xe.w.w.q.e.l.j.e.",
"w.0.u.z.$X9 b B z Z f . N G V b : . ] 0Xk.w.w.q.w.q.0.q.q.",
"0.0.9X1Xn.P J A A A d + ' -X-XQ @   [ -X0.w.w.w.w.q.q.w.q.",
";X:X;X0 L H.1.G F F d @ %XjXjX]   + { 9Xe.q.w.w.q.w.w.q.q.",
"0 0 8 X u 3.L U F A d + r ^ ^ = @ d n ! 2Xu.0.w.q.w.w.q.w.",
"  X -   : D E E K K 6 . & q q q 3 < < 6 #X;Xu.0.w.w.w.w.q.",
"  & e - , V >.E R R w O * w T T y X < B @ ) x.0.w.q.q.w.w.",
"  = e q * > &.3.2.2.x h , r 4X4X#.- < B % ) +X0.q.q.w.w.q.",
"! I q q = # s c -.>.*.d + 3 ^.^.` O ; b ! d.h.q.w.w.w.q.w.",
"l.&X7 q q 4 * 6 V D h +     X O O o o 7 3Xr.0.w.w.w.w.q.w.",
"h.=Xd.8 O * ) ' , ; +         - = = O 7 0Xe.w.q.q.q.w.w.q.",
"w.0.:X[ ! ] g.;X! ! ! ! ! 0 % O = = r ] gXe.w.q.w.w.w.q.w.",
"q.0.u.r.r.r.e.u.r.r.r.r.r.( $     o [ -Xj.w.q.w.w.q.w.q.w."
};
