/* XPM */
static char *right_2__[] = {
/* columns rows colors chars-per-pixel */
"29 32 225 2 ",
"   c #020202",
".  c #040B04",
"X  c #0A0B09",
"o  c #090805",
"O  c #120B07",
"+  c #031206",
"@  c #061909",
"#  c #1C120C",
"$  c #151509",
"%  c #191615",
"&  c #091016",
"*  c #361E0F",
"=  c #291D16",
"-  c #331D17",
";  c #28170D",
":  c #092E0B",
">  c #06270B",
",  c #09340A",
"<  c #08360D",
"1  c #093912",
"2  c #153114",
"3  c #29230C",
"4  c #2A2419",
"5  c #3D2719",
"6  c #21351F",
"7  c #1C3B20",
"8  c #272525",
"9  c #382D27",
"0  c #273628",
"q  c #373638",
"w  c #3F3328",
"e  c #47271B",
"r  c #4F341B",
"t  c #683A1D",
"y  c #41352A",
"u  c #533725",
"i  c #433736",
"p  c #653E24",
"a  c #0A4411",
"s  c #0D4C12",
"d  c #144C13",
"f  c #144119",
"g  c #0E5315",
"h  c #0C551C",
"j  c #155717",
"k  c #0E440F",
"l  c #254718",
"z  c #21541D",
"x  c #0D641D",
"c  c #19651A",
"v  c #226819",
"b  c #2B7D1E",
"n  c #27731C",
"m  c #155223",
"M  c #1E4928",
"N  c #2A4D2B",
"B  c #0E6A22",
"V  c #136D25",
"C  c #0E7225",
"Z  c #0F7C29",
"A  c #137525",
"S  c #107827",
"D  c #117C29",
"F  c #177625",
"G  c #256629",
"H  c #2C7E21",
"J  c #396E24",
"K  c #575212",
"L  c #6D7011",
"P  c #584A24",
"I  c #515133",
"U  c #6D4926",
"Y  c #7C4F2E",
"T  c #745329",
"R  c #576826",
"E  c #496E25",
"W  c #77603E",
"Q  c #3F4842",
"!  c #3D6541",
"~  c #444545",
"^  c #565755",
"/  c #4D524C",
"(  c #675548",
")  c #6A5E52",
"_  c #557156",
"`  c #6D645C",
"'  c #72734C",
"]  c #567C6F",
"[  c #696768",
"{  c #7A797A",
"}  c #6F7371",
"|  c #545773",
" . c #9D7A17",
".. c #875A2D",
"X. c #8B5D3A",
"o. c #876532",
"O. c #936432",
"+. c #936F32",
"@. c #A77E32",
"#. c #9A7A5A",
"$. c #8D6B4C",
"%. c #A2784B",
"&. c #2D801F",
"*. c #1A8228",
"=. c #278726",
"-. c #308822",
";. c #2E9529",
":. c #2E992A",
">. c #3B9A26",
",. c #379A2A",
"<. c #3B993D",
"1. c #3DA028",
"2. c #53991F",
"3. c #4B8728",
"4. c #4F8E2C",
"5. c #649531",
"6. c #41A529",
"7. c #48A02B",
"8. c #52A424",
"9. c #6FAA23",
"0. c #3D954D",
"q. c #358C46",
"w. c #459745",
"e. c #479847",
"r. c #489848",
"t. c #489847",
"y. c #539E53",
"u. c #5C9A5D",
"i. c #528450",
"p. c #6D8958",
"a. c #5DA35D",
"s. c #628262",
"d. c #669966",
"f. c #778579",
"g. c #689576",
"h. c #62A463",
"j. c #6CAB6C",
"k. c #67A867",
"l. c #6FAD70",
"z. c #74A973",
"x. c #78B177",
"c. c #B99F19",
"v. c #919228",
"b. c #AB873B",
"n. c #B18D38",
"m. c #B5952A",
"M. c #ACA528",
"N. c #CCB911",
"B. c #CDB426",
"V. c #D3BA26",
"C. c #CAA638",
"Z. c #CDB435",
"A. c #DCB73B",
"S. c #B3C723",
"D. c #D2CD15",
"F. c #E3D417",
"G. c #F2ED07",
"H. c #F9F407",
"J. c #EBE10D",
"K. c #D4C020",
"L. c #EBDE24",
"P. c #E5CA37",
"I. c #FAF03C",
"U. c #8B815A",
"Y. c #AD8641",
"T. c #B48B48",
"R. c #BD9645",
"E. c #B08858",
"W. c #BFA05E",
"Q. c #978D6E",
"!. c #A58C6D",
"~. c #B69163",
"^. c #AE9475",
"/. c #B3A770",
"(. c #C89B46",
"). c #C9A645",
"_. c #D5A64B",
"`. c #D8BF5B",
"'. c #C7A675",
"]. c #DBC34A",
"[. c #D5C075",
"{. c #7F7E81",
"}. c #536AA6",
"|. c #2DA0C1",
" X c #78BFD5",
".X c #888987",
"XX c #9C9782",
"oX c #948D92",
"OX c #959896",
"+X c #A19998",
"@X c #8AA58A",
"#X c #86B889",
"$X c #93AC93",
"%X c #9AA69A",
"&X c #96B995",
"*X c #9BBC8F",
"=X c #B2AE84",
"-X c #9FBCA7",
";X c #A8AAA8",
":X c #A5BBA4",
">X c #B6B8AB",
",X c #C9AB86",
"<X c #D6B68D",
"1X c #D0B391",
"2X c #98C597",
"3X c #A7C8A7",
"4X c #BCC7BD",
"5X c #B6D5BA",
"6X c #E1C897",
"7X c #E9D19F",
"8X c #CEC7AA",
"9X c #C6CDB6",
"0X c #D9D6BD",
"qX c #D5D0B4",
"wX c #EACEA5",
"eX c #F1D5AA",
"rX c #F5DCB3",
"tX c #EEDAA5",
"yX c #FAE2BA",
"uX c #E0E8BA",
"iX c #C1C6C2",
"pX c #C5D5C6",
"aX c #DDE9DE",
"sX c #EBE5D2",
"dX c #E5E6E4",
/* pixels */
"r.r.r.r.t.t.r.e.r.l.l.5X0.=.6.6.-.s x G U O.'.*Xl.x.h.t.r.",
"r.r.t.r.r.e.e.r.#X3X2X2X<.:.6.6.&.g n 3.o.m.].7XwX0X3X7.t.",
"t.t.r.r.0.k.2X2X5Xq.;.6.1.1.6.6.&.j -.5.Y.D.F._.T.'.8X3Xh.",
"r.r.t.e.y.d.i.i.e.,.1.6.1.6.6.6.b d =.9.(.(.n.n.V.F.W.qXx.",
"t.r.t.l.:Xg.G F =.1.6.6.6.6.6.-.n n 9.S.P.M.(.T.P.K.B.[.8X",
"r.t.k.9Xs.h A ;.6.6.1.>.>.6.>.j c 8.D.H.H.P._._.T.m.G.B.%.",
"r.t.z.] G C A ;.6.6.b j j b >.j v 8.v.K.H.Z.b.O.Y._.H.c.Y ",
"t.e.u.M x Z Z =.;.;.n v v n H v J 5.M.V.D.).E.$.T.C.N.n.#.",
"y.h.d.z B Z Z D D D =.,.>.b d -.5.v.F.F.T.'.<X,XE.+.o.1Xx.",
"h.@X_ F C D D D D Z D =.c c V *.E b.F.L.'.6XwX<XW / XX&Xh.",
"a.i.s Z Z Z D D D D C B a g x v R T.F.I.6X,X^.~.y q &Xw.w.",
"u._ s C D S D D D D m d d d l P ..n.F.I.tX` 9 U - i $Xr.r.",
"/ M g C x g : a g g i./.=XQ.#.U X.(.B.`.yX>Xf.| [ $.^ ;Xl.",
". : s x a 2 N 0 , , p.7XyXyX<XX.+.A.b.~.yX5Xg.}.oX^.% .Xl.",
". : k k @ ~ @X~ X . P ~.tXyXeX$. .J. .%.yX0Xd.}.oX!.% .Xl.",
"  : , > _ ;X#X@X{ % # u ~.-X XXXC.G. .#.yXsX8X+X` ^ .XiXl.",
"q 2 2 Q %Xa.r.a.9XP 3 5 W ] |.=XP.D.@.%.eXyXqX^.( [ &Xy.r.",
"$X/ ~ $X&Xr.r.y.uXF.V.b.3 & 7 D.N.O.~.<X<X<X!.9 .X-X#Xe.r.",
"h.;X;Xk.0.t.e.y.0Xv.L P : + $ M.c.5 I ' ' ( ` .X4Xy.e.e.r.",
"y.l.j.y.t.t.r.y.4XQ % o < : > %.W O , d d $ N 4XaXr.e.e.r.",
"e.e.e.e.r.r.r.e.a.4X[ . , s V *.z + h C C C h 0 OXl.a.t.r.",
"e.e.e.e.r.r.e.r.w.#X{.  @ ! #X#X_ + h *.Z Z &.L U.;X3Xq.t.",
"r.r.r.r.r.r.r.r.u.3X} + o [ dXdX.X$ h Z Z V 2.D.K 0 ;X&X&X",
"r.r.e.r.r.r.r.y.:X^ M h & - ( ( i + h D S E R 3.2 + 9 q q ",
"e.r.r.e.r.w.a.%X{.7 1 a = e r e = o 0 J J R E F < o ; O   ",
"r.r.r.r.r.w.3X} @ B a X p Y Y u = $ r U U 3.;.F , # t *   ",
"r.r.r.r.e.w.3X} @ C 1 % #.,X,Xy : j H 4.3.7.H : 3 e t *   ",
"e.r.r.e.e.e.a.f.^ m > O ) !.Q.% @ j H :.;.H l ; - e e I / ",
"r.t.r.r.e.t.e.y.>X8   X O O X     . h A V 7 = - e 5 4 oXz.",
"r.r.t.r.t.t.r.y.4X4 O - - #         + > 2 ] _ = O q f.$Xh.",
"t.r.r.r.r.r.r.y.pX[ w - - # & ~ ^ / ^ / [ @Xd.[ / { &Xe.t.",
"t.r.r.r.r.r.r.r.h.$X{ o o   % ;Xz.u.u.u.u.u.y.u.u.d.a.t.t."
};
