/* XPM */
static char *up_2__[] = {
/* columns rows colors chars-per-pixel */
"26 32 219 2 ",
"   c #030C04",
".  c #070704",
"X  c #041506",
"o  c #051B06",
"O  c #09180A",
"+  c #1B1109",
"@  c #1B1A15",
"#  c #1A1C1A",
"$  c #0D0F0C",
"%  c #221A0E",
"&  c #241D19",
"*  c #062207",
"=  c #062C0D",
"-  c #062509",
";  c #09330B",
":  c #09360C",
">  c #082C12",
",  c #1C271E",
"<  c #083913",
"1  c #063316",
"2  c #18381B",
"3  c #152608",
"4  c #26211F",
"5  c #382419",
"6  c #2A330C",
"7  c #141B22",
"8  c #1A3B22",
"9  c #332C2C",
"0  c #383738",
"q  c #253230",
"w  c #452713",
"e  c #54361E",
"r  c #492E17",
"t  c #463123",
"y  c #423B36",
"u  c #503525",
"i  c #0C420D",
"p  c #16470D",
"a  c #0B4414",
"s  c #0C4C13",
"d  c #094618",
"f  c #1A4812",
"g  c #154112",
"h  c #0C5115",
"j  c #0D5519",
"k  c #0D5E1F",
"l  c #1A5B14",
"z  c #125A17",
"x  c #204C10",
"c  c #314D14",
"v  c #0E641E",
"b  c #16641C",
"n  c #216A19",
"m  c #286F1D",
"M  c #28791E",
"N  c #28771E",
"B  c #3C620C",
"V  c #0F5F20",
"C  c #2A4A2A",
"Z  c #374921",
"A  c #354E32",
"S  c #0E6C23",
"D  c #146B24",
"F  c #136422",
"G  c #0F7325",
"H  c #0F7928",
"J  c #117325",
"K  c #117827",
"L  c #117B29",
"P  c #1C7D25",
"I  c #267D21",
"U  c #326C2F",
"Y  c #564716",
"T  c #4A530E",
"R  c #744D1E",
"E  c #426F0E",
"W  c #5C452A",
"Q  c #455C24",
"!  c #57493B",
"~  c #4E4937",
"^  c #694923",
"/  c #7B4D29",
"(  c #6A5423",
")  c #6A533B",
"_  c #45602D",
"`  c #586122",
"'  c #1F3240",
"]  c #3D4E5F",
"[  c #047477",
"{  c #327A7E",
"}  c #585C58",
"|  c #4E4B4C",
" . c #645D55",
".. c #61574A",
"X. c #4D6D4D",
"o. c #556E48",
"O. c #5D7240",
"+. c #577657",
"@. c #4D704F",
"#. c #636E46",
"$. c #67784A",
"%. c #636059",
"&. c #427B7E",
"*. c #687369",
"=. c #656C78",
"-. c #757878",
";. c #606867",
":. c #847E0A",
">. c #855D35",
",. c #86572C",
"<. c #8C6836",
"1. c #946D3A",
"2. c #956839",
"3. c #9A743E",
"4. c #A57D3F",
"5. c #8B6743",
"6. c #976D4A",
"7. c #917454",
"8. c #A77E40",
"9. c #807D7A",
"0. c #31811F",
"q. c #188229",
"w. c #238B29",
"e. c #2A8F28",
"r. c #378A23",
"t. c #2B9229",
"y. c #3C9926",
"u. c #379928",
"i. c #2C823E",
"p. c #3DA229",
"a. c #769009",
"s. c #788E09",
"d. c #73AA15",
"f. c #489628",
"g. c #499628",
"h. c #41A529",
"j. c #59AE23",
"k. c #5AA729",
"l. c #459745",
"z. c #479847",
"x. c #489848",
"c. c #489847",
"v. c #509C4F",
"b. c #539C53",
"n. c #5A9D5A",
"m. c #519751",
"M. c #609F5F",
"N. c #65824E",
"B. c #59A259",
"V. c #63A15D",
"C. c #549462",
"Z. c #698967",
"A. c #768677",
"S. c #7E987C",
"D. c #67976E",
"F. c #54AC77",
"G. c #62A662",
"H. c #6CAB6C",
"J. c #76A974",
"K. c #7AB279",
"L. c #8A9910",
"P. c #86AD12",
"I. c #B4B80F",
"U. c #998C2C",
"Y. c #AF843E",
"T. c #B2A62E",
"R. c #CABE17",
"E. c #CBAE34",
"W. c #AFCD10",
"Q. c #B3CC18",
"!. c #D8DC05",
"~. c #D7C21F",
"^. c #D8ED08",
"/. c #D3E115",
"(. c #D4CD28",
"). c #B38E58",
"_. c #91A44B",
"`. c #80897E",
"'. c #A6836D",
"]. c #BA9464",
"[. c #A69A7C",
"{. c #B99778",
"}. c #89B47E",
"|. c #C2A27E",
" X c #C9AB64",
".X c #7D8786",
"XX c #829D86",
"oX c #9A9B9B",
"OX c #929694",
"+X c #8C898A",
"@X c #AE9481",
"#X c #88A786",
"$X c #8BBC8A",
"%X c #9BB78A",
"&X c #9DAC9D",
"*X c #9CB690",
"=X c #99BA98",
"-X c #8FAB8F",
";X c #BFA495",
":X c #A4B699",
">X c #A6B98E",
",X c #A5ACA4",
"<X c #A2B8A0",
"1X c #AFAEAB",
"2X c #CDB289",
"3X c #D8B78F",
"4X c #CCB695",
"5X c #D6BD95",
"6X c #C6B5A7",
"7X c #A4C29A",
"8X c #BCCEBA",
"9X c #BAD1B8",
"0X c #E5C79A",
"qX c #C0D1BE",
"wX c #D1CAB0",
"eX c #E6CEA3",
"rX c #D1D3C5",
"tX c #E1DAC7",
"yX c #DFE1D1",
/* pixels */
"x.x.c.x.c.c.c.b.H.=Xy e 4.8.4.3.,.4X#Xz.c.c.c.c.l.c.",
"c.x.c.c.c.c.l.G.rX`...U.R.~.~.E.4.|.wXK.l.c.c.c.c.c.",
"x.c.c.c.z.c.$X=X`.6 U.(.^.^.^./.E.T. XwX%X*Xb.x.c.c.",
"x.c.x.c.z.m.qX=.C r.g.j.j.j.j.j.k.W.(.).6.@XV.x.c.c.",
"x.c.x.x.l.D.7.A l n n n n n n b m d.P.` 1.].4X7Xl.c.",
"c.c.c.x.D.X.2 n M l l l l l b l l I I l T.E.).>Xl.x.",
"c.c.x.b.*.8 S z n y.y.y.f.y.y.y.u.n j I W.(.].>Xl.x.",
"c.b.n.M.} X s v q.p.h.h.h.p.h.p.h.r.N l B _.wX9Xn.x.",
"x.=XtXrX#.* h F P u.p.h.p.h.h.h.h.u.I g i N.}.tXyXH.",
"7X4X].2Xo.s D j j P u.p.p.p.h.h.p.w.D a : O.2X].5X7X",
"'.|.0XeXN.V G < < L q.w.w.p.p.p.w.q.V * : $.eX0X2X9.",
"7.{.3X5X` s k o 1 H H H q.t.u.t.L G j   : ` 5X5X{.7.",
"K.2X<.6._ a i X = S K K H L q.H L j ;   < _ 6.1.;X}.",
"M.*X[.5.{ [ d : = = s v q.H H H K < o 1 [ { 5.[.%XH.",
"l.c.#X) n..Xn s ; o - i v K H H L = $ Z .XM.! -Xg.c.",
"l.l.XXy U.I./ c f : X o s S K H G = + R I.L.y XXl.x.",
"x.l.=X<X$.Y 1.!.L.p ; o * i v J h o & <.Y O.:X=Xl.x.",
"x.l.l.n.oX .W ( L.s.s.E = = a v i o + ^  .&Xn.l.x.l.",
"l.x.x.b.$XS.0   T !.!.P.m O * : < * . # A.$Xb.l.x.x.",
"x.x.x.x.g.m.&X0 3 E c a.I.6 .   O d d # +.m.x.x.x.x.",
"x.x.x.l.l.J.+XA : h X T d.x X . < C.D.' ;.,Xn.l.x.l.",
"x.x.x.m.J.+.4 U i.k = a L L a = D -X1X] 7 } m.x.x.x.",
"x.x.x.b.-.9 9 ,X.X> h G H L J j d 8 t W & } m.l.x.x.",
"x.x..X*.~ w ^ +X=.$ c _ Q Q Q Q Y 2 1 5  .&Xn.l.l.x.",
"x.x.}.9 w R >.| ' $ Y ( ( ( ( ( ( U F , X.M.v.x.x.x.",
"x.z.`.q 5 6.4Xy O a r.g.g.g.f.f.f.f.e.D 8 *.m.c.x.x.",
"x.z.7X-X~ t ..& - D u.p.y.e.b f f f 2 g *.1XB.z.x.c.",
"x.z.G.K.9.0 0 0 C v M 0.I F 2 % % % + # Z.H.x.c.c.x.",
"x.x.l.b.qXqXqXrXOX, @ # @ , W <.1.3.^ 4 +.H.x.c.c.c.",
"x.x.x.x.x.x.x.B.-X+.@.X.X.@.! e ,.>.^ 5 | OXn.c.c.c.",
"x.x.x.x.x.x.x.x.z.z.x.z.l.z.-.! e r w 5 y .Xn.c.x.c.",
"x.l.x.x.x.x.x.x.z.x.x.x.c.c.H.1X& . . @ +.M.x.c.c.c."
};
