/* XPM */
static char *p2[] = {
/* columns rows colors chars-per-pixel */
"32 32 78 1 ",
"  c #0E1D2B",
". c #0D2132",
"X c #0B263A",
"o c #0A2B42",
"O c #0B2F49",
"+ c #0B324D",
"@ c #0B3552",
"# c #0B3857",
"$ c #0C3B5B",
"% c #103957",
"& c #103C5B",
"* c #0C3F61",
"= c #0C476D",
"- c #0D486F",
"; c #134466",
": c #13466A",
"> c #15496D",
", c #0E4A71",
"< c #104E76",
"1 c #114F78",
"2 c #13527C",
"3 c #1B557D",
"4 c #165783",
"5 c #175885",
"6 c #185986",
"7 c #1A5C89",
"8 c #1B608F",
"9 c #1C6393",
"0 c #1E6798",
"q c #1F699B",
"w c #20628E",
"e c #236592",
"r c #286A96",
"t c #216A9D",
"y c #2B6E9A",
"u c #2F719D",
"i c #226EA1",
"p c #2472A6",
"a c #2871A4",
"s c #2675AA",
"d c #2979AF",
"f c #3275A0",
"g c #397CA7",
"h c #3B7EA9",
"j c #2A7BB3",
"k c #317FB3",
"l c #3E81AC",
"z c #2D82BB",
"x c #3281B5",
"c c #3284BB",
"v c #3A89BE",
"b c #4083AE",
"n c #498DB7",
"m c #458EBD",
"M c #4A8EB9",
"N c #4E93BD",
"B c #3087C2",
"V c #318AC6",
"C c #338ECD",
"Z c #3691CE",
"A c #3D94CE",
"S c #3591D0",
"D c #4491C4",
"F c #4892C2",
"G c #4296CD",
"H c #4996C8",
"J c #4598CE",
"K c #4B9BCE",
"L c #5196C0",
"P c #529FCF",
"I c #55A0CF",
"U c #5BA3CE",
"Y c #54A0D0",
"T c #5CA4D0",
"R c #62A6CF",
"E c #61A7D0",
"W c #62A8D1",
"Q c None",
/* pixels */
"QQQQQQQQQQQTYTTYTUTITQQQQQQQQQQQ",
"QQQQQQQQQTWDzczcczcZGYYQQQQQQQQQ",
"QQQQQQQGJFnu6777779jjjvPYQQQQQQQ",
"QQQQQQCKTh566222222665iCKWQQQQQQ",
"QQQQCGKmhr622,-,-,,2269ixKPEQQQQ",
"QQQQCJEb6661--,,,-,,,665pCKEQQQQ",
"QQZAPNue6661-,2ps2,,26667txJPWQQ",
"QQCAEn6662,12szBBdjzs,2666sCPEQQ",
"QQCGWn76642sBzj>##:zd44666sSPEQQ",
"QQAGLl766sVBj:+Ooo+,8Vd666icHTQQ",
"QQEN77652sS0,@oooo+=4di24677jZIR",
"CAEN76670ip6-+oXXo+-,-,-1666jZIR",
"CAEN766pSq-*#Oo  X+#*-,-1666jSUE",
"CAEN766905-@oX   ..o+-,,2666jSIR",
"CATN7ej0--,@X.    .X+-6dt776jZIR",
"CAEN7tCi,-,@o.    .o+,16izi6jZIR",
"CAEN779721-@o.     X+-,=0Ss6jZIU",
"CAEN764iV9-@o     .X+---qSp5jZIW",
"CARN766pSq-@X..  ..o+-,-qSs5jZIW",
"CAUN766pSd9-@Oo  Xo@$---qSs5jZIW",
"CAUN7669pzZd0&o.o36:,,--qSs6jZIW",
"QJWN7664270zCaeee63,--5ppp97jZIR",
"QQJHNg6551=59zV7>OO=,,0Zs6tjDIUQ",
"QQCGWm65541-->;OXO+:4ss096sSIRQQ",
"QQCAEn666ij92-*O+:<,<66655sCPRQQ",
"QQCGTmrw679ps94:>sp,<44679kAPEQQ",
"QQQQZGUb55621iddp2<-,666iVKTQQQQ",
"QQQQCGPnfe621,,,,,-<267tkJPEQQQQ",
"QQQQQQCKWh566212222455tCKRQQQQQQ",
"QQQQQQQGKmlr6666667sdscKPQQQQQQQ",
"QQQQQQQQQGJvjjjjjjzCAPYQQQQQQQQQ",
"QQQQQQQQQQQPYYYYUIPPIQQQQQQQQQQQ"
};
