/* XPM */
static char *p4[] = {
/* columns rows colors chars-per-pixel */
"32 32 85 1 ",
"  c #0E1D2B",
". c #0D2030",
"X c #0B263B",
"o c #0B293F",
"O c #0A2A42",
"+ c #0A2F48",
"@ c #0B314C",
"# c #0C3653",
"$ c #0E3957",
"% c #0E3D5E",
"& c #133A57",
"* c #113F5F",
"= c #0C3F61",
"- c #0D4266",
"; c #0C466C",
": c #0D486F",
"> c #154465",
", c #154669",
"< c #16496D",
"1 c #0E4A72",
"2 c #104E76",
"3 c #114F78",
"4 c #1A5076",
"5 c #13527D",
"6 c #1B557E",
"7 c #155682",
"8 c #1C5780",
"9 c #175985",
"0 c #185986",
"q c #175B88",
"w c #1A5C8A",
"e c #205E89",
"r c #1C608E",
"t c #1D6494",
"y c #1E6798",
"u c #1F6A9B",
"i c #246592",
"p c #286A96",
"a c #216B9E",
"s c #2B6D99",
"d c #2E709C",
"f c #226EA1",
"g c #2471A5",
"h c #2674A9",
"j c #2977AD",
"k c #2778AF",
"l c #3276A2",
"z c #3B7EAA",
"x c #2A7CB3",
"c c #3E81AC",
"v c #2F80B7",
"b c #2F82BB",
"n c #3385BC",
"m c #3A89BD",
"M c #4184AF",
"N c #4386B1",
"B c #478BB5",
"V c #498DB7",
"C c #4A8DB8",
"Z c #4690BF",
"A c #4F93BD",
"S c #2E85C0",
"D c #3086C1",
"F c #3189C5",
"G c #3E8DC1",
"H c #338ECC",
"J c #3590CE",
"K c #3D94CE",
"L c #3592D0",
"P c #4692C4",
"I c #4A94C2",
"U c #4296CE",
"Y c #4699CE",
"T c #4B9BCE",
"R c #5296C0",
"E c #529ECE",
"W c #599EC8",
"Q c #56A0CF",
"! c #5BA3CE",
"~ c #57A1D0",
"^ c #5EA5D0",
"/ c #62A6CF",
"( c #61A7D0",
") c #63A8D1",
"_ c None",
/* pixels */
"_________^(PSSSSDSDJU~^_________",
"_______KUIRlwwrwwryxDDPE~_______",
"______HY)zwqq777779w00fJT(______",
"_____KYPCd9771:::12379yxGEQ_____",
"____HY)N0q031::1::1:2000gJE)____",
"___KYIMs9003:11yy2::2000yhmTQ___",
"__HU(C0995511yhFHhffu37099hHE/__",
"__HU(Cq0751ykFFw44eHx23099jJE/__",
"__JU/B009fxDH0,+Oo@9yxf999hHE(__",
"__QIsi097jLf7#OOOO@;qFx999rinUQ/",
"HK(A00097gFt;@OOOO+:17513990xJE/",
"HK/Aw00fFu3:-@O  o+-;1:13w00xJQ/",
"HK^Aw07abt;#+OX  XOO#::13000xJQ/",
"HK(Awwaw111#O.    .O@:3ww799xJQ/",
"HK(AwaHf1:1#O.     O@:9jhat9xJQ/",
"HK^Awtxt:1:#O      O@:1:aJh0xJQ/",
"HK(Aw09tf9<#o.     X@11:uJgqxJQ/",
"HK(Aw99gLu:#O      O@:::uJh9xLQ/",
"HK(Ae99hHu2#OXX  XXO@:1:uHh9xJQ/",
"HK(A09wfHSx0>@O. +#=-:1:uLg9xJE/",
"HK(Aw999qhHbx2@@&aa1:112aFg0xJQ/",
"__!Iie09777hDbxja>%<::rSjtrrvKQ/",
"__JYWNq9q2:15hx,#O+;15uFh9gFT!__",
"__HU)Cqqqqq2:%$+O@#;7xgwq9jJE/__",
"__HU(V990fxaw2-++qq1235999hJE)__",
"__HUEPlp90wahat88ff12999tanYW(__",
"____HY)M9993:yhff3<:2799fHT/____",
"_____UTZcs9531::::2359thmTE_____",
"______HY)z9q07375579q0fHY/______",
"_______UYPVs00w0qqrkxxmEQ_______",
"_________UYFxDnnnxDJY~~_________",
"___________E~~~~~~~WQ___________"
};
