/* XPM */
static char *p32[] = {
/* columns rows colors chars-per-pixel */
"26 32 129 2 ",
"   c #4A4B4E",
".  c #4B4C4E",
"X  c #4C4D4F",
"o  c #4F5052",
"O  c #545557",
"+  c #565758",
"@  c #565759",
"#  c #5D5F61",
"$  c #5E6062",
"%  c #616264",
"&  c #6E6F71",
"*  c #757677",
"=  c #7B7C7D",
"-  c #7D7E7F",
";  c #B12236",
":  c #B22439",
">  c #B22539",
",  c #B2253A",
"<  c #B2263A",
"1  c #B2263B",
"2  c #B3273B",
"3  c #B3273C",
"4  c #B3283C",
"5  c #BC2B3D",
"6  c #C12B3D",
"7  c #C92D3E",
"8  c #C82F3F",
"9  c #B62E42",
"0  c #B63044",
"q  c #CF3040",
"w  c #CE3141",
"e  c #CF3747",
"r  c #BF4A5B",
"t  c #C04C5D",
"y  c #D04F5D",
"u  c #C15060",
"i  c #C35565",
"p  c #CA5463",
"a  c #C45969",
"s  c #C55A69",
"d  c #C65B6B",
"f  c #C75E6D",
"g  c #C86371",
"h  c #C96775",
"j  c #CC6E7C",
"k  c #D16E7B",
"l  c #D06F7C",
"z  c #D3717D",
"x  c #CE7582",
"c  c #D17C88",
"v  c #808183",
"b  c #818284",
"n  c #838486",
"m  c #8A8B8C",
"M  c #8D8D8F",
"N  c #8E8F90",
"B  c #949596",
"V  c #979798",
"C  c #969899",
"Z  c #9C9C9D",
"A  c #9C9C9E",
"S  c #9C9D9E",
"D  c #9C9E9F",
"F  c #9FA0A1",
"G  c #A1A2A3",
"H  c #A5A6A7",
"J  c #A7A8A9",
"K  c #A8ABAC",
"L  c #BCABAE",
"P  c #AFB1B2",
"I  c #B4B4B5",
"U  c #B7B8B8",
"Y  c #BBBBBC",
"T  c #BCBCBD",
"R  c #BCBDBD",
"E  c #BDBDBE",
"W  c #D5828E",
"Q  c #D08E97",
"!  c #D48D97",
"~  c #D88B95",
"^  c #D88D97",
"/  c #DD8F99",
"(  c #CC9FA6",
")  c #DB99A3",
"_  c #DDA0A8",
"`  c #DEA2AA",
"'  c #DEACB3",
"]  c #C7BDBF",
"[  c #E0A7B0",
"{  c #E7B8BF",
"}  c #CACACB",
"|  c #CACDCE",
" . c #CECECF",
".. c #D6C1C4",
"X. c #D8C9CC",
"o. c #D0D1D1",
"O. c #D1D1D1",
"+. c #DCDCDC",
"@. c #EBC8CD",
"#. c #DEE0E0",
"$. c #E3E0E1",
"%. c #E4E6E6",
"&. c #ECE5E6",
"*. c #EEE6E7",
"=. c #EAEAEA",
"-. c #EAEBEB",
";. c #EEE8E9",
":. c #EEECED",
">. c #EFEDED",
",. c #ECEEEE",
"<. c #F8EAEC",
"1. c #FAECEE",
"2. c #FAEFF1",
"3. c #F0F0F0",
"4. c #F1F0F0",
"5. c #F7F7F7",
"6. c #F9F0F1",
"7. c #FDF3F5",
"8. c #FEF7F8",
"9. c #F8F8F8",
"0. c #F9F9F9",
"q. c #FBF8F9",
"w. c #FAFAFA",
"e. c #FEFAFB",
"r. c #FDFCFC",
"t. c #FEFDFD",
"y. c #FEFEFE",
"u. c #FFFFFF",
"i. c #489848",
/* pixels */
"i.i.i.i.i.i.i.i.i.i.i.i.i.i.i.i.i.i.i.i.i.i.i.i.i.i.",
"i.i.i.i.i.i.i.i.i.i.i.i.i.i.i.i.i.i.i.i.i.i.i.i.i.i.",
"i.i.i.i.i.i.i.i.i.i.i.i.i.i.i.i.i.i.i.i.i.i.i.i.i.i.",
"i.i.i.i.i.i.i.i.i.i.i.i.i.i.i.i.i.i.i.i.i.i.i.i.i.i.",
"i.i.i.i.i.i.i.i.i.i.i.i.i.i.i.i.i.i.i.i.i.i.i.i.i.i.",
"i.i.i.i.i.i.i.i.i.i.i.i.i.i.i.i.i.i.i.i.i.i.i.i.i.i.",
"i.i.i.i.i.i.i.i.i.i.i.i.i.i.i.i.i.i.i.i.i.i.i.i.i.i.",
"i.i.i.i.i.i.i.i.i.i.i.i.i.i.i.i.i.i.i.i.i.i.i.i.i.i.",
"i.i.i.i.i.i.i.i.i.i.i.i.i.i.i.i.i.i.i.i.i.i.i.i.i.i.",
"i.i.i.i.i.i.i.i.i.i.O $ % % # i.i.i.i.i.i.i.i.i.i.i.",
"i.i.i.i.i.i.i.i.i.i.N O o o @ V i.i.i.i.i.i.i.i.i.i.",
"i.i.i.i.i.i.i.i.i.G O.} T T  .T S i.i.i.i.i.i.i.i.i.",
"i.i.i.i.i.i.i.i.i.i.I u.u.u.u.M i.i.i.i.i.i.i.i.i.i.",
"i.i.i.i.i.i.i.i.i.i.S u.u.u.w.- i.i.i.i.i.i.i.i.i.i.",
"i.i.i.i.i.i.i.i.i.S Y u.u.u.w.H B i.i.i.i.i.i.i.i.i.",
"i.i.i.i.i.b U +.3.w.u.u.u.u.u.u.5.=.O.H & i.i.i.i.i.",
"i.i.i.@ F =.u.u.u.u.u.u.u.u.u.u.u.e.8.w.#.m O i.i.i.",
"i.i.  M 9.2.2.u.u.u.u.u.u.<.@._ c g a h { 3.=   i.i.",
"i.i.X P <.f p z ^ _ [ ) x r 0 4 : : : ; u 7.G . i.i.",
"i.i.i.v &.z 7 q w 5 2 : : : 4 4 2 2 : 2 W $.* i.i.i.",
"i.i.i.i.C X.^ y e w 5 : : : : : : 9 t Q ] n i.i.i.i.",
"i.i.i.i.i.i.T ..' / k a i i d j ! ( L D i.i.i.i.i.i.",
"i.i.i.i.i.i.i.i.| >.>.;.*.*.;.>.%.K i.i.i.i.i.i.i.i.",
"i.i.i.i.i.i.i.i.i.i.i.i.i.i.i.i.i.i.i.i.i.i.i.i.i.i.",
"i.i.i.i.i.i.i.i.i.i.i.i.i.i.i.i.i.i.i.i.i.i.i.i.i.i.",
"i.i.i.i.i.i.i.i.i.i.i.i.i.i.i.i.i.i.i.i.i.i.i.i.i.i.",
"i.i.i.i.i.i.i.i.i.i.i.i.i.i.i.i.i.i.i.i.i.i.i.i.i.i.",
"i.i.i.i.i.i.i.i.i.i.i.i.i.i.i.i.i.i.i.i.i.i.i.i.i.i.",
"i.i.i.i.i.i.i.i.i.i.i.i.i.i.i.i.i.i.i.i.i.i.i.i.i.i.",
"i.i.i.i.i.i.i.i.i.i.i.i.i.i.i.i.i.i.i.i.i.i.i.i.i.i.",
"i.i.i.i.i.i.i.i.i.i.i.i.i.i.i.i.i.i.i.i.i.i.i.i.i.i.",
"i.i.i.i.i.i.i.i.i.i.i.i.i.i.i.i.i.i.i.i.i.i.i.i.i.i."
};
