/* XPM */
static char *tree[] = {
/* columns rows colors chars-per-pixel */
"26 32 179 2 ",
"   c #272828",
".  c #2E2C29",
"X  c #302F2B",
"o  c #26362A",
"O  c #28332A",
"+  c #2C3029",
"@  c #28352A",
"#  c #28362A",
"$  c #26392B",
"%  c #273E2B",
"&  c #273F2C",
"*  c #28382B",
"=  c #28392B",
"-  c #283A2B",
";  c #2B3B2B",
":  c #283D2B",
">  c #2C382C",
",  c #2E3A2C",
"<  c #2B3C2D",
"1  c #2A3E2D",
"2  c #2C3D2D",
"3  c #31322A",
"4  c #37332A",
"5  c #3A362B",
"6  c #333C2C",
"7  c #313F2C",
"8  c #3A382B",
"9  c #423A2B",
"0  c #413A2C",
"q  c #413B2C",
"w  c #423A2C",
"e  c #433B2D",
"r  c #40392E",
"t  c #443C2C",
"y  c #473E2C",
"u  c #473E2D",
"i  c #483F2C",
"p  c #473F32",
"a  c #27472D",
"s  c #28402C",
"d  c #28422C",
"f  c #2F412F",
"g  c #2B452D",
"h  c #28462D",
"j  c #2B472E",
"k  c #2F442D",
"l  c #2E462F",
"z  c #27492D",
"x  c #27492E",
"c  c #274A2E",
"v  c #274D2E",
"b  c #284B2E",
"n  c #284C2E",
"m  c #33432C",
"M  c #27512F",
"N  c #27532F",
"B  c #27562F",
"V  c #28542F",
"C  c #28552F",
"Z  c #28562F",
"A  c #2F4430",
"S  c #2F4930",
"D  c #354530",
"F  c #314A31",
"G  c #314D32",
"H  c #334D33",
"J  c #275130",
"K  c #285131",
"L  c #285430",
"P  c #285431",
"I  c #285730",
"U  c #275931",
"Y  c #285830",
"T  c #285930",
"R  c #285931",
"E  c #285A32",
"W  c #285B32",
"Q  c #285A33",
"!  c #285B33",
"~  c #285A34",
"^  c #285C34",
"/  c #285D35",
"(  c #2A5F35",
")  c #285E36",
"_  c #285F36",
"`  c #285E37",
"'  c #285F37",
"]  c #315336",
"[  c #345434",
"{  c #345535",
"}  c #355635",
"|  c #375937",
" . c #286038",
".. c #286138",
"X. c #286139",
"o. c #28623A",
"O. c #28633B",
"+. c #2C6338",
"@. c #2C6538",
"#. c #2D663B",
"$. c #28643C",
"%. c #28653D",
"&. c #28663D",
"*. c #28663E",
"=. c #28673F",
"-. c #3D6037",
";. c #386038",
":. c #35773E",
">. c #35773F",
",. c #3E773E",
"<. c #3F783F",
"1. c #3F7A3F",
"2. c #4A402D",
"3. c #4D422D",
"4. c #4D432D",
"5. c #4E422D",
"6. c #4E432D",
"7. c #4C422E",
"8. c #4E432E",
"9. c #4F462F",
"0. c #50442E",
"q. c #54482E",
"w. c #424630",
"e. c #4E4830",
"r. c #5B4D31",
"t. c #5B4E32",
"y. c #5D4E30",
"u. c #5C4E32",
"i. c #5E4F32",
"p. c #445C36",
"a. c #415D39",
"s. c #5F5032",
"d. c #5B5235",
"f. c #615131",
"g. c #675532",
"h. c #675633",
"j. c #615234",
"k. c #675635",
"l. c #685634",
"z. c #685736",
"x. c #6A5836",
"c. c #6C5A35",
"v. c #715E39",
"b. c #735E39",
"n. c #766239",
"m. c #7E683D",
"M. c #7D683E",
"N. c #286840",
"B. c #3F7F40",
"V. c #5A6841",
"C. c #417E41",
"Z. c #417F41",
"A. c #467D40",
"S. c #6E6741",
"D. c #726441",
"F. c #8D7647",
"G. c #3A8142",
"H. c #418041",
"J. c #418241",
"K. c #428242",
"L. c #408442",
"P. c #438C45",
"I. c #418D46",
"U. c #428F47",
"Y. c #458C45",
"T. c #458E45",
"R. c #449247",
"E. c #459447",
"W. c #469547",
"Q. c #479547",
"!. c #469647",
"~. c #479647",
"^. c #459448",
"/. c #459548",
"(. c #479748",
"). c #489648",
"_. c #489848",
"`. c #489948",
"'. c #9B8153",
/* pixels */
"_._._._._.).Q.,.l = K  .o.o. .N = l <.Q.Q._._._._._.",
"_._._._.Z.{ F j Z / =.$.o.o.$.=./ K l F { Z._._._._.",
"_._._.<.2 z J ~ $.=. .Y Y Y Y / =.=.U J b 2 ,._._._.",
"_._.T.A b / =.=.$.^ Y  .$.$./ E E o.=.=./ b f T._._.",
"_.T.H = E =.=./ Y Y  .=.o.o.=. .E Z / =.=.E = H R._.",
"Q.{ : N =.=. .Z ^ $.$./ ^ ^ / =.o.^ Y  .=.$.N % { Q.",
"1.1 Z o.N.o.Y E $.=./ / =.=./ ^ =.$.Y Y $.N.o.Z 2 1.",
"H n E =.=.^ Y Y =.=.^  .=.=. .^ =.=.E Y ^ =.=.E n H ",
"# Z  .=.$.E Y Y o.=./ E  . .Y ^ =.o.Y Y E $.=. .Z # ",
"# Z o.N.o.Y Y Y E $.$.E Z Y ^ $.$.E Y Y Y $.N. .Z # ",
"# Z o.=. .Y Y Y Y / =.=. . .=.=./ Y Y Y Y  .N.$.Z # ",
"# Z o.N. .Y Y Y Y Y o.=.=.=.=.o.E Y Y Y Y  .=. .Z # ",
"# Z / =.=.E Y Y Y Y Y / $.$./ E Y Y Y Y ^ $.=./ Z # ",
"O N Y  .=.$.^ E Y Y Y Y Y Y Y Y Y Y Y ^ $.=.o.Y N O ",
"f n Y E o.=.=.$.^ Z Y Y Y Y Y Y Y ^ $.=.=.$.E Y b f ",
";.: Y Y E =.=.N.=.^ Y Y Y Y Y Y ^ =.N.=.$.E Y Y d | ",
"H.2 N E U _ *.N.=.=.^ E E Y Y / =.N.N.=.' E I N 1 Z.",
"Q.[ : I I U  .*.N.=.=.$.o.$.$.=.=.=.=. .I U I % [ Q.",
"_.H.= : Z E T U / o.=.=.=.N.N.=.o./ ^ Y I I s > H._.",
"_.Q.| X a Y T T Y E ^ $.=.=.o.^ Y Y Y Y U j 3 | Q.(.",
"_.A.S.p o Z Y T Y Y Y Y E ^ Y Y Y Y Y Y Z $ p S.A.(.",
"Q.p.v.r   # j z b n Y Y Y Y Y Y n b z a o   8 n.p.Q.",
"_.1.m +   . 5 5 9 3 : l d d l : 3 q 5 5 .   . m B.(.",
"_.Q.#.K = 4 u i g.z.9 0.i 7.8.e x.g.i i 4 = N +./._.",
"_.(.:.T k y.n.u.0.c.f.s.g.g.f.f.c.q.u.n.s.k U >.(._.",
"_.`.I. .m 4.l.n.4.y.u.u 4.4.q t.y.8.n.z.4.m  .I._._.",
"_._.(.-.D.v.8.f.i 9 9 t.x.c.t.9 9 i f.8.v.n.-.Q._._.",
"_._.Q.V.'.m.9 8 7 o 9 g.x.x.h.9 $ 7 8 u D.'.V.Q._._.",
"_._._.a.d.e., z B N 7 4.t.u.4.7 N Z z , e.d.a./._._.",
"_._._.T.H.L.G.>.#.~ b 0.F.F.8.z ^ @.:.L.H.L.T._._._.",
"_._._.`.`.`.`._.R.G.#.w.m.m.w.#.G.R.(._._._._._._._.",
"_._._._._._._._._.(.U.] 7.4.] R._._._._._._._._._._."
};
