/* XPM */
static char *tree50[] = {
/* columns rows colors chars-per-pixel */
"26 32 78 1 ",
"  c #262827",
". c #272928",
"X c #2E2C28",
"o c #27362A",
"O c #29352A",
"+ c #273B2B",
"@ c #2A3C2B",
"# c #31332A",
"$ c #3A362B",
"% c #333D2C",
"& c #3A382B",
"* c #433C2C",
"= c #483F2D",
"- c #473F30",
"; c #27432C",
": c #2B432D",
"> c #274A2E",
", c #284A2E",
"< c #34442D",
"1 c #27502F",
"2 c #28522F",
"3 c #2F4730",
"4 c #304730",
"5 c #334C33",
"6 c #275430",
"7 c #285630",
"8 c #275A34",
"9 c #285A33",
"0 c #285F38",
"q c #335534",
"w c #325834",
"e c #3A5A37",
"r c #296037",
"t c #27613A",
"y c #28643C",
"u c #29683F",
"i c #376037",
"p c #386038",
"a c #36773E",
"s c #3E763E",
"d c #3E783E",
"f c #414723",
"g c #4D432E",
"h c #50462E",
"j c #55482F",
"k c #434730",
"l c #484031",
"z c #4E4B31",
"x c #5C4E31",
"c c #455F37",
"v c #5D5333",
"b c #655433",
"n c #685735",
"m c #6B5935",
"M c #6F5C38",
"N c #705D39",
"B c #416239",
"V c #4F663E",
"C c #5A693F",
"Z c #40773F",
"A c #6B673E",
"S c #746039",
"D c #7B663D",
"F c #286840",
"G c #3E7D40",
"H c #5A6941",
"J c #427D40",
"K c #716341",
"L c #8C7547",
"P c #977E50",
"I c #987E51",
"U c #3D8042",
"Y c #418041",
"T c #428B45",
"R c #469347",
"E c #479648",
"W c #489748",
"Q c #489848",
/* pixels */
"QQWQQRRVf;1rttt2+>aRRWWWWW",
"QQQWJw5570tttttt82,qwGWWWW",
"QQQs@>,8ru09999ryt91>3ZWWQ",
"WQT4>0yFt990tyr98yyt9,4TQQ",
"QT5@8yy099ttttu0999Fu9+qTQ",
"Ww@7yFt79tu0r90uy999yt7@wR",
"J@6tFt99ru90tu9rFy89yFt7:d",
"5,9yF997tu00uu09yy999Fy9,5",
"+7tyr999rur90090ur929yFr7O",
"o7tFr9929yy99990r9792tFt9O",
"o6tFr9927ruy00tur9999rFr7o",
"O7yF999977tuuuur99299tFy7o",
"o79yy999799rrrr727798yF96o",
"o69ruy89797799977799yyt96O",
":,99tuuy999799797rruFt79,<",
"e;299yuuy99979779uuuy997:e",
"Z:1998uuuu989999yuuu9991;Z",
"Rq;299ryuuuutyyuuuur992;qE",
"QY@;29299ryuuuuur99777;@YQ",
"QRe#;999799yuyr999979:#wRQ",
"WZSgo1997999999979777ogAZE",
"RBS&.o:,>>2999921>>;o *SBR",
"QZ5#.X$$f#@;;;:OO&&$X O<ZQ",
"QRr2o$==bb*hggg=bbgg$o1rEQ",
"QQa9:xSxjmbxbbxbmjvSx<9aQQ",
"QQTr<hnShxj=hh=jxgSmg<rTQQ",
"QQRBSNhxg&*xmmx**=vgMSpQQQ",
"QQRCID*&@o*bnnb*o%&*DICRQQ",
"QQEBvz@,71%gxvg%22,:jvBQQQ",
"QQQTYYUGy8,jLLj,9yaYYYTQQQ",
"QQQQQQQQRGykDDkyUTEQQQQQQQ",
"QQQQQQQQQETwggwTQQQQQQQQQQ"
};
