/* XPM */
static char *down_4__[] = {
/* columns rows colors chars-per-pixel */
"24 32 220 2 ",
"   c #0A0703",
".  c #130C07",
"X  c #181509",
"o  c #181B13",
"O  c #25160E",
"+  c #2B1B14",
"@  c #022109",
"#  c #153816",
"$  c #1A2B14",
"%  c #2D2819",
"&  c #332A16",
"*  c #201E22",
"=  c #1F3824",
"-  c #372F29",
";  c #383427",
":  c #2E3B34",
">  c #3C3D3C",
",  c #363734",
"<  c #2E2B28",
"1  c #44281A",
"2  c #452817",
"3  c #57331A",
"4  c #522F1B",
"5  c #66391D",
"6  c #5D3921",
"7  c #433B35",
"8  c #523120",
"9  c #703F20",
"0  c #603B20",
"q  c #0B4415",
"w  c #0E4B18",
"e  c #16481A",
"r  c #1A5616",
"t  c #0F541B",
"y  c #225617",
"u  c #1D661E",
"i  c #2B681C",
"p  c #165026",
"a  c #254524",
"s  c #364A30",
"d  c #0D6B23",
"f  c #0F7828",
"g  c #117C29",
"h  c #167726",
"j  c #297828",
"k  c #3C7B38",
"l  c #386631",
"z  c #4C4A03",
"x  c #48401B",
"c  c #435E29",
"v  c #55473D",
"b  c #5C4C3B",
"n  c #474134",
"m  c #624824",
"M  c #774B2B",
"N  c #7A573A",
"B  c #6B5330",
"V  c #476721",
"C  c #656822",
"Z  c #3F3F40",
"A  c #484A4A",
"S  c #565249",
"D  c #505550",
"F  c #6C554A",
"G  c #556E4F",
"H  c #786345",
"J  c #796653",
"K  c #4A5261",
"L  c #605C70",
"P  c #5F7F60",
"I  c #5D757B",
"U  c #56627C",
"Y  c #6B6C6C",
"T  c #6A766C",
"R  c #6E7171",
"E  c #777578",
"W  c #776E68",
"Q  c #865B34",
"!  c #855B2A",
"~  c #8D6037",
"^  c #93683C",
"/  c #9B732C",
"(  c #A57C3D",
")  c #A17C25",
"_  c #93704C",
"`  c #A4794B",
"'  c #A37E5C",
"]  c #8A796C",
"[  c #16822A",
"{  c #1E8125",
"}  c #2A8C27",
"|  c #3D9C29",
" . c #369528",
".. c #3FA028",
"X. c #709E18",
"o. c #77A918",
"O. c #439A2B",
"+. c #528B36",
"@. c #748934",
"#. c #40A128",
"$. c #498C46",
"%. c #459745",
"&. c #479847",
"*. c #489848",
"=. c #528F52",
"-. c #578656",
";. c #549655",
":. c #4F9C50",
">. c #5CA15C",
",. c #679D67",
"<. c #7A9E79",
"1. c #729066",
"2. c #67A767",
"3. c #7AB27A",
"4. c #7CAF7C",
"5. c #86BD16",
"6. c #ADB114",
"7. c #839F2F",
"8. c #AC8936",
"9. c #B28B35",
"0. c #B89735",
"q. c #A78526",
"w. c #8AA22C",
"e. c #92AB27",
"r. c #BFA22E",
"t. c #B0921C",
"y. c #D1BB1D",
"u. c #C4B118",
"i. c #C39E35",
"p. c #CEB523",
"a. c #D2BD22",
"s. c #D0B428",
"d. c #C5AA32",
"f. c #CBAF2F",
"g. c #AAC514",
"h. c #AED612",
"j. c #B0DA10",
"k. c #D9C81A",
"l. c #CBD609",
"z. c #E4DC08",
"x. c #E5D814",
"c. c #F1E90C",
"v. c #F9F506",
"b. c #ECE114",
"n. c #F2E712",
"m. c #D7C323",
"M. c #E4CC28",
"N. c #EAD327",
"B. c #F0DA25",
"V. c #E6C733",
"C. c #E6D33D",
"Z. c #A88649",
"A. c #B68A46",
"S. c #A68259",
"D. c #B18957",
"F. c #ABAE40",
"G. c #9D8469",
"H. c #A98868",
"J. c #BA9668",
"K. c #BE9B77",
"L. c #B38E69",
"P. c #81A774",
"I. c #80B77E",
"U. c #A2A961",
"Y. c #CAA041",
"T. c #D3A44C",
"R. c #DFB445",
"E. c #C09971",
"W. c #C4A379",
"Q. c #DCC240",
"!. c #4A5C8E",
"~. c #6177A8",
"^. c #536D9F",
"/. c #817E82",
"(. c #289BBF",
"). c #43899A",
"_. c #7C8981",
"`. c #409FB0",
"'. c #8C8C89",
"]. c #899B8A",
"[. c #8A9189",
"{. c #989894",
"}. c #928F92",
"|. c #B39985",
" X c #82A183",
".X c #8EBD8D",
"XX c #89B389",
"oX c #97A998",
"OX c #95BD95",
"+X c #98B096",
"@X c #ABAFAE",
"#X c #8F9CB3",
"$X c #C9AB85",
"%X c #CAB489",
"&X c #D5B58C",
"*X c #D9BA8E",
"=X c #D7B993",
"-X c #C7BDB8",
";X c #B3C5B2",
":X c #B9C9BA",
">X c #BAC8B6",
",X c #AAC9AF",
"<X c #DFC49F",
"1X c #E1C39A",
"2X c #E7C582",
"3X c #CBC8BC",
"4X c #D7C9BE",
"5X c #CACAAF",
"6X c #E9CDA6",
"7X c #F3D8AF",
"8X c #F3D9B0",
"9X c #ECD1A9",
"0X c #FCE4BB",
"qX c #94A4C0",
"wX c #BABFCE",
"eX c #CCD7C5",
"rX c #CFD3C5",
"tX c #E9DDCD",
"yX c #DCE5D8",
"uX c #FEEDCE",
/* pixels */
"*.*.%.*.*.&.>.:X, q g g f g t $ oX<.>.%.*.*.&.*.",
"*.*.*.*.*.%. XR p d g g g g d t l @X.X%.&.&.*.*.",
"*.*.*.%.>._.G # d g g g g f f f q D _.>.:.&.*.&.",
"&.*.*.>.,XR # d [ [ g [ [ [ [ [ [ w A ,X,X*.*.*.",
"*.*.*.;XD p h | ..| O...#.| | O...[ p s oX*.&.*.",
"&.*.&.>X, t O.@.g.e.w.h.j.j.j.h.7.O.d o {.*.&.&.",
"*.*.2.[.a l w.d.k.p.k.v.z.c.v.x.s.r.$.a T _.3.&.",
"eXeX{.; u C r.c.d.y.v.v.i.k.x.0.k.C.U.j # ] yXeX",
"E.&XL.m m ( V.v.c.N.N.n.i.y.x.9.9.M.m.C 3 ' &XK.",
"~ W.1XE.^ d.n.v.B.B.N.a.M.a.d.J.Z.y.x.) L.&X&X^ ",
"' K.5X,X' p.b.x.R.B.x.9.x.y.D.$XW.V.M.Z.@X>XW.H.",
"_.|.I (.H 9.Y.9.T.B.b.0.x.y.D.&X6X2Xd.Z.`.).G.<.",
"2.eX_.s 6.t.~ ` T.B.v.b.V.Y.J.6X<XL./ k.c R eX>.",
"&.&.G ; l.u.M 3 Z.s.N.N.9.D.E.' H N q.z.z R .X%.",
"&.&.-.% u.i.N A J ` A.A.` S.' F S F q.k.z R .X&.",
"&.&.-.> 8./ ' <.^.L ~ ^ &XE.J !.wX|.! 0.n _..X&.",
"&.&.XX@Xv 4 S.6X~.#X4X1X8XtXqX^.-X] O < {.rXI.%.",
"&.&.:.OX}.A B W.@XrXuXuXuXuXyX@X$X_ + & W ].>.%.",
"*.*.&.*.OXY + ^ W.6X8X7X7X7X9X&X` M 8 5 O W .X%.",
"*.*.&.&.>.Y + M ~ H.$X%X%X%XJ.N M 3 4 5 & ~..X+.",
"&.*.*.&.P.Y A -X4X] , k | $.k l m 4 $ % '.>XI.%.",
"*.*.*.4.'.v S #XqXA X l o.5.X.V c e # Y P.*.*.*.",
"*.*.*.>X, & b K !.a $ C g.l.6.C j w s @XXX*.*.*.",
"*.*.*.>X- 2 M N L.B y  . .}  .O.O.i $ s oX:.*.*.",
"*.*.*.>X, J =X$Xb a { |  . . ...} w : ].,X*.*.*.",
"*.*.*.OX'.] ] J o @ q y y r y a q @ Z ;.%.*.*.*.",
"*.*.*.*.OX'., > > > > > s *   . .   s -.%.*.*.*.",
"*.*.*.&.:.>.=.=.=.=.=.=.,.Y . & 1 X 7 -.:.*.*.*.",
"*.*.*.*.*.*.*.*.&.*.&.&.2.~.. 1 6 4 - A oX*.*.*.",
"*.*.*.%.*.*.*.*.*.&.*.&.2.] . 4 9 9 2 o ].*.*.*.",
"*.*.*.*.*.*.*.*.*.*.&.&.2.|.7 3 3 3 8 Z oX*.*.*.",
"*.*.*.*.*.*.*.*.*.*.*.&.:.2.T + . . 7 -.>.*.*.*."
};
