/* XPM */
static char *down_2__[] = {
/* columns rows colors chars-per-pixel */
"25 32 230 2 ",
"   c #0C0B06",
".  c #0A1B0A",
"X  c #181A18",
"o  c #130F0A",
"O  c #371E0D",
"+  c #251D16",
"@  c #27170D",
"#  c #0D230D",
"$  c #14210A",
"%  c #112015",
"&  c #173818",
"*  c #0A3011",
"=  c #282516",
"-  c #332811",
";  c #0E2932",
":  c #2B2824",
">  c #392E26",
",  c #223825",
"<  c #343536",
"1  c #36322E",
"2  c #432C17",
"3  c #4D371B",
"4  c #5A331A",
"5  c #502D1B",
"6  c #6A3A1D",
"7  c #483726",
"8  c #503322",
"9  c #453C38",
"0  c #6E3D22",
"q  c #154614",
"w  c #195518",
"e  c #075219",
"r  c #29471C",
"t  c #205618",
"y  c #1C671E",
"u  c #246519",
"i  c #2A791E",
"p  c #254737",
"a  c #275931",
"s  c #2E5032",
"d  c #146922",
"f  c #0C7927",
"g  c #127D29",
"h  c #157425",
"j  c #0C6720",
"k  c #276A24",
"l  c #267A26",
"z  c #367425",
"x  c #35722A",
"c  c #64461F",
"v  c #6D521F",
"b  c #7C701C",
"n  c #5C5323",
"m  c #484138",
"M  c #58493D",
"N  c #475126",
"B  c #684A24",
"V  c #714D28",
"C  c #7B5B2D",
"Z  c #785535",
"A  c #48712D",
"S  c #686F2E",
"D  c #564B1C",
"F  c #243B51",
"G  c #37414C",
"H  c #385050",
"J  c #387F40",
"K  c #484948",
"L  c #5A5246",
"P  c #555C55",
"I  c #534F4B",
"U  c #745944",
"Y  c #665C5A",
"T  c #5A6B53",
"R  c #696958",
"E  c #58647B",
"W  c #636363",
"Q  c #696C6A",
"!  c #716C69",
"~  c #767876",
"^  c #787A6C",
"/  c #895C36",
"(  c #8C6736",
")  c #916839",
"_  c #9E723C",
"`  c #956A2F",
"'  c #A1793C",
"]  c #8A6545",
"[  c #986D44",
"{  c #907451",
"}  c #AA7E41",
"|  c #927962",
" . c #168129",
".. c #1D8829",
"X. c #218B29",
"o. c #268726",
"O. c #378D24",
"+. c #2C9229",
"@. c #319729",
"#. c #339929",
"$. c #3C9427",
"%. c #37863C",
"&. c #589B1D",
"*. c #64AB1A",
"=. c #4A8B27",
"-. c #499725",
";. c #52802E",
":. c #709731",
">. c #76A131",
",. c #4E8C4D",
"<. c #459645",
"1. c #479847",
"2. c #489848",
"3. c #499749",
"4. c #529D51",
"5. c #5D9C5D",
"6. c #569456",
"7. c #5A805A",
"8. c #5DA35D",
"9. c #57A058",
"0. c #688968",
"q. c #759374",
"w. c #64A464",
"e. c #6BA86B",
"r. c #72AB71",
"t. c #7BA07B",
"y. c #6FAE70",
"u. c #9F891D",
"i. c #86BA1F",
"p. c #9C9D24",
"a. c #A98838",
"s. c #B08D38",
"d. c #B99439",
"f. c #B59429",
"g. c #84B423",
"h. c #BFAC3A",
"j. c #B4A514",
"k. c #D1BD1F",
"l. c #C2AA1A",
"z. c #C09C35",
"x. c #CAB628",
"c. c #D3BB23",
"v. c #D3AC3E",
"b. c #C9AD32",
"n. c #8BC41B",
"m. c #91CB18",
"M. c #D8C71B",
"N. c #D1D70C",
"B. c #E2D515",
"V. c #E5D914",
"C. c #E9D918",
"Z. c #DBE913",
"A. c #F3EC0B",
"S. c #F4F306",
"D. c #FBF509",
"F. c #F2E319",
"G. c #EFE90A",
"H. c #D5C120",
"J. c #F2DF21",
"K. c #E8CE2B",
"L. c #F4E021",
"P. c #AE8445",
"I. c #BC984A",
"U. c #A6815A",
"Y. c #B78E48",
"T. c #8D8B6A",
"R. c #A98969",
"E. c #B38A61",
"W. c #B69776",
"Q. c #BB9869",
"!. c #80A072",
"~. c #BCAE7F",
"^. c #B2A274",
"/. c #C79B46",
"(. c #D4A947",
"). c #D4A952",
"_. c #C39E6A",
"`. c #C19C74",
"'. c #C7A06A",
"]. c #C4A27A",
"[. c #C6A277",
"{. c #D0AE7E",
"}. c #E7C65A",
"|. c #525C84",
" X c #707680",
".X c #637BAC",
"XX c #1E96BB",
"oX c #3CAEB2",
"OX c #748AAF",
"+X c #7EA3A6",
"@X c #708897",
"#X c #848383",
"$X c #8B8A8A",
"%X c #979997",
"&X c #8B9988",
"*X c #8BB98B",
"=X c #98B798",
"-X c #8DA98C",
";X c #BEAC96",
":X c #8C93A7",
">X c #8F9DBD",
",X c #B7B4A6",
"<X c #ABB0AB",
"1X c #9FA895",
"2X c #CCAB82",
"3X c #D9B88D",
"4X c #DCBD95",
"5X c #C3B290",
"6X c #C4BAA9",
"7X c #98C499",
"8X c #8EC08E",
"9X c #A7C7A8",
"0X c #B6C9B7",
"qX c #B8D7BA",
"wX c #D6C19C",
"eX c #E3C498",
"rX c #D5C6B0",
"tX c #ECCEA4",
"yX c #EDD1AB",
"uX c #F1D4AB",
"iX c #FCE3BA",
"pX c #BED9C3",
"aX c #8BC7E1",
"sX c #C2D7C4",
"dX c #D0D2C7",
"fX c #E2DDD6",
"gX c #FBE7C4",
"hX c #EAE5DD",
"jX c #F9EAD0",
"kX c #F9F9FC",
/* pixels */
"2.2.2.2.2.<.8.e.P # f g g g g * G qX8.2.1.1.2.2.2.",
"1.2.2.2.<.<.=X$XH w o.+.+.+.+.d r ~ t.<.1.1.2.1.2.",
"2.2.2.<.5.=Xq., e ..@.#.@.#.@.X.j & T -X9.1.1.1.1.",
"2.1.<.<.e.%X, d g g  . . . . .g f d & ~ 5.4.1.1.2.",
"1.1.8.r.Q G d +.#.#.#.@.@.@.@.$.@.@.h a I 9X8.<.2.",
"1.<.=X%Xa q ;.>.:.>.n.m.g.>.i.m.>.:.$.d & #X<Xw.1.",
"1.1.0.: w ;.s././.l.S.S.k.s.B.S.Z.a.:.+.h % $X*X<.",
"9.9.0.= 4 u.V.d.c.A.A.x.s.a.s.B.G.s._ S d . #X7X3.",
";XwX1X3 / c.G.v.M.A.k.k.k.M.M.k.c.M.M.p.N 2 T.rX;X",
"` '.`.` b.K.B.K.K.k.s.C.D.F.C.b.I.B.S.M.` [ `.{.[ ",
"/ `.4XP.B.k.z.F.c.s.s.B.J.(./.'.[.I.C.C.).eXuX3X) ",
"6XW.| _.f.' v.A.A.B.C.K.(.P.'.2X3XeX}.(./.3XW.R.6X",
"t.T.I +X{ _ (.K.J.J.J.v.} [ 2X4XtXtX_.d.v.=X%X;X*X",
"e.~ ; XXq.a.' d./.(.).} ) _ [.tX4XW./ j.Z.oXaXkXsX",
"w.! X T k.l.v - Z } } ) [ [.2X| Z > V b.N.s :XqX9.",
"e.,XY 3 f.f./ ^ ~ Y / { [.4X} ! E #X] a.x.= T.8X<.",
"2.9.@XW ( ( U t.OX|.| ].uXuXE.|..XfX| B ) M <X8X1.",
"1.1.!.=XL o = 5X:X.XhXgXiXgXhX>X.XtXM   9 ,X9Xy.1.",
"1.2.<.<.0.W + U.6XrXjXgXgXgXjXdX,XQ.7 9 7.r.<.3.2.",
"1.1.1.9.-XT r Z E.3XtXuXuXuXuX4X'.( r K @X9X1.3.2.",
"4.8.3.<XP p J n B U ^.2X~.~.~.{ B B A a , %X,.6.2.",
"7X&X1 < F @X9Xs w l %.%.%.+.%.l y r 1X%X> 1 < W *X",
"~ M O - G |.W N u  .f f f f  . .h r R W G - O 7 ! ",
"  8 / / K ; @ D A k k $.&.O.i i x B - ; G U / V o ",
"X Y `.W.9 % q O.A v v l.Z.N.` D n -.w # : R.].| : ",
"^ ! 7 9 $X! * O.-.A z &.*.&.z z -.$.q K %XL 7 L Q ",
"w.<XW W $XY . t i +.X.....X.X.o.i u . W =X~ Y $X8.",
"4.w.8.qXL       q o.#.$.O.O.O.u &   X ~ 8.8.w.w.4.",
"1.1.1.9XI @ 4 4 8 7 7 = # # # - 2 X q.0X8.1.1.1.1.",
"1.1.3.4.%XP 2 0 0 5 = W #X#X#XM 3 $X&X<.2.2.1.2.1.",
"2.2.2.3.9X<X9 8 4 5 K sX9X8XsX%X~ dXy.1.1.2.1.2.1.",
"1.3.2.2.3.w.q.1   m &Xw.2.<.9.w.5.w.<.1.2.2.2.1.1."
};
