/* XPM */
static char *right_1__[] = {
/* columns rows colors chars-per-pixel */
"25 32 227 2 ",
"   c #030B04",
".  c #0D0C0A",
"X  c #080604",
"o  c #120C0A",
"O  c #190E09",
"+  c #061206",
"@  c #081A07",
"#  c #18150A",
"$  c #151211",
"%  c #151C16",
"&  c #22180E",
"*  c #281E15",
"=  c #30190F",
"-  c #062209",
";  c #072A0D",
":  c #1D220B",
">  c #11230C",
",  c #0A370D",
"<  c #142814",
"1  c #0A3911",
"2  c #153C15",
"3  c #2B2117",
"4  c #3B2519",
"5  c #2D371C",
"6  c #001822",
"7  c #153126",
"8  c #2C2C2C",
"9  c #322E2D",
"0  c #322B25",
"q  c #383635",
"w  c #2B312C",
"e  c #48281D",
"r  c #532E1B",
"t  c #47371B",
"y  c #58341C",
"u  c #683A1E",
"i  c #4B3829",
"p  c #533222",
"a  c #453A38",
"s  c #4F2E23",
"d  c #683A21",
"f  c #0C430E",
"g  c #0C4610",
"h  c #0C4B15",
"j  c #0C4C19",
"k  c #134D11",
"l  c #174214",
"z  c #0D5B1A",
"x  c #0C5215",
"c  c #175916",
"v  c #224D15",
"b  c #0E641E",
"n  c #16641B",
"m  c #22671B",
"M  c #2E791D",
"N  c #165920",
"B  c #1D4D2D",
"V  c #2E5728",
"C  c #384538",
"Z  c #394824",
"A  c #0D6320",
"S  c #0E6B21",
"D  c #126B21",
"F  c #0F7425",
"G  c #0E7C29",
"H  c #0D7A26",
"J  c #117B27",
"K  c #107A29",
"L  c #187427",
"P  c #297825",
"I  c #3A6D23",
"U  c #494E1C",
"Y  c #687B0F",
"T  c #5B5524",
"R  c #55453A",
"E  c #4C5C22",
"W  c #7A4C27",
"Q  c #635326",
"!  c #765D2D",
"~  c #60503F",
"^  c #684327",
"/  c #557328",
"(  c #4E7434",
")  c #457232",
"_  c #59730D",
"`  c #444242",
"'  c #4C4746",
"]  c #564843",
"[  c #585754",
"{  c #4C514B",
"}  c #6D5946",
"|  c #487148",
" . c #6C6256",
".. c #7A6A56",
"X. c #70764E",
"o. c #51767E",
"O. c #6B6D67",
"+. c #747878",
"@. c #727568",
"#. c #85582D",
"$. c #835C32",
"%. c #936638",
"&. c #9B743A",
"*. c #A3753D",
"=. c #867B53",
"-. c #977A50",
";. c #8C6B47",
":. c #A77C44",
">. c #A07E58",
",. c #2E801F",
"<. c #1B8429",
"1. c #268C27",
"2. c #348C23",
"3. c #348724",
"4. c #399827",
"5. c #299029",
"6. c #3EA229",
"7. c #5FA41D",
"8. c #439125",
"9. c #769D36",
"0. c #41A529",
"q. c #4EA023",
"w. c #74B02A",
"e. c #3A8F4C",
"r. c #459745",
"t. c #479847",
"y. c #489848",
"u. c #529C52",
"i. c #5A9A59",
"p. c #588C53",
"a. c #66975F",
"s. c #5AA25A",
"d. c #56A056",
"f. c #569D65",
"g. c #718970",
"h. c #63A463",
"j. c #6CAB6C",
"k. c #67A867",
"l. c #71AE6E",
"z. c #77AD77",
"x. c #7AB076",
"c. c #A3951A",
"v. c #BDA515",
"b. c #8C9C30",
"n. c #B5962D",
"m. c #A8873B",
"M. c #B18D39",
"N. c #BA9C33",
"B. c #C3B50C",
"V. c #C8B71C",
"C. c #C4AE12",
"Z. c #C19B3A",
"A. c #C5A72A",
"S. c #CDB625",
"D. c #C9AA36",
"F. c #D2B42F",
"G. c #A8CC11",
"H. c #CAC901",
"J. c #D8C41D",
"K. c #C1C919",
"L. c #E6D918",
"P. c #CFE709",
"I. c #EBE20D",
"U. c #F4EB0E",
"Y. c #F5ED15",
"T. c #EEED17",
"R. c #D8C525",
"E. c #D7C137",
"W. c #E7D42E",
"Q. c #AE8747",
"!. c #BC954A",
"~. c #B68F52",
"^. c #90816B",
"/. c #AC8761",
"(. c #A99478",
"). c #B19472",
"_. c #93AF7A",
"`. c #C39747",
"'. c #C4A748",
"]. c #D0AF51",
"[. c #E0B945",
"{. c #C19C75",
"}. c #C7A376",
"|. c #C8B36C",
" X c #DDC177",
".X c #F2E865",
"XX c #096285",
"oX c #7C7D8D",
"OX c #5E75B2",
"+X c #3AA6BB",
"@X c #77AB87",
"#X c #868886",
"$X c #8E9B8E",
"%X c #949794",
"&X c #8A8C92",
"*X c #81A281",
"=X c #88A888",
"-X c #87B98A",
";X c #96B794",
":X c #92AD95",
">X c #B0AA8A",
",X c #A6A7A6",
"<X c #AAB8A9",
"1X c #B4B5B3",
"2X c #8D94A7",
"3X c #C5AD88",
"4X c #D9B98E",
"5X c #C9B695",
"6X c #8FC199",
"7X c #A6C59D",
"8X c #A5C6A3",
"9X c #B9C8AC",
"0X c #CDC095",
"qX c #E2C299",
"wX c #EBD48A",
"eX c #CEE194",
"rX c #F3E89E",
"tX c #D0CBA9",
"yX c #E7CAA3",
"uX c #F7DBB4",
"iX c #EFD8AE",
"pX c #FEE5BD",
"aX c #EAE3BB",
"sX c #AED2C6",
"dX c #D2DED3",
"fX c #C7C6C8",
"gX c #DAE2DA",
/* pixels */
"y.y.t.y.j.j.8Xf.1.6.6.0.0.c z L Q #.~._.z.z.h.t.t.",
"y.y.t.y.6X-X@Xe.2.0.6.0.4.c c 8.c.V.E.wXyXtX8Xe.t.",
"t.t.z.*Xe.<.1.4.0.0.6.6.2.c ,.w.L.U.L.].N.'.0X<Xh.",
"y.u.a.| H <.6.6.0.0.0.,.c ,.w.D.[.D.M.m.A.L.'.yXx.",
"h.:X| n H <.<.6.0.0.0.,.h 2.9.'.W.S.:.!.Z.V.J.].3X",
"u.| x F H H H 1.2.2.2.M n 7.b.M.I.R.~.`.!.Z.U.V.%.",
"8X| z J G G H c k k k m q.P.S.M.I.W.}.%.*.F.Y.v.W ",
"g.L F J J G G b b b k c 4.P.J.m.Z.].4X).:.&.Z.|.5X",
"g S K G S D D H H b z m I K.R.N.!.}.qX4X-.^ /.tXl.",
"g A K F x f k S b x b ( &.m.S.T. XqXyX4X} 9 <Xl.r.",
"- z F j - ; , k z n z I $.&.S.Y.wX(.] } s 8 *Xt.t.",
"  h z , + @ l ) p.p.( T W :.F.W.rX>XR ] R ] #X1Xk.",
"  1 g , < % v >XiXiX0X-.W `.`.Q.iXtX@XOXoX(.9 #Xj.",
"  j h < #X@.< -.4XpXiX^.t V.C.%.yXtX@XOXoX).* +.j.",
"  j 1 % fX,X$ t -.4XsXoX: H.v.#.yXaX9X2X+... .<Xj.",
"% , < 8 fX,X% # t =.+XXX: H.B.#.qXpXiX5X .' =Xk.u.",
"$XC { ;XdXrXv.n.! * 7 6 : H.B.#.}.qX3XR O.<X-Xr.t.",
"h.$X,Xk.d.eX.Xm.U @ - - # A.c.y X.=...@.,Xu.y.y.y.",
"d.-X6Xd.r.s.9X` + j b g : &.! @ g , 8 1XgXu.y.y.y.",
"t.r.r.t.t.r.:X` ; A , 3 y 4 2 b S S N q ^.i.u.r.y.",
"t.y.y.y.t.r.;X` 1 S - < V 2 , j F G P _ X.%X;Xr.y.",
"t.y.y.t.d.@X=Xq < N @ 7 e.e.B + N P 3.G.Y 9 @Xr.t.",
"y.t.y.t.j.1Xq 4 e 5 o [ f.-X+.. t Q T 8.v 0 *Xr.y.",
"y.y.t.t.j.%X  5 Z 4 . R @.^.[ # E / / 2.k 0 _.e.y.",
"y.y.y.t.j.1Xq N V t # & s p = + P 0.0.3.V [ =Xr.y.",
"t.y.y.t.s.8X<XC l M - = u u 4 + n 5.3.2 @.;X@Xr.y.",
"y.y.t.y.t.r.k.$XO.g + i /.{.} . ; 1 V +.9Xu.r.y.y.",
"y.y.y.y.t.t.t.k.%Xq . i ).3X..o X o 8 ,XdXf.y.y.t.",
"y.t.y.y.t.y.y.t.h.<X{ . $ $ * e e r d * +.y.y.y.y.",
"y.y.y.t.t.y.y.t.y.h.g.C X X O s d d d O O.y.y.y.y.",
"y.y.y.y.t.y.y.t.y.y.y.g.[ ` i = r r s ' $Xu.y.y.y.",
"y.t.y.y.y.y.y.y.y.y.y.f.p.@X#Xo X X 9 p.h.y.y.t.y."
};
