/* XPM */
static char *right_3__[] = {
/* columns rows colors chars-per-pixel */
"30 32 240 2 ",
"   c #030302",
".  c #0D0B0B",
"X  c #060904",
"o  c #120A08",
"O  c #1A0F0A",
"+  c #140A04",
"@  c #031B06",
"#  c #081808",
"$  c #19150D",
"%  c #131212",
"&  c #1B1917",
"*  c #26190C",
"=  c #2A1A13",
"-  c #361E14",
";  c #082909",
":  c #092509",
">  c #0B360C",
",  c #153815",
"<  c #113210",
"1  c #29261A",
"2  c #32231D",
"3  c #352717",
"4  c #263714",
"5  c #3E2B0F",
"6  c #232323",
"7  c #292727",
"8  c #342823",
"9  c #2C3A2D",
"0  c #373734",
"q  c #3E3A22",
"w  c #41241B",
"e  c #492A1A",
"r  c #58361B",
"t  c #4E3018",
"y  c #64391C",
"u  c #61371F",
"i  c #4D2B20",
"p  c #452D25",
"a  c #522D21",
"s  c #49382B",
"d  c #473C34",
"f  c #583E33",
"g  c #593725",
"h  c #6B3C20",
"j  c #0C4C12",
"k  c #0B4512",
"l  c #124E12",
"z  c #164714",
"x  c #0D5015",
"c  c #0D5C1A",
"v  c #185715",
"b  c #0D601C",
"n  c #1F6518",
"m  c #266E1A",
"M  c #26711A",
"N  c #2C7C1D",
"B  c #27432D",
"V  c #334D34",
"C  c #0E6B22",
"Z  c #0C6322",
"A  c #116E23",
"S  c #196423",
"D  c #0F7426",
"F  c #117426",
"G  c #117B29",
"H  c #187925",
"J  c #267926",
"K  c #326C30",
"L  c #155724",
"P  c #4B4B15",
"I  c #665E10",
"U  c #7D6E1E",
"Y  c #555022",
"T  c #554C3B",
"R  c #565030",
"E  c #744422",
"W  c #665923",
"Q  c #7B5028",
"!  c #724D31",
"~  c #586C2F",
"^  c #487914",
"/  c #3F4540",
"(  c #3E784A",
")  c #474847",
"_  c #504C46",
"`  c #5B5B5B",
"'  c #565555",
"]  c #4B564D",
"[  c #675E57",
"{  c #6F5B47",
"}  c #5D7341",
"|  c #546951",
" . c #7B6B55",
".. c #65675D",
"X. c #696766",
"o. c #767472",
"O. c #74766C",
"+. c #82541D",
"@. c #90681B",
"#. c #885A34",
"$. c #86562B",
"%. c #946738",
"&. c #887F3A",
"*. c #A87A39",
"=. c #996F44",
"-. c #93734E",
";. c #A57C41",
":. c #188229",
">. c #2C8422",
",. c #278826",
"<. c #338722",
"1. c #369224",
"2. c #399224",
"3. c #369B29",
"4. c #3D9B28",
"5. c #3D823E",
"6. c #339531",
"7. c #3EA326",
"8. c #4F9E1F",
"9. c #5AA01D",
"0. c #69AA1A",
"q. c #469926",
"w. c #4C8B29",
"e. c #69982D",
"r. c #41A429",
"t. c #4CA324",
"y. c #4EA828",
"u. c #75B228",
"i. c #459645",
"p. c #479847",
"a. c #489848",
"s. c #4B944B",
"d. c #539D53",
"f. c #599959",
"g. c #5F885F",
"h. c #5CA35C",
"j. c #56A156",
"k. c #5F9D60",
"l. c #678968",
"z. c #619D61",
"x. c #659766",
"c. c #788579",
"v. c #799D7A",
"b. c #63A463",
"n. c #69A769",
"m. c #77AB75",
"M. c #76B276",
"N. c #65B452",
"B. c #B4991C",
"V. c #99BB1C",
"C. c #8C853F",
"Z. c #B48D39",
"A. c #B9933C",
"S. c #B09238",
"D. c #BCA336",
"F. c #BEA12C",
"G. c #859D21",
"H. c #C9B913",
"J. c #C89D3A",
"K. c #C6A82D",
"L. c #D3B827",
"P. c #C2A337",
"I. c #D0B732",
"U. c #E2BF3B",
"Y. c #8EC71A",
"T. c #BEDC0D",
"R. c #DBCA19",
"E. c #E3D612",
"W. c #D2E50A",
"Q. c #F2EB0C",
"!. c #F4EE0B",
"~. c #D8C126",
"^. c #D9CA33",
"/. c #E4C236",
"(. c #E5D126",
"). c #E9E834",
"_. c #9E9F43",
"`. c #B58845",
"'. c #BA9444",
"]. c #AB8357",
"[. c #AC8542",
"{. c #9E907B",
"}. c #B59268",
"|. c #AF9475",
" X c #83AF7B",
".X c #BEA47C",
"XX c #B1AA46",
"oX c #C8984A",
"OX c #C29959",
"+X c #D4A54C",
"@X c #D8A751",
"#X c #E0B644",
"$X c #C29F6E",
"%X c #C09F75",
"&X c #C6A377",
"*X c #81C272",
"=X c #187C9A",
"-X c #4D5B83",
";X c #4B6199",
":X c #7FA880",
">X c #4CC4E5",
",X c #879A85",
"<X c #909090",
"1X c #AB9A84",
"2X c #87B687",
"3X c #98B698",
"4X c #8CA98D",
"5X c #A3A7A3",
"6X c #A8B7A8",
"7X c #B4B9B4",
"8X c #A19DA1",
"9X c #C7A884",
"0X c #D4B48A",
"qX c #DABD94",
"wX c #CCB494",
"eX c #C2B9AD",
"rX c #98C397",
"tX c #90C08E",
"yX c #ABCE94",
"uX c #A9C9A7",
"iX c #B3CFAE",
"pX c #B3D4AB",
"aX c #B2C9B1",
"sX c #B9D1B6",
"dX c #D9C89F",
"fX c #E3C698",
"gX c #EFD883",
"hX c #DCC7A9",
"jX c #DDD5A7",
"kX c #CBCBB7",
"lX c #F1D6AD",
"zX c #E9DFB9",
"xX c #ECCFA6",
"cX c #F6E3BC",
"vX c #E9E0B8",
"bX c #F7E28A",
"nX c #91A2C9",
"mX c #D6DECC",
"MX c #C2CEC2",
"NX c #FDE9C5",
/* pixels */
"a.a.a.a.M.M.M.M.rX*X7.7.r.r.r.J l >.w.E #.}.mXn.i.i.a.p.a.a.",
"a.a.p.h.MX3XyXpXyXN.7.7.r.7.>.m M 0.V.B.Z.OXfXkXb.i.a.p.a.p.",
"p.a.2XiX:Xv 2.r.r.r.r.r.r.2.v m y.T.!.!.(.+X`.wXmXb.p.p.a.a.",
"i.M.MXl.K F 3.r.r.r.r.r.>.n >.e.XXU./.K.A.'.R.I.9XkXb.p.a.p.",
"p.p.:XK c G 3.r.r.r.r.7.m v 3.G./.+XOX`.[.A.E.R.P.jXkXh.p.p.",
"j.3X3XV c :.3.r.7.7.r.r.m x 4.Y.Q.K.`.+X@X+XZ.L.Q.P.9XiXp.p.",
"n.aXg.S C :.3.2.M M >.q.m l 2.u.L.L.L.'.`.*.`.L.!.K..XiXp.p.",
"sX| x D G G 3.<.v l v 2.M v q.e.Z.R.E.Z.%.#.oXU.Q.F..XpXp.p.",
"9 , x G G G :.,.1.1.>.v M 8.W.H.*.Z.oX%X%X}.%.*.#X`.%XiXi.a.",
"  ; x D G G G :.3.,.M c H y.W.R.;.].$XqXqX9Xh E `.$XhXsXi.a.",
"X ; x F G G G :.D c v C H q.E.R.[.&XqXlXxX|.= - #.eXyXm.p.a.",
"X : x D G G G A c b b v w.C.D.H.(.gXwX{ { #.O _ 7X Xs.i.a.a.",
"0 , k D D D D S K w.K K C.oXoXK.Q.bXwX/ d f 8 X.4Xb.a.a.a.a.",
"3X] @ C Z j v } jXjXdX.X;.$.oXJ.'.fXcX6X<X-X1X .0 7Xh.a.a.p.",
"k.` @ A c > ; ] 9XlXcXxX;.$.L.K.%.qXzXM.nX;X5X-.% 6Xh.a.a.p.",
"z.` @ Z c > X 3 ;.0XcXzX1X@.E.H.$.0XzX2XnX;X1X .7 7Xh.p.p.a.",
"x.` X k >       1 %.4X>X4XJ.!.H.Q 0XNXNXhX<Xd X.6XsXj.a.a.a.",
"n.<XV , B T P q s ! | =Xm./.R.B.=.0XlXxX9X .O X.rXi.a.a.a.a.",
"f.2X,X7 | yX).^.|.R X $ G.E.@.=.&X0X0XwX{ .   X.3Xi.p.a.a.a.",
"s.6.3X5X,X X_.I T , @ X @.L.t q } } } T O.<Xf f ..6Xj.a.a.p.",
"a.a.d.d.a.:X` &   : < + W [.1 @ z l > # c.MX! p 0 MXh.p.p.a.",
"a.a.a.a.i.m.3Xo.X w t X z J # ; C A A Z 9 8 % [ 7XrXj.p.a.a.",
"a.a.s.d.m.| | | # 3 g ..( C 4 4 G G ,.0.^ < X X.rXi.p.a.a.a.",
"a.a.a.f.o.% . : < # 0 m.4XJ R P F H q.W.Y.<.# X.3Xi.s.s.d.a.",
"a.p.2X' s 5 o   X = p [ ,X3Xd 3 Y Y ~ 9.t.<.# 6 / / T ) 5XM.",
"d.x.O.8 e y O % 0 s i p } c.9 4 W W Y ,.,.,.# X o O O * O.l.",
"b.o.= u h y O T qX-.h i 8 6 L H q.q.q.7.,.F X O 8 u u h 2 6 ",
"z.` o y h t + 6  .|.-.= < x ,.3.7.6.H v k , = - a h h h *   ",
"x.` + u h w o o 0 {.1X% > A <.2.1.J L 6 o . w e i h h y w 7 ",
"x.' + e i 2 o / ,XX.1   X @ : : ; @ V 7X`   w i i a w O o.4X",
"b.<X_ 2 = 2 ' c.M.<X` ` ` ` ` ` ` ` o.uX5X' 2 - = = 8 ` 7XM.",
"j.b.,X6   7 g.b.d.n.k.z.z.b.z.z.b.z.z.d.n.5X7   X X ) aXn.d."
};
