/* XPM */
static char *up_1__[] = {
/* columns rows colors chars-per-pixel */
"27 32 228 2 ",
"   c #020403",
".  c #0A0604",
"X  c #020B03",
"o  c #0F0B0B",
"O  c #051205",
"+  c #041D09",
"@  c #0A1908",
"#  c #1B110B",
"$  c #14160C",
"%  c #161613",
"&  c #28190E",
"*  c #2C1D11",
"=  c #231A18",
"-  c #06230A",
";  c #082E0B",
":  c #09260A",
">  c #17210C",
",  c #0A380D",
"<  c #14330B",
"1  c #093A11",
"2  c #073210",
"3  c #292818",
"4  c #3A2216",
"5  c #3A2719",
"6  c #263B12",
"7  c #353213",
"8  c #1E3923",
"9  c #2D2A27",
"0  c #372E2B",
"q  c #3D342C",
"w  c #3D3327",
"e  c #383733",
"r  c #263127",
"t  c #4F2B16",
"y  c #4A2A19",
"u  c #502F1F",
"i  c #52371B",
"p  c #453713",
"a  c #65381D",
"s  c #493827",
"d  c #4D3A2F",
"f  c #613A23",
"g  c #0C4311",
"h  c #0D4A13",
"j  c #094718",
"k  c #134D11",
"l  c #1B4916",
"z  c #0D5115",
"x  c #0D5319",
"c  c #0E5C1B",
"v  c #135D1B",
"b  c #185715",
"n  c #0D450F",
"m  c #235416",
"M  c #34431C",
"N  c #0E661F",
"B  c #18641A",
"V  c #236C19",
"C  c #27691B",
"Z  c #2B7C1E",
"A  c #2A751C",
"S  c #327C1E",
"D  c #135A2C",
"F  c #3A423A",
"G  c #334D24",
"H  c #0F6C22",
"J  c #0E6824",
"K  c #126A22",
"L  c #0F7326",
"P  c #0F7A29",
"I  c #117626",
"U  c #127927",
"Y  c #107C29",
"T  c #1B7826",
"R  c #0B653A",
"E  c #376825",
"W  c #2D7429",
"Q  c #48481B",
"!  c #51491F",
"~  c #505310",
"^  c #62461E",
"/  c #584822",
"(  c #585623",
")  c #504B35",
"_  c #6C4724",
"`  c #635A24",
"'  c #7D5539",
"]  c #6E4F36",
"[  c #5A6625",
"{  c #53693C",
"}  c #497B31",
"|  c #4D6930",
" . c #6F722C",
".. c #2A3747",
"X. c #3C4445",
"o. c #39544D",
"O. c #0A6246",
"+. c #326949",
"@. c #4A4946",
"#. c #524C48",
"$. c #575749",
"%. c #555553",
"&. c #625849",
"*. c #5A7254",
"=. c #625E62",
"-. c #417678",
";. c #656665",
":. c #6A7868",
">. c #7B7979",
",. c #726D67",
"<. c #8E691E",
"1. c #845930",
"2. c #8E6639",
"3. c #936A38",
"4. c #98763C",
"5. c #85642F",
"6. c #A47B3C",
"7. c #8A5C41",
"8. c #94694D",
"9. c #947350",
"0. c #A47B41",
"q. c #A57C58",
"w. c #927B62",
"e. c #35831D",
"r. c #1D8629",
"t. c #1F8628",
"y. c #298926",
"u. c #348A22",
"i. c #318721",
"p. c #359B29",
"a. c #3B9D28",
"s. c #399526",
"d. c #2E9829",
"f. c #3EA229",
"g. c #4E8A27",
"h. c #468521",
"j. c #469628",
"k. c #509B2D",
"l. c #41A429",
"z. c #43A92A",
"x. c #58A529",
"c. c #63A52D",
"v. c #66B522",
"b. c #6AA131",
"n. c #449745",
"m. c #479847",
"M. c #489848",
"N. c #539D53",
"B. c #5A9D5A",
"V. c #569556",
"C. c #519252",
"Z. c #70855D",
"A. c #5BA35B",
"S. c #57A056",
"D. c #71A455",
"F. c #649C64",
"G. c #7C8277",
"H. c #729574",
"J. c #68A665",
"K. c #75A86B",
"L. c #72AD71",
"P. c #7FAC7E",
"I. c #78B178",
"U. c #9B9C10",
"Y. c #B9A90C",
"T. c #AB893B",
"R. c #A59E30",
"E. c #C1B909",
"W. c #CCB329",
"Q. c #C8AF28",
"!. c #8DC215",
"~. c #B9C525",
"^. c #E6DB13",
"/. c #D9E313",
"(. c #E3EF07",
"). c #D7CF1A",
"_. c #81875B",
"`. c #AB845D",
"'. c #B48E50",
"]. c #83B452",
"[. c #BFA849",
"{. c #8B946B",
"}. c #9B9C77",
"|. c #8A8971",
" X c #BA9A6A",
".X c #AD9373",
"XX c #96A178",
"oX c #84B17B",
"OX c #C8AC4A",
"+X c #C9A574",
"@X c #91CD5D",
"#X c #E0D174",
"$X c #787F86",
"%X c #099299",
"&X c #288EA9",
"*X c #79AE85",
"=X c #079FC1",
"-X c #8B8C8D",
";X c #889987",
":X c #929492",
">X c #B79F8A",
",X c #89A78A",
"<X c #83B683",
"1X c #9AB588",
"2X c #98B997",
"3X c #90A690",
"4X c #AFAD90",
"5X c #9F9EA0",
"6X c #A3A8A3",
"7X c #B3BDB3",
"8X c #C7AB86",
"9X c #D7BA8F",
"0X c #C6AF91",
"qX c #D3BC9A",
"wX c #C5B393",
"eX c #C7BBB4",
"rX c #CEBDA4",
"tX c #9FC09F",
"yX c #A7C4A7",
"uX c #B6CDAC",
"iX c #D7C39D",
"pX c #D9C9B3",
"aX c #F4DBB3",
"sX c #EBD6AA",
"dX c #ECE68F",
"fX c #BFC5C0",
"gX c #D2D5D3",
"hX c #E5EBE3",
/* pixels */
"M.M.m.M.M.M.M.m.B.L.{.' 3.6.6.0.3.1.pX<XL.A.m.m.m.m.M.",
"m.M.M.M.M.m.m.n.J.6Xw.0.W.W.W.T.3.3.#XdXiXyXS.m.m.m.m.",
"M.m.M.m.M.M.M.2X3Xe ! OX/.(.(.R.4.T.^.^.'.pXuXN.m.m.m.",
"M.M.M.M.M.M.S.;X) A j.c.v.v.v.x.k.c./.^.'.`.wXJ.N.m.M.",
"m.M.m.n.n.*X6X*.l C e.Z Z Z Z Z Z e.!.~.'.Q.OXwX1Xm.M.",
"M.m.m.N.P.,Xe l u.b k k k k k k k z e.b.[.).Y.2.{.m.M.",
"M.M.m.S.6XF D b V Z u.u.u.u.u.u.i.i.B C } ~ ~ 0.XXm.M.",
"m.m.n.S.G.O x B V s.l.l.l.l.l.l.z.f.A B c + w .X1Xn.m.",
"N.J.D.L.-XX , V p.a.l.l.l.l.l.l.l.l.a.i.g O ) K.J.J.N.",
"L.gX8XiX_.; c B V s.l.l.l.l.l.l.l.f.V b N 1 { iX0XiXJ.",
"}.0X+X9X_.k H H v u.l.l.l.f.l.l.l.f.B N P z { 9X+X8X}.",
"7. XsXaX{.h L U U s.l.l.l.l.l.l.f.f.r.P L z } sXaX8X8.",
"4X Xq. X .j I H N T d.l.l.l.a.f.p.t.N N U k |  X`..X>X",
"P.eXq.3.*.O.H k 1 N t.p.l.l.f.p.y.U g g N R +.7.8.>XJ.",
"A.<X7X7.-.=XR : + J Y r.s.f.f.r.Y L - + z %X&X' }.oXS.",
"M.n.1X) { @X[ * O c Y Y r.y.t.r.Y L - # ! ].D.w Z.n.m.",
"M.M.2X=. .E.<.y O x P P r.P P P L N - * _ Y.U.#.H.n.M.",
"M.M.<XyX|.7 1./ O ; N P P P P P N n O 5 2.p $.2XoXn.M.",
"M.M.n.N.pX>.) *   O j P P P r.P c + X # ) ,.6XN.m.M.m.",
"M.M.n.B.hX7Xe X X X 2 H P P P L h   X X % :XgXB.m.m.M.",
"M.n.A.*X-Xr D h ; X - h H P P x ; X : h J 8 ;.I.A.m.M.",
"n.n.yX5X%.9 H.C.n 1 ; ; N r.L 1 - 1 g W *Xo...-X,Xn.m.",
"J.yX6Xr = ] 7X;Xl K h O c I N + - L k *.gX$X..= G.tXA.",
"L.6Xe u f f s s / T j X 1 z n O ; I ! d 0 d _ u 0 >.F.",
"L.>.# 9.`.1.3 6 [ | 6 * : : : & 7 | [ M > ] q.q.7 @.V.",
"L.:Xe 0XqX.XG V k.[ _ ^ & @ > i ^ ` g.i.l _.8XqX&.;.F.",
"A.J.;X%.q 9 @ m l.g.g.g.e.Z S h.g.g.j.A @ 3 q @.:.F.N.",
"m.n.2X;.9   o 6 A y.p.f.f.z.z.l.f.d.Z m #   = %.H.n.n.",
"m.m.N.B.-X= 5 = @ v y.j.j.p.s.j.s.T : & 4 = %.V.C.M.M.",
"m.m.m.N.,X:.0 # 4 Q ` ` 6 < < ( ( ( 4 & = >.3XM.m.M.M.",
"M.m.m.m.n.*X>.d 4 y t u @.%.@.u t t 4 0 =.,XA.m.m.m.M.",
"M.M.m.m.m.A.F.:.o . . = ;XB.7X@.. . . #.uXM.m.M.m.M.n."
};
