/* XPM */
static char *up_3__[] = {
/* columns rows colors chars-per-pixel */
"26 32 216 2 ",
"   c #030202",
".  c #030B04",
"X  c #0C0806",
"o  c #120D08",
"O  c #120B07",
"+  c #031105",
"@  c #041A06",
"#  c #051D09",
"$  c #0A1409",
"%  c #18110A",
"&  c #17150A",
"*  c #051412",
"=  c #141815",
"-  c #2D1B0F",
";  c #221A17",
":  c #062107",
">  c #062B0B",
",  c #082709",
"<  c #09340B",
"1  c #0B3B0D",
"2  c #07310F",
"3  c #172118",
"4  c #093915",
"5  c #183518",
"6  c #3B200E",
"7  c #2C261C",
"8  c #3B2415",
"9  c #252608",
"0  c #18282D",
"q  c #343434",
"w  c #3F3933",
"e  c #242327",
"r  c #452715",
"t  c #5C351C",
"y  c #56331B",
"u  c #453528",
"i  c #443D3A",
"p  c #0C420D",
"a  c #19480D",
"s  c #0C4313",
"d  c #0B4B15",
"f  c #1B481D",
"g  c #0D5315",
"h  c #0E5E1D",
"j  c #0B551A",
"k  c #1B5B15",
"l  c #135917",
"z  c #364205",
"x  c #2E5A0C",
"c  c #374F14",
"v  c #0E621E",
"b  c #1A651B",
"n  c #226B19",
"m  c #266918",
"M  c #2B791D",
"N  c #317F1F",
"B  c #39620C",
"V  c #125C23",
"C  c #0C5A24",
"Z  c #28432B",
"A  c #29512D",
"S  c #385B24",
"D  c #39472B",
"F  c #0E6922",
"G  c #116320",
"H  c #166E22",
"J  c #0F7426",
"K  c #0E7828",
"L  c #117526",
"P  c #117C29",
"I  c #197724",
"U  c #2E7727",
"Y  c #544611",
"T  c #555A05",
"R  c #78511F",
"E  c #46720E",
"W  c #797E03",
"Q  c #686A06",
"!  c #435B24",
"~  c #465B31",
"^  c #5D4A32",
"/  c #754B2B",
"(  c #6A5323",
")  c #685826",
"_  c #654F33",
"`  c #213546",
"'  c #3A4747",
"]  c #3E4852",
"[  c #046076",
"{  c #317C7D",
"}  c #464646",
"|  c #504C46",
" . c #595C5A",
".. c #475542",
"X. c #645F58",
"o. c #4F6E4E",
"O. c #5E7341",
"+. c #59724F",
"@. c #686C47",
"#. c #66784F",
"$. c #4A5A6A",
"%. c #6B6A67",
"&. c #726A66",
"*. c #767A77",
"=. c #6C736C",
"-. c #877F08",
";. c #85552E",
":. c #916837",
">. c #956939",
",. c #876549",
"<. c #9B7447",
"1. c #9A7655",
"2. c #956B4D",
"3. c #A77F40",
"4. c #857E79",
"5. c #36871F",
"6. c #1C872A",
"7. c #258B28",
"8. c #328221",
"9. c #2F9629",
"0. c #3C9926",
"q. c #3D9C28",
"w. c #369727",
"e. c #3FA229",
"r. c #749108",
"t. c #718907",
"y. c #5BA21C",
"u. c #489628",
"i. c #4A9929",
"p. c #41A529",
"a. c #57AC24",
"s. c #5DB021",
"d. c #68AA1A",
"f. c #459746",
"g. c #479847",
"h. c #499849",
"j. c #529B52",
"k. c #5C9D5C",
"l. c #589758",
"z. c #4C814D",
"x. c #5BA35B",
"c. c #64A25F",
"v. c #4E996C",
"b. c #699769",
"n. c #79847A",
"m. c #769A76",
"M. c #62A561",
"N. c #6EAC6D",
"B. c #6CA66B",
"V. c #71AD71",
"C. c #76A975",
"Z. c #7CB47C",
"A. c #70A976",
"S. c #54AB76",
"D. c #879A05",
"F. c #9D951A",
"G. c #8BA006",
"H. c #9EA50E",
"J. c #BAB811",
"K. c #BF9A31",
"L. c #948B3A",
"P. c #D4BF1E",
"I. c #C9AF1C",
"U. c #D5AC3E",
"Y. c #95C513",
"T. c #B7D515",
"R. c #D6DA03",
"E. c #C8D80A",
"W. c #EEDF1C",
"Q. c #D7EC09",
"!. c #D5CD2B",
"~. c #E6D129",
"^. c #E0C724",
"/. c #BC925A",
"(. c #B68D56",
"). c #95A34D",
"_. c #9F8263",
"`. c #A5997E",
"'. c #B99979",
"]. c #B08D6A",
"[. c #8EB37D",
"{. c #B1AB7C",
"}. c #D5AA47",
"|. c #DABE74",
" X c #317E83",
".X c #546B83",
"XX c #697E94",
"oX c #038186",
"OX c #8A8B89",
"+X c #989A99",
"@X c #AF9983",
"#X c #96AA87",
"$X c #9BB98E",
"%X c #9BB899",
"&X c #8CB187",
"*X c #BFA492",
"=X c #A6B695",
"-X c #B4BAB3",
";X c #A7AEA4",
":X c #CEB38A",
">X c #D6B78F",
",X c #CCB89A",
"<X c #D8BD91",
"1X c #C3A481",
"2X c #C7B5A5",
"3X c #9CC19A",
"4X c #A4C29C",
"5X c #BBD1AF",
"6X c #E5C89B",
"7X c #C3C2BF",
"8X c #D7C8AD",
"9X c #E5CDA3",
"0X c #C6C6C5",
"qX c #D6D7CA",
"wX c #E1D9C9",
"eX c #E2E6E1",
/* pixels */
"h.h.h.h.h.h.g.j.V.4X1.;.(.3.L.>.R 2X&XN.x.f.h.h.h.h.",
"h.g.g.h.g.h.f.M.0X*.3.K.^.I.^.I.I.|.9X6X&Xi.f.h.f.h.",
"h.g.g.h.f.f.&X3X_.0 L.!.Q.Q.Q.Q.Q.~.}.(.{.4Xj.f.h.h.",
"g.g.g.g.h.j.B. .A 8.i.a.a.a.a.a.a.T.W.}.(.,XM.j.h.h.",
"g.h.h.h.f.b.#.S m n n n n n b n n d.T.~.U./.'.$Xf.h.",
"h.h.g.h.b.o.5 n M k k k k k k k k M y.T.^.K.2.$Xf.f.",
"h.g.f.j.*.5 G V m 0.0.0.0.0.0.0.0.m k 0.T.^.(.=Xf.h.",
"f.j.k.k. .@ g C I p.p.p.p.p.p.p.e.b p l E ).8X5Xh.f.",
"h.$XwXqX@.: d v 6.w.w.e.p.p.p.p.p.M g < 1 z.&XqX$Xh.",
"4X,X/.:XO.g F j l J P 7.e.e.e.p.p.p.m + > O.:X/.,X4X",
"].'.9X9X#.g K H d 2 F 6.6.6.w.e.u.9.b . > O.9X6X1X].",
"1.'.>X<XO.g K P j : s v F K 7.w.9.6.h + < O.<X,X@X1.",
"C.*X:.<.~ C L L v 1 + : p v L P P P l . 2 ~ <.:.*XC.",
"M.$X`.2. X XC g d p < : @ , 1 v L v 1 * [ { ,.@X$XM.",
"f.f.&X| v.S.D p p p p < @ @ : 1 v d > * v.v.^ #Xf.f.",
"f.Z.-Xw F.H.R c g p p p p 1 : + < 1 > 9 F.F.i &Xf.g.",
"h.h.%X=X@.Y :.J.D.a p p p p 1 , + + 9 ( Y @.;X%Xf.g.",
"h.h.h.x.+X ./ D.D.r.r.E p p E t.Q 9 % ^ X.+Xx.h.g.g.",
"h.h.g.x.eX+X3 X T R.R.D.x x G.R.R.T . 3 +XeXx.h.h.g.",
"h.j.h.x.*.q G s a B z W E.R.W z B a s h Z *.k.j.x.h.",
"V.-X*.*.i i m.D 1 g 4 E Y.Y.E s g < A A.] ] *.n.-XN.",
"C.&.% % q &.0X` > L K 6.P P P P L > i 0XXX` % % %.m.",
"q u t t ` $..X0 > L K 6.P P P K J > ; ,.$.] t t u q ",
"  6 ;.1.| 0 0 4 f S ! S ! ! ! ! ! f 5 - e | 1.;.6   ",
"q u / _.u . # G U ( ( ( ( ( ( ( ) U G #   i 1./ u q ",
"%X&.% = o # G 7.q.u.u.u.u.u.u.u.i.i.7.C , o e % &.%X",
"C.0XOXOXq + 4 I 9.e.e.e.p.p.p.p.p.9.L f =.+XOXOX0XN.",
"j.N.N.C. .  o d H 8.8.8.N N 8.N N H s = OXqXZ.N.N.j.",
"f.f.f.j.%.= 8 o . + = 3 3 = o $ $ $ X . * %.l.f.f.h.",
"h.f.f.j.m.} ;     = =.+.o.o.q O 8 r r - .  .j.f.h.h.",
"h.h.h.h.f.b. .| }  .qXx.h.h.n.i y y r 8 ^ n.j.f.h.h.",
"f.h.h.f.f.l.k.l.l.k.M.j.h.h.B.;Xe O X = +.b.h.h.h.h."
};
