/* XPM */
static char *up_4__[] = {
/* columns rows colors chars-per-pixel */
"25 32 202 2 ",
"   c #030E03",
".  c #090A06",
"X  c #100805",
"o  c #190C08",
"O  c #051806",
"+  c #1B1816",
"@  c #1E1D02",
"#  c #29180C",
"$  c #231E1C",
"%  c #09240B",
"&  c #07280A",
"*  c #122C09",
"=  c #09330B",
"-  c #0B3A0E",
";  c #19340B",
":  c #132517",
">  c #093C13",
",  c #073311",
"<  c #142D1D",
"1  c #372817",
"2  c #2D3111",
"3  c #373A15",
"4  c #333507",
"5  c #242824",
"6  c #352B29",
"7  c #3B3A39",
"8  c #363028",
"9  c #45351C",
"0  c #55321A",
"q  c #5A351B",
"w  c #462816",
"e  c #46382B",
"r  c #453A35",
"t  c #0A400F",
"y  c #0A4314",
"u  c #0C4A12",
"i  c #0C481A",
"p  c #124912",
"a  c #0D5316",
"s  c #0D5C1C",
"d  c #0C5419",
"f  c #155513",
"g  c #115A1B",
"h  c #185D1E",
"j  c #1B5616",
"k  c #2C4E19",
"l  c #37491B",
"z  c #205716",
"x  c #17661D",
"c  c #0E631E",
"v  c #226519",
"b  c #2A7A1D",
"n  c #29761C",
"m  c #175D2A",
"M  c #3C5D29",
"N  c #374538",
"B  c #29552D",
"V  c #0E6621",
"C  c #0E6C23",
"Z  c #116E22",
"A  c #196C27",
"S  c #0F7A29",
"D  c #117425",
"F  c #117B29",
"G  c #3E602E",
"H  c #2E7526",
"J  c #4A480D",
"K  c #5C770C",
"L  c #717403",
"P  c #464824",
"I  c #415C23",
"U  c #554C31",
"Y  c #665A22",
"T  c #695F2C",
"R  c #6D5637",
"E  c #72522B",
"W  c #53672D",
"Q  c #616326",
"!  c #423F43",
"~  c #3C4D5C",
"^  c #107570",
"/  c #434642",
"(  c #5F4B41",
")  c #475348",
"_  c #585A44",
"`  c #745A44",
"'  c #597559",
"]  c #6B714F",
"[  c #5F6161",
"{  c #716F69",
"}  c #6A7365",
"|  c #73716E",
" . c #787678",
".. c #7A7A7A",
"X. c #6C6B6D",
"o. c #825829",
"O. c #8B5E31",
"+. c #956A33",
"@. c #98723A",
"#. c #947C22",
"$. c #A17A3D",
"%. c #8B6745",
"&. c #976946",
"*. c #9A764F",
"=. c #A47B46",
"-. c #847F75",
";. c #16802A",
":. c #1A8329",
">. c #288726",
",. c #328824",
"<. c #2C9229",
"1. c #269129",
"2. c #399A28",
"3. c #3EA129",
"4. c #598F14",
"5. c #439627",
"6. c #479928",
"7. c #459A24",
"8. c #7F9036",
"9. c #41A429",
"0. c #459745",
"q. c #479847",
"w. c #489848",
"e. c #489749",
"r. c #519A4F",
"t. c #518F51",
"y. c #529E52",
"u. c #569956",
"i. c #609154",
"p. c #658B4E",
"a. c #5CA25C",
"s. c #77B15C",
"d. c #689168",
"f. c #65A464",
"g. c #6DAE6D",
"h. c #6AA76A",
"j. c #78AD76",
"k. c #7EB07B",
"l. c #72AC6E",
"z. c #988413",
"x. c #99A41A",
"c. c #9AA603",
"v. c #8B8122",
"b. c #A0822E",
"n. c #AA843E",
"m. c #98AF28",
"M. c #AAB737",
"N. c #C4BB0F",
"B. c #D1B720",
"V. c #B9DF0F",
"C. c #B7DB13",
"Z. c #BAE00F",
"A. c #DAC818",
"S. c #C4C30C",
"D. c #8C8A57",
"F. c #8F8F58",
"G. c #A3A948",
"H. c #A9876B",
"J. c #B89977",
"K. c #A69A76",
"L. c #96A572",
"P. c #ACA673",
"I. c #B6AD7A",
"U. c #C39F73",
"Y. c #387E84",
"T. c #158895",
"R. c #7F8080",
"E. c #888787",
"W. c #949391",
"Q. c #918E8C",
"!. c #A99982",
"~. c #BA9F8E",
"^. c #84AB84",
"/. c #87A686",
"(. c #94A78C",
"). c #85B781",
"_. c #8DBD8D",
"`. c #89B985",
"'. c #9CAA9D",
"]. c #95B795",
"[. c #BBA287",
"{. c #B8B899",
"}. c #B9A99E",
"|. c #9AA3AE",
" X c #ACAEAD",
".X c #ADA9A6",
"XX c #B0BFA7",
"oX c #B5B3B4",
"OX c #BCBCBB",
"+X c #C9A983",
"@X c #C3B586",
"#X c #C7B598",
"$X c #C8B8A6",
"%X c #D2BDA0",
"&X c #97C095",
"*X c #A4C89F",
"=X c #BED1BC",
"-X c #ADC4B3",
";X c #D1CDB5",
":X c #CADAC3",
">X c #D7D4C8",
",X c #E1DFD5",
/* pixels */
"w.w.w.w.w.0.a.f.N 9 $.n.n.+.O.u.h.l.f.0.q.w.w.w.w.",
"w.w.w.w.w.0./...R z.A.A.A.A.B.G.@X;X*X6.w.q.w.w.w.",
"w.w.w.0.a./.' < W m.V.V.Z.Z.C.M.v.D.{.f.q.q.q.q.w.",
"w.w.q.0.f.E.: A ,.7.7.7.7.7.7.7.1.H *.XX=Xy.q.q.w.",
"w.w.w.q.j.| % ,.x f f f f f f f f i k R !.r.q.q.q.",
"w.w.w.k.D.~ - j n ,.b ,.b b b b j u h T J.r.q.y.w.",
"w.w.w.=X7 O u f ,.9.9.9.9.9.9.9.b s V W D.L.R.3.w.",
"g.:X:X>X7 & a Z <.9.9.9.9.9.9.9.<.C f p P *.:X&Xq.",
").;XU.#XG d V d D <.3.9.9.9.3.9.1.S C a T U.I.;X&X",
"K.+XI.@XM s V & s ;.<.2.9.9.3.<.:.Z > t ] L.P.J..X",
"*.[.P.I.G d u   d F ;.<.2.9.3.:.V y O = ] F.K.J.K.",
",X~.+.=.M i =   d F F F <.3.2.:.> O , i W F.*.$XL.",
"R.:X!.` T.^ *   - s S S ;.;.;.F >   y T.Y.%.$X:Xg.",
"w.w.p.e s.p.3 * O = c S F F D c , . 3 s.p.U (.q.q.",
"w.q.j.] m.z.E K ; % - C F F Z t 4 J o.x.v.| _.q.q.",
"w.q.y.-X_ U b.S.K * O c F F C & L N.+.P } f.a.q.q.",
"w.w.w.u.'.X.4 J c.L O > C C i O @ 4 1 Q.-Xy.0.q.q.",
"w.w.w.0.f...  % 4.4.> % y a -   # # +  Xg.q.q.q.q.",
"w.w.0.0.f.-.  u x D C , & = = % U ` $  Xg.q.w.q.q.",
"w.w.0.a.=X..% A A g D C >   O j ^..X7 .Xg.q.w.q.q.",
"w.q.a.=XX.6 _  X] 3 g D V s h I U [ OXR.q.w.q.q.q.",
"w.q.(.E.e R K.|.( w l I I M I Q k B R.].a.q.q.q.q.",
"e.e.i.$ 0 J.$X~ + 2 Y Y Y Y T 5.:.s : oXg.q.q.q.q.",
"e.e.' 6 0 H.[.5 & v 6.6.6.5.5.2.>.s 5  Xg.q.q.q.q.",
"e.q.R.-XP 6 6 O u :.2.9.9.,.; * % N '.h.w.w.w.w.q.",
"e.e.w.&XW.R. . .B i z z z k 9 1 . ! ].0.q.w.w.w.y.",
"e.w.w.w.R._._._.} 7 7 7 + 1 @.o.1 r (.*Xa.q.w.q.q.",
"q.e.q.e.q.0.0.0.u.t.t.t.U $ @.=.o.0 7 OXg.q.w.w.q.",
"w.w.w.w.y.q.q.q.0.w.w.e.) 1 &.=.O.0 + .Xg.q.q.w.q.",
"w.w.w.w.q.q.q.q.e.e.w.e.) 1 O.O.E w $  Xg.q.q.q.q.",
"w.q.w.q.w.w.q.q.e.e.e.e.} r q q w 1 ! $Xg.q.q.q.q.",
"w.w.w.w.w.w.w.w.e.e.e.e.h.W.+ X X ! /.f.y.q.q.q.q."
};
