/* XPM */
static char *down_1_[] = {
/* columns rows colors chars-per-pixel */
"51 64 223 2 ",
"   c #010101",
".  c #060906",
"X  c #140B06",
"o  c #041A09",
"O  c #061507",
"+  c #121212",
"@  c #1B1A1C",
"#  c #1F160B",
"$  c #25150B",
"%  c #311E16",
"&  c #0C2109",
"*  c #05240B",
"=  c #1B3F0D",
"-  c #073612",
";  c #113A12",
":  c #3B2119",
">  c #342417",
",  c #342E1D",
"<  c #001B26",
"1  c #272727",
"2  c #353435",
"3  c #3A3939",
"4  c #332827",
"5  c #162839",
"6  c #482819",
"7  c #532F18",
"8  c #59331A",
"9  c #6E3D1D",
"0  c #663819",
"q  c #713E1E",
"w  c #4C2A21",
"e  c #512D20",
"r  c #4C3728",
"t  c #4D392B",
"y  c #6D3C20",
"u  c #723E20",
"i  c #0C440C",
"p  c #0B521B",
"a  c #124814",
"s  c #2A6A1C",
"d  c #164E23",
"f  c #2A4B2E",
"g  c #0C6120",
"h  c #0E6C24",
"j  c #0E7B29",
"k  c #0F7527",
"l  c #107C29",
"z  c #177927",
"x  c #2A6B26",
"c  c #237427",
"v  c #387324",
"b  c #6E411F",
"n  c #72401F",
"m  c #5D7F1E",
"M  c #5D4E23",
"N  c #445C24",
"B  c #6D4321",
"V  c #694821",
"C  c #734121",
"Z  c #794826",
"A  c #784726",
"S  c #6D512C",
"D  c #53692C",
"F  c #6C7231",
"G  c #666312",
"H  c #2A3846",
"J  c #334F6C",
"K  c #27435F",
"L  c #535354",
"P  c #595859",
"I  c #585758",
"U  c #454545",
"Y  c #725D48",
"T  c #406B41",
"R  c #6C724C",
"E  c #434F7E",
"W  c #7C7C7D",
"Q  c #757A77",
"!  c #6F6D6B",
"~  c #8A7E0A",
"^  c #85562C",
"/  c #845A34",
"(  c #915E2E",
")  c #886139",
"_  c #956836",
"`  c #99733A",
"'  c #807E3A",
"]  c #A47B3F",
"[  c #A6763B",
"{  c #946844",
"}  c #9D724E",
"|  c #9B7451",
" . c #876A4B",
".. c #A47A42",
"X. c #A27845",
"o. c #A47B56",
"O. c #9F7E69",
"+. c #867964",
"@. c #13802A",
"#. c #1B8429",
"$. c #1E8234",
"%. c #268928",
"&. c #2D9329",
"*. c #3E9D27",
"=. c #309629",
"-. c #369C29",
";. c #379626",
":. c #32853A",
">. c #368F23",
",. c #3DA129",
"<. c #58A31D",
"1. c #499C29",
"2. c #42A529",
"3. c #47A62B",
"4. c #7B8B2B",
"5. c #7FD677",
"6. c #A48315",
"7. c #B29711",
"8. c #8A853B",
"9. c #95823D",
"0. c #959533",
"q. c #AC873B",
"w. c #B69534",
"e. c #BA9A32",
"r. c #B49130",
"t. c #BFA22C",
"y. c #BEA030",
"u. c #808D13",
"i. c #C4AA2A",
"p. c #CCB426",
"a. c #D2BD20",
"s. c #D5B434",
"d. c #E5BF3F",
"f. c #8EC013",
"g. c #B7C61B",
"h. c #DBCA1B",
"j. c #D7D010",
"k. c #E2D416",
"l. c #E0CF1C",
"z. c #CEE70B",
"x. c #ECE30E",
"c. c #F6F206",
"v. c #FFFE00",
"b. c #FAF30B",
"n. c #F6EA14",
"m. c #F3EE08",
"M. c #E9C836",
"N. c #EBCF2D",
"B. c #AC844C",
"V. c #B48743",
"C. c #B38D55",
"Z. c #B38C67",
"A. c #BA956A",
"S. c #A98862",
"D. c #C8994B",
"F. c #D5A54E",
"G. c #DEAB52",
"H. c #D1A050",
"J. c #CAA142",
"K. c #E2B54A",
"L. c #E0AE53",
"P. c #E5B253",
"I. c #C19C73",
"U. c #C8A57A",
"Y. c #D2B17F",
"T. c #89CA76",
"R. c #2E519D",
"E. c #324E93",
"W. c #465E98",
"Q. c #47629F",
"!. c #7F7F80",
"~. c #4F6BA9",
"^. c #7FDE81",
"/. c #3DB8DE",
"(. c #00ACED",
"). c #00BAFF",
"_. c #818182",
"`. c #979797",
"'. c #B6A597",
"]. c #A09FA8",
"[. c #A6A6A6",
"{. c #A7A7A8",
"}. c #A8A8A9",
"|. c #B5B6B6",
" X c #A9AEB5",
".X c #9CA1A8",
"XX c #C9AB84",
"oX c #CBB186",
"OX c #D5B48B",
"+X c #D6B589",
"@X c #DABA92",
"#X c #CBB492",
"$X c #C5B8B6",
"%X c #E2C49A",
"&X c #E5C89E",
"*X c #D8CABD",
"=X c #E9CCA4",
"-X c #EED1A8",
";X c #F7DCB2",
":X c #EED6B4",
">X c #FFE6BD",
",X c #FFE8BE",
"<X c #F9E0B7",
"1X c #DFC098",
"2X c #ABC4CD",
"3X c #A7E6FC",
"4X c #C9C9C9",
"5X c #C3C3C3",
"6X c #D4D4D4",
"7X c #D8D8D8",
"8X c #D8CCC4",
"9X c #E2D8D1",
"0X c #D4E6D8",
"qX c #FFEAC1",
"wX c #EDE5D9",
"eX c #FEF1DD",
"rX c #FFEED2",
"tX c #DFE2EA",
"yX c #E7E7E7",
"uX c #FDF5E9",
"iX c #F5F4F4",
"pX c #FFFFFF",
"aX c #F0EEEE",
/* pixels */
"pXpXpXpXpXpXpXpXpXpXpXpXpXpXpXpXyX@   o l l l l l l l l l l j o   @ yXpXpXpXpXpXpXpXpXpXpXpXpXpXpXpXpX",
"pXpXpXpXpXpXpXpXpXpXpXpXpXpXpXpXyX@   O k l l l j j l j l l k o   @ yXpXpXpXpXpXpXpXpXpXpXpXpXpXpXpXpX",
"pXpXpXpXpXpXpXpXpXpXpXpXpXpX6X5X X; o - z #.#.#.#.#.#.#.#.#.z - o 1  X5X6XpXpXpXpXpXpXpXpXpXpXpXpXpXpX",
"pXpXpXpXpXpXpXpXpXpXpXpXpXiX3 . O h j #.2.2.2.,.2.2.,.2.,.2.2.#.j h o   3 iXpXpXpXpXpXpXpXpXpXpXpXpXpX",
"pXpXpXpXpXpXpXpXpXpXpXpXpXpX3   . h j #.2.2.2.2.2.2.2.2.2.2.2.#.j h .   2 pXpXpXpXpXpXpXpXpXpXpXpXpXpX",
"pXpXpXpXpXpXpXpXpXpXpX|.`.`.f - - h j #.&.&.&.&.&.&.&.&.&.=.&.z j k - - f `.].|.pXpXpXpXpXpXpXpXpXpXpX",
"pXpXpXpXpXpXpXpXpXpXpXI     g j l l l l l l l l l l j j l j j z j l l l g     I pXpXpXpXpXpXpXpXpXpXpX",
"pXpXpXpXpXpXpXpXpXpXpXI     g j j l j j k l l l l j l j j j j j j j j j g     I pXpXpXpXpXpXpXpXpXpXpX",
"pXpXpXpXpXpXpXpX|.! ! f p p c &.&.&.&.&.&.&.=.&.&.&.&.&.&.&.&.&.&.&.&.&.%.p a f ! ! |.pXpXpXpXpXpXpXpX",
"pXpXpXpXpXpXpXpXW     p j j ,.2.2.2.2.2.2.2.2.2.2.2.2.2.2.2.2.2.2.2.2.2.-.l l p     !.pXpXpXpXpXpXpXpX",
"pXpXpXpXpXpXpXpX!.    p l l -.2.2.2.2.2.2.2.2.2.2.2.2.2.2.2.2.2.2.2.2.2.-.l @.p     !.pXpXpXpXpXpXpXpX",
"pXpXpXpXpXpXpXpX!.    s -.-.4.8.8.z.z.z.z.z.g.8.8.8.8.8.g.z.z.0.8.8.8.8.4.-.-.s     !.pXpXpXpXpXpXpXpX",
"pXpXpXpXpXpXpXpX!.    s 3.3.9.X.q.c.v.v.v.v.k...] ......k.v.v.w.........9.2.3.s     _.pXpXpXpXpXpXpXpX",
"pXpXpXpXpXiXyXyXQ . O v 3.3.9.X.q.c.v.v.c.c.h.q.q.] ] ..l.v.v.y.q.q.....9.1.3.v . . Q yXyXiXpXpXpXpXpX",
"pXpXpXpXpX|.1 @ d h h F 9.9.X...q.c.v.x.r.q.i.m.m.p.....k.v.v.c.m.x.q.....9.9.F h h d @ 1 |.pXpXpXpXpX",
"pXpXpXpXpX{.    - j @.F ] ] } ..q.c.v.x...X.i.v.v.a.....l.v.v.v.v.c.q.X.......F j @.-     [.pXpXpXpXpX",
"wXwXwXaXuX'.X X = x c ' V.V.w.w.e.n.n.k.e.w.i.x.x.a.w.w.l.b.n.n.x.x.e.w.w.] ..F c c = X X '.aXuXwXwXwX",
"B...C.OXOXZ.B y B C B V.G.G.n.v.b.K.G.M.v.v.j.B.] a.v.c.M.L.K.V.] q.m.v.x.] B._ y C A u y Z.OXOXC.X.B.",
"..] B.+XOXZ.q q q q q V.L.G.b.v.b.K.G.K.v.v.k.] X.a.v.v.M.L.L.V...q.c.v.x...` _ u u u q q Z.OXXXC.` ..",
"_ ) X.&X&XoXo.o.{ ^ ^ i.M.M.l.h.l.N.M.M.l.h.p...X.a.v.v.s.D.D.C.C.C.h.h.h.i.i.r.^ ^ { o.o.XX=X%XX._ _ ",
"u y ) qX>X>X>XqXY.] ] k.v.v.r.} q.c.v.x.] ....] ..a.v.v.i.....U.@X+X....w.v.v.k...] Y.qX>X>XqX>X{ 9 u ",
"y 0 { qXqXqX>XqXY.] ] k.v.v.e.[ q.c.v.x.] ........a.v.v.i.....U.+XoXB...w.v.v.l.....Y.qX>XqXqX;X) 9 9 ",
"'.'.XXZ.Z.U.=X=XA.^ ^ r.p.p.J.D.J.b.v.c.a.a.p.D.D.r.7.7.D.A.I.1X-X%XB.X.w.N.N.s...] U.&X=XU.Z.Z.'.#X'.",
"pXpX9Xu 0 { OXOXo.n n _ ....H.L.K.b.v.v.v.v.n.G.L.[ y u Z.@X@X;XqX;XB.[ B.G.G.D.] [ A.OXOX{ 9 C 9XpXpX",
"pXpX9XA 9 { OXOXo.q q _ ] ..H.L.K.b.v.v.v.v.n.G.G.[ C C Z.OXOX;X,X;XB...V.G.G.D.q.] A.OXOX{ q A 9XpXpX",
"pXpXaX8X*X2X/./.T.j.h.~ ^ ^ D.L.K.M.M.d.t.t.q.( ( X.A.A.1X:X;X;X>X;XU.U.A._ ( r.k.k.T././.2X*X8XaXpXpX",
"pXpXpXpXpX3X).).^.v.v.~ q C D.L.G.G.G.H.] .._ u 9 o.@XOX;XqXqXqX,X<X@XOXI.q 9 ~ v.v.5.).).3XpXpXpXpXpX",
"pXpXpXpXpX3X(.(.T.v.v.6.C Z V.H.H.F.G.D.[ } _ Z A o.@X@X:X;X;X;X;X:XoXXXZ.^ A 6.v.v.5.(.(.3XpXpXpXpXpX",
"pXpXpXpXpX X< < 4.v.v.t._ ` , $ > } V.[ Z A { U.U.@X;X;X=X@X@X{ ) S % @ 6 _ { i.v.v.u.< <  XpXpXpXpXpX",
"pXpXpXpXpX[.    u.v.v.i.....#   . _ B.` C 9 { @XOX-XqX>X%XOXXX^ q 0     # X...i.v.v.u.    [.pXpXpXpXpX",
"pXpXpXpXpX{.    G b.b.t._ ` t 4 2  .|  .C 9 { @X@X-X>X>XOXI.I.Y S y 2 4 t ` ` e.b.b.G     [.pXpXpXpXpX",
"pXpXpXpXpX{.    G P.P._ u Z 6XiXyXQ.R.J C n o.,XqX>X>XqXo.A A W.R.~.tXiX8XZ q _ P.d.S     {.pXpXpXpXpX",
"pXpXpXpXpX[.    S P.L._ n Z 7XpXaX~.E.W.y 0 o.qX>X>X>X>Xo.9 9 W.R.Q.aXpX9XA u _ L.P.S     {.pXpXpXpXpX",
"pXpXpXpXpX5XL L Y ` ` V 6 8 *XuXtXQ.E.Q.O.O.XXqX>X>X>X>XXXo.O.W.R.Q.yXuX*X7 6 B ` ` Y I L 5XpXpXpXpXpX",
"pXpXpXpXpXpXpXpXS.        . #XqX:XQ.R.~.iXpXuX;XqX;X>X>XuXpXpX~.R.~.8XqX#X.         +.pXpXpXpXpXpXpXpX",
"pXpXpXpXpXpXpXpX!.        . #X,X8XQ.R.~.iXpXuXqXqXqXqX;XuXpXpX~.R.R.:XrX#X.         !.pXpXpXpXpXpXpXpX",
"pXpXpXpXpXpXpXpX2X_._.4   . S.Y.XX[.]. XeXeXrXqX>X>X>X>XrXeXeX X.X[.oXY.S..   2 W _.2XpXpXpXpXpXpXpXpX",
"pXpXpXpXpXpXpXpXpXpXpXP     ) ] B.;XqXqXqX;X;XqX>X>X;XqX>X>X>X>X,X;XB.` S .   P pXpXpXpXpXpXpXpXpXpXpX",
"pXpXpXpXpXpXpXpXpXpXpXP     ) ..B.;X>X>XqXqX;XqX;XqXqXqX>XqX>X>X>X;XC.q.) .   I pXpXpXpXpXpXpXpXpXpXpX",
"pXpXpXpXpXpXpXpX[.L L f p p S ^ ^ } } S.1X1X=X1X=X%X%X%X%X%X1XS.| } ^ Z S p p f L L {.pXpXpXpXpXpXpXpX",
"pXpXpXpXpXpXpXpXW     p l l M q u u q / OX+X+XOX+X+X+XOX+XOX+X^ 9 9 n q M j @.p .   !.pXpXpXpXpXpXpXpX",
"pXpXpXpXpXpXiXaXW . . g $.z M B B u A S XXXXoXXXoXoXoXoXoXXXXX/ b B b b M l $.d     Q iXaXpXpXpXpXpXpX",
"pXpXpXpXpX|.1 1 H K K  XtX0XD i = c c c :.:.:.:.:.:.:.:.:.:.:.z c c a = D 0X0X'.: : 4 1 4 |.pXpXpXpXpX",
"pXpXpXpXpX}.    5 E.J 2XpXpXT - a k j j j j j j k j j j j j j j j k i ; T pXpX$Xw w $     {.pXpXpXpXpX",
"pXpXiX6X7X`.X X 2 J J .X7X6XN = = k l l j l l l j j j l j j z l j k a i D 6X6X`.e e % X X `.7X7XiXpXpX",
"pXpX4X@ + % 0 0 y C C > + + r 9 V z l l j j l l j j j j l j j l l z b b 8 + + > u u y 9 9 $ + + 4XpXpX",
"pXpX4X.   $ n n q q n $     7 q V z l l j @.j k j j j @.j j z j j c B q 8     $ u q q u n $   . 4XpXpX",
"pXpX4X.   > { ) { | X., O O M F M v x x x x v <.<.<.<.<.v s v N x s M F M O O , | | { { { >   . 4XpXpX",
"pXpX4X.   M #XOX=XqX,XR i i =.,.1.b n n n n 6.v.v.v.v.v.[ q q n n V 1.2.>.p i R qXqX=XOX@Xt   . 4XpXpX",
"pXpX4X    t @XOX-XqXqXR i i -.,.3.b n n n n 6.v.v.v.v.v.~ 0 q n n b 1.2.>.i i R qXqX-X@X@Xt     4XpXpX",
"pXpXyXW Q ! Y Y Y +.+.2 * * #.>.&.D m D N N 4.f.f.<.f.f.<.N N D m D &.&.#.* * , +.+.R Y Y ! Q W yXpXpX",
"pXpXpXpXpX}.    .           g @.l *.2.-.@.l k k #.j j j j j @.,.2.,.@.j g                 }.pXpXpXpXpX",
"pXpXpXpXpX[.                g @.l ,.2.-.l l j j @.l l j l l j -.2.,.@.@.g .               [.pXpXpXpXpX",
"pXpXpXpXpXtX[.[.[.}.}.3     o - - #.%.%.=.=.&.>.=.;.=.=.=.=.=.%.%.#.- * *     3 {.{.{.[.[.yXpXpXpXpXpX",
"pXpXpXpXpXpXpXpXpXpXpXP         . h j #.2.2.2.2.2.2.2.2.2.2.2.#.j h .         I pXpXpXpXpXpXpXpXpXpXpX",
"pXpXpXpXpXpXpXpXpXiXiXP         . h j z *.*.2.2.,.2.*.*.*.*.*.z k h O         I iXiXpXpXpXpXpXpXpXpXpX",
"pXpXpXpXpXpXpXpX`.2 2 e 8 8 6 : : + o o o & o & & o & & & & & O o o > : 6 8 8 r 2 2 `.pXpXpXpXpXpXpXpX",
"pXpXpXpXpXpXpXpXW     7 n n 8 w : .                                 : w e u u 7     W pXpXpXpXpXpXpXpX",
"pXpXpXpXpXpXpXpXW     6 C C e e 6 . X       + 1 1 1 1 @ X     . X X w w 8 n C 7     W pXpXpXpXpXpXpXpX",
"pXpXpXpXpXpXpXpX_.    6 C C C B y w 6 %     L yXaXyXaXyXL     % 6 6 y y u n n 6     !.pXpXpXpXpXpXpXpX",
"pXpXpXpXpXpXpXpXW     6 C n C C y e w :     I pXpXpXpXpXI     : w 7 C C C C C 6     W pXpXpXpXpXpXpXpX",
"pXpXpXpXpXpXpXpX[.U U r 8 7 7 8 7 : : 4 U U _.pXpXpXpXpX_.U U 4 : : 7 7 8 7 8 r U U [.pXpXpXpXpXpXpXpX",
"pXpXpXpXpXpXpXpXpXpXpXI               3 iXpXpXpXpXpXpXpXpXpXiX2               P pXpXpXpXpXpXpXpXpXpXpX",
"pXpXpXpXpXpXpXpXpXpXpXI               2 iXpXpXpXpXpXpXpXpXpXpX2               P pXpXpXpXpXpXpXpXpXpXpX"
};
