/* XPM */
static char *down_4_[] = {
/* columns rows colors chars-per-pixel */
"48 64 235 2 ",
"   c #010101",
".  c #0A0604",
"X  c #0A0A0A",
"o  c #090A05",
"O  c #160C09",
"+  c #041608",
"@  c #0A1B08",
"#  c #031506",
"$  c #161006",
"%  c #171718",
"&  c #161616",
"*  c #27170B",
"=  c #331C0F",
"-  c #2E1C16",
";  c #07280D",
":  c #0B350B",
">  c #073712",
",  c #14330D",
"<  c #382316",
"1  c #283613",
"2  c #29241E",
"3  c #05303C",
"4  c #29292A",
"5  c #272624",
"6  c #363736",
"7  c #313127",
"8  c #1F1F20",
"9  c #47281C",
"0  c #47351A",
"q  c #5C351A",
"w  c #542F17",
"e  c #693A1C",
"r  c #713E1D",
"t  c #703916",
"y  c #4A2920",
"u  c #502D20",
"i  c #553122",
"p  c #553720",
"a  c #43372C",
"s  c #693B20",
"d  c #733F20",
"f  c #0C420D",
"g  c #0A4919",
"h  c #124F17",
"j  c #12621E",
"k  c #29711B",
"l  c #125822",
"z  c #344A3A",
"x  c #0D6823",
"c  c #0E7326",
"v  c #0E7B29",
"b  c #0C7927",
"n  c #117C29",
"m  c #187627",
"M  c #166924",
"N  c #337128",
"B  c #24561F",
"V  c #69421F",
"C  c #73401E",
"Z  c #737300",
"A  c #6D6310",
"S  c #5B4823",
"D  c #504B33",
"F  c #664922",
"G  c #744221",
"H  c #7C4C28",
"J  c #645F23",
"K  c #6C6827",
"L  c #4F613C",
"P  c #093343",
"I  c #305172",
"U  c #24405D",
"Y  c #434343",
"T  c #484748",
"R  c #545050",
"E  c #695A46",
"W  c #746456",
"Q  c #656565",
"!  c #6C6B69",
"~  c #787879",
"^  c #71706D",
"/  c #5B656C",
"(  c #89582D",
")  c #905E2D",
"_  c #865A35",
"`  c #8A6536",
"'  c #956937",
"]  c #9C773E",
"[  c #97682E",
"{  c #A47B3E",
"}  c #A87B3E",
"|  c #B17F3D",
" . c #A57E29",
".. c #9C7819",
"X. c #936744",
"o. c #94704D",
"O. c #A17643",
"+. c #A47B41",
"@. c #A87E43",
"#. c #A47B52",
"$. c #807B75",
"%. c #198429",
"&. c #248526",
"*. c #238A29",
"=. c #2C9329",
"-. c #3D9B27",
";. c #3A9E29",
":. c #37972A",
">. c #3EA329",
",. c #75BD1E",
"<. c #569730",
"1. c #748D36",
"2. c #41A529",
"3. c #6BAE25",
"4. c #548F4B",
"5. c #55904C",
"6. c #6D904B",
"7. c #BAB90F",
"8. c #AC873B",
"9. c #B89833",
"0. c #B18E34",
"q. c #BEA12E",
"w. c #A8A929",
"e. c #9CB014",
"r. c #CEBB16",
"t. c #CCB524",
"y. c #D5BE24",
"u. c #CEB030",
"i. c #E5BE3F",
"p. c #B6D70D",
"a. c #DAD503",
"s. c #D8C61C",
"d. c #DFD117",
"f. c #D7CA0E",
"g. c #E9DE11",
"h. c #E4D813",
"j. c #EADF0F",
"k. c #EBE30E",
"l. c #E5EE06",
"z. c #F3ED09",
"x. c #F3EE07",
"c. c #FEFE01",
"v. c #F9F30A",
"b. c #F5E717",
"n. c #F3EA1D",
"m. c #D4C223",
"M. c #EED528",
"N. c #F1DB24",
"B. c #E8C638",
"V. c #E6CE2B",
"C. c #AC844A",
"Z. c #AE8658",
"A. c #B48E59",
"S. c #B88D49",
"D. c #AD8A66",
"F. c #B38C65",
"G. c #B79469",
"H. c #B99974",
"J. c #A7A471",
"K. c #98AF5B",
"L. c #C8974A",
"P. c #D3A34E",
"I. c #DDAB53",
"U. c #D5A351",
"Y. c #DDB148",
"T. c #E4BC42",
"R. c #E0B04E",
"E. c #E1AE54",
"W. c #C19C6F",
"Q. c #C6A37A",
"!. c #D1B077",
"~. c #E2B361",
"^. c #DCC173",
"/. c #2C4E9B",
"(. c #2F509C",
"). c #30529D",
"_. c #3C4F86",
"`. c #49668A",
"'. c #576FA8",
"]. c #717FA3",
"[. c #2C88A5",
"{. c #499DA8",
"}. c #6D81B0",
"|. c #01B7F9",
" X c #07AFEC",
".X c #8C8C8C",
"XX c #858687",
"oX c #989898",
"OX c #B79D8A",
"+X c #B7A492",
"@X c #A8A7A7",
"#X c #B4B4B5",
"$X c #B3AFAD",
"%X c #98ABA9",
"&X c #CBAA85",
"*X c #D5B48B",
"=X c #D6B588",
"-X c #DAB992",
";X c #D0AE84",
":X c #CEBDB1",
">X c #DFC097",
",X c #E3C59D",
"<X c #DDC3A4",
"1X c #D6C7BC",
"2X c #CEC2BC",
"3X c #EDD3AC",
"4X c #EED1A4",
"5X c #F0D4AB",
"6X c #F3DBAE",
"7X c #EED9B6",
"8X c #F4DBB3",
"9X c #E5C9A1",
"0X c #FEE6BD",
"qX c #FFE9BE",
"wX c #FDE1B5",
"eX c #B3BFDA",
"rX c #83CFDA",
"tX c #B7C3DF",
"yX c #C0C1C1",
"uX c #CCCCCC",
"iX c #DDDDDD",
"pX c #D2D2D2",
"aX c #D6CFCD",
"sX c #E9DCCB",
"dX c #FFEAC2",
"fX c #FCE7C4",
"gX c #FFF1D6",
"hX c #EEEEEE",
"jX c #E4E4E4",
"kX c #ECEFF1",
"lX c #F3F3F3",
"zX c #FDFAF6",
"xX c #FFFFFF",
"cX c #F8F4F1",
"vX c #F8F3EB",
/* pixels */
"xXxXxXxXxXxXxXxXxXxXxXxXxXxXxXzX6   + c n n n n n n n n %.g     @XxXxXxXxXxXxXxXxXxXxXxXxXxXxXxX",
"xXxXxXxXxXxXxXxXxXxXxXxXxXxXxXxX6   + b n n n n n b n n %.g     @XxXxXxXxXxXxXxXxXxXxXxXxXxXxXxX",
"xXxXxXxXxXxXxXxXxXxXxXxXxXpX@X@Xz ; > n v v n b n n b n n l ; ; ^ @X#XkXxXxXxXxXxXxXxXxXxXxXxXxX",
"xXxXxXxXxXxXxXxXxXxXxXxXxX~     l n n b n n n n c n n n n n n n >   & iXxXxXxXxXxXxXxXxXxXxXxXxX",
"xXxXxXxXxXxXxXxXxXxXxXxXxX6.X X j n n n n v n v n n n n n n n n >   & jXxXxXxXxXxXxXxXxXxXxXxXxX",
"xXxXxXxXxXxXxXxXxXxXpX/ Q z g g c n v n n n n n n v n n n n n n l g g R Q .XxXxXxXxXxXxXxXxXxXxX",
"xXxXxXxXxXxXxXxXxXxXyX  X > v v n n n n v n v n n n n n n n n n v %.c #   z xXxXxXxXxXxXxXxXxXxX",
"xXxXxXxXxXxXxXxXhXhX#XX X g %.n %.n n n n n n n n n n n n n n n v v c + . Y hXhXlXxXxXxXxXxXxXxX",
"xXxXxXxXxXxXxXlXT 5 4 x x %.>.>.>.>.;.;.;.;.;.;.;.;.;.;.;.;.;.;.>.;.:.c x l 5 5 oXxXxXxXxXxXxXxX",
"xXxXxXxXxXxXxXhX4   @ n %.*.>.>.>.>.>.>.>.>.>.;.>.>.>.>.>.>.>.>.>.>.>.%.%.l     .XxXxXxXxXxXxXxX",
"xXxXxXxXxXxXxXkX4   ; m %.:.<.<.3.,.3.<.<.3.,.,.,.,.,.,.,.,.,.,.3.<.<.&.*.j     .XxXxXxXxXxXxXxX",
"xXxXxXxXxXxXxXkX4   ; 2.2.1.{ 8.k.c.k.8.+.t.c.c.c.c.c.c.c.c.c.c.u.+.{ 2.2.k     .XxXxXxXxXxXxXxX",
"xXxXxXxXxXxXxXlX4   @ 2.2.1.{ { k.c.k.8.O.t.c.c.c.c.c.c.c.c.c.c.u.' +.2.>.k     .XxXxXxXxXxXxXxX",
"xXxXxXxXxX@X^ ! B g B 1.1.w.s.s.t.t.t.s.s.g.c.c.s.t.y.c.c.k.t.t.y.m.m.K.K.6.g g R ^ ~ jXxXxXxXxX",
"xXxXxXxXxXQ     x v :.O.{ y.c.c.9.O.0.c.c.c.c.c.q.O.8.x.c.d.O.O.d.c.v.^.-XJ.%.%.>   o uXxXxXxXxX",
"zXzXzXzXxX!   X M c N +.O.y.c.c.9.8.9.v.v.c.c.c.q.O.0.v.c.d.+.+.s.c.v.^.=XJ.v n f   X uXzXxXzXzX",
"G.G.Q.<X<Xo.q q S S K P.P.M.c.c.z.k.g.T.T.N.c.c.q.O.8.v.c.h.+.+.8.9.9.N.n.m.S F p q s &X<X-XG.G.",
"{ ] A.*X;Xo.r r C C ) E.E.M.c.c.c.c.v.I.E.B.c.c.q.O.8.v.c.d.+.@.+.+.8.z.c.a.C C G G G H.*XQ.@.@.",
"' ' A.-X>XF.` X.H H ) i.i.N.c.c.v.b.b.i.T.V.k.k.u.0.q.g.k.m.Z.C.C.O.8.z.c.a.H H _ X.X.&X,X;X' ' ",
"G C #.0X0X0X8X8XA.] 9.c.v.c.c.c.i.E.T.c.c.s.{ @.h.c.z.8.{ A.=X=XA.] 8.z.c.h.{ { ;X0XwX0X0X,XH d ",
"t t #.dXdXdXdXwXA.O.9.c.c.c.c.c.T.I.T.v.c.s.+.+.h.c.z.8.+.A.*X*XA.] 8.z.c.g.{ ] =XqXqXqXfX,Xd d ",
"OXOXOXG.G.%XrXrXo.) 8.M.M.s.y.m.Y.I.T.c.c.s.+.@.h.c.z.8.+.A.*X*X=X!.!.V.M.B.{ { %XrXrXJ.H.H.OXOX",
"xXxX1Xr r [.|.|.D d ) U.E.S.O.+.P.I.T.c.c.s.O.+.h.c.z.8.+.A.*X*X5XdX0X~.E.L.+.{ {.|.|.R t o.zXxX",
"xXxX1XG G [.|. XE C ) I.I.L.{ @.P.I.T.c.c.s.@.{ h.c.z.8.+.A.*X-X5XqXwX~.I.L.@.8.{.|.|.E d o.zXxX",
"xXxXhXaXaX/ 3 3 7.a.r.) ) ' +.{ P.I.T.v.c.z.g.g.B.T.i.@.O.W.5X8X9X>X-X' (  .j.j.K P P $XaXsXxXxX",
"xXxXxXxXxXQ   $ a.c.a.C C ` C.{ P.I.T.c.c.c.c.c.B.E.U.@.| W.fX8X,X*X*XH s ..c.c.Z   # uXxXxXxXxX",
"xXxXxXxXxXQ   $ a.c.a.( H H ` ` L.P.Y.b.v.v.v.v.i.L.L.C.#.W.9X,X&XH.D.H G ..c.c.Z   X uXxXxXxXxX",
"xXxXxXxXxXQ   $ a.c.h.{ +.p o X K @.S.Y.R.R.E.R.[ G ( Q.*XF.H H < o & ` O.q.c.c.Z   X uXxXxXxXxX",
"xXxXxXxXxXQ   o a.c.j.@.@.0     _ @.@.E.E.E.E.E.) e _ &X*XF.d d *     ` @.q.c.c.Z   X uXxXxXxXxX",
"xXxXxXxXxXQ   $ t.N.y.` _ o.! ! ! ^ $.#.| | | | Z.D.#.D.D.o.R R Q ! ^ X.` 8.N.N.A   X pXxXxXxXxX",
"xXxXxXxXxXQ   o S.E.L.G r +XxXxX'./._.d r r d d *XdX3XH d R (.(.eXxXlX_ t ) I.E.F   X uXxXxXxXxX",
"xXxXxXxXxXQ   O 0.E.L.r r +XxXzX].)._.d r d G G *XdX3X( d R (.(.eXxXlX_ r ) I.E.F   X uXxXxXxXxX",
"xXxXxXxXxXpX$X$XD 0 w d d H.gXgX'./.'.yXaX<X*X*X5XqX0X1XaX@X).).#XgXsX0 O = 0 < ~ #X#XhXxXxXxXxX",
"xXxXxXxXxXxXxXlX5   O d d G.0X0X'./.'.zXzXvXdXdXqXqXfXxXzXtX(.).$XdX3X8         .XxXxXxXxXxXxXxX",
"xXxXxXxXxXxXxXkXY 5 2 s q D.8X3X].'.}.zXzXgX0X0X0X0XfXzXzXuX'.).$X6X,X5 . X $ o XXiXiXzXxXxXxXxX",
"xXxXxXxXxXxXxXxXkXjX$XX X S C.C.-X7X7XfXdXfX0X0X0XqX0XdXfXsX7X7XQ.@.@.i 9 w e e < % 8 uXxXxXxXxX",
"xXxXxXxXxXxXxXxXxXxXyX    S +.@.3XdXdXdX0X0XqX0X0XqX0X0XfXfXqXdXQ.O.O.i y i d G =   X uXxXxXxXxX",
"xXxXxXxXxXxXxXxXxXxXyX.   w ' ' W.&X*X3X5X5X5X5X5X5X5X5X5X,X&X&X#.[ ` i y y G G =   X uXxXxXxXxX",
"xXxXxXxXxXxXxXxXxXxXyX    < C C d d _ &X*X*X*X*X*X*X*X*X*XF.e d C C d y 9 i G G =   X uXxXxXxXxX",
"xXxXxXxXxXxXxXxXxXxXyX.   < C C r t _ ;X*X*X*X*X*X*X*X*X*XF.d d C C d u y i G G =   X uXxXxXxXxX",
"xXxXxXxXxXxXxXxXxXxXyX.   Q :X:X:X:X+XD a R 5.5.4.4.4.4.4.<.N N S C V 1 1 , * * ! @X@XhXxXxXxXxX",
"xXxXxXxXxXxXxXxXxXxXyX    XXxXxXxXxXpXX . > b %.b v b b b c v v J V C f f :     .XxXxXxXxXxXxXxX",
"xXxXxXxXxXxXxXxXhXjX$XX . $.kXkXkXhXyXX   : b m k *.&.&.%.m m m J V F 1 f : % & oXxXxXxXxXxXxXxX",
"xXxXxXxXxXxXxXlXY 8 2 e e R `.`.`.`.I .   1 V V p.l.l.l.l.7.F F N m M +   Y iXjXlXxXxXxXxXxXxXxX",
"xXxXxXxXxXxXxXhX4   O d d R I I I I U .   = r r f.c.c.c.c.r.d d B %.x #   T xXxXxXxXxXxXxXxXxXxX",
"xXxXxXxXxXxXxXhX4   * r d D I R / / / $ # 1 J J e.p.p.p.p.e.F J N %.&.; # 6 $X$XiXxXxXxXxXxXxXxX",
"xXxXxXxXxXxXxXkX4   O d d d G G H.-XJ.h : k 2.2.&.v n v n &.2.2.2.2.>.h f :     .XxXxXxXxXxXxXxX",
"xXxXxXxXxXxXxXhX4   $ d d t d G Q.-XH.h : k 2.2.%.v v v v *.2.2.2.2.;.h f :     XXxXxXxXxXxXxXxX",
"xXxXxXxXxXxXxXlX4   5 Q.&XQ.Q.Q.E D D l x k 2.2.:.=.=.=.=.:.2.2.=.*.&.; # 6 oXoXpXxXxXxXxXxXxXxX",
"xXxXxXxXxXxXxXhX4   a dXqXdXfX8X7   @ n v =.2.2.2.2.2.2.2.2.2.2.*.b c #   Y xXxXxXxXxXxXxXxXxXxX",
"xXxXxXxXxXxXxXhX6 X D 3X8X8X7X3X7   + c c *.;.-.-.-.-.-.;.2.-.;.%.c x #   T zXxXxXxXxXxXxXxXxXxX",
"xXxXxXxXxXxXxXxXiXpX@X4 2 2 5 5 X     + + + @ @ @ @ @ @ @ @ @ @ @ # +     T xXxXxXxXxXxXxXxXxXxX",
"xXxXxXxXxXxXxXxXxXxXyX                                                    T zXxXxXxXxXxXxXxXxXxX",
"xXxXxXxXxXxXxXxXxXxXuXY Y Y 6 Y Y Y Y 6 Y 6 Y Y Y Y 6     . O O O O O     T xXxXxXxXxXxXxXxXxXxX",
"xXxXxXxXxXxXxXxXxXxXxXzXzXzXxXxXzXxXzXzXxXzXzXxXzXzXiX%   O y y y y 9     T xXxXxXxXxXxXxXxXxXxX",
"xXxXxXxXxXxXxXxXxXxXxXxXxXxXxXxXxXxXxXxXxXxXxXxXxXxXiX%   O y y y y y .   T xXxXxXxXxXxXxXxXxXxX",
"xXxXxXxXxXxXxXxXxXxXxXxXxXxXxXxXxXxXxXxXxXxXxXxXxXxXiX%   * y y u p i - * a ~ ~ yXxXxXxXxXxXxXxX",
"xXxXxXxXxXxXxXxXxXxXxXxXxXxXxXxXxXxXxXxXxXxXxXxXxXxXiX%   O y y s G G u y <     .XxXxXxXxXxXxXxX",
"xXxXxXxXxXxXxXxXxXxXxXxXxXxXxXxXxXxXxXxXxXxXxXxXxXxXjX%   O y y s d d u y <     .XxXxXxXxXxXxXxX",
"xXxXxXxXxXxXxXxXxXxXxXxXxXxXxXxXxXxXxXxXxXxXxXxXxXxXiX%   * s s d d d s d 9     .XxXxXxXxXxXxXxX",
"xXxXxXxXxXxXxXxXxXxXxXxXxXxXxXxXxXxXxXxXxXxXxXxXxXxXiX&   * G d G r G G G w     XXxXxXxXxXxXxXxX",
"xXxXxXxXxXxXxXxXxXxXxXxXxXxXxXxXxXxXxXxXxXxXxXxXxXxXjXT 7 a q q q q q e q i 6 6 @XxXxXxXxXxXxXxX",
"xXxXxXxXxXxXxXxXxXxXxXxXxXxXxXxXxXxXxXxXxXxXxXxXxXxXxXlXlX@X.             T lXlXzXxXxXxXxXxXxXxX",
"xXxXxXxXxXxXxXxXxXxXxXxXxXxXxXxXxXxXxXxXxXxXxXxXxXxXxXxXxX@X              Y xXxXxXxXxXxXxXxXxXxX"
};
