/* XPM */
static char *result[] = {
/* columns rows colors chars-per-pixel */
"89 119 15 1 ",
"  c #000001",
". c #4A2920",
"X c #0D420D",
"o c #107B29",
"O c #734120",
"+ c #315273",
"@ c #A47B41",
"# c #41A429",
"$ c yellow",
"% c #DEAC52",
"& c #31529C",
"* c #00BAFF",
"= c #D5B48B",
"- c #FFE6BD",
"; c white",
/* pixels */
";;;;;;;;;;;;;;;;;;;;;;;;;;;;;;     oooooooooooooooooooo     ;;;;;;;;;;;;;;;;;;;;;;;;;;;;;",
";;;;;;;;;;;;;;;;;;;;;;;;;;;;;;     oooooooooooooooooooo     ;;;;;;;;;;;;;;;;;;;;;;;;;;;;;",
";;;;;;;;;;;;;;;;;;;;;;;;;;;;;;     oooooooooooooooooooo     ;;;;;;;;;;;;;;;;;;;;;;;;;;;;;",
";;;;;;;;;;;;;;;;;;;;;;;;;;;;;;     oooooooooooooooooooo     ;;;;;;;;;;;;;;;;;;;;;;;;;;;;;",
";;;;;;;;;;;;;;;;;;;;;;;;;;;;;;     oooooooooooooooooooo     ;;;;;;;;;;;;;;;;;;;;;;;;;;;;;",
";;;;;;;;;;;;;;;;;;;;;;;;;     oooooooooooooooooooooooooooooo     ;;;;;;;;;;;;;;;;;;;;;;;;",
";;;;;;;;;;;;;;;;;;;;;;;;;     oooooooooooooooooooooooooooooo     ;;;;;;;;;;;;;;;;;;;;;;;;",
";;;;;;;;;;;;;;;;;;;;;;;;;     oooooooooooooooooooooooooooooo     ;;;;;;;;;;;;;;;;;;;;;;;;",
";;;;;;;;;;;;;;;;;;;;;;;;;     oooooooooooooooooooooooooooooo     ;;;;;;;;;;;;;;;;;;;;;;;;",
";;;;;;;;;;;;;;;;;;;;;;;;;     oooooooooooooooooooooooooooooo     ;;;;;;;;;;;;;;;;;;;;;;;;",
";;;;;;;;;;;;;;;;;;;;     oooooooooooooooooooooooooooooooooooooooo     ;;;;;;;;;;;;;;;;;;;",
";;;;;;;;;;;;;;;;;;;;     oooooooooooooooooooooooooooooooooooooooo     ;;;;;;;;;;;;;;;;;;;",
";;;;;;;;;;;;;;;;;;;;     oooooooooooooooooooooooooooooooooooooooo     ;;;;;;;;;;;;;;;;;;;",
";;;;;;;;;;;;;;;;;;;;     oooooooooooooooooooooooooooooooooooooooo     ;;;;;;;;;;;;;;;;;;;",
";;;;;;;;;;;;;;;;;;;;     oooooooooooooooooooooooooooooooooooooooo     ;;;;;;;;;;;;;;;;;;;",
";;;;;;;;;;;;;;;     ooooo########################################ooooo     ;;;;;;;;;;;;;;",
";;;;;;;;;;;;;;;     ooooo########################################ooooo     ;;;;;;;;;;;;;;",
";;;;;;;;;;;;;;;     ooooo########################################ooooo     ;;;;;;;;;;;;;;",
";;;;;;;;;;;;;;;     ooooo########################################ooooo     ;;;;;;;;;;;;;;",
";;;;;;;;;;;;;;;     ooooo########################################ooooo     ;;;;;;;;;;;;;;",
";;;;;;;;;;;;;;;     #####@@@@@$$$$$@@@@@$$$$$$$$$$$$$$$$$$$$@@@@@#####     ;;;;;;;;;;;;;;",
";;;;;;;;;;;;;;;     #####@@@@@$$$$$@@@@@$$$$$$$$$$$$$$$$$$$$@@@@@#####     ;;;;;;;;;;;;;;",
";;;;;;;;;;;;;;;     #####@@@@@$$$$$@@@@@$$$$$$$$$$$$$$$$$$$$@@@@@#####     ;;;;;;;;;;;;;;",
";;;;;;;;;;;;;;;     #####@@@@@$$$$$@@@@@$$$$$$$$$$$$$$$$$$$$@@@@@#####     ;;;;;;;;;;;;;;",
";;;;;;;;;;;;;;;     #####@@@@@$$$$$@@@@@$$$$$$$$$$$$$$$$$$$$@@@@@#####     ;;;;;;;;;;;;;;",
";;;;;;;;;;     ooooo@@@@@$$$$$@@@@@$$$$$$$$$$@@@@@$$$$$@@@@@$$$$$=====ooooo     ;;;;;;;;;",
";;;;;;;;;;     ooooo@@@@@$$$$$@@@@@$$$$$$$$$$@@@@@$$$$$@@@@@$$$$$=====ooooo     ;;;;;;;;;",
";;;;;;;;;;     ooooo@@@@@$$$$$@@@@@$$$$$$$$$$@@@@@$$$$$@@@@@$$$$$=====ooooo     ;;;;;;;;;",
";;;;;;;;;;     ooooo@@@@@$$$$$@@@@@$$$$$$$$$$@@@@@$$$$$@@@@@$$$$$=====ooooo     ;;;;;;;;;",
";;;;;;;;;;     ooooo@@@@@$$$$$@@@@@$$$$$$$$$$@@@@@$$$$$@@@@@$$$$$=====ooooo     ;;;;;;;;;",
"@@@@@=====OOOOOOOOOO%%%%%$$$$$$$$$$%%%%%$$$$$@@@@@$$$$$@@@@@@@@@@$$$$$OOOOOOOOOO=====@@@@",
"@@@@@=====OOOOOOOOOO%%%%%$$$$$$$$$$%%%%%$$$$$@@@@@$$$$$@@@@@@@@@@$$$$$OOOOOOOOOO=====@@@@",
"@@@@@=====OOOOOOOOOO%%%%%$$$$$$$$$$%%%%%$$$$$@@@@@$$$$$@@@@@@@@@@$$$$$OOOOOOOOOO=====@@@@",
"@@@@@=====OOOOOOOOOO%%%%%$$$$$$$$$$%%%%%$$$$$@@@@@$$$$$@@@@@@@@@@$$$$$OOOOOOOOOO=====@@@@",
"@@@@@=====OOOOOOOOOO%%%%%$$$$$$$$$$%%%%%$$$$$@@@@@$$$$$@@@@@@@@@@$$$$$OOOOOOOOOO=====@@@@",
"OOOOO----------@@@@@$$$$$$$$$$%%%%%$$$$$@@@@@$$$$$@@@@@=====@@@@@$$$$$@@@@@----------OOOO",
"OOOOO----------@@@@@$$$$$$$$$$%%%%%$$$$$@@@@@$$$$$@@@@@=====@@@@@$$$$$@@@@@----------OOOO",
"OOOOO----------@@@@@$$$$$$$$$$%%%%%$$$$$@@@@@$$$$$@@@@@=====@@@@@$$$$$@@@@@----------OOOO",
"OOOOO----------@@@@@$$$$$$$$$$%%%%%$$$$$@@@@@$$$$$@@@@@=====@@@@@$$$$$@@@@@----------OOOO",
"OOOOO----------@@@@@$$$$$$$$$$%%%%%$$$$$@@@@@$$$$$@@@@@=====@@@@@$$$$$@@@@@----------OOOO",
";;;;;OOOOO*****OOOOO%%%%%@@@@@%%%%%$$$$$@@@@@$$$$$@@@@@=====-----%%%%%@@@@@*****OOOOO;;;;",
";;;;;OOOOO*****OOOOO%%%%%@@@@@%%%%%$$$$$@@@@@$$$$$@@@@@=====-----%%%%%@@@@@*****OOOOO;;;;",
";;;;;OOOOO*****OOOOO%%%%%@@@@@%%%%%$$$$$@@@@@$$$$$@@@@@=====-----%%%%%@@@@@*****OOOOO;;;;",
";;;;;OOOOO*****OOOOO%%%%%@@@@@%%%%%$$$$$@@@@@$$$$$@@@@@=====-----%%%%%@@@@@*****OOOOO;;;;",
";;;;;OOOOO*****OOOOO%%%%%@@@@@%%%%%$$$$$@@@@@$$$$$@@@@@=====-----%%%%%@@@@@*****OOOOO;;;;",
";;;;;;;;;;     $$$$$OOOOO@@@@@%%%%%$$$$$$$$$$%%%%%@@@@@-----=====OOOOO$$$$$     ;;;;;;;;;",
";;;;;;;;;;     $$$$$OOOOO@@@@@%%%%%$$$$$$$$$$%%%%%@@@@@-----=====OOOOO$$$$$     ;;;;;;;;;",
";;;;;;;;;;     $$$$$OOOOO@@@@@%%%%%$$$$$$$$$$%%%%%@@@@@-----=====OOOOO$$$$$     ;;;;;;;;;",
";;;;;;;;;;     $$$$$OOOOO@@@@@%%%%%$$$$$$$$$$%%%%%@@@@@-----=====OOOOO$$$$$     ;;;;;;;;;",
";;;;;;;;;;     $$$$$OOOOO@@@@@%%%%%$$$$$$$$$$%%%%%@@@@@-----=====OOOOO$$$$$     ;;;;;;;;;",
";;;;;;;;;;     $$$$$@@@@@     @@@@@%%%%%%%%%%OOOOO=====OOOOO     @@@@@$$$$$     ;;;;;;;;;",
";;;;;;;;;;     $$$$$@@@@@     @@@@@%%%%%%%%%%OOOOO=====OOOOO     @@@@@$$$$$     ;;;;;;;;;",
";;;;;;;;;;     $$$$$@@@@@     @@@@@%%%%%%%%%%OOOOO=====OOOOO     @@@@@$$$$$     ;;;;;;;;;",
";;;;;;;;;;     $$$$$@@@@@     @@@@@%%%%%%%%%%OOOOO=====OOOOO     @@@@@$$$$$     ;;;;;;;;;",
";;;;;;;;;;     $$$$$@@@@@     @@@@@%%%%%%%%%%OOOOO=====OOOOO     @@@@@$$$$$     ;;;;;;;;;",
";;;;;;;;;;     %%%%%OOOOO;;;;;&&&&&OOOOOOOOOO-----OOOOO&&&&&;;;;;OOOOO%%%%%     ;;;;;;;;;",
";;;;;;;;;;     %%%%%OOOOO;;;;;&&&&&OOOOOOOOOO-----OOOOO&&&&&;;;;;OOOOO%%%%%     ;;;;;;;;;",
";;;;;;;;;;     %%%%%OOOOO;;;;;&&&&&OOOOOOOOOO-----OOOOO&&&&&;;;;;OOOOO%%%%%     ;;;;;;;;;",
";;;;;;;;;;     %%%%%OOOOO;;;;;&&&&&OOOOOOOOOO-----OOOOO&&&&&;;;;;OOOOO%%%%%     ;;;;;;;;;",
";;;;;;;;;;     %%%%%OOOOO;;;;;&&&&&OOOOOOOOOO-----OOOOO&&&&&;;;;;OOOOO%%%%%     ;;;;;;;;;",
";;;;;;;;;;;;;;;     OOOOO-----&&&&&;;;;;----------;;;;;&&&&&-----          ;;;;;;;;;;;;;;",
";;;;;;;;;;;;;;;     OOOOO-----&&&&&;;;;;----------;;;;;&&&&&-----          ;;;;;;;;;;;;;;",
";;;;;;;;;;;;;;;     OOOOO-----&&&&&;;;;;----------;;;;;&&&&&-----          ;;;;;;;;;;;;;;",
";;;;;;;;;;;;;;;     OOOOO-----&&&&&;;;;;----------;;;;;&&&&&-----          ;;;;;;;;;;;;;;",
";;;;;;;;;;;;;;;     OOOOO-----&&&&&;;;;;----------;;;;;&&&&&-----          ;;;;;;;;;;;;;;",
";;;;;;;;;;;;;;;;;;;;     @@@@@------------------------------@@@@@.....OOOOO     ;;;;;;;;;",
";;;;;;;;;;;;;;;;;;;;     @@@@@------------------------------@@@@@.....OOOOO     ;;;;;;;;;",
";;;;;;;;;;;;;;;;;;;;     @@@@@------------------------------@@@@@.....OOOOO     ;;;;;;;;;",
";;;;;;;;;;;;;;;;;;;;     @@@@@------------------------------@@@@@.....OOOOO     ;;;;;;;;;",
";;;;;;;;;;;;;;;;;;;;     @@@@@------------------------------@@@@@.....OOOOO     ;;;;;;;;;",
";;;;;;;;;;;;;;;;;;;;     OOOOOOOOOO====================OOOOOOOOOO.....OOOOO     ;;;;;;;;;",
";;;;;;;;;;;;;;;;;;;;     OOOOOOOOOO====================OOOOOOOOOO.....OOOOO     ;;;;;;;;;",
";;;;;;;;;;;;;;;;;;;;     OOOOOOOOOO====================OOOOOOOOOO.....OOOOO     ;;;;;;;;;",
";;;;;;;;;;;;;;;;;;;;     OOOOOOOOOO====================OOOOOOOOOO.....OOOOO     ;;;;;;;;;",
";;;;;;;;;;;;;;;;;;;;     OOOOOOOOOO====================OOOOOOOOOO.....OOOOO     ;;;;;;;;;",
";;;;;;;;;;;;;;;;;;;;     ;;;;;;;;;;     ooooooooooooooooooooOOOOOXXXXX     ;;;;;;;;;;;;;;",
";;;;;;;;;;;;;;;;;;;;     ;;;;;;;;;;     ooooooooooooooooooooOOOOOXXXXX     ;;;;;;;;;;;;;;",
";;;;;;;;;;;;;;;;;;;;     ;;;;;;;;;;     ooooooooooooooooooooOOOOOXXXXX     ;;;;;;;;;;;;;;",
";;;;;;;;;;;;;;;;;;;;     ;;;;;;;;;;     ooooooooooooooooooooOOOOOXXXXX     ;;;;;;;;;;;;;;",
";;;;;;;;;;;;;;;;;;;;     ;;;;;;;;;;     ooooooooooooooooooooOOOOOXXXXX     ;;;;;;;;;;;;;;",
";;;;;;;;;;;;;;;     OOOOO++++++++++     OOOOO$$$$$$$$$$OOOOOooooo     ;;;;;;;;;;;;;;;;;;;",
";;;;;;;;;;;;;;;     OOOOO++++++++++     OOOOO$$$$$$$$$$OOOOOooooo     ;;;;;;;;;;;;;;;;;;;",
";;;;;;;;;;;;;;;     OOOOO++++++++++     OOOOO$$$$$$$$$$OOOOOooooo     ;;;;;;;;;;;;;;;;;;;",
";;;;;;;;;;;;;;;     OOOOO++++++++++     OOOOO$$$$$$$$$$OOOOOooooo     ;;;;;;;;;;;;;;;;;;;",
";;;;;;;;;;;;;;;     OOOOO++++++++++     OOOOO$$$$$$$$$$OOOOOooooo     ;;;;;;;;;;;;;;;;;;;",
";;;;;;;;;;;;;;;     OOOOOOOOOO=====XXXXX#####oooooooooo##########XXXXX     ;;;;;;;;;;;;;;",
";;;;;;;;;;;;;;;     OOOOOOOOOO=====XXXXX#####oooooooooo##########XXXXX     ;;;;;;;;;;;;;;",
";;;;;;;;;;;;;;;     OOOOOOOOOO=====XXXXX#####oooooooooo##########XXXXX     ;;;;;;;;;;;;;;",
";;;;;;;;;;;;;;;     OOOOOOOOOO=====XXXXX#####oooooooooo##########XXXXX     ;;;;;;;;;;;;;;",
";;;;;;;;;;;;;;;     OOOOOOOOOO=====XXXXX#####oooooooooo##########XXXXX     ;;;;;;;;;;;;;;",
";;;;;;;;;;;;;;;     ----------     ooooo####################ooooo     ;;;;;;;;;;;;;;;;;;;",
";;;;;;;;;;;;;;;     ----------     ooooo####################ooooo     ;;;;;;;;;;;;;;;;;;;",
";;;;;;;;;;;;;;;     ----------     ooooo####################ooooo     ;;;;;;;;;;;;;;;;;;;",
";;;;;;;;;;;;;;;     ----------     ooooo####################ooooo     ;;;;;;;;;;;;;;;;;;;",
";;;;;;;;;;;;;;;     ----------     ooooo####################ooooo     ;;;;;;;;;;;;;;;;;;;",
";;;;;;;;;;;;;;;;;;;;                                                  ;;;;;;;;;;;;;;;;;;;",
";;;;;;;;;;;;;;;;;;;;                                                  ;;;;;;;;;;;;;;;;;;;",
";;;;;;;;;;;;;;;;;;;;                                                  ;;;;;;;;;;;;;;;;;;;",
";;;;;;;;;;;;;;;;;;;;                                                  ;;;;;;;;;;;;;;;;;;;",
";;;;;;;;;;;;;;;;;;;;                                                  ;;;;;;;;;;;;;;;;;;;",
";;;;;;;;;;;;;;;;;;;;;;;;;;;;;;;;;;;;;;;;;;;;;;;;;;     ..........     ;;;;;;;;;;;;;;;;;;;",
";;;;;;;;;;;;;;;;;;;;;;;;;;;;;;;;;;;;;;;;;;;;;;;;;;     ..........     ;;;;;;;;;;;;;;;;;;;",
";;;;;;;;;;;;;;;;;;;;;;;;;;;;;;;;;;;;;;;;;;;;;;;;;;     ..........     ;;;;;;;;;;;;;;;;;;;",
";;;;;;;;;;;;;;;;;;;;;;;;;;;;;;;;;;;;;;;;;;;;;;;;;;     ..........     ;;;;;;;;;;;;;;;;;;;",
";;;;;;;;;;;;;;;;;;;;;;;;;;;;;;;;;;;;;;;;;;;;;;;;;;     ..........     ;;;;;;;;;;;;;;;;;;;",
";;;;;;;;;;;;;;;;;;;;;;;;;;;;;;;;;;;;;;;;;;;;;;;;;;     .....OOOOO.....     ;;;;;;;;;;;;;;",
";;;;;;;;;;;;;;;;;;;;;;;;;;;;;;;;;;;;;;;;;;;;;;;;;;     .....OOOOO.....     ;;;;;;;;;;;;;;",
";;;;;;;;;;;;;;;;;;;;;;;;;;;;;;;;;;;;;;;;;;;;;;;;;;     .....OOOOO.....     ;;;;;;;;;;;;;;",
";;;;;;;;;;;;;;;;;;;;;;;;;;;;;;;;;;;;;;;;;;;;;;;;;;     .....OOOOO.....     ;;;;;;;;;;;;;;",
";;;;;;;;;;;;;;;;;;;;;;;;;;;;;;;;;;;;;;;;;;;;;;;;;;     .....OOOOO.....     ;;;;;;;;;;;;;;",
";;;;;;;;;;;;;;;;;;;;;;;;;;;;;;;;;;;;;;;;;;;;;;;;;;     OOOOOOOOOOOOOOO     ;;;;;;;;;;;;;;",
";;;;;;;;;;;;;;;;;;;;;;;;;;;;;;;;;;;;;;;;;;;;;;;;;;     OOOOOOOOOOOOOOO     ;;;;;;;;;;;;;;",
";;;;;;;;;;;;;;;;;;;;;;;;;;;;;;;;;;;;;;;;;;;;;;;;;;     OOOOOOOOOOOOOOO     ;;;;;;;;;;;;;;",
";;;;;;;;;;;;;;;;;;;;;;;;;;;;;;;;;;;;;;;;;;;;;;;;;;     OOOOOOOOOOOOOOO     ;;;;;;;;;;;;;;",
";;;;;;;;;;;;;;;;;;;;;;;;;;;;;;;;;;;;;;;;;;;;;;;;;;     OOOOOOOOOOOOOOO     ;;;;;;;;;;;;;;",
";;;;;;;;;;;;;;;;;;;;;;;;;;;;;;;;;;;;;;;;;;;;;;;;;;;;;;;               ;;;;;;;;;;;;;;;;;;;",
";;;;;;;;;;;;;;;;;;;;;;;;;;;;;;;;;;;;;;;;;;;;;;;;;;;;;;;               ;;;;;;;;;;;;;;;;;;;",
";;;;;;;;;;;;;;;;;;;;;;;;;;;;;;;;;;;;;;;;;;;;;;;;;;;;;;;               ;;;;;;;;;;;;;;;;;;;",
";;;;;;;;;;;;;;;;;;;;;;;;;;;;;;;;;;;;;;;;;;;;;;;;;;;;;;;               ;;;;;;;;;;;;;;;;;;;"
};
