/* XPM */
static char *result[] = {
/* columns rows colors chars-per-pixel */
"89 109 15 1 ",
"  c #000001",
". c #4A2920",
"X c #0D420D",
"o c #107B29",
"O c #734120",
"+ c #315273",
"@ c #A47B41",
"# c #41A429",
"$ c yellow",
"% c #DEAC52",
"& c #31529C",
"* c #00BAFF",
"= c #D5B48B",
"- c #FFE6BD",
"; c white",
/* pixels */
";;;;;;;;;;;;;;;;;;;;;;;;;;;;;;;;;;;     oooooooooo     ;;;;;;;;;;;;;;;;;;;;;;;;;;;;;;;;;;",
";;;;;;;;;;;;;;;;;;;;;;;;;;;;;;;;;;;     oooooooooo     ;;;;;;;;;;;;;;;;;;;;;;;;;;;;;;;;;;",
";;;;;;;;;;;;;;;;;;;;;;;;;;;;;;;;;;;     oooooooooo     ;;;;;;;;;;;;;;;;;;;;;;;;;;;;;;;;;;",
";;;;;;;;;;;;;;;;;;;;;;;;;;;;;;;;;;;     oooooooooo     ;;;;;;;;;;;;;;;;;;;;;;;;;;;;;;;;;;",
";;;;;;;;;;;;;;;;;;;;;;;;;;;;;;;;;;;     oooooooooo     ;;;;;;;;;;;;;;;;;;;;;;;;;;;;;;;;;;",
";;;;;;;;;;;;;;;;;;;;;;;;;          oooooooooooooooooooo          ;;;;;;;;;;;;;;;;;;;;;;;;",
";;;;;;;;;;;;;;;;;;;;;;;;;          oooooooooooooooooooo          ;;;;;;;;;;;;;;;;;;;;;;;;",
";;;;;;;;;;;;;;;;;;;;;;;;;          oooooooooooooooooooo          ;;;;;;;;;;;;;;;;;;;;;;;;",
";;;;;;;;;;;;;;;;;;;;;;;;;          oooooooooooooooooooo          ;;;;;;;;;;;;;;;;;;;;;;;;",
";;;;;;;;;;;;;;;;;;;;;;;;;          oooooooooooooooooooo          ;;;;;;;;;;;;;;;;;;;;;;;;",
";;;;;;;;;;;;;;;;;;;;     ooooo##############################ooooo     ;;;;;;;;;;;;;;;;;;;",
";;;;;;;;;;;;;;;;;;;;     ooooo##############################ooooo     ;;;;;;;;;;;;;;;;;;;",
";;;;;;;;;;;;;;;;;;;;     ooooo##############################ooooo     ;;;;;;;;;;;;;;;;;;;",
";;;;;;;;;;;;;;;;;;;;     ooooo##############################ooooo     ;;;;;;;;;;;;;;;;;;;",
";;;;;;;;;;;;;;;;;;;;     ooooo##############################ooooo     ;;;;;;;;;;;;;;;;;;;",
";;;;;;;;;;;;;;;;;;;;     oooooooooooooooooooooooooooooooooooooooo     ;;;;;;;;;;;;;;;;;;;",
";;;;;;;;;;;;;;;;;;;;     oooooooooooooooooooooooooooooooooooooooo     ;;;;;;;;;;;;;;;;;;;",
";;;;;;;;;;;;;;;;;;;;     oooooooooooooooooooooooooooooooooooooooo     ;;;;;;;;;;;;;;;;;;;",
";;;;;;;;;;;;;;;;;;;;     oooooooooooooooooooooooooooooooooooooooo     ;;;;;;;;;;;;;;;;;;;",
";;;;;;;;;;;;;;;;;;;;     oooooooooooooooooooooooooooooooooooooooo     ;;;;;;;;;;;;;;;;;;;",
";;;;;;;;;;;;;;;     ooooo########################################ooooo     ;;;;;;;;;;;;;;",
";;;;;;;;;;;;;;;     ooooo########################################ooooo     ;;;;;;;;;;;;;;",
";;;;;;;;;;;;;;;     ooooo########################################ooooo     ;;;;;;;;;;;;;;",
";;;;;;;;;;;;;;;     ooooo########################################ooooo     ;;;;;;;;;;;;;;",
";;;;;;;;;;;;;;;     ooooo########################################ooooo     ;;;;;;;;;;;;;;",
";;;;;;;;;;;;;;;     #####@@@@@$$$$$@@@@@$$$$$@@@@@$$$$$$$$$$@@@@@#####     ;;;;;;;;;;;;;;",
";;;;;;;;;;;;;;;     #####@@@@@$$$$$@@@@@$$$$$@@@@@$$$$$$$$$$@@@@@#####     ;;;;;;;;;;;;;;",
";;;;;;;;;;;;;;;     #####@@@@@$$$$$@@@@@$$$$$@@@@@$$$$$$$$$$@@@@@#####     ;;;;;;;;;;;;;;",
";;;;;;;;;;;;;;;     #####@@@@@$$$$$@@@@@$$$$$@@@@@$$$$$$$$$$@@@@@#####     ;;;;;;;;;;;;;;",
";;;;;;;;;;;;;;;     #####@@@@@$$$$$@@@@@$$$$$@@@@@$$$$$$$$$$@@@@@#####     ;;;;;;;;;;;;;;",
";;;;;;;;;;     ooooo@@@@@$$$$$$$$$$$$$$$$$$$$@@@@@$$$$$@@@@@$$$$$%%%%%ooooo     ;;;;;;;;;",
";;;;;;;;;;     ooooo@@@@@$$$$$$$$$$$$$$$$$$$$@@@@@$$$$$@@@@@$$$$$%%%%%ooooo     ;;;;;;;;;",
";;;;;;;;;;     ooooo@@@@@$$$$$$$$$$$$$$$$$$$$@@@@@$$$$$@@@@@$$$$$%%%%%ooooo     ;;;;;;;;;",
";;;;;;;;;;     ooooo@@@@@$$$$$$$$$$$$$$$$$$$$@@@@@$$$$$@@@@@$$$$$%%%%%ooooo     ;;;;;;;;;",
";;;;;;;;;;     ooooo@@@@@$$$$$$$$$$$$$$$$$$$$@@@@@$$$$$@@@@@$$$$$%%%%%ooooo     ;;;;;;;;;",
"@@@@@=====OOOOOOOOOO%%%%%$$$$$@@@@@$$$$$@@@@@@@@@@$$$$$@@@@@@@@@@$$$$$OOOOOOOOOO=====@@@@",
"@@@@@=====OOOOOOOOOO%%%%%$$$$$@@@@@$$$$$@@@@@@@@@@$$$$$@@@@@@@@@@$$$$$OOOOOOOOOO=====@@@@",
"@@@@@=====OOOOOOOOOO%%%%%$$$$$@@@@@$$$$$@@@@@@@@@@$$$$$@@@@@@@@@@$$$$$OOOOOOOOOO=====@@@@",
"@@@@@=====OOOOOOOOOO%%%%%$$$$$@@@@@$$$$$@@@@@@@@@@$$$$$@@@@@@@@@@$$$$$OOOOOOOOOO=====@@@@",
"@@@@@=====OOOOOOOOOO%%%%%$$$$$@@@@@$$$$$@@@@@@@@@@$$$$$@@@@@@@@@@$$$$$OOOOOOOOOO=====@@@@",
"OOOOO----------@@@@@@@@@@$$$$$%%%%%$$$$$@@@@@$$$$$@@@@@=====@@@@@$$$$$@@@@@----------OOOO",
"OOOOO----------@@@@@@@@@@$$$$$%%%%%$$$$$@@@@@$$$$$@@@@@=====@@@@@$$$$$@@@@@----------OOOO",
"OOOOO----------@@@@@@@@@@$$$$$%%%%%$$$$$@@@@@$$$$$@@@@@=====@@@@@$$$$$@@@@@----------OOOO",
"OOOOO----------@@@@@@@@@@$$$$$%%%%%$$$$$@@@@@$$$$$@@@@@=====@@@@@$$$$$@@@@@----------OOOO",
"OOOOO----------@@@@@@@@@@$$$$$%%%%%$$$$$@@@@@$$$$$@@@@@=====@@@@@$$$$$@@@@@----------OOOO",
";;;;;OOOOOOOOOO@@@@@$$$$$%%%%%%%%%%$$$$$@@@@@$$$$$@@@@@=====-----%%%%%@@@@@=====OOOOO;;;;",
";;;;;OOOOOOOOOO@@@@@$$$$$%%%%%%%%%%$$$$$@@@@@$$$$$@@@@@=====-----%%%%%@@@@@=====OOOOO;;;;",
";;;;;OOOOOOOOOO@@@@@$$$$$%%%%%%%%%%$$$$$@@@@@$$$$$@@@@@=====-----%%%%%@@@@@=====OOOOO;;;;",
";;;;;OOOOOOOOOO@@@@@$$$$$%%%%%%%%%%$$$$$@@@@@$$$$$@@@@@=====-----%%%%%@@@@@=====OOOOO;;;;",
";;;;;OOOOOOOOOO@@@@@$$$$$%%%%%%%%%%$$$$$@@@@@$$$$$@@@@@=====-----%%%%%@@@@@=====OOOOO;;;;",
";;;;;     *****OOOOO@@@@@%%%%%@@@@@%%%%%$$$$$$$$$$OOOOO-----=====OOOOO$$$$$*****     ;;;;",
";;;;;     *****OOOOO@@@@@%%%%%@@@@@%%%%%$$$$$$$$$$OOOOO-----=====OOOOO$$$$$*****     ;;;;",
";;;;;     *****OOOOO@@@@@%%%%%@@@@@%%%%%$$$$$$$$$$OOOOO-----=====OOOOO$$$$$*****     ;;;;",
";;;;;     *****OOOOO@@@@@%%%%%@@@@@%%%%%$$$$$$$$$$OOOOO-----=====OOOOO$$$$$*****     ;;;;",
";;;;;     *****OOOOO@@@@@%%%%%@@@@@%%%%%$$$$$$$$$$OOOOO-----=====OOOOO$$$$$*****     ;;;;",
";;;;;     %%%%%$$$$$@@@@@     @@@@@%%%%%@@@@@OOOOO=====OOOOO     @@@@@$$$$$%%%%%     ;;;;",
";;;;;     %%%%%$$$$$@@@@@     @@@@@%%%%%@@@@@OOOOO=====OOOOO     @@@@@$$$$$%%%%%     ;;;;",
";;;;;     %%%%%$$$$$@@@@@     @@@@@%%%%%@@@@@OOOOO=====OOOOO     @@@@@$$$$$%%%%%     ;;;;",
";;;;;     %%%%%$$$$$@@@@@     @@@@@%%%%%@@@@@OOOOO=====OOOOO     @@@@@$$$$$%%%%%     ;;;;",
";;;;;     %%%%%$$$$$@@@@@     @@@@@%%%%%@@@@@OOOOO=====OOOOO     @@@@@$$$$$%%%%%     ;;;;",
";;;;;;;;;;     %%%%%OOOOO;;;;;&&&&&OOOOOOOOOO-----OOOOO&&&&&;;;;;OOOOO%%%%%     ;;;;;;;;;",
";;;;;;;;;;     %%%%%OOOOO;;;;;&&&&&OOOOOOOOOO-----OOOOO&&&&&;;;;;OOOOO%%%%%     ;;;;;;;;;",
";;;;;;;;;;     %%%%%OOOOO;;;;;&&&&&OOOOOOOOOO-----OOOOO&&&&&;;;;;OOOOO%%%%%     ;;;;;;;;;",
";;;;;;;;;;     %%%%%OOOOO;;;;;&&&&&OOOOOOOOOO-----OOOOO&&&&&;;;;;OOOOO%%%%%     ;;;;;;;;;",
";;;;;;;;;;     %%%%%OOOOO;;;;;&&&&&OOOOOOOOOO-----OOOOO&&&&&;;;;;OOOOO%%%%%     ;;;;;;;;;",
";;;;;;;;;;;;;;;     @@@@@-----&&&&&;;;;;----------;;;;;&&&&&-----          ;;;;;;;;;;;;;;",
";;;;;;;;;;;;;;;     @@@@@-----&&&&&;;;;;----------;;;;;&&&&&-----          ;;;;;;;;;;;;;;",
";;;;;;;;;;;;;;;     @@@@@-----&&&&&;;;;;----------;;;;;&&&&&-----          ;;;;;;;;;;;;;;",
";;;;;;;;;;;;;;;     @@@@@-----&&&&&;;;;;----------;;;;;&&&&&-----          ;;;;;;;;;;;;;;",
";;;;;;;;;;;;;;;     @@@@@-----&&&&&;;;;;----------;;;;;&&&&&-----          ;;;;;;;;;;;;;;",
";;;;;;;;;;;;;;;;;;;;     @@@@@------------------------------@@@@@     OOOOO     ;;;;;;;;;",
";;;;;;;;;;;;;;;;;;;;     @@@@@------------------------------@@@@@     OOOOO     ;;;;;;;;;",
";;;;;;;;;;;;;;;;;;;;     @@@@@------------------------------@@@@@     OOOOO     ;;;;;;;;;",
";;;;;;;;;;;;;;;;;;;;     @@@@@------------------------------@@@@@     OOOOO     ;;;;;;;;;",
";;;;;;;;;;;;;;;;;;;;     @@@@@------------------------------@@@@@     OOOOO     ;;;;;;;;;",
";;;;;;;;;;;;;;;;;;;;     OOOOOOOOOO====================OOOOOOOOOO;;;;;.....OOOOO     ;;;;",
";;;;;;;;;;;;;;;;;;;;     OOOOOOOOOO====================OOOOOOOOOO;;;;;.....OOOOO     ;;;;",
";;;;;;;;;;;;;;;;;;;;     OOOOOOOOOO====================OOOOOOOOOO;;;;;.....OOOOO     ;;;;",
";;;;;;;;;;;;;;;;;;;;     OOOOOOOOOO====================OOOOOOOOOO;;;;;.....OOOOO     ;;;;",
";;;;;;;;;;;;;;;;;;;;     OOOOOOOOOO====================OOOOOOOOOO;;;;;.....OOOOO     ;;;;",
";;;;;;;;;;;;;;;;;;;;     oooooXXXXXooooooooooooooooooooXXXXX          =====OOOOO     ;;;;",
";;;;;;;;;;;;;;;;;;;;     oooooXXXXXooooooooooooooooooooXXXXX          =====OOOOO     ;;;;",
";;;;;;;;;;;;;;;;;;;;     oooooXXXXXooooooooooooooooooooXXXXX          =====OOOOO     ;;;;",
";;;;;;;;;;;;;;;;;;;;     oooooXXXXXooooooooooooooooooooXXXXX          =====OOOOO     ;;;;",
";;;;;;;;;;;;;;;;;;;;     oooooXXXXXooooooooooooooooooooXXXXX          =====OOOOO     ;;;;",
";;;;;;;;;;;;;;;     +++++;;;;;OOOOOOOOOO$$$$$$$$$$OOOOOOOOOOooooo               ;;;;;;;;;",
";;;;;;;;;;;;;;;     +++++;;;;;OOOOOOOOOO$$$$$$$$$$OOOOOOOOOOooooo               ;;;;;;;;;",
";;;;;;;;;;;;;;;     +++++;;;;;OOOOOOOOOO$$$$$$$$$$OOOOOOOOOOooooo               ;;;;;;;;;",
";;;;;;;;;;;;;;;     +++++;;;;;OOOOOOOOOO$$$$$$$$$$OOOOOOOOOOooooo               ;;;;;;;;;",
";;;;;;;;;;;;;;;     +++++;;;;;OOOOOOOOOO$$$$$$$$$$OOOOOOOOOOooooo               ;;;;;;;;;",
";;;;;;;;;;     OOOOOOOOOO+++++     oooooooooooooooooooo##########ooooo     ;;;;;;;;;;;;;;",
";;;;;;;;;;     OOOOOOOOOO+++++     oooooooooooooooooooo##########ooooo     ;;;;;;;;;;;;;;",
";;;;;;;;;;     OOOOOOOOOO+++++     oooooooooooooooooooo##########ooooo     ;;;;;;;;;;;;;;",
";;;;;;;;;;     OOOOOOOOOO+++++     oooooooooooooooooooo##########ooooo     ;;;;;;;;;;;;;;",
";;;;;;;;;;     OOOOOOOOOO+++++     oooooooooooooooooooo##########ooooo     ;;;;;;;;;;;;;;",
";;;;;;;;;;     -----=====     oooooooooo#########################          ;;;;;;;;;;;;;;",
";;;;;;;;;;     -----=====     oooooooooo#########################          ;;;;;;;;;;;;;;",
";;;;;;;;;;     -----=====     oooooooooo#########################          ;;;;;;;;;;;;;;",
";;;;;;;;;;     -----=====     oooooooooo#########################          ;;;;;;;;;;;;;;",
";;;;;;;;;;     -----=====     oooooooooo#########################          ;;;;;;;;;;;;;;",
";;;;;;;;;;;;;;;               XXXXX####################ooooo     .....     ;;;;;;;;;;;;;;",
";;;;;;;;;;;;;;;               XXXXX####################ooooo     .....     ;;;;;;;;;;;;;;",
";;;;;;;;;;;;;;;               XXXXX####################ooooo     .....     ;;;;;;;;;;;;;;",
";;;;;;;;;;;;;;;               XXXXX####################ooooo     .....     ;;;;;;;;;;;;;;",
";;;;;;;;;;;;;;;               XXXXX####################ooooo     .....     ;;;;;;;;;;;;;;",
";;;;;;;;;;;;;;;;;;;;;;;;;;;;;;                                        ;;;;;;;;;;;;;;;;;;;",
";;;;;;;;;;;;;;;;;;;;;;;;;;;;;;                                        ;;;;;;;;;;;;;;;;;;;",
";;;;;;;;;;;;;;;;;;;;;;;;;;;;;;                                        ;;;;;;;;;;;;;;;;;;;",
";;;;;;;;;;;;;;;;;;;;;;;;;;;;;;                                        ;;;;;;;;;;;;;;;;;;;"
};
