/* XPM */
static char *down_3_[] = {
/* columns rows colors chars-per-pixel */
"52 64 238 2 ",
"   c #000001",
".  c #020B04",
"X  c #0A0A0A",
"o  c #0B0806",
"O  c #140C07",
"+  c #021206",
"@  c #071B09",
"#  c #1A120A",
"$  c #0B0D11",
"%  c #121213",
"&  c #1D1C1A",
"*  c #29180C",
"=  c #321C0E",
"-  c #271C16",
";  c #05260C",
":  c #173A0E",
">  c #083412",
",  c #0D2E12",
"<  c #2E2313",
"1  c #382817",
"2  c #392D17",
"3  c #112931",
"4  c #292829",
"5  c #393839",
"6  c #333334",
"7  c #2E3028",
"8  c #101B26",
"9  c #44281D",
"0  c #532F1A",
"q  c #45351B",
"w  c #57341B",
"e  c #6D3C1C",
"r  c #64391C",
"t  c #713E1D",
"y  c #4D3529",
"u  c #6A3C23",
"i  c #723E20",
"p  c #0C420D",
"a  c #18410E",
"s  c #0A4A18",
"d  c #1A4814",
"f  c #0B581C",
"g  c #16591C",
"h  c #2A691B",
"j  c #2B661B",
"k  c #2C771D",
"l  c #324A2C",
"z  c #0E6C24",
"x  c #0D6421",
"c  c #0F7427",
"v  c #0F7A29",
"b  c #0E7827",
"n  c #117C29",
"m  c #1A7927",
"M  c #186722",
"N  c #227527",
"B  c #356C2A",
"V  c #1A5120",
"C  c #69411E",
"Z  c #72401F",
"A  c #7B4A1E",
"S  c #5D4A23",
"D  c #534738",
"F  c #6A4522",
"G  c #744221",
"H  c #7B4A27",
"J  c #7C5632",
"K  c #6E5129",
"L  c #43712B",
"P  c #6A6123",
"I  c #243D57",
"U  c #1F2F40",
"Y  c #325272",
"T  c #3B4C5F",
"R  c #5A5A5A",
"E  c #535353",
"W  c #4F494A",
"Q  c #69564A",
"!  c #737674",
"~  c #6C6E67",
"^  c #53566E",
"/  c #957118",
"(  c #85552B",
")  c #885A35",
"_  c #88562B",
"`  c #956938",
"'  c #9B753C",
"]  c #93682F",
"[  c #A2793E",
"{  c #A1733D",
"}  c #A5792E",
"|  c #885F1A",
" . c #966A46",
".. c #927451",
"X. c #A17643",
"o. c #A47A42",
"O. c #A87F40",
"+. c #A17853",
"@. c #967C62",
"#. c #1C8529",
"$. c #1B8529",
"%. c #258A28",
"&. c #359A29",
"*. c #3B9D29",
"=. c #399525",
"-. c #228032",
";. c #338E27",
":. c #3EA329",
">. c #639532",
",. c #699432",
"<. c #669C2E",
"1. c #41A429",
"2. c #43A82A",
"3. c #4AA02B",
"4. c #74AC29",
"5. c #6CAA26",
"6. c #37924C",
"7. c #938F36",
"8. c #AC873B",
"9. c #B69634",
"0. c #A9852D",
"q. c #A4A224",
"w. c #C5B212",
"e. c #C6AC29",
"r. c #C3A82B",
"t. c #CEB825",
"y. c #D3BC25",
"u. c #CCA839",
"i. c #D3AC39",
"p. c #81C31B",
"a. c #D5C21E",
"s. c #DBCA1A",
"d. c #D4C50A",
"f. c #E9DE10",
"g. c #E2D514",
"h. c #E5DA0A",
"j. c #CEE408",
"k. c #D1E708",
"l. c #ECE30D",
"z. c #F1EB0A",
"x. c #FFFF00",
"c. c #F6F505",
"v. c #F3E918",
"b. c #E4CD25",
"n. c #EDD22C",
"m. c #F1DB24",
"M. c #E8C737",
"N. c #C7F038",
"B. c #AB8348",
"V. c #BA8C47",
"C. c #AD8456",
"Z. c #B28C55",
"A. c #BC9253",
"S. c #BCA34C",
"D. c #AE8762",
"F. c #A4856A",
"G. c #B9946A",
"H. c #BB9773",
"J. c #AE8E70",
"K. c #BDAD7F",
"L. c #BFA07C",
"P. c #A9B667",
"I. c #988063",
"U. c #C3954B",
"Y. c #C19F5A",
"T. c #D8A64E",
"R. c #DEAB53",
"E. c #D6A450",
"W. c #E1AD53",
"Q. c #E2B350",
"!. c #C19D72",
"~. c #C9A77A",
"^. c #DBBB7E",
"/. c #BECA42",
"(. c #2D4F9B",
"). c #2E509C",
"_. c #395495",
"`. c #3456A2",
"'. c #485B8E",
"]. c #516BA7",
"[. c #597697",
"{. c #0086B7",
"}. c #298DAC",
"|. c #7D8787",
" X c #608E9F",
".X c #1E9BC4",
"XX c #02BDFD",
"oX c #00B6F7",
"OX c #50BAD4",
"+X c #9A9999",
"@X c #8E8886",
"#X c #A19F9A",
"$X c #99B087",
"%X c #B5A486",
"&X c #BEA696",
"*X c #8A96AD",
"=X c #9EA1B1",
"-X c #AAAAAB",
";X c #BCBCBC",
":X c #B4B6B5",
">X c #B0AFB0",
",X c #CCAC85",
"<X c #D5B48B",
"1X c #D7B58B",
"2X c #DBBB92",
"3X c #CBAD8B",
"4X c #C4AFA1",
"5X c #C6B6A4",
"6X c #E4C79D",
"7X c #D8C4A9",
"8X c #DCCCB6",
"9X c #C7C1BF",
"0X c #E7CBA4",
"qX c #E4D2B9",
"wX c #F5DBB3",
"eX c #EBD1AC",
"rX c #FEE5BC",
"tX c #FFE9BE",
"yX c #FBE1B4",
"uX c #B2B9C9",
"iX c #9DADD0",
"pX c #CCCCCC",
"aX c #C5C4C3",
"sX c #DADADA",
"dX c #D3D3D3",
"fX c #D7D1CE",
"gX c #E9DBC9",
"hX c #E2D9D3",
"jX c #F0DDC1",
"kX c #FFEAC1",
"lX c #FFECCA",
"zX c #F3E7D7",
"xX c #D7DEE5",
"cX c #E9E8E8",
"vX c #F3F3F3",
"bX c #FFFFFF",
"nX c #F6F9F8",
"mX c #F1EFEE",
/* pixels */
"bXbXbXbXbXbXbXbXbXbXbXbXbXbXbXbXbXbXbXbX!     s v v v v v ;   X pXbXbXbXbXbXbXbXbXbXbXbXbXbXbXbXbXbXbXbX",
"bXbXbXbXbXbXbXbXbXbXbXbXbXbXbXbXbXbXbXbX!     s $.v v v v @   X pXbXbXbXbXbXbXbXbXbXbXbXbXbXbXbXbXbXbXbX",
"bXbXbXbXbXbXbXbXbXbXbXbXbXbXvXsXsXsXsXhX~ . . f n v v v b ; + % :XsXsXsXsXxXbXbXbXbXbXbXbXbXbXbXbXbXbXbX",
"bXbXbXbXbXbXbXbXbXbXbXbXbXbX-XX % % % % s c c b n n v n v b b z , % % % % 4 cXbXbXbXbXbXbXbXbXbXbXbXbXbX",
"bXbXbXbXbXbXbXbXbXbXbXbXbXbX+X        o s v v v v v v v v n v b @         & cXbXbXbXbXbXbXbXbXbXbXbXbXbX",
"bXbXbXbXbXbXbXbXbXbXbXmXpXdX|.+ + @ @ @ f $.$.$.$.$.m $.$.$.$.m , @ @ + + 4 ;XpXdXbXbXbXbXbXbXbXbXbXbXbX",
"bXbXbXbXbXbXbXbXbXbXbX>XX X > b c %.3.*.*.1.1.:.:.:.:.:.:.:.:.:.1.1.*.n b z @ X 6 vXbXbXbXbXbXbXbXbXbXbX",
"bXbXbXbXbXbXbXbXbXbXbX-X    > n b %.1.1.1.1.1.1.1.1.1.1.1.1.1.1.1.1.*.$.n z .   4 vXbXbXbXbXbXbXbXbXbXbX",
"bXbXbXbXbXbXbXbXbXbXbX-X    > v v %.&.&.&.&.&.&.&.&.&.&.&.&.&.&.=.*.&.n v z .   4 vXbXbXbXbXbXbXbXbXbXbX",
"bXbXbXbXbXbXbXbXbXbXbX-X    > n n v v n n n n n n n n n n n n n b n n b v z .   7 vXbXbXbXbXbXbXbXbXbXbX",
"bXbXbXbXbXbXbXbXbXbXbX-X    > b v v v v v n n n n n n n n n n b v v n n n c .   7 vXbXbXbXbXbXbXbXbXbXbX",
"bXbXbXbXbXbXbXbXmX:X;X|.; ; s #.%.#.#.#.#.#.#.#.#.#.#.#.#.#.#.#.#.%.#.#.#.m ; ; 7 >X:XaXbXbXbXbXbXbXbXbX",
"bXbXbXbXbXbXbXbXuX.   ; v b %.1.1.1.1.1.1.1.1.1.1.:.1.:.2.:.2.:.1.1.:.1.1.:.n n z .   5 nXbXbXbXbXbXbXbX",
"bXbXbXbXbXbXbXbX5X    ; v b %.:.:.1.:.:.:.:.:.:.:.:.:.:.2.:.:.:.:.:.:.:.:.:.n v x .   5 nXbXbXbXbXbXbXbX",
"bXbXbXbXbXbXbXbXuXo   , %.%.;.>.>.5.p.p.5.>.>.4.p.p.5.>.>.4.p.p.p.p.4.>.>.>.-.%.m     5 nXbXbXbXbXbXbXbX",
"bXbXbXbXbXbXbXbXuX    : :.2.,.o.o.t.x.x.t.[ o.s.x.x.r.[ o.f.x.x.x.x.x.9.[ 7.3.:.;.    5 bXbXbXbXbXbXbXbX",
"bXbXbXbXbXbXbXbXuX    : 1.1.<.o.o.t.x.x.t.X.X.s.x.x.r.o.o.f.x.x.x.x.c.8...7.3.1.;..   6 nXbXbXbXbXbXbXbX",
"bXbXbXbXbXcX-X+X! > > V ,.,.7.e.e.g.x.x.g.e.e.f.x.x.9.o.o.f.x.x.g.s.s.t.e.e.7.4.,.> > l +X+X:XbXbXbXbXbX",
"bXbXbXbXbXpX    ; v -.L [ o.e.x.x.x.x.x.x.x.x.x.x.x.r.X.8.f.x.c.9.X.8.z.x.c.Q.W.S.m $.x     W nXbXbXbXbX",
"bXbXbXbXbXpXo   ; v v ;.[ o.e.x.x.x.x.x.x.x.x.x.x.x.r.X.o.f.x.x.9.X.8.v.x.c.Q.R.S.m v x     W bXbXbXbXbX",
"7X7X7XjXgX5X1 = 2 L l P A.U.y.x.x.l.a.a.l.x.x.f.a.a.9.o.o.f.x.c.9.X.B.t.a.s.n.n.t.L B q = = Q gXgXgX7X7X",
"{ o.B.,X1X!.H i i i Z ] W.W.M.x.x.y.X.X.a.x.x.e.X.o.o.o.o.f.x.x.9.X.o.[ o.8.c.x.l.H Z Z G t ` 3X<X!.[ [ ",
"o.o.B.<X<X!.i t i i t ] W.R.M.x.x.a.o.o.a.x.x.e.X.o.o.o.o.f.x.c.9.[ [ o.o.8.c.x.h.A Z Z t e ) <X<X!.[ [ ",
") )  .6X0X6XH.H.C.] ) ' U.V.y.x.x.b.V.U.b.x.x.e.o.o.r.a.a.y.y.y.Y.G.G.O.o.8.c.x.l.] ] ` G.H.,X0X0X~.] ) ",
"Z Z ) wXrXrXkXkX6XB.[ [ o.X.e.x.x.n.R.R.m.x.x.e.X.o.g.x.x.9.o.o.~.2X<XB.o.8.c.x.z.8.X.G.rXtXkXtXkX,Xt Z ",
"Z t ) wXkXkXkXkX0Xo.o.o.o.X.e.x.x.m.R.R.m.x.x.e.o.o.g.x.x.9.o.o.~.1X,XB.[ 8.c.x.l.8.o.A.rXrXrXkXkX,Xt t ",
"4X4X3XD.D.D.D.D.C.o.o.9.a.s.b.n.n.Q.R.R.m.x.x.e.o.o.g.x.x.9.o.o.~.1X<X1X1X1XM.n.M.[ o.Z.6X0X1XD.D.H.4X4X",
"bXbXcXH t t t e H o.o.r.x.x.m.R.R.R.R.R.m.x.x.e.o.o.g.x.x.9.X.O.,X1X2XyXtXrXW.R.E.O.o.B.<X<XG.e r F.bXbX",
"bXbXcXH i G i t ( o.o.r.x.x.m.R.Q.R.R.R.m.x.x.e.X.o.g.x.x.9.o.o.~.1X2XwXtXyXQ.Q.T.o.[ C.<X3XG.G t @.bXbX",
"bXbXsX1 * 7 }.}.[.( ( / e.r.i.R.Q.U.V.V.i.M.M.b.s.s.c.x.x.0.( ) 2XwXeX0X6X2X{ ` } s.g./.OXOX X* * ~ bXbX",
"bXbXdX%   3 oXXX.XC C J o.o.V.R.W.U.[ [ U.W.R.v.x.x.x.x.x./ e G 6XrXwX2X3X~.H t | c.x.N.XXXX{.    R bXbX",
"bXbXsX$   3 oXXX.XC Z ( o.o.V.R.R.U.[ o.U.W.R.m.x.x.x.x.x./ u G 0XkXrX2X1X,XH i | c.x.N.XXXX{.    R bXbX",
"bXbXsX$   & $X$XP.d.d.w.o.[ J q q J O.[ U.W.W.u.r.r.0./ / Z.G.G.+.+. .y y y ` ` } x.x.v.$X$X~ .   R bXbX",
"bXbXsX$   = T.R.M.x.x.g.o.B.K     w O.[ U.W.W.V.' [ ( i G H.1X3X( e r O   %  .X.9.c.x.v.Q.Q.[     R bXbX",
"bXbXsX%   < R.R.Q.x.x.s.o.B.F     y B.[ U.R.W.V.X.[ ( i H H.<X,X) i u O   # ' o.9.c.x.v.W.W.[     R bXbX",
"bXbXvXaXaX#X2 1 S M.M.u.A H @.uX9X*X'.'.Q _ ) ) H ( !.2X2X+. .) ^ Y '.-X;X>X) H ) M.M.9.q < Q ;X;XdXbXbX",
"bXbXbXbXbXpX    2 R.R.V.Z t J.bXnXiX(.).E i i i Z t 1XkXtX .e u ).).`.cXbXcX( t ( E.R.8.    W bXbXbXbXbX",
"bXbXbXbXbXpX%   q T.R.8.Z t J.bXbXiX).).E H i i H G <XkXrX .G H _.).].cXbXcXJ e ( E.T.8.X   W bXbXbXbXbX",
"bXbXbXbXbXnXpXpX#X< < w ' ` !.lXlX=X).).=XhXhX8X2X6XwXkXrXgXhXfX].(.`.gXlXqX- # # < < D aXpXdXbXbXbXbXbX",
"bXbXbXbXbXbXbXbX;X    1 o.[ ~.rXtX=X(.(.iXbXbXlXkXkXkXrXrXvXbXnX].(.'.qXtX0X%         5 nXbXbXbXbXbXbXbX",
"bXbXbXbXbXbXbXbX;X% X 2 ' ' !.rXyX-X_._.uXbXbXlXrXtXrXrXrXvXbXnX].`.].eXyX7X#         y mXmXnXbXbXbXbXbX",
"bXbXbXbXbXbXbXbXnXdXsX+X# # S Z.C.,X8X8XgXlXlXkXtXtXrXtXtXtXlXlXjXqX7XG.Z.+.@   O w r y 4 4 ~ bXbXbXbXbX",
"bXbXbXbXbXbXbXbXbXbXbX-X    q o.' ~.tXtXrXrXkXrXtXtXtXtXtXrXtXrXtXrXwXZ.o.` O   O t G w     W bXbXbXbXbX",
"bXbXbXbXbXbXbXbXbXbXbX-X    2 [ ' ~.wXwXwXwXrXrXrXyXyXyXrXyXyXyXwXwXeXB.[ ` - % - u t w o o 5 cXcXvXbXbX",
"bXbXbXbXbXbXbXbXbXbXbX>X    = H H H ( ( G.2X2X2X2X2X2X2X2X2X2X1X .( ( H H ) fXxX9Xy y 0 u r 0 4 & ~ bXbX",
"bXbXbXbXbXbXbXbXbXbXbX-X    * Z Z Z Z C +.2X1X1X1X2X1X1X<X1X1X<X( u Z Z i J mXbXhXy 9 0 i i w     R bXbX",
"bXbXbXbXbXbXbXbXbXbXbX-X    * C C C C C I.K.%X,X%X%X~.%XK.K.%XK.J C F r u J pXxXpXu y u i i w     R bXbX",
"bXbXbXbXbXbXbXbXbXbXbX-X    > m m M a a M -.-.-.-.-.%.-.-.N -.m d a : +   X % & 7 ~.3XH.i i 0     R bXbX",
"bXbXbXbXbXbXbXbXbXbXbX-X    > v b f p a x v c b b b b b b v v c s p : .         - 3X1X!.H G 0     E bXbX",
"bXbXbXbXbXbXbXbXnXdXsX+X$ X 3 6.6.N a a g N N ;.;.;.;.=.=.N m N d a a @ + +     & J.H.F.r w 0 4 4 ! bXbX",
"bXbXbXbXbXbXbXbX;X% % 3 Y Y |.nXnX%Xe Z G F G w.c.c.c.c.c./ C C Z C F M b x .     X O o     W cXmXnXbXbX",
"bXbXbXbXbXbXbXbX;X    8 Y Y *XbXbX&Xt Z G i t w.c.x.x.x.x./ Z Z G Z F m v z .               W bXbXbXbXbX",
"bXbXbXbXbXnXpXpX+X# O 4 T T |.xXxX+Xw r w S S q.k.k.j.j.j.P S S K K P m $.m ; + +     X 6 6 ~ bXbXbXbXbX",
"bXbXbXbXbXpX$ o * t t i F u E Y Y U     p $.n v $.$.v $.$.$.b b *.1.1.1.:.&.n b x .   5 vXnXnXbXbXbXbXbX",
"bXbXbXbXbXpX    O t t t t t W Y Y U     s $.v v b b b b b b b $.=.1.1.1.1.:.v $.z .   5 nXbXbXbXbXbXbXbX",
"bXbXbXbXbXpXX   -  . . .) ) Q I I 3 @ @ f v b $.$.$.$.$.$.$.$.#.:.1.1.1.1.*.x f s     5 nXbXbXbXbXbXbXbX",
"bXbXbXbXbXpXX   y rXtXeX<X1X..    > $.v v v v &.1.1.*.1.1.1.:.1.:.:.1.1.2.=..         5 nXbXbXbXbXbXbXbX",
"bXbXbXbXbXpXo   5 kXkXwX1X2X..    > v v v v v ;.2.1.1.1.1.1.1.1.1.1.2.:.2.=.+         5 nXbXbXbXbXbXbXbX",
"bXbXbXbXbXsXE W R %X%XJ.@.I.D     > z z n #.%.&.1.1.1.1.1.1.1.1.=.&.;.k h j # # O   o U nXbXbXbXbXbXbXbX",
"bXbXbXbXbXbXbXbX9X                ; p : k 2.:.1.1.1.1.1.1.:.2.:.$.n c +   o 9 9 9 o   y bXbXbXbXbXbXbXbX",
"bXbXbXbXbXbXbXbX;X                @ p p N 2.2.2.2.2.2.2.2.2.2.:.$.v b +   o 9 9 1 o   y nXbXbXbXbXbXbXbX",
"bXbXbXbXbXbXbXbXdXR R R R R R R R l > ; d h h h h h h h h h h h f s s X   o - = 1 R R [.bXbXbXbXbXbXbXbX",
"bXbXbXbXbXbXbXbXbXbXbXbXbXbXbXbXbX@X                                            4 vXbXbXbXbXbXbXbXbXbXbX",
"bXbXbXbXbXbXbXbXbXbXbXbXbXbXbXbXbX@X                                            4 vXbXbXbXbXbXbXbXbXbXbX"
};
