/* XPM */
static char *result[] = {
/* columns rows colors chars-per-pixel */
"90 114 15 1 ",
"  c #000001",
". c #4A2920",
"X c #0D420D",
"o c #107B29",
"O c #734120",
"+ c #315273",
"@ c #A47B41",
"# c #41A429",
"$ c yellow",
"% c #DEAC52",
"& c #31529C",
"* c #00BAFF",
"= c #D5B48B",
"- c #FFE6BD",
"; c white",
/* pixels */
";;;;;;;;;;;;;;;;;;;;;;;;;;;;;;     oooooooooooooooooooo     ;;;;;;;;;;;;;;;;;;;;;;;;;;;;;;",
";;;;;;;;;;;;;;;;;;;;;;;;;;;;;;     oooooooooooooooooooo     ;;;;;;;;;;;;;;;;;;;;;;;;;;;;;;",
";;;;;;;;;;;;;;;;;;;;;;;;;;;;;;     oooooooooooooooooooo     ;;;;;;;;;;;;;;;;;;;;;;;;;;;;;;",
";;;;;;;;;;;;;;;;;;;;;;;;;;;;;;     oooooooooooooooooooo     ;;;;;;;;;;;;;;;;;;;;;;;;;;;;;;",
";;;;;;;;;;;;;;;;;;;;;;;;;;;;;;     oooooooooooooooooooo     ;;;;;;;;;;;;;;;;;;;;;;;;;;;;;;",
";;;;;;;;;;;;;;;;;;;;;;;;;     ooooo####################ooooo     ;;;;;;;;;;;;;;;;;;;;;;;;;",
";;;;;;;;;;;;;;;;;;;;;;;;;     ooooo####################ooooo     ;;;;;;;;;;;;;;;;;;;;;;;;;",
";;;;;;;;;;;;;;;;;;;;;;;;;     ooooo####################ooooo     ;;;;;;;;;;;;;;;;;;;;;;;;;",
";;;;;;;;;;;;;;;;;;;;;;;;;     ooooo####################ooooo     ;;;;;;;;;;;;;;;;;;;;;;;;;",
";;;;;;;;;;;;;;;;;;;;;;;;;     ooooo####################ooooo     ;;;;;;;;;;;;;;;;;;;;;;;;;",
";;;;;;;;;;;;;;;;;;;;     oooooooooooooooooooooooooooooooooooooooo     ;;;;;;;;;;;;;;;;;;;;",
";;;;;;;;;;;;;;;;;;;;     oooooooooooooooooooooooooooooooooooooooo     ;;;;;;;;;;;;;;;;;;;;",
";;;;;;;;;;;;;;;;;;;;     oooooooooooooooooooooooooooooooooooooooo     ;;;;;;;;;;;;;;;;;;;;",
";;;;;;;;;;;;;;;;;;;;     oooooooooooooooooooooooooooooooooooooooo     ;;;;;;;;;;;;;;;;;;;;",
";;;;;;;;;;;;;;;;;;;;     oooooooooooooooooooooooooooooooooooooooo     ;;;;;;;;;;;;;;;;;;;;",
";;;;;;;;;;;;;;;     ooooo########################################ooooo     ;;;;;;;;;;;;;;;",
";;;;;;;;;;;;;;;     ooooo########################################ooooo     ;;;;;;;;;;;;;;;",
";;;;;;;;;;;;;;;     ooooo########################################ooooo     ;;;;;;;;;;;;;;;",
";;;;;;;;;;;;;;;     ooooo########################################ooooo     ;;;;;;;;;;;;;;;",
";;;;;;;;;;;;;;;     ooooo########################################ooooo     ;;;;;;;;;;;;;;;",
";;;;;;;;;;;;;;;     #####@@@@@$$$$$$$$$$@@@@@@@@@@$$$$$@@@@@@@@@@#####     ;;;;;;;;;;;;;;;",
";;;;;;;;;;;;;;;     #####@@@@@$$$$$$$$$$@@@@@@@@@@$$$$$@@@@@@@@@@#####     ;;;;;;;;;;;;;;;",
";;;;;;;;;;;;;;;     #####@@@@@$$$$$$$$$$@@@@@@@@@@$$$$$@@@@@@@@@@#####     ;;;;;;;;;;;;;;;",
";;;;;;;;;;;;;;;     #####@@@@@$$$$$$$$$$@@@@@@@@@@$$$$$@@@@@@@@@@#####     ;;;;;;;;;;;;;;;",
";;;;;;;;;;;;;;;     #####@@@@@$$$$$$$$$$@@@@@@@@@@$$$$$@@@@@@@@@@#####     ;;;;;;;;;;;;;;;",
";;;;;;;;;;     ooooo@@@@@@@@@@$$$$$@@@@@$$$$$@@@@@$$$$$$$$$$@@@@@@@@@@ooooo     ;;;;;;;;;;",
";;;;;;;;;;     ooooo@@@@@@@@@@$$$$$@@@@@$$$$$@@@@@$$$$$$$$$$@@@@@@@@@@ooooo     ;;;;;;;;;;",
";;;;;;;;;;     ooooo@@@@@@@@@@$$$$$@@@@@$$$$$@@@@@$$$$$$$$$$@@@@@@@@@@ooooo     ;;;;;;;;;;",
";;;;;;;;;;     ooooo@@@@@@@@@@$$$$$@@@@@$$$$$@@@@@$$$$$$$$$$@@@@@@@@@@ooooo     ;;;;;;;;;;",
";;;;;;;;;;     ooooo@@@@@@@@@@$$$$$@@@@@$$$$$@@@@@$$$$$$$$$$@@@@@@@@@@ooooo     ;;;;;;;;;;",
"@@@@@=====OOOOOOOOOO%%%%%$$$$$%%%%%$$$$$@@@@@$$$$$%%%%%@@@@@$$$$$@@@@@OOOOOOOOOO=====@@@@@",
"@@@@@=====OOOOOOOOOO%%%%%$$$$$%%%%%$$$$$@@@@@$$$$$%%%%%@@@@@$$$$$@@@@@OOOOOOOOOO=====@@@@@",
"@@@@@=====OOOOOOOOOO%%%%%$$$$$%%%%%$$$$$@@@@@$$$$$%%%%%@@@@@$$$$$@@@@@OOOOOOOOOO=====@@@@@",
"@@@@@=====OOOOOOOOOO%%%%%$$$$$%%%%%$$$$$@@@@@$$$$$%%%%%@@@@@$$$$$@@@@@OOOOOOOOOO=====@@@@@",
"@@@@@=====OOOOOOOOOO%%%%%$$$$$%%%%%$$$$$@@@@@$$$$$%%%%%@@@@@$$$$$@@@@@OOOOOOOOOO=====@@@@@",
"OOOOO----------@@@@@$$$$$@@@@@$$$$$@@@@@@@@@@$$$$$@@@@@=====@@@@@$$$$$@@@@@----------OOOOO",
"OOOOO----------@@@@@$$$$$@@@@@$$$$$@@@@@@@@@@$$$$$@@@@@=====@@@@@$$$$$@@@@@----------OOOOO",
"OOOOO----------@@@@@$$$$$@@@@@$$$$$@@@@@@@@@@$$$$$@@@@@=====@@@@@$$$$$@@@@@----------OOOOO",
"OOOOO----------@@@@@$$$$$@@@@@$$$$$@@@@@@@@@@$$$$$@@@@@=====@@@@@$$$$$@@@@@----------OOOOO",
"OOOOO----------@@@@@$$$$$@@@@@$$$$$@@@@@@@@@@$$$$$@@@@@=====@@@@@$$$$$@@@@@----------OOOOO",
";;;;;OOOOO=====OOOOO@@@@@%%%%%$$$$$$$$$$%%%%%OOOOO=====-----@@@@@%%%%%@@@@@=====OOOOO;;;;;",
";;;;;OOOOO=====OOOOO@@@@@%%%%%$$$$$$$$$$%%%%%OOOOO=====-----@@@@@%%%%%@@@@@=====OOOOO;;;;;",
";;;;;OOOOO=====OOOOO@@@@@%%%%%$$$$$$$$$$%%%%%OOOOO=====-----@@@@@%%%%%@@@@@=====OOOOO;;;;;",
";;;;;OOOOO=====OOOOO@@@@@%%%%%$$$$$$$$$$%%%%%OOOOO=====-----@@@@@%%%%%@@@@@=====OOOOO;;;;;",
";;;;;OOOOO=====OOOOO@@@@@%%%%%$$$$$$$$$$%%%%%OOOOO=====-----@@@@@%%%%%@@@@@=====OOOOO;;;;;",
";;;;;;;;;;*****$$$$$OOOOO%%%%%%%%%%@@@@@OOOOO=====----------=====OOOOO$$$$$*****;;;;;;;;;;",
";;;;;;;;;;*****$$$$$OOOOO%%%%%%%%%%@@@@@OOOOO=====----------=====OOOOO$$$$$*****;;;;;;;;;;",
";;;;;;;;;;*****$$$$$OOOOO%%%%%%%%%%@@@@@OOOOO=====----------=====OOOOO$$$$$*****;;;;;;;;;;",
";;;;;;;;;;*****$$$$$OOOOO%%%%%%%%%%@@@@@OOOOO=====----------=====OOOOO$$$$$*****;;;;;;;;;;",
";;;;;;;;;;*****$$$$$OOOOO%%%%%%%%%%@@@@@OOOOO=====----------=====OOOOO$$$$$*****;;;;;;;;;;",
";;;;;;;;;;     $$$$$@@@@@     @@@@@OOOOO=====-----=====OOOOO     @@@@@$$$$$     ;;;;;;;;;;",
";;;;;;;;;;     $$$$$@@@@@     @@@@@OOOOO=====-----=====OOOOO     @@@@@$$$$$     ;;;;;;;;;;",
";;;;;;;;;;     $$$$$@@@@@     @@@@@OOOOO=====-----=====OOOOO     @@@@@$$$$$     ;;;;;;;;;;",
";;;;;;;;;;     $$$$$@@@@@     @@@@@OOOOO=====-----=====OOOOO     @@@@@$$$$$     ;;;;;;;;;;",
";;;;;;;;;;     $$$$$@@@@@     @@@@@OOOOO=====-----=====OOOOO     @@@@@$$$$$     ;;;;;;;;;;",
";;;;;;;;;;     %%%%%OOOOO;;;;;&&&&&OOOOO----------OOOOO&&&&&;;;;;OOOOO%%%%%     ;;;;;;;;;;",
";;;;;;;;;;     %%%%%OOOOO;;;;;&&&&&OOOOO----------OOOOO&&&&&;;;;;OOOOO%%%%%     ;;;;;;;;;;",
";;;;;;;;;;     %%%%%OOOOO;;;;;&&&&&OOOOO----------OOOOO&&&&&;;;;;OOOOO%%%%%     ;;;;;;;;;;",
";;;;;;;;;;     %%%%%OOOOO;;;;;&&&&&OOOOO----------OOOOO&&&&&;;;;;OOOOO%%%%%     ;;;;;;;;;;",
";;;;;;;;;;     %%%%%OOOOO;;;;;&&&&&OOOOO----------OOOOO&&&&&;;;;;OOOOO%%%%%     ;;;;;;;;;;",
";;;;;;;;;;;;;;;          -----&&&&&;;;;;----------;;;;;&&&&&-----          ;;;;;;;;;;;;;;;",
";;;;;;;;;;;;;;;          -----&&&&&;;;;;----------;;;;;&&&&&-----          ;;;;;;;;;;;;;;;",
";;;;;;;;;;;;;;;          -----&&&&&;;;;;----------;;;;;&&&&&-----          ;;;;;;;;;;;;;;;",
";;;;;;;;;;;;;;;          -----&&&&&;;;;;----------;;;;;&&&&&-----          ;;;;;;;;;;;;;;;",
";;;;;;;;;;;;;;;          -----&&&&&;;;;;----------;;;;;&&&&&-----          ;;;;;;;;;;;;;;;",
";;;;;;;;;;;;;;;;;;;;     @@@@@------------------------------@@@@@     ;;;;;;;;;;;;;;;;;;;;",
";;;;;;;;;;;;;;;;;;;;     @@@@@------------------------------@@@@@     ;;;;;;;;;;;;;;;;;;;;",
";;;;;;;;;;;;;;;;;;;;     @@@@@------------------------------@@@@@     ;;;;;;;;;;;;;;;;;;;;",
";;;;;;;;;;;;;;;;;;;;     @@@@@------------------------------@@@@@     ;;;;;;;;;;;;;;;;;;;;",
";;;;;;;;;;;;;;;;;;;;     @@@@@------------------------------@@@@@     ;;;;;;;;;;;;;;;;;;;;",
";;;;;;;;;;;;;;;     oooooOOOOOOOOOO====================OOOOOOOOOOooooo     ;;;;;;;;;;;;;;;",
";;;;;;;;;;;;;;;     oooooOOOOOOOOOO====================OOOOOOOOOOooooo     ;;;;;;;;;;;;;;;",
";;;;;;;;;;;;;;;     oooooOOOOOOOOOO====================OOOOOOOOOOooooo     ;;;;;;;;;;;;;;;",
";;;;;;;;;;;;;;;     oooooOOOOOOOOOO====================OOOOOOOOOOooooo     ;;;;;;;;;;;;;;;",
";;;;;;;;;;;;;;;     oooooOOOOOOOOOO====================OOOOOOOOOOooooo     ;;;;;;;;;;;;;;;",
";;;;;;;;;;     +++++;;;;;XXXXXooooooooooooooooooooooooooooooXXXXX;;;;;.....     ;;;;;;;;;;",
";;;;;;;;;;     +++++;;;;;XXXXXooooooooooooooooooooooooooooooXXXXX;;;;;.....     ;;;;;;;;;;",
";;;;;;;;;;     +++++;;;;;XXXXXooooooooooooooooooooooooooooooXXXXX;;;;;.....     ;;;;;;;;;;",
";;;;;;;;;;     +++++;;;;;XXXXXooooooooooooooooooooooooooooooXXXXX;;;;;.....     ;;;;;;;;;;",
";;;;;;;;;;     +++++;;;;;XXXXXooooooooooooooooooooooooooooooXXXXX;;;;;.....     ;;;;;;;;;;",
";;;;;     OOOOOOOOOO     OOOOOooooooooooooooooooooooooooooooOOOOO     OOOOOOOOOO     ;;;;;",
";;;;;     OOOOOOOOOO     OOOOOooooooooooooooooooooooooooooooOOOOO     OOOOOOOOOO     ;;;;;",
";;;;;     OOOOOOOOOO     OOOOOooooooooooooooooooooooooooooooOOOOO     OOOOOOOOOO     ;;;;;",
";;;;;     OOOOOOOOOO     OOOOOooooooooooooooooooooooooooooooOOOOO     OOOOOOOOOO     ;;;;;",
";;;;;     OOOOOOOOOO     OOOOOooooooooooooooooooooooooooooooOOOOO     OOOOOOOOOO     ;;;;;",
";;;;;     =====-----XXXXX#####OOOOOOOOOO$$$$$$$$$$OOOOOOOOOO#####XXXXX-----=====     ;;;;;",
";;;;;     =====-----XXXXX#####OOOOOOOOOO$$$$$$$$$$OOOOOOOOOO#####XXXXX-----=====     ;;;;;",
";;;;;     =====-----XXXXX#####OOOOOOOOOO$$$$$$$$$$OOOOOOOOOO#####XXXXX-----=====     ;;;;;",
";;;;;     =====-----XXXXX#####OOOOOOOOOO$$$$$$$$$$OOOOOOOOOO#####XXXXX-----=====     ;;;;;",
";;;;;     =====-----XXXXX#####OOOOOOOOOO$$$$$$$$$$OOOOOOOOOO#####XXXXX-----=====     ;;;;;",
";;;;;;;;;;               ooooo#####oooooooooooooooooooo#####ooooo               ;;;;;;;;;;",
";;;;;;;;;;               ooooo#####oooooooooooooooooooo#####ooooo               ;;;;;;;;;;",
";;;;;;;;;;               ooooo#####oooooooooooooooooooo#####ooooo               ;;;;;;;;;;",
";;;;;;;;;;               ooooo#####oooooooooooooooooooo#####ooooo               ;;;;;;;;;;",
";;;;;;;;;;               ooooo#####oooooooooooooooooooo#####ooooo               ;;;;;;;;;;",
";;;;;;;;;;;;;;;;;;;;          ooooo####################ooooo          ;;;;;;;;;;;;;;;;;;;;",
";;;;;;;;;;;;;;;;;;;;          ooooo####################ooooo          ;;;;;;;;;;;;;;;;;;;;",
";;;;;;;;;;;;;;;;;;;;          ooooo####################ooooo          ;;;;;;;;;;;;;;;;;;;;",
";;;;;;;;;;;;;;;;;;;;          ooooo####################ooooo          ;;;;;;;;;;;;;;;;;;;;",
";;;;;;;;;;;;;;;;;;;;          ooooo####################ooooo          ;;;;;;;;;;;;;;;;;;;;",
";;;;;;;;;;;;;;;     OOOOO.....                              .....OOOOO     ;;;;;;;;;;;;;;;",
";;;;;;;;;;;;;;;     OOOOO.....                              .....OOOOO     ;;;;;;;;;;;;;;;",
";;;;;;;;;;;;;;;     OOOOO.....                              .....OOOOO     ;;;;;;;;;;;;;;;",
";;;;;;;;;;;;;;;     OOOOO.....                              .....OOOOO     ;;;;;;;;;;;;;;;",
";;;;;;;;;;;;;;;     OOOOO.....                              .....OOOOO     ;;;;;;;;;;;;;;;",
";;;;;;;;;;;;;;;     OOOOOOOOOO.....     ;;;;;;;;;;     .....OOOOOOOOOO     ;;;;;;;;;;;;;;;",
";;;;;;;;;;;;;;;     OOOOOOOOOO.....     ;;;;;;;;;;     .....OOOOOOOOOO     ;;;;;;;;;;;;;;;",
";;;;;;;;;;;;;;;     OOOOOOOOOO.....     ;;;;;;;;;;     .....OOOOOOOOOO     ;;;;;;;;;;;;;;;",
";;;;;;;;;;;;;;;     OOOOOOOOOO.....     ;;;;;;;;;;     .....OOOOOOOOOO     ;;;;;;;;;;;;;;;",
";;;;;;;;;;;;;;;     OOOOOOOOOO.....     ;;;;;;;;;;     .....OOOOOOOOOO     ;;;;;;;;;;;;;;;",
";;;;;;;;;;;;;;;;;;;;               ;;;;;;;;;;;;;;;;;;;;               ;;;;;;;;;;;;;;;;;;;;",
";;;;;;;;;;;;;;;;;;;;               ;;;;;;;;;;;;;;;;;;;;               ;;;;;;;;;;;;;;;;;;;;",
";;;;;;;;;;;;;;;;;;;;               ;;;;;;;;;;;;;;;;;;;;               ;;;;;;;;;;;;;;;;;;;;",
";;;;;;;;;;;;;;;;;;;;               ;;;;;;;;;;;;;;;;;;;;               ;;;;;;;;;;;;;;;;;;;;"
};
