/* XPM */
static char *down_2_[] = {
/* columns rows colors chars-per-pixel */
"50 64 245 2 ",
"   c #010101",
".  c #090907",
"X  c #130B06",
"o  c #150D08",
"O  c #041807",
"+  c #121110",
"@  c #171718",
"#  c #141614",
"$  c #24170C",
"%  c #211A13",
"&  c #3A1E17",
"*  c #0D2009",
"=  c #06280B",
"-  c #173A0E",
";  c #073813",
":  c #0D2E0C",
">  c #2A2516",
",  c #382C10",
"<  c #101D23",
"1  c #192F2C",
"2  c #232324",
"3  c #2D2C2C",
"4  c #32302A",
"5  c #472817",
"6  c #532E17",
"7  c #59341A",
"8  c #4E361E",
"9  c #6D3C1D",
"0  c #63391C",
"q  c #713E1E",
"w  c #492923",
"e  c #443725",
"r  c #523928",
"t  c #6D3D20",
"y  c #733E20",
"u  c #0D430D",
"i  c #16440E",
"p  c #0A4717",
"a  c #1B4812",
"s  c #0B581E",
"d  c #195519",
"f  c #275019",
"g  c #256D1A",
"h  c #165725",
"j  c #305331",
"k  c #0D6822",
"l  c #0E7B29",
"z  c #0F7627",
"x  c #107B29",
"c  c #177527",
"v  c #176823",
"b  c #2D6926",
"n  c #226B25",
"m  c #2C732A",
"M  c #1F6417",
"N  c #6E411F",
"B  c #61431D",
"V  c #74401E",
"C  c #445A24",
"Z  c #53472E",
"A  c #674625",
"S  c #744221",
"D  c #794826",
"F  c #6D512E",
"G  c #576B24",
"H  c #4F6F29",
"J  c #6E692D",
"K  c #57551F",
"L  c #233A51",
"P  c #253849",
"I  c #1A2E41",
"U  c #325374",
"Y  c #2E4964",
"T  c #1B4C58",
"R  c #444344",
"E  c #4C4B4D",
"W  c #555555",
"Q  c #4F4D4E",
"!  c #645645",
"~  c #725E49",
"^  c #746249",
"/  c #726557",
"(  c #6B6B6C",
")  c #7B7A7B",
"_  c #747475",
"`  c #766D69",
"'  c #4B5761",
"]  c #946E1B",
"[  c #85552B",
"{  c #915E2D",
"}  c #875835",
"|  c #8E653A",
" . c #946634",
".. c #9C733C",
"X. c #947338",
"o. c #817537",
"O. c #A57A3E",
"+. c #8C5F1B",
"@. c #926441",
"#. c #976C48",
"$. c #9A754A",
"%. c #9C7455",
"&. c #8D704D",
"*. c #A17743",
"=. c #A47B42",
"-. c #A87D44",
";. c #A47A55",
":. c #887669",
">. c #A17F68",
",. c #1B8429",
"<. c #12812A",
"1. c #1C8335",
"2. c #238928",
"3. c #2D9329",
"4. c #309629",
"5. c #3B9B27",
"6. c #32853A",
"7. c #368B28",
"8. c #3EA329",
"9. c #58A31D",
"0. c #469828",
"q. c #4C8423",
"w. c #6F8E35",
"e. c #42A529",
"r. c #47A32B",
"t. c #60981C",
"y. c #758D76",
"u. c #AD8F12",
"i. c #BAA211",
"p. c #8A853A",
"a. c #98803E",
"s. c #BC9E2C",
"d. c #AC853B",
"f. c #B38C3B",
"g. c #B69634",
"h. c #BA9737",
"j. c #9FA320",
"k. c #C5AC12",
"l. c #C2A52C",
"z. c #CCB524",
"x. c #CFB42C",
"c. c #D0AD39",
"v. c #8EC013",
"b. c #B9C91A",
"n. c #D5C21E",
"m. c #DCCC1A",
"M. c #DED217",
"N. c #CFC80C",
"B. c #E3D614",
"V. c #E1D015",
"C. c #CEE70B",
"Z. c #EDE40D",
"A. c #F3EC0A",
"S. c #F6F404",
"D. c #FEFE01",
"F. c #F9F509",
"G. c #F5E618",
"H. c #EDD22C",
"J. c #E9C638",
"K. c #E5CB2A",
"L. c #D7C523",
"P. c #AC8246",
"I. c #B78A46",
"U. c #BE914A",
"Y. c #B48E58",
"T. c #B1A646",
"R. c #9C8366",
"E. c #BA956A",
"W. c #B89775",
"Q. c #B08B67",
"!. c #C49749",
"~. c #C28F45",
"^. c #CBA345",
"/. c #D5A54D",
"(. c #DDAA53",
"). c #D8A551",
"_. c #E2B648",
"`. c #E1AE55",
"'. c #E5B353",
"]. c #C39F75",
"[. c #C7A47A",
"{. c #D1B17E",
"}. c #E1C35A",
"|. c #2B4E9A",
" X c #37559A",
".X c #2F509B",
"XX c #3A5AA1",
"oX c #637098",
"OX c #748ABB",
"+X c #7082AD",
"@X c #5FA49C",
"#X c #3ABAD7",
"$X c #03B8F9",
"%X c #00ACED",
"&X c #24B9F0",
"*X c #27C7E8",
"=X c #52BBDA",
"-X c #848485",
";X c #99999A",
":X c #8F9290",
">X c #AA998B",
",X c #91A192",
"<X c #BEA798",
"1X c #B3A296",
"2X c #999DAC",
"3X c #A7A7A8",
"4X c #A9A9AA",
"5X c #BAB9BA",
"6X c #A9B8BB",
"7X c #9FA2AF",
"8X c #CAAA83",
"9X c #CBB186",
"0X c #D5B48B",
"qX c #D8B78B",
"wX c #DBBB92",
"eX c #D1AF86",
"rX c #E3C49A",
"tX c #EFCA8A",
"yX c #D9C9B1",
"uX c #F4D8AC",
"iX c #F5DBB2",
"pX c #EACDA5",
"aX c #FFE6BD",
"sX c #FFE8BE",
"dX c #DFC098",
"fX c #CDCDCD",
"gX c #C6C5C5",
"hX c #D6D6D6",
"jX c #DBDBDC",
"kX c #D0D3D1",
"lX c #E3DAD2",
"zX c #D6E9DB",
"xX c #FFEAC1",
"cX c #FFECCC",
"vX c #EDE4D8",
"bX c #FFF2DC",
"nX c #DCE2EF",
"mX c #EBEBEB",
"MX c #E5E3E3",
"NX c #FCF5E9",
"BX c #F2F3F2",
"VX c #FFFFFF",
"CX c #FFFCF5",
"ZX c #F1F4F2",
"AX c #D2D9E7",
/* pixels */
"VXVXVXVXVXVXVXVXVXVXVXVXVXVXVXVXfX.   ; l l x x x x x x l <.k .   Q VXVXVXVXVXVXVXVXVXVXVXVXVXVXVXVX",
"VXVXVXVXVXVXVXVXVXVXVXVXVXVXVXVXfX.   = l l x l l l x z l l k     Q VXVXVXVXVXVXVXVXVXVXVXVXVXVXVXVX",
"VXVXVXVXVXVXVXVXVXVXVXVXVXVXfXgX3X= O p x 1.,.,.,.,.,.,.,.,.c = O R gXgXjXVXVXVXVXVXVXVXVXVXVXVXVXVX",
"VXVXVXVXVXVXVXVXVXVXVXVXVXmX2   O z x ,.r.r.e.8.e.e.8.e.0.8.5.x <.s . . +XVXVXVXVXVXVXVXVXVXVXVXVXVX",
"VXVXVXVXVXVXVXVXVXVXVXVXVXBX2   O x l 2.e.e.e.e.e.e.e.e.e.e.5.x l s     ` CXVXVXVXVXVXVXVXVXVXVXVXVX",
"VXVXVXVXVXVXVXVXVXVXVX6X;X:Xa = ; z x ,.3.4.3.3.3.3.3.3.3.4.3.x l k : ; W ,X;XjXVXVXVXVXVXVXVXVXVXVX",
"VXVXVXVXVXVXVXVXVXVXVXR   . k x x x x x x x l l x x l x x x z x l l x <.p     4XVXVXVXVXVXVXVXVXVXVX",
"VXVXVXVXVXVXVXVXVXVXVXR   . k x x l l z x x l z l z x l x x l x l l l x ;     4XVXVXVXVXVXVXVXVXVXVX",
"VXVXVXVXVXVXVXVX4X( ( j p s 2.3.3.3.3.3.3.3.3.3.3.3.3.3.3.3.3.3.3.3.3.3.c p p ' ( _ zXVXVXVXVXVXVXVX",
"VXVXVXVXVXVXVXVX(     s l <.5.e.e.e.e.e.e.e.e.e.e.e.e.e.e.e.e.e.e.e.e.e.2.<.<.=   . fXVXVXVXVXVXVXVX",
"VXVXVXVXVXVXCXVX(     v x x 5.e.e.e.e.e.e.e.e.r.e.e.e.e.e.e.e.e.e.e.e.e.2.<.x =   . fXVXVXVXVXVXVXVX",
"VXVXVXVXVX6XR R j s s H &.p.T.T.T.p.p.j.C.C.C.C.C.j.o.p.C.C.C.C.C.b.p.p.w.5.4.c s h j R W BXVXVXVXVX",
"VXVXVXVXVX;X    p <.,.J d.P./.`./.*.*.l.D.D.D.D.D.l.=.P.A.D.D.D.D.B.=.-.w.e.r.3.l z O   2 mXVXVXVXVX",
"VXVXVXVXVX;X    p ,.c p.d.d./.(./.d.d.x.D.D.S.S.F.h.*.d.Z.F.F.D.D.B.=.=.w.0.r.1.l z O   2 mXVXVXVXVX",
"VXVXVXVXVX;X    , A N N.S.Z.f.P.h.A.A.S.D.D.n.f.f.=.=.=.d.d.l.S.D.B.=.=.P...a.q.l z O   2 mXVXVXVXVX",
"VXVXVXVXVX;X    5 S V N.D.S.f.$.g.D.D.D.D.D.z.$.=.=.=.=.=.=.f.D.D.B.=.=.O.=.=.m l l O   2 mXVXVXVXVX",
"vXvXvXmXNX;XX X 0 [ { B.D.S.h.-.h.D.D.S.Z.Z.z.h.g.g.g.g.g.g.l.B.Z.m.g.h.g.g.s.H n n $ o 4 lXNXmXvXvX",
"-.=.Y.0XwXQ.q q O.`.).G.D.D._.(._.D.D.V.O.=.n.D.D.F.D.D.D.F.Z.d.O.l.D.F.D.D.D.] A S 9 q [ eXqX[.-.P.",
"=.=.Y.0X0XQ.q q O.`.(.G.D.F._.(._.D.D.M.=.=.n.D.D.D.D.D.D.D.A.d.$.l.D.D.D.D.D.u.y q 9 9 D 8XqX[.=.=.",
" . .*.rXrXE.[ [ s.J.H.K.m.V.H.J.H.M.M.x.=.=.n.D.D.G.G.G.V.M.L.Y.Y.^.M.M.Z.D.D.s. . .;.;.Q.rXrX8X .| ",
"q q | aXsXwXO.=.n.D.D.s.*.d.A.D.Z.O.=.=.=.*.n.D.D.J.(.).-.-.-.eX0X[.....z.D.D.J.`.`.uXxXsXsXxXwXS S ",
"q q | aXxXwXO.O.m.D.D.s.*.d.A.D.Z.O.=.=.$.O.n.D.D.J.`.(.I.-.;.eXqX[.O.=.z.D.D.J.`.`.uXsXsXcXxXwXV 9 ",
"8X<X1XQ.Q.E.E.E.g.u.i.h.!.!.F.D.F.n.n.n.n.n.K.H.J.^.U.~.].!.].eX0XqX0XeX}.H.H.^.U.~.dXrXwXQ.Q.W.<X<X",
"VXVXlXV 9 #.qXwX%.t y ~.`._.F.D.D.D.D.D.D.D.H.).(.I.*.-.8X0X0X0X0XrXsXsXtX(.(.I.=.-.{.qX8XD t %.VXVX",
"VXVXlXy y #.wX0X%.q V ~.`._.F.S.D.D.D.D.D.D.H.(.(.I...-.8X0X0X0X0XrXsXxXtX/.(.I.=.-.8XqX[.D t %.VXVX",
"VXVXgX$ # T #X#X@X{  .O.I.I.J.J.J.J.J.J.J.J.^.I.I. .D } 8X0XqXuXuXpXdXrXE.{ { z.B.C.=X#X=XyXyXhXVXVX",
"VXVXgX.   T $X$X@XO.-.O.O.-.).`.(.(.(.(.(.(.U.=.=.[ V D ].0XdXiXsXuX0X0XP.V 9 N.D.S.#X$X&XZXVXVXVXVX",
"VXVXgX    T $X%X@XO.f.O.$.-.!./.).).(.).(.(.I.O...} D D 8X0XwXiXaXrX8X8X;.V V k.S.S.#X%X&XZXVXVXVXVX",
"VXVXgX.   2 ! ! i.A.A.] D D $ $ , -.P.P.P.P. .D D Q.[.[.0X0X[.| } A % @ Z ....M.D.S.f < P mXVXVXVXVX",
"VXVXgX    $ V q k.S.D.] q 9 .   $ $.-.*.=.=.[ q V E.qX0XqXqX[.y y 6   . 8 P.O.B.D.S.,   2 mXVXVXVXVX",
"VXVXfX4 4 w 7 7 i.A.A.] y S 4 3 e &.&.&.....| } } ].wXwX[.].Q.! F r 3 3 F O...n.F.Z.,   2 mXVXVXVXVX",
"VXVXVXBXBX;X  . { _.'.{ 9 D MXBXAXXXXX' S S ;.eX9XuXaXiX@.y F .X|.OXBXBX>Xq D f._.^.>   2 mXVXVXVXVX",
"VXVXVXVXVX;X    [ '.`.{ N } MXCXnXXX.XY 9 9 ;.0X0XiXxXiX} t t .X|.OXVXVX<Xq q ~.'.(.%   2 mXVXVXVXVX",
"VXVXVXVXVX5XW W ^ ..X.B 5 B lXNXhXXX.XoX>.>.8XpXrXiXxXiXW.>.:. XXXoXNXNX>X5 6 D X.X.! W ( BXVXVXVXVX",
"VXVXVXVXVXVXVXVX_         + yXsXyX X|.OXVXVXbXiXxXiXxXxXCXVXnXXX|.OXcXxX:.        . fXVXVXVXVXVXVXVX",
"VXVXVXVXVXVXVXVX(         + pXsXyX.X|.OXVXVXbXxXxXxXiXxXCXVXnXXX|.oXxXcX:.        . fXVXVXVXVXVXVXVX",
"VXVXVXVXVXVXVXVX5Xy.-X2   o W.{.8X2X2X5XbXbXcXxXxXxXxXxXbXbXvX3X2X1X{.eXF     W -X-XMXVXVXVXVXVXVXVX",
"VXVXVXVXVXVXVXVXVXVXVXR   X | ..Q.xXxXxXxXxXiXxXiXxXxXiXaXaXaXaXsXrXO.O.Z     4XVXVXVXVXVXVXVXVXVXVX",
"VXVXVXVXVXVXVXVXVXVXVXR   . X.O.Y.iXiXxXxXiXxXxXiXxXxXaXsXsXsXsXxXrXO.-.r     4XVXVXVXVXVXVXVXVXVXVX",
"VXVXVXVXVXVXVXVX;XQ Q h s s F [ } %.%.E.rXrXrXrXrXrXrXrXrXrXqX;.$.#.[ [ C s h j W W jXVXVXVXVXVXVXVX",
"VXVXVXVXVXVXVXVX(     s <.x B S y q 9 @.0X0X0X0XeX0X0X0XeX0X].A 9 V V q C <.<.=     fXVXVXVXVXVXVXVX",
"VXVXVXBXBXBXBXBX(   . h 1.m A 0 S S B &.9X9X9X9X9X9X9X9X9X9X].D A N N V C <.1.;   + gXBXBXBXBXBXVXVX",
"VXVXfX4 3 3 3 3 P Y Y 6XzXkXb i a n n m 6.6.6.6.6.6.6.6.6.6.6.n n M a - y.zXzX/ & & 3 3 3 3 3 ( VXVX",
"VXVXgX          I U U AXVXZXj u p x <.<.l l l l l l l l l l l l <.k u ; :XVXVX:.5 5 .         R VXVX",
"hXhX3Xo X . X X I U U 6XkXyXj i a x l l x l x x l l l x x x x x <.v - - R.kXhX` w w @ X X X o R hXhX",
"+ + % 9 9 9 9 9 E U U < + $ 0 V K x x l x x x x l l x x x x x x l b 9 9 5 O + L U U t y t t t 6 + + ",
"    o q q q q q E U U #   . 0 V B x l <.l l l z z l l l l l l l <.b q [ & .   L U U A y t 9 y 6     ",
"    % | @.@.@.@.E L L < O O K F G b b b b n q.9.9.9.9.9.m b b b n b J K , O O 1 L L ~ @.@.@.@.A     ",
"    4 eX0X0X0XqXZ     : u i 8.8.q.S S N S S i.D.D.D.D.S.+.N V V q J e.e.g u u O   . Q.qX0X0XwXR.    ",
"    > eXwXqXqXwX!     : u p 8.8.0.D V S S y k.D.D.D.D.D.+.q V q q G 8.e.g u u O     W.wXqXwXwXR.    ",
") ) _ ~ ~ ~ ~ ~ ` ) _ 3 = : 5.8.r.G G G C C t.v.v.v.v.v.H C C G G G e.e.g = = W ) ) / ^ ~ ~ ^ / ) ) ",
"VXVXgX.         :XVXVXR   . 7.e.e.e.e.4.l l x z l z z z l <.,.8.e.e.e.8.f     4XVXBX3         R VXVX",
"VXVXgX          :XVXVXR   O 7.e.e.e.e.4.l x x x z l l x x l <.8.e.e.e.e.f     4XVXBX3         R CXVX",
"VXVXmX3X3X3X3X3X) W W @     : - a 2.1.2.4.4.4.4.3.3.4.4.4.4.3.g g M - - O     4XVXVX5X3X3X3X3X5XVXVX",
"VXVXVXVXVXVXVXVX(               O z l ,.e.e.e.e.8.e.e.e.e.e.5.u u =           4XVXVXVXVXVXVXVXVXVXVX",
"VXVXVXVXVXVXVXVX_             . O z x 2.0.e.5.8.8.5.5.e.5.0.7.i u :     . . . 4XVXVXVXVXVXVXVXVXVXVX",
"VXVXVXVXVXVXVXVX(     5 7 7 0 7 7 e 4 e Z e > * * * * * * * : 7 B 5     ( fXfXmXVXVXVXVXVXVXVXVXVXVX",
"VXVXVXVXVXVXVXVX(     8 D q D q t 6 6 w 5 5 %               X 9 V 6     ) VXVXVXVXVXVXVXVXVXVXVXVXVX",
"VXVXVXVXVXVXVXVX-X2 2 r 0 0 q q t w w 5 5 w 2 2 2 2 2 2 2 2 3 0 0 6 2 2 :XVXVXVXVXVXVXVXVXVXVXVXVXVX",
"VXVXVXVXVXVXVXVXBXmXmXr   X 9 q S y y 6 .   :.mXmXmXmXmXmXmXgX+ . E mXmXBXVXVXVXVXVXVXVXVXVXVXVXVXVX",
"VXVXVXVXVXVXVXVXVXVXVXR   . 9 q S S D 5     -XVXVXVXVXVXVXVXhX.   Q VXVXVXVXVXVXVXVXVXVXVXVXVXVXVXVX",
"VXVXVXVXVXVXVXVXVXVXCX_ R R 7 6 6 7 6 r R R 3XVXVXVXVXVXVXVXjXQ R ) VXVXVXVXVXVXVXVXVXVXVXVXVXVXVXVX",
"VXVXVXVXVXVXVXVXVXVXVXVXVXMX2         W VXVXVXVXVXVXVXVXVXVXVXVXVXVXVXVXVXVXVXVXVXVXVXVXVXVXVXVXVXVX",
"VXVXVXVXVXVXVXVXVXVXVXVXVXmX2         W VXVXVXVXVXVXVXVXVXVXVXVXVXVXVXVXVXVXVXVXVXVXVXVXVXVXVXVXVXVX"
};
