/* XPM */
static char *left_3_[] = {
/* columns rows colors chars-per-pixel */
"61 64 239 2 ",
"   c #000001",
".  c #020B03",
"X  c #0B0807",
"o  c #150C07",
"O  c #140B09",
"+  c #190E0A",
"@  c #160C07",
"#  c #041305",
"$  c #041B09",
"%  c #061C06",
"&  c #1E110D",
"*  c #13120D",
"=  c #151515",
"-  c #1C1A19",
";  c #0E0F11",
":  c #24140C",
">  c #26180D",
",  c #341D0E",
"<  c #261A15",
"1  c #381F12",
"2  c #0A250A",
"3  c #0B3E0B",
"4  c #093709",
"5  c #0E3511",
"6  c #392613",
"7  c #28221B",
"8  c #363536",
"9  c #2F3128",
"0  c #45261D",
"q  c #542F19",
"w  c #552F17",
"e  c #4F3219",
"r  c #6C3D1E",
"t  c #63391B",
"y  c #713E1E",
"u  c #4A2920",
"i  c #452F21",
"p  c #522D20",
"a  c #4E382C",
"s  c #6A3B20",
"d  c #733F20",
"f  c #0D420D",
"g  c #0B480F",
"h  c #11490F",
"j  c #15410F",
"k  c #0D4C12",
"l  c #0A4416",
"z  c #154A14",
"x  c #0D561A",
"c  c #195816",
"v  c #0E631D",
"b  c #1D6217",
"n  c #246D19",
"m  c #206717",
"M  c #29761C",
"N  c #317B1F",
"B  c #315B28",
"V  c #0E6D24",
"C  c #0F7225",
"Z  c #0E7B29",
"A  c #0A7826",
"S  c #107425",
"D  c #107B29",
"F  c #147A27",
"G  c #1F692B",
"H  c #3C6129",
"J  c #2D7029",
"K  c #1C501C",
"L  c #73411F",
"P  c #67411E",
"I  c #706D09",
"U  c #435D24",
"Y  c #4C4439",
"T  c #58482C",
"R  c #744120",
"E  c #7B4A27",
"W  c #645F23",
"Q  c #6E5232",
"!  c #5E5C22",
"~  c #0C627F",
"^  c #454546",
"/  c #484849",
"(  c #595551",
")  c #6A5C48",
"_  c #516D51",
"`  c #726854",
"'  c #686868",
"]  c #797879",
"[  c #69736C",
"{  c #8C5A2D",
"}  c #875934",
"|  c #915F2C",
" . c #986833",
".. c #936C35",
"X. c #A2793D",
"o. c #A37438",
"O. c #966F49",
"+. c #A37A41",
"@. c #A47B43",
"#. c #A27854",
"$. c #8F7C70",
"%. c #2E811E",
"&. c #1A8429",
"*. c #258C29",
"=. c #26872A",
"-. c #338A22",
";. c #3A9525",
":. c #309629",
">. c #399826",
",. c #2C9329",
"<. c #3EA329",
"1. c #3EA325",
"2. c #74B51A",
"3. c #53902F",
"4. c #41A429",
"5. c #45A929",
"6. c #50AC26",
"7. c #68AC2D",
"8. c #68972A",
"9. c #3D8E44",
"0. c #738757",
"q. c #749374",
"w. c #73BC61",
"e. c #5CA461",
"r. c #B39716",
"t. c #AB9B12",
"y. c #85BC15",
"u. c #B8AA08",
"i. c #9A883C",
"p. c #AB863B",
"a. c #B99933",
"s. c #B48B3B",
"d. c #97A939",
"f. c #BDA22E",
"g. c #CDB517",
"h. c #C39E3C",
"j. c #C3A72C",
"k. c #D1B42C",
"l. c #92C917",
"z. c #B6D90E",
"x. c #DDD308",
"c. c #D8C71A",
"v. c #D0CA0A",
"b. c #E1D510",
"n. c #D3EA0A",
"m. c #EBE20E",
"M. c #F2EC09",
"N. c #FFFF00",
"B. c #FAF608",
"V. c #F1EE0F",
"C. c #D6C127",
"Z. c #EDD22D",
"A. c #EBCE30",
"S. c #F1E33D",
"D. c #AC8347",
"F. c #B68A46",
"G. c #B98946",
"H. c #B78E52",
"J. c #9A8D74",
"K. c #A48B6B",
"L. c #BB9B73",
"P. c #AA926B",
"I. c #BDA177",
"U. c #9F984D",
"Y. c #CD9C4C",
"T. c #C5964A",
"R. c #CF9E50",
"E. c #D1A14D",
"W. c #DEAB53",
"Q. c #D4A950",
"!. c #D7A84B",
"~. c #E3B749",
"^. c #E1AD53",
"/. c #E4B054",
"(. c #E6AE4F",
"). c #C29E6C",
"_. c #C19D76",
"`. c #C5A57C",
"'. c #C5A366",
"]. c #FFFF58",
"[. c #D6D658",
"{. c #2D4F9A",
"}. c #2E509C",
"|. c #305098",
" X c #00678D",
".X c #5A6A97",
"XX c #7F7F80",
"oX c #00BCFF",
"OX c #14B3E8",
"+X c #5BC7E3",
"@X c #898989",
"#X c #959495",
"$X c #9F9997",
"%X c #8E9188",
"&X c #A89689",
"*X c #94B293",
"=X c #A9A8A8",
"-X c #B3B3B4",
";X c #BBBBBB",
":X c #A1B6A1",
">X c #9F9FA0",
",X c #CBAC86",
"<X c #CEB38A",
"1X c #D5B48C",
"2X c #D8B78D",
"3X c #DBB98E",
"4X c #D6BB97",
"5X c #CFB592",
"6X c #C8BCB8",
"7X c #9EC2A5",
"8X c #E2C49A",
"9X c #D9C9B1",
"0X c #EED2AA",
"qX c #ECD0A7",
"wX c #F3D8AE",
"eX c #F7DDB4",
"rX c #ECD1A9",
"tX c #FEE6BD",
"yX c #FBE4BB",
"uX c #FEE8A7",
"iX c #D8C797",
"pX c #9EAED1",
"aX c #9BA9CA",
"sX c #C5C5C5",
"dX c #CCCCCC",
"fX c #CED8CE",
"gX c #D8D9D8",
"hX c #D7CDC7",
"jX c #E4D8C9",
"kX c #D8E8D5",
"lX c #FFEBC3",
"zX c #F9EBD5",
"xX c #E4E4E4",
"cX c #E9EAE9",
"vX c #FCF5EA",
"bX c #F5F5F5",
"nX c #FFFFFF",
"mX c #F7F7F4",
"MX c #F1EAE1",
/* pixels */
"nXnXnXnXnXnXnXnXnXnXnXnXnXnXnXnXL.X.+.} L L W <.<.>.h f f -.5.4.4.4.4.4.4.>.4.4.4.4.kXnXnXnXnXnXnXnXnXnXnXnXnXnXnXnXnXnXnX",
"nXnXnXnXnXnXnXnXnXnXnXnXnXnXnXnXL.+.+.{ L R W <.4.>.h f h -.4.4.4.4.4.4.4.4.4.4.4.4.kXnXnXnXnXnXnXnXnXnXnXnXnXnXnXnXnXnXnX",
"nXnXnXnXnXnXnXnXnXnXnXnXnXnXnXnXL.+.p.| L d W <.4.;.h f h -.4.4.4.<.4.4.4.4.4.4.1.4.kXnXnXmXnXnXnXbXnXnXnXnXnXnXnXnXnXnXnX",
"nXnXnXnXnXnXnXnXnXnXnXnXvX`.L.L.R.Y.Y.C.x.x.x.n.n.z.4.-.-.m c c -.4.4.4.4.4.4.4.1.1.w.w.w.w.w.w.e._ _ 0.bXnXnXnXnXnXnXnXnX",
"nXnXnXnXnXnXnXnXnXnXnXnXcXD.@.@.E.^.W.Z.N.N.N.N.N.M.6.5.<.c 3 3 M 5.4.4.4.4.4.4.4.4.1.1.1.1.1.4.%.f 4 B bXmXnXnXnXnXnXnXnX",
"nXnXnXnXnXnXnXnXnXnXnXnXvXD.+.@.R.W.W.Z.N.N.N.N.N.M.5.<.1.c f 5 M 5.4.4.4.4.4.4.4.4.4.4.4.4.4.4.%.f f B bXnXnXmXnXnXnXnXnX",
"nXnXnXnXnXnXnXnXnXMX5X5X5XC.g.C.h.T.H.j.k.g.C.Z.Z.A.d.d.d.-.M M M n n %.4.4.4.4.4.4.1.4.4.4.4.4.*.v v G q.q.%XcXnXnXnXnXnX",
"nXnXnXnXnXnXnXnXnXjXX.X.p.B.N.N.a.+.+.+.@.@.F.W.Q.W.^.^.W.7.4.4.n 3 3 c 4.4.4.4.4.4.4.4.4.4.4.4.:.A F C g f g fXnXnXnXnXnX",
"nXnXnXnXnXnXnXnXnXjX+.+.p.B.N.N.f.+.+.+.+.+.F./.W.W.W.Q.W.7.<.5.n f f b 4.4.4.4.4.4.4.4.4.4.4.4.:.D D S f f z fXnXnXnXnXnX",
"nXnXnXnXnXnXMX9XjXiXf.f.j.b.b.b.h.F.D.G.F.F.G.Y.T.R.A.A.~.7.<.4.n f 3 b 4.4.4.4.4.4.4.4.4.4.4.4.:.D D S f 3 z fXnXnXnXnXnX",
"nXnXnXnXnXnX6Xo.X.f.N.N.M.p.@.@.E.W.W.^.W.^.Y.+.@.D.B.N.N.2.<.4.n f 3 m 4.4.4.4.4.4.4.4.4.4.4.4.:.D D S f f h fXnXnXnXnXnX",
"nXnXnXnXnXnX5X+.+.f.N.N.M.p.+.@.E.^.W.^.W.^.Y.+.+.s.B.N.B.2.<.4.n f f c 4.4.4.4.4.4.4.4.4.4.4.4.:.Z D S k f k fXnXnXnXnXnX",
"nXnXnXnXnXnX4X+.@.j.N.N.B.s.@.D.T.Y.Y.E.!.Q.Y.s.p.a.m.M.M.2.<.4.n f 3 m 4.4.4.;.;.;.;.>.;.>.<.4.:.D D S k h z ;XkXxXbXnXnX",
"nXnXnXnXnXnX4X+.@.a.N.N.B.~.W.W.| E E | D.+.f.B.N.M.p.p.D.6.<.<.n 3 f c 4.4.>.h h f h h h %.5.4.:.D D D D S Z c z z :XnXnX",
"nXnXnXnXnXnX4XX.+.a.N.N.B.~.W.W.{ s R } +.+.f.N.N.M.p.+.+.3.<.<.n 3 3 m 4.4.;.h f f f f f N 5.4.:.D D D D D Z k 5 f :XnXnX",
"nXnXnXnXnXnX4XX.+.a.N.N.B.!.W.!. .R R | @.+.f.N.N.M.p.+.i.8.5.5.M f f m 4.4.;.h f f h f f M <.4.:.Z D D D Z Z k f f *XmXmX",
"nXnXnXnXnXnX4X+.+.F.~.~.k. .{ { H._._._.,X`.).h.a.s.X.X.X.v.n.n.2.-.;.N c c c -.-.;.;.-.;.=.F &.F D D D D D D k f f 9 8 9 ",
"nXnXnXnXnXnX4XX.+.G.W.W.E.E y y L.2X1X1X2X2X_.o.+.X.X.D.D.m.N.N.l.1.4.-.f f z 1.4.4.4.4.4.*.D D D D D D D D D k f f %     ",
"nXnXnXnXnXnX4XO.X.G.^.^.E.{ y y L.2X1X1X1X2X_.X.X.X.+.+.D.m.N.N.l.5.5.%.f f z 4.4.5.4.4.4.*.Z D D D D D D D D k 5 h %     ",
"nXnXnXnXnXnXMX9X9X<X . .| 1 > , K.2X1X8XqX0X8X).).L.D.X.+.m.N.N.l.*.*.F v v v m n m =.*.*.&.Z D D D D D D D D k f f %     ",
"nXnXnXnXnXnXnXnXnXhXy y t X     K.2X1XrXtXtXwX2X3X<XD.+.+.m.N.N.2.A F Z &.A A g f 3 V Z D D D D D D D D D D D k f f %     ",
"nXnXnXnXnXnXnXnXnX9Xy y t X     K.3X2X0XlXlXwX1X3X`.+.+.+.m.N.N.2.A A Z A &.C f f f C D D D D D D D D D D D D k f f %     ",
"nXnXnXnXnXnXnXnXnXgXK.K.$.o     } K.H.K.J.J.&X8X8X8Xk.j.j.c.c.c.d.3.3.3.v v v x x x v v V V D D D D D D D D Z k f f %     ",
"nXnXnXnXnXnXnXnXnXnXnXnXxX*     p d L , . . Y tXlXuXB.N.N.a.+.+.T.^.^.i.f f h F D D k f f v D D D D D D D D D k f f $     ",
"nXnXnXnXnXnXnXnXnXnXnXnXxX=     w d E 1     Y lXtXuXN.N.N.a.@.+.T.(.^.i.3 3 f C A F g f 3 V Z Z D D D D D D D k f f %     ",
"nXnXnXnXnXnXnXnXnXbXdXdX;X8 7 7 a Q s a 9 8 ` lXlXwXV.m.m.a.D.D.T.Y.T.+.B B H 9.9.9.J H H G C C V S V S D D Z f 4 4 9 8 9 ",
"nXnXnXnXnXnXnXnXnX;XX X - L.<X,X.X}.}.pXbXmXvXtXtXwXD.@.p.Y.W.W. .d d  .<X,X1XyXyXyXeXyXeX0.3 f f f f k D D S $     #XmXbX",
"nXnXnXnXnXnXnXnXnX-X    + ,X1X<X.X}.}.pXnXnXvXtXlXeXD.@.+.E.^.W.o.d y O.1X1X2XyXtXyXyXyXlX0.3 f f f f f D D Z $     #XnXnX",
"nXnXnXnXnXnXnXnXnX-X    = `.1X1X.X}.{.pXnXnXvXtXtXwX@.+.+.E.^./.o.d s ..2X1X3XyXtXtXyXyXyX0.4 f f f f k D D Z $     #XnXnX",
"nXnXnXnXnXnXnXnXnX-X    * ,X1X<X.X}.{.pXnXnXvXtXtX0X} E L c.B.B.r.d y #.yXeXyXtXtXtX'.H.D.T . . $ h 3 k S D D #     #XnXnX",
"nXnXnXnXnXnXnXnXnX-X    * `.1X1X.X}.}.pXnXnXvXtXtX0XE d L x.N.N.r.r r #.tXtXyXtXtXtXH.X.+.i     # f f h D D D $     #XnXnX",
"nXnXnXnXnXnXnXnXnX-X    * ,X1X1X.X}.{.pXnXnXvXtXlX0XE R L m.N.N.r.r L #.tXtXtXtXtXtXP.X.D.e     # f f k D D C $     #XnXnX",
"nXnXnXnXnXnXnXnXnXxX=X=X$XY Y a $.&X#X9XzXzXlXtXyXqXE y d x.N.N.k.s.h.J.+X+X+X'.).).T 6 6 *     . # % % k x x #     #XnXnX",
"nXnXnXnXnXnXnXnXnXnXnXnXcX=     K.3X1XqXtXtXlXtXtXqX} y d x.N.N.A.(.(.*XoXoXOX#.X.o.:                 . 3 f f .     #XnXnX",
"nXnXnXnXnXnXnXnXnXnXnXnXxX=     K.2X1XqXtXtXtXtXtX0X} y y x.N.N.A./.(.*XoXoXOXi.@.@.:         .         f f f       #XnXnX",
"nXnXnXnXnXnXnXnXnXnXnXnXxX=     Y ` ` I.0X0XqXqXqX8X#.#.#.r.u.g.g.Z.Z.U. X X XY T T T ) Q W I I W ] [ ' 2 2 2 ' ] [ sXnXnX",
"nXnXnXnXnXnXnXnXnXnXnXnXxX=           ) 3X1X1X1X1X1X1X2X1X} d s u.N.N.u.X           P.3X1XS.N.N.].nXnXgX;   X dXnXnXnXnXnX",
"nXnXnXnXnXnXnXnXnXnXnXnXcX=         X ) 3X2X2X2X1X2X3X1X1X} d d u.N.N.u.            P.4X2XS.N.N.].nXnXgXX     dXnXnXnXnXnX",
"nXnXnXnXnXnXnXnXnXcXsX;X=X7 + & 8 8 a ` K.K.K.P.P.P.P.P.P.Q w w r.V.V.t.      # . # O.K.$.f.g.z.[.nXnXxX/ 8 ^ gXnXnXnXnXnX",
"nXnXnXnXnXnXnXnXnX-X  X X r L R hXnXnX]     $ k l k f f f #     Q /./...      3 l 3 #     X .   ( nXnXnXnXnXnXnXnXnXnXnXnX",
"nXnXnXnXnXnXnXnXnX-X    X r L R hXnXnX]     # f f f f f f #     } /./.X.    . 3 f f .           ( nXnXnXnXnXnXnXnXnXnXnXnX",
"nXnXnXnXnXnXnXnXnX;X= = - t r r 6XcXcX[ . . $ f h h f g f #     W ^.Q...      j j j #     X = = ' nXnXnXnXnXnXnXnXnXnXnXnX",
"nXnXnXnXnXnXnXnXnXbXxXxXdX- X X = - - K C V C Z C S A F C $     l =.*.v     X t P P @     @XxXxXcXnXnXnXnXnXnXnXnXnXnXnXnX",
"nXnXnXnXnXnXnXnXnXnXnXnXxX=           l D D D D D D Z D Z $     l Z Z x     o r L L +     #XnXnXnXnXnXnXnXnXnXnXnXnXnXnXnX",
"nXnXnXnXnXnXnXnXnXnXnXnXxX=       .   5 D Z Z Z D D D D A 2     l D A x     X r R y +     #XnXnXnXnXnXnXnXnXnXnXnXnXnXnXnX",
"nXnXnXnXnXnXnXnXnXnXnXnXxX=     c N J 2.z.n.y.Z D D D D D i w w B D A e.;X;X=X< : & 2 4 4 9 ^ ^ ^ ^ ^ ' bXnXnXnXnXnXnXnXnX",
"nXnXnXnXnXnXnXnXnXnXnXnXxX=     N 5.<.z.N.N.z.D D D D D D ! R { H Z A e.nXnXxX;     4 f f %           7 bXnXnXnXnXnXnXnXnX",
"nXnXnXnXnXnXnXnXnXnXnXnXcX-     N 5.>.z.N.N.z.Z D D D A F T R R H A A e.nXnXgX;     4 f f 2           7 bXnXnXnXnXnXnXnXnX",
"nXnXnX$X] ] ] ] ] XX] ] ] X     N 4.<.7.y.l.8.U U U U U U 6 6 1 _ *X*X$X$X&X$.7 : < % 2 2 .     O 6 1 u ] ] @XxXnXnXnXnXnX",
"nXnXnX^     X                   N 4.4.*.A A J R y L { y d +     #XnXnX6X0 u u u u 0 O           < R E t       dXnXnXnXnXnX",
"nXnXnX^                         -.4.5.*.A A J d y y r y d +     #XnXnX6X0 0 u u u 0 X           > R y t     . dXnXnXnXnXnX",
"-X-X-Xa : : : : : & o + +       J :.:.*.&.&.N W W W W W W 5 2 2 [ -X-X@Xu 0 u p t p Y Y Y <     > R L t : : > #X-X-XgXnXnX",
"      q R R R R s s u u 6 X     x Z Z ,.4.4.4.4.4.4.4.4.4.&.Z D 4     * u u p d d R 8XlXyX`     > y R d R R L @     #XnXnX",
"      q R R R R d s u u u       v Z Z ,.4.4.4.<.4.4.4.4.4.&.Z Z 4     * u u p s d R 8XlXlX`     , L R d R R R o     #XnXnX",
"      q R R R R d s u u 0 X X X x V V F ;.;.:.>.4.>.4.4.4.*.D &.5 # # = u 6 u } } Q 5X9X9X)     : s d d R R L o     #XnXnX",
"      w R R R R d s u u u u 6 u O . X . X . 5 &.V M <.4.4.<.<.<.*.C S k     < rXeXwXa O ; X     + q u p s R L O     #XnXnX",
"      q R R R d R s u u u u u u O           2 Z F F 4.4.4.4.4.4.*.Z Z x     7 wXyXyX9           + u u q d R y @     #XnXnX",
"X   X q R d R d s s u u u u u u O         X 2 Z D F >.4.4.4.4.4.*.Z Z x     - rXyXeXi X X       * u u p s d d @     #XnXnX",
"sXsXsXY + + 1 p p u u u u u u u O     ' sXsX%X$ $ $ 2 2 % 2 2 2 2 $ $ #     ; 9 9 8 =XsXsX(     + u u u p p p O     #XnXnX",
"nXnXnX^     < u u u u u u u u u O     @XnXnX-X            X                         dXnXnX[     + u u u u u 0 X     #XnXnX",
"nXnXnX^     : u u u p u u u u u X     @XnXnX-X                                      sXnXnX'     + u u u u u u X     #XnXnX",
"nXnXmX-X#X#X( + & & & & = & & : ] #X#XdXnXnXgX#X#X#X#X#X#X#X#X#X#X#X#X#X#X#X#X#X#X#XcXnXnXsX#X#X' & & & & & < ] #X#XgXnXnX",
"nXnXnXnXnXnXXX                  sXnXnXnXnXnXnXnXnXnXnXnXnXnXnXnXnXnXnXnXnXnXnXnXnXnXnXnXnXnXnXnX-X          X dXnXnXnXnXnX",
"nXnXnXnXnXnXXX                  ;XnXnXnXnXnXnXnXnXnXnXnXnXnXnXnXnXnXnXnXnXnXnXnXnXnXnXnXnXnXnXnX=X          . dXnXnXnXnXnX"
};
