/* XPM */
static char *result[] = {
/* columns rows colors chars-per-pixel */
"94 99 14 1 ",
"  c #000001",
". c #4A2920",
"X c #0D420D",
"o c #107B29",
"O c #734120",
"+ c #A47B41",
"@ c #41A429",
"# c yellow",
"$ c #DEAC52",
"% c #31529C",
"& c #00BAFF",
"* c #D5B48B",
"= c #FFE6BD",
"- c white",
/* pixels */
"-------------------------+++++OOOOO@@@@@XXXXX@@@@@@@@@@@@@@@@@@@@-----------------------------",
"-------------------------+++++OOOOO@@@@@XXXXX@@@@@@@@@@@@@@@@@@@@-----------------------------",
"-------------------------+++++OOOOO@@@@@XXXXX@@@@@@@@@@@@@@@@@@@@-----------------------------",
"-------------------------+++++OOOOO@@@@@XXXXX@@@@@@@@@@@@@@@@@@@@-----------------------------",
"-------------------------+++++OOOOO@@@@@XXXXX@@@@@@@@@@@@@@@@@@@@-----------------------------",
"--------------------+++++$$$$$##########@@@@@XXXXX@@@@@@@@@@@@@@@@@@@@@@@@@XXXXX--------------",
"--------------------+++++$$$$$##########@@@@@XXXXX@@@@@@@@@@@@@@@@@@@@@@@@@XXXXX--------------",
"--------------------+++++$$$$$##########@@@@@XXXXX@@@@@@@@@@@@@@@@@@@@@@@@@XXXXX--------------",
"--------------------+++++$$$$$##########@@@@@XXXXX@@@@@@@@@@@@@@@@@@@@@@@@@XXXXX--------------",
"--------------------+++++$$$$$##########@@@@@XXXXX@@@@@@@@@@@@@@@@@@@@@@@@@XXXXX--------------",
"---------------+++++#####++++++++++$$$$$$$$$$@@@@@XXXXX@@@@@@@@@@@@@@@@@@@@oooooXXXXX---------",
"---------------+++++#####++++++++++$$$$$$$$$$@@@@@XXXXX@@@@@@@@@@@@@@@@@@@@oooooXXXXX---------",
"---------------+++++#####++++++++++$$$$$$$$$$@@@@@XXXXX@@@@@@@@@@@@@@@@@@@@oooooXXXXX---------",
"---------------+++++#####++++++++++$$$$$$$$$$@@@@@XXXXX@@@@@@@@@@@@@@@@@@@@oooooXXXXX---------",
"---------------+++++#####++++++++++$$$$$$$$$$@@@@@XXXXX@@@@@@@@@@@@@@@@@@@@oooooXXXXX---------",
"----------+++++#####+++++$$$$$$$$$$+++++#####@@@@@XXXXX@@@@@@@@@@@@@@@@@@@@oooooXXXXX---------",
"----------+++++#####+++++$$$$$$$$$$+++++#####@@@@@XXXXX@@@@@@@@@@@@@@@@@@@@oooooXXXXX---------",
"----------+++++#####+++++$$$$$$$$$$+++++#####@@@@@XXXXX@@@@@@@@@@@@@@@@@@@@oooooXXXXX---------",
"----------+++++#####+++++$$$$$$$$$$+++++#####@@@@@XXXXX@@@@@@@@@@@@@@@@@@@@oooooXXXXX---------",
"----------+++++#####+++++$$$$$$$$$$+++++#####@@@@@XXXXX@@@@@@@@@@@@@@@@@@@@oooooXXXXX---------",
"----------+++++#####$$$$$OOOOO+++++#####+++++@@@@@XXXXX@@@@@XXXXXXXXXX@@@@@ooooooooooXXXXX----",
"----------+++++#####$$$$$OOOOO+++++#####+++++@@@@@XXXXX@@@@@XXXXXXXXXX@@@@@ooooooooooXXXXX----",
"----------+++++#####$$$$$OOOOO+++++#####+++++@@@@@XXXXX@@@@@XXXXXXXXXX@@@@@ooooooooooXXXXX----",
"----------+++++#####$$$$$OOOOO+++++#####+++++@@@@@XXXXX@@@@@XXXXXXXXXX@@@@@ooooooooooXXXXX----",
"----------+++++#####$$$$$OOOOO+++++#####+++++@@@@@XXXXX@@@@@XXXXXXXXXX@@@@@ooooooooooXXXXX----",
"----------+++++$$$$$OOOOO**********++++++++++#####@@@@@XXXXX@@@@@@@@@@oooooooooooooooXXXXX    ",
"----------+++++$$$$$OOOOO**********++++++++++#####@@@@@XXXXX@@@@@@@@@@oooooooooooooooXXXXX    ",
"----------+++++$$$$$OOOOO**********++++++++++#####@@@@@XXXXX@@@@@@@@@@oooooooooooooooXXXXX    ",
"----------+++++$$$$$OOOOO**********++++++++++#####@@@@@XXXXX@@@@@@@@@@oooooooooooooooXXXXX    ",
"----------+++++$$$$$OOOOO**********++++++++++#####@@@@@XXXXX@@@@@@@@@@oooooooooooooooXXXXX    ",
"---------------OOOOO     *****=====*****+++++#####ooooooooooXXXXXooooooooooooooooooooXXXXX    ",
"---------------OOOOO     *****=====*****+++++#####ooooooooooXXXXXooooooooooooooooooooXXXXX    ",
"---------------OOOOO     *****=====*****+++++#####ooooooooooXXXXXooooooooooooooooooooXXXXX    ",
"---------------OOOOO     *****=====*****+++++#####ooooooooooXXXXXooooooooooooooooooooXXXXX    ",
"---------------OOOOO     *****=====*****+++++#####ooooooooooXXXXXooooooooooooooooooooXXXXX    ",
"--------------------     OOOOO     =====#####+++++$$$$$XXXXXoooooXXXXXoooooooooooooooXXXXX    ",
"--------------------     OOOOO     =====#####+++++$$$$$XXXXXoooooXXXXXoooooooooooooooXXXXX    ",
"--------------------     OOOOO     =====#####+++++$$$$$XXXXXoooooXXXXXoooooooooooooooXXXXX    ",
"--------------------     OOOOO     =====#####+++++$$$$$XXXXXoooooXXXXXoooooooooooooooXXXXX    ",
"--------------------     OOOOO     =====#####+++++$$$$$XXXXXoooooXXXXXoooooooooooooooXXXXX    ",
"---------------     *****%%%%%-----=====+++++$$$$$OOOOO*****==========XXXXXXXXXXooooo     ----",
"---------------     *****%%%%%-----=====+++++$$$$$OOOOO*****==========XXXXXXXXXXooooo     ----",
"---------------     *****%%%%%-----=====+++++$$$$$OOOOO*****==========XXXXXXXXXXooooo     ----",
"---------------     *****%%%%%-----=====+++++$$$$$OOOOO*****==========XXXXXXXXXXooooo     ----",
"---------------     *****%%%%%-----=====+++++$$$$$OOOOO*****==========XXXXXXXXXXooooo     ----",
"---------------     *****%%%%%-----=====OOOOO#####OOOOO==========+++++     XXXXXooooo     ----",
"---------------     *****%%%%%-----=====OOOOO#####OOOOO==========+++++     XXXXXooooo     ----",
"---------------     *****%%%%%-----=====OOOOO#####OOOOO==========+++++     XXXXXooooo     ----",
"---------------     *****%%%%%-----=====OOOOO#####OOOOO==========+++++     XXXXXooooo     ----",
"---------------     *****%%%%%-----=====OOOOO#####OOOOO==========+++++     XXXXXooooo     ----",
"--------------------     *****==========OOOOO#####$$$$$&&&&&+++++               XXXXX     ----",
"--------------------     *****==========OOOOO#####$$$$$&&&&&+++++               XXXXX     ----",
"--------------------     *****==========OOOOO#####$$$$$&&&&&+++++               XXXXX     ----",
"--------------------     *****==========OOOOO#####$$$$$&&&&&+++++               XXXXX     ----",
"--------------------     *****==========OOOOO#####$$$$$&&&&&+++++               XXXXX     ----",
"--------------------          ***************OOOOO#####          *****#####-----     ---------",
"--------------------          ***************OOOOO#####          *****#####-----     ---------",
"--------------------          ***************OOOOO#####          *****#####-----     ---------",
"--------------------          ***************OOOOO#####          *****#####-----     ---------",
"--------------------          ***************OOOOO#####          *****#####-----     ---------",
"---------------     OOOOO-----     XXXXXXXXXX     $$$$$     XXXXX          -------------------",
"---------------     OOOOO-----     XXXXXXXXXX     $$$$$     XXXXX          -------------------",
"---------------     OOOOO-----     XXXXXXXXXX     $$$$$     XXXXX          -------------------",
"---------------     OOOOO-----     XXXXXXXXXX     $$$$$     XXXXX          -------------------",
"---------------     OOOOO-----     XXXXXXXXXX     $$$$$     XXXXX          -------------------",
"--------------------          ooooooooooooooo     ooooo     OOOOO     ------------------------",
"--------------------          ooooooooooooooo     ooooo     OOOOO     ------------------------",
"--------------------          ooooooooooooooo     ooooo     OOOOO     ------------------------",
"--------------------          ooooooooooooooo     ooooo     OOOOO     ------------------------",
"--------------------          ooooooooooooooo     ooooo     OOOOO     ------------------------",
"--------------------     @@@@@#####ooooooooooOOOOOooooo-----     XXXXX          --------------",
"--------------------     @@@@@#####ooooooooooOOOOOooooo-----     XXXXX          --------------",
"--------------------     @@@@@#####ooooooooooOOOOOooooo-----     XXXXX          --------------",
"--------------------     @@@@@#####ooooooooooOOOOOooooo-----     XXXXX          --------------",
"--------------------     @@@@@#####ooooooooooOOOOOooooo-----     XXXXX          --------------",
"-----                    @@@@@oooooOOOOOOOOOO     -----..........          OOOOO     ---------",
"-----                    @@@@@oooooOOOOOOOOOO     -----..........          OOOOO     ---------",
"-----                    @@@@@oooooOOOOOOOOOO     -----..........          OOOOO     ---------",
"-----                    @@@@@oooooOOOOOOOOOO     -----..........          OOOOO     ---------",
"-----                    @@@@@oooooOOOOOOOOOO     -----..........          OOOOO     ---------",
"     OOOOOOOOOO.....     ooooo@@@@@@@@@@@@@@@ooooo     .....OOOOO=====     OOOOOOOOOO     ----",
"     OOOOOOOOOO.....     ooooo@@@@@@@@@@@@@@@ooooo     .....OOOOO=====     OOOOOOOOOO     ----",
"     OOOOOOOOOO.....     ooooo@@@@@@@@@@@@@@@ooooo     .....OOOOO=====     OOOOOOOOOO     ----",
"     OOOOOOOOOO.....     ooooo@@@@@@@@@@@@@@@ooooo     .....OOOOO=====     OOOOOOOOOO     ----",
"     OOOOOOOOOO.....     ooooo@@@@@@@@@@@@@@@ooooo     .....OOOOO=====     OOOOOOOOOO     ----",
"     OOOOOOOOOO..........          ooooo@@@@@@@@@@ooooo     =====          .....OOOOO     ----",
"     OOOOOOOOOO..........          ooooo@@@@@@@@@@ooooo     =====          .....OOOOO     ----",
"     OOOOOOOOOO..........          ooooo@@@@@@@@@@ooooo     =====          .....OOOOO     ----",
"     OOOOOOOOOO..........          ooooo@@@@@@@@@@ooooo     =====          .....OOOOO     ----",
"     OOOOOOOOOO..........          ooooo@@@@@@@@@@ooooo     =====          .....OOOOO     ----",
"-----     ...............     -----                              -----     ..........     ----",
"-----     ...............     -----                              -----     ..........     ----",
"-----     ...............     -----                              -----     ..........     ----",
"-----     ...............     -----                              -----     ..........     ----",
"-----     ...............     -----                              -----     ..........     ----",
"----------               --------------------------------------------------          ---------",
"----------               --------------------------------------------------          ---------",
"----------               --------------------------------------------------          ---------",
"----------               --------------------------------------------------          ---------"
};
