/* XPM */
static char *left_1_[] = {
/* columns rows colors chars-per-pixel */
"49 64 228 2 ",
"   c #010101",
".  c #070708",
"X  c #080C05",
"o  c #130B09",
"O  c #170D08",
"+  c #031306",
"@  c #061B08",
"#  c #1D120B",
"$  c #0F0F10",
"%  c #1A1B1B",
"&  c #25150C",
"*  c #2C1913",
"=  c #361E14",
"-  c #07260A",
";  c #15290C",
":  c #0A3C0B",
">  c #0B340B",
",  c #083A13",
"<  c #163113",
"1  c #2E251B",
"2  c #382617",
"3  c #2E371A",
"4  c #282828",
"5  c #272827",
"6  c #3B3227",
"7  c #353435",
"8  c #342E28",
"9  c #002A3A",
"0  c #4A2B15",
"q  c #45261A",
"w  c #54371B",
"e  c #6F3C1C",
"r  c #713E1E",
"t  c #4A2920",
"y  c #472D20",
"u  c #512D20",
"i  c #453825",
"p  c #563622",
"a  c #5A3C34",
"s  c #453F39",
"d  c #623720",
"f  c #713E20",
"g  c #0D420D",
"h  c #08440C",
"j  c #0D4C12",
"k  c #0A4515",
"l  c #174A15",
"z  c #0E5315",
"x  c #0E5B1B",
"c  c #0B531B",
"v  c #185A15",
"b  c #264512",
"n  c #215215",
"m  c #0F641E",
"M  c #0F681F",
"N  c #1E6318",
"B  c #2A721B",
"V  c #135521",
"C  c #30482C",
"Z  c #0D6221",
"A  c #0F6C22",
"S  c #156824",
"D  c #0F7326",
"F  c #0E7B29",
"G  c #0C7926",
"H  c #107425",
"J  c #107C29",
"K  c #177628",
"L  c #227225",
"P  c #357327",
"I  c #585801",
"U  c #585701",
"Y  c #4C490E",
"T  c #73401F",
"R  c #735E15",
"E  c #494B2E",
"W  c #6B4A21",
"Q  c #744120",
"!  c #6D4E35",
"~  c #46652A",
"^  c #46782D",
"/  c #7E632F",
"(  c #013A50",
")  c #3F4A40",
"_  c #484849",
"`  c #5A5A5B",
"'  c #534951",
"]  c #695A4B",
"[  c #4B774D",
"{  c #726D4E",
"}  c #797977",
"|  c #5A5466",
" . c #885C1A",
".. c #87572C",
"X. c #885937",
"o. c #8B6334",
"O. c #966A38",
"+. c #9A7734",
"@. c #A47A3E",
"#. c #936643",
"$. c #A17742",
"%. c #A47A42",
"&. c #A67E49",
"*. c #A77D51",
"=. c #8B7E68",
"-. c #A17F6B",
";. c #2F821F",
":. c #158129",
">. c #1A8429",
",. c #1D8235",
"<. c #338921",
"1. c #348421",
"2. c #3B9E29",
"3. c #379627",
"4. c #25873B",
"5. c #2D8F26",
"6. c #3DA229",
"7. c #3CA027",
"8. c #6EB51C",
"9. c #459C28",
"0. c #709430",
"q. c #41A429",
"w. c #43A82A",
"e. c #5DA531",
"r. c #7EA439",
"t. c #39904D",
"y. c #618361",
"u. c #5A965D",
"i. c #AEAD03",
"p. c #B79638",
"a. c #AB8638",
"s. c #86A533",
"d. c #A7B91B",
"f. c #C4AF0D",
"g. c #D1BD1F",
"h. c #C5AA29",
"j. c #CAB226",
"k. c #D1BD21",
"l. c #D2B336",
"z. c #8FC818",
"x. c #A9CC15",
"c. c #DBCA1B",
"v. c #D8C61D",
"b. c #D6D500",
"n. c #E4D713",
"m. c #EDE40D",
"M. c #F9F604",
"N. c #FFFF00",
"B. c #F9F307",
"V. c #F2F00B",
"C. c #E8C43D",
"Z. c #F3DE23",
"A. c #FFFF29",
"S. c #9F805F",
"D. c #A9824A",
"F. c #B78A45",
"G. c #AB8559",
"H. c #B18B55",
"J. c #B7915A",
"K. c #BD9346",
"L. c #8F8B6A",
"P. c #BA966D",
"I. c #AC9174",
"U. c #89AE72",
"Y. c #BFA043",
"T. c #C08E44",
"R. c #C59649",
"E. c #D7A74F",
"W. c #DEAB52",
"Q. c #D5A750",
"!. c #DDB248",
"~. c #E1AE53",
"^. c #E2B156",
"/. c #E3B44D",
"(. c #CAA776",
"). c #D0A666",
"_. c #E8D64B",
"`. c #FBEE5A",
"'. c #E1C965",
"]. c #2C4E9A",
"[. c #31529C",
"{. c #0087B9",
"}. c #788DBE",
"|. c #4493A8",
" X c #02BBFC",
".X c #778EC0",
"XX c #60CBE7",
"oX c #868685",
"OX c #959394",
"+X c #938E8D",
"@X c #A99A90",
"#X c #B39E80",
"$X c #B8AA8E",
"%X c #BABABA",
"&X c #B2B2B2",
"*X c #A9A8A7",
"=X c #CFAF87",
"-X c #D1AF84",
";X c #D5B48B",
":X c #D8B68A",
">X c #CFB590",
",X c #AFC0AF",
"<X c #E4C59C",
"1X c #E9D4AB",
"2X c #EBD4B0",
"3X c #FFE6BC",
"4X c #FEE6BD",
"5X c #F5F4B5",
"6X c #DFD1BE",
"7X c #C9C9C9",
"8X c #C4C4C4",
"9X c #D4D4D4",
"0X c #D7D9D7",
"qX c #C8D5C9",
"wX c #D6E3D7",
"eX c #FFEAC1",
"rX c #FFE8C3",
"tX c #EDE4D9",
"yX c #FFF5D1",
"uX c #DDECE1",
"iX c #EDECEC",
"pX c #E4E7E4",
"aX c #F2ECE3",
"sX c #FDF4E6",
"dX c #F1F1F1",
"fX c #FFFFFF",
"gX c #FDFDF0",
"hX c #E5F1E8",
/* pixels */
"fXfXfXfXfXfXfXfXfXfXfX6X@.%.o.r r ~ K J z g g ;.q.q.q.q.q.q.q.6.>.G 4.dXfXfXfXfXfXfXfXfXfXfXfXfXfX",
"fXfXfXfXfXfXfXfXfXfXfX7X@.$.o.r r ~ G J x g g ;.w.q.q.q.q.q.q.2.K G 4.hXfXfXfXfXfXfXfXfXfXfXfXfXfX",
"fXfXfXfXfXgXiXaXaXsXsX1Xa.p.+. . .^ :.:.v g g ;.q.q.q.q.q.q.q.6.>.:.4.qXuXuXuXuXhXfXfXfXfXfXfXfXfX",
"fXfXfXfXfXtXH.D.J.^.^._.M.M.M.M.M.z.6.6.N g g ;.q.q.q.q.q.q.q.6.q.q.6.4.4.,.4.,.u.gXfXfXfXfXfXfXfX",
"fXfXfXfXfXtX$.$.F.E.W.C.N.N.N.N.N.x.6.6.N g g <.w.q.q.q.6.q.q.q.q.q.q.J G J J G t.fXfXfXfXfXfXfXfX",
"fXfXfXtXtX6Xp.p.p.E.Q.C.m.m.V.V.V.x.e.e.B j v B 3.3.9.q.q.q.q.q.q.q.2.>.:.:.J G t.9X0XuXfXfXfXfXfX",
"fXfXaXG.D.p.M.N.n.%.%.%.a.%.T.~./.W.Q.W.s.q.q.N g g <.w.q.q.q.q.q.q.q.q.q.2.J J S l l [ fXfXfXfXfX",
"fXfXaXD.@.p.N.N.n.%.%.%.%.$.K.~.W.W.~./.s.q.w.N : g <.w.q.q.q.q.q.q.q.q.q.2.J J H g : [ gXfXfXfXfX",
"tXtX6Xp.p.h.n.m.c.F.F.D.%.$.R.C._.E.R.E.s.9.w.N g g <.w.q.q.q.q.q.q.q.3.3.5.J J H z j [ qXqXwXfXfX",
"%.%.p.M.N.m.a.@.F.W.^.R.@.%.j.N.N.k.@.@.0.6.w.N g g <.w.q.q.q.q.q.q.q.J J J J J J J G m g g y.fXfX",
"%.%.a.N.N.m.%.%.F.~.~.R.@.@.j.N.N.k.%.%.0.6.6.N g g <.w.q.q.q.q.q.q.6.J J J J J F F F M h : y.fXfX",
"O.O.a.M.N.m.F.F.F.K.T.F.H.H.l.N.N.k.%.%.s.8.8.1.v v B <.<.<.<.<.<.<.<.J J J J J J F :.M h : y.fXfX",
"T T  .M.N.V.^.~.K.T Q #.;X>X_.N.N.k.$.$.v.N.N.8.6.q.v g g g g g g g g H J J J J J J J A g : y.fXfX",
"r e  .M.M.V.^.^.T.T r #.;X;X_.N.N.k.$.$.v.N.N.z.6.q.v g g g g g g g j H J J J J F J J M h : y.fXfX",
"S.S.G.c.n.v.T.F.D.O.#.G.:X>X^.c.n.h.%.$.c.N.N.8.5.3.v g g z z z z z x K J J J J J J J D z z [ ,X,X",
"fXfXaXD.%.O.f f o.;X>X:X;X:XP.D.%.%.%.$.c.N.M.8.F J z g g H J J J J J J J J J G J J J J J J m h h ",
"fXfXaXD.@.O.T T #.;X;X;X;X;XP.@.@.%.$.$.v.N.N.8.F J c : g K J J J J J J J J J J J J J J J J M g h ",
"fXfXdX>X=XI.0 q ! ;X;X:X<X<X-XJ.J.R.j.j.k.c.c.0.^ ^ S z z m M M H J H M m M M M A G J J J J M g : ",
"fXfXfXfXfX7XX   6 ;X;X<XrXeX2X:X>X_.N.N.j.$.@.@.%.%.P G J j g g H J H j : g g g j J J J J J M : g ",
"fXfXfXfXfX7X.   6 :X;X<XeXeX1X:X:X_.N.N.j.$.@.$.&.&.1.G J j : l H J H j g g g g j J J J J J M g h ",
"fXfXfXfXfX7X.   * G.*.-.=.=.#X1X<X`.N.N.j.$.%.O.o.o.B m m x x x m m x g g : - - > x m A J J m - - ",
"fXfXfXfXfX7X.   # f f 0     ] rXrX`.N.N.j.%.%...T T 3 : g H F F j : g g g >     X : g j F J c     ",
"fXfXfXfXfX7X.   # f T 0     ] rXrX`.N.N.j.$.%...T T b g g M :.G h h g g g :     X g g z J :.c     ",
"fXfXiXoX} } ] ] ] ' | | oXoX$X3XyX'.j.k.h.R.R...T T / y.{ U.U.U.U.L.L.l g :     X g : j x m ,     ",
"fXfX0Xo   1 ;X:X@X[.[..XfXfXsX3XrX(.%.%.R.~.~.O.r f P.:X:X3X4X4X3X4X2Xn k :     + : g g g g -     ",
"fXfX0X$   1 ;X;X@X[.[..XfXfXsX3XrX-X%.%.R.W.W.O.r r P.:X:X2X3X3X4X4X2Xn g :     + g g g g g -     ",
"fXfX0X$   1 -X:X@X[.]..XfXfXsX3XrXP.....h.Z.Z.R * * #X2X1X3X3X3X(.(.P.< @ < +XOX} @ + > m M k     ",
"fXfX0X$   1 =X:X@X[.]..XfXfXsX3XeXP.r f f.N.N.U     =XeX4X3X3X2XH.a.O.+   4 iXfX7X.   - J J c     ",
"fXfX0X$   1 ;X:X@X[.[.}.fXfXsX3XeXP.f f f.N.N.U     $XeX4X4X3X3XH.D.O.o   4 dXfX7X.   - J J c     ",
"fXfXdX*X*X+XE s ] +X+X&XyXyXrX3XrXP.e f f.N.N.U     |.XXXX$X).P.E 2 2 .   4 iXfX7X.   + z x :     ",
"fXfXfXfXfX7X.   6 ;X;X<X3X3X3X3XeXP.f f f.N.N.U     {. X XL.@.O.O         4 dXfX7X.   + g g -     ",
"fXfXfXfXfX8X.   6 ;X;X<X3X3X3X3XeXP.e f f.N.N.U     {. X Xy.@.@.#         4 iXfX7X.   + g g -     ",
"fXfXfXfXfXiX&X&X+Xs 6 #.<X<X<X<X<X*.r r f.N.N.U     ( ( ( 5 2 2 o.+.+.i.i.j.gXfXiX&X&XoX+ + C %X&X",
"fXfXfXfXfXfXfXfX&X    s ;X;X-X;X:X*.r r f.N.N.U               X R.^./.N.N.A.gXfXfXfXfX%X    ` fXfX",
"fXfXfXfXfXfXfXfX%X.   s ;X;X-X;X>X*.r r f.N.M.U               o K.W.!.N.N.A.gXfXfXfXfX%X    ` fXfX",
"fXfXfXfXfXfXfXfXiX%X%X+X2 8 C ~ ~ 8 O O +.C._.Y     k x x : > > 3 2 E 1X5XyXfXfXfXfXfXiX%X%X0XfXfX",
"fXfXfXfXfXfXfXfXfXfXfX*X    @ g h @     / ^.W.w     x J J j g : .   % pXfXfXfXfXfXfXfXfXfXfXfXfXfX",
"fXfXfXfXfXfXfXfXfXdXfX*X    @ h k -     / W.W.i     x J D c g g .   % pXfXfXfXfXfXfXfXfXfXfXfXfXfX",
"fXfXfXfXfXfXfXfX7X7 7 C m Z M A A A Z Z < 2 1 0 e w % @ @ Z D S +   % pXfXfXfXfXfXfXfXfXfXfXfXfXfX",
"fXfXfXfXfXfXfXfX%X    - J J J J F :.F J >     0 r T #     Z F D +   % pXfXfXfXfXfXfXfXfXfXfXfXfXfX",
"fXfXfXfXfXgXdXdX&X+ X ; H J J J J F D D , .   y Q Q #     Z J D +   % pXfXfXfXfXfXfXfXfXfXfXfXfXfX",
"fXfXfXfXfX9X7 4 W b.b.z.G J J J J k + + k Z Z K L S - .   Z J D +   % pXfXfXfXfXfXfXfXfXfXfXfXfXfX",
"fXfXfXfXfX7X. . Y N.N.x.J J J J :.k     k :.J F F F -     Z J F +   % pXfXfXfXfXfXfXfXfXfXfXfXfXfX",
"fXfXfXfXfX7X.   b V.V.x.K K K K K ,     V 4.4.4.4.4.-     Z K S $   % 9XiXiXfXfXfXfXfXfXfXfXfXfXfX",
"fXfXfXfXfX7X.   - <.5.P W W W W W 2     oXhXuXuXpXuXs     2 i y q 2 q 5 % s dXfXfXfXfXfXfXfXfXfXfX",
"fXfXfXfXfX7X.   - G F P T T T T T =     OXfXfXfXfXfX_     2 t t t t q .   4 iXfXfXfXfXfXfXfXfXfXfX",
"fXfXfXfXfX7X.   - J :.P W W T W T 2     oXiXpXpXiXpXs     2 t t y i 2 .   4 dXfXfXfXfXfXfXfXfXfXfX",
"fXfXfXfXfX7X.   ; 6.2.9.9.q.9.9.q.n     2 a a a a a $   . 2 t q S K S +   4 dXfXfXfXfXfXfXfXfXfXfX",
"fXfXfXfXfX8X. . ; w.q.q.q.q.q.q.w.l     * t q t t q O     q q 0 S J D +   4 iXfXfXfXfXfXfXfXfXfXfX",
"fXfXfXfXfX9X4 4 C <.<.3.q.q.q.2.2.v     * u t u u u O   . 3 i E S A Z 4 4 _ dXfXfXfXfXfXfXfXfXfXfX",
"fXfXfXfXfXfXdXdX&XX   l q.q.5.J :.,     q r r Q f f &     P 9.9.@ . % 0XdXdXfXfXfXfXfXfXfXfXfXfXfX",
"fXfXfXfXfXfXfXfX&X    < w.w.3.J :.,     0 r r r T r #     ;.q.2.@   % pXfXfXfXfXfXfXfXfXfXfXfXfXfX",
"fXfXfXfXfXfXfXfX7X7 7 C ;.;.B Z Z ,     p #.#.X.X.X.&     B 1.1.7 7 _ iXfXfXfXfXfXfXfXfXfXfXfXfXfX",
"fXfXfXfXfXfXfXfXfXdXfX*X  . .   .       L.3X4X<X=X=X6         $ 9XgXdXfXfXfXfXfXfXfXfXfXfXfXfXfXfX",
"fXfXfXfXfXfXfXfXfXfXfX*X              . L.rXrX<X:X:Xi         $ 0XfXfXfXfXfXfXfXfXfXfXfXfXfXfXfXfX",
"fXfXfXfXfXfXfXfXiX%X8XL.O # O o o o o . { >X$XI.S.L.4     7 _ _ pXfXfXfXfXfXfXfXfXfXfXfXfXfXfXfXfX",
"fXfXfXfXfXfXfXfX%X.   * Q T d t t t t t #   .           . 8XfXfXfXfXfXfXfXfXfXfXfXfXfXfXfXfXfXfXfX",
"fXfXfXfXfXfXfXfX%X    & Q Q p t t t t t #               . 7XfXfXfXfXfXfXfXfXfXfXfXfXfXfXfXfXfXfXfX",
"fXfXfXfXfXfXfXfX%X    & Q Q e u p u t t #           7 ' ' 0XfXfXfXfXfXfXfXfXfXfXfXfXfXfXfXfXfXfXfX",
"fXfXfXfXfXfXfXfX%X    & Q Q Q Q f d t t &           %XfXfXfXfXfXfXfXfXfXfXfXfXfXfXfXfXfXfXfXfXfXfX",
"fXfXfXfXfXfXfXfX%X.   & Q Q Q Q T d t u &         . %XfXfXfXfXfXfXfXfXfXfXfXfXfXfXfXfXfXfXfXfXfXfX",
"fXfXfXfXfXfXfXfX9X` ` _ 0 0 0 0 0 2 * * s ` ` ` ` ` 9XfXfXfXfXfXfXfXfXfXfXfXfXfXfXfXfXfXfXfXfXfXfX",
"fXfXfXfXfXfXfXfXfXfXfX*X                OXfXfXfXfXfXfXfXfXfXfXfXfXfXfXfXfXfXfXfXfXfXfXfXfXfXfXfXfX",
"fXfXfXfXfXfXfXfXfXfXfX*X                OXfXfXfXfXfXfXfXfXfXfXfXfXfXfXfXfXfXfXfXfXfXfXfXfXfXfXfXfX"
};
