/* XPM */
static char *result[] = {
/* columns rows colors chars-per-pixel */
"94 104 14 1 ",
"  c #000001",
". c #4A2920",
"X c #0D420D",
"o c #107B29",
"O c #734120",
"+ c #A47B41",
"@ c #41A429",
"# c yellow",
"$ c #DEAC52",
"% c #31529C",
"& c #00BAFF",
"* c #D5B48B",
"= c #FFE6BD",
"- c white",
/* pixels */
"--------------------+++++OOOOOoooooXXXXX@@@@@@@@@@ooooo---------------------------------------",
"--------------------+++++OOOOOoooooXXXXX@@@@@@@@@@ooooo---------------------------------------",
"--------------------+++++OOOOOoooooXXXXX@@@@@@@@@@ooooo---------------------------------------",
"--------------------+++++OOOOOoooooXXXXX@@@@@@@@@@ooooo---------------------------------------",
"--------------------+++++OOOOOoooooXXXXX@@@@@@@@@@ooooo---------------------------------------",
"----------+++++$$$$$#####+++++@@@@@XXXXX@@@@@@@@@@@@@@@@@@@@ooooo-----------------------------",
"----------+++++$$$$$#####+++++@@@@@XXXXX@@@@@@@@@@@@@@@@@@@@ooooo-----------------------------",
"----------+++++$$$$$#####+++++@@@@@XXXXX@@@@@@@@@@@@@@@@@@@@ooooo-----------------------------",
"----------+++++$$$$$#####+++++@@@@@XXXXX@@@@@@@@@@@@@@@@@@@@ooooo-----------------------------",
"----------+++++$$$$$#####+++++@@@@@XXXXX@@@@@@@@@@@@@@@@@@@@ooooo-----------------------------",
"-----+++++#####++++++++++$$$$$@@@@@XXXXX@@@@@@@@@@@@@@@@@@@@@@@@@oooooXXXXX-------------------",
"-----+++++#####++++++++++$$$$$@@@@@XXXXX@@@@@@@@@@@@@@@@@@@@@@@@@oooooXXXXX-------------------",
"-----+++++#####++++++++++$$$$$@@@@@XXXXX@@@@@@@@@@@@@@@@@@@@@@@@@oooooXXXXX-------------------",
"-----+++++#####++++++++++$$$$$@@@@@XXXXX@@@@@@@@@@@@@@@@@@@@@@@@@oooooXXXXX-------------------",
"-----+++++#####++++++++++$$$$$@@@@@XXXXX@@@@@@@@@@@@@@@@@@@@@@@@@oooooXXXXX-------------------",
"+++++#####+++++$$$$$$$$$$##########@@@@@XXXXX@@@@@@@@@@@@@@@@@@@@@@@@@oooooXXXXX--------------",
"+++++#####+++++$$$$$$$$$$##########@@@@@XXXXX@@@@@@@@@@@@@@@@@@@@@@@@@oooooXXXXX--------------",
"+++++#####+++++$$$$$$$$$$##########@@@@@XXXXX@@@@@@@@@@@@@@@@@@@@@@@@@oooooXXXXX--------------",
"+++++#####+++++$$$$$$$$$$##########@@@@@XXXXX@@@@@@@@@@@@@@@@@@@@@@@@@oooooXXXXX--------------",
"+++++#####+++++$$$$$$$$$$##########@@@@@XXXXX@@@@@@@@@@@@@@@@@@@@@@@@@oooooXXXXX--------------",
"OOOOO#####$$$$$OOOOO+++++#####+++++@@@@@XXXXX@@@@@XXXXXXXXXX@@@@@@@@@@ooooooooooXXXXX---------",
"OOOOO#####$$$$$OOOOO+++++#####+++++@@@@@XXXXX@@@@@XXXXXXXXXX@@@@@@@@@@ooooooooooXXXXX---------",
"OOOOO#####$$$$$OOOOO+++++#####+++++@@@@@XXXXX@@@@@XXXXXXXXXX@@@@@@@@@@ooooooooooXXXXX---------",
"OOOOO#####$$$$$OOOOO+++++#####+++++@@@@@XXXXX@@@@@XXXXXXXXXX@@@@@@@@@@ooooooooooXXXXX---------",
"OOOOO#####$$$$$OOOOO+++++#####+++++@@@@@XXXXX@@@@@XXXXXXXXXX@@@@@@@@@@ooooooooooXXXXX---------",
"-----OOOOO+++++**********+++++#####+++++@@@@@XXXXX@@@@@@@@@@ooooooooooooooooooooXXXXX---------",
"-----OOOOO+++++**********+++++#####+++++@@@@@XXXXX@@@@@@@@@@ooooooooooooooooooooXXXXX---------",
"-----OOOOO+++++**********+++++#####+++++@@@@@XXXXX@@@@@@@@@@ooooooooooooooooooooXXXXX---------",
"-----OOOOO+++++**********+++++#####+++++@@@@@XXXXX@@@@@@@@@@ooooooooooooooooooooXXXXX---------",
"-----OOOOO+++++**********+++++#####+++++@@@@@XXXXX@@@@@@@@@@ooooooooooooooooooooXXXXX---------",
"----------     *****=====*****#####+++++ooooooooooXXXXXooooooooooooooooooooooooooooooXXXXX----",
"----------     *****=====*****#####+++++ooooooooooXXXXXooooooooooooooooooooooooooooooXXXXX----",
"----------     *****=====*****#####+++++ooooooooooXXXXXooooooooooooooooooooooooooooooXXXXX----",
"----------     *****=====*****#####+++++ooooooooooXXXXXooooooooooooooooooooooooooooooXXXXX----",
"----------     *****=====*****#####+++++ooooooooooXXXXXooooooooooooooooooooooooooooooXXXXX----",
"----------     OOOOO     =====#####+++++OOOOOXXXXXXXXXXXXXXXoooooooooooooooooooooooooXXXXX----",
"----------     OOOOO     =====#####+++++OOOOOXXXXXXXXXXXXXXXoooooooooooooooooooooooooXXXXX----",
"----------     OOOOO     =====#####+++++OOOOOXXXXXXXXXXXXXXXoooooooooooooooooooooooooXXXXX----",
"----------     OOOOO     =====#####+++++OOOOOXXXXXXXXXXXXXXXoooooooooooooooooooooooooXXXXX----",
"----------     OOOOO     =====#####+++++OOOOOXXXXXXXXXXXXXXXoooooooooooooooooooooooooXXXXX----",
"-----     *****%%%%%-----=====+++++$$$$$OOOOO*****==========XXXXXXXXXX     XXXXXoooooXXXXX    ",
"-----     *****%%%%%-----=====+++++$$$$$OOOOO*****==========XXXXXXXXXX     XXXXXoooooXXXXX    ",
"-----     *****%%%%%-----=====+++++$$$$$OOOOO*****==========XXXXXXXXXX     XXXXXoooooXXXXX    ",
"-----     *****%%%%%-----=====+++++$$$$$OOOOO*****==========XXXXXXXXXX     XXXXXoooooXXXXX    ",
"-----     *****%%%%%-----=====+++++$$$$$OOOOO*****==========XXXXXXXXXX     XXXXXoooooXXXXX    ",
"-----     *****%%%%%-----=====OOOOO#####OOOOO==========+++++          -----     XXXXXXXXXX    ",
"-----     *****%%%%%-----=====OOOOO#####OOOOO==========+++++          -----     XXXXXXXXXX    ",
"-----     *****%%%%%-----=====OOOOO#####OOOOO==========+++++          -----     XXXXXXXXXX    ",
"-----     *****%%%%%-----=====OOOOO#####OOOOO==========+++++          -----     XXXXXXXXXX    ",
"-----     *****%%%%%-----=====OOOOO#####OOOOO==========+++++          -----     XXXXXXXXXX    ",
"----------     *****==========OOOOO#####*****&&&&&+++++          ---------------     XXXXX    ",
"----------     *****==========OOOOO#####*****&&&&&+++++          ---------------     XXXXX    ",
"----------     *****==========OOOOO#####*****&&&&&+++++          ---------------     XXXXX    ",
"----------     *****==========OOOOO#####*****&&&&&+++++          ---------------     XXXXX    ",
"----------     *****==========OOOOO#####*****&&&&&+++++          ---------------     XXXXX    ",
"---------------     ***************OOOOO#####          $$$$$#####--------------------     ----",
"---------------     ***************OOOOO#####          $$$$$#####--------------------     ----",
"---------------     ***************OOOOO#####          $$$$$#####--------------------     ----",
"---------------     ***************OOOOO#####          $$$$$#####--------------------     ----",
"---------------     ***************OOOOO#####          $$$$$#####--------------------     ----",
"--------------------     XXXXXXXXXX     $$$$$     XXXXX          -----------------------------",
"--------------------     XXXXXXXXXX     $$$$$     XXXXX          -----------------------------",
"--------------------     XXXXXXXXXX     $$$$$     XXXXX          -----------------------------",
"--------------------     XXXXXXXXXX     $$$$$     XXXXX          -----------------------------",
"--------------------     XXXXXXXXXX     $$$$$     XXXXX          -----------------------------",
"---------------     ooooooooooooooo     ooooooooooXXXXX     ----------------------------------",
"---------------     ooooooooooooooo     ooooooooooXXXXX     ----------------------------------",
"---------------     ooooooooooooooo     ooooooooooXXXXX     ----------------------------------",
"---------------     ooooooooooooooo     ooooooooooXXXXX     ----------------------------------",
"---------------     ooooooooooooooo     ooooooooooXXXXX     ----------------------------------",
"----------     #####ooooooooooooooo     ----------          ----------------------------------",
"----------     #####ooooooooooooooo     ----------          ----------------------------------",
"----------     #####ooooooooooooooo     ----------          ----------------------------------",
"----------     #####ooooooooooooooo     ----------          ----------------------------------",
"----------     #####ooooooooooooooo     ----------          ----------------------------------",
"               oooooOOOOOoooooooooo     ..........     ooooo     -----------------------------",
"               oooooOOOOOoooooooooo     ..........     ooooo     -----------------------------",
"               oooooOOOOOoooooooooo     ..........     ooooo     -----------------------------",
"               oooooOOOOOoooooooooo     ..........     ooooo     -----------------------------",
"               oooooOOOOOoooooooooo     ..........     ooooo     -----------------------------",
"     OOOOO     ooooo@@@@@OOOOOOOOOO     .....OOOOOOOOOO     ooooo     ------------------------",
"     OOOOO     ooooo@@@@@OOOOOOOOOO     .....OOOOOOOOOO     ooooo     ------------------------",
"     OOOOO     ooooo@@@@@OOOOOOOOOO     .....OOOOOOOOOO     ooooo     ------------------------",
"     OOOOO     ooooo@@@@@OOOOOOOOOO     .....OOOOOOOOOO     ooooo     ------------------------",
"     OOOOO     ooooo@@@@@OOOOOOOOOO     .....OOOOOOOOOO     ooooo     ------------------------",
"     OOOOO.....     @@@@@@@@@@@@@@@ooooo     =====*****     ooooo     ------------------------",
"     OOOOO.....     @@@@@@@@@@@@@@@ooooo     =====*****     ooooo     ------------------------",
"     OOOOO.....     @@@@@@@@@@@@@@@ooooo     =====*****     ooooo     ------------------------",
"     OOOOO.....     @@@@@@@@@@@@@@@ooooo     =====*****     ooooo     ------------------------",
"     OOOOO.....     @@@@@@@@@@@@@@@ooooo     =====*****     ooooo     ------------------------",
"-----     ..........     oooooooooo                              -----------------------------",
"-----     ..........     oooooooooo                              -----------------------------",
"-----     ..........     oooooooooo                              -----------------------------",
"-----     ..........     oooooooooo                              -----------------------------",
"-----     ..........     oooooooooo                              -----------------------------",
"----------          -----                         ..........     -----------------------------",
"----------          -----                         ..........     -----------------------------",
"----------          -----                         ..........     -----------------------------",
"----------          -----                         ..........     -----------------------------",
"----------          -----                         ..........     -----------------------------",
"---------------------------------------------               ----------------------------------",
"---------------------------------------------               ----------------------------------",
"---------------------------------------------               ----------------------------------",
"---------------------------------------------               ----------------------------------"
};
