/* XPM */
static char *left_2_[] = {
/* columns rows colors chars-per-pixel */
"58 64 235 2 ",
"   c #000001",
".  c #020B04",
"X  c #0E0C04",
"o  c #0B0B0B",
"O  c #060606",
"+  c #180D0B",
"@  c #150C08",
"#  c #031307",
"$  c #171718",
"%  c #1D1A0C",
"&  c #25150D",
"*  c #281612",
"=  c #291814",
"-  c #351D17",
";  c #062307",
":  c #092D09",
">  c #06250C",
",  c #0A3E0A",
"<  c #083808",
"1  c #083713",
"2  c #1E361E",
"3  c #0F2B10",
"4  c #382517",
"5  c #2D310D",
"6  c #262626",
"7  c #343435",
"8  c #383839",
"9  c #37312A",
"0  c #46271A",
"q  c #4B3A1D",
"w  c #583119",
"e  c #532E16",
"r  c #67391C",
"t  c #713E1E",
"y  c #4B2920",
"u  c #542F20",
"i  c #463C30",
"p  c #723E20",
"a  c #683B20",
"s  c #0D420D",
"d  c #0D4A11",
"f  c #0A4919",
"g  c #084517",
"h  c #194713",
"j  c #0D5516",
"k  c #0D5B1C",
"l  c #0B541B",
"z  c #195914",
"x  c #11490F",
"c  c #0F631D",
"v  c #0E681F",
"b  c #1E6216",
"n  c #16661E",
"m  c #266B19",
"M  c #2C7C1E",
"N  c #26761D",
"B  c #105821",
"V  c #2E502A",
"C  c #0F6D23",
"Z  c #0D6421",
"A  c #0F7326",
"S  c #0E7B29",
"D  c #0D7827",
"F  c #107526",
"G  c #107C29",
"H  c #167A28",
"J  c #196824",
"K  c #396225",
"L  c #3A6C37",
"P  c #58401B",
"I  c #73411F",
"U  c #7A4A1C",
"Y  c #575223",
"T  c #514D31",
"R  c #744120",
"E  c #784322",
"W  c #6C522B",
"Q  c #596A23",
"!  c #546A36",
"~  c #777339",
"^  c #3F7544",
"/  c #3F5B46",
"(  c #464645",
")  c #585858",
"_  c #59474E",
"`  c #69564C",
"'  c #6C5B4F",
"]  c #54754F",
"[  c #676667",
"{  c #767676",
"}  c #7C7C7D",
"|  c #6F6F70",
" . c #625F5F",
".. c #87592C",
"X. c #895B3A",
"o. c #905E2D",
"O. c #886737",
"+. c #946634",
"@. c #99733C",
"#. c #827238",
"$. c #A37A3E",
"%. c #A5773C",
"&. c #957616",
"*. c #89755D",
"=. c #966F4C",
"-. c #A47A42",
";. c #A47A43",
":. c #A87F59",
">. c #907D64",
",. c #865B44",
"<. c #178229",
"1. c #1D8335",
"2. c #248C29",
"3. c #23812B",
"4. c #328722",
"5. c #389A27",
"6. c #2E9629",
"7. c #3EA329",
"8. c #3FA528",
"9. c #2F831F",
"0. c #64A91B",
"q. c #528426",
"w. c #4A9026",
"e. c #758A36",
"r. c #41A429",
"t. c #43A82A",
"y. c #579C1B",
"u. c #328E47",
"i. c #3C944D",
"p. c #448E53",
"a. c #6C8252",
"s. c #63804D",
"d. c #5BB048",
"f. c #7D997D",
"g. c #AA8B13",
"h. c #B9B803",
"j. c #A7A70B",
"k. c #848939",
"l. c #A8823B",
"z. c #B79734",
"x. c #B28F30",
"c. c #8FA639",
"v. c #BBA62C",
"b. c #C4A929",
"n. c #D1BD21",
"m. c #CCAF2F",
"M. c #C9AD1D",
"N. c #A7D212",
"B. c #D9D804",
"V. c #DACA1A",
"C. c #D8C819",
"Z. c #D1C00A",
"A. c #E5D812",
"S. c #ECE40A",
"D. c #F2EC09",
"F. c #FEFE00",
"G. c #FCF70C",
"H. c #F1E816",
"J. c #E4D425",
"K. c #ECD02D",
"L. c #DFE221",
"P. c #B88B46",
"I. c #B18D5B",
"U. c #B18850",
"Y. c #998367",
"T. c #8F816A",
"R. c #A98E6E",
"E. c #AB8763",
"W. c #B99567",
"Q. c #BA9A74",
"!. c #AE926F",
"~. c #B9A377",
"^. c #CD9E4D",
"/. c #C59A46",
"(. c #D5A54D",
"). c #DEAC52",
"_. c #D8A750",
"`. c #CAA94C",
"'. c #E4B848",
"]. c #E1AE53",
"[. c #C19D71",
"{. c #C9A878",
"}. c #E3B86C",
"|. c #E7CE6D",
" X c #FFF360",
".X c #E9D654",
"XX c #2E509C",
"oX c #2B4E9C",
"OX c #5D6D98",
"+X c #6E738A",
"@X c #0195CC",
"#X c #22AFDB",
"$X c #02BCFE",
"%X c #1A8BAE",
"&X c #9A9A9A",
"*X c #878B87",
"=X c #92AA92",
"-X c #B8AB90",
";X c #9DB5AA",
":X c #B5B9B6",
">X c #A6AEA7",
",X c #D5B48C",
"<X c #D8B68C",
"1X c #DAB98F",
"2X c #D2B181",
"3X c #DCBB91",
"4X c #C7AD89",
"5X c #C8B5A8",
"6X c #B8C8B8",
"7X c #E3C59A",
"8X c #E9CCA3",
"9X c #F2D7AD",
"0X c #F8DEB4",
"qX c #ECD6AD",
"wX c #FFE6BD",
"eX c #FFE8BF",
"rX c #FBE1B7",
"tX c #DCC19B",
"yX c #B7C3DD",
"uX c #BDDACE",
"iX c #C7C7C7",
"pX c #D6D6D6",
"aX c #C6D0C9",
"sX c #D9EADD",
"dX c #FFEAC1",
"fX c #FFE6C1",
"gX c #FEF5D8",
"hX c #FFEED2",
"jX c #E4E4E4",
"kX c #EBEBEB",
"lX c #F2F3F2",
"zX c #FFFFFF",
"xX c #FAF8F4",
"cX c #F4F6EC",
"vX c #DDECE0",
/* pixels */
"zXzXzXzXzXzXzXzXzXzXzXzX4X%.$...p R Y S S v s , b r.r.r.r.r.5.<.S u.lXzXzXzXzXzXzXzXzXzXzXzXzXzXzXzXzXzXzXzXzXzXzXzX",
"zXzXzXzXzXzXzXzXzXzXzXzX4X@.-...t p K <.S c s s b 7.r.r.r.r.5.G S u.lXzXzXzXzXzXzXzXzXzXzXzXzXzXzXzXzXzXzXzXzXzXzXzX",
"zXzXzXzXzXzXxXxXxXlXxXxX{.$.l.+.I U Q <.S v s , b r.r.r.r.r.5.H S u.vXxXlXlXlXlXzXzXzXzXzXzXzXzXzXzXzXzXzXzXzXzXzXzX",
"zXzXzXzXzXxX4XI.I.}.}.}.J.D.D.b.=.O.e.5.7.N s s b r.7.r.r.r.7.5.5.7.d.d.d.i.u.i.sXzXzXzXzXzXzXzXzXzXzXzXzXzXzXzXzXzX",
"zXzXzXzXzXzXW.@.$.^.).).H.F.F.m.;.;.e.r.t.M , s b r.r.r.r.r.r.r.r.r.8.8.7.<.D <.sXzXzXzXzXzXzXzXzXzXzXzXzXzXzXzXzXzX",
"zXzXzXxXxXxXW.$.$.^.).).H.G.F.n.;.;.e.r.t.M s s b r.r.r.r.r.r.r.r.r.r.r.7.<.S 1.sXxXxXxXxXxXxXzXzXzXzXzXzXzXzXzXzXzX",
"zXzXxX4XW.W.J.S.S.b.U.;.x.z.x./.(.(.c.r.t.M s , b r.r.r.r.r.r.r.r.7.r.r.7.7.6.7.i.i.i.^ L / uXzXzXzXzXzXzXzXzXzXzXzX",
"zXzXxXI.%.$.S.F.F.z.;.;.;.;.;./.].].c.r.r.M s , b r.r.r.r.r.r.r.r.r.r.7.7.7.7.7.<.D D d , s 6XzXzXzXzXzXzXzXzXzXzXzX",
"zXxXxXI.@.P.S.F.F.v.;.-.-.-.-./.].].c.8.8.4., s m r.r.r.r.r.r.r.r.r.r.r.r.r.r.r.H D G d s s 6XzXzXzXzXzXzXzXzXzXzXzX",
"Q.Q.Q.J.A.A.b.z.z.^.(.^.^.^.^.K.H.H.H.B.N.N.4.5.M z z m 5.r.r.r.r.r.r.r.r.r.r.r.5.5.5.H C F L ] ] 6XzXzXzXzXzXzXzXzX",
"$.$.l.D.F.F.z.;.;.^.].].).].).K.F.F.F.F.F.N.t.t.9., , z r.r.r.r.r.r.r.r.r.r.r.r.r.r.r.<.S G j , < ;XzXzXzXzXzXzXzXzX",
"$.$.l.D.F.F.z.-.-.^.].].).).).H.F.F.F.F.F.N.t.t.4., , z r.r.8.8.r.r.r.r.r.r.r.r.r.r.r.<.F F j , s ;XzXzXzXzXzXzXzXzX",
"......S.F.G.m.^.^.%.+.o.-.P.P.V.F.F.A.v.b.c.r.r.4.s , z 8.r.5.m z m m z m 5.r.r.r.r.r.3.G G C v v L s.p.6XzXzXzXzXzX",
"I t U S.F.F.'.].).o.t t +.;.;.V.F.F.n.;.%.e.r.r.M s s z 8.t.4.x , , s , x 5.r.r.r.r.r.<.S G G G <.j , < =XzXzXzXzXzX",
"I I U S.G.F.'._.).o.t t +.;.;.C.F.F.C.$.%.e.r.r.4.s s z t.t.4.s , s s s x 5.r.r.r.r.r.<.S G G G G k , , =XzXzXzXzXzX",
"5X5X4Xx.g.g.x./.P.U.E.E.W.[.[.`.b.b.n.V.V.v.e.e.e.M M M b m m M M M M M M 2.2.2.2.2.2.H G G G G G j s , =XzXzXzXzXzX",
"zXzXxX,.t p @.$.%.{.1X<X<X,X<XW.%.;.n.F.F.V.;.;.k.t.t.4.s s z 8.t.t.r.r.7.<.D D G S S G G G G G G j s , =XzXzXzXzXzX",
"zXzXlX,.r t @.-.-.{.<X,X,X,X,XW.@.;.n.F.F.C.-.-.k.t.r.4.s s z 8.r.r.r.r.7.H G G G G F S G F S G G j s , =XzXzXzXzXzX",
"zXzXxX5X-X-XW q q !.,X,X7X8X8X2XW.W.K.F.F.V.-.-.e.2.2.<.c c n m m N 2.2.2.G G G G G G G G G G G G C c k u.f.f.6XzXzX",
"zXzXzXzXzXzX8     Y.<X,X9XfXdX8X,X,X.XF.F.V.-.-.~ S S D G G C s , x D G S G S G G G G G G G G G F G G G j s s f.zXzX",
"zXzXzXzXzXxX7     E.1X,XqXdXfX8X2X<X.XF.F.V.;.-.~ <.S S S D A s s d G G G G G G S G G G G S F G G G G G k s s f.zXzX",
"zXzXzXzXzXxX8     ' E.:.>.>.>.-X8X8X.XF.F.V.-.-.#.K K K c c k s s x k k c F G G G G G F S S G G G G G G k s d f.zXzX",
"zXzXzXzXzXxX8     e I t &   O >.eXdX XF.F.V.;.-.+.I I P s s s s s s s s d D G G G G G G S S G S G G G G k s , f.zXzX",
"zXzXzXzXzXzX7     w I t &   O >.dXdX XF.F.V.;.-.+.I I P , s s s , , s , s D G S G G G G <.G G S G G G G k s , T.zXzX",
"zXzXxX>X&X&X` T T _ _ _ ) [  .-XeXeX|.A.V.m./.P.%.R R W ! ] ~ s.a.a.a.a.s.n v v Z Z c l f f c c c F G G k s s ] &X&X",
"zXzXlX6     R.1X<XOXXXXXyXzXzXgXwXeX2X;.;.P.].].P.R t X.,X,XtXeXeXeXeXeXqXV s s s s , .   O : s s v G G k s s #     ",
"zXzXlX6   O R.<X,XOXXXXXyXzXzXgXwXdX2X$.-.P.).).P.t t X.2X,X1XwXwXeXeXwXqXV s s x s , O     : d x c G G k s x ;     ",
"zXzXlX6   O R.<X,XOXXXXXyXzXzXgXwXdX{.+.+.z.'.K.z.t t =.7XtX8XwXwXrX7X7X2Xh : : : : 3 V ) _ 2 : : j v v j s s ;     ",
"zXzXlX6   O R.1X,XOXoXXXyXzXzXhXwXeXW.p a g.F.F.Z.t t =.0XwXwXwXeX9XU.@.@.X         O iXzXzX(     : s s s s x ;     ",
"zXzXkX6     !.3X1XOXoXoXyXzXzXgXwXdXQ.t p g.F.F.Z.t t =.rXwXwXeXdX8XU.P.@.X           iXzXzX(     ; s s s s s ;     ",
"zXzXlX .( ( *.Y.Y.+XOXOXiXxXxXhXwXeXQ.t p g.F.F.V.X.X.>.aXuXaX7X7X1XO.W W X   O 7 ( ( pXzXzX} ( ( 2 < : , s s ;     ",
"zXzXzXzXxXxX8   O >.3X,XqXfXrXwXwXeXW.t p g.F.F.H.<X<X>X$X$X#XU.U.O.o   O     o pXzXzXzXzXzXzXxXzX .    > s s ;     ",
"zXzXzXzXzXxX7     Y.3X<XqXeXfXfXfXfXW.r t g.F.F.L.4X,X;X$X$X#X;.$.+.O         o pXzXzXzXzXzXzXzXzX)   O ; s s ;     ",
"zXzXzXzXzXzX .7 7 *.!.!.tX0X0X0X0X0X[.X...x.B.B.J.|.|.-X@X@X%XO.O.W 5 - - 5 5 5 pXzXzXzXzXzXzXzXzX} 7 7 2 < < 2 7 7 ",
"zXzXzXzXzXzXxXxXxX(   O *.1X,X1X,X,X,X2X,XE.I E g.G.G.h.. O O   . % /._.'.D.F.G.gXzXzXzXzXzXzXzXzXxXxXxX|     { xXxX",
"zXzXzXzXzXzXzXzXzX(     *.3X<X<X,X<X,X<X<XI.t p g.F.F.h.        O & (.].'.G.F.G.gXzXzXzXzXzXzXzXzXzXzXzX{     } zXzX",
"zXzXzXzXzXzXzXzXzX[ 6 6 *.Q.Q.~.Q.-X~.~.~.=.r r &.G.G.h.      . . % P.P.z.B.B.B.gXzXzXzXzXzXzXzXzXzXzXzX*X6 6 *XzXzX",
"zXzXzXzXzXzXzXzXzXxXkXkX) X o 3 h h h h h 3 . O q ].].-.    . , , , X X o X X % pXzXzXzXzXzXzXzXzXzXzXzXlXlXkXxXzXzX",
"zXzXzXzXzXzXzXzXzXzXzXzX)     > s s s s s ;   O q ).].U.    # s s , O         o pXzXzXzXzXzXzXzXzXzXzXzXzXzXzXzXzXzX",
"zXzXzXzXzXzXzXzXzXkXjXjX) . . : d s d d d :   . 5 `.`.@.o # # s , ,     O $ $ 6 pXzXzXzXzXzXzXzXzXzXzXzXzXzXzXzXzXzX",
"zXzXzXzXzXzXzXzXzX) $ $ B F C A D F F F F g     > 1.H H H C Z s s , O   o aXjXjXzXzXzXzXzXzXzXzXzXzXzXzXzXzXzXzXzXzX",
"zXzXzXzXzXzXzXzXzX(     l H G G G G G G <.f     > A H G G G C d s 1     $ jXzXzXzXzXzXzXzXzXzXzXzXzXzXzXzXzXzXzXzXzX",
"zXzXzXzXzXzXlXlXkX( X X l G G G G F G G G f     1 u.1.H 1.1.H s , <     $ jXzXzXzXzXzXzXzXzXzXzXzXzXzXzXzXzXzXzXzXzX",
"zXzXzXzXzXxX) 6 6 j.B.B.y.S G G G G G S G f     ( vXvXjXvXvX:Xo . .     $ jXzXzXzXzXzXzXzXzXzXzXzXzXzXzXzXzXzXzXzXzX",
"zXzXzXzXzXxX7     h.F.F.0.D G G G G G G G f     ) zXzXzXzXzXpXO O       $ jXzXzXzXzXzXzXzXzXzXzXzXzXzXzXzXzXzXzXzXzX",
"xXxXxXxXxXlX7     h.F.F.0.D H H S G G G <.f     _ xXxXxXxXxXiXo         $ pXxXzXzXzXzXzXzXzXzXzXzXzXzXzXzXzXzXzXzXzX",
"7 7 7 7 7 7 o     m w.5.Q Y Y K S F G G G f     = ` ` ` ` ` T O   . k Z Z 7 7 8 pXzXzXzXzXzXzXzXzXzXzXzXzXzXzXzXzXzX",
"                  l S D Y p R K S G S G G f     + 0 y 0 y y -     # D G A .   o pXzXzXzXzXzXzXzXzXzXzXzXzXzXzXzXzXzX",
"                  k S S Y E R K G G G H H g     + y y y y y 4     # A <.C #   o pXzXzXxXzXzXzXzXzXzXzXzXzXzXzXzXzXzX",
"    O 0 w e @     l <.S 4.w.w.Q Y Y Y Y Y 4     + y 0 u a a a u w 0 > # > l B B 8 ( ( pXzXzXzXzXzXzXzXzXzXzXzXzXzXzX",
"    O r R R +     k S S 6.t.7.Q p R R R E 0     + y y u I R R R E r O   . C G G #     iXzXzXzXzXzXzXzXzXzXzXzXzXzXzX",
"    O w I I +     B S S 6.t.t.Q R R R E E 0     + y y u I R R R I r O   . C G A #   O iXzXzXzXzXzXzXzXzXzXzXzXzXzXzX",
"    O r I t 4 - - 3 > > M t.7.w.q.q.q.q.q.M l l 1 + + i 2X,X{.W.!.:.o   . C S G #   O iXzXzXzXzXzXzXzXzXzXzXzXzXzXzX",
"    O w R I u y y @     K 7.7.t.t.7.7.7.r.6.S <.B     i fXfXrX<X<XQ.o   . C S D #     iXzXzXzXzXzXzXzXzXzXzXzXzXzXzX",
"    O r R I w y y o O   m r.t.r.r.r.r.r.r.6.S S l     i fXeXrX,X3XQ.X   . C S D # O   iXzXzXzXzXzXzXzXzXzXzXzXzXzXzX",
"&X&X&X4 * - 0 0 y - = = 5 h h J 2.2.3.2.2.J : 1 >     $ ` ` ) T T i O   O > 1 1 *X&X&XjXzXzXzXzXzXzXzXzXzXzXzXzXzXzX",
"zXzXlX6     - y y y y y +     g S S S D S g                     O             o pXzXzXzXzXzXzXzXzXzXzXzXzXzXzXzXzXzX",
"zXzXlX6   O 4 y y y y y +     g <.<.S <.<.f                                   o pXzXzXzXzXzXzXzXzXzXzXzXzXzXzXzXzXzX",
"zXzXxX&X*X*X9 & & * & &  .*X*X/ 1 1 1 1 1 >                 O * * = * = * O   o pXzXzXzXzXzXzXzXzXzXzXzXzXzXzXzXzXzX",
"zXzXzXzXzXzX7           >XzXzX|         O                   @ 0 y y y y 0 O   o pXzXzXzXzXzXzXzXzXzXzXzXzXzXzXzXzXzX",
"zXzXzXzXzXxX7           >XzXzX[                             o y y y y y y     O pXzXzXzXzXzXzXzXzXzXzXzXzXzXzXzXzXzX",
"zXzXzXzXzXzX&X{ { { { { iXzXzX:X{ { { { { { { { { { { )     O * * * * * = | { } kXzXzXzXzXzXzXzXzXzXzXzXzXzXzXzXzXzX",
"zXzXzXzXzXzXzXzXzXzXzXzXzXzXzXzXzXzXzXzXzXzXzXzXzXzXzXiX                $ jXzXzXzXzXzXzXzXzXzXzXzXzXzXzXzXzXzXzXzXzX",
"zXzXzXzXzXzXzXzXzXzXzXzXzXzXzXzXzXzXzXzXzXzXzXzXzXzXzX:X                $ jXzXzXzXzXzXzXzXzXzXzXzXzXzXzXzXzXzXzXzXzX"
};
