/* XPM */
static char *result[] = {
/* columns rows colors chars-per-pixel */
"84 109 14 1 ",
"  c #000001",
". c #4A2920",
"X c #0D420D",
"o c #107B29",
"O c #734120",
"+ c #A47B41",
"@ c #41A429",
"# c yellow",
"$ c #DEAC52",
"% c #31529C",
"& c #00BAFF",
"* c #D5B48B",
"= c #FFE6BD",
"- c white",
/* pixels */
"--------------------+++++OOOOOoooooXXXXX@@@@@@@@@@@@@@@ooooo------------------------",
"--------------------+++++OOOOOoooooXXXXX@@@@@@@@@@@@@@@ooooo------------------------",
"--------------------+++++OOOOOoooooXXXXX@@@@@@@@@@@@@@@ooooo------------------------",
"--------------------+++++OOOOOoooooXXXXX@@@@@@@@@@@@@@@ooooo------------------------",
"--------------------+++++OOOOOoooooXXXXX@@@@@@@@@@@@@@@ooooo------------------------",
"----------+++++$$$$$##########@@@@@XXXXX@@@@@@@@@@@@@@@@@@@@oooooooooo--------------",
"----------+++++$$$$$##########@@@@@XXXXX@@@@@@@@@@@@@@@@@@@@oooooooooo--------------",
"----------+++++$$$$$##########@@@@@XXXXX@@@@@@@@@@@@@@@@@@@@oooooooooo--------------",
"----------+++++$$$$$##########@@@@@XXXXX@@@@@@@@@@@@@@@@@@@@oooooooooo--------------",
"----------+++++$$$$$##########@@@@@XXXXX@@@@@@@@@@@@@@@@@@@@oooooooooo--------------",
"-----+++++#####++++++++++$$$$$$$$$$@@@@@XXXXX@@@@@@@@@@@@@@@@@@@@oooooXXXXX---------",
"-----+++++#####++++++++++$$$$$$$$$$@@@@@XXXXX@@@@@@@@@@@@@@@@@@@@oooooXXXXX---------",
"-----+++++#####++++++++++$$$$$$$$$$@@@@@XXXXX@@@@@@@@@@@@@@@@@@@@oooooXXXXX---------",
"-----+++++#####++++++++++$$$$$$$$$$@@@@@XXXXX@@@@@@@@@@@@@@@@@@@@oooooXXXXX---------",
"-----+++++#####++++++++++$$$$$$$$$$@@@@@XXXXX@@@@@@@@@@@@@@@@@@@@oooooXXXXX---------",
"+++++#####+++++$$$$$+++++#####+++++@@@@@XXXXX@@@@@@@@@@@@@@@oooooooooooooooXXXXX----",
"+++++#####+++++$$$$$+++++#####+++++@@@@@XXXXX@@@@@@@@@@@@@@@oooooooooooooooXXXXX----",
"+++++#####+++++$$$$$+++++#####+++++@@@@@XXXXX@@@@@@@@@@@@@@@oooooooooooooooXXXXX----",
"+++++#####+++++$$$$$+++++#####+++++@@@@@XXXXX@@@@@@@@@@@@@@@oooooooooooooooXXXXX----",
"+++++#####+++++$$$$$+++++#####+++++@@@@@XXXXX@@@@@@@@@@@@@@@oooooooooooooooXXXXX----",
"OOOOO#####$$$$$OOOOO*****#####+++++#####@@@@@XXXXXXXXXXXXXXXoooooooooooooooXXXXX----",
"OOOOO#####$$$$$OOOOO*****#####+++++#####@@@@@XXXXXXXXXXXXXXXoooooooooooooooXXXXX----",
"OOOOO#####$$$$$OOOOO*****#####+++++#####@@@@@XXXXXXXXXXXXXXXoooooooooooooooXXXXX----",
"OOOOO#####$$$$$OOOOO*****#####+++++#####@@@@@XXXXXXXXXXXXXXXoooooooooooooooXXXXX----",
"OOOOO#####$$$$$OOOOO*****#####+++++#####@@@@@XXXXXXXXXXXXXXXoooooooooooooooXXXXX----",
"-----+++++OOOOO**********++++++++++#####oooooXXXXXooooooooooooooooooooooooooooooXXXX",
"-----+++++OOOOO**********++++++++++#####oooooXXXXXooooooooooooooooooooooooooooooXXXX",
"-----+++++OOOOO**********++++++++++#####oooooXXXXXooooooooooooooooooooooooooooooXXXX",
"-----+++++OOOOO**********++++++++++#####oooooXXXXXooooooooooooooooooooooooooooooXXXX",
"-----+++++OOOOO**********++++++++++#####oooooXXXXXooooooooooooooooooooooooooooooXXXX",
"----------     *****=====*****#####++++++++++oooooXXXXXoooooXXXXXXXXXXooooooooooXXXX",
"----------     *****=====*****#####++++++++++oooooXXXXXoooooXXXXXXXXXXooooooooooXXXX",
"----------     *****=====*****#####++++++++++oooooXXXXXoooooXXXXXXXXXXooooooooooXXXX",
"----------     *****=====*****#####++++++++++oooooXXXXXoooooXXXXXXXXXXooooooooooXXXX",
"----------     *****=====*****#####++++++++++oooooXXXXXoooooXXXXXXXXXXooooooooooXXXX",
"----------     OOOOO     =====#####+++++OOOOOXXXXXoooooXXXXXXXXXX     XXXXXooooo    ",
"----------     OOOOO     =====#####+++++OOOOOXXXXXoooooXXXXXXXXXX     XXXXXooooo    ",
"----------     OOOOO     =====#####+++++OOOOOXXXXXoooooXXXXXXXXXX     XXXXXooooo    ",
"----------     OOOOO     =====#####+++++OOOOOXXXXXoooooXXXXXXXXXX     XXXXXooooo    ",
"----------     OOOOO     =====#####+++++OOOOOXXXXXoooooXXXXXXXXXX     XXXXXooooo    ",
"-----     *****%%%%%-----=====+++++$$$$$OOOOO*****==========XXXXX     XXXXXXXXXX    ",
"-----     *****%%%%%-----=====+++++$$$$$OOOOO*****==========XXXXX     XXXXXXXXXX    ",
"-----     *****%%%%%-----=====+++++$$$$$OOOOO*****==========XXXXX     XXXXXXXXXX    ",
"-----     *****%%%%%-----=====+++++$$$$$OOOOO*****==========XXXXX     XXXXXXXXXX    ",
"-----     *****%%%%%-----=====+++++$$$$$OOOOO*****==========XXXXX     XXXXXXXXXX    ",
"-----     *****%%%%%-----=====OOOOO#####     ==========+++++     -----     ooooo    ",
"-----     *****%%%%%-----=====OOOOO#####     ==========+++++     -----     ooooo    ",
"-----     *****%%%%%-----=====OOOOO#####     ==========+++++     -----     ooooo    ",
"-----     *****%%%%%-----=====OOOOO#####     ==========+++++     -----     ooooo    ",
"-----     *****%%%%%-----=====OOOOO#####     ==========+++++     -----     ooooo    ",
"----------     *****==========OOOOO#####     &&&&&+++++          -----     XXXXX    ",
"----------     *****==========OOOOO#####     &&&&&+++++          -----     XXXXX    ",
"----------     *****==========OOOOO#####     &&&&&+++++          -----     XXXXX    ",
"----------     *****==========OOOOO#####     &&&&&+++++          -----     XXXXX    ",
"----------     *****==========OOOOO#####     &&&&&+++++          -----     XXXXX    ",
"---------------     **********OOOOO#####               $$$$$#####----------     ----",
"---------------     **********OOOOO#####               $$$$$#####----------     ----",
"---------------     **********OOOOO#####               $$$$$#####----------     ----",
"---------------     **********OOOOO#####               $$$$$#####----------     ----",
"---------------     **********OOOOO#####               $$$$$#####----------     ----",
"--------------------     XXXXX     $$$$$     oooooXXXXX     ------------------------",
"--------------------     XXXXX     $$$$$     oooooXXXXX     ------------------------",
"--------------------     XXXXX     $$$$$     oooooXXXXX     ------------------------",
"--------------------     XXXXX     $$$$$     oooooXXXXX     ------------------------",
"--------------------     XXXXX     $$$$$     oooooXXXXX     ------------------------",
"---------------     ooooooooooooooo     OOOOO     ooooo     ------------------------",
"---------------     ooooooooooooooo     OOOOO     ooooo     ------------------------",
"---------------     ooooooooooooooo     OOOOO     ooooo     ------------------------",
"---------------     ooooooooooooooo     OOOOO     ooooo     ------------------------",
"---------------     ooooooooooooooo     OOOOO     ooooo     ------------------------",
"----------     #####oooooooooo     oooooooooo     ooooo     ------------------------",
"----------     #####oooooooooo     oooooooooo     ooooo     ------------------------",
"----------     #####oooooooooo     oooooooooo     ooooo     ------------------------",
"----------     #####oooooooooo     oooooooooo     ooooo     ------------------------",
"----------     #####oooooooooo     oooooooooo     ooooo     ------------------------",
"----------     oooooOOOOOOOOOO     ----------     ..........     -------------------",
"----------     oooooOOOOOOOOOO     ----------     ..........     -------------------",
"----------     oooooOOOOOOOOOO     ----------     ..........     -------------------",
"----------     oooooOOOOOOOOOO     ----------     ..........     -------------------",
"----------     oooooOOOOOOOOOO     ----------     ..........     -------------------",
"----------     @@@@@@@@@@@@@@@     ..........     .....ooooo     -------------------",
"----------     @@@@@@@@@@@@@@@     ..........     .....ooooo     -------------------",
"----------     @@@@@@@@@@@@@@@     ..........     .....ooooo     -------------------",
"----------     @@@@@@@@@@@@@@@     ..........     .....ooooo     -------------------",
"----------     @@@@@@@@@@@@@@@     ..........     .....ooooo     -------------------",
"---------------     @@@@@ooooo     OOOOOOOOOO     @@@@@     ------------------------",
"---------------     @@@@@ooooo     OOOOOOOOOO     @@@@@     ------------------------",
"---------------     @@@@@ooooo     OOOOOOOOOO     @@@@@     ------------------------",
"---------------     @@@@@ooooo     OOOOOOOOOO     @@@@@     ------------------------",
"---------------     @@@@@ooooo     OOOOOOOOOO     @@@@@     ------------------------",
"--------------------               =====*****          -----------------------------",
"--------------------               =====*****          -----------------------------",
"--------------------               =====*****          -----------------------------",
"--------------------               =====*****          -----------------------------",
"--------------------               =====*****          -----------------------------",
"---------------     OOOOO..........               ----------------------------------",
"---------------     OOOOO..........               ----------------------------------",
"---------------     OOOOO..........               ----------------------------------",
"---------------     OOOOO..........               ----------------------------------",
"---------------     OOOOO..........               ----------------------------------",
"---------------     OOOOOOOOOO.....          ---------------------------------------",
"---------------     OOOOOOOOOO.....          ---------------------------------------",
"---------------     OOOOOOOOOO.....          ---------------------------------------",
"---------------     OOOOOOOOOO.....          ---------------------------------------",
"---------------     OOOOOOOOOO.....          ---------------------------------------",
"--------------------               -------------------------------------------------",
"--------------------               -------------------------------------------------",
"--------------------               -------------------------------------------------",
"--------------------               -------------------------------------------------"
};
