/* XPM */
static char *result[] = {
/* columns rows colors chars-per-pixel */
"94 104 14 1 ",
"  c #000001",
". c #4A2920",
"X c #0D420D",
"o c #107B29",
"O c #734120",
"+ c #A47B41",
"@ c #41A429",
"# c yellow",
"$ c #DEAC52",
"% c #31529C",
"& c #00BAFF",
"* c #D5B48B",
"= c #FFE6BD",
"- c white",
/* pixels */
"---------------------------------------ooooo@@@@@@@@@@XXXXXoooooOOOOO+++++--------------------",
"---------------------------------------ooooo@@@@@@@@@@XXXXXoooooOOOOO+++++--------------------",
"---------------------------------------ooooo@@@@@@@@@@XXXXXoooooOOOOO+++++--------------------",
"---------------------------------------ooooo@@@@@@@@@@XXXXXoooooOOOOO+++++--------------------",
"---------------------------------------ooooo@@@@@@@@@@XXXXXoooooOOOOO+++++--------------------",
"-----------------------------ooooo@@@@@@@@@@@@@@@@@@@@XXXXX@@@@@+++++#####$$$$$+++++----------",
"-----------------------------ooooo@@@@@@@@@@@@@@@@@@@@XXXXX@@@@@+++++#####$$$$$+++++----------",
"-----------------------------ooooo@@@@@@@@@@@@@@@@@@@@XXXXX@@@@@+++++#####$$$$$+++++----------",
"-----------------------------ooooo@@@@@@@@@@@@@@@@@@@@XXXXX@@@@@+++++#####$$$$$+++++----------",
"-----------------------------ooooo@@@@@@@@@@@@@@@@@@@@XXXXX@@@@@+++++#####$$$$$+++++----------",
"-------------------XXXXXooooo@@@@@@@@@@@@@@@@@@@@@@@@@XXXXX@@@@@$$$$$++++++++++#####+++++-----",
"-------------------XXXXXooooo@@@@@@@@@@@@@@@@@@@@@@@@@XXXXX@@@@@$$$$$++++++++++#####+++++-----",
"-------------------XXXXXooooo@@@@@@@@@@@@@@@@@@@@@@@@@XXXXX@@@@@$$$$$++++++++++#####+++++-----",
"-------------------XXXXXooooo@@@@@@@@@@@@@@@@@@@@@@@@@XXXXX@@@@@$$$$$++++++++++#####+++++-----",
"-------------------XXXXXooooo@@@@@@@@@@@@@@@@@@@@@@@@@XXXXX@@@@@$$$$$++++++++++#####+++++-----",
"--------------XXXXXooooo@@@@@@@@@@@@@@@@@@@@@@@@@XXXXX@@@@@##########$$$$$$$$$$+++++#####+++++",
"--------------XXXXXooooo@@@@@@@@@@@@@@@@@@@@@@@@@XXXXX@@@@@##########$$$$$$$$$$+++++#####+++++",
"--------------XXXXXooooo@@@@@@@@@@@@@@@@@@@@@@@@@XXXXX@@@@@##########$$$$$$$$$$+++++#####+++++",
"--------------XXXXXooooo@@@@@@@@@@@@@@@@@@@@@@@@@XXXXX@@@@@##########$$$$$$$$$$+++++#####+++++",
"--------------XXXXXooooo@@@@@@@@@@@@@@@@@@@@@@@@@XXXXX@@@@@##########$$$$$$$$$$+++++#####+++++",
"---------XXXXXoooooooooo@@@@@@@@@@XXXXXXXXXX@@@@@XXXXX@@@@@+++++#####+++++OOOOO$$$$$#####OOOOO",
"---------XXXXXoooooooooo@@@@@@@@@@XXXXXXXXXX@@@@@XXXXX@@@@@+++++#####+++++OOOOO$$$$$#####OOOOO",
"---------XXXXXoooooooooo@@@@@@@@@@XXXXXXXXXX@@@@@XXXXX@@@@@+++++#####+++++OOOOO$$$$$#####OOOOO",
"---------XXXXXoooooooooo@@@@@@@@@@XXXXXXXXXX@@@@@XXXXX@@@@@+++++#####+++++OOOOO$$$$$#####OOOOO",
"---------XXXXXoooooooooo@@@@@@@@@@XXXXXXXXXX@@@@@XXXXX@@@@@+++++#####+++++OOOOO$$$$$#####OOOOO",
"---------XXXXXoooooooooooooooooooo@@@@@@@@@@XXXXX@@@@@+++++#####+++++**********+++++OOOOO-----",
"---------XXXXXoooooooooooooooooooo@@@@@@@@@@XXXXX@@@@@+++++#####+++++**********+++++OOOOO-----",
"---------XXXXXoooooooooooooooooooo@@@@@@@@@@XXXXX@@@@@+++++#####+++++**********+++++OOOOO-----",
"---------XXXXXoooooooooooooooooooo@@@@@@@@@@XXXXX@@@@@+++++#####+++++**********+++++OOOOO-----",
"---------XXXXXoooooooooooooooooooo@@@@@@@@@@XXXXX@@@@@+++++#####+++++**********+++++OOOOO-----",
"----XXXXXooooooooooooooooooooooooooooooXXXXXoooooooooo+++++#####*****=====*****     ----------",
"----XXXXXooooooooooooooooooooooooooooooXXXXXoooooooooo+++++#####*****=====*****     ----------",
"----XXXXXooooooooooooooooooooooooooooooXXXXXoooooooooo+++++#####*****=====*****     ----------",
"----XXXXXooooooooooooooooooooooooooooooXXXXXoooooooooo+++++#####*****=====*****     ----------",
"----XXXXXooooooooooooooooooooooooooooooXXXXXoooooooooo+++++#####*****=====*****     ----------",
"----XXXXXoooooooooooooooooooooooooXXXXXXXXXXXXXXXOOOOO+++++#####=====     OOOOO     ----------",
"----XXXXXoooooooooooooooooooooooooXXXXXXXXXXXXXXXOOOOO+++++#####=====     OOOOO     ----------",
"----XXXXXoooooooooooooooooooooooooXXXXXXXXXXXXXXXOOOOO+++++#####=====     OOOOO     ----------",
"----XXXXXoooooooooooooooooooooooooXXXXXXXXXXXXXXXOOOOO+++++#####=====     OOOOO     ----------",
"----XXXXXoooooooooooooooooooooooooXXXXXXXXXXXXXXXOOOOO+++++#####=====     OOOOO     ----------",
"    XXXXXoooooXXXXX     XXXXXXXXXX==========*****OOOOO$$$$$+++++=====-----%%%%%*****     -----",
"    XXXXXoooooXXXXX     XXXXXXXXXX==========*****OOOOO$$$$$+++++=====-----%%%%%*****     -----",
"    XXXXXoooooXXXXX     XXXXXXXXXX==========*****OOOOO$$$$$+++++=====-----%%%%%*****     -----",
"    XXXXXoooooXXXXX     XXXXXXXXXX==========*****OOOOO$$$$$+++++=====-----%%%%%*****     -----",
"    XXXXXoooooXXXXX     XXXXXXXXXX==========*****OOOOO$$$$$+++++=====-----%%%%%*****     -----",
"    XXXXXXXXXX     -----          +++++==========OOOOO#####OOOOO=====-----%%%%%*****     -----",
"    XXXXXXXXXX     -----          +++++==========OOOOO#####OOOOO=====-----%%%%%*****     -----",
"    XXXXXXXXXX     -----          +++++==========OOOOO#####OOOOO=====-----%%%%%*****     -----",
"    XXXXXXXXXX     -----          +++++==========OOOOO#####OOOOO=====-----%%%%%*****     -----",
"    XXXXXXXXXX     -----          +++++==========OOOOO#####OOOOO=====-----%%%%%*****     -----",
"    XXXXX     ---------------          +++++&&&&&*****#####OOOOO==========*****     ----------",
"    XXXXX     ---------------          +++++&&&&&*****#####OOOOO==========*****     ----------",
"    XXXXX     ---------------          +++++&&&&&*****#####OOOOO==========*****     ----------",
"    XXXXX     ---------------          +++++&&&&&*****#####OOOOO==========*****     ----------",
"    XXXXX     ---------------          +++++&&&&&*****#####OOOOO==========*****     ----------",
"----     --------------------#####$$$$$          #####OOOOO***************     ---------------",
"----     --------------------#####$$$$$          #####OOOOO***************     ---------------",
"----     --------------------#####$$$$$          #####OOOOO***************     ---------------",
"----     --------------------#####$$$$$          #####OOOOO***************     ---------------",
"----     --------------------#####$$$$$          #####OOOOO***************     ---------------",
"-----------------------------          XXXXX     $$$$$     XXXXXXXXXX     --------------------",
"-----------------------------          XXXXX     $$$$$     XXXXXXXXXX     --------------------",
"-----------------------------          XXXXX     $$$$$     XXXXXXXXXX     --------------------",
"-----------------------------          XXXXX     $$$$$     XXXXXXXXXX     --------------------",
"-----------------------------          XXXXX     $$$$$     XXXXXXXXXX     --------------------",
"----------------------------------     XXXXXoooooooooo     ooooooooooooooo     ---------------",
"----------------------------------     XXXXXoooooooooo     ooooooooooooooo     ---------------",
"----------------------------------     XXXXXoooooooooo     ooooooooooooooo     ---------------",
"----------------------------------     XXXXXoooooooooo     ooooooooooooooo     ---------------",
"----------------------------------     XXXXXoooooooooo     ooooooooooooooo     ---------------",
"----------------------------------          ----------     ooooooooooooooo#####     ----------",
"----------------------------------          ----------     ooooooooooooooo#####     ----------",
"----------------------------------          ----------     ooooooooooooooo#####     ----------",
"----------------------------------          ----------     ooooooooooooooo#####     ----------",
"----------------------------------          ----------     ooooooooooooooo#####     ----------",
"-----------------------------     ooooo     ..........     ooooooooooOOOOOooooo               ",
"-----------------------------     ooooo     ..........     ooooooooooOOOOOooooo               ",
"-----------------------------     ooooo     ..........     ooooooooooOOOOOooooo               ",
"-----------------------------     ooooo     ..........     ooooooooooOOOOOooooo               ",
"-----------------------------     ooooo     ..........     ooooooooooOOOOOooooo               ",
"------------------------     ooooo     OOOOOOOOOO.....     OOOOOOOOOO@@@@@ooooo     OOOOO     ",
"------------------------     ooooo     OOOOOOOOOO.....     OOOOOOOOOO@@@@@ooooo     OOOOO     ",
"------------------------     ooooo     OOOOOOOOOO.....     OOOOOOOOOO@@@@@ooooo     OOOOO     ",
"------------------------     ooooo     OOOOOOOOOO.....     OOOOOOOOOO@@@@@ooooo     OOOOO     ",
"------------------------     ooooo     OOOOOOOOOO.....     OOOOOOOOOO@@@@@ooooo     OOOOO     ",
"------------------------     ooooo     *****=====     ooooo@@@@@@@@@@@@@@@     .....OOOOO     ",
"------------------------     ooooo     *****=====     ooooo@@@@@@@@@@@@@@@     .....OOOOO     ",
"------------------------     ooooo     *****=====     ooooo@@@@@@@@@@@@@@@     .....OOOOO     ",
"------------------------     ooooo     *****=====     ooooo@@@@@@@@@@@@@@@     .....OOOOO     ",
"------------------------     ooooo     *****=====     ooooo@@@@@@@@@@@@@@@     .....OOOOO     ",
"-----------------------------                              oooooooooo     ..........     -----",
"-----------------------------                              oooooooooo     ..........     -----",
"-----------------------------                              oooooooooo     ..........     -----",
"-----------------------------                              oooooooooo     ..........     -----",
"-----------------------------                              oooooooooo     ..........     -----",
"-----------------------------     ..........                         -----          ----------",
"-----------------------------     ..........                         -----          ----------",
"-----------------------------     ..........                         -----          ----------",
"-----------------------------     ..........                         -----          ----------",
"-----------------------------     ..........                         -----          ----------",
"----------------------------------               ---------------------------------------------",
"----------------------------------               ---------------------------------------------",
"----------------------------------               ---------------------------------------------",
"----------------------------------               ---------------------------------------------"
};
