/* XPM */
static char *right_2_[] = {
/* columns rows colors chars-per-pixel */
"61 64 239 2 ",
"   c #000001",
".  c #020B03",
"X  c #0B0807",
"o  c #150C07",
"O  c #140B09",
"+  c #190E0A",
"@  c #160C07",
"#  c #041305",
"$  c #041B09",
"%  c #061C06",
"&  c #1E110D",
"*  c #13120D",
"=  c #151515",
"-  c #1C1A19",
";  c #0E0F11",
":  c #24140C",
">  c #26180D",
",  c #341D0E",
"<  c #261A15",
"1  c #381F12",
"2  c #0A250A",
"3  c #0B3E0B",
"4  c #093709",
"5  c #0E3511",
"6  c #392613",
"7  c #28221B",
"8  c #363536",
"9  c #2F3128",
"0  c #45261D",
"q  c #542F19",
"w  c #552F17",
"e  c #4F3219",
"r  c #6C3D1E",
"t  c #63391B",
"y  c #713E1E",
"u  c #4A2920",
"i  c #452F21",
"p  c #522D20",
"a  c #4E382C",
"s  c #6A3B20",
"d  c #733F20",
"f  c #0D420D",
"g  c #0B480F",
"h  c #11490F",
"j  c #15410F",
"k  c #0D4C12",
"l  c #0A4416",
"z  c #154A14",
"x  c #0D561A",
"c  c #195816",
"v  c #0E631D",
"b  c #1D6217",
"n  c #246D19",
"m  c #206717",
"M  c #29761C",
"N  c #317B1F",
"B  c #315B28",
"V  c #0E6D24",
"C  c #0F7225",
"Z  c #0E7B29",
"A  c #0A7826",
"S  c #107425",
"D  c #107B29",
"F  c #147A27",
"G  c #1F692B",
"H  c #3C6129",
"J  c #2D7029",
"K  c #1C501C",
"L  c #73411F",
"P  c #67411E",
"I  c #706D09",
"U  c #435D24",
"Y  c #4C4439",
"T  c #58482C",
"R  c #744120",
"E  c #7B4A27",
"W  c #645F23",
"Q  c #6E5232",
"!  c #5E5C22",
"~  c #0C627F",
"^  c #454546",
"/  c #484849",
"(  c #595551",
")  c #6A5C48",
"_  c #516D51",
"`  c #726854",
"'  c #686868",
"]  c #797879",
"[  c #69736C",
"{  c #8C5A2D",
"}  c #875934",
"|  c #915F2C",
" . c #986833",
".. c #936C35",
"X. c #A2793D",
"o. c #A37438",
"O. c #966F49",
"+. c #A37A41",
"@. c #A47B43",
"#. c #A27854",
"$. c #8F7C70",
"%. c #2E811E",
"&. c #1A8429",
"*. c #258C29",
"=. c #26872A",
"-. c #338A22",
";. c #3A9525",
":. c #309629",
">. c #399826",
",. c #2C9329",
"<. c #3EA329",
"1. c #3EA325",
"2. c #74B51A",
"3. c #53902F",
"4. c #41A429",
"5. c #45A929",
"6. c #50AC26",
"7. c #68AC2D",
"8. c #68972A",
"9. c #3D8E44",
"0. c #738757",
"q. c #749374",
"w. c #73BC61",
"e. c #5CA461",
"r. c #B39716",
"t. c #AB9B12",
"y. c #85BC15",
"u. c #B8AA08",
"i. c #9A883C",
"p. c #AB863B",
"a. c #B99933",
"s. c #B48B3B",
"d. c #97A939",
"f. c #BDA22E",
"g. c #CDB517",
"h. c #C39E3C",
"j. c #C3A72C",
"k. c #D1B42C",
"l. c #92C917",
"z. c #B6D90E",
"x. c #DDD308",
"c. c #D8C71A",
"v. c #D0CA0A",
"b. c #E1D510",
"n. c #D3EA0A",
"m. c #EBE20E",
"M. c #F2EC09",
"N. c #FFFF00",
"B. c #FAF608",
"V. c #F1EE0F",
"C. c #D6C127",
"Z. c #EDD22D",
"A. c #EBCE30",
"S. c #F1E33D",
"D. c #AC8347",
"F. c #B68A46",
"G. c #B98946",
"H. c #B78E52",
"J. c #9A8D74",
"K. c #A48B6B",
"L. c #BB9B73",
"P. c #AA926B",
"I. c #BDA177",
"U. c #9F984D",
"Y. c #CD9C4C",
"T. c #C5964A",
"R. c #CF9E50",
"E. c #D1A14D",
"W. c #DEAB53",
"Q. c #D4A950",
"!. c #D7A84B",
"~. c #E3B749",
"^. c #E1AD53",
"/. c #E4B054",
"(. c #E6AE4F",
"). c #C29E6C",
"_. c #C19D76",
"`. c #C5A57C",
"'. c #C5A366",
"]. c #FFFF58",
"[. c #D6D658",
"{. c #2D4F9A",
"}. c #2E509C",
"|. c #305098",
" X c #00678D",
".X c #5A6A97",
"XX c #7F7F80",
"oX c #00BCFF",
"OX c #14B3E8",
"+X c #5BC7E3",
"@X c #898989",
"#X c #959495",
"$X c #9F9997",
"%X c #8E9188",
"&X c #A89689",
"*X c #94B293",
"=X c #A9A8A8",
"-X c #B3B3B4",
";X c #BBBBBB",
":X c #A1B6A1",
">X c #9F9FA0",
",X c #CBAC86",
"<X c #CEB38A",
"1X c #D5B48C",
"2X c #D8B78D",
"3X c #DBB98E",
"4X c #D6BB97",
"5X c #CFB592",
"6X c #C8BCB8",
"7X c #9EC2A5",
"8X c #E2C49A",
"9X c #D9C9B1",
"0X c #EED2AA",
"qX c #ECD0A7",
"wX c #F3D8AE",
"eX c #F7DDB4",
"rX c #ECD1A9",
"tX c #FEE6BD",
"yX c #FBE4BB",
"uX c #FEE8A7",
"iX c #D8C797",
"pX c #9EAED1",
"aX c #9BA9CA",
"sX c #C5C5C5",
"dX c #CCCCCC",
"fX c #CED8CE",
"gX c #D8D9D8",
"hX c #D7CDC7",
"jX c #E4D8C9",
"kX c #D8E8D5",
"lX c #FFEBC3",
"zX c #F9EBD5",
"xX c #E4E4E4",
"cX c #E9EAE9",
"vX c #FCF5EA",
"bX c #F5F5F5",
"nX c #FFFFFF",
"mX c #F7F7F4",
"MX c #F1EAE1",
/* pixels */
"nXnXnXnXnXnXnXnXnXnXnXnXnXnXnXnXnXnXkX5.<.5.<.4.4.4.4.4.4.4.4.-.j f h ;.4.4.W L L } +.X.L.nXnXnXnXnXnXnXnXnXnXnXnXnXnXnXnX",
"nXnXnXnXnXnXnXnXnXnXnXnXnXnXnXnXnXnXkX1.<.<.4.4.4.4.4.4.4.4.5.-.h f j ;.4.4.W y R { +.X.L.nXnXnXnXnXnXnXnXnXnXnXnXnXnXnXnX",
"nXnXnXnXnXnXnXnXnXnXnXbXbXnXnXnXmXnXkX4.4.4.4.4.4.1.4.4.4.4.5.-.f f h 4.4.4.W L y { p.X.L.nXnXnXnXnXnXnXnXnXnXnXnXnXnXnXnX",
"nXnXnXnXnXnXnXnXmX0._ _ e.w.w.w.w.w.w.4.4.4.4.4.4.4.4.4.%.c c m -.-.;.z.n.n.x.x.x.k.Y.E.R.L.L.I.mXnXnXnXnXnXnXnXnXnXnXnXnX",
"nXnXnXnXnXnXnXnXbXG 3 3 %.1.1.1.1.1.4.4.1.4.4.4.4.4.4.4.M f 3 c 1.1.6.V.N.N.N.N.N.Z.^.^.R.+.+.D.MXnXnXnXnXnXnXnXnXnXnXnXnX",
"nXnXnXnXnXnXnXnXbXB 3 f %.<.<.5.4.4.4.4.4.4.4.4.4.4.5.5.M 3 4 c 1.1.5.V.N.N.N.N.N.Z.^.^.R.+.+.D.mXnXnXnXnXnXnXnXnXnXnXnXnX",
"nXnXnXnXnXcXq.q.q.G x v -.5.5.<.>.4.4.4.4.4.4.4.4.%.n n M M M -.d.d.d.A.Z.Z.k.g.k.j.T.H.a.C.C.C.<X5X4XMXnXnXnXnXnXnXnXnXnX",
"nXnXnXnXnXfXh f f C &.Z :.4.4.<.4.4.4.4.4.4.4.4.4.c f 3 n 5.<.7.^./.^.W.W.W.F.@.+.+.X.+.a.N.N.B.p.X.X.jXnXnXnXnXnXnXnXnXnX",
"nXnXnXnXnXfXh f f C D Z :.4.4.4.4.4.4.4.4.4.4.4.<.b f 3 M <.<.7.Q.W.W.W.W.W.F.X.+.+.+.+.a.N.N.B.p.@.@.jXnXnXnXnXnXnXnXnXnX",
"nXnXnXnXnXfXz f g C D D :.4.4.4.4.4.4.4.4.4.1.4.4.b 3 3 M 5.<.7.A.A.~.R.Y.Y.H.F.F.F.F.F.h.b.b.b.j.j.f.iX9XjXxXnXnXnXnXnXnX",
"nXnXnXnXnXfXh f f S D D :.4.4.4.4.4.4.4.4.4.4.4.4.b f f n <.<.7.N.N.B.s.+.+.Y.W.W.W.W.^.E.+.+.p.B.N.N.f.@.X.5XnXnXnXnXnXnX",
"nXnXnXnXnXfXz f g S D D :.4.4.4.4.4.4.4.4.4.4.4.4.b f f M <.<.2.N.N.B.s.+.@.Y.W.^.^.W.^.R.+.+.p.M.N.N.f.@.X.4XnXnXnXnXnXnX",
"nXnXbXgXxX;Xx g k S D Z :.4.4.4.;.;.;.>.>.>.4.4.4.b f 3 n 4.4.2.m.M.V.a.p.s.Y.Q.Q.E.Y.Y.T.p.D.s.B.N.N.f.+.X.4XnXnXnXnXnXnX",
"nXnX:Xz z c C D D D D D :.4.4.M h h h f h z >.4.4.b 3 f n 4.4.3.i.p.p.M.B.N.j.+.+. .E E | Q.!.(.B.N.N.f.@.X.4XnXnXnXnXnXnX",
"nXnX:X3 f k D D D D D D :.4.4.M 3 f f f f h ;.4.4.c 3 f n 4.4.3.+.+.p.M.N.N.f.+.+.} R R { W.W.~.B.N.N.f.O.X.4XnXnXnXnXnXnX",
"mXbX*Xf f k D D D D D Z :.4.4.N f h f h f h ;.4.4.m f f M 5.5.6.X.+.p.M.N.B.f.+.D.| R R | W.W.!.B.N.N.f.+.+.4XnXnXnXnXnXnX",
"8 8 9 g f k Z Z &.A Z D &.&.&.=.-.;.-.;.-.-.c c c N ;.-.2.n.n.c.+.+.X.s.a.a.'.`.,X_._._.H.{ { | !.~.~.a.+.o.4XnXnXnXnXnXnX",
"    % f f g Z Z Z D D Z Z Z Z *.4.4.1.5.5.1.h f 3 N 4.<.l.N.N.m.+.p.+.+.X.X.`.1X1X1X2X2XL.y y R E.^.^.G.+.+.4XnXnXnXnXnXnX",
"    % f f k Z D D D D D D D Z *.4.4.4.5.4.4.c 3 l -.4.<.l.N.N.m.+.+.+.+.+.X.`.1X1X1X1X1XL.d d { Q./.^.F.o.o.5XnXnXnXnXnXnX",
"    % f f k D D D D D D D D D &.*.*.=.m m m v v v &.=.&.l.N.N.m.p.+.@.).).).8X0XqX8X1X2XK., > 6  . . .,X9X9XxXnXnXnXnXnXnX",
"    % f f k D D D D D D D Z Z Z Z Z C f f f S D Z Z Z A 2.N.N.m.+.+.@.<X1X1XwXtXlXqX1X1XK.      t d d hXnXnXnXnXnXnXnXnXnX",
"    % f f k D D D D D D Z Z F F D F C f f f C &.A A A A 2.N.N.m.+.+.@.,X1X1XwXlXlXqX2X3XK.    X t r y hXnXnXnXnXnXnXnXnXnX",
"    % f f k D D D D D D D D Z C v v v x x x v v V 3.8.3.d.b.c.c.k.j.k.8XqX8X&XJ.J.K.K.H.O.    O $.K.K.jXnXnXnXnXnXnXnXnXnX",
"    % f f k D D D D D D D D Z v f f k D D Z g f 5 @./.^.T.o.+.a.N.N.B.uXtXtXY   X 1 d d q     = xXnXnXnXnXnXnXnXnXnXnXnXnX",
"    % f f k D D D D D D Z Z Z v f f g A Z C l 3 3 i.^.^.T.o.+.a.N.N.B.uXlXlXY     , L } w     = xXnXnXnXnXnXnXnXnXnXnXnXnX",
"9 8 9 4 4 l D D D S S V A v C G H H J 9.9.:.B B B i.Y.Y.T.p.@.h.m.m.m.uXlXlX' 9 8 a Q a a < < 8 ;XdXdXbXnXnXnXnXnXnXnXnXnX",
"mXbX%X    $ D D D k f f f g f 0.yXeXyXyXyXyX2X,X<X .y d o.W.W.E.p.p.D.wXtXtXvXmXbXaX|.{..X,X1XL.- X X ;XnXnXnXnXnXnXnXnXnX",
"nXnX#X    $ S D S h f f f f f 0.lXtXtXtXtXtX3X1X1XO.y y o.W.W.E.+.+.D.wXtXyXvXnXnXpX{.}..X2X1X`.=     -XnXnXnXnXnXnXnXnXnX",
"nXnX#X    $ D D D k f f 3 3 4 0.yXeXyXyXtXyX3X2X2XO.y y o.(.(.E.X.X.D.eXtXtXvXnXnXpX{.}..X<X<X,X*     -XnXnXnXnXnXnXnXnXnX",
"nXnX#X    $ S D S k f f % . . T H.H.).tXtXtXyXeXeXO.y s r.M.B.c.E E } 0XtXtXvXnXnXpX{.}..X1X1XI.=     ;XnXnXnXnXnXnXnXnXnX",
"nXnX#X    $ S D S k f f #     i @.X.H.tXtXtXtXtXlX#.r d r.N.N.x.L r E 0XtXtXvXnXnXpX{.}..X1X1X,X=     -XnXnXnXnXnXnXnXnXnX",
"nXnX#X    $ D D D k f f %     e @.+.P.tXtXtXtXtXlX#.r r r.B.N.x.L L E 0XlXtXvXnXnXpX{.{..X1X2X`.&     -XnXnXnXnXnXnXnXnXnX",
"nXnX#X    # x x x $ # $       & 6 6 T L.'.L.+X+X+XJ.h.@.k.N.N.x.L L E 0XlXtXzXzXzX9X#X&X$.a a / $X=X=XcXnXnXnXnXnXnXnXnXnX",
"nXnX#X    . 3 f 3 .                 & +.o.+.OXoXoX$X(.W.Z.N.N.x.L R E 0XtXtXtXtXtXqX1X3XK.    = cXnXnXnXnXnXnXnXnXnXnXnXnX",
"nXnX#X    . f f 3                   > @.@.D.OXoXoX*X(.W.Z.N.B.x.L y E 0XtXtXtXtXlXqX3X3XK.    = xXnXnXnXnXnXnXnXnXnXnXnXnX",
"nXnXsX[ ] ( 2 2 2 ' ] ] I I I W ( Q T T T T  X X Xd.Z.Z.g.g.g.f.#.#.#.8X0XqXqXqX0XL.` ` Y     = xXnXnXnXnXnXnXnXnXnXnXnXnX",
"nXnXnXnXnXdXX   ; gXnXnX].N.N.S.1X3XP.          . u.N.N.u.y y } <X2X3X<X1X1X1X<X3X)           = xXnXnXnXnXnXnXnXnXnXnXnXnX",
"nXnXnXnXnXsX    X gXnXnX].N.N.S.1X3XK.X         . u.N.N.g.L y } 2X2X2X3X3X2X2X3X3X)           = xXnXnXnXnXnXnXnXnXnXnXnXnX",
"nXnXnXnXnXgX^ 8 / xXnXnX[.v.z.f.K.K.` $ # .       t.V.V.r.w w Q P.P.P.P.P.P.K.K.K.` Y 8 8 & + < -XsX9XcXnXnXnXnXnXnXnXnXnX",
"nXnXnXnXnXnXnXnXnXnXnXnX(           # j f f .     .././.Q     # g g f g g f %     ] nXnXhXL R t X     -XnXnXnXnXnXnXnXnXnX",
"nXnXnXnXnXnXnXnXnXnXnXnX(           . f h f .     .././.Q .   . g f f f f f #     ] nXnXjXR R r X     -XnXnXnXnXnXnXnXnXnX",
"nXnXnXnXnXnXnXnXnXnXnXnX' = = ;     . h j 5 .     O.Q.Q.W     # g g f g f k % . . [ cXcX6Xs s t - = - ;XnXnXnXnXnXnXnXnXnX",
"nXnXnXnXnXnXnXnXnXnXnXnXcXxXxXXX    + t P t X     G =.=.z     $ S S Z S S S S S V K - - = X X < dXxXxXbXnXnXnXnXnXnXnXnXnX",
"nXnXnXnXnXnXnXnXnXnXnXnXnXnXnX#X    + R L r o     x Z Z l X   $ D D D D D D D D Z l           = xXnXnXnXnXnXnXnXnXnXnXnXnX",
"nXnXnXnXnXnXnXnXnXnXbXnXnXnXnX#X    + r L r o   X x Z Z l     2 D D D D D D F F Z l           = xXnXnXnXnXnXnXnXnXnXnXnXnX",
"nXnXnXnXnXnXnXnXbX' / / ^ ^ ^ 9 4 4 2 : : < >X;X;X9.Z Z B w w i D D D D D D y.z.z.2.N N K     = xXnXnXnXnXnXnXnXnXnXnXnXnX",
"nXnXnXnXnXnXnXnXbX7           % f f 4     ; xXnXnXe.A Z H L R W D D D D D Z z.N.N.l.4.5.-.    = xXnXnXnXnXnXnXnXnXnXnXnXnX",
"nXnXnXnXnXnXnXnXbX7           % h f 4     = gXnXnXe.A A U L L ! D Z Z Z Z Z z.N.N.z.4.4.N     = cXnXnXnXnXnXnXnXnXnXnXnXnX",
"nXnXnXnXnXxXJ.XX] i 6 6 o     . 2 % % < : < $.$X&X#X*X*X[ , , 6 U U U U U U 2.2.y.7.<.5.N     ; [ ] ] XX] ] XX] ] =XnXnXnX",
"nXnXnXnXnXdX      t R R >           O q u p 0 u 0 6XnXnX#X    @ y R d R R R B Z A *.5.<.N                         ^ nXnXnX",
"nXnXnXnXnXdX      t d R >           X i u p u u 0 ;XnXnX@X    : d d d d d d B Z Z *.5.5.N                         ^ nXnXnX",
"nXnXgX-X-X#X< : : r R R >     < Y Y Y p p p u u 0 @X-X-X[ 2 2 5 W W W W W W -.&.&.*.:.:.J       O + O : : : : & : a -X-X-X",
"nXnX#X    + r R R R R R >     ` lXlX8XR R L u u 0 &     5 Z Z &.4.4.4.4.4.4.4.4.5.,.Z &.v       0 u u s s R R R R w       ",
"nXnX#X    + L R R R L R >     ` lXlX8XR L d p u 0 +     5 &.Z &.4.4.4.4.4.4.4.4.5.,.Z A x     X 0 u u t R L L R R q       ",
"nXnX#X    @ L R L s s R :     ( 9X8X5XQ } E u 0 0 * # . l &.&.&.4.4.4.4.<.>.;.;.-.=.V C x . X X 0 u u s R L L R R w       ",
"nXnX#X    @ L R R p p u +     X ; = a wXeXrX7   X k A C &.<.>.<.4.4.4.F D &.2 . . .   . O 0 0 0 u u u s R L L R R w       ",
"nXnX#X    @ s R R e u u +           9 yXtX0X7     x D D =.4.4.4.4.4.4.F D D 2           O u u u u u u s R L R R R w       ",
"nXnX#X    @ R R d u u u +       X X 8 eXyX0X<     x D D =.4.4.4.4.4.4.F S D 2 X X .     O u u u u u u s R L L d R q X . X ",
"nXnX#X    O u p p u u u =     ( sXsX=X8 9 9 X     # % $ % 2 2 2 % 2 2 % $ $ #XsXsX'     O u u u u u u p u p 1 + & Y sXsXsX",
"nXnX#X    X u u u u u u +     [ nXnXdX                                      -XnXnX@X    X u u u u u u u u u :     ^ nXnXnX",
"nXnX#X    X u u u u u u +     ' nXnXsX                                      -XnXnX@X    X u u u u u u u u u <     ^ nXnXnX",
"nXnXfX#X#X] : & & & : & ' #X#XsXnXnXcX#X#X#X#X#X#X#X#X#X#X#X#X#X#X#X#X#X#X#XgXnXnXdX#X#X] & < & & & & & & : ( #X#X-XnXnXnX",
"nXnXnXnXnXdXX           =XnXnXnXnXnXnXnXnXnXnXnXnXnXnXnXnXnXnXnXnXnXnXnXnXnXnXnXnXnXnXnXsX                  ] nXnXnXnXnXnX",
"nXnXnXnXnXdXX           =XnXnXnXnXnXnXnXnXnXnXnXnXnXnXnXnXnXnXnXnXnXnXnXnXnXnXnXnXnXnXnX;X                  ] nXnXnXnXnXnX"
};
