/* XPM */
static char *right_3_[] = {
/* columns rows colors chars-per-pixel */
"58 64 235 2 ",
"   c #000001",
".  c #020B04",
"X  c #0E0C04",
"o  c #0B0B0B",
"O  c #060606",
"+  c #180D0B",
"@  c #150C08",
"#  c #031307",
"$  c #171718",
"%  c #1D1A0C",
"&  c #25150D",
"*  c #281612",
"=  c #291814",
"-  c #351D17",
";  c #062307",
":  c #092D09",
">  c #06250C",
",  c #0A3E0A",
"<  c #083808",
"1  c #083713",
"2  c #1E361E",
"3  c #0F2B10",
"4  c #382517",
"5  c #2D310D",
"6  c #262626",
"7  c #343435",
"8  c #383839",
"9  c #37312A",
"0  c #46271A",
"q  c #4B3A1D",
"w  c #583119",
"e  c #532E16",
"r  c #67391C",
"t  c #713E1E",
"y  c #4B2920",
"u  c #542F20",
"i  c #463C30",
"p  c #723E20",
"a  c #683B20",
"s  c #0D420D",
"d  c #0D4A11",
"f  c #0A4919",
"g  c #084517",
"h  c #194713",
"j  c #0D5516",
"k  c #0D5B1C",
"l  c #0B541B",
"z  c #195914",
"x  c #11490F",
"c  c #0F631D",
"v  c #0E681F",
"b  c #1E6216",
"n  c #16661E",
"m  c #266B19",
"M  c #2C7C1E",
"N  c #26761D",
"B  c #105821",
"V  c #2E502A",
"C  c #0F6D23",
"Z  c #0D6421",
"A  c #0F7326",
"S  c #0E7B29",
"D  c #0D7827",
"F  c #107526",
"G  c #107C29",
"H  c #167A28",
"J  c #196824",
"K  c #396225",
"L  c #3A6C37",
"P  c #58401B",
"I  c #73411F",
"U  c #7A4A1C",
"Y  c #575223",
"T  c #514D31",
"R  c #744120",
"E  c #784322",
"W  c #6C522B",
"Q  c #596A23",
"!  c #546A36",
"~  c #777339",
"^  c #3F7544",
"/  c #3F5B46",
"(  c #464645",
")  c #585858",
"_  c #59474E",
"`  c #69564C",
"'  c #6C5B4F",
"]  c #54754F",
"[  c #676667",
"{  c #767676",
"}  c #7C7C7D",
"|  c #6F6F70",
" . c #625F5F",
".. c #87592C",
"X. c #895B3A",
"o. c #905E2D",
"O. c #886737",
"+. c #946634",
"@. c #99733C",
"#. c #827238",
"$. c #A37A3E",
"%. c #A5773C",
"&. c #957616",
"*. c #89755D",
"=. c #966F4C",
"-. c #A47A42",
";. c #A47A43",
":. c #A87F59",
">. c #907D64",
",. c #865B44",
"<. c #178229",
"1. c #1D8335",
"2. c #248C29",
"3. c #23812B",
"4. c #328722",
"5. c #389A27",
"6. c #2E9629",
"7. c #3EA329",
"8. c #3FA528",
"9. c #2F831F",
"0. c #64A91B",
"q. c #528426",
"w. c #4A9026",
"e. c #758A36",
"r. c #41A429",
"t. c #43A82A",
"y. c #579C1B",
"u. c #328E47",
"i. c #3C944D",
"p. c #448E53",
"a. c #6C8252",
"s. c #63804D",
"d. c #5BB048",
"f. c #7D997D",
"g. c #AA8B13",
"h. c #B9B803",
"j. c #A7A70B",
"k. c #848939",
"l. c #A8823B",
"z. c #B79734",
"x. c #B28F30",
"c. c #8FA639",
"v. c #BBA62C",
"b. c #C4A929",
"n. c #D1BD21",
"m. c #CCAF2F",
"M. c #C9AD1D",
"N. c #A7D212",
"B. c #D9D804",
"V. c #DACA1A",
"C. c #D8C819",
"Z. c #D1C00A",
"A. c #E5D812",
"S. c #ECE40A",
"D. c #F2EC09",
"F. c #FEFE00",
"G. c #FCF70C",
"H. c #F1E816",
"J. c #E4D425",
"K. c #ECD02D",
"L. c #DFE221",
"P. c #B88B46",
"I. c #B18D5B",
"U. c #B18850",
"Y. c #998367",
"T. c #8F816A",
"R. c #A98E6E",
"E. c #AB8763",
"W. c #B99567",
"Q. c #BA9A74",
"!. c #AE926F",
"~. c #B9A377",
"^. c #CD9E4D",
"/. c #C59A46",
"(. c #D5A54D",
"). c #DEAC52",
"_. c #D8A750",
"`. c #CAA94C",
"'. c #E4B848",
"]. c #E1AE53",
"[. c #C19D71",
"{. c #C9A878",
"}. c #E3B86C",
"|. c #E7CE6D",
" X c #FFF360",
".X c #E9D654",
"XX c #2E509C",
"oX c #2B4E9C",
"OX c #5D6D98",
"+X c #6E738A",
"@X c #0195CC",
"#X c #22AFDB",
"$X c #02BCFE",
"%X c #1A8BAE",
"&X c #9A9A9A",
"*X c #878B87",
"=X c #92AA92",
"-X c #B8AB90",
";X c #9DB5AA",
":X c #B5B9B6",
">X c #A6AEA7",
",X c #D5B48C",
"<X c #D8B68C",
"1X c #DAB98F",
"2X c #D2B181",
"3X c #DCBB91",
"4X c #C7AD89",
"5X c #C8B5A8",
"6X c #B8C8B8",
"7X c #E3C59A",
"8X c #E9CCA3",
"9X c #F2D7AD",
"0X c #F8DEB4",
"qX c #ECD6AD",
"wX c #FFE6BD",
"eX c #FFE8BF",
"rX c #FBE1B7",
"tX c #DCC19B",
"yX c #B7C3DD",
"uX c #BDDACE",
"iX c #C7C7C7",
"pX c #D6D6D6",
"aX c #C6D0C9",
"sX c #D9EADD",
"dX c #FFEAC1",
"fX c #FFE6C1",
"gX c #FEF5D8",
"hX c #FFEED2",
"jX c #E4E4E4",
"kX c #EBEBEB",
"lX c #F2F3F2",
"zX c #FFFFFF",
"xX c #FAF8F4",
"cX c #F4F6EC",
"vX c #DDECE0",
/* pixels */
"zXzXzXzXzXzXzXzXzXzXzXzXzXzXzXzXzXzXzXzXzXzXzXlXu.D <.5.r.r.r.r.r.z s s c G G Y p I o.-.$.4XzXzXzXzXzXzXzXzXzXzXzXzX",
"zXzXzXzXzXzXzXzXzXzXzXzXzXzXzXzXzXzXzXzXzXzXzXlXu.D <.5.r.r.r.r.r.m , s c G <.K p t ..-.%.4XzXzXzXzXzXzXzXzXzXzXzXzX",
"zXzXzXzXzXzXzXzXzXzXzXzXzXzXzXzXzXzXlXlXlXlXcXvXu.<.S 5.r.r.r.r.r.m , s Z <.<.K p E o.$.%.{.zXxXxXxXxXxXzXzXzXzXzXzX",
"zXzXzXzXzXzXzXzXzXzXzXzXzXzXzXzXzXvXi.u.i.d.d.d.7.5.7.7.r.r.r.r.r.z , , N 7.6.e.%.@.b.S.D.J.}.}.}.E.I.{.zXzXzXzXzXzX",
"zXzXzXzXzXzXzXzXzXzXzXzXzXzXzXzXzXsX<.D <.5.r.5.7.7.r.r.r.r.r.r.r.z s , M 8.8.e.-.;.m.F.G.H.).]./.$.$.W.zXzXzXzXzXzX",
"zXzXzXzXzXzXzXzXzXzXzXxXxXxXxXxXcXsX1.S <.5.r.r.7.7.r.r.r.r.7.r.r.m , s M 7.8.e.-.=.n.F.F.H.).).^.-.$.W.xXxXzXzXzXzX",
"zXzXzXzXzXzXzXzXzXzXzXaX/ L ^ i.p.i.5.5.5.r.r.r.7.t.7.r.r.r.r.r.r.m s s 2.8.8.c._._./.z.x.x.P.;.b.S.H.J.W.W.~.xXzXzX",
"zXzXzXzXzXzXzXzXzXzXzX6Xs s f S D <.r.r.r.r.r.r.8.7.r.r.r.r.r.r.r.z s s M 8.7.c.].]./.;.;.;.-.;.z.F.F.S.$.$.I.xXzXzX",
"zXzXzXzXzXzXzXzXzXzXxX6Xs s j D G <.r.r.r.r.r.r.r.r.r.r.r.r.r.r.r.m , s 3.8.8.c.'.'./.l.$.$.-.-.v.F.F.S.-.$.I.xXzXzX",
"zXzXzXzXzXzXzXzX6X] ] L C C H 6.6.5.r.r.r.r.r.r.r.r.r.r.r.r.m z z M 4.4.N.B.B.L.H.H.K.^.^.^.(.^.^.z.z.b.A.S.L.W.Q.Q.",
"zXzXzXzXzXzXzXzX;X< s d <.G <.r.r.r.r.r.r.r.r.r.r.r.r.r.r.r.z , , 4.t.7.N.F.F.F.F.F.J.).].).].].^.-.;.z.F.F.D.l.$.$.",
"zXzXzXzXzXzXzXzX;Xs s j D G <.r.r.r.r.r.r.r.r.r.r.r.r.r.r.r.z s s 4.t.7.N.F.F.F.F.F.K.).].].].].^.$.-.z.F.F.D.l.$.-.",
"zXzXzXzXzX6X] p.^ v n C G G <.r.r.8.r.r.5.m b m z m z 5.r.r.z s s 4.t.r.c.b.b.V.F.F.V.P.P.-.+.o.%.^./.m.G.F.S.......",
"zXzXzXzXzX=X< s j D <.G G D <.r.r.r.r.r.5.x < , s s x 4.r.r.z , , 4.t.r.e.;.;.n.F.F.C.$.-.+.t t o.).].'.F.F.S.U t I ",
"zXzXzXzXzX=Xs s j <.G D G G <.t.r.r.r.r.5.x s s s , s 5.r.8.z s , 4.t.r.e.-.;.n.F.F.C.$.-.+.R t o.].].'.F.F.S.U t t ",
"zXzXzXzXxX=Xs s j D G G G G H 2.2.2.2.2.4.M M M M M M m m m M 9.M q.k.e.v.V.V.n.m.b.`.Q.[.W.E.E.E.P./.z.g.g.g.5X5X5X",
"zXzXzXzXzX=Xs s j G G G G G D G D G D D H 7.r.r.t.t.8.x s s 4.t.r.k.-.;.C.F.F.n.;.@.W.<X,X<X<X<X{.;.;.+.p a ,.xXzXzX",
"zXzXzXzXzX=X, , j G G G G G G G G G G G <.r.r.r.8.t.8.z , s 4.t.r.k.-.-.V.F.F.n.;.$.W.<X,X,X,X,X{.;.;.%.p t ,.lXzXzX",
"zXzX6Xf.f.p.c k Z G G G G G G G G G G G G 2.2.2.N m m c c c 3.2.2.e.-.-.V.F.F.K.W.W.2X8X8X7X,X<X!.q u W -X-X5XxXzXzX",
"zXzXf.< < j <.D G G G D G G G G D G G D G G H D s s s A G G D G G ~ -.;.V.F.F..X<X<X8XeXeX9X,X<XY.    8 zXzXzXzXzXzX",
"zXzXf.s , k G G G G G G G G G G G G G G G G G D d s s A G S D D S ~ ;.-.V.F.F..X,X,X8XfXeX9X<X1XY.    7 xXzXzXzXzXzX",
"zXzXf.s s k G G G G G G G S G G D G G G G c c k d s s k k k m ! K #.;.-.V.F.F..X8X8X-X>.>.>.E.:.'     8 xXzXzXzXzXzX",
"zXzXf.d s j G G G S G G G G G G G G G G D d s , s s s s s s P E R +.U.%.V.F.F. XfXdX>.    & p t w     8 xXzXzXzXzXzX",
"zXzXT.s s k G G G G G G G G G G G G G G F s , , , , , , s , a p R +.-.@.C.F.F. XfXfXT.    & I E e     7 zXzXzXzXzXzX",
"&X&X] , s k G G F c c k f f l c c c Z c F s.a.a.a.a.a.! ! ! W E R %.U./.m.C.C.|.fXeX-X[ [ ) _ _ _ T T ` &X&X>XxXzXzX",
"    ; s s k G G c s s :     . s s s s s V qXeXeXeXeXeX7X,X,XX.p t P.].].P.;.%.,XeXwXgXzXzXyXXXXXOX<X1XR.    6 kXzXzX",
"    ; s s z G G v s x :     . s s s s s V qXeXeXwXwXwX3X,X,XX.t I P.].]./.-.-.2XfXwXgXzXzXyXXXXXOX,X<XR.O   6 lXzXzX",
"    ; s s j C C j : : 2 ) ) ( : : : : : h 2X7X3XrXeXwX8X7X7X+.t I z.K.K.x.+.+.{.fXfXhXzXzXyXXXXXOX,X<XR.O   6 lXzXzX",
"    > s s s s x :     ( zXzXiX          @ @.-.U.9XeXeXeXwXwX=.t p Z.F.F.g.p p Q.eXwXgXzXzXyXoXoXOX,X<XR.O   6 lXzXzX",
"    > s s s s s :     ( zXzXiX          X @.$.U.9XeXeXeXwXwX=.t t Z.F.F.g.p t Q.eXwXhXzXzXyXoXoXOX1X3XR.    6 lXzXzX",
"    ; s s , : : 2 ( ( } zXzXpX( ( 7     o W W O.1X7X7X6XuXuXY.+.X.C.F.F.g.p t W.fXwXhXxXxXiXOXOX+XY.R.*.( (  .lXzXzX",
"    ; s s :     ) zXxXzXzXzXzXzXzXpXo       O @ O.U.U.#X$X$X;X{.<XK.F.F.g.a t Q.wXwXwXwXfX9X,X3X>.O   7 lXzXzXzXzXzX",
"    ; s s ;     ) zXzXzXzXzXzXzXzXpXo         . +.-.;.#X$X$X;X,X<XL.F.F.g.p t Q.dXeXeXdXeXqX<X3XY.    7 xXzXzXzXzXzX",
"7 7 2 < < 2 7 7 *XzXzXzXzXzXzXzXzXsX5 5 5 5 - 4 W X.~ %X@X@X=X|.|.K.A.B.g.X...Q.rX0X9X0X0XtXR.!.*.7 7  .xXzXzXzXzXzX",
"xXxX{     | xXlXxXzXzXzXzXzXzXzXzXgXG.F.D.(._./.= X O O O . h.F.G.g.a R :.,X,X,X1X,X,X,X1X*.O O ( xXxXxXzXzXzXzXzXzX",
"zXzX{     { zXzXzXzXzXzXzXzXzXzXzXgXG.F.F.'.).^.%           h.F.F.g.p p E.<X,X,X,X<X<X1X1X*.    ( zXzXzXzXzXzXzXzXzX",
"zXzX*X6 6 *XzXzXzXzXzXzXzXzXzXzXzXhXB.B.B.P./.P.% . .       h.G.G.&.w r =.-X~.~.~.~.~.Q.Q.*.6 6 [ zXzXzXzXzXzXzXzXzX",
"zXzXxXlXlXxXzXzXzXzXzXzXzXzXzXzXzXpX% X X X X X , , , .   O l.].'.q O   3 h h h h h 3 o o ) lXlXlXzXzXzXzXzXzXzXzXzX",
"zXzXzXzXzXzXzXzXzXzXzXzXzXzXzXzXzXpX#           , s s .     U.].].q     : s x s s s ;     ) zXzXzXzXzXzXzXzXzXzXzXzX",
"zXzXzXzXzXzXzXzXzXzXzXzXzXzXzXzXzXpX6 $ $ O   O , s s # . # #._.^.q     : x x s d d : . . ) jXkXkXzXzXzXzXzXzXzXzXzX",
"zXzXzXzXzXzXzXzXzXzXzXzXzXzXzXzXzXzXjXjXaX$     , s s Z F C H M 3.3     f G D F A A F C A l $ $ ) zXzXzXzXzXzXzXzXzX",
"zXzXzXzXzXzXzXzXzXzXzXzXzXzXzXzXzXzXzXzXjX$   O 1 s x C G G G S S >     f G G G G G G G D l     ( zXzXzXzXzXzXzXzXzX",
"zXzXzXzXzXzXzXzXzXzXzXzXzXzXzXzXzXzXzXzXjX$     < s s H 1.1.1.1.1.1     f G G G D G G G <.k X . ( lXlXlXzXzXzXzXzXzX",
"zXzXzXzXzXzXzXzXzXzXzXzXzXzXzXzXzXzXzXzXjX$     O . o :XvXvXvXvXvX(     f G S G G G G G D y.B.B.j.6 6 ) xXzXzXzXzXzX",
"zXzXzXzXzXzXzXzXzXzXzXzXzXzXzXzXzXzXzXzXjX$         O aXzXzXzXzXzX)     f G G G G G G G D 0.F.F.h.    7 xXzXzXzXzXzX",
"zXzXzXzXzXzXzXzXzXzXzXzXzXzXzXzXzXzXxXxXpX$         o iXxXxXxXxXxX)     f G G G D G H H A 0.G.F.h.    7 lXxXxXlXxXxX",
"zXzXzXzXzXzXzXzXzXzXzXzXzXzXzXzXzXpX8 8 7 Z Z k .   O _ ' ` ` ' ` =     f G G G G G K Y Y Q 5.w.m     o 7 7 7 7 7 7 ",
"zXzXzXzXzXzXzXzXzXzXzXzXzXzXzXzXzXpXO   . A S S X     - 0 y 0 0 0 +     f G G S G G K p p Y A S k                   ",
"zXzXzXzXzXzXzXzXzXzXzXzXzXzXzXzXzXpXo   . A G A #     4 y y y y y +     f H G G D D ! E E Y S G k                   ",
"zXzXzXzXzXzXzXzXzXzXzXzXzXzXpX( ( V B l l > > # e w u a a a u y y +     4 Y Y Y Y Y Q w.w.4.G G B     @ e w 0 O     ",
"zXzXzXzXzXzXzXzXzXzXzXzXzXzXiX    # D G A O   O r R R R R R u 0 y +     0 I R R t t Q t.r.6.G G k     + I I r O     ",
"zXzXzXzXzXzXzXzXzXzXzXzXzXzXiX    # D G C O   O r R R p p R u y y +     0 I R R p t Q r.r.6.S <.l     + t t r O     ",
"zXzXzXzXzXzXzXzXzXzXzXzXzXzXiXO   # D G C .   o >.W.!.4X,X,Xi @ + 1 k k K w.q.q.q.q.w.r.t.M > > 3 - - 4 p p w O     ",
"zXzXzXzXzXzXzXzXzXzXzXzXzXzXiX    # D G C .   o Q.<X1X0XfXfXi     l G G 6.r.r.t.r.r.r.r.t.m     @ y y u p E r O     ",
"zXzXzXzXzXzXzXzXzXzXzXzXzXzXiX    # D S C .   o Q.3X3X0XfXeX8     l G G 6.r.r.7.r.r.r.r.t.K     @ y y y R I r       ",
"zXzXzXzXzXzXzXzXzXzXzXzXzXzXkX&X&X*X1 1 > O   O i T T ` ` ` %     # 1 1 n 2.2.2.2.2.m h , 2 - = - y y 0 = - 4 &X&X&X",
"zXzXzXzXzXzXzXzXzXzXzXzXzXzXzXzXzXpXo                                   f S S S S S g     + y y y y y -     6 xXzXzX",
"zXzXzXzXzXzXzXzXzXzXzXzXzXzXzXzXzXpXo                                   f G G G S <.g     @ y y y y y -     6 lXzXzX",
"zXzXzXzXzXzXzXzXzXzXzXzXzXzXzXzXzXpXo   O * & * * * & O                 > 1 1 1 1 g ( *X*X .& & * * & 9 *X*X&XxXzXzX",
"zXzXzXzXzXzXzXzXzXzXzXzXzXzXzXzXzXpXo   O 0 y y y y y o                       O     | zXzX>X          7 zXzXzXzXzXzX",
"zXzXzXzXzXzXzXzXzXzXzXzXzXzXzXzXzXpXO     0 y y y y y X                             [ zXzX>X          7 xXzXzXzXzXzX",
"zXzXzXzXzXzXzXzXzXzXzXzXzXzXzXzXzXjX} { | - * * * * * O     ) { { { { { { { { { { { :XzXzXaX{ { { { { &XzXzXzXzXzXzX",
"zXzXzXzXzXzXzXzXzXzXzXzXzXzXzXzXzXzXzXzXjX$                 iXzXzXzXzXzXzXzXzXzXzXzXzXzXzXzXzXzXzXzXxXzXzXzXzXzXzXzX",
"zXzXzXzXzXzXzXzXzXzXzXzXzXzXzXzXzXzXzXzXjX$                 :XzXzXzXzXzXzXzXzXzXzXzXzXzXzXzXzXzXzXzXzXzXzXzXzXzXzXzX"
};
