/* XPM */
static char *result[] = {
/* columns rows colors chars-per-pixel */
"84 109 14 1 ",
"  c #000001",
". c #4A2920",
"X c #0D420D",
"o c #107B29",
"O c #734120",
"+ c #A47B41",
"@ c #41A429",
"# c yellow",
"$ c #DEAC52",
"% c #31529C",
"& c #00BAFF",
"* c #D5B48B",
"= c #FFE6BD",
"- c white",
/* pixels */
"------------------------ooooo@@@@@@@@@@@@@@@XXXXXoooooOOOOO+++++--------------------",
"------------------------ooooo@@@@@@@@@@@@@@@XXXXXoooooOOOOO+++++--------------------",
"------------------------ooooo@@@@@@@@@@@@@@@XXXXXoooooOOOOO+++++--------------------",
"------------------------ooooo@@@@@@@@@@@@@@@XXXXXoooooOOOOO+++++--------------------",
"------------------------ooooo@@@@@@@@@@@@@@@XXXXXoooooOOOOO+++++--------------------",
"--------------oooooooooo@@@@@@@@@@@@@@@@@@@@XXXXX@@@@@##########$$$$$+++++----------",
"--------------oooooooooo@@@@@@@@@@@@@@@@@@@@XXXXX@@@@@##########$$$$$+++++----------",
"--------------oooooooooo@@@@@@@@@@@@@@@@@@@@XXXXX@@@@@##########$$$$$+++++----------",
"--------------oooooooooo@@@@@@@@@@@@@@@@@@@@XXXXX@@@@@##########$$$$$+++++----------",
"--------------oooooooooo@@@@@@@@@@@@@@@@@@@@XXXXX@@@@@##########$$$$$+++++----------",
"---------XXXXXooooo@@@@@@@@@@@@@@@@@@@@XXXXX@@@@@$$$$$$$$$$++++++++++#####+++++-----",
"---------XXXXXooooo@@@@@@@@@@@@@@@@@@@@XXXXX@@@@@$$$$$$$$$$++++++++++#####+++++-----",
"---------XXXXXooooo@@@@@@@@@@@@@@@@@@@@XXXXX@@@@@$$$$$$$$$$++++++++++#####+++++-----",
"---------XXXXXooooo@@@@@@@@@@@@@@@@@@@@XXXXX@@@@@$$$$$$$$$$++++++++++#####+++++-----",
"---------XXXXXooooo@@@@@@@@@@@@@@@@@@@@XXXXX@@@@@$$$$$$$$$$++++++++++#####+++++-----",
"----XXXXXooooooooooooooo@@@@@@@@@@@@@@@XXXXX@@@@@+++++#####+++++$$$$$+++++#####+++++",
"----XXXXXooooooooooooooo@@@@@@@@@@@@@@@XXXXX@@@@@+++++#####+++++$$$$$+++++#####+++++",
"----XXXXXooooooooooooooo@@@@@@@@@@@@@@@XXXXX@@@@@+++++#####+++++$$$$$+++++#####+++++",
"----XXXXXooooooooooooooo@@@@@@@@@@@@@@@XXXXX@@@@@+++++#####+++++$$$$$+++++#####+++++",
"----XXXXXooooooooooooooo@@@@@@@@@@@@@@@XXXXX@@@@@+++++#####+++++$$$$$+++++#####+++++",
"----XXXXXoooooooooooooooXXXXXXXXXXXXXXX@@@@@#####+++++#####*****OOOOO$$$$$#####OOOOO",
"----XXXXXoooooooooooooooXXXXXXXXXXXXXXX@@@@@#####+++++#####*****OOOOO$$$$$#####OOOOO",
"----XXXXXoooooooooooooooXXXXXXXXXXXXXXX@@@@@#####+++++#####*****OOOOO$$$$$#####OOOOO",
"----XXXXXoooooooooooooooXXXXXXXXXXXXXXX@@@@@#####+++++#####*****OOOOO$$$$$#####OOOOO",
"----XXXXXoooooooooooooooXXXXXXXXXXXXXXX@@@@@#####+++++#####*****OOOOO$$$$$#####OOOOO",
"XXXXooooooooooooooooooooooooooooooXXXXXooooo#####++++++++++**********OOOOO+++++-----",
"XXXXooooooooooooooooooooooooooooooXXXXXooooo#####++++++++++**********OOOOO+++++-----",
"XXXXooooooooooooooooooooooooooooooXXXXXooooo#####++++++++++**********OOOOO+++++-----",
"XXXXooooooooooooooooooooooooooooooXXXXXooooo#####++++++++++**********OOOOO+++++-----",
"XXXXooooooooooooooooooooooooooooooXXXXXooooo#####++++++++++**********OOOOO+++++-----",
"XXXXooooooooooXXXXXXXXXXoooooXXXXXooooo++++++++++#####*****=====*****     ----------",
"XXXXooooooooooXXXXXXXXXXoooooXXXXXooooo++++++++++#####*****=====*****     ----------",
"XXXXooooooooooXXXXXXXXXXoooooXXXXXooooo++++++++++#####*****=====*****     ----------",
"XXXXooooooooooXXXXXXXXXXoooooXXXXXooooo++++++++++#####*****=====*****     ----------",
"XXXXooooooooooXXXXXXXXXXoooooXXXXXooooo++++++++++#####*****=====*****     ----------",
"    oooooXXXXX     XXXXXXXXXXoooooXXXXXOOOOO+++++#####=====     OOOOO     ----------",
"    oooooXXXXX     XXXXXXXXXXoooooXXXXXOOOOO+++++#####=====     OOOOO     ----------",
"    oooooXXXXX     XXXXXXXXXXoooooXXXXXOOOOO+++++#####=====     OOOOO     ----------",
"    oooooXXXXX     XXXXXXXXXXoooooXXXXXOOOOO+++++#####=====     OOOOO     ----------",
"    oooooXXXXX     XXXXXXXXXXoooooXXXXXOOOOO+++++#####=====     OOOOO     ----------",
"    XXXXXXXXXX     XXXXX==========*****OOOOO$$$$$+++++=====-----%%%%%*****     -----",
"    XXXXXXXXXX     XXXXX==========*****OOOOO$$$$$+++++=====-----%%%%%*****     -----",
"    XXXXXXXXXX     XXXXX==========*****OOOOO$$$$$+++++=====-----%%%%%*****     -----",
"    XXXXXXXXXX     XXXXX==========*****OOOOO$$$$$+++++=====-----%%%%%*****     -----",
"    XXXXXXXXXX     XXXXX==========*****OOOOO$$$$$+++++=====-----%%%%%*****     -----",
"    ooooo     -----     +++++==========     #####OOOOO=====-----%%%%%*****     -----",
"    ooooo     -----     +++++==========     #####OOOOO=====-----%%%%%*****     -----",
"    ooooo     -----     +++++==========     #####OOOOO=====-----%%%%%*****     -----",
"    ooooo     -----     +++++==========     #####OOOOO=====-----%%%%%*****     -----",
"    ooooo     -----     +++++==========     #####OOOOO=====-----%%%%%*****     -----",
"    XXXXX     -----          +++++&&&&&     #####OOOOO==========*****     ----------",
"    XXXXX     -----          +++++&&&&&     #####OOOOO==========*****     ----------",
"    XXXXX     -----          +++++&&&&&     #####OOOOO==========*****     ----------",
"    XXXXX     -----          +++++&&&&&     #####OOOOO==========*****     ----------",
"    XXXXX     -----          +++++&&&&&     #####OOOOO==========*****     ----------",
"----     ----------#####$$$$$               #####OOOOO**********     ---------------",
"----     ----------#####$$$$$               #####OOOOO**********     ---------------",
"----     ----------#####$$$$$               #####OOOOO**********     ---------------",
"----     ----------#####$$$$$               #####OOOOO**********     ---------------",
"----     ----------#####$$$$$               #####OOOOO**********     ---------------",
"------------------------     XXXXXooooo     $$$$$     XXXXX     --------------------",
"------------------------     XXXXXooooo     $$$$$     XXXXX     --------------------",
"------------------------     XXXXXooooo     $$$$$     XXXXX     --------------------",
"------------------------     XXXXXooooo     $$$$$     XXXXX     --------------------",
"------------------------     XXXXXooooo     $$$$$     XXXXX     --------------------",
"------------------------     ooooo     OOOOO     ooooooooooooooo     ---------------",
"------------------------     ooooo     OOOOO     ooooooooooooooo     ---------------",
"------------------------     ooooo     OOOOO     ooooooooooooooo     ---------------",
"------------------------     ooooo     OOOOO     ooooooooooooooo     ---------------",
"------------------------     ooooo     OOOOO     ooooooooooooooo     ---------------",
"------------------------     ooooo     oooooooooo     oooooooooo#####     ----------",
"------------------------     ooooo     oooooooooo     oooooooooo#####     ----------",
"------------------------     ooooo     oooooooooo     oooooooooo#####     ----------",
"------------------------     ooooo     oooooooooo     oooooooooo#####     ----------",
"------------------------     ooooo     oooooooooo     oooooooooo#####     ----------",
"-------------------     ..........     ----------     OOOOOOOOOOooooo     ----------",
"-------------------     ..........     ----------     OOOOOOOOOOooooo     ----------",
"-------------------     ..........     ----------     OOOOOOOOOOooooo     ----------",
"-------------------     ..........     ----------     OOOOOOOOOOooooo     ----------",
"-------------------     ..........     ----------     OOOOOOOOOOooooo     ----------",
"-------------------     ooooo.....     ..........     @@@@@@@@@@@@@@@     ----------",
"-------------------     ooooo.....     ..........     @@@@@@@@@@@@@@@     ----------",
"-------------------     ooooo.....     ..........     @@@@@@@@@@@@@@@     ----------",
"-------------------     ooooo.....     ..........     @@@@@@@@@@@@@@@     ----------",
"-------------------     ooooo.....     ..........     @@@@@@@@@@@@@@@     ----------",
"------------------------     @@@@@     OOOOOOOOOO     ooooo@@@@@     ---------------",
"------------------------     @@@@@     OOOOOOOOOO     ooooo@@@@@     ---------------",
"------------------------     @@@@@     OOOOOOOOOO     ooooo@@@@@     ---------------",
"------------------------     @@@@@     OOOOOOOOOO     ooooo@@@@@     ---------------",
"------------------------     @@@@@     OOOOOOOOOO     ooooo@@@@@     ---------------",
"-----------------------------          *****=====               --------------------",
"-----------------------------          *****=====               --------------------",
"-----------------------------          *****=====               --------------------",
"-----------------------------          *****=====               --------------------",
"-----------------------------          *****=====               --------------------",
"----------------------------------               ..........OOOOO     ---------------",
"----------------------------------               ..........OOOOO     ---------------",
"----------------------------------               ..........OOOOO     ---------------",
"----------------------------------               ..........OOOOO     ---------------",
"----------------------------------               ..........OOOOO     ---------------",
"---------------------------------------          .....OOOOOOOOOO     ---------------",
"---------------------------------------          .....OOOOOOOOOO     ---------------",
"---------------------------------------          .....OOOOOOOOOO     ---------------",
"---------------------------------------          .....OOOOOOOOOO     ---------------",
"---------------------------------------          .....OOOOOOOOOO     ---------------",
"-------------------------------------------------               --------------------",
"-------------------------------------------------               --------------------",
"-------------------------------------------------               --------------------",
"-------------------------------------------------               --------------------"
};
