/* XPM */
static char *right_1_[] = {
/* columns rows colors chars-per-pixel */
"49 64 228 2 ",
"   c #010101",
".  c #070708",
"X  c #080C05",
"o  c #130B09",
"O  c #170D08",
"+  c #031306",
"@  c #061B08",
"#  c #1D120B",
"$  c #0F0F10",
"%  c #1A1B1B",
"&  c #25150C",
"*  c #2C1913",
"=  c #361E14",
"-  c #07260A",
";  c #15290C",
":  c #0A3C0B",
">  c #0B340B",
",  c #083A13",
"<  c #163113",
"1  c #2E251B",
"2  c #382617",
"3  c #2E371A",
"4  c #282828",
"5  c #272827",
"6  c #3B3227",
"7  c #353435",
"8  c #342E28",
"9  c #002A3A",
"0  c #4A2B15",
"q  c #45261A",
"w  c #54371B",
"e  c #6F3C1C",
"r  c #713E1E",
"t  c #4A2920",
"y  c #472D20",
"u  c #512D20",
"i  c #453825",
"p  c #563622",
"a  c #5A3C34",
"s  c #453F39",
"d  c #623720",
"f  c #713E20",
"g  c #0D420D",
"h  c #08440C",
"j  c #0D4C12",
"k  c #0A4515",
"l  c #174A15",
"z  c #0E5315",
"x  c #0E5B1B",
"c  c #0B531B",
"v  c #185A15",
"b  c #264512",
"n  c #215215",
"m  c #0F641E",
"M  c #0F681F",
"N  c #1E6318",
"B  c #2A721B",
"V  c #135521",
"C  c #30482C",
"Z  c #0D6221",
"A  c #0F6C22",
"S  c #156824",
"D  c #0F7326",
"F  c #0E7B29",
"G  c #0C7926",
"H  c #107425",
"J  c #107C29",
"K  c #177628",
"L  c #227225",
"P  c #357327",
"I  c #585801",
"U  c #585701",
"Y  c #4C490E",
"T  c #73401F",
"R  c #735E15",
"E  c #494B2E",
"W  c #6B4A21",
"Q  c #744120",
"!  c #6D4E35",
"~  c #46652A",
"^  c #46782D",
"/  c #7E632F",
"(  c #013A50",
")  c #3F4A40",
"_  c #484849",
"`  c #5A5A5B",
"'  c #534951",
"]  c #695A4B",
"[  c #4B774D",
"{  c #726D4E",
"}  c #797977",
"|  c #5A5466",
" . c #885C1A",
".. c #87572C",
"X. c #885937",
"o. c #8B6334",
"O. c #966A38",
"+. c #9A7734",
"@. c #A47A3E",
"#. c #936643",
"$. c #A17742",
"%. c #A47A42",
"&. c #A67E49",
"*. c #A77D51",
"=. c #8B7E68",
"-. c #A17F6B",
";. c #2F821F",
":. c #158129",
">. c #1A8429",
",. c #1D8235",
"<. c #338921",
"1. c #348421",
"2. c #3B9E29",
"3. c #379627",
"4. c #25873B",
"5. c #2D8F26",
"6. c #3DA229",
"7. c #3CA027",
"8. c #6EB51C",
"9. c #459C28",
"0. c #709430",
"q. c #41A429",
"w. c #43A82A",
"e. c #5DA531",
"r. c #7EA439",
"t. c #39904D",
"y. c #618361",
"u. c #5A965D",
"i. c #AEAD03",
"p. c #B79638",
"a. c #AB8638",
"s. c #86A533",
"d. c #A7B91B",
"f. c #C4AF0D",
"g. c #D1BD1F",
"h. c #C5AA29",
"j. c #CAB226",
"k. c #D1BD21",
"l. c #D2B336",
"z. c #8FC818",
"x. c #A9CC15",
"c. c #DBCA1B",
"v. c #D8C61D",
"b. c #D6D500",
"n. c #E4D713",
"m. c #EDE40D",
"M. c #F9F604",
"N. c #FFFF00",
"B. c #F9F307",
"V. c #F2F00B",
"C. c #E8C43D",
"Z. c #F3DE23",
"A. c #FFFF29",
"S. c #9F805F",
"D. c #A9824A",
"F. c #B78A45",
"G. c #AB8559",
"H. c #B18B55",
"J. c #B7915A",
"K. c #BD9346",
"L. c #8F8B6A",
"P. c #BA966D",
"I. c #AC9174",
"U. c #89AE72",
"Y. c #BFA043",
"T. c #C08E44",
"R. c #C59649",
"E. c #D7A74F",
"W. c #DEAB52",
"Q. c #D5A750",
"!. c #DDB248",
"~. c #E1AE53",
"^. c #E2B156",
"/. c #E3B44D",
"(. c #CAA776",
"). c #D0A666",
"_. c #E8D64B",
"`. c #FBEE5A",
"'. c #E1C965",
"]. c #2C4E9A",
"[. c #31529C",
"{. c #0087B9",
"}. c #788DBE",
"|. c #4493A8",
" X c #02BBFC",
".X c #778EC0",
"XX c #60CBE7",
"oX c #868685",
"OX c #959394",
"+X c #938E8D",
"@X c #A99A90",
"#X c #B39E80",
"$X c #B8AA8E",
"%X c #BABABA",
"&X c #B2B2B2",
"*X c #A9A8A7",
"=X c #CFAF87",
"-X c #D1AF84",
";X c #D5B48B",
":X c #D8B68A",
">X c #CFB590",
",X c #AFC0AF",
"<X c #E4C59C",
"1X c #E9D4AB",
"2X c #EBD4B0",
"3X c #FFE6BC",
"4X c #FEE6BD",
"5X c #F5F4B5",
"6X c #DFD1BE",
"7X c #C9C9C9",
"8X c #C4C4C4",
"9X c #D4D4D4",
"0X c #D7D9D7",
"qX c #C8D5C9",
"wX c #D6E3D7",
"eX c #FFEAC1",
"rX c #FFE8C3",
"tX c #EDE4D9",
"yX c #FFF5D1",
"uX c #DDECE1",
"iX c #EDECEC",
"pX c #E4E7E4",
"aX c #F2ECE3",
"sX c #FDF4E6",
"dX c #F1F1F1",
"fX c #FFFFFF",
"gX c #FDFDF0",
"hX c #E5F1E8",
/* pixels */
"fXfXfXfXfXfXfXfXfXfXfXfXfXhX4.F >.q.q.q.q.q.q.q.q.;.g g x K F ~ e r o.@.@.6XfXfXfXfXfXfXfXfXfXfXfX",
"fXfXfXfXfXfXfXfXfXfXfXfXfXhX4.F J q.q.q.q.q.q.7.w.;.g g x F F ~ r r o.@.@.6XfXfXfXfXfXfXfXfXfXfXfX",
"fXfXfXfXfXfXfXfXuXuXuXuXuXqX4.:.>.q.q.q.q.q.q.9.q.;.g : m >.:.^  . .+.a.a.1XsXsXaXaXaXgXfXfXfXfXfX",
"fXfXfXfXfXfXfXfXu.,.,.4.4.4.6.6.7.q.q.q.q.q.q.q.q.;.g g N 6.2.x.M.M.M.M.M._.).^.J.D.G.tXfXfXfXfXfX",
"fXfXfXfXfXfXfXgXt.G J F :.:.6.6.q.q.q.q.q.q.q.q.w.;.: : N q.6.z.N.N.N.N.N.C./.~.F.$.&.tXfXfXfXfXfX",
"fXfXfXfXfXuX0X9Xt.G J >.:.>.6.6.q.q.7.q.6.q.9.3.3.B v v B e.e.x.B.V.V.m.m.l.E.E.p.p.p.6XtXtXfXfXfX",
"fXfXfXfXfX[ l l K J J 2.6.6.w.6.q.q.q.q.q.w.<.j j N q.2.s.W.!.W.~.~.T.%.a.%.@.%.n.N.M.p.D.H.aXfXfX",
"fXfXfXfXfX[ > g A J J 2.w.q.w.w.q.q.q.q.q.q.<.g g N q.q.s.^.W.W.W.~.K.%.%.%.%.@.n.N.M.p.$.D.tXfXfX",
"fXfXwXqXqX[ j j H J K 5.2.2.6.q.q.q.q.q.q.q.<.g g N w.6.r.Q.Q.!./.C.K.@.&.D.F.a.v.m.n.h.p.p.6XtXtX",
"fXfXy.h g A J J J J J J F :.2.q.q.q.q.q.q.q.<.g g N w.6.0.%.$.k.N.N.j.%.&.R.W.W.F.%.a.m.N.M.p.D.%.",
"fXfXy.: g M J J J J J J J :.6.w.w.w.q.w.q.w.<.g h N w.6.0.$.$.k.N.N.j.$.%.R.~.~.F.%.%.m.N.M.p.%.%.",
"fXfXy.h g M J J J J J J J J ;.<.<.<.1.<.1.<.B N N B 8.8.s.$.%.k.N.N.l.H.H.K.T.T.F.F.F.m.N.M.+.O.O.",
"fXfXy.: g A J J J J J F J H k g g g g g g g v q.q.8.N.N.v.%.%.k.N.N._.>X;X#.f Q T.~.~.V.N.B. .f T ",
"fXfXy.: g A J J J J J J J J j : g g g g g g v w.q.z.N.N.v.%.$.k.N.N._.>X:X#.f Q T.^.^.V.M.M. .e r ",
",X,X[ z z A J F J J J J J K z z z x z z g g v 5.5.8.N.N.v.%.$.h.n.n.^.:X:XG.#.#.&.F.T.v.n.c.J.-.S.",
"h h M G J J J F J F J J J J J J J J J A g g c F G 8.N.N.v.%.%.&.%.%.P.>X;X>X;X;XO.r r O.%.&.aXfXfX",
"h g M J J J J J J J J J J J J J J J J A g g z F D e.N.N.v.@.$.$.@.@.P.:X;X>X;X;Xo.T Q O.@.&.aXfXfX",
"g g M J J J J G A M M m M M J J J m M M x z N ^ ^ s.c.c.g.h.h.h.J.J.:X<X1X:X;X;X! q 0 I.=X>XdXfXfX",
"g g m J J J J G j g g g : g H J D g g j J F P D.%.%.%.$.j.N.N._.>X;X1X3X3X<X;X;X6   . 7XfXfXfXfXfX",
"g g M J J J J K j g g g g j H :.H g : j J :.P &.%.%.%.%.j.N.N._.;X;X2XeXeX<X:X;X6   . 7XfXfXfXfXfX",
"- - x :.J M m x > @ - : g g x m m x x x Z Z P ....O.%.%.j.N.N.`.<X1X#X=.=.-.*.*.1   . 7XfXfXfXfXfX",
"    c J J z g g +     : g g g g j J J A g g 3 f e / %.%.j.N.N.`.rXeX]     0 Q f #   . 7XfXfXfXfXfX",
"    c J J j g : +   . > g g l : h G D A h h b T T ..%.%.j.N.N.`.4X4X]   . 0 Q f &   . 7XfXfXfXfXfX",
"    : m x j g g +     > g n u.L.L.U.U.U.0.{ { T T o.R.R.R.k.k.'.eX4X*XoXoX| ' ' ] ] ] } } oXiXfXfX",
"    - g g g g : X     : g n 2XeXeXeXeX3X:X:XP.Q Q O.~.~.R.$.$.(.eX4XsXfXfX}.].[.@X:X;X1   $ 0XfXfX",
"    - g g : g g +     > g n 2XeXeX4X4X2X:X:XP.Q Q O.~.~.R.$.%.-X4X3XsXfXfX}.].[.@X:X;X1   $ 0XfXfX",
"    k m m > @ @ } OX+X< @ < P.(.(.3X4X3X2X2XP.= & R Z.Z.h...X.P.4X4XsXfXfX}.].[.@X;X;X1   $ 0XfXfX",
"    c :.F -   . 7XfXdX4   X O.@.H.3X3X3XeXeX$X    U N.N.f.f r P.eX4XsXfXfX}.].[.@X;X=X1   $ 0XfXfX",
"    c J J -   . 7XfXiX4   $ +.%.H.3X3X3X3XeX$X    I N.N.f.f e P.rX3XsXfXfX}.].[.@X:X-X1   $ 0XfXfX",
"    : x z @   . 7XfXdX4   . 2 2 Y P.(.$XXXXX|.    I N.N.f.f e P.rX3XrXyXyX&X+X+X] s E +X*X*XdXfXfX",
"    - g g +   . 7XfXiX4         # +.%.y. X X{.    I N.N.f.f r P.3X3X3X3X3X<X:X:X6   . 7XfXfXfXfXfX",
"    - g g +   . 7XfXiX4         # O.%.L. X X{.    I N.N.f.f r P.rX3X3X3X3X<X:X:X6   . 8XfXfXfXfXfX",
"&X&XC + X }.&X&XhXfXgXj.i.i.+.@.o.2 2 5 ( ( (     U N.N.f.f r -.<X<X<X<X<X{ y s +X&X&XiXfXfXfXfXfX",
"fXfX`     %XfXfXfXfXgXA.N.N./.~.R.X               U N.N.f.r r *.;X;X;X;X;Xi     %XfXfXfXfXfXfXfXfX",
"fXfX`   . %XfXfXfXfXgXA.N.B.!.W.K.X               U N.N.f.f f *.;X;X;X;X-Xs   . %XfXfXfXfXfXfXfXfX",
"fXfX9X%X%XaXfXfXfXfXfXyX5X5XE 2 2 > > , x x k     Y C.C.+.O # 3 ~ P 6 8 8 +X8X%XiXfXfXfXfXfXfXfXfX",
"fXfXfXfXfXfXfXfXfXfXfXfXfXpX%   + : g j J J x     i W.^./     - h h @     *XfXfXfXfXfXfXfXfXfXfXfX",
"fXfXfXfXfXfXfXfXfXfXfXfXfXpX%   . h g j H J x     w W.W./     - g k @     *XfXdXfXfXfXfXfXfXfXfXfX",
"fXfXfXfXfXfXfXfXfXfXfXfXfXpX%   + m D m @ @ ; w d 0 1 * < S Z S A H Z Z Z C 7 7 8XfXfXfXfXfXfXfXfX",
"fXfXfXfXfXfXfXfXfXfXfXfXfXpX%   + G F m     & T T 0     , J F J J J F F F >     %XfXfXfXfXfXfXfXfX",
"fXfXfXfXfXfXfXfXfXfXfXfXfXpX%   + D J Z     # Q W 0 .   , D D F J J J J G > X o &XdXdXfXfXfXfXfXfX",
"fXfXfXfXfXfXfXfXfXfXfXfXfXpX%   + D J Z     @ K L S A A k + @ k J J F J H z.b.b.W 5 7 qXfXfXfXfXfX",
"fXfXfXfXfXfXfXfXfXfXfXfXfXpX%   + D J Z .   - J F F F :.k     , J K J F G x.N.N.Y   . 7XfXfXfXfXfX",
"fXfXfXfXfXfXfXfXfXfXfXiXpX9X%   @ S K Z     - 4.4.4.4.4.V     , K K K K D x.V.V.b   . 7XfXfXfXfXfX",
"fXfXfXfXfXfXfXfXfXfXdX_ % 5 2 q t y y 8     ) uXpXhXuXhXoX    = W W W W W ^ 5.5.;   . 7XfXfXfXfXfX",
"fXfXfXfXfXfXfXfXfXfXdX5     t t t t u =     _ fXfXfXfXfXOX    = Q Q T Q f B F J -   . 7XfXfXfXfXfX",
"fXfXfXfXfXfXfXfXfXfXdX4   . 8 y y y t =     s pXpXpXaXiXoX    2 W W W Q Q P J J @   . 7XfXfXfXfXfX",
"fXfXfXfXfXfXfXfXfXfXiX5   . S K S y u 2     $ a a a a a 1     n q.9.9.9.9.q.9.7.;   . 7XfXfXfXfXfX",
"fXfXfXfXfXfXfXfXfXfXdX4   + D F K 0 t q     o t t t t t *     n w.w.q.q.q.q.q.q.;   . 8XfXfXfXfXfX",
"fXfXfXfXfXfXfXfXfXfXdX_ 4 4 Z A x i i 2     O 0 t u u u *     l 7.2.7.q.q.3.<.<.C 4 4 9XfXfXfXfXfX",
"fXfXfXfXfXfXfXfXfXfXfXdXdX0X%   - 9.q.P .   # T f Q Q Q q     , :.J 3.q.q.< . X &XdXdXfXfXfXfXfXfX",
"fXfXfXfXfXfXfXfXfXfXfXfXfXpX%   @ 9.w.;.    & e Q r r f q     , :.F 3.w.w.:   . %XfXfXfXfXfXfXfXfX",
"fXfXfXfXfXfXfXfXfXfXfXfXfXiX_ 7 C P 1.B     * X.X.X.o.#.p     , Z Z L <.;.C 7 7 7XfXfXfXfXfXfXfXfX",
"fXfXfXfXfXfXfXfXfXfXfXfXfXfXdXfX9X$         6 ;X=X<X3X4XL.          .     *XfXdXfXfXfXfXfXfXfXfXfX",
"fXfXfXfXfXfXfXfXfXfXfXfXfXfXfXfX9X$         6 :X;X<XeXyXL.                *XfXfXfXfXfXfXfXfXfXfXfX",
"fXfXfXfXfXfXfXfXfXfXfXfXfXfXfXfXpX_ _ 7     5 S.S.I.$X>X{ o $ o o o O # O oX8X%XiXfXfXfXfXfXfXfXfX",
"fXfXfXfXfXfXfXfXfXfXfXfXfXfXfXfXfXfXfX7X.           .   # t t t q t e f Q &   . %XfXfXfXfXfXfXfXfX",
"fXfXfXfXfXfXfXfXfXfXfXfXfXfXfXfXfXfXfX8X.               # t t t t t d Q Q &     %XfXfXfXfXfXfXfXfX",
"fXfXfXfXfXfXfXfXfXfXfXfXfXfXfXfXfXfXfX0X' ' 7           # t t u p u d Q Q &     %XfXfXfXfXfXfXfXfX",
"fXfXfXfXfXfXfXfXfXfXfXfXfXfXfXfXfXfXfXfXfXfX%X        . & t t p f Q Q T Q &     %XfXfXfXfXfXfXfXfX",
"fXfXfXfXfXfXfXfXfXfXfXfXfXfXfXfXfXfXfXfXfXfX%X          # t t d Q Q Q Q Q & .   %XfXfXfXfXfXfXfXfX",
"fXfXfXfXfXfXfXfXfXfXfXfXfXfXfXfXfXfXfXfXfXfX9X` | ` ` ` E * * q 0 0 0 0 0 ' ` ` 9XfXfXfXfXfXfXfXfX",
"fXfXfXfXfXfXfXfXfXfXfXfXfXfXfXfXfXfXfXfXfXfXfXfXfXfXfXfXOX                *XfXfXfXfXfXfXfXfXfXfXfX",
"fXfXfXfXfXfXfXfXfXfXfXfXfXfXfXfXfXfXfXfXfXfXfXfXfXfXfXfXOX                *XfXfXfXfXfXfXfXfXfXfXfX"
};
