/* XPM */
static char *result[] = {
/* columns rows colors chars-per-pixel */
"94 99 14 1 ",
"  c #000001",
". c #4A2920",
"X c #0D420D",
"o c #107B29",
"O c #734120",
"+ c #A47B41",
"@ c #41A429",
"# c yellow",
"$ c #DEAC52",
"% c #31529C",
"& c #00BAFF",
"* c #D5B48B",
"= c #FFE6BD",
"- c white",
/* pixels */
"-----------------------------@@@@@@@@@@@@@@@@@@@@XXXXX@@@@@OOOOO+++++-------------------------",
"-----------------------------@@@@@@@@@@@@@@@@@@@@XXXXX@@@@@OOOOO+++++-------------------------",
"-----------------------------@@@@@@@@@@@@@@@@@@@@XXXXX@@@@@OOOOO+++++-------------------------",
"-----------------------------@@@@@@@@@@@@@@@@@@@@XXXXX@@@@@OOOOO+++++-------------------------",
"-----------------------------@@@@@@@@@@@@@@@@@@@@XXXXX@@@@@OOOOO+++++-------------------------",
"--------------XXXXX@@@@@@@@@@@@@@@@@@@@@@@@@XXXXX@@@@@##########$$$$$+++++--------------------",
"--------------XXXXX@@@@@@@@@@@@@@@@@@@@@@@@@XXXXX@@@@@##########$$$$$+++++--------------------",
"--------------XXXXX@@@@@@@@@@@@@@@@@@@@@@@@@XXXXX@@@@@##########$$$$$+++++--------------------",
"--------------XXXXX@@@@@@@@@@@@@@@@@@@@@@@@@XXXXX@@@@@##########$$$$$+++++--------------------",
"--------------XXXXX@@@@@@@@@@@@@@@@@@@@@@@@@XXXXX@@@@@##########$$$$$+++++--------------------",
"---------XXXXXooooo@@@@@@@@@@@@@@@@@@@@XXXXX@@@@@$$$$$$$$$$++++++++++#####+++++---------------",
"---------XXXXXooooo@@@@@@@@@@@@@@@@@@@@XXXXX@@@@@$$$$$$$$$$++++++++++#####+++++---------------",
"---------XXXXXooooo@@@@@@@@@@@@@@@@@@@@XXXXX@@@@@$$$$$$$$$$++++++++++#####+++++---------------",
"---------XXXXXooooo@@@@@@@@@@@@@@@@@@@@XXXXX@@@@@$$$$$$$$$$++++++++++#####+++++---------------",
"---------XXXXXooooo@@@@@@@@@@@@@@@@@@@@XXXXX@@@@@$$$$$$$$$$++++++++++#####+++++---------------",
"---------XXXXXooooo@@@@@@@@@@@@@@@@@@@@XXXXX@@@@@#####+++++$$$$$$$$$$+++++#####+++++----------",
"---------XXXXXooooo@@@@@@@@@@@@@@@@@@@@XXXXX@@@@@#####+++++$$$$$$$$$$+++++#####+++++----------",
"---------XXXXXooooo@@@@@@@@@@@@@@@@@@@@XXXXX@@@@@#####+++++$$$$$$$$$$+++++#####+++++----------",
"---------XXXXXooooo@@@@@@@@@@@@@@@@@@@@XXXXX@@@@@#####+++++$$$$$$$$$$+++++#####+++++----------",
"---------XXXXXooooo@@@@@@@@@@@@@@@@@@@@XXXXX@@@@@#####+++++$$$$$$$$$$+++++#####+++++----------",
"----XXXXXoooooooooo@@@@@XXXXXXXXXX@@@@@XXXXX@@@@@+++++#####+++++OOOOO$$$$$#####+++++----------",
"----XXXXXoooooooooo@@@@@XXXXXXXXXX@@@@@XXXXX@@@@@+++++#####+++++OOOOO$$$$$#####+++++----------",
"----XXXXXoooooooooo@@@@@XXXXXXXXXX@@@@@XXXXX@@@@@+++++#####+++++OOOOO$$$$$#####+++++----------",
"----XXXXXoooooooooo@@@@@XXXXXXXXXX@@@@@XXXXX@@@@@+++++#####+++++OOOOO$$$$$#####+++++----------",
"----XXXXXoooooooooo@@@@@XXXXXXXXXX@@@@@XXXXX@@@@@+++++#####+++++OOOOO$$$$$#####+++++----------",
"    XXXXXooooooooooooooo@@@@@@@@@@XXXXX@@@@@#####++++++++++**********OOOOO$$$$$+++++----------",
"    XXXXXooooooooooooooo@@@@@@@@@@XXXXX@@@@@#####++++++++++**********OOOOO$$$$$+++++----------",
"    XXXXXooooooooooooooo@@@@@@@@@@XXXXX@@@@@#####++++++++++**********OOOOO$$$$$+++++----------",
"    XXXXXooooooooooooooo@@@@@@@@@@XXXXX@@@@@#####++++++++++**********OOOOO$$$$$+++++----------",
"    XXXXXooooooooooooooo@@@@@@@@@@XXXXX@@@@@#####++++++++++**********OOOOO$$$$$+++++----------",
"    XXXXXooooooooooooooooooooXXXXXoooooooooo#####+++++*****=====*****     OOOOO---------------",
"    XXXXXooooooooooooooooooooXXXXXoooooooooo#####+++++*****=====*****     OOOOO---------------",
"    XXXXXooooooooooooooooooooXXXXXoooooooooo#####+++++*****=====*****     OOOOO---------------",
"    XXXXXooooooooooooooooooooXXXXXoooooooooo#####+++++*****=====*****     OOOOO---------------",
"    XXXXXooooooooooooooooooooXXXXXoooooooooo#####+++++*****=====*****     OOOOO---------------",
"    XXXXXoooooooooooooooXXXXXoooooXXXXX$$$$$+++++#####=====     OOOOO     --------------------",
"    XXXXXoooooooooooooooXXXXXoooooXXXXX$$$$$+++++#####=====     OOOOO     --------------------",
"    XXXXXoooooooooooooooXXXXXoooooXXXXX$$$$$+++++#####=====     OOOOO     --------------------",
"    XXXXXoooooooooooooooXXXXXoooooXXXXX$$$$$+++++#####=====     OOOOO     --------------------",
"    XXXXXoooooooooooooooXXXXXoooooXXXXX$$$$$+++++#####=====     OOOOO     --------------------",
"----     oooooXXXXXXXXXX==========*****OOOOO$$$$$+++++=====-----%%%%%*****     ---------------",
"----     oooooXXXXXXXXXX==========*****OOOOO$$$$$+++++=====-----%%%%%*****     ---------------",
"----     oooooXXXXXXXXXX==========*****OOOOO$$$$$+++++=====-----%%%%%*****     ---------------",
"----     oooooXXXXXXXXXX==========*****OOOOO$$$$$+++++=====-----%%%%%*****     ---------------",
"----     oooooXXXXXXXXXX==========*****OOOOO$$$$$+++++=====-----%%%%%*****     ---------------",
"----     oooooXXXXX     +++++==========OOOOO#####OOOOO=====-----%%%%%*****     ---------------",
"----     oooooXXXXX     +++++==========OOOOO#####OOOOO=====-----%%%%%*****     ---------------",
"----     oooooXXXXX     +++++==========OOOOO#####OOOOO=====-----%%%%%*****     ---------------",
"----     oooooXXXXX     +++++==========OOOOO#####OOOOO=====-----%%%%%*****     ---------------",
"----     oooooXXXXX     +++++==========OOOOO#####OOOOO=====-----%%%%%*****     ---------------",
"----     XXXXX               +++++&&&&&$$$$$#####OOOOO==========*****     --------------------",
"----     XXXXX               +++++&&&&&$$$$$#####OOOOO==========*****     --------------------",
"----     XXXXX               +++++&&&&&$$$$$#####OOOOO==========*****     --------------------",
"----     XXXXX               +++++&&&&&$$$$$#####OOOOO==========*****     --------------------",
"----     XXXXX               +++++&&&&&$$$$$#####OOOOO==========*****     --------------------",
"---------     -----#####*****          #####OOOOO***************          --------------------",
"---------     -----#####*****          #####OOOOO***************          --------------------",
"---------     -----#####*****          #####OOOOO***************          --------------------",
"---------     -----#####*****          #####OOOOO***************          --------------------",
"---------     -----#####*****          #####OOOOO***************          --------------------",
"-------------------          XXXXX     $$$$$     XXXXXXXXXX     -----OOOOO     ---------------",
"-------------------          XXXXX     $$$$$     XXXXXXXXXX     -----OOOOO     ---------------",
"-------------------          XXXXX     $$$$$     XXXXXXXXXX     -----OOOOO     ---------------",
"-------------------          XXXXX     $$$$$     XXXXXXXXXX     -----OOOOO     ---------------",
"-------------------          XXXXX     $$$$$     XXXXXXXXXX     -----OOOOO     ---------------",
"------------------------     OOOOO     ooooo     ooooooooooooooo          --------------------",
"------------------------     OOOOO     ooooo     ooooooooooooooo          --------------------",
"------------------------     OOOOO     ooooo     ooooooooooooooo          --------------------",
"------------------------     OOOOO     ooooo     ooooooooooooooo          --------------------",
"------------------------     OOOOO     ooooo     ooooooooooooooo          --------------------",
"--------------          XXXXX     -----oooooOOOOOoooooooooo#####@@@@@     --------------------",
"--------------          XXXXX     -----oooooOOOOOoooooooooo#####@@@@@     --------------------",
"--------------          XXXXX     -----oooooOOOOOoooooooooo#####@@@@@     --------------------",
"--------------          XXXXX     -----oooooOOOOOoooooooooo#####@@@@@     --------------------",
"--------------          XXXXX     -----oooooOOOOOoooooooooo#####@@@@@     --------------------",
"---------     OOOOO          ..........-----     OOOOOOOOOOooooo@@@@@                    -----",
"---------     OOOOO          ..........-----     OOOOOOOOOOooooo@@@@@                    -----",
"---------     OOOOO          ..........-----     OOOOOOOOOOooooo@@@@@                    -----",
"---------     OOOOO          ..........-----     OOOOOOOOOOooooo@@@@@                    -----",
"---------     OOOOO          ..........-----     OOOOOOOOOOooooo@@@@@                    -----",
"----     OOOOOOOOOO     =====OOOOO.....     ooooo@@@@@@@@@@@@@@@ooooo     .....OOOOOOOOOO     ",
"----     OOOOOOOOOO     =====OOOOO.....     ooooo@@@@@@@@@@@@@@@ooooo     .....OOOOOOOOOO     ",
"----     OOOOOOOOOO     =====OOOOO.....     ooooo@@@@@@@@@@@@@@@ooooo     .....OOOOOOOOOO     ",
"----     OOOOOOOOOO     =====OOOOO.....     ooooo@@@@@@@@@@@@@@@ooooo     .....OOOOOOOOOO     ",
"----     OOOOOOOOOO     =====OOOOO.....     ooooo@@@@@@@@@@@@@@@ooooo     .....OOOOOOOOOO     ",
"----     OOOOO.....          =====     ooooo@@@@@@@@@@ooooo          ..........OOOOOOOOOO     ",
"----     OOOOO.....          =====     ooooo@@@@@@@@@@ooooo          ..........OOOOOOOOOO     ",
"----     OOOOO.....          =====     ooooo@@@@@@@@@@ooooo          ..........OOOOOOOOOO     ",
"----     OOOOO.....          =====     ooooo@@@@@@@@@@ooooo          ..........OOOOOOOOOO     ",
"----     OOOOO.....          =====     ooooo@@@@@@@@@@ooooo          ..........OOOOOOOOOO     ",
"----     ..........     -----                              -----     ...............     -----",
"----     ..........     -----                              -----     ...............     -----",
"----     ..........     -----                              -----     ...............     -----",
"----     ..........     -----                              -----     ...............     -----",
"----     ..........     -----                              -----     ...............     -----",
"---------          --------------------------------------------------               ----------",
"---------          --------------------------------------------------               ----------",
"---------          --------------------------------------------------               ----------",
"---------          --------------------------------------------------               ----------"
};
