/* XPM */
static char *up_1_[] = {
/* columns rows colors chars-per-pixel */
"55 64 223 2 ",
"   c #000101",
".  c #020C04",
"X  c #0B0806",
"o  c #140A07",
"O  c #031305",
"+  c #051C06",
"@  c #001E0C",
"#  c #15170A",
"$  c #1A1A1A",
"%  c #24140E",
"&  c #331D0E",
"*  c #251511",
"=  c #281612",
"-  c #2D1914",
";  c #331C15",
":  c #092B09",
">  c #07250A",
",  c #0C3F07",
"<  c #0A340B",
"1  c #0B3D0C",
"2  c #073713",
"3  c #143013",
"4  c #292413",
"5  c #3D2312",
"6  c #3A2519",
"7  c #2E3A14",
"8  c #121D29",
"9  c #262626",
"0  c #29292A",
"q  c #343435",
"w  c #32322F",
"e  c #45261B",
"r  c #522D16",
"t  c #553118",
"y  c #5B341A",
"u  c #4A371E",
"i  c #6E3C1B",
"p  c #673A1C",
"a  c #713E1C",
"s  c #783F1C",
"d  c #4C2A21",
"f  c #46392C",
"g  c #5C3621",
"h  c #4A3E35",
"j  c #522D21",
"k  c #6D3C20",
"l  c #743F20",
"z  c #0C410D",
"x  c #10430E",
"c  c #0D4B12",
"v  c #0A4D1A",
"b  c #0A4313",
"n  c #194912",
"m  c #0E5215",
"M  c #0E5B19",
"N  c #0B531B",
"B  c #1A5B14",
"V  c #165816",
"C  c #245816",
"Z  c #2F4915",
"A  c #0F641E",
"S  c #0F691F",
"D  c #1B6419",
"F  c #256E1A",
"G  c #296A1A",
"H  c #2B7B1D",
"J  c #28741B",
"K  c #31791F",
"L  c #145122",
"P  c #31582A",
"I  c #0F6D23",
"U  c #0D6421",
"Y  c #0F7326",
"T  c #0E7B29",
"R  c #107526",
"E  c #107B29",
"W  c #167828",
"Q  c #106A2B",
"!  c #2F6F28",
"~  c #575700",
"^  c #5A431D",
"/  c #73401F",
"(  c #60401C",
")  c #4E6317",
"_  c #574B21",
"`  c #465B25",
"'  c #53493B",
"]  c #524E2F",
"[  c #674D27",
"{  c #754221",
"}  c #784522",
"|  c #7C4C29",
" . c #6B4D30",
".. c #596E24",
"X. c #496533",
"o. c #55712B",
"O. c #716628",
"+. c #096957",
"@. c #2A4865",
"#. c #315273",
"$. c #1C6E5C",
"%. c #4B4B4B",
"&. c #454545",
"*. c #595959",
"=. c #6D5846",
"-. c #526F47",
";. c #6B6551",
":. c #5F5F60",
">. c #666464",
",. c #757576",
"<. c #787879",
"1. c #4A6D71",
"2. c #85562B",
"3. c #865B3F",
"4. c #8A6737",
"5. c #966936",
"6. c #9E743D",
"7. c #A1773B",
"8. c #A37A3E",
"9. c #9A7B18",
"0. c #947051",
"q. c #A47B41",
"w. c #A97F43",
"e. c #9F7D66",
"r. c #946E54",
"t. c #198429",
"y. c #1E8436",
"u. c #248C29",
"i. c #238728",
"p. c #318420",
"a. c #348C22",
"s. c #2E9429",
"d. c #369928",
"f. c #3EA229",
"g. c #3FA829",
"h. c #2F821F",
"j. c #6CB51E",
"k. c #4D8828",
"l. c #518426",
"z. c #559C2E",
"x. c #4A932C",
"c. c #41A429",
"v. c #43A82A",
"b. c #4BA926",
"n. c #5FA22B",
"m. c #67B621",
"M. c #66AC2C",
"N. c #759375",
"B. c #A68614",
"V. c #B5B104",
"C. c #A9823D",
"Z. c #A6833D",
"A. c #B79733",
"S. c #9F9F0F",
"D. c #D9B437",
"F. c #CCCC00",
"G. c #D8CB0A",
"H. c #E6DB11",
"J. c #F1EB09",
"K. c #FDFE01",
"L. c #EBED0D",
"P. c #E4C731",
"I. c #F9F727",
"U. c #8E8D5D",
"Y. c #B18E5D",
"T. c #B6954F",
"R. c #BDA948",
"E. c #959072",
"W. c #B89568",
"Q. c #BD9874",
"!. c #AA8C76",
"~. c #A9AC7F",
"^. c #CF9E4D",
"/. c #DDAC53",
"(. c #C2A651",
"). c #E2AE53",
"_. c #CAA87B",
"`. c #5C7485",
"'. c #0298BD",
"]. c #2E9EA6",
"[. c #6B8299",
"{. c #489F8D",
"}. c #42CDBD",
"|. c #00BCFF",
" X c #1F96C2",
".X c #8B8B8B",
"XX c #858686",
"oX c #8F8F90",
"OX c #9A9A9B",
"+X c #B39785",
"@X c #BCA697",
"#X c #A4A592",
"$X c #9F9FA0",
"%X c #A8A8A9",
"&X c #B6B6B7",
"*X c #BBAEAB",
"=X c #C8A782",
"-X c #D5B48B",
";X c #DAB98D",
":X c #C1AB9C",
">X c #CDB798",
",X c #DBBC95",
"<X c #D0AF86",
"1X c #C9B6AA",
"2X c #D0BDA7",
"3X c #B0C8B3",
"4X c #E3C49B",
"5X c #DBCBB7",
"6X c #D7C5AA",
"7X c #EACDA4",
"8X c #EDD4B1",
"9X c #FFE7BE",
"0X c #FFE8BF",
"qX c #D1D3D1",
"wX c #E7D8C5",
"eX c #E9DFD1",
"rX c #DBEBDF",
"tX c #FFEAC1",
"yX c #ECE4DB",
"uX c #F2F2F2",
"iX c #FFFFFF",
"pX c #FBF9F3",
"aX c #E8E8E8",
/* pixels */
"iXiXiXiXiXiXiXiXiXiXiXiXiXiXiXiXiXiXiXiXiX1X/ / 2.8.8.q.q.q.q.q.q.7.} { | yXiXiXiXiXiXiXiXiXiXiXiXiXiXiXiXiXiX",
"iXiXiXiXiXiXiXiXiXiXiXiXiXiXiXiXiXiXiXiXiX1X/ / 2.8.q.q.8.8.q.q.q.6.} { | aXiXiXiXiXiXiXiXiXiXiXiXiXiXiXiXiXiX",
"iXiXiXiXiXiXiXiXiXiXiXiXiXiXiXiXiXiXpXuXuX*X/ / 2.C.C.C.C.C.Z.7.q.6.} } | eXpXpXpXuXuXiXiXiXiXiXiXiXiXiXiXiXiX",
"iXiXiXiXiXiXiXiXiXiXiXiXiXiXiXiXiXiXOX9 9  .^.^.D.J.J.J.J.J.H.Z.q.q.6.6.8.I.I.I.R.Y.Y.eXiXiXiXiXiXiXiXiXiXiXiX",
"iXiXiXiXiXiXiXiXiXiXiXiXiXiXiXiXiXiXXX    _ )./.P.K.K.K.K.K.L.7.q.q.Z.6.C.J.K.K.A.q.q.wXiXiXiXiXiXiXiXiXiXiXiX",
"iXiXiXiXiXiXiXiXiXiXiXiXiXiXiXiXiXuXXX    _ /./.P.K.K.K.K.K.H.T.q.q.Z.6.C.J.K.K.A.q.q.wXpXiXiXiXiXiXiXiXiXiXiX",
"iXiXiXiXiXiXiXiXiXiXiXiXiXiXiX.Xq q P p.p.x.n.n.M.m.m.m.m.m.M.z.z.z.z.z.n.L.K.K.A.q.8.Y.W.W.wXiXiXiXiXiXiXiXiX",
"iXiXiXiXiXiXiXiXiXiXiXiXiXiXiX,.  X n v.c.f.f.f.f.f.f.f.f.f.g.g.g.f.g.g.b.L.K.K.A.q.q.8.8.6.5XiXiXiXiXiXiXiXiX",
"iXiXiXiXiXiXiXiXiXiXiXiXiXiXiX,.    n v.c.c.c.c.c.c.c.c.c.c.c.c.g.f.f.f.b.L.K.K.A.8.Z.8.8.8.5XiXiXiXiXiXiXiXiX",
"iXiXiXiXiXiXiXiXiXiXiXiXXX&.&.P h.K G B B B B B B B B B B B B B V B B B B j.j.j.(.^.^.P.H.H.R.r.r.5XiXiXiXiXiX",
"iXiXiXiXiXiXiXiXiXiXiXiX*.    C v.v.J z z z z z 1 1 1 z 1 z z z 1 z z z x d.d.c.(.)./.J.K.K.9.i p @XiXiXiXiXiX",
"iXiXiXiXiXiXiXiXiXiXiXiX*.    C v.c.H z z z z z z z z z z z z z z z z z x d.c.c.(.).).J.K.K.B.l a :XiXiXiXiXiX",
"iXiXiXiXiXiXiXiXiXXX%.*.P N N M G B F p.p.p.p.p.p.p.p.p.h.p.p.p.p.p.p.p.p.F D G k.x.k.) ~ ~ O.5.5.2XiXiXiXiXiX",
"iXiXiXiXiXiXiXiXiX&.    v t.T U 1 1 F v.c.c.c.c.c.v.v.c.c.c.c.c.v.c.c.c.c.c z z I T T @     [ q.7.6XiXiXiXiXiX",
"iXiXiXiXiXiXiXiXiX%.    v t.T M z z F c.c.c.c.c.c.c.c.c.c.c.c.c.c.c.c.c.d.n z z I E E >      .q.7.6XiXiXiXiXiX",
"iXiXiXiXiXiXiXiXiX%.    2 M M D H h.a.c.c.c.c.c.c.c.c.c.c.f.x.c.c.c.c.c.c.h.H H A M M O     E.5X5XyXiXiXiXiXiX",
"iXiXiXiXiXiXiXiXiX%.    : z z H v.c.c.c.c.c.c.c.c.c.c.c.c.c.c.c.c.c.c.c.c.v.c.c.B z 1 O     %XiXiXiXiXiXiXiXiX",
"iXiXiXiXiXiXiXiXiX%.    : z z H v.c.c.c.c.c.c.c.c.c.c.c.c.c.c.c.c.c.c.c.c.c.c.c.V 1 z O     %XiXiXiXiXiXiXiXiX",
"iXiXiX6X>X>X5XwX8X%.> > c A M D F F a.c.c.c.c.c.c.c.c.c.c.c.c.c.c.c.c.c.f.J F F D M A < > > E.8XwX6X>X>XwXiXiX",
"iXiXpXY.7.7._.-X-XP z z S T E M z 1 F c.c.f.c.c.c.c.c.c.c.c.c.c.c.c.c.c.d.V z z I T E m z 1 U.-X;XY.7.7.>XiXiX",
"iXiXiXY.7.C._.;X<XX.z z S E T M 1 1 G c.c.c.c.c.c.c.c.d.c.c.c.c.c.c.c.c.d.V , z Y E E m z z U.;X-XY.Z.7.>XiXiX",
"@X@X@X<X_._.4X7X7X-.1 z S E E S M M p.c.c.c.c.c.c.c.c.c.c.c.c.c.c.c.c.c.f.D M M Y T E m z , E.7X7X;X_._.=X@X@X",
"a a } 7X0X0X9X9X9Xo.1 z S E T T T T u.c.c.c.c.c.c.c.c.c.c.c.c.c.c.c.c.c.f.t.T E E E E m z z #XtX9X0X0XtXQ.i a ",
"i i } 7XtX0X9X9X0X-., z U E T T E T u.c.c.c.c.c.c.c.c.c.c.c.c.c.c.c.c.c.f.t.E E E E R m x z ~.tX0X0X0XtXQ.i a ",
"!.!.!._._._.-X;X;XX., x U t.T Y U A W d.s.d.c.c.c.c.c.c.c.c.c.c.c.c.d.s.s.S A S R E E m z z E.;X;X<X_._.Q.!.!.",
"iXiXpX3.i a 5.8.8.P , x U T T M z z M E T u.c.c.c.c.c.c.c.c.c.c.c.d.E E Y c z z I E E m z z O.w.7.2.i i +XiXiX",
"iXiXuX3.i s 5.q.7._ , , U T T A z z M E E u.c.c.c.c.c.c.c.c.c.c.b.f.E E R c x z R E E c z , O.w.q.2.p i +XiXiX",
"iXiXpX+Xe.e.0.5.5.$.+.+.Q S S b : : m E E t.d.s.d.c.c.c.c.c.f.d.a.s.E E R 1 : < M S S +.+.+.o.5.5.0.!.e.1XiXiX",
"iXiXiXiXiXiXr.a /  X|.|.+.z z >     2 T T T E T t.c.c.c.c.c.d.t.E E E E R O     < z z '.|.|.1.l s :XiXiXiXiXiX",
"iXiXiXiXiXpXr.a { ].|.|.+.z z +     2 T T E E T i.c.c.c.c.c.d.E E E E E R O     < z z '.|.|.1.l s :XiXiXiXiXiX",
"iXiXiXiXiXiX=.r r {.}.}.$.Z Z #     2 t.E E E T t.d.d.d.d.d.s.E E E E E Y O     3 Z n {.}.}.-.t r @XiXiXiXiXiX",
"iXiXiXiXiXpXq X   V.K.K.B.} l &     2 E E E E E E E E E E E E E T T E E R O     y { { G.K.K.~     .XiXiXiXiXiX",
"iXiXiXiXiXpXq     V.K.K.B.a / &     2 E E E E E E T E E E E E R T T E E R O     y { { G.K.K.~     .XiXiXiXiXiX",
"iXiXiXiXiXiX:.q q S.F.F.9.| | 5     2 R I R E E E E E E E E E E T T Y R U O     ( | | V.F.F.O.q q %XiXiXiXiXiX",
"iXiXiXiXiXiXiXuXpX%.  X [ w.q.u     > z z M E E E E E R E E E E T R c z 1 .     2.q.7.7 X   $XpXuXiXiXiXiXiXiX",
"iXiXiXiXiXiXiXiXiX%.    [ T.q.u     + x 1 M E E E E E E E E E E W R b x 1 .   X 4.w.8.&     %XiXiXiXiXiXiXiXiX",
"iXiXiXiXiXiXiXiXiX>.9 9  .4.4.u     + < < v E E E T R E E E E E E Y z 2 < .      .5.4.w 9 9 &XiXiXiXiXiXiXiXiX",
"iXiXiXiXiXiXiXiXiXuXuXuX*.X X .           2 E E E E E E E E E E E Y O             X X &XuXuXuXiXiXiXiXiXiXiXiX",
"iXiXiXiXiXiXiXiXiXiXiXiX:.                2 E R E E E E E R E E E Q .                 &XiXiXiXiXiXiXiXiXiXiXiX",
"iXiXiXiXiXiXiXiXiXaXaXaX*.. . .   .       : R R T E E E E E E R R U .     .   . . . . %XaXaXuXiXiXiXiXiXiXiXiX",
"iXiXiXiXiXiXiXiXiX*.$ $ L Y Y m 1 1 >     + z b N E E E E E R c c 1 .   . < 1 1 U I I 3 $ $ %XiXiXiXiXiXiXiXiX",
"iXiXiXiXiXiXiXiXiX%.    v E E M z z >     + z z m E E E E E R b z 1       < x z I E E >     %XiXiXiXiXiXiXiXiX",
"iXiXiXiXiXiXuXuXuX&.    L y.y.M z z :   . + z 1 m T E E E E R 1 z 2 . . . 1 z b W $.y.3     OXuXuXuXiXiXiXiXiX",
"iXiXiXiXiXiX*.9 9 6 e 6 $XrXrXN.z z m I S b . . > E E E E E U O . O M I U c z x 3XrXrX`.@.@.q 9 9 %XiXiXiXiXiX",
"iXiXiXiXiXiXq     ; d d &XiXiXE., 1 M E E v     > E E E T E I     . Y E R c z n qXpXiX[.#.#.8     .XiXiXiXiXiX",
"iXiXiXuXuXuXq     ; d d *XpXuXN., x A T E v     > E E T E T U .   . Y E E c 1 n qXpXiX`.#.#.8     .XuXiXiXiXiX",
"iXiXuX*.q q g y y p k i f w w f ^ p P t.E v     + c c c c m z     . R E W ^ ^ ^ w q q ]  . .g y y f q q oXiXiX",
"iXiXuX9     y } { { { / %     e / / ` T E v     O z z z z z <     . I E W [ l l o     r l s l l s &     <.iXiX",
"iXiXuX0     y } { { { { =     5 / / ) t.t.v     + z z z z z 1     O R t.W [ / / o     r } / / / { -     <.iXiX",
"iXiXuX9   X !.,X,X_.W.Q.] < : G k.k.o._ _ ^ r r 5 O O O . O # r t y ^ _ _ l.k.l.n < : U.Q.Q.<X,X,X=.    <.iXiX",
"iXiXuX0   . >XtX0X4X-X;Xo.z z H v.v...l { { { { r           o l } / / / / c.c.d.V z x Y.;X;X8X0XtX;.    <.iXiX",
"iXiXuX9     >XtX0X4X-X-X-.1 z H v.v.o.a { { { { r           o a { / / / / x.c.c.B 1 x E.;X-X8XtXtX;.    <.iXiX",
"iXiXiX&X%X%X;.%.' h f f $ O O G v.c.x.l.l.l.l.l.o.J J G K G K l.l.l.l.l.l.c.c.c.< + O 7 f f ' ' %.E.%X%XqXiXiX",
"iXiXiXiXiXiXq                 C v.c.v.g.g.v.c.c.g.g.c.c.v.c.c.c.g.g.g.c.c.c.c.c.#                 oXiXiXiXiXiX",
"iXiXiXiXiXiXq                 C b.v.c.c.c.c.c.c.g.c.c.c.c.c.c.c.c.c.c.c.c.v.c.c.>                 oXiXiXiXiXiX",
"iXiXiXiXiXiX%XOXOXw     # 4 - 4 n 3 D u.u.s.c.c.g.f.c.c.c.c.c.c.c.f.u.u.u.n 3 n ; - - X     >.OXOXqXiXiXiXiXiX",
"iXiXiXiXiXiXiXiXiX%.    - j d *     2 T T u.c.c.c.c.c.c.c.c.c.c.c.d.E T Y .     6 d d o     %XiXiXiXiXiXiXiXiX",
"iXiXiXiXiXiXiXiXiX&.    - d d %     2 T t.t.v.v.c.v.v.v.c.c.c.c.c.g.t.E Y O     ; d d o     %XiXiXiXiXiXiXiXiX",
"iXiXiXiXiXiXiXiXiX%X.X.Xh % * * * = 7 ` ` ` ....) n n Z n n C ......` ` ` 4 = = * * - >..X.XqXiXiXiXiXiXiXiXiX",
"iXiXiXiXiXiXiXiXiXiXiXiX:.    * d d k l { l { { r           o a s l { { l d d d o     &XiXiXiXiXiXiXiXiXiXiXiX",
"iXiXiXiXiXiXiXiXiXiXiXiX*.    = d d g { { { { } r           X a { { { { l j d d X     &XiXiXiXiXiXiXiXiXiXiXiX",
"iXiXiXiXiXiXiXiXiXiXiXiX%X<.,.&.= = & 5 e 5 5 5 h <.<.<.,.,.>.e e 5 5 5 5 = * - :.,.<.qXiXiXiXiXiXiXiXiXiXiXiX",
"iXiXiXiXiXiXiXiXiXiXiXiXiXiXiX,.                %.iXiXiXiXiXrXX               . qXpXiXiXiXiXiXiXiXiXiXiXiXiXiX",
"iXiXiXiXiXiXiXiXiXiXiXiXiXiXiX,.                %.iXiXiXiXiXqXX             X   qXiXiXiXiXiXiXiXiXiXiXiXiXiXiX"
};
