/* XPM */
static char *result[] = {
/* columns rows colors chars-per-pixel */
"89 104 14 1 ",
"  c #000001",
". c #4A2920",
"X c #0D420D",
"o c #107B29",
"O c #734120",
"+ c #315273",
"@ c #A47B41",
"# c #41A429",
"$ c yellow",
"% c #DEAC52",
"& c #00BAFF",
"* c #D5B48B",
"= c #FFE6BD",
"- c white",
/* pixels */
"-----------------------------------OOOOO@@@@@@@@@@@@@@@OOOOO-----------------------------",
"-----------------------------------OOOOO@@@@@@@@@@@@@@@OOOOO-----------------------------",
"-----------------------------------OOOOO@@@@@@@@@@@@@@@OOOOO-----------------------------",
"-----------------------------------OOOOO@@@@@@@@@@@@@@@OOOOO-----------------------------",
"-----------------------------------OOOOO@@@@@@@@@@@@@@@OOOOO-----------------------------",
"------------------------------     %%%%%$$$$$$$$$$@@@@@@@@@@$$$$$@@@@@-------------------",
"------------------------------     %%%%%$$$$$$$$$$@@@@@@@@@@$$$$$@@@@@-------------------",
"------------------------------     %%%%%$$$$$$$$$$@@@@@@@@@@$$$$$@@@@@-------------------",
"------------------------------     %%%%%$$$$$$$$$$@@@@@@@@@@$$$$$@@@@@-------------------",
"------------------------------     %%%%%$$$$$$$$$$@@@@@@@@@@$$$$$@@@@@-------------------",
"-------------------------     ##############################$$$$$@@@@@@@@@@--------------",
"-------------------------     ##############################$$$$$@@@@@@@@@@--------------",
"-------------------------     ##############################$$$$$@@@@@@@@@@--------------",
"-------------------------     ##############################$$$$$@@@@@@@@@@--------------",
"-------------------------     ##############################$$$$$@@@@@@@@@@--------------",
"--------------------     #####XXXXXXXXXXXXXXXXXXXXXXXXXXXXXX#####%%%%%$$$$$OOOOO---------",
"--------------------     #####XXXXXXXXXXXXXXXXXXXXXXXXXXXXXX#####%%%%%$$$$$OOOOO---------",
"--------------------     #####XXXXXXXXXXXXXXXXXXXXXXXXXXXXXX#####%%%%%$$$$$OOOOO---------",
"--------------------     #####XXXXXXXXXXXXXXXXXXXXXXXXXXXXXX#####%%%%%$$$$$OOOOO---------",
"--------------------     #####XXXXXXXXXXXXXXXXXXXXXXXXXXXXXX#####%%%%%$$$$$OOOOO---------",
"---------------     oooooXXXXX##############################XXXXXooooo     @@@@@---------",
"---------------     oooooXXXXX##############################XXXXXooooo     @@@@@---------",
"---------------     oooooXXXXX##############################XXXXXooooo     @@@@@---------",
"---------------     oooooXXXXX##############################XXXXXooooo     @@@@@---------",
"---------------     oooooXXXXX##############################XXXXXooooo     @@@@@---------",
"---------------     XXXXX########################################XXXXX     --------------",
"---------------     XXXXX########################################XXXXX     --------------",
"---------------     XXXXX########################################XXXXX     --------------",
"---------------     XXXXX########################################XXXXX     --------------",
"---------------     XXXXX########################################XXXXX     --------------",
"-----@@@@@*****XXXXXoooooXXXXX##############################XXXXXoooooXXXXX*****@@@@@----",
"-----@@@@@*****XXXXXoooooXXXXX##############################XXXXXoooooXXXXX*****@@@@@----",
"-----@@@@@*****XXXXXoooooXXXXX##############################XXXXXoooooXXXXX*****@@@@@----",
"-----@@@@@*****XXXXXoooooXXXXX##############################XXXXXoooooXXXXX*****@@@@@----",
"-----@@@@@*****XXXXXoooooXXXXX##############################XXXXXoooooXXXXX*****@@@@@----",
"OOOOO==========XXXXXoooooooooo##############################ooooooooooXXXXX==========OOOO",
"OOOOO==========XXXXXoooooooooo##############################ooooooooooXXXXX==========OOOO",
"OOOOO==========XXXXXoooooooooo##############################ooooooooooXXXXX==========OOOO",
"OOOOO==========XXXXXoooooooooo##############################ooooooooooXXXXX==========OOOO",
"OOOOO==========XXXXXoooooooooo##############################ooooooooooXXXXX==========OOOO",
"-----OOOOO@@@@@XXXXXoooooXXXXXooooo####################oooooXXXXXoooooXXXXX@@@@@OOOOO----",
"-----OOOOO@@@@@XXXXXoooooXXXXXooooo####################oooooXXXXXoooooXXXXX@@@@@OOOOO----",
"-----OOOOO@@@@@XXXXXoooooXXXXXooooo####################oooooXXXXXoooooXXXXX@@@@@OOOOO----",
"-----OOOOO@@@@@XXXXXoooooXXXXXooooo####################oooooXXXXXoooooXXXXX@@@@@OOOOO----",
"-----OOOOO@@@@@XXXXXoooooXXXXXooooo####################oooooXXXXXoooooXXXXX@@@@@OOOOO----",
"----------OOOOO&&&&&XXXXX     oooooooooo##########oooooooooo     XXXXX&&&&&OOOOO---------",
"----------OOOOO&&&&&XXXXX     oooooooooo##########oooooooooo     XXXXX&&&&&OOOOO---------",
"----------OOOOO&&&&&XXXXX     oooooooooo##########oooooooooo     XXXXX&&&&&OOOOO---------",
"----------OOOOO&&&&&XXXXX     oooooooooo##########oooooooooo     XXXXX&&&&&OOOOO---------",
"----------OOOOO&&&&&XXXXX     oooooooooo##########oooooooooo     XXXXX&&&&&OOOOO---------",
"----------     $$$$$OOOOO     oooooooooooooooooooooooooooooo     OOOOO$$$$$     ---------",
"----------     $$$$$OOOOO     oooooooooooooooooooooooooooooo     OOOOO$$$$$     ---------",
"----------     $$$$$OOOOO     oooooooooooooooooooooooooooooo     OOOOO$$$$$     ---------",
"----------     $$$$$OOOOO     oooooooooooooooooooooooooooooo     OOOOO$$$$$     ---------",
"----------     $$$$$OOOOO     oooooooooooooooooooooooooooooo     OOOOO$$$$$     ---------",
"---------------     @@@@@     XXXXXooooooooooooooooooooXXXXX     @@@@@     --------------",
"---------------     @@@@@     XXXXXooooooooooooooooooooXXXXX     @@@@@     --------------",
"---------------     @@@@@     XXXXXooooooooooooooooooooXXXXX     @@@@@     --------------",
"---------------     @@@@@     XXXXXooooooooooooooooooooXXXXX     @@@@@     --------------",
"---------------     @@@@@     XXXXXooooooooooooooooooooXXXXX     @@@@@     --------------",
"--------------------               oooooooooooooooooooo               -------------------",
"--------------------               oooooooooooooooooooo               -------------------",
"--------------------               oooooooooooooooooooo               -------------------",
"--------------------               oooooooooooooooooooo               -------------------",
"--------------------               oooooooooooooooooooo               -------------------",
"---------------     oooooXXXXX     XXXXXooooooooooXXXXX     XXXXXooooo     --------------",
"---------------     oooooXXXXX     XXXXXooooooooooXXXXX     XXXXXooooo     --------------",
"---------------     oooooXXXXX     XXXXXooooooooooXXXXX     XXXXXooooo     --------------",
"---------------     oooooXXXXX     XXXXXooooooooooXXXXX     XXXXXooooo     --------------",
"---------------     oooooXXXXX     XXXXXooooooooooXXXXX     XXXXXooooo     --------------",
"----------     .....-----XXXXXooooo     oooooooooo     oooooXXXXX-----+++++     ---------",
"----------     .....-----XXXXXooooo     oooooooooo     oooooXXXXX-----+++++     ---------",
"----------     .....-----XXXXXooooo     oooooooooo     oooooXXXXX-----+++++     ---------",
"----------     .....-----XXXXXooooo     oooooooooo     oooooXXXXX-----+++++     ---------",
"----------     .....-----XXXXXooooo     oooooooooo     oooooXXXXX-----+++++     ---------",
"-----     OOOOOOOOOO     OOOOOooooo     XXXXXXXXXX     oooooOOOOO     OOOOOOOOOO     ----",
"-----     OOOOOOOOOO     OOOOOooooo     XXXXXXXXXX     oooooOOOOO     OOOOOOOOOO     ----",
"-----     OOOOOOOOOO     OOOOOooooo     XXXXXXXXXX     oooooOOOOO     OOOOOOOOOO     ----",
"-----     OOOOOOOOOO     OOOOOooooo     XXXXXXXXXX     oooooOOOOO     OOOOOOOOOO     ----",
"-----     OOOOOOOOOO     OOOOOooooo     XXXXXXXXXX     oooooOOOOO     OOOOOOOOOO     ----",
"-----     =====*****XXXXX#####OOOOOOOOOO          OOOOOOOOOO#####XXXXX*****=====     ----",
"-----     =====*****XXXXX#####OOOOOOOOOO          OOOOOOOOOO#####XXXXX*****=====     ----",
"-----     =====*****XXXXX#####OOOOOOOOOO          OOOOOOOOOO#####XXXXX*****=====     ----",
"-----     =====*****XXXXX#####OOOOOOOOOO          OOOOOOOOOO#####XXXXX*****=====     ----",
"-----     =====*****XXXXX#####OOOOOOOOOO          OOOOOOOOOO#####XXXXX*****=====     ----",
"----------               ########################################               ---------",
"----------               ########################################               ---------",
"----------               ########################################               ---------",
"----------               ########################################               ---------",
"----------               ########################################               ---------",
"---------------     .....     ooooo####################ooooo     .....     --------------",
"---------------     .....     ooooo####################ooooo     .....     --------------",
"---------------     .....     ooooo####################ooooo     .....     --------------",
"---------------     .....     ooooo####################ooooo     .....     --------------",
"---------------     .....     ooooo####################ooooo     .....     --------------",
"--------------------     .....OOOOOOOOOO          OOOOOOOOOO.....     -------------------",
"--------------------     .....OOOOOOOOOO          OOOOOOOOOO.....     -------------------",
"--------------------     .....OOOOOOOOOO          OOOOOOOOOO.....     -------------------",
"--------------------     .....OOOOOOOOOO          OOOOOOOOOO.....     -------------------",
"--------------------     .....OOOOOOOOOO          OOOOOOOOOO.....     -------------------",
"-------------------------               ----------               ------------------------",
"-------------------------               ----------               ------------------------",
"-------------------------               ----------               ------------------------",
"-------------------------               ----------               ------------------------"
};
