/* XPM */
static char *result[] = {
/* columns rows colors chars-per-pixel */
"90 109 14 1 ",
"  c #000001",
". c #4A2920",
"X c #0D420D",
"o c #107B29",
"O c #734120",
"+ c #315273",
"@ c #A47B41",
"# c #41A429",
"$ c yellow",
"% c #DEAC52",
"& c #00BAFF",
"* c #D5B48B",
"= c #FFE6BD",
"- c white",
/* pixels */
"-----------------------------------     @@@@@@@@@@@@@@@OOOOO------------------------------",
"-----------------------------------     @@@@@@@@@@@@@@@OOOOO------------------------------",
"-----------------------------------     @@@@@@@@@@@@@@@OOOOO------------------------------",
"-----------------------------------     @@@@@@@@@@@@@@@OOOOO------------------------------",
"-----------------------------------     @@@@@@@@@@@@@@@OOOOO------------------------------",
"------------------------------     %%%%%$$$$$$$$$$$$$$$%%%%%@@@@@-------------------------",
"------------------------------     %%%%%$$$$$$$$$$$$$$$%%%%%@@@@@-------------------------",
"------------------------------     %%%%%$$$$$$$$$$$$$$$%%%%%@@@@@-------------------------",
"------------------------------     %%%%%$$$$$$$$$$$$$$$%%%%%@@@@@-------------------------",
"------------------------------     %%%%%$$$$$$$$$$$$$$$%%%%%@@@@@-------------------------",
"-------------------------     ##############################$$$$$@@@@@OOOOO---------------",
"-------------------------     ##############################$$$$$@@@@@OOOOO---------------",
"-------------------------     ##############################$$$$$@@@@@OOOOO---------------",
"-------------------------     ##############################$$$$$@@@@@OOOOO---------------",
"-------------------------     ##############################$$$$$@@@@@OOOOO---------------",
"--------------------     #####XXXXXXXXXXXXXXXXXXXXXXXXXXXXXX#####XXXXX%%%%%@@@@@----------",
"--------------------     #####XXXXXXXXXXXXXXXXXXXXXXXXXXXXXX#####XXXXX%%%%%@@@@@----------",
"--------------------     #####XXXXXXXXXXXXXXXXXXXXXXXXXXXXXX#####XXXXX%%%%%@@@@@----------",
"--------------------     #####XXXXXXXXXXXXXXXXXXXXXXXXXXXXXX#####XXXXX%%%%%@@@@@----------",
"--------------------     #####XXXXXXXXXXXXXXXXXXXXXXXXXXXXXX#####XXXXX%%%%%@@@@@----------",
"---------------     oooooXXXXX##############################XXXXXooooo$$$$$@@@@@----------",
"---------------     oooooXXXXX##############################XXXXXooooo$$$$$@@@@@----------",
"---------------     oooooXXXXX##############################XXXXXooooo$$$$$@@@@@----------",
"---------------     oooooXXXXX##############################XXXXXooooo$$$$$@@@@@----------",
"---------------     oooooXXXXX##############################XXXXXooooo$$$$$@@@@@----------",
"---------------     XXXXXooooo###################################XXXXXXXXXX---------------",
"---------------     XXXXXooooo###################################XXXXXXXXXX---------------",
"---------------     XXXXXooooo###################################XXXXXXXXXX---------------",
"---------------     XXXXXooooo###################################XXXXXXXXXX---------------",
"---------------     XXXXXooooo###################################XXXXXXXXXX---------------",
"-----@@@@@*****XXXXXoooooXXXXXooooo#########################oooooXXXXXXXXXX*****@@@@@-----",
"-----@@@@@*****XXXXXoooooXXXXXooooo#########################oooooXXXXXXXXXX*****@@@@@-----",
"-----@@@@@*****XXXXXoooooXXXXXooooo#########################oooooXXXXXXXXXX*****@@@@@-----",
"-----@@@@@*****XXXXXoooooXXXXXooooo#########################oooooXXXXXXXXXX*****@@@@@-----",
"-----@@@@@*****XXXXXoooooXXXXXooooo#########################oooooXXXXXXXXXX*****@@@@@-----",
"OOOOO==========XXXXXooooo     ooooooooooooooo##########oooooooooo     XXXXX==========OOOOO",
"OOOOO==========XXXXXooooo     ooooooooooooooo##########oooooooooo     XXXXX==========OOOOO",
"OOOOO==========XXXXXooooo     ooooooooooooooo##########oooooooooo     XXXXX==========OOOOO",
"OOOOO==========XXXXXooooo     ooooooooooooooo##########oooooooooo     XXXXX==========OOOOO",
"OOOOO==========XXXXXooooo     ooooooooooooooo##########oooooooooo     XXXXX==========OOOOO",
"-----OOOOO@@@@@XXXXXXXXXX     ooooooooooooooooooooooooooooooXXXXX     XXXXX@@@@@OOOOO-----",
"-----OOOOO@@@@@XXXXXXXXXX     ooooooooooooooooooooooooooooooXXXXX     XXXXX@@@@@OOOOO-----",
"-----OOOOO@@@@@XXXXXXXXXX     ooooooooooooooooooooooooooooooXXXXX     XXXXX@@@@@OOOOO-----",
"-----OOOOO@@@@@XXXXXXXXXX     ooooooooooooooooooooooooooooooXXXXX     XXXXX@@@@@OOOOO-----",
"-----OOOOO@@@@@XXXXXXXXXX     ooooooooooooooooooooooooooooooXXXXX     XXXXX@@@@@OOOOO-----",
"----------OOOOO&&&&&XXXXXXXXXX     XXXXXoooooooooooooooooooo     XXXXX&&&&&OOOOO----------",
"----------OOOOO&&&&&XXXXXXXXXX     XXXXXoooooooooooooooooooo     XXXXX&&&&&OOOOO----------",
"----------OOOOO&&&&&XXXXXXXXXX     XXXXXoooooooooooooooooooo     XXXXX&&&&&OOOOO----------",
"----------OOOOO&&&&&XXXXXXXXXX     XXXXXoooooooooooooooooooo     XXXXX&&&&&OOOOO----------",
"----------OOOOO&&&&&XXXXXXXXXX     XXXXXoooooooooooooooooooo     XXXXX&&&&&OOOOO----------",
"----------     $$$$$OOOOOXXXXXXXXXX     XXXXXooooooooooooooo     OOOOO$$$$$     ----------",
"----------     $$$$$OOOOOXXXXXXXXXX     XXXXXooooooooooooooo     OOOOO$$$$$     ----------",
"----------     $$$$$OOOOOXXXXXXXXXX     XXXXXooooooooooooooo     OOOOO$$$$$     ----------",
"----------     $$$$$OOOOOXXXXXXXXXX     XXXXXooooooooooooooo     OOOOO$$$$$     ----------",
"----------     $$$$$OOOOOXXXXXXXXXX     XXXXXooooooooooooooo     OOOOO$$$$$     ----------",
"---------------     @@@@@$$$$$XXXXXXXXXX     XXXXXoooooXXXXX     @@@@@     ---------------",
"---------------     @@@@@$$$$$XXXXXXXXXX     XXXXXoooooXXXXX     @@@@@     ---------------",
"---------------     @@@@@$$$$$XXXXXXXXXX     XXXXXoooooXXXXX     @@@@@     ---------------",
"---------------     @@@@@$$$$$XXXXXXXXXX     XXXXXoooooXXXXX     @@@@@     ---------------",
"---------------     @@@@@$$$$$XXXXXXXXXX     XXXXXoooooXXXXX     @@@@@     ---------------",
"--------------------          $$$$$$$$$$ooooo     XXXXXXXXXX          --------------------",
"--------------------          $$$$$$$$$$ooooo     XXXXXXXXXX          --------------------",
"--------------------          $$$$$$$$$$ooooo     XXXXXXXXXX          --------------------",
"--------------------          $$$$$$$$$$ooooo     XXXXXXXXXX          --------------------",
"--------------------          $$$$$$$$$$ooooo     XXXXXXXXXX          --------------------",
"-------------------------     XXXXX     $$$$$               ooooo     --------------------",
"-------------------------     XXXXX     $$$$$               ooooo     --------------------",
"-------------------------     XXXXX     $$$$$               ooooo     --------------------",
"-------------------------     XXXXX     $$$$$               ooooo     --------------------",
"-------------------------     XXXXX     $$$$$               ooooo     --------------------",
"--------------------     oooooooooo     oooooooooo     ooooo-----+++++     ---------------",
"--------------------     oooooooooo     oooooooooo     ooooo-----+++++     ---------------",
"--------------------     oooooooooo     oooooooooo     ooooo-----+++++     ---------------",
"--------------------     oooooooooo     oooooooooo     ooooo-----+++++     ---------------",
"--------------------     oooooooooo     oooooooooo     ooooo-----+++++     ---------------",
"---------------     .....-----     ooooooooooooooooooooXXXXX     OOOOO     ---------------",
"---------------     .....-----     ooooooooooooooooooooXXXXX     OOOOO     ---------------",
"---------------     .....-----     ooooooooooooooooooooXXXXX     OOOOO     ---------------",
"---------------     .....-----     ooooooooooooooooooooXXXXX     OOOOO     ---------------",
"---------------     .....-----     ooooooooooooooooooooXXXXX     OOOOO     ---------------",
"----------     OOOOOOOOOO+++++     OOOOOOOOOOOOOOOOOOOOOOOOOooooo     --------------------",
"----------     OOOOOOOOOO+++++     OOOOOOOOOOOOOOOOOOOOOOOOOooooo     --------------------",
"----------     OOOOOOOOOO+++++     OOOOOOOOOOOOOOOOOOOOOOOOOooooo     --------------------",
"----------     OOOOOOOOOO+++++     OOOOOOOOOOOOOOOOOOOOOOOOOooooo     --------------------",
"----------     OOOOOOOOOO+++++     OOOOOOOOOOOOOOOOOOOOOOOOOooooo     --------------------",
"----------     OOOOO=====     XXXXX##############################ooooo     ---------------",
"----------     OOOOO=====     XXXXX##############################ooooo     ---------------",
"----------     OOOOO=====     XXXXX##############################ooooo     ---------------",
"----------     OOOOO=====     XXXXX##############################ooooo     ---------------",
"----------     OOOOO=====     XXXXX##############################ooooo     ---------------",
"---------------               ooooo##########ooooo                    --------------------",
"---------------               ooooo##########ooooo                    --------------------",
"---------------               ooooo##########ooooo                    --------------------",
"---------------               ooooo##########ooooo                    --------------------",
"---------------               ooooo##########ooooo                    --------------------",
"------------------------------                    @@@@@@@@@@@@@@@     --------------------",
"------------------------------                    @@@@@@@@@@@@@@@     --------------------",
"------------------------------                    @@@@@@@@@@@@@@@     --------------------",
"------------------------------                    @@@@@@@@@@@@@@@     --------------------",
"------------------------------                    @@@@@@@@@@@@@@@     --------------------",
"--------------------------------------------------     OOOOOOOOOO.....     ---------------",
"--------------------------------------------------     OOOOOOOOOO.....     ---------------",
"--------------------------------------------------     OOOOOOOOOO.....     ---------------",
"--------------------------------------------------     OOOOOOOOOO.....     ---------------",
"--------------------------------------------------     OOOOOOOOOO.....     ---------------",
"-------------------------------------------------------               --------------------",
"-------------------------------------------------------               --------------------",
"-------------------------------------------------------               --------------------",
"-------------------------------------------------------               --------------------"
};
