/* XPM */
static char *up_2_[] = {
/* columns rows colors chars-per-pixel */
"53 64 221 2 ",
"   c #000101",
".  c #020D04",
"X  c #060608",
"o  c #0A0A0B",
"O  c #0B0706",
"+  c #160D08",
"@  c #041405",
"#  c #051A06",
"$  c #041C09",
"%  c #0A1C09",
"&  c #1D130C",
"*  c #161616",
"=  c #0C141C",
"-  c #27190C",
";  c #2A1E12",
":  c #271C14",
">  c #341D15",
",  c #072307",
"<  c #05240B",
"1  c #0B2509",
"2  c #062A0E",
"3  c #092C09",
"4  c #09320B",
"5  c #0C3D0C",
"6  c #0A3007",
"7  c #0B2B13",
"8  c #063512",
"9  c #093D14",
"0  c #083511",
"q  c #183311",
"w  c #363600",
"e  c #2B2113",
"r  c #352517",
"t  c #2E280E",
"y  c #222223",
"u  c #2B2929",
"i  c #363637",
"p  c #2D3630",
"a  c #482817",
"s  c #512D17",
"d  c #51341B",
"f  c #6E3C1C",
"g  c #663A1D",
"h  c #713E1D",
"j  c #4B2920",
"k  c #553626",
"l  c #723F20",
"z  c #0D420D",
"x  c #13430D",
"c  c #0B4313",
"v  c #0C4A14",
"b  c #134511",
"n  c #1A4511",
"m  c #0E5315",
"M  c #0D5B1B",
"N  c #0C551B",
"B  c #1C5E15",
"V  c #165617",
"C  c #3B4B0E",
"Z  c #0F631D",
"A  c #1B651A",
"S  c #27761D",
"D  c #317B1F",
"F  c #216417",
"G  c #0D6421",
"H  c #0F6A22",
"J  c #0E7226",
"K  c #0F7B29",
"L  c #1C7428",
"P  c #107C29",
"I  c #127525",
"U  c #1A752A",
"Y  c #2E6D24",
"T  c #244B2D",
"R  c #494900",
"E  c #545403",
"W  c #4B431B",
"Q  c #55411A",
"!  c #6A421F",
"~  c #73401E",
"^  c #61560E",
"/  c #406B0A",
"(  c #6F7402",
")  c #5A4524",
"_  c #594D2D",
"`  c #6A4621",
"'  c #684727",
"]  c #744120",
"[  c #7B4B2C",
"{  c #794723",
"}  c #6B5121",
"|  c #73572E",
" . c #69503B",
".. c #1E3346",
"X. c #29425B",
"o. c #315374",
"O. c #2F4B68",
"+. c #077274",
"@. c #414141",
"#. c #4D4D4E",
"$. c #5B5B55",
"%. c #504B4A",
"&. c #71634F",
"*. c #666667",
"=. c #727272",
"-. c #585B62",
";. c #89592D",
":. c #885933",
">. c #814F26",
",. c #836C35",
"<. c #956937",
"1. c #966938",
"2. c #95692E",
"3. c #A3783E",
"4. c #A0763D",
"5. c #A47B41",
"6. c #A57C45",
"7. c #8F6A51",
"8. c #30821F",
"9. c #198329",
"0. c #1D8335",
"q. c #228B29",
"w. c #288F29",
"e. c #2F8320",
"r. c #348321",
"t. c #358D22",
"y. c #2B9229",
"u. c #389927",
"i. c #24863B",
"p. c #3DA129",
"a. c #769209",
"s. c #449E28",
"d. c #49A827",
"f. c #41A429",
"g. c #45A72A",
"h. c #828100",
"j. c #ADBE06",
"k. c #9C8B28",
"l. c #B18E38",
"z. c #B69536",
"x. c #B7A42F",
"c. c #86AA0B",
"v. c #C1A430",
"b. c #98C612",
"n. c #B4C707",
"m. c #C0CE03",
"M. c #D3D409",
"N. c #E0D004",
"B. c #C8E20A",
"V. c #DCEE08",
"C. c #D3EA0A",
"Z. c #F9F605",
"A. c #FDFD00",
"S. c #F3F802",
"D. c #E8C637",
"F. c #E8CC2D",
"G. c #CCC72E",
"H. c #AA834C",
"J. c #A98046",
"K. c #B48A47",
"L. c #A89041",
"P. c #8DBC4C",
"I. c #B8936E",
"U. c #A99A6C",
"Y. c #A69668",
"T. c #C1AA4B",
"R. c #D7A650",
"E. c #E1AC54",
"W. c #CDAC7B",
"Q. c #D2B17F",
"!. c #CE9E4E",
"~. c #9FE05B",
"^. c #A2E75D",
"/. c #506C83",
"(. c #6C7E91",
"). c #078797",
"_. c #70879F",
"`. c #029CC5",
"'. c #01BCFF",
"]. c #00B6FC",
"[. c #999898",
"{. c #91938B",
"}. c #93AF9A",
"|. c #B9A489",
" X c #BCA495",
".X c #A7A8A8",
"XX c #B4B4B4",
"oX c #BDBDBD",
"OX c #B4B2AC",
"+X c #AF9C81",
"@X c #D2B084",
"#X c #D7B58C",
"$X c #C1A998",
"%X c #C7B08E",
"&X c #C9B5A8",
"*X c #B7CAB0",
"=X c #9FC2A7",
"-X c #CDC499",
";X c #DCCCB7",
":X c #DDCEAA",
">X c #E8CBA2",
",X c #F6DCB3",
"<X c #FFE8BF",
"1X c #FCE5BC",
"2X c #C2C2C2",
"3X c #C9C9CA",
"4X c #D3D3D3",
"5X c #DBDAD9",
"6X c #CCD8CD",
"7X c #E5DCD6",
"8X c #E5D9C9",
"9X c #D7E9DB",
"0X c #FFEAC1",
"qX c #EDE4D9",
"wX c #F0E4D7",
"eX c #E8E9E7",
"rX c #F2ECE4",
"tX c #F3F3F3",
"yX c #FFFFFF",
"uX c #FAF9F6",
"iX c #F5F0E9",
/* pixels */
"yXyXyXyXyXyXyXyXyXyXyXyXyXyXyXyXyXyXyXyX[.    d 5.5.5.5.5.5.5.5.;.~ f &XyXyXyXyXyXyXyXyXyXyXyXyXyXyXyXyXyX",
"yXyXyXyXyXyXyXyXyXyXyXyXyXyXyXyXyXyXyXyX[.    d 5.5.5.5.5.5.5.5.;.l f ;XyXyXyXyXyXyXyXyXyXyXyXyXyXyXyXyXyX",
"yXyXyXyXyXyXyXyXyXyXyXyXyXyXyXyXyXtX5X5X{.- - ) l.l.l.l.l.l.l.l.2.>.>.&XrXrXuXyXyXyXyXyXyXyXyXyXyXyXyXyXyX",
"yXyXyXyXyXyXyXyXyXyXyXyXyXyXyXyXyX.X* * _ !.!.F.Z.Z.Z.S.Z.Z.Z.Z.D.!.R.K.H.H.8XyXyXyXyXyXyXyXyXyXyXyXyXyXyX",
"yXyXyXyXyXyXyXyXyXyXyXyXyXyXyXyXyX.X    ) E.E.F.A.A.A.A.A.A.A.A.F.E.E.K.5.5.8XyXyXyXyXyXyXyXyXyXyXyXyXyXyX",
"yXyXyXyXyXyXyXyXyXyXyXyXyXyXtX4X4X{.% % ^ T.T.G.V.V.V.V.V.V.V.V.G.T.T.T.z.z.:XqXqX7X7X7XuXyXyXyXyXyXyXyXyX",
"yXyXyXyXyXyXyXyXyXyXyXyXyXyXXXo o n p.p.p.g.d.d.d.g.d.d.d.d.d.g.d.g.g.n.Z.Z.x.6.J.:.[ [ 7XyXyXyXyXyXyXyXyX",
"yXyXyXyXyXyXyXyXyXyXyXyXyXyXXX    5 g.g.p.g.f.f.g.g.f.f.f.g.f.g.g.g.p.B.A.A.v.6.3.[ h ~ 5XyXyXyXyXyXyXyXyX",
"yXyXyXyXyXyXyXyXyXyXyXtX2X2X{.1 1 n t.t.t.t.t.t.t.t.t.t.t.t.t.t.t.t.t.b.C.C.k.| ,.,.;.;.;X8XqXuXyXyXyXyXyX",
"yXyXyXyXyXyXyXyXyXyXyX2XX X q f.p.8.x z z x z z z z z z b z z z b c b r.d.d.A z V l.E.E.K.5.H.qXyXyXyXyXyX",
"yXyXyXyXyXyXyXyXyXyXyX2X    q p.f.8.z z z z z z z z 5 z z z z 5 z 5 z e.f.f.A z b L.E.R.K.3.H.qXyXyXyXyXyX",
"yXyXyXyXyXyXyXyXtXXXXX{.< < b t.t.S B B B B B B B A B B B A B B B B A S t.8.Z m m x.D.D.K.5.H.qXyXyXyXyXyX",
"yXyXyXyXyXyXyXyX3XX   < P P H z 5 A p.f.d.u.f.f.f.f.f.f.f.f.f.f.f.f.f.F 5 z Z 9.P B.A.A.z.5.H.rXyXyXyXyXyX",
"yXyXyXyXyXyXyXyX3XX   $ P P H 5 5 A f.f.f.f.f.f.f.f.f.p.f.f.p.f.f.f.f.A 5 5 Z 9.P B.A.A.z.5.6.qXyXyXyXyXyX",
"yXyXyXyXyXyXyXyX3XX   # H H Z m m S f.f.f.f.f.f.f.f.f.f.f.f.f.f.f.f.f.S A A Z Z H c.n.j.T.|.%XrXyXyXyXyXyX",
"yXyXyXyXyXyXyXyX3XX   @ 5 z m P I q.f.f.p.f.p.f.f.f.f.f.p.f.f.f.f.f.f.f.d.f.B 5 5 5 5 b 6XyXyXyXyXyXyXyXyX",
"yXyXyXyXyXyXyXyX3XX   . z 5 m 9.K 9.f.f.f.f.f.p.f.f.f.f.p.f.f.f.f.f.f.p.f.g.B z z z z b 6XyXyXyXyXyXyXyXyX",
"yXyXuX;X;X;XwXwX&X1 # 3 m M M Z Z L y.y.u.p.p.g.f.f.f.f.f.f.f.f.f.f.f.u.y.y.V z z z z b OXwXwX;X;X;XuXyXyX",
"yXyXrXH.3.H.@X#XU.b z m P P Z z z m 9.K w.f.g.p.f.f.f.f.f.f.f.f.f.f.f.q.K P m z z z z b U.#X@XH.3.H.rXyXyX",
"yXyXiXH.3.J.@X#XU.x z m P P J z z m K K w.f.f.g.f.f.f.p.f.f.f.p.f.f.f.q.K P m z z b z n U.#X@XL.3.H.iXyXyX",
"$X X XW.W.@X>X>X|.b z m K P Z , , z P K 9.y.y.y.y.y.u.f.f.f.f.f.u.y.y.9.K P 9 , 3 5 z z |.>X>XQ.W.W.$X X$X",
"l f :.,X1X1X<X<X-Xb z m P K N     3 P P K K K K I P w.f.f.f.f.f.9.P K P P K ,   X 6 z b -X<X<X<X1X,X:.f h ",
"h f :.,X0X<X<X0X-Xb z m P 9.N     2 P P K K K K P P w.f.f.f.f.f.w.K P P K P ,   X 4 z b -X<X<X<X0X,X:.g h ",
" X X|.I.I.I.Q.Q.Y.c z v M M c     2 P P K K K K P P 9.w.w.w.w.w.9.P P Z Z M $     4 z b Y.Q.Q.I.I.I.|. X X",
"yXyXeX[ f { 4.3.,.x z z z z 4     2 P K P P P P P P P K K K K K K K P m z z @     6 z x ,.3.3.{ l [ eXyXyX",
"yXyXqX[ f { 3.6.,.x 5 z z z 3     2 P P P P P P P P P P I P K P K K P m z z @     6 z z ,.6.3.{ l >.7XyXyX",
"yXyXtX&X&X|.;.;.&.).).+.z z 5 , 1 2 0 0 c M M Z P P P P P P P P P P P 9 # # , , 2 +.).).&.;.;.|.$X&XtXyXyX",
"yXyXyXyXyX7X[ h $.'.'.`.z z z z z 3     # z z M P P P P P P P P P P P 2 X   6 z b `.'.'.$.~ { qXyXyXyXyXyX",
"yXyXyXyXyX7X[ h $.].'.`.c z z z z 6     # z z M P P P P P P P P P P P 2     3 z c `.'.].$.h [ 7XyXyXyXyXyX",
"yXyXyXyXyX5Xr - W ~.^.P.W W W z z 5 3 3 , # # 4 m m Z P P P P P P P P 2     t W W P.^.~.W - > 5XyXyXyXyXyX",
"yXyXyXyXyX4Xo   w A.A.N.~ { Q z z z z z 2     # z z M P P P P P P P P 2     d ~ ] N.A.A.w   o 4XyXyXyXyXyX",
"yXyXyXyXyX4Xo   w S.A.N.~ ~ Q z z z z z 1     # z z Z P P P P P P P P 2     s { ] N.A.Z.w   o 4XyXyXyXyXyX",
"yXyXyXyXyXtXXX.X[.E E ^ <.2.3.n.n.a.z z 5 6 6 , @ @ 4 m M Z P P Z m m %     ' 1.<.E E E [.OXXXtXyXyXyXyXyX",
"yXyXyXyXyXyXyXyX3X    : 3.3.v.A.A.n.z z z z z 3     , z z M P P V 5 z #     | J.3.:   X 3XyXyXyXyXyXyXyXyX",
"yXyXyXyXyXyXyXyX3Xo X e 4.3.x.A.Z.j.z b z z b 6     # z z Z K P M z z @     | 3.3.e   o 3XyXyXyXyXyXyXyXyX",
"yXyXyXyXyXyXyXyXtXoXoX{.e e t R R ( m.m.m.m.n.a.G M 0 @ @ 6 m m z z z #     - e e [.oXoXtXyXyXyXyXyXyXyXyX",
"yXyXyXyXyXyXyXyXyXyXyX2X          E A.A.A.A.A.b.K 9.9     , z z z z z @           2XyXyXyXyXyXyXyXyXyXyXyX",
"yXyXyXyXyXyXyXyXyXyXuX;Xo X X     E S.A.Z.A.Z.b.K P 9     , z z 5 z z #   X     X oXyXyXyXyXyXyXyXyXyXyXyX",
"yXyXyXyXyXyXyXyXyXyXuXtX3X3X{.    1 / / C w w a.B.B.(     X . . . @ . c G G $   X oXyXyXyXyXyXyXyXyXyXyXyX",
"yXyXyXyXyXyXyXyXyXyXyXyXyXyXXX    @ z z ,     ( A.A.h.                N P K <     oXyXyXyXyXyXyXyXyXyXyXyX",
"yXyXyXyXyXyXyXyXyXyXyXyXtXeX.X.   % c c 3     ( S.S.a.  X         X X M 0.0.7 o X XXtXtXuXyXyXyXyXyXyXyXyX",
"yXyXyXyXyXyXyXyXyXyXyX3Xu u p G H H J J c     5 u.t.S G H 2     9 H H }.9X9X/.X.X.i u p 4XyXyXyXyXyXyXyXyX",
"yXyXyXyXyXyXyXyXyXyXyXoXX   < P K 9.K 9.v     0 K K K P K 8     v 9.9.*XyXyX_.o.o.=   X 3XyXyXyXyXyXyXyXyX",
"yXyXyXyXyXyXyXyXyXeXeXOXX X 7 i.i.U J J v . . 9 P P P P 9.9 . . N K K =XeXeX(.O.O.=   X 3XyXyXyXyXyXyXyXyX",
"yXyXyXyXyXyXyXyX4Xy y y r a *.eXeX[.@ . 8 J H J P P P P P J H H N c b q y y k ' ' &   X 3XyXyXyXyXyXyXyXyX",
"yXyXyXyXyXyXyXyX3XX   o j j &.yXyX.X    7 K K K K P K P K P K P N 9 5 @     s ] l &   X 3XyXyXyXyXyXyXyXyX",
"yXyXyXyXyXyX9X5XXX+ O & j j 7.eXeX[.    7 L L L L L L L U L L L m x n % . @ a g g > y y 4XyXyXyXyXyXyXyXyX",
"yXyXyXyXyX5Xy * : g f f l l %.o./.X.    ; ` ' ' ` ` ` ` ` ` ` ` ! ! ! Y J H 2 O O XXeXeXuXyXyXyXyXyXyXyXyX",
"yXyXyXyXyX4Xo   + h ] ] ~ ]  .o.o...    ; l l l l l l l h l ] l l l { Y K K <     2XyXyXyXyXyXyXyXyXyXyXyX",
"yXyXyXyXyX4Xo   + h ] [ :.:. .X.X.... . e } } } } } } } } } } } } } } Y 9.9.0 @ @ .X4X5XuXyXyXyXyXyXyXyXyX",
"yXyXyXyXyX4Xo   + ~ f 1.,X0X+XX X # 5 5 F g.s.s.s.s.s.s.f.s.s.s.s.s.f.f.p.p.9.J J 7 o * 3XyXyXyXyXyXyXyXyX",
"yXyXyXyXyX4Xo   + ~ ~ 7.0X0X|.    @ z z F g.f.f.f.f.f.d.g.p.g.f.g.g.g.p.g.p.9.K P $     3XyXyXyXyXyXyXyXyX",
"yXyXyXyXyX5X@.i i g k | $X&XY.    # v v S g.f.f.f.f.u.u.u.u.8.r.r.r.r.r.8.8.A Z G p p i 4XyXyXyXyXyXyXyXyX",
"yXyXyXyXyXyXtXuX&XO   O X .       2 P K 9.f.f.p.f.f.w.P P 0 X X     .   X X X X X oXuXuXyXyXyXyXyXyXyXyXyX",
"yXyXyXyXyXyXyXyX3XX               < K K w.g.f.g.g.g.y.P 9.8                     X oXyXyXyXyXyXyXyXyXyXyXyX",
"yXyXyXyXyXyXyXyX5X@.@.i @.@.@.@.@.T G G A D D D D D A G G q e : ; ; ; ; ; e O     oXyXyXyXyXyXyXyXyXyXyXyX",
"yXyXyXyXyXyXyXyXyXyXyXuXuXyXuXyXuX.X                      ) 6.6.3.5.3.3.5.3.r     2XyXyXyXyXyXyXyXyXyXyXyX",
"yXyXyXyXyXyXyXyXyXyXyXyXyXyXyXyXyX.X                      ) J.6.5.5.6.5.5.5.e     oXyXyXyXyXyXyXyXyXyXyXyX",
"yXyXyXyXyXyXyXyXyXyXyXyXyXyXyXyXyX2X#.#.#.#.#.#.#.#.#.#.#. .| | ,.1.1.1.1.1.r & + {.XXXXeXyXyXyXyXyXyXyXyX",
"yXyXyXyXyXyXyXyXyXyXyXyXyXyXyXyXyXyXyXyXyXyXyXyXyXyXyXyXyX=.    a h h { l l k a j +   X 3XyXyXyXyXyXyXyXyX",
"yXyXyXyXyXyXyXyXyXyXyXyXyXyXyXyXyXyXyXyXyXyXyXyXyXyXyXyXyX*.    s ~ ] ~ { ~ k s a O     3XyXyXyXyXyXyXyXyX",
"yXyXyXyXyXyXyXyXyXyXyXyXyXyXyXyXyXyXyXyXyXyXyXyXyXyXyXyXyX.X$.$.k a a a a a > > > #.$.*.5XyXyXyXyXyXyXyXyX",
"yXyXyXyXyXyXyXyXyXyXyXyXyXyXyXyXyXyXyXyXyXyXyXyXyXyXyXyXyXyXyXyX*.X               2XyXyXyXyXyXyXyXyXyXyXyX",
"yXyXyXyXyXyXyXyXyXyXyXyXyXyXyXyXyXyXyXyXyXyXyXyXyXyXyXyXyXyXyXyX*.              X oXyXyXyXyXyXyXyXyXyXyXyX"
};
