/* XPM */
static char *up_3_[] = {
/* columns rows colors chars-per-pixel */
"53 64 217 2 ",
"   c #000101",
".  c #0C0604",
"X  c #020D04",
"o  c #060609",
"O  c #0A0A0B",
"+  c #090807",
"@  c #130B08",
"#  c #051B06",
"$  c #031C09",
"%  c #051606",
"&  c #0D0F12",
"*  c #151515",
"=  c #1E160D",
"-  c #25150B",
";  c #281B12",
":  c #351D17",
">  c #05240B",
",  c #0B260B",
"<  c #062A0E",
"1  c #092A09",
"2  c #072207",
"3  c #0A330A",
"4  c #0B3E0C",
"5  c #0A3007",
"6  c #14320D",
"7  c #093612",
"8  c #0F2D12",
"9  c #363600",
"0  c #2B2113",
"q  c #362416",
"w  c #2A2A2A",
"e  c #232121",
"r  c #363636",
"t  c #2E2C2D",
"y  c #492917",
"u  c #5E361C",
"i  c #512D16",
"p  c #65391C",
"a  c #6D3C1D",
"s  c #60361A",
"d  c #713E1C",
"f  c #4B2920",
"g  c #462A25",
"h  c #593928",
"j  c #513D31",
"k  c #733F20",
"l  c #0D420D",
"z  c #11440D",
"x  c #1D470A",
"c  c #0B4814",
"v  c #134511",
"b  c #1C4913",
"n  c #0E5315",
"m  c #0E5B1B",
"M  c #0B521A",
"N  c #1C5D15",
"B  c #3B4F0C",
"V  c #0F641E",
"C  c #0F681F",
"Z  c #1F6317",
"A  c #16671F",
"S  c #28781D",
"D  c #317B1F",
"F  c #216818",
"G  c #2B4031",
"H  c #0D6321",
"J  c #0F6B21",
"K  c #0E7226",
"L  c #0F7B29",
"P  c #1C7428",
"I  c #107C29",
"U  c #137324",
"Y  c #156D26",
"T  c #2D6D25",
"R  c #474700",
"E  c #555504",
"W  c #49431C",
"Q  c #55411A",
"!  c #73401F",
"~  c #61560E",
"^  c #406A0A",
"/  c #6D7202",
"(  c #757701",
")  c #584524",
"_  c #535522",
"`  c #6A4621",
"'  c #6F472B",
"]  c #744120",
"[  c #7B4C2C",
"{  c #794722",
"}  c #6B5121",
"|  c #73562E",
" . c #694935",
".. c #20384D",
"X. c #2F455B",
"o. c #2C4865",
"O. c #315273",
"+. c #3A5470",
"@. c #314F6E",
"#. c #067075",
"$. c #4B4A4B",
"%. c #5B5B58",
"&. c #494C54",
"*. c #6B5953",
"=. c #71624B",
"-. c #656565",
";. c #727272",
":. c #4E6172",
">. c #865B1A",
",. c #814F29",
"<. c #88592D",
"1. c #855734",
"2. c #846E35",
"3. c #966B30",
"4. c #A2783E",
"5. c #8D775C",
"6. c #A47B42",
"7. c #A47B45",
"8. c #30821F",
"9. c #1B8429",
"0. c #1C8234",
"q. c #228B29",
"w. c #288F29",
"e. c #2F8320",
"r. c #358D22",
"t. c #2C9229",
"y. c #369B29",
"u. c #3A9725",
"i. c #3EA229",
"p. c #749207",
"a. c #449E28",
"s. c #49A827",
"d. c #41A429",
"f. c #46A72A",
"g. c #79AC46",
"h. c #91AB07",
"j. c #BEBE00",
"k. c #ADBE06",
"l. c #B18E38",
"z. c #B79632",
"x. c #AE922A",
"c. c #D3B137",
"v. c #98C612",
"b. c #B7CC07",
"n. c #C0CE03",
"m. c #C3C000",
"M. c #CAD804",
"N. c #DCCF08",
"B. c #C6E30C",
"V. c #DCEE08",
"C. c #D3EA0A",
"Z. c #F9F605",
"A. c #FDFD00",
"S. c #F4F602",
"D. c #E2CB2E",
"F. c #E7C33B",
"G. c #EFD22D",
"H. c #D8CB20",
"J. c #AB834B",
"K. c #B38847",
"L. c #B9904B",
"P. c #A9966C",
"I. c #B8936E",
"U. c #AC9770",
"Y. c #AC9070",
"T. c #A5B459",
"R. c #DCA953",
"E. c #D6A350",
"W. c #CAA94D",
"Q. c #E3B54D",
"!. c #CCAA7B",
"~. c #D2B17F",
"^. c #E0B060",
"/. c #A0E45C",
"(. c #647C95",
"). c #4B6885",
"_. c #078797",
"`. c #0194C3",
"'. c #01BAFE",
"]. c #00C0FF",
"[. c #94968F",
"{. c #98A79B",
"}. c #BAA589",
"|. c #BCA495",
" X c #B4B4B4",
".X c #BCBCBD",
"XX c #ACABA9",
"oX c #D5B388",
"OX c #C1A998",
"+X c #C9AA84",
"@X c #CAB6A8",
"#X c #BFC0A8",
"$X c #CDC499",
"%X c #DDCEB8",
"&X c #D5C3AF",
"*X c #E8CBA2",
"=X c #F6DCB4",
"-X c #FFE8BF",
";X c #BFBFC0",
":X c #C2C2C2",
">X c #C9C9CA",
",X c #D2D2D2",
"<X c #DBDBDA",
"1X c #D2D6CD",
"2X c #E7DED7",
"3X c #E0D5CE",
"4X c #D6E8DB",
"5X c #FFE9C1",
"6X c #ECE4D9",
"7X c #F0E2D3",
"8X c #E8E6E5",
"9X c #F3EDE6",
"0X c #F7F1E8",
"qX c #F3F3F3",
"wX c #FFFFFF",
"eX c #FAF8F5",
"rX c #EDEFF2",
/* pixels */
"wXwXwXwXwXwXwXwXwXwXwXwXwXwXwXwXwXwXwXwX@Xd ! <.6.6.6.6.6.6.6.6.<.! ! @XwXwXwXwXwXwXwXwXwXwXwXwXwXwXwXwXwX",
"wXwXwXwXwXwXwXwXwXwXwXwXwXwXwXwXwXwXwXwX@Xa ! <.6.6.6.6.6.6.6.6.<.a d &XwXwXwXwXwXwXwXwXwXwXwXwXwXwXwXwXwX",
"wXwXwXwXwXwXwXwXwXwXwXwXwXwXwXwXwXqX<X<X|.,.,.3.l.l.l.l.l.l.l.l.3.>.>.@X0X0X9X9X8XwXwXwXwXwXwXwXwXwXwXwXwX",
"wXwXwXwXwXwXwXwXwXwXwXwXwXwXwXwXwXXX* * ) R.E.D.Z.Z.Z.Z.Z.Z.Z.Z.S.S.S.F.^.^.L.J.J.7XwXwXwXwXwXwXwXwXwXwXwX",
"wXwXwXwXwXwXwXwXwXwXwXwXwXwXwXwXwXXX    ) ^.R.D.A.A.A.A.A.A.A.A.A.A.A.F.R.R.L.4.6.7XwXwXwXwXwXwXwXwXwXwXwX",
"wXwXwXwXwXwXwXwXwXwXwXwXwXwXqX,X>X[.# # _ W.W.H.V.V.V.V.V.V.V.V.V.V.V.D.Q.F.L.K.K.%X6X6XeXwXwXwXwXwXwXwXwX",
"wXwXwXwXwXwXwXwXwXwXwXwXwXwX XO O b d.u.i.f.f.f.s.s.s.s.s.s.s.s.s.s.f.B.A.A.F.R.R.K.J.J.6XwXwXwXwXwXwXwXwX",
"wXwXwXwXwXwXwXwXwXwXwXwXwXwX X    6 f.d.d.d.f.f.d.f.d.f.d.f.d.f.f.d.i.B.A.A.F.R.R.K.6.7.6XwXwXwXwXwXwXwXwX",
"wXwXwXwXwXwXwXwXwXwXwXrX:X:X[., , x r.r.r.r.r.r.r.r.r.r.r.r.r.r.r.r.r.v.C.C.D.F.F.L.K.K.&X3X3XeXwXwXwXwXwX",
"wXwXwXwXwXwXwXwXwXwXwX:Xo o 6 d.d.8.l l l z l l z l l l l z l l l l l r.f.f.B.A.Z.F.R.R.<.! [ 6XwXwXwXwXwX",
"wXwXwXwXwXwXwXwXwXwXwX:X    6 d.f.8.4 4 l 4 l 4 l l 4 l l l 4 4 l l l e.i.f.C.A.A.Q.R.R.<.! ' 6XwXwXwXwXwX",
"wXwXwXwXwXwXwXwXqX X X[., > 4 r.r.S N N Z N N N N N N N N Z N N N N N S e.r.v.b.b.D.F.F.3.[ 1.6XwXwXwXwXwX",
"wXwXwXwXwXwXwXwX>XO   > L I J l l F d.d.d.d.d.i.i.d.i.d.d.d.d.d.d.d.d.Z 4 l C I 9.B.A.S.z.6.J.6XwXwXwXwXwX",
"wXwXwXwXwXwXwXwX>X+   $ I I J 4 4 F d.d.d.d.d.d.d.d.d.d.d.d.d.d.d.d.d.Z l l J I 9.B.A.A.z.4.J.6XwXwXwXwXwX",
"wXwXwXwXwXwXwXwX>Xo   $ C C H n n A d.d.d.d.d.d.d.i.d.d.d.d.d.u.d.d.d.Z 4 l m C C p.b.b.I.!.}.9XwXwXwXwXwX",
"wXwXwXwXwXwXwXwX>Xo   X 4 z n I L q.d.d.d.i.d.d.d.d.d.d.d.d.d.d.d.d.d.Z l l l l l l l c 1XwXwXwXwXwXwXwXwX",
"wXwXwXwXwXwXwXwX%Xo   X l 4 n L L 9.i.d.d.f.d.d.d.d.d.d.d.d.d.d.d.d.d.Z 4 l l l l l c v 1XwXwXwXwXwXwXwXwX",
"wXwXeX%X%X%X7X7X X, # 1 n n m V C P t.t.t.t.t.i.d.d.d.d.i.d.d.d.d.d.i.D F F 4 > 1 4 l v #X7X7X%X%X%XeXwXwX",
"wXwX9XJ.6.J.+XoXU.v l n 9.L J l l n L L L L L q.d.d.d.d.d.d.d.d.d.d.d.d.f.d.6     5 l z P.oXoXJ.4.J.9XwXwX",
"wXwX0XJ.4.J.oXoXP.z l n L L J l l n 9.L L L L w.f.d.d.d.d.d.d.d.d.d.d.d.d.d.6     3 c c P.oXoXK.4.J.9XwXwX",
"OX|.OX!.!.~.*X*X}.v l n I I Y m m M c c m L L 9.t.t.t.w.t.y.d.d.i.d.d.y.t.t.1     5 l v }.*X*X~.!.!.OXOXOX",
"! a 1.=X-X-X-X5X$Xv l n I I I I L M     7 L L L L L L L L t.d.d.d.d.d.9.L L >     5 l v $X-X-X-X-X=X,.a d ",
"d a 1.=X-X-X-X5X$Xz l n I L L L I M     < 9.I I I I I I L t.i.d.d.d.d.q.L I >     5 c v $X-X-X-X5X=X1.a d ",
"|.|.}.I.I.I.!.oXP.z l c L I I I L m > > < 7 c c V m J I L 9.w.w.w.w.w.9.L I >     3 l v P.~.~.I.I.I.}.|.|.",
"wXwX6X[ d { 4.6.2.z 4 n I I I I L J l l 1     # l l m I L L L L L L I I I I >     5 l z 2.4.4.{ k [ 8XwXwX",
"wXwX8X[ d { 6.6.2.4 l v I I I I I J l l 1     # l l m 9.9.L L L L L I I I I >     1 l z 2.6.4.! d [ 6XwXwX",
"wXwXeX@XOX|.<.<.=._._.#.m m m m m n l l 4 2 1 2 # # < 7 7 c m n J I I V n m $     #._._.=.<.<.|.OX@XqXwXwX",
"wXwXwXwXwX6X,.d %.].].`.4 v 4 4 l l l l l l l >           2 l l V I I n l 4 %     `.'.'.%.d { 6XwXwXwXwXwX",
"wXwXwXwXwX2X[ d %.'.].`.l l 4 4 l l l l l l l ,           2 l l V 9.L n l l %   o `.'.'.%.d [ 2XwXwXwXwXwX",
"wXwXwXwXwX<Xq - R /./.T.W W B l l l l l l l l 3 1 1 1 1 1 2 % # 4 n m z l l %     g././.W - q <XwXwXwXwXwX",
"wXwXwXwXwX,XO   9 A.A.N.! ! ~ l l l l l l l l l l l l l l #     > l l l l 4 %     m.A.Z.9   O ,XwXwXwXwXwX",
"wXwXwXwXwX,XO   9 A.A.N.! ! Q l l l l l l l l l l l l l l 2     > l l l l l %     m.A.A.9   O ,XwXwXwXwXwX",
"wXwXwXwXwXrX X X[.R E ~ 3.3.x.b.b.p.4 l l l l l l l l l l 4 5 5 2 # % % % % W | | E R E [. X XqXwXwXwXwXwX",
"wXwXwXwXwXwXwXwX,Xo   ; 7.4.z.A.Z.b.l l l l l l l l l l l l l l #           | 7.6.;   o >XwXwXwXwXwXwXwXwX",
"wXwXwXwXwXwXwXwX>XO   0 6.6.z.A.A.k.l z l z l z l l l l l l z l #     X     | 6.6.0   o >XwXwXwXwXwXwXwXwX",
"wXwXwXwXwXwXwXwXrX&X.X[.; ; 0 R i / n.n.n.n.n.p.4 l l l 4 p.n.n.b.j.j.i     - q 0 [.;X;XqXwXwXwXwXwXwXwXwX",
"wXwXwXwXwXwXwXwXwXwXwX;X          E A.A.A.A.A.h.4 l l l l h.A.A.A.A.A.E           :XwXwXwXwXwXwXwXwXwXwXwX",
"wXwXwXwXwXwXwXwXwXqXqX.Xo       X E S.A.S.A.A.h.l z z v z h.A.Z.A.A.A.E         o .XeXeXwXwXwXwXwXwXwXwXwX",
"wXwXwXwXwXwXwXwX,Xr r G H H M 7 5 x D ^ B 9 9 ( M.M.M.M.M.( 9 9 B D F x 3 3 M H H G r r ,XwXwXwXwXwXwXwXwX",
"wXwXwXwXwXwXwXwX>Xo   $ I I J l z z 3 4 >     ( A.A.A.A.A./     2 4 l l l l J 9.I $     >XwXwXwXwXwXwXwXwX",
"wXwXwXqX9XqXqXqX@X& o $ P 0.Y 4 4 l l z 3 X o / S.S.S.S.S./ X   1 l l l 4 4 Y 0.P 8 + & ;XrXrXqXrXqXwXwXwX",
"wXwX8Xr w w w w t : : *.4X4X{.X X 1 U K J H C P r.r.u.u.u.P H V A U K 3 X X {.4X4X).X.o.r w w w w r 8XwXwX",
"wXwX<X&         o f f 5.wXwX X    < L I I L L L L L L L L L L 9.I L L <      XwXwX(.@.@.&         & <XwXwX",
"8XrX>X* . o . . @ g g *.rXrXXX    < I I I L L L I L K I L L L L I L L <     XXqX8X(.O.@.* . . . . * >X8X8X",
"e e e s p p p p j o.@.+.).).o.    < I I I I I I I I I I I I I I I I I <     ) 1.=.&.O.O.j a a p a u e e e ",
"    @ a ! ] ! !  .O.@.O.O.O...    < L I L L L L L L L I L L L I L L I 1     i ] ' &.O.+.h k k k ! a .     ",
"    @ p ] { [ ,. .o.o.o.o.o...X % 7 P P P P P P P P P P P P P P P P P < X X y p p X.o.o.=.,.,.k ! p @     ",
"    O a ] ,.!.+XY.& o o o O > J J T ` ` ` ` ` ` ` ` ` ` ` ` ` ` ` ` ` T K K , + o o + O 5.oX+X1.! a @     ",
"    . a ! 1.oXoXU.O         > L L T k k k k k k k k k ] k ] k ] k k k T L L >         . U.oXoX1.! a .     ",
"w w w u s ' Y.I.5.o     % % 7 9.9.T } } } } } } } } } } } } } } } } } T 9.9.7 % % o     5.I.Y.' u u w w w ",
"rXqX,X*   . O O O     $ K K I d.i.d.d.d.a.a.a.a.a.a.a.a.a.a.a.d.a.a.d.a.y.i.9.K K $     & O O   . * ,X9XrX",
"wXwX<X@               $ I I 9.f.d.d.d.i.d.d.d.d.d.d.d.f.d.d.d.i.d.f.d.d.d.d.9.L L $               & <XwXwX",
"wXwX8XX.t r t r w     $ H H P y.y.y.i.f.f.i.d.d.d.d.d.d.d.d.d.d.d.d.d.y.y.y.P H H G r r r r r r r $.8XwXwX",
"wXwXwXeXeXeXeXeX:Xo         < I 9.w.i.i.i.d.d.i.d.d.d.d.d.d.d.i.d.d.d.q.I I > o o  XeXqXeXqXqXeXqXqXwXwXwX",
"wXwXwXwXwXwXwXwX>X+         > I L 9.f.f.f.i.f.f.f.d.d.d.d.d.f.f.f.f.f.q.L L >     ;XwXwXwXwXwXwXwXwXwXwXwX",
"wXwXwXwXwXwXwXwX>Xo     @ @ 8 m m A D D D e.D D D D D D D D D D D D D A m H $     [..X:XqXwXwXwXwXwXwXwXwX",
"wXwXwXwXwXwXwXwX>Xo   @ y f :                                                     o   O >XwXwXwXwXwXwXwXwX",
"wXwXwXwXwXwXwXwX>X    . f f :                                                         + >XwXwXwXwXwXwXwXwX",
"wXwXwXwXwXwXwXwX<X&.$.X.: : ;           e &.$.$.$.$.$.&.$.e     @ - - - - - @ @ @     + >XwXwXwXwXwXwXwXwX",
"wXwXwXwXwXwXwXwXwXwXwX&X                -.wXwXwXwXwXwXwXwX;.    y ] ] ] k d h f f @   o >XwXwXwXwXwXwXwXwX",
"wXwXwXwXwXwXwXwXwXwXwX.X  o             -.wXwXwXwXwXwXwXwX;.    y ! ] ! ] ! h y y .     >XwXwXwXwXwXwXwXwX",
"wXwXwXwXwXwXwXwXwXwXwX,X%.%.%.%.%.%.%.%.[.wXwXwXwXwXwXwXeXXX%.%.j i y y y y : : : $.%.-.<XwXwXwXwXwXwXwXwX",
"wXwXwXwXwXwXwXwXwXwXwXwXwXwXwXwXwXwXwXwXwXwXwXwXwXwXwXwXwXwXwXwX-.                :XwXwXwXwXwXwXwXwXwXwXwX",
"wXwXwXwXwXwXwXwXwXwXwXwXwXwXwXwXwXwXwXwXwXwXwXwXwXwXwXwXwXwXwXwX-.              o .XwXwXwXwXwXwXwXwXwXwXwX"
};
