/* XPM */
static char *result[] = {
/* columns rows colors chars-per-pixel */
"90 109 14 1 ",
"  c #000001",
". c #4A2920",
"X c #0D420D",
"o c #107B29",
"O c #734120",
"+ c #315273",
"@ c #A47B41",
"# c #41A429",
"$ c yellow",
"% c #DEAC52",
"& c #00BAFF",
"* c #D5B48B",
"= c #FFE6BD",
"- c white",
/* pixels */
"-----------------------------------OOOOO@@@@@@@@@@@@@@@OOOOO------------------------------",
"-----------------------------------OOOOO@@@@@@@@@@@@@@@OOOOO------------------------------",
"-----------------------------------OOOOO@@@@@@@@@@@@@@@OOOOO------------------------------",
"-----------------------------------OOOOO@@@@@@@@@@@@@@@OOOOO------------------------------",
"-----------------------------------OOOOO@@@@@@@@@@@@@@@OOOOO------------------------------",
"------------------------------     %%%%%$$$$$$$$$$$$$$$$$$$$%%%%%@@@@@--------------------",
"------------------------------     %%%%%$$$$$$$$$$$$$$$$$$$$%%%%%@@@@@--------------------",
"------------------------------     %%%%%$$$$$$$$$$$$$$$$$$$$%%%%%@@@@@--------------------",
"------------------------------     %%%%%$$$$$$$$$$$$$$$$$$$$%%%%%@@@@@--------------------",
"------------------------------     %%%%%$$$$$$$$$$$$$$$$$$$$%%%%%@@@@@--------------------",
"-------------------------     ##############################$$$$$%%%%%@@@@@---------------",
"-------------------------     ##############################$$$$$%%%%%@@@@@---------------",
"-------------------------     ##############################$$$$$%%%%%@@@@@---------------",
"-------------------------     ##############################$$$$$%%%%%@@@@@---------------",
"-------------------------     ##############################$$$$$%%%%%@@@@@---------------",
"--------------------     #####XXXXXXXXXXXXXXXXXXXXXXXXXXXXXX#####$$$$$%%%%%OOOOO----------",
"--------------------     #####XXXXXXXXXXXXXXXXXXXXXXXXXXXXXX#####$$$$$%%%%%OOOOO----------",
"--------------------     #####XXXXXXXXXXXXXXXXXXXXXXXXXXXXXX#####$$$$$%%%%%OOOOO----------",
"--------------------     #####XXXXXXXXXXXXXXXXXXXXXXXXXXXXXX#####$$$$$%%%%%OOOOO----------",
"--------------------     #####XXXXXXXXXXXXXXXXXXXXXXXXXXXXXX#####$$$$$%%%%%OOOOO----------",
"---------------     oooooXXXXX##############################XXXXXooooo$$$$$@@@@@----------",
"---------------     oooooXXXXX##############################XXXXXooooo$$$$$@@@@@----------",
"---------------     oooooXXXXX##############################XXXXXooooo$$$$$@@@@@----------",
"---------------     oooooXXXXX##############################XXXXXooooo$$$$$@@@@@----------",
"---------------     oooooXXXXX##############################XXXXXooooo$$$$$@@@@@----------",
"---------------     XXXXXooooo##############################XXXXXXXXXXXXXXX---------------",
"---------------     XXXXXooooo##############################XXXXXXXXXXXXXXX---------------",
"---------------     XXXXXooooo##############################XXXXXXXXXXXXXXX---------------",
"---------------     XXXXXooooo##############################XXXXXXXXXXXXXXX---------------",
"---------------     XXXXXooooo##############################XXXXXXXXXXXXXXX---------------",
"-----@@@@@*****XXXXXoooooXXXXXoooooooooo#########################     XXXXX*****@@@@@-----",
"-----@@@@@*****XXXXXoooooXXXXXoooooooooo#########################     XXXXX*****@@@@@-----",
"-----@@@@@*****XXXXXoooooXXXXXoooooooooo#########################     XXXXX*****@@@@@-----",
"-----@@@@@*****XXXXXoooooXXXXXoooooooooo#########################     XXXXX*****@@@@@-----",
"-----@@@@@*****XXXXXoooooXXXXXoooooooooo#########################     XXXXX*****@@@@@-----",
"OOOOO==========XXXXXoooooooooo     ooooooooooooooo##########ooooo     XXXXX==========OOOOO",
"OOOOO==========XXXXXoooooooooo     ooooooooooooooo##########ooooo     XXXXX==========OOOOO",
"OOOOO==========XXXXXoooooooooo     ooooooooooooooo##########ooooo     XXXXX==========OOOOO",
"OOOOO==========XXXXXoooooooooo     ooooooooooooooo##########ooooo     XXXXX==========OOOOO",
"OOOOO==========XXXXXoooooooooo     ooooooooooooooo##########ooooo     XXXXX==========OOOOO",
"-----OOOOO@@@@@XXXXXooooooooooXXXXX     XXXXXoooooooooooooooooooo     XXXXX@@@@@OOOOO-----",
"-----OOOOO@@@@@XXXXXooooooooooXXXXX     XXXXXoooooooooooooooooooo     XXXXX@@@@@OOOOO-----",
"-----OOOOO@@@@@XXXXXooooooooooXXXXX     XXXXXoooooooooooooooooooo     XXXXX@@@@@OOOOO-----",
"-----OOOOO@@@@@XXXXXooooooooooXXXXX     XXXXXoooooooooooooooooooo     XXXXX@@@@@OOOOO-----",
"-----OOOOO@@@@@XXXXXooooooooooXXXXX     XXXXXoooooooooooooooooooo     XXXXX@@@@@OOOOO-----",
"----------OOOOO&&&&&XXXXXXXXXXXXXXXXXXXX          XXXXXoooooXXXXX     &&&&&OOOOO----------",
"----------OOOOO&&&&&XXXXXXXXXXXXXXXXXXXX          XXXXXoooooXXXXX     &&&&&OOOOO----------",
"----------OOOOO&&&&&XXXXXXXXXXXXXXXXXXXX          XXXXXoooooXXXXX     &&&&&OOOOO----------",
"----------OOOOO&&&&&XXXXXXXXXXXXXXXXXXXX          XXXXXoooooXXXXX     &&&&&OOOOO----------",
"----------OOOOO&&&&&XXXXXXXXXXXXXXXXXXXX          XXXXXoooooXXXXX     &&&&&OOOOO----------",
"----------     $$$$$OOOOOXXXXXXXXXXXXXXXXXXXXXXXXX     XXXXXXXXXX     $$$$$     ----------",
"----------     $$$$$OOOOOXXXXXXXXXXXXXXXXXXXXXXXXX     XXXXXXXXXX     $$$$$     ----------",
"----------     $$$$$OOOOOXXXXXXXXXXXXXXXXXXXXXXXXX     XXXXXXXXXX     $$$$$     ----------",
"----------     $$$$$OOOOOXXXXXXXXXXXXXXXXXXXXXXXXX     XXXXXXXXXX     $$$$$     ----------",
"----------     $$$$$OOOOOXXXXXXXXXXXXXXXXXXXXXXXXX     XXXXXXXXXX     $$$$$     ----------",
"---------------     @@@@@$$$$$XXXXXXXXXXXXXXXXXXXXXXXXX          @@@@@     ---------------",
"---------------     @@@@@$$$$$XXXXXXXXXXXXXXXXXXXXXXXXX          @@@@@     ---------------",
"---------------     @@@@@$$$$$XXXXXXXXXXXXXXXXXXXXXXXXX          @@@@@     ---------------",
"---------------     @@@@@$$$$$XXXXXXXXXXXXXXXXXXXXXXXXX          @@@@@     ---------------",
"---------------     @@@@@$$$$$XXXXXXXXXXXXXXXXXXXXXXXXX          @@@@@     ---------------",
"--------------------          $$$$$$$$$$XXXXXXXXXX$$$$$$$$$$          --------------------",
"--------------------          $$$$$$$$$$XXXXXXXXXX$$$$$$$$$$          --------------------",
"--------------------          $$$$$$$$$$XXXXXXXXXX$$$$$$$$$$          --------------------",
"--------------------          $$$$$$$$$$XXXXXXXXXX$$$$$$$$$$          --------------------",
"--------------------          $$$$$$$$$$XXXXXXXXXX$$$$$$$$$$          --------------------",
"---------------     oooooXXXXXXXXXX     $$$$$$$$$$     XXXXXXXXXXooooo     ---------------",
"---------------     oooooXXXXXXXXXX     $$$$$$$$$$     XXXXXXXXXXooooo     ---------------",
"---------------     oooooXXXXXXXXXX     $$$$$$$$$$     XXXXXXXXXXooooo     ---------------",
"---------------     oooooXXXXXXXXXX     $$$$$$$$$$     XXXXXXXXXXooooo     ---------------",
"---------------     oooooXXXXXXXXXX     $$$$$$$$$$     XXXXXXXXXXooooo     ---------------",
"-----          .....-----     oooooooooooooooooooooooooooooo     -----+++++          -----",
"-----          .....-----     oooooooooooooooooooooooooooooo     -----+++++          -----",
"-----          .....-----     oooooooooooooooooooooooooooooo     -----+++++          -----",
"-----          .....-----     oooooooooooooooooooooooooooooo     -----+++++          -----",
"-----          .....-----     oooooooooooooooooooooooooooooo     -----+++++          -----",
"     OOOOOOOOOO++++++++++     oooooooooooooooooooooooooooooo     OOOOO+++++OOOOOOOOOO     ",
"     OOOOOOOOOO++++++++++     oooooooooooooooooooooooooooooo     OOOOO+++++OOOOOOOOOO     ",
"     OOOOOOOOOO++++++++++     oooooooooooooooooooooooooooooo     OOOOO+++++OOOOOOOOOO     ",
"     OOOOOOOOOO++++++++++     oooooooooooooooooooooooooooooo     OOOOO+++++OOOOOOOOOO     ",
"     OOOOOOOOOO++++++++++     oooooooooooooooooooooooooooooo     OOOOO+++++OOOOOOOOOO     ",
"     OOOOO*****          oooooOOOOOOOOOOOOOOOOOOOOOOOOOOOOOOooooo          *****OOOOO     ",
"     OOOOO*****          oooooOOOOOOOOOOOOOOOOOOOOOOOOOOOOOOooooo          *****OOOOO     ",
"     OOOOO*****          oooooOOOOOOOOOOOOOOOOOOOOOOOOOOOOOOooooo          *****OOOOO     ",
"     OOOOO*****          oooooOOOOOOOOOOOOOOOOOOOOOOOOOOOOOOooooo          *****OOOOO     ",
"     OOOOO*****          oooooOOOOOOOOOOOOOOOOOOOOOOOOOOOOOOooooo          *****OOOOO     ",
"-----               ooooo########################################ooooo               -----",
"-----               ooooo########################################ooooo               -----",
"-----               ooooo########################################ooooo               -----",
"-----               ooooo########################################ooooo               -----",
"-----               ooooo########################################ooooo               -----",
"---------------          ooooo##############################ooooo     --------------------",
"---------------          ooooo##############################ooooo     --------------------",
"---------------          ooooo##############################ooooo     --------------------",
"---------------          ooooo##############################ooooo     --------------------",
"---------------          ooooo##############################ooooo     --------------------",
"---------------     .....                                                  ---------------",
"---------------     .....                                                  ---------------",
"---------------     .....                                                  ---------------",
"---------------     .....                                                  ---------------",
"---------------     .....                                                  ---------------",
"--------------------               ---------------     OOOOOOOOOO.....     ---------------",
"--------------------               ---------------     OOOOOOOOOO.....     ---------------",
"--------------------               ---------------     OOOOOOOOOO.....     ---------------",
"--------------------               ---------------     OOOOOOOOOO.....     ---------------",
"--------------------               ---------------     OOOOOOOOOO.....     ---------------",
"-------------------------------------------------------               --------------------",
"-------------------------------------------------------               --------------------",
"-------------------------------------------------------               --------------------",
"-------------------------------------------------------               --------------------"
};
