/* XPM */
static char *result[] = {
/* columns rows colors chars-per-pixel */
"91 119 14 1 ",
"  c #000001",
". c #4A2920",
"X c #0D420D",
"o c #107B29",
"O c #734120",
"+ c #315273",
"@ c #A47B41",
"# c #41A429",
"$ c yellow",
"% c #DEAC52",
"& c #00BAFF",
"* c #D5B48B",
"= c #FFE6BD",
"- c white",
/* pixels */
"------------------------------     @@@@@@@@@@@@@@@OOOOO------------------------------------",
"------------------------------     @@@@@@@@@@@@@@@OOOOO------------------------------------",
"------------------------------     @@@@@@@@@@@@@@@OOOOO------------------------------------",
"------------------------------     @@@@@@@@@@@@@@@OOOOO------------------------------------",
"------------------------------     @@@@@@@@@@@@@@@OOOOO------------------------------------",
"-------------------------     @@@@@$$$$$$$$$$$$$$$$$$$$%%%%%@@@@@--------------------------",
"-------------------------     @@@@@$$$$$$$$$$$$$$$$$$$$%%%%%@@@@@--------------------------",
"-------------------------     @@@@@$$$$$$$$$$$$$$$$$$$$%%%%%@@@@@--------------------------",
"-------------------------     @@@@@$$$$$$$$$$$$$$$$$$$$%%%%%@@@@@--------------------------",
"-------------------------     @@@@@$$$$$$$$$$$$$$$$$$$$%%%%%@@@@@--------------------------",
"--------------------     ooooo##############################ooooo@@@@@---------------------",
"--------------------     ooooo##############################ooooo@@@@@---------------------",
"--------------------     ooooo##############################ooooo@@@@@---------------------",
"--------------------     ooooo##############################ooooo@@@@@---------------------",
"--------------------     ooooo##############################ooooo@@@@@---------------------",
"--------------------     #####XXXXXXXXXXXXXXXXXXXXXXXXXXXXXXXXXXXXXXXXOOOOO----------------",
"--------------------     #####XXXXXXXXXXXXXXXXXXXXXXXXXXXXXXXXXXXXXXXXOOOOO----------------",
"--------------------     #####XXXXXXXXXXXXXXXXXXXXXXXXXXXXXXXXXXXXXXXXOOOOO----------------",
"--------------------     #####XXXXXXXXXXXXXXXXXXXXXXXXXXXXXXXXXXXXXXXXOOOOO----------------",
"--------------------     #####XXXXXXXXXXXXXXXXXXXXXXXXXXXXXXXXXXXXXXXXOOOOO----------------",
"---------------     XXXXXXXXXX##############################XXXXXooooo@@@@@----------------",
"---------------     XXXXXXXXXX##############################XXXXXooooo@@@@@----------------",
"---------------     XXXXXXXXXX##############################XXXXXooooo@@@@@----------------",
"---------------     XXXXXXXXXX##############################XXXXXooooo@@@@@----------------",
"---------------     XXXXXXXXXX##############################XXXXXooooo@@@@@----------------",
"---------------     XXXXXooooo##############################oooooXXXXXXXXXXOOOOO-----------",
"---------------     XXXXXooooo##############################oooooXXXXXXXXXXOOOOO-----------",
"---------------     XXXXXooooo##############################oooooXXXXXXXXXXOOOOO-----------",
"---------------     XXXXXooooo##############################oooooXXXXXXXXXXOOOOO-----------",
"---------------     XXXXXooooo##############################oooooXXXXXXXXXXOOOOO-----------",
"-----@@@@@*****XXXXXoooooXXXXXooooo#########################ooooooooooXXXXX*****@@@@@------",
"-----@@@@@*****XXXXXoooooXXXXXooooo#########################ooooooooooXXXXX*****@@@@@------",
"-----@@@@@*****XXXXXoooooXXXXXooooo#########################ooooooooooXXXXX*****@@@@@------",
"-----@@@@@*****XXXXXoooooXXXXXooooo#########################ooooooooooXXXXX*****@@@@@------",
"-----@@@@@*****XXXXXoooooXXXXXooooo#########################ooooooooooXXXXX*****@@@@@------",
"OOOOO==========XXXXXooooo     oooooooooo###############oooooooooo     XXXXX==========OOOOO-",
"OOOOO==========XXXXXooooo     oooooooooo###############oooooooooo     XXXXX==========OOOOO-",
"OOOOO==========XXXXXooooo     oooooooooo###############oooooooooo     XXXXX==========OOOOO-",
"OOOOO==========XXXXXooooo     oooooooooo###############oooooooooo     XXXXX==========OOOOO-",
"OOOOO==========XXXXXooooo     oooooooooo###############oooooooooo     XXXXX==========OOOOO-",
"-----OOOOO@@@@@XXXXXXXXXX     ooooooooooooooo##########ooooo     XXXXXXXXXX@@@@@OOOOO------",
"-----OOOOO@@@@@XXXXXXXXXX     ooooooooooooooo##########ooooo     XXXXXXXXXX@@@@@OOOOO------",
"-----OOOOO@@@@@XXXXXXXXXX     ooooooooooooooo##########ooooo     XXXXXXXXXX@@@@@OOOOO------",
"-----OOOOO@@@@@XXXXXXXXXX     ooooooooooooooo##########ooooo     XXXXXXXXXX@@@@@OOOOO------",
"-----OOOOO@@@@@XXXXXXXXXX     ooooooooooooooo##########ooooo     XXXXXXXXXX@@@@@OOOOO------",
"----------OOOOO&&&&&XXXXX     XXXXXooooooooooooooooooooooooo     XXXXX&&&&&OOOOO-----------",
"----------OOOOO&&&&&XXXXX     XXXXXooooooooooooooooooooooooo     XXXXX&&&&&OOOOO-----------",
"----------OOOOO&&&&&XXXXX     XXXXXooooooooooooooooooooooooo     XXXXX&&&&&OOOOO-----------",
"----------OOOOO&&&&&XXXXX     XXXXXooooooooooooooooooooooooo     XXXXX&&&&&OOOOO-----------",
"----------OOOOO&&&&&XXXXX     XXXXXooooooooooooooooooooooooo     XXXXX&&&&&OOOOO-----------",
"----------     $$$$$OOOOOXXXXX     XXXXXoooooooooooooooXXXXX     OOOOO$$$$$     -----------",
"----------     $$$$$OOOOOXXXXX     XXXXXoooooooooooooooXXXXX     OOOOO$$$$$     -----------",
"----------     $$$$$OOOOOXXXXX     XXXXXoooooooooooooooXXXXX     OOOOO$$$$$     -----------",
"----------     $$$$$OOOOOXXXXX     XXXXXoooooooooooooooXXXXX     OOOOO$$$$$     -----------",
"----------     $$$$$OOOOOXXXXX     XXXXXoooooooooooooooXXXXX     OOOOO$$$$$     -----------",
"---------------     @@@@@$$$$$XXXXX     ooooooooooooooo     $$$$$@@@@@     ----------------",
"---------------     @@@@@$$$$$XXXXX     ooooooooooooooo     $$$$$@@@@@     ----------------",
"---------------     @@@@@$$$$$XXXXX     ooooooooooooooo     $$$$$@@@@@     ----------------",
"---------------     @@@@@$$$$$XXXXX     ooooooooooooooo     $$$$$@@@@@     ----------------",
"---------------     @@@@@$$$$$XXXXX     ooooooooooooooo     $$$$$@@@@@     ----------------",
"--------------------          $$$$$     XXXXXoooooXXXXX               ---------------------",
"--------------------          $$$$$     XXXXXoooooXXXXX               ---------------------",
"--------------------          $$$$$     XXXXXoooooXXXXX               ---------------------",
"--------------------          $$$$$     XXXXXoooooXXXXX               ---------------------",
"--------------------          $$$$$     XXXXXoooooXXXXX               ---------------------",
"--------------------     XXXXXoooooooooo     XXXXXXXXXX     OOOOO     ---------------------",
"--------------------     XXXXXoooooooooo     XXXXXXXXXX     OOOOO     ---------------------",
"--------------------     XXXXXoooooooooo     XXXXXXXXXX     OOOOO     ---------------------",
"--------------------     XXXXXoooooooooo     XXXXXXXXXX     OOOOO     ---------------------",
"--------------------     XXXXXoooooooooo     XXXXXXXXXX     OOOOO     ---------------------",
"--------------------     oooooXXXXXoooooooooo          ooooo-----     ---------------------",
"--------------------     oooooXXXXXoooooooooo          ooooo-----     ---------------------",
"--------------------     oooooXXXXXoooooooooo          ooooo-----     ---------------------",
"--------------------     oooooXXXXXoooooooooo          ooooo-----     ---------------------",
"--------------------     oooooXXXXXoooooooooo          ooooo-----     ---------------------",
"---------------     .....-----OOOOOXXXXXoooooooooooooooOOOOO     --------------------------",
"---------------     .....-----OOOOOXXXXXoooooooooooooooOOOOO     --------------------------",
"---------------     .....-----OOOOOXXXXXoooooooooooooooOOOOO     --------------------------",
"---------------     .....-----OOOOOXXXXXoooooooooooooooOOOOO     --------------------------",
"---------------     .....-----OOOOOXXXXXoooooooooooooooOOOOO     --------------------------",
"----------     OOOOO=====+++++     OOOOOOOOOOOOOOOOOOOO#####ooooo     ---------------------",
"----------     OOOOO=====+++++     OOOOOOOOOOOOOOOOOOOO#####ooooo     ---------------------",
"----------     OOOOO=====+++++     OOOOOOOOOOOOOOOOOOOO#####ooooo     ---------------------",
"----------     OOOOO=====+++++     OOOOOOOOOOOOOOOOOOOO#####ooooo     ---------------------",
"----------     OOOOO=====+++++     OOOOOOOOOOOOOOOOOOOO#####ooooo     ---------------------",
"----------     OOOOO=====     XXXXX#########################ooooo     ---------------------",
"----------     OOOOO=====     XXXXX#########################ooooo     ---------------------",
"----------     OOOOO=====     XXXXX#########################ooooo     ---------------------",
"----------     OOOOO=====     XXXXX#########################ooooo     ---------------------",
"----------     OOOOO=====     XXXXX#########################ooooo     ---------------------",
"---------------               ooooo###############               --------------------------",
"---------------               ooooo###############               --------------------------",
"---------------               ooooo###############               --------------------------",
"---------------               ooooo###############               --------------------------",
"---------------               ooooo###############               --------------------------",
"------------------------------                    @@@@@OOOOO     --------------------------",
"------------------------------                    @@@@@OOOOO     --------------------------",
"------------------------------                    @@@@@OOOOO     --------------------------",
"------------------------------                    @@@@@OOOOO     --------------------------",
"------------------------------                    @@@@@OOOOO     --------------------------",
"---------------------------------------------     @@@@@@@@@@OOOOO     ---------------------",
"---------------------------------------------     @@@@@@@@@@OOOOO     ---------------------",
"---------------------------------------------     @@@@@@@@@@OOOOO     ---------------------",
"---------------------------------------------     @@@@@@@@@@OOOOO     ---------------------",
"---------------------------------------------     @@@@@@@@@@OOOOO     ---------------------",
"---------------------------------------------     @@@@@@@@@@OOOOO     ---------------------",
"---------------------------------------------     @@@@@@@@@@OOOOO     ---------------------",
"---------------------------------------------     @@@@@@@@@@OOOOO     ---------------------",
"---------------------------------------------     @@@@@@@@@@OOOOO     ---------------------",
"---------------------------------------------     @@@@@@@@@@OOOOO     ---------------------",
"---------------------------------------------     OOOOOOOOOO.....     ---------------------",
"---------------------------------------------     OOOOOOOOOO.....     ---------------------",
"---------------------------------------------     OOOOOOOOOO.....     ---------------------",
"---------------------------------------------     OOOOOOOOOO.....     ---------------------",
"---------------------------------------------     OOOOOOOOOO.....     ---------------------",
"--------------------------------------------------               --------------------------",
"--------------------------------------------------               --------------------------",
"--------------------------------------------------               --------------------------",
"--------------------------------------------------               --------------------------"
};
