/* XPM */
static char *up_4_[] = {
/* columns rows colors chars-per-pixel */
"49 64 228 2 ",
"   c #010101",
".  c #0B0604",
"X  c #020B04",
"o  c #0C0903",
"O  c #0C0C0D",
"+  c #120B08",
"@  c #031205",
"#  c #051D06",
"$  c #0B1B08",
"%  c #091707",
"&  c #1B130B",
"*  c #161403",
"=  c #111111",
"-  c #1C1C1D",
";  c #181718",
":  c #0A1616",
">  c #24150C",
",  c #2D1B13",
"<  c #072307",
"1  c #06240A",
"2  c #062B0E",
"3  c #082A09",
"4  c #0B2509",
"5  c #0A340B",
"6  c #0B3E0C",
"7  c #063E0D",
"8  c #093D13",
"9  c #073512",
"0  c #182C0F",
"q  c #2E2216",
"w  c #372617",
"e  c #34320B",
"r  c #1A3220",
"t  c #262628",
"y  c #272626",
"u  c #343333",
"i  c #343228",
"p  c #48271A",
"a  c #5B351A",
"s  c #4C3F16",
"d  c #62371B",
"f  c #653A1D",
"g  c #6D3B1B",
"h  c #603316",
"j  c #723E1D",
"k  c #593629",
"l  c #4E2B20",
"z  c #663B21",
"x  c #753E20",
"c  c #0D420D",
"v  c #16430E",
"b  c #0B4412",
"n  c #0D4C12",
"m  c #0A4918",
"M  c #194711",
"N  c #0E5315",
"B  c #0B531B",
"V  c #0E5C1A",
"C  c #155112",
"Z  c #1B5D15",
"A  c #1A5615",
"S  c #244915",
"D  c #26561C",
"F  c #364818",
"G  c #0F631D",
"H  c #1A6218",
"J  c #35680F",
"K  c #0F5F22",
"L  c #2F5528",
"P  c #0D6221",
"I  c #0F6D23",
"U  c #0F7225",
"Y  c #0F7B29",
"T  c #0E7827",
"R  c #107526",
"E  c #1A7628",
"W  c #107C29",
"Q  c #1B7824",
"!  c #106424",
"~  c #316C26",
"^  c #4B4A01",
"/  c #4B4814",
"(  c #69421E",
")  c #73411F",
"_  c #686703",
"`  c #7D7819",
"'  c #515724",
"]  c #4F4B28",
"[  c #674821",
"{  c #6C4823",
"}  c #744221",
"|  c #7E4D26",
" . c #7C4C2A",
".. c #774724",
"X. c #635F23",
"o. c #6F532D",
"O. c #6F5432",
"+. c #427B31",
"@. c #587124",
"#. c #66652A",
"$. c #303C47",
"%. c #1F374F",
"&. c #086453",
"*. c #2A5966",
"=. c #414142",
"-. c #4E4848",
";. c #525253",
":. c #595959",
">. c #585548",
",. c #756E50",
"<. c #4A6C70",
"1. c #636363",
"2. c #6A6A69",
"3. c #757674",
"4. c #675D4D",
"5. c #967719",
"6. c #A27F15",
"7. c #82522A",
"8. c #875A2D",
"9. c #845737",
"0. c #814D24",
"q. c #866334",
"w. c #956938",
"e. c #9B743C",
"r. c #95753B",
"t. c #8A773B",
"y. c #A2783D",
"u. c #885D41",
"i. c #976C4B",
"p. c #9A7458",
"a. c #8D6D4A",
"s. c #A47A41",
"d. c #A87E43",
"f. c #A27956",
"g. c #947765",
"h. c #1B8429",
"j. c #188329",
"k. c #218A29",
"l. c #228426",
"z. c #358A22",
"x. c #2D9329",
"c. c #3D9C27",
"v. c #359B29",
"b. c #389827",
"n. c #3EA229",
"m. c #508D2F",
"M. c #6B9A30",
"N. c #41A429",
"B. c #44AA2A",
"V. c #7DA739",
"C. c #719007",
"Z. c #939601",
"A. c #8E880F",
"S. c #AAAE01",
"D. c #B2BF05",
"F. c #B39037",
"G. c #BDA12A",
"H. c #949E1E",
"J. c #C2A62C",
"K. c #8AC719",
"L. c #B5C405",
"P. c #D4CE0C",
"I. c #FFFF00",
"U. c #F4F809",
"Y. c #E0EE05",
"T. c #F3DF20",
"R. c #868757",
"E. c #B38C52",
"W. c #95896A",
"Q. c #B79565",
"!. c #BA9873",
"~. c #A88873",
"^. c #A1A678",
"/. c #DEAB52",
"(. c #C1A65B",
"). c #C19C70",
"_. c #C6A67B",
"`. c #D1B07F",
"'. c #E0AC53",
"]. c #466583",
"[. c #2EAAAB",
"{. c #0E8BA1",
"}. c #029DC5",
"|. c #03A0C5",
" X c #00BDFF",
".X c #0FA8E3",
"XX c #2CC7D3",
"oX c #918F8C",
"OX c #959796",
"+X c #9D9D9E",
"@X c #898C87",
"#X c #B79D8C",
"$X c #B69B87",
"%X c #AC9D99",
"&X c #A9A9A9",
"*X c #BCBCBC",
"=X c #B5B5B5",
"-X c #BAA881",
";X c #D4B488",
":X c #DBBB93",
">X c #CAB08B",
",X c #CCB9AC",
"<X c #AFD2B7",
"1X c #E1C198",
"2X c #D7C6B6",
"3X c #D9C2A6",
"4X c #EBD5AD",
"5X c #FDE5BB",
"6X c #FEE8BF",
"7X c #BFBFC0",
"8X c #C3C4C4",
"9X c #DDD1C9",
"0X c #D5D5D5",
"qX c #DADADA",
"wX c #D4CEC9",
"eX c #E2D6C9",
"rX c #E7DED7",
"tX c #FFEAC1",
"yX c #F4E4C7",
"uX c #E8E1DC",
"iX c #E5E5E5",
"pX c #EDECEC",
"aX c #EAE7E6",
"sX c #F5F1ED",
"dX c #F4F4F4",
"fX c #FFFFFF",
"gX c #FBF9F7",
"hX c #EFEFEF",
/* pixels */
"fXfXfXfXfXfXfXfXfXfXfXfXfXfXfXdXu   - e.s.s.s.s.s.s.i.} g ~.fXfXfXfXfXfXfXfXfXfXfXfXfXfXfXfXfXfXfX",
"fXfXfXfXfXfXfXfXfXfXfXfXfXfXfXfXu   > s.s.s.s.s.s.s.e.} g $XfXfXfXfXfXfXfXfXfXfXfXfXfXfXfXfXfXfXfX",
"fXfXfXfXfXfXfXfXfXfXfXfXfX0X&X&X] w / G.G.J.J.J.J.J.G.A.5.(.yXyXeX4XeXgXfXfXfXfXfXfXfXfXfXfXfXfXfX",
"fXfXfXfXfXfXfXfXfXfXfXfXfX3.    q.d.F.I.I.I.I.I.I.I.I.I.I.T././.E.y.E.hXfXfXfXfXfXfXfXfXfXfXfXfXfX",
"fXfXfXfXfXfXfXfXfXfXfXfXfX].+ + 9.s.F.I.I.I.I.I.I.I.I.I.I.T.'.'.E.d.E.sXfXgXfXfXfXfXfXfXfXfXfXfXfX",
"fXfXfXfXfXfXfXfXfXfX0X1.1.L m C m.M.M.K.K.K.K.K.K.K.K.K.K.K.V.V.m.+.m.-X>X2XfXfXfXfXfXfXfXfXfXfXfX",
"fXfXfXfXfXfXfXfXfXfX*X    8 W j.v.n.n.n.n.n.n.n.c.n.n.n.n.N.n.n.l.W E e.e._.fXfXfXfXfXfXfXfXfXfXfX",
"fXfXfXfXfXfXfXfXfXfX7X.   m j.W b.c.n.c.c.c.c.c.c.c.c.c.v.c.c.c.E E E t.r.!.dXsXgXfXfXfXfXfXfXfXfX",
"fXfXfXfXfXfXfXfXfXfX*X    A n.b.H C C C C C C C C C C C C C C C C n n S S / u.9.2XfXfXfXfXfXfXfXfX",
"fXfXfXfXfXfXfXfXfXfX8X    D B.N.C v c 6 6 6 6 6 6 6 6 6 6 6 6 6 b c c 6 7 F ( g ,XfXfXfXfXfXfXfXfX",
"fXfXfXfXfXfXfXgX8X*XoX@ @ A z.z.H H Z Z Z Z Z Z Z Z Z Z Z Z Z Z n c c n B L |  .,XfXfXfXfXfXfXfXfX",
"fXfXfXfXfXfXfXpXt   @ c c c c c z.N.N.N.N.N.N.N.N.N.N.N.N.N.N.N.Z 6 n R j.~ s.r.2XfXfXfXfXfXfXfXfX",
"fXfXfXfXfXfXfXpXy   @ c c c c c z.N.N.N.N.N.N.N.N.N.N.N.N.N.N.N.Z v n R Y +.F.s.2XfXfXfXfXfXfXfXfX",
"fXfXfXfXfXfXfXpXy   X c c C G G b.N.N.N.N.N.N.N.N.N.N.N.N.N.N.N.Q G G V V D ' ' g.$X#XsXfXfXfXfXfX",
"fXfXfXfXfXfXfXhXy   @ c c G W j.v.N.N.N.N.N.N.N.N.N.N.N.N.N.N.N.k.Y R c c c c c / g  .uXfXfXfXfXfX",
"fXfXfXgXgXgXgXpXt   @ b c V Y W v.N.c.N.N.N.N.N.N.N.N.N.N.N.N.N.k.W R n c c c c / }  .uXgXgXfXfXfX",
"fXfXeXQ.Q.;X3X;XF 5 b I U V n N Q j.k.n.N.N.N.N.N.N.N.N.N.N.N.N.h.Y Y U U G c 6 ,._.!.Q.Q.>XfXfXfX",
"fXfXeXs.y.!.;X>XD c B Y Y V c c I Y h.n.N.N.N.N.N.N.N.N.N.N.N.B.k.Y Y Y j.G c c R.;X;XE.e.!.fXfXfX",
"eX9X2XE.E.>X:X;XL c N W Y B 5 5 I Y j.v.v.c.N.N.N.N.N.N.N.n.v.b.h.W Y P G B c c W.1X:XQ.E._.9X9XaX",
"..} f.5X5X5XtX4XL 6 N W j.9   X G Y Y W Y x.N.N.N.N.N.N.N.x.W W W W U @   @ c 7 ^.6X5X5X5X:X ...#X",
"j g p.tXtX6X6X4XL c C Y Y 8     K W W W Y k.B.N.N.N.N.N.N.x.T W W W U X   @ c c ^.6X6X6XtX:Xx g #X",
"#X#X!.!.!._.`.`.D c n V G 2   X P W W W Y h.x.x.c.N.N.N.N.x.W W B b 8 1 # 3 c c R.`.`.!.!.!.#X#X9X",
"fXfX2Xg ) 8.y.r.S c c c c <     P W W W W T Y Y v.N.N.N.N.x.W W 2     6 c v c 8 X.s.y.| g p.fXfXfX",
"fXfX2X..) q.E.e.S b b c c #     P W T W W W W W b.N.N.N.N.x.W W 2     6 c b b m #.F.e.| } p.gXfXfX",
"fXfXsX9X9XW.0.O.{.|.{.v c <     8 N N W W W W W j.h.h.h.h.j.W W 2     8 v &.}.}.<.0.8.2X9XrXfXfXfX",
"fXfXfXfXfX~.j { .X X}.b c $     5 c n W W W W W W Y W W W W W W 2   . 6 c &. X X<.j | uXfXfXfXfXfX",
"fXfXfXfXfX~.a [ [.XX[.6 M 4 X X 3 5 c R U R W W W W W W W W R R 1     6 S &.XXXX<.a { uXfXfXfXfXfX",
"fXfXfXfXfX1.  * P.U.P.j ..e 6 6 @   @ c c G W W W T W W W G c c @   o f ) 5.U.U._   ; qXfXfXfXfXfX",
"fXfXfXfXfX1.  o Y.I.P.) ) e 7 7 X   o c c V Y W W W T W W ! c c X . . d ) 6.I.I._   O qXfXfXfXfXfX",
"fXfXfXfXfX&X2.2.A.Z.A.9.q.5.C.C.0 # < 3 < N Y Y W T W W W V 1 1 ^ _ _ 7.8.5.Z.Z.,.2.3.aXfXfXfXfXfX",
"fXfXfXfXfXfXfXhXt   , s.s.J.I.I.J c 5     9 j.Y W W T W W m     S.I.U.F.s.o.    +XfXfXfXfXfXfXfXfX",
"fXfXfXfXfXfXfXpXt   q s.s.P.I.U.J v 5     9 Y Y W W W W W m     S.I.U.F.s.o.    +XfXfXfXfXfXfXfXfX",
"fXfXfXfXfXfXfXgX7X=XoXw , s ^ ^ S.L.Z..   3 N N U W T C N 5     e ^ ^ q q >.=X=XiXfXfXfXfXfXfXfXfX",
"fXfXfXfXfXfXfXfXfXfX7X        X P.I.P.o   # c b I Y U n c 1               ;.fXfXfXfXfXfXfXfXfXfXfX",
"fXfXfXfXfXfXfXfXfXfX*X      X o L.Y.D.% @ 1 6 5 G R I c c 3     . o o     ;.fXfXfXfXfXfXfXfXfXfXfX",
"fXfXfXfXfXfXfXfXfXfX*X    < 6 6 Q h.h.U U 8 X   5 n c c c 3     p g d .   ;.fXfXfXfXfXfXfXfXfXfXfX",
"fXfXfXfXfXfXfXfXfXfX*X    1 c c I j.T j.W m     5 c c c c 3     p j d .   ;.fXfXfXfXfXfXfXfXfXfXfX",
"fXfXfXfXfXfXfXfXfXfX7X    2 B V G G G T W B 2 2 3 3 3 3 3 2 2 9 ,.~.g.=   ;.fXfXfXfXfXfXfXfXfXfXfX",
"fXfXfXfXfXfXfXfXfXfX*X    b Y T n c N T W W Y Y #         2 W W <XgXiX-   ;.fXfXfXfXfXfXfXfXfXfXfX",
"fXfXfXfXfXfXfXfXfXfX7X.   b T U n c N T W W Y Y 1         5 W W <XfXiX;   ;.fXfXfXfXfXfXfXfXfXfXfX",
"fXfXfXfXfXfXfXdX3.;.-., , 3.<X<X#.s / B B G Y Y P m B B B D ' ' >.:.1.+X&X8XfXfXfXfXfXfXfXfXfXfXfX",
"fXfXfXfXfXfXfXpXy   . p p %XfXfXi.z [ v 6 V Y Y j.Y Y Y Y ~ } ) >   ; aXfXfXfXfXfXfXfXfXfXfXfXfXfX",
"fXfXfXfXfXhXaXqXy . > k z %XpXiXu.d a 6 v Z E E E E Q Q E ~ ..{ > X - 0XiXhXfXfXfXfXfXfXfXfXfXfXfX",
"fXfXfXfXfX3.- y k d u.4X4XOX].].- O & [ [ ( [ [ [ [ { ( [ ' N.m.Q I P r - 2.fXfXfXfXfXfXfXfXfXfXfX",
"fXfXfXfXfX1.    d j i.5XyXOX*.*.:   + g x x x x ) j ) j ) #.N.N.k.j.U X   ;.fXfXfXfXfXfXfXfXfXfXfX",
"fXfXfXfXfX1.  . d x i.5XtX@X%.%.: @ 0 X.X.X.X.X.X.X.X.X.#.@.N.N.h.Y U X   ;.fXfXfXfXfXfXfXfXfXfXfX",
"fXfXfXfXfX1.  . d j i.5XtX,.    5 6 C N.N.N.n.N.N.N.N.N.n.N.N.N.k.Y I X   ;.fXfXfXfXfXfXfXfXfXfXfX",
"fXfXfXfXfX1.    d j i.5XtX2.    5 c A c.N.N.N.N.N.N.N.B.N.N.N.N.k.j.I X   ;.fXfXfXfXfXfXfXfXfXfXfX",
"fXfXfXfXfX8XOXoXw , w 4.4.i     B G Q c.N.N.N.N.N.N.b.S M M M M 8 9 r @XOX*XfXfXfXfXfXfXfXfXfXfXfX",
"fXfXfXfXfXfXfXdXy               P W j.N.N.N.N.N.N.N.z.              - aXfXfXfXfXfXfXfXfXfXfXfXfXfX",
"fXfXfXfXfXfXfXpXu = = = = : = = P T Q N.c.c.c.c.c.N.z.o O o .       - iXfXfXfXfXfXfXfXfXfXfXfXfXfX",
"fXfXfXfXfXfXfXfXqXqX0X0X0X0X0XwXu @ @ $ $ $ $ $ % $ 0 q.q. .d d &   ; iXfXfXfXfXfXfXfXfXfXfXfXfXfX",
"fXfXfXfXfXfXfXfXfXfXfXfXfXfXfXgXi                   & e.s.w.} } >   ; aXfXfXfXfXfXfXfXfXfXfXfXfXfX",
"fXfXfXfXfXfXfXfXfXfXfXfXfXfXfXgX2.$.=.$.=.=.=.$.=   & e.s.w.| | w > q &X*X0XfXfXfXfXfXfXfXfXfXfXfX",
"fXfXfXfXfXfXfXfXfXfXfXfXfXfXfXfXgXfXfXgXgXfXgXgX=.  & r.s.s.s.s. .x z +   :.fXfXfXfXfXfXfXfXfXfXfX",
"fXfXfXfXfXfXfXfXfXfXfXfXfXfXfXfXfXfXfXfXfXfXfXgX=.  & e.s.s.s.s.8.} g .   ;.fXfXfXfXfXfXfXfXfXfXfX",
"fXfXfXfXfXfXfXfXfXfXfXfXfXfXfXfXfXfXfXfXfXfXfXfX=.  & e.s.s.s.s.7.} f .   ;.fXfXfXfXfXfXfXfXfXfXfX",
"fXfXfXfXfXfXfXfXfXfXfXfXfXfXfXfXfXfXfXfXfXfXfXfX=.  & e.s.s.s.s.7.} z o   ;.fXfXfXfXfXfXfXfXfXfXfX",
"fXfXfXfXfXfXfXfXfXfXfXfXfXfXfXfXfXfXfXfXfXfXfXgX=.  & r.s.s.s.s.| } f +   ;.fXfXfXfXfXfXfXfXfXfXfX",
"fXfXfXfXfXfXfXfXfXfXfXfXfXfXfXfXfXfXfXfXfXfXfXfX=.  + ..| | | 0.z l p     ;.fXfXfXfXfXfXfXfXfXfXfX",
"fXfXfXfXfXfXfXfXfXfXfXfXfXfXfXfXfXfXfXfXfXfXfXgX=.  . z } } } x l l p     ;.fXfXfXfXfXfXfXfXfXfXfX",
"fXfXfXfXfXfXfXfXfXfXfXfXfXfXfXfXfXfXfXfXfXfXfXfX2.u u a a a a a p w w u u 3.fXfXfXfXfXfXfXfXfXfXfX",
"fXfXfXfXfXfXfXfXfXfXfXfXfXfXfXfXfXfXfXfXfXfXfXfXgXdX0X&     .   .   - qXdXgXfXfXfXfXfXfXfXfXfXfXfX",
"fXfXfXfXfXfXfXfXfXfXfXfXfXfXfXfXfXfXfXfXfXfXfXfXfXfXqX=             - iXfXfXfXfXfXfXfXfXfXfXfXfXfX"
};
