/* XPM */
static char *D1[] = {
/* columns rows colors chars-per-pixel */
"32 32 213 2 ",
"   c #000001",
".  c #090604",
"X  c #020A03",
"o  c #080A08",
"O  c #140B06",
"+  c #160D09",
"@  c #041205",
"#  c #071B09",
"$  c #191609",
"%  c #23140B",
"&  c #2E190D",
"*  c #271B0D",
"=  c #261D14",
"-  c #341B13",
";  c #331B0D",
":  c #06260D",
">  c #163A0E",
",  c #073211",
"<  c #0E3510",
"1  c #282617",
"2  c #362714",
"3  c #142633",
"4  c #362C23",
"5  c #343132",
"6  c #3D3328",
"7  c #492914",
"8  c #45311A",
"9  c #5B351B",
"0  c #57371A",
"q  c #673B1C",
"w  c #713F1E",
"e  c #41372B",
"r  c #443527",
"t  c #523E34",
"y  c #643A22",
"u  c #703F21",
"i  c #094518",
"p  c #194C19",
"a  c #0A551D",
"s  c #154B10",
"d  c #2B4715",
"f  c #26591A",
"g  c #3A4218",
"h  c #16611E",
"j  c #286D1B",
"k  c #0F6622",
"l  c #0D7B29",
"z  c #0D7928",
"x  c #1D7228",
"c  c #137D29",
"v  c #177524",
"b  c #106826",
"n  c #2C6926",
"m  c #247625",
"M  c #367229",
"N  c #56421C",
"B  c #6A5712",
"V  c #544C2E",
"C  c #694621",
"Z  c #684B23",
"A  c #744422",
"S  c #7A4B28",
"D  c #685626",
"F  c #7B5C2E",
"G  c #4C6E2B",
"H  c #6C7F35",
"J  c #193D48",
"K  c #243F59",
"L  c #413B44",
"P  c #314256",
"I  c #334F6A",
"U  c #246275",
"Y  c #4F4C4A",
"T  c #624E48",
"R  c #705940",
"E  c #7B6750",
"W  c #626173",
"Q  c #86581D",
"!  c #86592B",
"~  c #835431",
"^  c #895B35",
"/  c #966A37",
"(  c #977939",
")  c #926733",
"_  c #A8773C",
"`  c #956C48",
"'  c #987148",
"]  c #9F7754",
"[  c #8B6B51",
"{  c #A57C40",
"}  c #A87F46",
"|  c #A47A51",
" . c #1D882A",
".. c #218C2A",
"X. c #2A8423",
"o. c #398D23",
"O. c #368B27",
"+. c #2C9329",
"@. c #2A9128",
"#. c #369B29",
"$. c #359023",
"%. c #3E803A",
"&. c #539A1E",
"*. c #5AA31C",
"=. c #4A8C24",
"-. c #528827",
";. c #459828",
":. c #5F9930",
">. c #6A8B37",
",. c #778E36",
"<. c #43A429",
"1. c #478B44",
"2. c #619F52",
"3. c #77836F",
"4. c #B99E1C",
"5. c #98BE1F",
"6. c #B3A813",
"7. c #859B36",
"8. c #AA833D",
"9. c #A7813E",
"0. c #B28D3B",
"q. c #B79534",
"w. c #B99A32",
"e. c #AD9228",
"r. c #92AB33",
"t. c #BEA030",
"y. c #D1BE1E",
"u. c #CBB812",
"i. c #C49D39",
"p. c #C2A42B",
"a. c #CDB625",
"s. c #D4BA26",
"d. c #C3A334",
"f. c #E3BE3E",
"g. c #9EC71A",
"h. c #A8D613",
"j. c #DCCA18",
"k. c #DFD017",
"l. c #D9D40A",
"z. c #E8DC12",
"x. c #EDE40D",
"c. c #EBE505",
"v. c #F3EE08",
"b. c #E8F204",
"n. c #FAF506",
"m. c #FDFC02",
"M. c #F7F109",
"N. c #F5E912",
"B. c #EFE116",
"V. c #D7C223",
"C. c #E4CB27",
"Z. c #ECD329",
"A. c #F1DA25",
"S. c #E7C03F",
"D. c #AB8146",
"F. c #B38A56",
"G. c #B78E50",
"H. c #A2AB44",
"J. c #808077",
"K. c #BB966A",
"L. c #BC9873",
"P. c #A98E69",
"I. c #C69848",
"U. c #C29551",
"Y. c #C7A34A",
"T. c #D2A24D",
"R. c #DBAD4C",
"E. c #DEAF52",
"W. c #E2BA41",
"Q. c #C29E76",
"!. c #C7A47C",
"~. c #C8A77A",
"^. c #E8C140",
"/. c #37559A",
"(. c #2B4E9B",
"). c #006087",
"_. c #405C9D",
"`. c #6A7CAB",
"'. c #388396",
"]. c #78CA95",
"[. c #31BBE7",
"{. c #8E918E",
"}. c #9CB99B",
"|. c #B7A897",
" X c #9097AB",
".X c #A1A6B9",
"XX c #CCAA82",
"oX c #D0AE85",
"OX c #CBB28D",
"+X c #D4B58B",
"@X c #D4B587",
"#X c #DBBB92",
"$X c #AECCBB",
"%X c #E3C59C",
"&X c #EAC78D",
"*X c #D5C4A9",
"=X c #E9CDA4",
"-X c #F3D6A7",
";X c #F5DBB3",
":X c #F8DDB4",
">X c #EED1A8",
",X c #FEE6BD",
"<X c #9DA9C7",
"1X c #B8B9C1",
"2X c #BCDBC2",
"3X c #DACEC6",
"4X c #DDD4CD",
"5X c #E8D9C6",
"6X c #FFECCA",
"7X c #D2D7E2",
"8X c #FFF7E4",
"9X c #F1EEEB",
"0X c #489848",
/* pixels */
"0X0X0X0X0X0X0X0X0X0X0X0X0X0X0X0X0X0X0X0X0X0X0X0X0X0X0X0X0X0X0X0X",
"0X0X0X0X0X0X0X0X0X0X0X  a c c z l c l :   0X0X0X0X0X0X0X0X0X0X0X",
"0X0X0X0X0X0X0X0X0X  : i x +.+.@.+.+.+.h i X 0X0X0X0X0X0X0X0X0X0X",
"0X0X0X0X0X0X0X0X0X# a c @.#.#.#.#.#.#. .l , # 0X0X0X0X0X0X0X0X0X",
"0X0X0X0X0X0X0XX : z c c c c c c c c c c c c k @ X 0X0X0X0X0X0X0X",
"0X0X0X0X0X  X a v +.#.#.#.#.#.#.#.#.#.#.#.#.@.k ,   0X0X0X0X0X0X",
"0X0X0X0XX , i G ,.H.7.,.5.h.h.g.,.r.h.h.h.7.>.+.v i :   0X0X0X0X",
"0X0X0X0XX p M q.i.T.I.w.x.m.x.j.{ p.x.m.m.q.( :.O. .,   0X0X0X0X",
"0X0X0X+ . 9 ! c.z.} s.n.n.v.w.9.8.8.8.k.M.q.9.8.>.v , . 0X0X0X0X",
"{ F.+X[ 9 _ i.n.N.T.C.m.y.w.z.x.x.x.x.a.w.z.x.x.6.V q 9 L.~.} { ",
"! | >XK.! s.A.y.V.A.C.a.0.9.N.n.A.C.s.Y.K.a.j.m.j._ F.Q.=X#X) ^ ",
"w ` %X~.G.y.l.0.d.m.k.q.q.d.B.z.T.G.D.~.@XK.T.N.Z.T.&X:X=XoXS w ",
"0X0XA | OX` ! T.f.m.m.n.n.M.f.T.D.F.+X+X#X;X=XE.I.9.Q.OX^ S 0X0X",
"0X0X+ U [.3./ 8.I.W.^.W.^.W.G.{ S | +X>X;X%XoX! e.c.].[.0X0X0X0X",
"0X0X  J '.H.a.) ! D ( I.G.I.) ) ] K.#X~.L.E R ~ 4.m.2.).0X0X0X0X",
"0X0X  ; 9 u.x.Q y 5 T [ ' / ~ ' #XoXL.[ t 5 V / p.M.B   0X0X0X0X",
"0X0X0X0X. ( T.S [ 9X<X/.T F Q.#X,XXXS I _.7X3XS / R.N   0X0X0X0X",
"0X0X0X0X0X2 2 % V 6X.X(..X3X;X;X,X;X3X`._.4X*X= = 2 = 0X0X0X0X0X",
"0X0X0X0X0X0X    4 @X|. X4X8X6X,X6X6X8X1X XOXP.o     0X0X0X0X0X0X",
"0X0X0X0X0X0X0X@ 1 / K.=X-X:X;X,X;X:X:X>X#XF.F # @ 0X0X0X0X0X0X0X",
"0X0X0X0X0X  o b n A S S K.+X+X+X+X+X+X] S A Z x i   0X0X0X0X0X0X",
"0X0X      J I $X}.d f n %.1.1.1.1.1.1.M n d G 2X{.- +       0X0X",
"0X+ & & = P I {.3.6 f l l l z z z z z z z d V {.W Y 4 & & & 0X0X",
"  % ~ ~ S Y I # $ Z G x x m X.$.O.X.x m m V N X 3 P T ~ ~ C .   ",
"  4 !.XXXX6 o , p ;.G C C B l.b.b.6.C C Z =.o.s : X E oXXXP.o   ",
"0X1 e e 6 1 0X@ > <.<.-.G M &.*.*.=.j M -.;.O.# @ 0X4 e e 6 0X0X",
"0X0X      0X0X  # f m +.@. .....@...@.X.X.j p X   0X0X    0X0X0X",
"0X0X0X0X0X    . o O > x O.;.o.o.o.o.o.f > X       0X0X0X0X0X0X0X",
"0X0X0X0X0X  . 9 q q 9 8 r 8 $ @ @ @ @ 7 q O   0X0X0X0X0X0X0X0X0X",
"0X0X0X0X0X0X0X% - A A y - + 0X0X0X0X0X% % 0X0X0X0X0X0X0X0X0X0X0X",
"0X0X0X0X0X0X0X  + 7 7 7 %   0X0X0X0X0X0X  0X0X0X0X0X0X0X0X0X0X0X",
"0X0X0X0X0X0X0X0X0X      0X0X0X0X0X0X0X0X0X0X0X0X0X0X0X0X0X0X0X0X"
};
