/* XPM */
static char *D10[] = {
/* columns rows colors chars-per-pixel */
"32 32 208 2 ",
"   c #010001",
".  c #0B0604",
"X  c #040B04",
"o  c #080A0A",
"O  c #190E09",
"+  c #081709",
"@  c #1A100A",
"#  c #100F10",
"$  c #22130C",
"%  c #281A0D",
"&  c #311B0D",
"*  c #2D1C17",
"=  c #06280E",
"-  c #14340D",
";  c #073411",
":  c #12290D",
">  c #2C231A",
",  c #372718",
"<  c #353012",
"1  c #192B3E",
"2  c #35312C",
"3  c #2C2C2D",
"4  c #4B2A15",
"5  c #48281A",
"6  c #5B371A",
"7  c #492D19",
"8  c #723C1A",
"9  c #4C2A20",
"0  c #453626",
"q  c #533925",
"w  c #403A30",
"e  c #683C22",
"r  c #0B4818",
"t  c #15591B",
"y  c #124714",
"u  c #3B4518",
"i  c #234C1C",
"p  c #286419",
"a  c #27601F",
"s  c #265A26",
"d  c #0C6721",
"f  c #186323",
"g  c #0C7B29",
"h  c #0D7525",
"j  c #197728",
"k  c #147F29",
"l  c #147B27",
"z  c #1E7F30",
"x  c #3A6326",
"c  c #357328",
"v  c #6D411F",
"b  c #5D4722",
"n  c #465923",
"m  c #494237",
"M  c #654C22",
"N  c #674A21",
"B  c #734222",
"V  c #774A28",
"C  c #7B5828",
"Z  c #684829",
"A  c #756131",
"S  c #293C51",
"D  c #355778",
"F  c #356875",
"G  c #544D58",
"H  c #6F5548",
"J  c #5C7757",
"K  c #786150",
"L  c #45576C",
"P  c #635D70",
"I  c #6B676E",
"U  c #756B67",
"Y  c #777676",
"T  c #697077",
"R  c #8E651C",
"E  c #936818",
"W  c #87582C",
"Q  c #855533",
"!  c #865E35",
"~  c #8B623E",
"^  c #826032",
"/  c #976936",
"(  c #977B39",
")  c #917029",
"_  c #A4793D",
"`  c #A1762F",
"'  c #8F6240",
"]  c #926A4C",
"[  c #936541",
"{  c #9D7348",
"}  c #886B53",
"|  c #947852",
" . c #A57C43",
".. c #A87E53",
"X. c #8B7D73",
"o. c #1C8529",
"O. c #1A852A",
"+. c #1E8030",
"@. c #238426",
"#. c #258D29",
"$. c #298326",
"%. c #378922",
"&. c #329A2A",
"*. c #3A9E29",
"=. c #389426",
"-. c #288A31",
";. c #679A19",
":. c #77B417",
">. c #459C2B",
",. c #7B9539",
"<. c #4CA926",
"1. c #49A429",
"2. c #47A329",
"3. c #9D8D1A",
"4. c #B89B12",
"5. c #A5A603",
"6. c #948A38",
"7. c #AB853B",
"8. c #AB8731",
"9. c #B89734",
"0. c #A9942F",
"q. c #AEB12C",
"w. c #C6B316",
"e. c #C3A82B",
"r. c #CDB527",
"t. c #D1BB21",
"y. c #C8A637",
"u. c #CCB637",
"i. c #E6BB3D",
"p. c #BDC10D",
"a. c #D5C11F",
"s. c #DBC918",
"d. c #C3C91A",
"f. c #E5D814",
"g. c #E3D612",
"h. c #DCED07",
"j. c #D8E90A",
"k. c #DEF007",
"l. c #EEE50C",
"z. c #F1EA0A",
"x. c #FEFD01",
"c. c #F8F307",
"v. c #F5E914",
"b. c #EBE111",
"n. c #F0D62A",
"m. c #E9C935",
"M. c #E8D027",
"N. c #929C45",
"B. c #AB8343",
"V. c #B38944",
"C. c #B28744",
"Z. c #BF9348",
"A. c #AF8954",
"S. c #AB825C",
"D. c #B38C58",
"F. c #9F816D",
"G. c #BA9366",
"H. c #B79872",
"J. c #B78F69",
"K. c #B2AA7A",
"L. c #B1A477",
"P. c #94AF70",
"I. c #C49546",
"U. c #CEA247",
"Y. c #D8AA4B",
"T. c #DDB542",
"R. c #DBA951",
"E. c #E0B546",
"W. c #C29D73",
"Q. c #CAA77A",
"!. c #D3B37A",
"~. c #2E519F",
"^. c #33539A",
"/. c #509FA5",
"(. c #0092C8",
"). c #7ED5E4",
"_. c #8D958A",
"`. c #AC9C90",
"'. c #AAAA81",
"]. c #9EAFA2",
"[. c #B7B2B2",
"{. c #C9AA84",
"}. c #D0AD85",
"|. c #D9B98E",
" X c #DCBC93",
".X c #C1BAB5",
"XX c #DEC098",
"oX c #E3C49A",
"OX c #DBCAB3",
"+X c #EACDA4",
"@X c #E2C5A0",
"#X c #EED0A7",
"$X c #EFD2A8",
"%X c #F1D4AB",
"&X c #F6DCB3",
"*X c #FEE5BB",
"=X c #FAE0B6",
"-X c #A0ACCA",
";X c #BBBEC3",
":X c #B8C1D8",
">X c #BFDBC5",
",X c #B9C5E0",
"<X c #C6CDC7",
"1X c #FEE9C6",
"2X c #FFEFD0",
"3X c #F9F6F3",
"4X c #F7F1EA",
"5X c #489848",
/* pixels */
"5X5X5X5X5X5X5X5X5X5X5XX r O.O.k k k O.r X 5X5X5X5X5X5X5X5X5X5X5X",
"5X5X5X5X5X5X5X5X5X  - %.=.*.*.*.*.*.*.=.%.-   5X5X5X5X5X5X5X5X5X",
"5X5X5X5X5X5X5X5XX r d o.#.#.#.#.#.#.#.#.#.t r X 5X5X5X5X5X5X5X5X",
"5X5X5X5X5X5X5X+ ; o.o.O.o.o.o.o.O.O.O.O.O.O.O.; = 5X5X5X5X5X5X5X",
"5X5X5X5X5X  X f #.1.<.*.<.<.1.<.<.<.<.<.<.1.*.O.d     5X5X5X5X5X",
"5X5X5X5X5X  X A 6.h.d.B.d.k.0.6.j.h.k.k.h.q.| >.$.X   5X5X5X5X5X",
"5X5X5X5X  0 b q.a.t.t.a.b.x.9.7.z.x.x.f.r.t.a.q.,.y ;   5X5X5X5X",
"5X5X5X0 O R e.g.s.V.r.x.z.f.e.y.b.v.b.r._ t.l.m.u.c i @ 0 5X5X5X",
"_ A.|...8 w.x.9.V.Y.m.x.t.7.f.c.E.U.B.B. . .7.z.f.C V V S.|.A.( ",
"V { &X}./ g.x.T.Y.v.s.9.t.l.m.T.V.A.Q.Q.Q.D.7.z.l.` D.oX%X&X{ V ",
"5X~ J._./.N.4.9.y.x.z.t.M.M.U.Z.G.Q.#X#X#X X!.u.r.I.'.).].J.' 5X",
"5X5X8 F (.J E / 7.v.v.v.m.R._ { !.oX*X1X*X=X$X..` i.P.(.F 8 5X5X",
"5X5X5X5Xo 5.c.R W U.Y.Y.R.R./ Q Q.oX*X*X=XXX{.! R c.5.o 5X5X5X5X",
"5X5X5X5X  5.x.8.^ , b C.V.V.G.W.$X$XoXH.[ q > ^ 8.x.5.  5X5X5X5X",
"5X5X5X5X  3.n.` ~ X.Y I K W Q. X*X+X..K G I Y ~ ` n.3.  5X5X5X5X",
"5X5X5X5X  A C.e H 3X,X~.P ] Q.oX*X@X] P ^.:X4X] W C.!   5X5X5X5X",
"5X5X5X5X5Xo #   3 4X:X^.-X4X1X*X*X1X4X-X^.[.*XA.^ @ o 5X5X5X5X5X",
"5X5X5X5X  1 S o # ] F.`.OX2X1X1X1X1X2XOX`.H.D.0 % 5X5X5X5X5X5X5X",
"5X5X5X@ & S D T U B ! S.}.#X#X#X#X#X$X}...[ W O   5X5X5X5X5X5X5X",
"5X5X  5 / G L ;X.Xe 6 6 | K.K.L.K.L.H.] 8 N M S 3 5X5X5X5X5X5X5X",
"5X5X  K %X| e * # . + y f o.z z +.f o , B x -.<X<X#   5X5X5X5X5X",
"5X5X5X2 m > @   . 4 u f h k g g g d = : O P.<XX.H .   5X5X5X5X5X",
"5X5X5X5X        X n n x x x ;.:.:.;.u < & U _.e 5 & % 5X5X5X5X5X",
"5X5X5X5X5X5X5X  + l c C M M p.h.j.p.N M Z @ . Z Q Q q   5X5X5X5X",
"5X5X5X5X5X5X5X  + =.2.>.$.j @.@.@.@.j j j = o |.#X}.}   5X5X5X5X",
"5X5X5X5X5X5X5X5X5X- t o.#.&.&.&.&.&.&.#.g = o 2 m w >   5X5X5X5X",
"5X5X5X5X5X5X5X5X5XO > s p p p p p p p t r =             5X5X5X5X",
"5X5X5X5X5X5X5X. # 9 9 9 %                 5X5X5X5X5X5X5X5X5X5X5X",
"5X5X5X5X5X    , 5 8 e 9 $   5X5X5X5X5X5X5X5X5X5X5X5X5X5X5X5X5X5X",
"5X5X5X5X5X  . 9 e B e e &   5X5X5X5X5X5X5X5X5X5X5X5X5X5X5X5X5X5X",
"5X5X5X5X5X5X. 4 4 4 4 4 %   5X5X5X5X5X5X5X5X5X5X5X5X5X5X5X5X5X5X",
"5X5X5X5X5X5X5X          5X5X5X5X5X5X5X5X5X5X5X5X5X5X5X5X5X5X5X5X"
};
