/* XPM */
static char *D2[] = {
/* columns rows colors chars-per-pixel */
"32 32 199 2 ",
"   c #010101",
".  c #0B0604",
"X  c #020B04",
"o  c #0D0905",
"O  c #0F0D0A",
"+  c #160D08",
"@  c #051105",
"#  c #031B0A",
"$  c #021808",
"%  c #1F140B",
"&  c #231A0B",
"*  c #311C0E",
"=  c #281B15",
"-  c #04230C",
";  c #0C3512",
":  c #073A14",
">  c #113914",
",  c #0A360B",
"<  c #292010",
"1  c #372515",
"2  c #263E10",
"3  c #0F1C29",
"4  c #162827",
"5  c #1E333A",
"6  c #122B2A",
"7  c #3B3632",
"8  c #26282D",
"9  c #5C391B",
"0  c #46351C",
"q  c #653D1D",
"w  c #713E1E",
"e  c #503224",
"r  c #6A3D20",
"t  c #094819",
"y  c #104C18",
"u  c #0B581E",
"i  c #374216",
"p  c #255C1A",
"a  c #37511C",
"s  c #274111",
"d  c #1B621C",
"f  c #0E641E",
"g  c #25691A",
"h  c #0D6923",
"j  c #0C6723",
"k  c #116C23",
"l  c #0F7728",
"z  c #137E29",
"x  c #167627",
"c  c #376427",
"v  c #297823",
"b  c #3D7223",
"n  c #5E4A26",
"m  c #53483D",
"M  c #694A22",
"N  c #7C4C2A",
"B  c #774826",
"V  c #695224",
"C  c #68502E",
"Z  c #795B2C",
"A  c #664333",
"S  c #7C5033",
"D  c #477A26",
"F  c #747B39",
"G  c #2D3846",
"H  c #33495F",
"J  c #4F4A43",
"K  c #6E5941",
"L  c #756552",
"P  c #4A5E74",
"I  c #585063",
"U  c #8A5C2F",
"Y  c #8C5C32",
"T  c #845A37",
"R  c #95652E",
"E  c #8C643A",
"W  c #936539",
"Q  c #A57B3F",
"!  c #916E4D",
"~  c #A47A41",
"^  c #A77D4A",
"/  c #A67E56",
"(  c #8B7961",
")  c #1A862A",
"_  c #238426",
"`  c #268E29",
"'  c #388E24",
"]  c #308A28",
"[  c #2D9429",
"{  c #319629",
"}  c #359B29",
"|  c #399E29",
" . c #3A9526",
".. c #3FA029",
"X. c #629B1A",
"o. c #74B316",
"O. c #469C28",
"+. c #6A8C36",
"@. c #729533",
"#. c #42A629",
"$. c #43A82A",
"%. c #72A834",
"&. c #448A45",
"*. c #669969",
"=. c #69A37B",
"-. c #B49716",
";. c #B9BC0E",
":. c #BCA40E",
">. c #849F2E",
",. c #A78228",
"<. c #B89929",
"1. c #AD843D",
"2. c #AC8739",
"3. c #B18E38",
"4. c #B79934",
"5. c #AD9932",
"6. c #85A12D",
"7. c #90B324",
"8. c #BEA02F",
"9. c #CCBC19",
"0. c #C0A22E",
"q. c #C9AD28",
"w. c #CDB524",
"e. c #D1BC20",
"r. c #D5B92C",
"t. c #9AC11D",
"y. c #A8D613",
"u. c #A4CF16",
"i. c #DBCD0C",
"p. c #DACA19",
"a. c #E6D815",
"s. c #DCEC06",
"d. c #EDE40D",
"f. c #F2EA0C",
"g. c #FDFC01",
"h. c #F8F208",
"j. c #F4E914",
"k. c #F5EA13",
"l. c #DEC724",
"z. c #EDD32B",
"x. c #ECCF31",
"c. c #9A9C41",
"v. c #AB8144",
"b. c #AA844E",
"n. c #B08855",
"m. c #B28645",
"M. c #9C8F76",
"N. c #BE9B6A",
"B. c #B6936A",
"V. c #BC9A72",
"C. c #B69370",
"Z. c #AE8864",
"A. c #8DAC69",
"S. c #C59848",
"D. c #C19F52",
"F. c #C8A544",
"G. c #DBAD4C",
"H. c #DEAC51",
"J. c #D5A450",
"K. c #DFB156",
"L. c #E2B845",
"P. c #E0AD53",
"I. c #C29D77",
"U. c #C7A476",
"Y. c #ADD861",
"T. c #36559B",
"R. c #2F519C",
"E. c #437A86",
"W. c #67AFAB",
"Q. c #169ACA",
"!. c #2CB1E2",
"~. c #8F96AB",
"^. c #808CB1",
"/. c #B7ACA9",
"(. c #CEAC80",
"). c #D4B48C",
"_. c #D6B78B",
"`. c #DCBC93",
"'. c #C8B190",
"]. c #C2BAB7",
"[. c #80CB88",
"{. c #DFC199",
"}. c #E2C49D",
"|. c #E6C89F",
" X c #DBC1A3",
".X c #E9CCA3",
"XX c #F0D4AB",
"oX c #F6D9A8",
"OX c #F8DEB4",
"+X c #E5D3B6",
"@X c #FCE4BC",
"#X c #C9C6C6",
"$X c #DCCFC7",
"%X c #C2C9DA",
"&X c #CCD3DC",
"*X c #E2DBD6",
"=X c #FCE8C7",
"-X c #FFF7E5",
";X c #489848",
/* pixels */
";X;X;X;X;X;X;X;X;X;X;X;XX X u ) l u @ X ;X;X;X;X;X;X;X;X;X;X;X;X",
";X;X;X;X;X;X;X;X;X      ; h l l l l j :       ;X;X;X;X;X;X;X;X;X",
";X;X;X;X;X;X;X;XX t y p v { [ [ [ [ [ v p y : X ;X;X;X;X;X;X;X;X",
";X;X;X;X;X;X;X  X h ) { { { } } } } } { } ) h X   ;X;X;X;X;X;X;X",
";X;X;X;X;X;X;XX @ k z ) z z ) z z z z z z z k @ X ;X;X;X;X;X;X;X",
";X;X;X;X;X;X  t k [ } } } } } } } } } } } | { k t   ;X;X;X;X;X;X",
";X;X;X;X;X;X  d [ +.>.y.7.@.t.u.@.6.y.y.y.>.+.{ d   ;X;X;X;X;X;X",
";X;X;X;X;X$ # b @.5.w.g.a.4.f.h.3.0.g.h.d.q.4.%.D # $ ;X;X;X;X;X",
";X;X;X;X  ; x F 2.f.g.g.g.g.h.f.1.<.g.e.~ a.h.L.c.x ; . ;X;X;X;X",
"~ v.(.C.q 9 M 1.G.h.d.5.p.g.w.3.~ 0.g.e.~ 3.0.k.9.n 9 9 B.U.v.^ ",
"U E `.}.I./ U v.S.h.j.m.l.g.8.v.e.e.9.F.N.^ 2.h.i.Y / V.}.`.W Y ",
"w N ).}.|.U.Q 3.0.k.z.K.z.g.8.2.h.a.Q N.).I.D.j.p.~ _.OX.X).N w ",
";X;XB B B E ~ p.h.L.H.J.z.g.0.3.h.a.Q N.).XXXXK.S.1.I.'.T B ;X;X",
";X;X+ 5 Q.E.N ,.0.P.J.v.F.L.a.d.g.i.B N.OX.X).E ,.d.[.!.5 + ;X;X",
";X;X  4 W.A.-.2.~ Z Z ~ S.H.r.l.:.<.^ Z.V.! S T -.g.Y.W.4   ;X;X",
";X;X  < 1.r.h.<.E 7 m ! b.S.~ W E ! U.! m 7 7 W 4.h.r.1.<   ;X;X",
";X;X;X;Xo V G.R T *X%XT.I S N T XX).N I R.%X*XS R G.V o ;X;X;X;X",
";X;X;X;X;X< 1 Z ^ OX#XR.^.$X`.`.OX=X$X^.R.#X+X1 & 1 * ;X;X;X;X;X",
";X;X;X;X;X;X  0 A U.'.~.#X-X=X=X=X=X-X#X~.'.C.O . * & ;X;X;X;X;X",
";X;X;X;X;X;X;X  . E n..XXXOXOX=XOXOXOXXX.Xn.E 7 7 r * + ;X;X;X;X",
";X;X;X;X;X;X;X  . q B B / ).).).).).)./ N B T *X/.e 9 q +   ;X;X",
";X;X;X;X;X;X;X  X p p s c O.&.&.&.&.&.c s % & J I C.E w +   ;X;X",
";X;X;X;X;X;X;X4 8 W.*.i a c X.o.o.X.c a i > -   = ! n 0 + ;X;X;X",
";X;X;X;X;Xo + 5 P &X/.r q M ;.s.s.;.M M V v x # X       ;X;X;X;X",
";X;X;X;X  = q M A P H . ; x _ _ ` _ x ] O.O.} l t   ;X;X;X;X;X;X",
";X;X;X;X  K `.I.Z.8 4 u j z ` } [ { { | $.$. .- #   ;X;X;X;X;X;X",
";X;X;X;X. J M.( L O $ f x ` | $.#.#...| [ v p = O   ;X;X;X;X;X;X",
";X;X;X;X;X;X        @ , d ' ' ' ' ' ' v j $ . 1 =   ;X;X;X;X;X;X",
";X;X;X;X;X;X;X;X;X;X;XX o @ @ @ @ @ @ X X     . . ;X;X;X;X;X;X;X",
";X;X;X;X;X;X;X;X;X;X;X;X;X;X;X;X;X;X;X;X;X;X;X;X;X;X;X;X;X;X;X;X",
";X;X;X;X;X;X;X;X;X;X;X;X;X;X;X;X;X;X;X;X;X;X;X;X;X;X;X;X;X;X;X;X",
";X;X;X;X;X;X;X;X;X;X;X;X;X;X;X;X;X;X;X;X;X;X;X;X;X;X;X;X;X;X;X;X"
};
