/* XPM */
static char *D3[] = {
/* columns rows colors chars-per-pixel */
"32 32 202 2 ",
"   c #000001",
".  c #0A0604",
"X  c #020C04",
"o  c #0D0906",
"O  c #030A0C",
"+  c #150E0A",
"@  c #180C09",
"#  c #031C0A",
"$  c #061507",
"%  c #1A100A",
"&  c #171512",
"*  c #26170C",
"=  c #261813",
"-  c #321C13",
";  c #341D0F",
":  c #05250C",
">  c #0A2408",
",  c #13310D",
"<  c #063412",
"1  c #093B14",
"2  c #0E3E0D",
"3  c #3E2418",
"4  c #203314",
"5  c #30312C",
"6  c #4A2A15",
"7  c #44261B",
"8  c #422A19",
"9  c #4A351E",
"0  c #5B3319",
"q  c #65391C",
"w  c #723C19",
"e  c #4E2B21",
"r  c #413222",
"t  c #563021",
"y  c #6A3C21",
"u  c #623C24",
"i  c #094818",
"p  c #0D5417",
"a  c #134A18",
"s  c #22581B",
"d  c #0B5E20",
"f  c #225820",
"g  c #0D6823",
"h  c #146925",
"j  c #0F7A29",
"k  c #0F7427",
"l  c #107C29",
"z  c #1A7726",
"x  c #306D28",
"c  c #5F441D",
"v  c #575818",
"b  c #48411D",
"n  c #626404",
"m  c #70701D",
"M  c #4C463A",
"N  c #564A2E",
"B  c #654826",
"V  c #734422",
"C  c #7B4B2A",
"Z  c #7A4A24",
"A  c #7D552C",
"S  c #7D5026",
"D  c #774F31",
"F  c #4F672B",
"G  c #316B7A",
"H  c #524D50",
"J  c #6F5958",
"K  c #707146",
"L  c #5C5E62",
"P  c #6E5F67",
"I  c #747578",
"U  c #746D6C",
"Y  c #8A5E1F",
"T  c #996E1A",
"R  c #86572B",
"E  c #8A5C3A",
"W  c #896237",
"Q  c #966B3B",
"!  c #996E33",
"~  c #A4773A",
"^  c #885F45",
"/  c #8B6347",
"(  c #926644",
")  c #99724B",
"_  c #9A7355",
"`  c #A47B42",
"'  c #A77A4A",
"]  c #A57E56",
"[  c #887D66",
"{  c #168129",
"}  c #1D8629",
"|  c #1D892A",
" . c #22832D",
".. c #2E8926",
"X. c #3C9D29",
"o. c #369A28",
"O. c #288529",
"+. c #3DA129",
"@. c #7A871B",
"#. c #499B2C",
"$. c #71832E",
"%. c #4CA926",
"&. c #42A329",
"*. c #48A329",
"=. c #5A8343",
"-. c #AB9319",
";. c #B1B202",
":. c #948E37",
">. c #AB8638",
",. c #B99832",
"<. c #B69533",
"1. c #B6902E",
"2. c #AFAC28",
"3. c #CDBA18",
"4. c #C0953F",
"5. c #C1A52D",
"6. c #C4A929",
"7. c #CBB726",
"8. c #D2BB23",
"9. c #D4B336",
"0. c #CDA738",
"q. c #9DC811",
"w. c #BCD70B",
"e. c #C0DC0A",
"r. c #D6C21E",
"t. c #DAC919",
"y. c #D1DE10",
"u. c #E2D415",
"i. c #E8DA16",
"p. c #DDEF07",
"a. c #D8E90A",
"s. c #DDF007",
"d. c #EBE20E",
"f. c #F4ED09",
"g. c #FAF705",
"h. c #FDFC02",
"j. c #F8F20A",
"k. c #F4E31C",
"l. c #F5E914",
"z. c #EAD526",
"x. c #F2DA28",
"c. c #E8C637",
"v. c #E3C72B",
"b. c #A88145",
"n. c #BD8D45",
"m. c #B48944",
"M. c #B18957",
"N. c #B48C56",
"B. c #98AA57",
"V. c #A88563",
"C. c #B48D67",
"Z. c #B69874",
"A. c #B1A979",
"S. c #B1A678",
"D. c #C6974B",
"F. c #DAAE45",
"G. c #DEAC52",
"H. c #CFA049",
"J. c #E4BA44",
"K. c #C19C72",
"L. c #C7A578",
"P. c #CEAE69",
"I. c #E8C240",
"U. c #E6CA67",
"Y. c #31529C",
"T. c #3C5DA5",
"R. c #495B8F",
"E. c #44938F",
"W. c #69829A",
"Q. c #7B8EBB",
"!. c #008FC5",
"~. c #7ED4E4",
"^. c #AC9F84",
"/. c #94B2A6",
"(. c #A3A4AF",
"). c #C9AC85",
"_. c #D3B28B",
"`. c #D7B78A",
"'. c #D3B994",
"]. c #CDB898",
"[. c #E5C59B",
"{. c #CCC2B5",
"}. c #DDCFBA",
"|. c #EFD1A8",
" X c #EED0A7",
".X c #F0D5AC",
"XX c #F4DAB2",
"oX c #F9DFB6",
"OX c #FEE5BC",
"+X c #F7E0BD",
"@X c #A3B0CE",
"#X c #B8C0D5",
"$X c #80D2E1",
"%X c #DFD3C0",
"&X c #E3D7CA",
"*X c #FFECC9",
"=X c #F6E6CD",
"-X c #E5E5E8",
";X c #F1EEEC",
":X c #FBF8F1",
">X c #F7F4ED",
",X c #489848",
/* pixels */
",X,X,X,X,X,X,X,X,X,XX X p j j l j j l < X ,X,X,X,X,X,X,X,X,X,X,X",
",X,X,X,X,X,X,X,X,X  < g k j j j l l j k g #   ,X,X,X,X,X,X,X,X,X",
",X,X,X,X,X,X,X,X$ i d l j j j k j k k j k i 1 O ,X,X,X,X,X,X,X,X",
",X,X,X,X,X,X,X# 1 | | | | | } | | } | | } | z : # ,X,X,X,X,X,X,X",
",X,X,X,X,X  X g l #.*.%.*.#.%.%.*.%.%.%.%.*.&.{ i   ,X,X,X,X,X,X",
",X,X,X,X,X  $ ..#.:.2.s.2.:.y.p.p.p.p.s.p.:.$.+.s   ,X,X,X,X,X,X",
",X,X,X,X  < a $.:.t.8.7.8.r.h.j.8.u.h.u.8.8.8.B.=.i :   ,X,X,X,X",
",X,X,X3 % f x b.0.h.u.,.u.l.h.d.` 7.h.6.` u.z.U.B.x 4 % ,X,X,X,X",
"` M.'.V.V B R H.c.h.h.g.c.J.j.i.>.7.h.6.' ' ,.h.3.y V A L.).` ` ",
"S ) XX X'.V.~ d.j.h.k.J.x.l.5.5.d.r.<.K.L.b.<.h.t.! L.[.XX[.R Z ",
",X( C./.~.V.W v.z.8.9.G.k.g.>.<.h.t.` K.`.`.P.x.7.~ /.~.^.C.C ,X",
",X,Xw G !.K T <.n.` D.G.k.g.6.6.l.8.~ L.[.XX XD.n.,.E.!.H w ,X,X",
",X,X,Xo O ;.f.Y D ) n.G.k.h.g.l.F.D.b.`.oX'.Z.C -.h.n O ,X,X,X,X",
",X,X,X,X. ;.h.>.A * B m.F.I.I.0.R ' L.M./ 3 r Q 6.h.n   ,X,X,X,X",
",X,X,X,X  -.z.! / I I P ) ~ ~ ' C.V.] J H I U E 1.x.v   ,X,X,X,X",
",X,X,X,X  W m.V ) :X@XY.L / ( ] OX_.( R.T.-X&Xu R >.9   ,X,X,X,X",
",X,X,X,X,Xo @ q ( OX(.Y.@X>XoXXXOX=X:XQ.R.}.].+ X o ,X,X,X,X,X,X",
",X,X,X,X,X,X,X% r C.).{.=X*X*X*XOX*X*X%X{.K.V.3 8 0 *   ,X,X,X,X",
",X,X,X,X,X,X,X  * R ' K.[.|..X|.|.|.|._.Z.! R e 0 V ;   ,X,X,X,X",
",X,X,X,X,X,X,X  = / / / V.Z.A.A.A.S.S.K c V q 8 9 0 *   ,X,X,X,X",
",X,X,X,X,X,X,X  5 ;X>X;XH $ z  .O.z  .z z B 0 a > . ,X,X,X,X,X,X",
",X,X,X,X,X  . 6 M W.W.W.5   r m w.y.w.@.N x s $ $ ,X,X,X,X,X,X,X",
",X,X,X,X,X  . q u H L I 5 : v $.q.q.q.@.F ..z > $ ,X,X,X,X,X,X,X",
",X,X,X,X,X  . D E E ] Z.F p o.o.{ { { o.%.+...a >   ,X,X,X,X,X,X",
",X,X,X,X,X  & ].XXXX[ & i { o.&.+.X.X.X.X.} g O   ,X,X,X,X,X,X,X",
",X,X,X,X,X,X,XM M M -   # : , , , , , , , : #     ,X,X,X,X,X,X,X",
",X,X,X,X,X,X,X                        @ % % +     ,X,X,X,X,X,X,X",
",X,X,X,X,X,X,X,X,X,X,X,X,X,X,X,X,X,X  - e e 3 o . ,X,X,X,X,X,X,X",
",X,X,X,X,X,X,X,X,X,X,X,X,X,X,X,X,X,X  - e y q e =   ,X,X,X,X,X,X",
",X,X,X,X,X,X,X,X,X,X,X,X,X,X,X,X,X,X  7 y V w y 8   ,X,X,X,X,X,X",
",X,X,X,X,X,X,X,X,X,X,X,X,X,X,X,X,X,X  - 6 6 6 6 ;   ,X,X,X,X,X,X",
",X,X,X,X,X,X,X,X,X,X,X,X,X,X,X,X,X,X,X            ,X,X,X,X,X,X,X"
};
