/* XPM */
static char *D4[] = {
/* columns rows colors chars-per-pixel */
"32 32 209 2 ",
"   c #010001",
".  c #0A0604",
"X  c #040E04",
"o  c #0D0906",
"O  c #02090D",
"+  c #041405",
"@  c #051D0A",
"#  c #0A170A",
"$  c #1C110A",
"%  c #14100D",
"&  c #131010",
"*  c #24150D",
"=  c #351E0F",
"-  c #2D1814",
";  c #331D12",
":  c #05280D",
">  c #07320A",
",  c #0A3B13",
"<  c #063813",
"1  c #3E2319",
"2  c #303216",
"3  c #383525",
"4  c #4A2A15",
"5  c #44251B",
"6  c #452616",
"7  c #49361C",
"8  c #59351A",
"9  c #41220E",
"0  c #663A1D",
"q  c #61371B",
"w  c #723C19",
"e  c #4D2A21",
"r  c #502C21",
"t  c #453629",
"y  c #453A32",
"u  c #6A3C21",
"i  c #623C24",
"p  c #0B4C1A",
"a  c #074317",
"s  c #154B1C",
"d  c #22581B",
"f  c #3E4C15",
"g  c #0D631F",
"h  c #286419",
"j  c #236019",
"k  c #0B5D20",
"l  c #384725",
"z  c #136D24",
"x  c #1B6E2A",
"c  c #0D7A29",
"v  c #0E7427",
"b  c #137E29",
"n  c #187727",
"m  c #1E7F30",
"M  c #0A6D24",
"N  c #3B6225",
"B  c #3B6E21",
"V  c #32702A",
"C  c #5D4D17",
"Z  c #626404",
"A  c #55452E",
"S  c #684626",
"D  c #744423",
"F  c #794927",
"G  c #775725",
"H  c #715131",
"J  c #4E6021",
"K  c #4F6F25",
"L  c #304E6D",
"P  c #306B7A",
"I  c #544F51",
"U  c #6F5957",
"Y  c #7D6C40",
"T  c #6E5E66",
"R  c #67656C",
"E  c #747376",
"W  c #737668",
"Q  c #82561F",
"!  c #85572B",
"~  c #885936",
"^  c #97672B",
"/  c #896237",
"(  c #976B3B",
")  c #A47C34",
"_  c #A0753F",
"`  c #A5793A",
"'  c #8B6348",
"]  c #9B7347",
"[  c #8F6D53",
"{  c #A57C43",
"}  c #A3784E",
"|  c #A27B52",
" . c #14812A",
".. c #1C8629",
"X. c #1D892A",
"o. c #1E8030",
"O. c #228426",
"+. c #258D29",
"@. c #288625",
"#. c #378C24",
"$. c #28922A",
"%. c #349B2A",
"&. c #3A9C29",
"*. c #389526",
"=. c #3DA429",
"-. c #5D911D",
";. c #77B417",
":. c #6EA317",
">. c #4B972B",
",. c #459E29",
"<. c #5D8030",
"1. c #728436",
"2. c #4CA926",
"3. c #45A12A",
"4. c #49A429",
"5. c #9C9504",
"6. c #AB9319",
"7. c #A9A712",
"8. c #93843C",
"9. c #948F36",
"0. c #B9962A",
"q. c #AA853C",
"w. c #B79734",
"e. c #A89431",
"r. c #9CAB3F",
"t. c #B0A82E",
"y. c #D2BE1F",
"u. c #C5AA28",
"i. c #CDB924",
"p. c #D2BC21",
"a. c #D0B728",
"s. c #C7AB3F",
"d. c #BCC01E",
"f. c #D2DF0F",
"g. c #D6C21E",
"h. c #DACA1A",
"j. c #CDCD0F",
"k. c #E7D916",
"l. c #E1CE1C",
"z. c #DCED07",
"x. c #DAEB09",
"c. c #DDF007",
"v. c #EDE40D",
"b. c #EDE608",
"n. c #F2EC08",
"m. c #FEFD01",
"M. c #F6F206",
"N. c #F9EE12",
"B. c #F3E812",
"V. c #DBC424",
"C. c #E8C437",
"Z. c #EFD528",
"A. c #AA8245",
"S. c #B48945",
"D. c #B08956",
"F. c #AF895C",
"G. c #999674",
"H. c #B28A65",
"J. c #AF916F",
"K. c #BC9667",
"L. c #B69873",
"P. c #A38C6E",
"I. c #82AA73",
"U. c #B2A979",
"Y. c #B1A678",
"T. c #C29446",
"R. c #DEAF4E",
"E. c #D2A24C",
"W. c #D4A44D",
"Q. c #C19A73",
"!. c #C6A476",
"~. c #C3A161",
"^. c #31529C",
"/. c #3C5DA5",
"(. c #495B8F",
"). c #459490",
"_. c #549DA5",
"`. c #7B8EBB",
"'. c #0090C6",
"]. c #7ED4E4",
"[. c #8C98A7",
"{. c #9CB2A6",
"}. c #A3A4AF",
"|. c #CAAB84",
" X c #CFB08D",
".X c #D4B28A",
"XX c #D7B78B",
"oX c #D2B894",
"OX c #E3C49A",
"+X c #E4C59A",
"@X c #CCC2B5",
"#X c #DDCFBA",
"$X c #E8CBA2",
"%X c #EED0A7",
"&X c #EFD1A8",
"*X c #F0D5AC",
"=X c #F6DBB2",
"-X c #FDE4BB",
";X c #FCE4BB",
":X c #A3B0CE",
">X c #B8C0D5",
",X c #DFD3C0",
"<X c #E3D7CA",
"1X c #FFEECF",
"2X c #FEE8C3",
"3X c #F6E6CD",
"4X c #FBF7F1",
"5X c #EEECEB",
"6X c #489848",
/* pixels */
"6X6X6X6X6X6X6X6X6X6X6X6X+ # z b  .p X 6X6X6X6X6X6X6X6X6X6X6X6X6X",
"6X6X6X6X6X6X6X6X6X  < b @.#.&.&.&.*.#.O.v +   6X6X6X6X6X6X6X6X6X",
"6X6X6X6X6X6X6X6X+ a k c X.+.+.+.+.+.+. .v p < O 6X6X6X6X6X6X6X6X",
"6X6X6X6X6X6X6X@ , ..X.+.....................n : @ 6X6X6X6X6X6X6X",
"6X6X6X6X6X  X M ..,.4.2.4.3.2.2.2.2.=.4.4.3.&. .p   6X6X6X6X6X6X",
"6X6X6X6X6X  X @.>.8.t.c.t.8.f.c.c.t.] j.x.e.1.=.d   6X6X6X6X6X6X",
"6X6X6X6X  > s 1.9.h.p.i.p.g.i.h.m.n.g.p.i.g.g.r.<.a :   6X6X6X6X",
"6X6X6Xt $ d V e.u.v.a.A.h.k.u.u.m.m.m.u.A.h.k.C.r.@.2 $ 6X6X6X6X",
"_ D.XXF.F D G b.v.q.T.R.S.q.n.m.m.m.M.u.{ A.w.M.h.{ ! F Q..X{ ` ",
"F } =X%X+XF.) M.B.E.C.N.w.q.n.m.m.k.w.~.!.} ` w.i.v.0._ +X+X! F ",
"6X' H.{.:XI.q.M.B.T.V.m.k.g.M.M.y.s.K.XX%XXX!.{ w.p.I._.J.H.F 6X",
"6X6Xw P '.W ) v.l.( u.N.N.N.N.l.` K.OX=X-X;X+X_ ` w.).'.I w 6X6X",
"6X6X6XO O 8 Q W.T.D ` R.R.R.W.E.{ !.-X;X=XoXL.F 6.m.Z O 6X6X6X6X",
"6X6X6X6X  5.j.^ D o S S.E.W.^ ( !..XOXF.' 1 t / u.m.Z   6X6X6X6X",
"6X6X6X6X  7.Z.! H E E R ] ` } H.$X|.| U I E W / 0.Z.C X 6X6X6X6X",
"6X6X6X6X  / { 0 ' 4X:X^.T [ .X$X3X X' R /.5X<Xi F S.7   6X6X6X6X",
"6X6X6X6X6Xo o . y ;X}.^.:X4X2X-X=X1X4X`.(.,XoX& O . 6X6X6X6X6X6X",
"6X6X6X6X6X6X6X  2 H. X@X3X1X-X2X2X2X1X,X@XQ.| 1 $   6X6X6X6X6X6X",
"6X6X6X6X6X6X6X  * ! | Q.+X&X&X&X&X&X&X XQ.( ~ r 5 = * 6X6X6X6X6X",
"6X6X6X6X6X6X6X  & i H ' F.L.Y.U.Y.Y.Y.Y C q 8 ; 5 0 *   6X6X6X6X",
"6X6X6X6X6X6X6X  & L [.4XI # n ..m m o.b n # . .   . 6X6X6X6X6X6X",
"6X6X6X6X6X  o 4 y L R | l > z c c c c c n 7 9     6X6X6X6X6X6X6X",
"6X6X6X6X6X  . q i I 3 5 7 f :.;.;.-.N N N K J , : 6X6X6X6X6X6X6X",
"6X6X6X6X6X  . H ~ ~ e O 2 G j.c.x.7.S S G ,.%.b p   6X6X6X6X6X6X",
"6X6X6X6X6X  & J.oX*X[   p n O.O.O.m n #.,.3.%.m p   6X6X6X6X6X6X",
"6X6X6X6X6X6X6X3 y A l < g  .$.%.%.%.%.=.=.+.n : @ 6X6X6X6X6X6X6X",
"6X6X6X6X6X6X6X      + : a p j h h h h B K j s     6X6X6X6X6X6X6X",
"6X6X6X6X6X6X6X6X6X6X6X              O - e r 1 o . 6X6X6X6X6X6X6X",
"6X6X6X6X6X6X6X6X6X6X6X6X6X6X6X6X6X6X  - e u 0 e -   6X6X6X6X6X6X",
"6X6X6X6X6X6X6X6X6X6X6X6X6X6X6X6X6X6X  6 u D w u 1   6X6X6X6X6X6X",
"6X6X6X6X6X6X6X6X6X6X6X6X6X6X6X6X6X6X  = 4 4 4 4 =   6X6X6X6X6X6X",
"6X6X6X6X6X6X6X6X6X6X6X6X6X6X6X6X6X6X6X            6X6X6X6X6X6X6X"
};
