/* XPM */
static char *D5[] = {
/* columns rows colors chars-per-pixel */
"32 32 203 2 ",
"   c #010001",
".  c #040B04",
"X  c #080808",
"o  c #190E09",
"O  c #061608",
"+  c #14110B",
"@  c #1E130B",
"#  c #0F0F10",
"$  c #22130C",
"%  c #281A0D",
"&  c #311B0D",
"*  c #351E15",
"=  c #06280E",
"-  c #14360D",
";  c #073411",
":  c #152E10",
">  c #2C231B",
",  c #372718",
"<  c #353012",
"1  c #272628",
"2  c #36312A",
"3  c #2B2A2B",
"4  c #4A2A15",
"5  c #482A1B",
"6  c #54351A",
"7  c #43311C",
"8  c #723C1A",
"9  c #65381B",
"0  c #4C2A20",
"q  c #453627",
"w  c #533925",
"e  c #403A30",
"r  c #683B22",
"t  c #0B4818",
"y  c #16591A",
"u  c #104B1A",
"i  c #2F4919",
"p  c #286419",
"a  c #27601F",
"s  c #185C22",
"d  c #2D5426",
"f  c #0C6521",
"g  c #196123",
"h  c #0D7B29",
"j  c #197728",
"k  c #147F29",
"l  c #177A29",
"z  c #1E7F30",
"x  c #3A6225",
"c  c #2F772D",
"v  c #5D461E",
"b  c #65421E",
"n  c #70401F",
"m  c #5D4722",
"M  c #465823",
"N  c #494237",
"B  c #654C22",
"V  c #674A21",
"C  c #734322",
"Z  c #774A27",
"A  c #7C5B2A",
"S  c #6C5021",
"D  c #6E6233",
"F  c #1F3146",
"G  c #443F41",
"H  c #244441",
"J  c #326670",
"K  c #484452",
"L  c #795741",
"P  c #5C7757",
"I  c #786150",
"U  c #635D70",
"Y  c #6B676E",
"T  c #777676",
"R  c #8E651C",
"E  c #936818",
"W  c #86592C",
"Q  c #865934",
"!  c #88623B",
"~  c #976938",
"^  c #977B39",
"/  c #917029",
"(  c #A4793D",
")  c #A1762F",
"_  c #8F6240",
"`  c #926B4D",
"'  c #936541",
"]  c #9D7348",
"[  c #8F7552",
"{  c #A57C42",
"}  c #A87E53",
"|  c #84736B",
" . c #1C8529",
".. c #1A852A",
"X. c #1E8130",
"o. c #238426",
"O. c #258D29",
"+. c #298326",
"@. c #378922",
"#. c #329A2A",
"$. c #3A9E29",
"%. c #389426",
"&. c #29932A",
"*. c #679A19",
"=. c #77B417",
"-. c #459C2A",
";. c #7B9539",
":. c #4CA926",
">. c #47A12A",
",. c #49A528",
"<. c #49A626",
"1. c #9D8D1A",
"2. c #B89B12",
"3. c #A5A603",
"4. c #BBBE1F",
"5. c #94853B",
"6. c #928A38",
"7. c #AB853B",
"8. c #AC8731",
"9. c #B89734",
"0. c #A9942F",
"q. c #AFB62D",
"w. c #CAB719",
"e. c #C4A92B",
"r. c #CDB427",
"t. c #D1BC21",
"y. c #C9B035",
"u. c #E6BB3D",
"i. c #BDC10D",
"p. c #D8C51C",
"a. c #C3C91A",
"s. c #E5D814",
"d. c #E6DD08",
"f. c #DCED07",
"g. c #D8E90A",
"h. c #EEE60B",
"j. c #F1EB0A",
"k. c #FEFD01",
"l. c #F8F307",
"z. c #F5E914",
"x. c #EBE111",
"c. c #F0D62A",
"v. c #E9C735",
"b. c #E8D027",
"n. c #929C45",
"m. c #AB8343",
"M. c #B28744",
"N. c #B38943",
"B. c #BF9447",
"V. c #AB815B",
"C. c #AF8854",
"Z. c #B38C57",
"A. c #B89468",
"S. c #B79975",
"D. c #B38E65",
"F. c #B2AA79",
"G. c #B1A477",
"H. c #94AF70",
"J. c #C79A48",
"K. c #CEA247",
"L. c #D7A94B",
"P. c #DEB542",
"I. c #DAA851",
"U. c #E0B546",
"Y. c #C29D73",
"T. c #CAA77A",
"R. c #D3B37A",
"E. c #2E519F",
"W. c #33539A",
"Q. c #586C81",
"!. c #607F94",
"~. c #509FA5",
"^. c #0092C8",
"/. c #7ED5E4",
"(. c #8A9189",
"). c #AB9D93",
"_. c #AAAA81",
"`. c #9EAFA2",
"'. c #B8B6B6",
"]. c #C9AA84",
"[. c #D0AD85",
"{. c #D9B98E",
"}. c #DCBC93",
"|. c #DEC098",
" X c #E3C49A",
".X c #DBCAB3",
"XX c #EACDA4",
"oX c #E2C5A0",
"OX c #EED0A7",
"+X c #EFD2A8",
"@X c #F1D4AB",
"#X c #F3DAB2",
"$X c #F9DFB7",
"%X c #FEE5BB",
"&X c #A0ACCA",
"*X c #B8C2D8",
"=X c #B9C5E0",
"-X c #C5CDC8",
";X c #FEE9C6",
":X c #FFEFD0",
">X c #FBF5EC",
",X c #FAF6F3",
"<X c #489848",
/* pixels */
"<X<X<X<X<X<X<X<X<X<X<X. u ..k k k k ..t O <X<X<X<X<X<X<X<X<X<X<X",
"<X<X<X<X<X<X<X<X<X  - @.%.$.$.$.$.$.$.%.@.-   <X<X<X<X<X<X<X<X<X",
"<X<X<X<X<X<X<X<XO t f ..O.O.O.O.O.O.O.O.O.y t O <X<X<X<X<X<X<X<X",
"<X<X<X<X<X<X<XO ;  . ....... . . ....... . .k ; O <X<X<X<X<X<X<X",
"<X<X<X<X<X  . f +.:.:.$.:.:.,.,.:.:.:.,.>.>.$. .f .   <X<X<X<X<X",
"<X<X<X<X<X  X D 6.f.a.m.4.f.0.6.g.f.f.i.n.m.[ -.+..   <X<X<X<X<X",
"<X<X<X<X  2 B e.p.t.t.p.z.k.9.7.j.k.k.p.' e.p.q.;.u ;   <X<X<X<X",
"<X<X<Xq o R e.s.p.M.r.k.l.s.e.e.x.z.s.r.] t.x.v.y.c i @ q <X<X<X",
"( C.{.V.8 w.l.9.m.I.v.l.t.7.s.l.P.K.m.m.m.{ 7.j.d.Z C Z V.{.C.{ ",
"Z ] $XT.~ s.k.u.J.M.m.9.t.x.v.P.N.Z.T.T.].C.7.l.j.) Z. X@X#X] Z ",
"<X' A.(.~.n.2.9.J.t.t.t.b.c.J.J.A.T.OXXXXX{.R.y.r.J.F./.`.D._ <X",
"<X<X8 J ^.P E ~ 8.z.l.z.v.I.{ { [. X%X%X%X%X+XV.( u.H.^.J 8 <X<X",
"<X<X<X<XX 3.l.R W K.I.I.I.I.W W T. X%X%X%X|.T.Q R l.3.X <X<X<X<X",
"<X<X<X<X  3.k.8.Q , m N.N.N.A.T.@X@X XS.` w , Q 7.k.3.  <X<X<X<X",
"<X<X<X<X  1.c.^ ! T T Y ` W G.}.$XXX} I K Y T ! ) c.1.  <X<X<X<X",
"<X<X<X<X  A M.W ` ,X=XE.U ` ]. X%XoX` U E.*X>XL V N.A   <X<X<X<X",
"<X<X<X<X<XX + ! D.,X&XW.&X>X;X%X%X;X>X&XW.'.#X2 . + # <X<X<X<X<X",
"<X<X<X<X<X<X<X% q S.].)..X:X;X;X;X;X:X.X).S.Z.@ 1 '.(.  <X<X<X<X",
"<X<X<X<X<X<X<X  o W ~ } ].+XOXOXOX+XOX[.C.~ W u d ).T & $ <X<X<X",
"<X<X<X<X<X<X<X3 2 v B 8 ` S.G.F.F.F.F.[ b b 6 a s 5 r _ ,   <X<X",
"<X<X<X<X<X  # -X-Xc d n < + g  .z z ..l j y t . o 9 [ @XI   <X<X",
"<X<X<X<X<X  X Q.~.J d $ @ = f h h h h ....i 6 o   $ > N 2 <X<X<X",
"<X<X<X<X<X% > G G F 1 $ < i *.=.=.*.x x x M M .         <X<X<X<X",
"<X<X<X<X  0 Q ! Z X $ B B S i.g.f.4.b S S c j O   <X<X<X<X<X<X<X",
"<X<X<X<X  [ ].OX].# = j j j o.o.O.o.j +.-.-.$.O   <X<X<X<X<X<X<X",
"<X<X<X<X  > e N e   ; h O.#.#.#.#.#.#.&. .y : <X<X<X<X<X<X<X<X<X",
"<X<X<X<X            = t y p p p p p p a a > o <X<X<X<X<X<X<X<X<X",
"<X<X<X<X<X<X<X<X<X<X<X                @ 0 5 0 o X <X<X<X<X<X<X<X",
"<X<X<X<X<X<X<X<X<X<X<X<X<X<X<X<X<X<X  $ 0 r r 5 *     <X<X<X<X<X",
"<X<X<X<X<X<X<X<X<X<X<X<X<X<X<X<X<X<X  & r 8 C r 6 X   <X<X<X<X<X",
"<X<X<X<X<X<X<X<X<X<X<X<X<X<X<X<X<X<X  % 4 4 4 4 4   <X<X<X<X<X<X",
"<X<X<X<X<X<X<X<X<X<X<X<X<X<X<X<X<X<X<X<X          <X<X<X<X<X<X<X"
};
