/* XPM */
static char *D6[] = {
/* columns rows colors chars-per-pixel */
"32 32 211 2 ",
"   c #010001",
".  c #0A0605",
"X  c #020904",
"o  c #080B08",
"O  c #130B09",
"+  c #170C08",
"@  c #041105",
"#  c #081B09",
"$  c #18160D",
"%  c #041711",
"&  c #2E190D",
"*  c #24160C",
"=  c #331D0E",
"-  c #261D14",
";  c #351C15",
":  c #05250D",
">  c #073211",
",  c #1B200B",
"<  c #252415",
"1  c #3C2613",
"2  c #0F1A26",
"3  c #0D2B3D",
"4  c #372C24",
"5  c #343132",
"6  c #3D3328",
"7  c #492918",
"8  c #5A371A",
"9  c #683B1D",
"0  c #713F1E",
"q  c #41372B",
"w  c #453526",
"e  c #523D31",
"r  c #653B23",
"t  c #084216",
"y  c #0B4919",
"u  c #174B18",
"i  c #0A551D",
"p  c #2B4715",
"a  c #26581C",
"s  c #3A4218",
"d  c #16611E",
"f  c #27651A",
"g  c #0E6522",
"h  c #136826",
"j  c #0D7B29",
"k  c #0D7928",
"l  c #1E7328",
"z  c #137D29",
"x  c #187625",
"c  c #2C6926",
"v  c #237726",
"b  c #387725",
"n  c #33712B",
"m  c #55431E",
"M  c #6A5813",
"N  c #636200",
"B  c #5C4622",
"V  c #4B512F",
"C  c #6A4521",
"Z  c #684C23",
"A  c #754422",
"S  c #7A4C2A",
"D  c #794926",
"F  c #685626",
"G  c #7D572B",
"H  c #587328",
"J  c #4A6C2D",
"K  c #736F39",
"L  c #413B44",
"P  c #2A4157",
"I  c #334F6A",
"U  c #4F4C4A",
"Y  c #624E48",
"T  c #6A5C48",
"R  c #5C665A",
"E  c #7B6750",
"W  c #767277",
"Q  c #4E4F6F",
"!  c #85581D",
"~  c #87592A",
"^  c #835431",
"/  c #8A5A32",
"(  c #885629",
")  c #966A37",
"_  c #9A7737",
"`  c #926733",
"'  c #A6783D",
"]  c #966D4B",
"[  c #987148",
"{  c #916E51",
"}  c #A47A41",
"|  c #A67E47",
" . c #A47A51",
".. c #1D882A",
"X. c #208C2A",
"o. c #288224",
"O. c #378C25",
"+. c #2C9329",
"@. c #2E9227",
"#. c #369B29",
"$. c #389024",
"%. c #3E803A",
"&. c #539A1E",
"*. c #5AA31C",
"=. c #4A8D24",
"-. c #528827",
";. c #459828",
":. c #6A8A37",
">. c #768C37",
",. c #6F9930",
"<. c #43A429",
"1. c #478B44",
"2. c #7F8A6A",
"3. c #B99E1C",
"4. c #B3A913",
"5. c #809931",
"6. c #AA833D",
"7. c #AC893A",
"8. c #B48E3B",
"9. c #A89830",
"0. c #B59434",
"q. c #BA9933",
"w. c #B08E20",
"e. c #96B529",
"r. c #BEA030",
"t. c #C29F37",
"y. c #C4A82A",
"u. c #CBB324",
"i. c #C9BD22",
"p. c #D2B826",
"a. c #C6A633",
"s. c #E5BE3E",
"d. c #CAB812",
"f. c #A8D513",
"g. c #D5C318",
"h. c #DBD30E",
"j. c #E9DE10",
"k. c #E0D216",
"l. c #E6DD09",
"z. c #ECE30E",
"x. c #F3ED09",
"c. c #E8F204",
"v. c #FAF606",
"b. c #FDFC02",
"n. c #F8F309",
"m. c #EFE214",
"M. c #F8ED13",
"N. c #D7C025",
"B. c #E5CD27",
"V. c #EDD32A",
"C. c #F0DB24",
"Z. c #E7C03F",
"A. c #9B825C",
"S. c #AC8248",
"D. c #AD8256",
"F. c #B98F51",
"G. c #94A541",
"H. c #808077",
"J. c #BA9569",
"K. c #AF9069",
"L. c #C69749",
"P. c #C29551",
"I. c #C4A54D",
"U. c #D5A64B",
"Y. c #DEAF52",
"T. c #E2BA42",
"R. c #C29D76",
"E. c #C0996D",
"W. c #C7A47C",
"Q. c #CBA97F",
"!. c #E8C140",
"~. c #37559A",
"^. c #2B4E9B",
"/. c #405C9D",
"(. c #447D89",
"). c #6A7CAB",
"_. c #47A1AD",
"`. c #0FB4EE",
"'. c #8E918E",
"]. c #9CB99B",
"[. c #B6AD91",
"{. c #9097AB",
"}. c #A1A6B9",
"|. c #A8B9A9",
" X c #CCAA82",
".X c #D0AE85",
"XX c #D4B58B",
"oX c #D5B688",
"OX c #DBBB92",
"+X c #CDB38D",
"@X c #AECCBB",
"#X c #E4C59C",
"$X c #D9C6A7",
"%X c #EBCEA5",
"&X c #F3D6A7",
"*X c #F5DAB3",
"=X c #F8DDB4",
"-X c #EED1A8",
";X c #FEE6BD",
":X c #9DA9C7",
">X c #B8B9C1",
",X c #BCDBC2",
"<X c #DACEC6",
"1X c #DDD4CD",
"2X c #E8D9C6",
"3X c #C9E0CF",
"4X c #FFEDCB",
"5X c #D2D7E2",
"6X c #FFF7E4",
"7X c #F1EEEB",
"8X c #489848",
/* pixels */
"8X8X8X8X8X8X8X8X8X8X8X8X8X8X8X8X8X8X8X8X8X8X8X8X8X8X8X8X8X8X8X8X",
"8X8X8X8X8X8X8X8X8X8X8X  i z j j z j z :   8X8X8X8X8X8X8X8X8X8X8X",
"8X8X8X8X8X8X8X8X8X  : y l +.+.+.+.+.+.d > @ 8X8X8X8X8X8X8X8X8X8X",
"8X8X8X8X8X8X8X8X8X: y z +.#.#.#.#.#.#...k > : 8X8X8X8X8X8X8X8X8X",
"8X8X8X8X8X8X8XX : j z z k ..j ..z z z z z z g @ X 8X8X8X8X8X8X8X",
"8X8X8X8X8X  X i j #.#.#.#.#.#.<.#.#.#.#.#.#.+.g t   8X8X8X8X8X8X",
"8X8X8X8XX > y H >.9.e.f.f.f.>.>.>.e.f.f.f.5.:.+.x t :   8X8X8X8X",
"8X8X8X8X  u n 9.a.Z.V.j.v.v.y.0.} u.b.x.j.y.9.,.O.z >   8X8X8X8X",
"8X8X8X$ . 8 ! l.v.v.g.' h.v.v.j.6.u.b.y.6.z.j.7.K ..> X 8X8X8X8X",
"| D.XX{ 8 ' L.0.t.s.V.z.u.r.x.b.z.v.b.y.} 8.y.m.4.B 8 r J. XS.| ",
"~  .%XE.` p.C.S.8.V.B.p.8.6.x.b.C.B.g.I.J.} 0.b.g./ D.W.#XOX` / ",
"0 ] OX[.H.i.h.8.a.b.k.0.q.q.m.C.U.P.D.W.oXJ.I.m.N._ [.3X$X.XD 0 ",
"8X8XA (.`.R ! L.s.b.b.v.v.n.s.L.' F.XXXXOX*X-XY.L.' _.`.T D 8X8X",
"8X8X+ R |.A.) S.L.T.Z.Z.!.T.F.} S  .XX-X*X%X X/ w.m.J 3 8X8X8X8X",
"8X8X  e D.y.u.` ~ F ) L.L.F.` ` { J.XXW.J.E T / 4.b.N   8X8X8X8X",
"8X8X  = 9 d.z.! r 5 U { [ ) / [ OX+XJ.{ Z 5 q ) y.M.N   8X8X8X8X",
"8X8X8X8X. _ U.( { 7X:X~.Y ^ R.OX4X XS Q ~.5X<XS ) Y.m   8X8X8X8X",
"8X8X8X8X8X( / ) K.4X}.^.}.<X*X=X;X*X<X).~.1X$X- * 1 < 8X8X8X8X8X",
"8X8X8X8X8X8Xr B G XX[.{.1X6X4X;X4X4X6X>X{.+XK.o     8X8X8X8X8X8X",
"8X8X8X8X8X8X8X@ < ) J.%X*X=X=X2X*X=X*X%X#XD.G # # 8X8X8X8X8X8X8X",
"8X8X8X8X8X. o i n A S S J.OXOX+XXXXXXX .S A B l y   8X8X8X8X8X8X",
"8X8X    . 3 I ,X].p a c n ;.1.1.1.1.1.n c p J 3X'.; +       8X8X",
"8X+ & & - P I '.2.6 a j k k k k k j j j k p V '.W L 4 & & & 8X8X",
"  * ^ ^ G U P % , Z J l l l @.$.O.o.l l v B m   2 P Y ^ ^ C .   ",
"  4 W. X X6 % g x ;.H Z C M h.c.c.4.C M Z =.b X X o E .X.XK.o   ",
"8X< q q 6 - 8X: u <.;.-.b n &.*.*.=.c J -.<.O.X   8X4 q q 6 8X8X",
"8X8X      8X8X  # a f f v X.X.X...X.X.+.@.f p X   8X      8X8X8X",
"8X8X8X8X8X8X8X        . f ;.O.O.$.$.;.v l # . . .   8X8X8X8X8X8X",
"8X8X8X8X8X8X8X8X8X  * 7 $ @ @ @ @ - w 7 w 9 9 9 1   8X8X8X8X8X8X",
"8X8X8X8X8X8X8X8X8X8XO + O 8X8X8X8XO $ 7 9 A 9 & * 8X8X8X8X8X8X8X",
"8X8X8X8X8X8X8X8X8X8X8X  8X8X8X8X8X8X  = 7 7 1   8X8X8X8X8X8X8X8X",
"8X8X8X8X8X8X8X8X8X8X8X8X8X8X8X8X8X8X8X        8X8X8X8X8X8X8X8X8X"
};
