/* XPM */
static char *D7[] = {
/* columns rows colors chars-per-pixel */
"32 32 211 2 ",
"   c #010101",
".  c #020B04",
"X  c #0D0A06",
"o  c #0D0B0C",
"O  c #130B06",
"+  c #190D08",
"@  c #061005",
"#  c #031D0A",
"$  c #021508",
"%  c #1A1410",
"&  c #251C0F",
"*  c #28160C",
"=  c #361F0F",
"-  c #341D15",
";  c #241A14",
":  c #06260D",
">  c #0B2F10",
",  c #073312",
"<  c #12360E",
"1  c #272314",
"2  c #372415",
"3  c #23260D",
"4  c #0B2121",
"5  c #333132",
"6  c #3F3B39",
"7  c #322E2E",
"8  c #59371B",
"9  c #422C17",
"0  c #6A3D1D",
"q  c #713F1E",
"w  c #463D32",
"e  c #58382C",
"r  c #6D3F20",
"t  c #0B4A19",
"y  c #084317",
"u  c #0C541D",
"i  c #1A5518",
"p  c #134714",
"a  c #274212",
"s  c #394819",
"d  c #255D17",
"f  c #37561F",
"g  c #0E601C",
"h  c #28691B",
"j  c #325C23",
"k  c #0C6321",
"l  c #0E6A23",
"z  c #0F7728",
"x  c #167425",
"c  c #137E29",
"v  c #197928",
"b  c #106621",
"n  c #3B6724",
"m  c #257B25",
"M  c #316B2A",
"N  c #5C441E",
"B  c #6E571F",
"V  c #5D4922",
"C  c #4D493A",
"Z  c #524637",
"A  c #634A22",
"S  c #694528",
"D  c #764523",
"F  c #7B4A25",
"G  c #7B4C2A",
"H  c #774725",
"J  c #6B5224",
"K  c #75572B",
"L  c #7B5F3A",
"P  c #684C37",
"I  c #407123",
"U  c #375169",
"Y  c #524F4E",
"T  c #685749",
"R  c #75624B",
"E  c #7B6851",
"W  c #4D556E",
"Q  c #49627B",
"!  c #8B5C2E",
"~  c #895932",
"^  c #896338",
"/  c #966A38",
"(  c #93763D",
")  c #95682F",
"_  c #A37A3C",
"`  c #966C48",
"'  c #9A7254",
"]  c #906E50",
"[  c #A17742",
"{  c #A57B41",
"}  c #A67E47",
"|  c #A47A53",
" . c #8D7B63",
".. c #198129",
"X. c #248626",
"o. c #268727",
"O. c #388E24",
"+. c #2D9429",
"@. c #2E9127",
"#. c #319729",
"$. c #359B29",
"%. c #3C992B",
"&. c #3CA129",
"*. c #5A901C",
"=. c #74B316",
"-. c #6BA718",
";. c #439D28",
":. c #4D8A2A",
">. c #779433",
",. c #6C8C36",
"<. c #42A629",
"1. c #6FA834",
"2. c #448A45",
"3. c #7A856B",
"4. c #64956E",
"5. c #6CA473",
"6. c #B69C17",
"7. c #B5A812",
"8. c #869937",
"9. c #B59526",
"0. c #AA833C",
"q. c #AB8537",
"w. c #B49234",
"e. c #B99835",
"r. c #AE9529",
"t. c #8BAB28",
"y. c #CBB716",
"u. c #C39F3B",
"i. c #C2A52C",
"p. c #C5AA2A",
"a. c #C8AF28",
"s. c #CCB425",
"d. c #CEB529",
"f. c #D1BB21",
"g. c #D9BE2A",
"h. c #9EC61A",
"j. c #A9D613",
"k. c #A2CC18",
"l. c #D7C51A",
"z. c #CAD30A",
"x. c #E9DD11",
"c. c #E2D415",
"v. c #DCEC06",
"b. c #EBE20E",
"n. c #F9F505",
"m. c #FDFD01",
"M. c #F8F209",
"N. c #F9EE11",
"B. c #F4E618",
"V. c #F4EB0A",
"C. c #DBC524",
"Z. c #ECD22A",
"A. c #E6C632",
"S. c #AA8246",
"D. c #B58A46",
"F. c #AF8656",
"G. c #A7AB49",
"H. c #9C886F",
"J. c #B48E65",
"K. c #BB966A",
"L. c #BB9A70",
"P. c #AD8661",
"I. c #B8A16F",
"U. c #C8994A",
"Y. c #C5A54E",
"T. c #DAAD46",
"R. c #DDAD51",
"E. c #E0B34B",
"W. c #E1AF53",
"Q. c #C39D76",
"!. c #C7A377",
"~. c #37559A",
"^. c #2B4E9B",
"/. c #405C9D",
"(. c #457E8A",
"). c #6A7CAB",
"_. c #4BA4AF",
"`. c #13B8F0",
"'. c #A29583",
"]. c #9BAB82",
"[. c #B8B098",
"{. c #9097AB",
"}. c #A1A6B9",
"|. c #CDAB83",
" X c #D1AE85",
".X c #D4B58C",
"XX c #D5B688",
"oX c #DABB94",
"OX c #CCB28D",
"+X c #E2C39B",
"@X c #E7C99F",
"#X c #D4C9B1",
"$X c #EACDA4",
"%X c #F4D7AA",
"&X c #ECD6B7",
"*X c #F8DDB4",
"=X c #F4D9B0",
"-X c #EED2A8",
";X c #FFE8BE",
":X c #9DA9C7",
">X c #B8B9C1",
",X c #C9C6C7",
"<X c #DBCFC6",
"1X c #C8DFCE",
"2X c #D7D7D7",
"3X c #DED5CA",
"4X c #FFEDCB",
"5X c #D2D7E2",
"6X c #FFF7E4",
"7X c #F1EEEB",
"8X c #489848",
/* pixels */
"8X8X8X8X8X8X8X8X8X8X8X8X. $ l c c t . 8X8X8X8X8X8X8X8X8X8X8X8X8X",
"8X8X8X8X8X8X8X8X8X      t l z z z z l :       8X8X8X8X8X8X8X8X8X",
"8X8X8X8X8X8X8X8X$ y i d X.@.@.@.@.@.+.m d t , . 8X8X8X8X8X8X8X8X",
"8X8X8X8X8X8X8X  : z o.$.$.$.#.$.#.$.#.$.#...l     8X8X8X8X8X8X8X",
"8X8X8X8X8X8X8X. : z c c c ..c ..c c c c ..c k $ . 8X8X8X8X8X8X8X",
"8X8X8X8X8X  . u x $.$.$.$.$.$.$.$.$.$.$.$.$.+.l ,   8X8X8X8X8X8X",
"8X8X8X8X8X  . X.%.>.t.j.t.>.k.h.>.t.j.j.j.8.,.+.i   8X8X8X8X8X8X",
"8X8X8X8X8X# : :.>.e.f.b.s.e.M.b.{ d.m.V.x.p.r.1.n : $ 8X8X8X8X8X",
"8X8X8X8X  i m ` e.n.l.0.c.m.m.x.q.s.m.a.0.x.B.E.8.c > X 8X8X8X8X",
"{ F.XX] 8 N J U.Y.w.y.b.n.n.i.i.b.M.m.i.{ w.p.N.7.A 8 8 L.!.} } ",
"! | -XXXQ.` ) C.Z.C.C.Z.N.M.0.e.m.b.f.Y.K.} w.m.l.~ F.!.+XoX/ ! ",
"q ` +X#X1XL.e.V.n.N.Z.R.B.m.i.a.m.l._ Q.XXK.Y.B.C.{ [.1X#X XG q ",
"8X8XD (.`.].T.M.B.E.R.R.B.m.m.m.m.l._ !.oX%X-XW.U.S._.`.T H 8X8X",
"8X8X+ C 3.^ ! r.u.W.U.D.T.A.n.m.m.y.F !.*X$X!.) r.B.G.E 1 + 8X8X",
"8X8X  V U.i.6._ ( K ^ S.U.R.g.y.6.w.| J.K.R L ~ 6.m.g.D.&   8X8X",
"8X8X  A D.l.x.q.L 5 Z ] F.U.( / ~ ' L.] Z 5 6 / i.N.d.0.1   8X8X",
"8X8X8X8XX K ( D ] 7X:X^.T F F ^ |.P.G W /.5X3XG / R.V X 8X8X8X8X",
"8X8X8X8X8X& 2 ^ J.4X}.^.}.<X+XoX=X&X<X).~.3X=X[ K 2 1 8X8X8X8X8X",
"8X8X8X8X8X& - 8 L  X[.{.2X6X4X;X4X4X6X>X{.OXL.S 9   8X8X8X8X8X8X",
"8X8X8XO O 8 S 7 w / Q.$X-X*X*X*X=X*X*X-X+XF.K     8X8X8X8X8X8X8X",
"8X8X  2 q Y Q 5X#XH H G L.oX.X.X.X.XOX' F H 8 X   8X8X8X8X8X8X8X",
"8X8X  = D H.'.Y w + 2 < I 2.2.2.2.2.2.j a h i     8X8X8X8X8X8X8X",
"8X8X  * 9 P R o . , < s f n -.=.=.*.j s s 5.4.; + 8X8X8X8X8X8X8X",
"8X8X8X8X      . > v I J A B z.v.v.7.V 0 S ,X,Xe - O 8X8X8X8X8X8X",
"8X8X8X8X8X  . k c %.<.;.o.v X.X.o...x < o U W S D 0 *   8X8X8X8X",
"8X8X8X8X8X    # p <.<.<.%.#.#.#.$.X.z b u 4 5 J.!.oXZ   8X8X8X8X",
"8X8X8X8X8X    + 3 d m #.%.<.<.<.<.$.o.x u $ % E  .H.C   8X8X8X8X",
"8X8X8X8X8X  X 2 -   > l X.O.O.O.O.O.O.i , .         8X8X8X8X8X8X",
"8X8X8X8X8X8X8XX     . . @ @ @ @ @ @ @ . . 8X8X8X8X8X8X8X8X8X8X8X",
"8X8X8X8X8X8X8X8X8X8X8X8X8X8X8X8X8X8X8X8X8X8X8X8X8X8X8X8X8X8X8X8X",
"8X8X8X8X8X8X8X8X8X8X8X8X8X8X8X8X8X8X8X8X8X8X8X8X8X8X8X8X8X8X8X8X",
"8X8X8X8X8X8X8X8X8X8X8X8X8X8X8X8X8X8X8X8X8X8X8X8X8X8X8X8X8X8X8X8X"
};
