/* XPM */
static char *D8[] = {
/* columns rows colors chars-per-pixel */
"32 32 203 2 ",
"   c #010101",
".  c #090504",
"X  c #020B04",
"o  c #090B09",
"O  c #1B0E0C",
"+  c #130F0C",
"@  c #041807",
"#  c #1C1209",
"$  c #21140B",
"%  c #211B17",
"&  c #04240D",
"*  c #0C2A0D",
"=  c #0B340C",
"-  c #14320D",
";  c #063412",
":  c #0A3B13",
">  c #103315",
",  c #372414",
"<  c #203314",
"1  c #3D2F22",
"2  c #442613",
"3  c #492915",
"4  c #4E2C1F",
"5  c #59321C",
"6  c #50351A",
"7  c #723C19",
"8  c #4B2A20",
"9  c #413222",
"0  c #5A3721",
"q  c #453C34",
"w  c #6E3E20",
"e  c #653B22",
"r  c #0A4917",
"t  c #115119",
"y  c #22581B",
"u  c #304517",
"i  c #2B7F1F",
"p  c #125620",
"a  c #3F5E25",
"s  c #0D6823",
"d  c #0F7A29",
"f  c #0F7426",
"g  c #107C29",
"h  c #187828",
"j  c #106A23",
"k  c #286B26",
"l  c #3B7829",
"z  c #5C5310",
"x  c #74411F",
"c  c #626404",
"v  c #5B5322",
"b  c #4D473B",
"n  c #50512B",
"m  c #664823",
"M  c #734423",
"N  c #7A4A28",
"B  c #7C542A",
"V  c #6F4E39",
"C  c #626C23",
"Z  c #364C55",
"A  c #384F6B",
"S  c #316B7A",
"D  c #525054",
"F  c #725A54",
"G  c #7C645E",
"H  c #6F7A50",
"J  c #465564",
"K  c #6E5F67",
"L  c #6B6969",
"P  c #747376",
"I  c #7D746C",
"U  c #8A5E1F",
"Y  c #996E1A",
"T  c #86562B",
"R  c #8A5D3B",
"E  c #895E31",
"W  c #95692D",
"Q  c #896238",
"!  c #966A3A",
"~  c #9B743D",
"^  c #A4773A",
"/  c #895F44",
"(  c #8A6348",
")  c #916542",
"_  c #98744C",
"`  c #9B7658",
"'  c #A47B42",
"]  c #A87A48",
"[  c #A77D56",
"{  c #867F67",
"}  c #1D8629",
"|  c #1A842A",
" . c #22822E",
".. c #288C27",
"X. c #3B9D29",
"o. c #208030",
"O. c #3DA029",
"+. c #499B2C",
"@. c #5D8030",
"#. c #728436",
"$. c #4CA926",
"%. c #43A329",
"&. c #49A329",
"*. c #4BA727",
"=. c #958717",
"-. c #AD8E16",
";. c #92AE15",
":. c #AEB507",
">. c #95863B",
",. c #989832",
"<. c #8D803E",
"1. c #AB8639",
"2. c #B99832",
"3. c #B69533",
"4. c #B6902E",
"5. c #9CA53A",
"6. c #B3B225",
"7. c #AAA52C",
"8. c #CDBA17",
"9. c #C1993C",
"0. c #C1A52D",
"q. c #C4A929",
"w. c #CCB425",
"e. c #CDBC24",
"r. c #D2BC22",
"t. c #D4B336",
"y. c #D2A93B",
"u. c #9DC911",
"i. c #C0DC0A",
"p. c #D5C21E",
"a. c #DAC919",
"s. c #CFDB11",
"d. c #EADE12",
"f. c #E5D519",
"g. c #DBED08",
"h. c #DEF007",
"j. c #ECE30E",
"k. c #F5ED0B",
"l. c #FAF605",
"z. c #FDFB02",
"x. c #F5E717",
"c. c #E9D226",
"v. c #F2DA28",
"b. c #EBC639",
"n. c #E3C72B",
"m. c #968A5C",
"M. c #A48147",
"N. c #BD8D45",
"B. c #B48944",
"V. c #B18957",
"C. c #B58C57",
"Z. c #92826A",
"A. c #B48D67",
"S. c #BA9567",
"D. c #B99873",
"F. c #AE8D6A",
"G. c #B2AA7A",
"H. c #B0A076",
"J. c #C6974B",
"K. c #D5A947",
"L. c #DEAC52",
"P. c #E4BA44",
"I. c #C49F74",
"U. c #C7A578",
"Y. c #CEAE69",
"T. c #E8C240",
"R. c #31529C",
"E. c #3C5DA5",
"W. c #495B8F",
"Q. c #44938F",
"!. c #7B8EBB",
"~. c #008FC5",
"^. c #7ED4E4",
"/. c #A69E8F",
"(. c #94B2A6",
"). c #A3A4AF",
"_. c #C9AC84",
"`. c #D5B58B",
"'. c #CBB695",
"]. c #D4B48C",
"[. c #E0BF97",
"{. c #C1BEBC",
"}. c #E6C79C",
"|. c #CCC2B5",
" X c #DDCFBA",
".X c #EED1A7",
"XX c #EFD0A8",
"oX c #F0D5AC",
"OX c #F4DBB2",
"+X c #F9DFB6",
"@X c #FEE6BC",
"#X c #F7E0BD",
"$X c #A3B0CE",
"%X c #B8C0D5",
"&X c #80D2E1",
"*X c #DFD3C0",
"=X c #E3D7CA",
"-X c #FFECC9",
";X c #F6E6CD",
":X c #F2EDEB",
">X c #FBF8F1",
",X c #ECEBEB",
"<X c #489848",
/* pixels */
"<X<X<X<X<X<X<X<X<X<XX X p d d d d d g ; X <X<X<X<X<X<X<X<X<X<X<X",
"<X<X<X<X<X<X<X<X<X  ; s f d d d d g d f s @   <X<X<X<X<X<X<X<X<X",
"<X<X<X<X<X<X<X<X@ r p g d d d d d d d d d r :   <X<X<X<X<X<X<X<X",
"<X<X<X<X<X<X<X@ : } } } } } } } } } } } } } f & @ <X<X<X<X<X<X<X",
"<X<X<X<X<X  X j  .%.*.$.&.&.*.*.&.&.$.$.$.&.X.d r   <X<X<X<X<X<X",
"<X<X<X<X<X  X ..+.<.6.h.7.>.s.s.>.6.h.h.g.,.m.O.y   <X<X<X<X<X<X",
"<X<X<X<X  ; t #.,.p.r.w.r.a.l.j.^ w.z.f.w.p.r.5.@.r &   <X<X<X<X",
"<X<X<X1 O y l M.9.j.p.2.c.k.z.j.' w.z.q.' a.d.b.5.k < # <X<X<X<X",
"^ V.`.V.M M B K.K.1.w.l.b.P.k.d.1.w.l.q.] ] 2.l.8.x M B U._.' ' ",
"N _ OXXX[.V.^ d.x.j.c.P.v.x.0.0.j.p.4.I.U.M.3.z.a.! U.}.OX}.T N ",
"<XQ A.(.^.{ W n.c.r.t.L.x.l.1.3.z.a.' U.`.`.Y.v.w.^ (.^./.A.N <X",
"<X<Xx W.~.H Y 3.N.' J.L.x.z.q.q.k.r.^ U.}.OX.XJ.N.2.Q.~.b 7 <X<X",
"<X<X<Xo @ :.k.U T ~ N.L.x.l.z.x.L.J.' `.OX'.I.N -.z.c o <X<X<X<X",
"<X<X<X<X  :.l.1.B # m B.K.T.P.y.E ] U.V./ 1 9 ! q.z.c   <X<X<X<X",
"<X<X<X<X  =.r.W ( P P L _ ^ ^ ] A.F.[ F D L I Q 4.v.z   <X<X<X<X",
"<X<X<X<X  m R N ` >X$XR.L ( ) [ #X].) W.E.,X=Xe B B.6   <X<X<X<X",
"<X<X<X<X<XX # Q A.@X).R.%X>X#X@X@X-X:X!.W. X'.+ . + <X<X<X<X<X<X",
"<X<X<X<X. 2 5 J L S._.|.;X-X@X@X@X-X-X*X{.I._ o   <X<X<X<X<X<X<X",
"<X<X<X<X  6 N A J E ' I.[..X.X.XXXXXXX].D.! M     <X<X<X<X<X<X<X",
"<X<X<X<X  2 0 Z Z x m v m.G.G./.G.H.F.` ( ( V .   <X<X<X<X<X<X<X",
"<X<X<X<X<X. X : u x n f  . . .o.o.p . /.:X:X{.+   <X<X<X<X<X<X<X",
"<X<X<X<X<X<X<XX * k a z ;.i.i.:.v ,   D G G F 5 ,   <X<X<X<X<X<X",
"<X<X<X<X<X<X<X@ = ....C ;.u.u.;.C u @ m ( 0 5 w 2   <X<X<X<X<X<X",
"<X<X<X<X<X    = t X.O.+.} d | ..%...t H D.( R R 0   <X<X<X<X<X<X",
"<X<X<X<X<X<X<X  & h ..O.O.X.X.X.%...d > % '..XOXZ.  <X<X<X<X<X<X",
"<X<X<X<X<X<X<X  X @ * - - - - - - * & X o 1 b b q <X<X<X<X<X<X<X",
"<X<X<X<X<X<X<X  . O O O .                       <X<X<X<X<X<X<X<X",
"<X<X<X<X<X<X<X. O 4 4 8 O   <X<X<X<X<X<X<X<X<X<X<X<X<X<X<X<X<X<X",
"<X<X<X<X<X  . , 4 w 0 4 O   <X<X<X<X<X<X<X<X<X<X<X<X<X<X<X<X<X<X",
"<X<X<X<X<X  . 5 w M w e $   <X<X<X<X<X<X<X<X<X<X<X<X<X<X<X<X<X<X",
"<X<X<X<X<X<X. 2 3 3 3 3 #   <X<X<X<X<X<X<X<X<X<X<X<X<X<X<X<X<X<X",
"<X<X<X<X<X<X<X          <X<X<X<X<X<X<X<X<X<X<X<X<X<X<X<X<X<X<X<X"
};
