/* XPM */
static char *D9[] = {
/* columns rows colors chars-per-pixel */
"32 32 201 2 ",
"   c #000101",
".  c #090504",
"X  c #0C0906",
"o  c #040909",
"O  c #100B08",
"+  c #051C0A",
"@  c #061005",
"#  c #1D1109",
"$  c #1C1816",
"%  c #2B180C",
"&  c #291612",
"*  c #341D10",
"=  c #062C0D",
"-  c #07270C",
";  c #0A3B14",
":  c #072F10",
">  c #3B2416",
",  c #243C18",
"<  c #362A11",
"1  c #392F23",
"2  c #4A2A15",
"3  c #462617",
"4  c #542D1A",
"5  c #5C361A",
"6  c #723B19",
"7  c #4D2A20",
"8  c #45372A",
"9  c #593621",
"0  c #693B21",
"q  c #084718",
"w  c #0B531B",
"e  c #145D1D",
"r  c #3A4415",
"t  c #25651A",
"y  c #195E25",
"u  c #2E4727",
"i  c #0D7A29",
"p  c #0F7728",
"a  c #197928",
"s  c #1E7F30",
"d  c #0A6320",
"f  c #3A6524",
"g  c #2F702A",
"h  c #50441D",
"j  c #665E0B",
"k  c #6E6C09",
"l  c #584422",
"z  c #514D38",
"x  c #684927",
"c  c #744422",
"v  c #774F26",
"b  c #7D4C24",
"n  c #7B4B2B",
"m  c #714328",
"M  c #76522D",
"N  c #556723",
"B  c #4B7429",
"V  c #373C45",
"C  c #2F4459",
"Z  c #3A5671",
"A  c #51544B",
"S  c #4C4B5A",
"D  c #755D56",
"F  c #5C5B76",
"G  c #797675",
"H  c #706C70",
"J  c #87592B",
"K  c #865731",
"L  c #885D36",
"P  c #8C6339",
"I  c #976B3B",
"U  c #97783E",
"Y  c #9D7322",
"T  c #A47839",
"R  c #895F44",
"E  c #8E6449",
"W  c #956B46",
"Q  c #876C59",
"!  c #9D7756",
"~  c #8F734C",
"^  c #A57C43",
"/  c #A17648",
"(  c #A67C55",
")  c #9D7860",
"_  c #14812A",
"`  c #1B8529",
"'  c #1D892A",
"]  c #1E8130",
"[  c #258D29",
"{  c #248226",
"}  c #358A24",
"|  c #3C9D2A",
" . c #379928",
".. c #279229",
"X. c #3AA129",
"o. c #639619",
"O. c #75B318",
"+. c #429D2A",
"@. c #4C8F27",
"#. c #678633",
"$. c #4CA926",
"%. c #44A22A",
"&. c #48A329",
"*. c #5DAF21",
"=. c #67B721",
"-. c #7DC31D",
";. c #A28018",
":. c #83833B",
">. c #8A8A36",
",. c #AB8527",
"<. c #A59D2F",
"1. c #AB873B",
"2. c #B68D37",
"3. c #B59335",
"4. c #B89632",
"5. c #BC9F27",
"6. c #9FAC3E",
"7. c #A7A12D",
"8. c #BFA12E",
"9. c #AEAA3A",
"0. c #D3BF1F",
"q. c #C2A229",
"w. c #CEB923",
"e. c #CEB723",
"r. c #D2BC21",
"t. c #D1BB2B",
"y. c #CEB036",
"u. c #BAD60C",
"i. c #D3CB09",
"p. c #D8C41E",
"a. c #D7C80F",
"s. c #E5D814",
"d. c #E0D506",
"f. c #DBED08",
"g. c #DDEF07",
"h. c #ECE30D",
"j. c #F1EB0A",
"k. c #F8F505",
"l. c #FDFD01",
"z. c #F7F306",
"x. c #F9EE12",
"c. c #F3E614",
"v. c #EEE016",
"b. c #D4C222",
"n. c #F4DB29",
"m. c #ECCB32",
"M. c #AD8349",
"N. c #B38944",
"B. c #A78458",
"V. c #85827F",
"C. c #B28964",
"Z. c #B99368",
"A. c #B89772",
"S. c #A1957A",
"D. c #89AB6C",
"F. c #B2AA79",
"G. c #B1A377",
"H. c #C59C52",
"J. c #DCAD4E",
"K. c #D4A647",
"L. c #DEB247",
"P. c #D4A74A",
"I. c #C29D74",
"U. c #C19F79",
"Y. c #C5A57A",
"T. c #D2B373",
"R. c #39579C",
"E. c #3356A1",
"W. c #488A89",
"Q. c #529DA6",
"!. c #008FC6",
"~. c #7FD3E3",
"^. c #B39F81",
"/. c #8FAE9D",
"(. c #ABA188",
"). c #D0AE84",
"_. c #D6B58B",
"`. c #D9B88D",
"'. c #DCBD95",
"]. c #C7A580",
"[. c #DFC19D",
"{. c #E4C69C",
"}. c #DDC7A4",
"|. c #CCC2B6",
" X c #EBCEA4",
".X c #EFD0A7",
"XX c #EFD1A8",
"oX c #F6DCB3",
"OX c #F0D5AC",
"+X c #FDE4BB",
"@X c #FCE4BB",
"#X c #93A2C5",
"$X c #E6D8C3",
"%X c #FDEBCD",
"&X c #FFE9C3",
"*X c #EFE4D8",
"=X c #CED3E1",
"-X c #F2EEEB",
";X c #F7F4F1",
":X c #D0CDCB",
">X c #489848",
/* pixels */
">X>X>X>X>X>X>X>X>X>X>X>X+ @ e _ _ e @ + >X>X>X>X>X>X>X>X>X>X>X>X",
">X>X>X>X>X>X>X>X>X  + p { }  .| |  .} { p -   >X>X>X>X>X>X>X>X>X",
">X>X>X>X>X>X>X>Xo ; w i ` [ [ [ [ [ [ ` i w ; o >X>X>X>X>X>X>X>X",
">X>X>X>X>X>X>X+ : a ' { ` ` ` ` ` ` ` ` ` ` a = + >X>X>X>X>X>X>X",
">X>X>X>X>X>X  w ] +.&.$.$.$.$.&.&.&.$.$.$.&.+.s w   >X>X>X>X>X>X",
">X>X>X>X>X>X  t +.#.<.f.g.g.<.~ >.7.g.g.f.<.:.+.t   >X>X>X>X>X>X",
">X>X>X>X  - q B >.b.p.e.s.l.s.e.^ 8.l.s.e.0.0.6.#.q -   >X>X>X>X",
">X>X>X>X# , g >.q.s.p.N.b.l.j.s.8.e.l.r.^ p.s.m.9.g u # >X>X>X>X",
"T ^ ).U.n c c 0.z.4.N.J.n.k.q.2.z.k.k.b.^ M.3.z.s.M.J c Y.T.^ / ",
"n K {.oX{.I.I s.l.K.y.x.0.2.T 1.z.h.4.H.Y.M.1.k.k.j.q.T {.{.K v ",
">Xn C.(.~./.^ s.k.y.y.l.s.0.e.0.b.y.Z.). X`.T.t.b.0.D.Q.S.C.n >X",
">X>X6 A !.W.I p.v.T 2.x.x.x.x.v.U B.[.XX@X@X.X/ U 4.W.!.A 6 >X>X",
">X>X>X>Xo > b 2.K.b J J.J.J.J.K.J / @X@XoX'.I.n ;.l.k o >X>X>X>X",
">X>X>X>X  j d.,.n % > ^ H.J.T I C.Y.[.Z.R 8 7 P 8.l.k   >X>X>X>X",
">X>X>X>X  j n.Y m G G H ~ T / ( {._.( D S H G P ,.n.j   >X>X>X>X",
">X>X>X>X  l N.v x *X=XE.F E ].{.+X[.E F E.=X*Xx v N.l   >X>X>X>X",
">X>X>X>X>X>XO X $ }.|.R.#X;X%X@X+X%X;X#XR.|.}.$ . X >X>X>X>X>X>X",
">X>X>X>X  % 4 V C B.Y.|.$X%X&X+X+X&X%X$X|.Y.( O   >X>X>X>X>X>X>X",
">X>X>X>X  * c S Z P / I._.XX.X.XXXXXOX`.I.I n .   >X>X>X>X>X>X>X",
">X>X>X>X  % 5 V C 9 5 l ~ F.F.F.F.G.A.! R L D     >X>X>X>X>X>X>X",
">X>X>X>X>X>X. o o X - a a ` s s ] y @ V.-X-X:X$   >X>X>X>X>X>X>X",
">X>X>X>X>X>X>X    3 h p _ i p i i d ; z ! Q D 7 &   >X>X>X>X>X>X",
">X>X>X>X>X>X>X= ; N N f f f o.O.O.o.r < 3 2 4 9 >   >X>X>X>X>X>X",
">X>X>X>X>X>X  w _ X.@.x x x i.l.l.i.x *   x L L 9   >X>X>X>X>X>X",
">X>X>X>X>X>X  w _ X.%.&.} a u.l.l.u.a ; o (.XX_.Q   >X>X>X>X>X>X",
">X>X>X>X>X>X>X- : p ..X.X. .=.-.-.*._ w : 1 z 8 1 >X>X>X>X>X>X>X",
">X>X>X>X>X>X>X    u g B g t t t t e q ; - @     >X>X>X>X>X>X>X>X",
">X>X>X>X>X>X>X. X 3 7 7 &                 >X>X>X>X>X>X>X>X>X>X>X",
">X>X>X>X>X>X  & 3 0 0 7 &   >X>X>X>X>X>X>X>X>X>X>X>X>X>X>X>X>X>X",
">X>X>X>X>X>X  3 0 c 6 0 *   >X>X>X>X>X>X>X>X>X>X>X>X>X>X>X>X>X>X",
">X>X>X>X>X>X  > 2 2 2 2 *   >X>X>X>X>X>X>X>X>X>X>X>X>X>X>X>X>X>X",
">X>X>X>X>X>X>X            >X>X>X>X>X>X>X>X>X>X>X>X>X>X>X>X>X>X>X"
};
