/* XPM */
static char *l1[] = {
/* columns rows colors chars-per-pixel */
"32 32 189 2 ",
"   c #010201",
".  c #0A0604",
"X  c #030B04",
"o  c #0B0907",
"O  c #0D0B0A",
"+  c #110C0B",
"@  c #1A0E0C",
"#  c #110907",
"$  c #031406",
"%  c #0A1A07",
"&  c #161405",
"*  c #19160C",
"=  c #191614",
"-  c #25130C",
";  c #241912",
":  c #3A1F15",
">  c #072507",
",  c #05250A",
"<  c #082A09",
"1  c #0B260B",
"2  c #112D0D",
"3  c #0A390C",
"4  c #08350E",
"5  c #18320B",
"6  c #063D14",
"7  c #2F2312",
"8  c #3C211A",
"9  c #293417",
"0  c #3F3015",
"q  c #242304",
"w  c #372E23",
"e  c #3C3328",
"r  c #42241B",
"t  c #522D1D",
"y  c #553119",
"u  c #4A3B1A",
"i  c #61381D",
"p  c #473C2D",
"a  c #6F3C21",
"s  c #0C4D12",
"d  c #0A4817",
"f  c #154C15",
"g  c #0E5115",
"h  c #0C531C",
"j  c #0D5C1D",
"k  c #135313",
"l  c #155815",
"z  c #1A5A14",
"x  c #0C420C",
"c  c #2A521F",
"v  c #3D460D",
"b  c #0D631C",
"n  c #236C19",
"m  c #2B6E1C",
"M  c #29741C",
"N  c #27781D",
"B  c #27741C",
"V  c #337617",
"C  c #105F20",
"Z  c #2D5023",
"A  c #0F6820",
"S  c #166629",
"D  c #0F7226",
"F  c #0F7B29",
"G  c #107425",
"H  c #117B29",
"J  c #1A7725",
"K  c #327F20",
"L  c #4C510C",
"P  c #6B5F1F",
"I  c #4D4F20",
"U  c #4C4E22",
"Y  c #604A26",
"T  c #764824",
"R  c #6E5426",
"E  c #755435",
"W  c #5A7525",
"Q  c #447727",
"!  c #616022",
"~  c #646D3F",
"^  c #667938",
"/  c #52514F",
"(  c #61564C",
")  c #7E6F5C",
"_  c #74614C",
"`  c #7F7270",
"'  c #636165",
"]  c #966D1F",
"[  c #845434",
"{  c #865A37",
"}  c #82532A",
"|  c #916834",
" . c #9A7649",
".. c #846F55",
"X. c #A47B42",
"o. c #947D60",
"O. c #1B8529",
"+. c #178129",
"@. c #1C8234",
"#. c #248C29",
"$. c #288D28",
"%. c #348521",
"&. c #398E22",
"*. c #309227",
"=. c #3D9C27",
"-. c #369B29",
";. c #3A9E29",
":. c #389626",
">. c #3EA028",
",. c #7BBC1E",
"<. c #409E29",
"1. c #53832B",
"2. c #758838",
"3. c #41A429",
"4. c #42A428",
"5. c #5EA12D",
"6. c #67AE20",
"7. c #70B920",
"8. c #6C8252",
"9. c #6F975C",
"0. c #77A064",
"q. c #A78914",
"w. c #8E9B30",
"e. c #AD873B",
"r. c #B28A36",
"t. c #BE9D30",
"y. c #BA993B",
"u. c #A4802A",
"i. c #C1AA14",
"p. c #D0BB1F",
"a. c #C59F3E",
"s. c #CCB523",
"d. c #C6A339",
"f. c #DAB13E",
"g. c #CCB22A",
"h. c #DCCE09",
"j. c #D7C61B",
"k. c #D1D809",
"l. c #E6DA19",
"z. c #DCE704",
"x. c #EFE70C",
"c. c #F9F706",
"v. c #F0EA0A",
"b. c #D9C622",
"n. c #DCC82D",
"m. c #CBC334",
"M. c #E8D329",
"N. c #E7C537",
"B. c #ECD228",
"V. c #AE8344",
"C. c #B58946",
"Z. c #A1805E",
"A. c #98876F",
"S. c #A28A6C",
"D. c #BB9767",
"F. c #A5947E",
"G. c #C69949",
"H. c #DAA851",
"J. c #D9A652",
"K. c #CCA943",
"L. c #C2A576",
"P. c #D0C36A",
"I. c #415FA3",
"U. c #1582A3",
"Y. c #5FC6E1",
"T. c #928381",
"R. c #AA9B95",
"E. c #9AAB9F",
"W. c #ADAF99",
"Q. c #C4A980",
"!. c #D3AF87",
"~. c #D2B189",
"^. c #DEBF97",
"/. c #B1C5B6",
"(. c #DFCA9E",
"). c #E1C39C",
"_. c #E4C597",
"`. c #FAE395",
"'. c #E7CAA1",
"]. c #EED3AB",
"[. c #F2D7AE",
"{. c #F4DAB1",
"}. c #FEE5BC",
"|. c #EEDFC9",
" X c #D4ECDA",
".X c #FFEECC",
"XX c #D9DFEE",
"oX c #FFF6E0",
"OX c #489848",
/* pixels */
"OXOXOXOXOXOXOXOXOXOXOXOXOXOXOXOXOXOXOXOXOXOXOXOXOXOXOXOXOXOXOXOX",
"OXOXOXOXOXOXOXOXOXOXOXOXOXOXOXOXOXOXOXOXOXOXOXOXOXOXOXOXOXOXOXOX",
"OXOXOXOXOXOXe.X.| P J g n 3.3.#.+.OXOXOXOXOXOXOXOXOXOXOXOXOXOXOX",
"OXOXOXX.G.N.v.r.s.k.4.l n 3.3.>.>.3.3.#.H H OXOXOXOXOXOXOXOXOXOX",
"OXOXe.j.d.G.s.j.B.m.4.z n >.4.4.3.3.3.-.#.H H b OXOXOXOXOXOXOXOX",
"OX] g.c.g.C.C.l.B.m.,.V n &.>.4.3.3.3.3.-.#.H b g OXOXOXOXOXOXOX",
"T q.c.c.N.J.H.H.M.c.v.,.N k =.=.>.=.4.4.4.;.O.F G s OXOXOXOXOXOX",
"OXOX] f.G.V.V.V.j.x.t.5.N k =.B k z =.3.-.O.H F H A g OXOXOXOXOX",
"OXOXOXOXE E D.D.K.b.s.w.1.B B B M M $.$.#.F F F H H A d OXOXOXOX",
"OXOXOXOX  e ~.^.D.y.c.t.2.$.g N :.-.H H F F F F H H +.d   OXOXOX",
"OXOXOXOX  e !.].'.P.c.t.2.F H l j H H H F G F F H H H d   OXOXOX",
"OXOXOXOX  ; { p A.`.c.t.{ I s b b s s g g s < 3 g g G D h X OXOX",
"OXOXOXOXp / / ' W.`.b.a.| T ~ 9.0.8.f x 3 > X $ > , g b j , $ OX",
"OXOXOX  ..R.I.XXoX].X.H.r.[ ~.{.}.).Z 3 <   OXOX    < 3 3 3 $   ",
"OXOXOX  ..R.I.XXoX^.} h.i.[ ].}._. .* X X OXOXOXOXOXX   X X OXOX",
"OXOXOXOX0 ( R.|..X'.T h.M.F.Y.E. .7 .   OXOXOXOXOXOXOXOXOXOXOXOX",
"OXOXOXOXOXw o.).{.^. .i.n.P.U./ Y U L OXOXOXOXOXOXOXOXOXOXOXOXOX",
"OXOXOXOXOXOX# S.Q.Q.L.E q.k.%   p L.l.OXOXOXOXOXOXOXOXOXOXOXOXOX",
"OXOXOXOXOXOXOX= 9 Z c * R d.@ , 5 = q OXOXOXOXOXOXOXOXOXOXOXOXOX",
"OXOXOXOXOXOXX 3 h b j 4 9 U d j d     OXOXOXOXOXOXOXOXOXOXOXOXOX",
"OXOXOXOXOXOXv J F D j h 6 , j F h   OXOXOXOXOXOXOXOXOXOXOXOXOXOX",
"OXOXOXOX  L z.&.H A X S @.S X h h X OXOXOXOXOXOXOXOXOXOXOXOXOXOX",
"OXOXOXOX  5 6.! Y u o E. X/.= 0 U j X OXOXOXOXOXOXOXOXOXOXOXOXOX",
"OXOXOXOXX 2 >.W W I o ` R.T.O L Q D $ OXOXOXOXOXOXOXOXOXOXOXOXOX",
"OXOXOXOXOX2 %.>.3.%.. 8 t r . m *.j $ OXOXOXOXOXOXOXOXOXOXOXOXOX",
"OXOXOXOXOXOX% %.4.K X y T i . m m X OXOXOXOXOXOXOXOXOXOXOXOXOXOX",
"OXOXOXOXOXOX  1 2 1 o S.!.o.# % 2 OXOXOXOXOXOXOXOXOXOXOXOXOXOXOX",
"OXOXOXOXOXOX  - - @ = ) A._ ; #   OXOXOXOXOXOXOXOXOXOXOXOXOXOXOX",
"OXOXOXOXOXOX. y t r r #   o 8 @   OXOXOXOXOXOXOXOXOXOXOXOXOXOXOX",
"OXOXOXOXOXOXOX. . . .   @ 8 o OXOXOXOXOXOXOXOXOXOXOXOXOXOXOXOXOX",
"OXOXOXOXOXOXOXOXOXOXOX  o @ OXOXOXOXOXOXOXOXOXOXOXOXOXOXOXOXOXOX",
"OXOXOXOXOXOXOXOXOXOXOX      OXOXOXOXOXOXOXOXOXOXOXOXOXOXOXOXOXOX"
};
