/* XPM */
static char *l10[] = {
/* columns rows colors chars-per-pixel */
"32 32 199 2 ",
"   c #010101",
".  c #020A04",
"X  c #0B0905",
"o  c #080607",
"O  c #130A09",
"+  c #110906",
"@  c #041305",
"#  c #0C1307",
"$  c #051C06",
"%  c #0B1809",
"&  c #19100A",
"*  c #1B1815",
"=  c #281B0D",
"-  c #261B14",
";  c #311B12",
":  c #06260B",
">  c #0A2C0B",
",  c #072907",
"<  c #173C0F",
"1  c #083413",
"2  c #073C14",
"3  c #153A10",
"4  c #0F360B",
"5  c #2C2409",
"6  c #2A2210",
"7  c #29221B",
"8  c #372618",
"9  c #132330",
"0  c #282322",
"q  c #322A23",
"w  c #3C3328",
"e  c #44251B",
"r  c #482816",
"t  c #552F1E",
"y  c #4A371B",
"u  c #563018",
"i  c #5C371C",
"p  c #683C1D",
"a  c #532E21",
"s  c #593922",
"d  c #4C312B",
"f  c #603621",
"g  c #0D440E",
"h  c #10480F",
"j  c #0B4314",
"k  c #0D4C13",
"l  c #074016",
"z  c #144712",
"x  c #0D5516",
"c  c #0A531A",
"v  c #0E5D1B",
"b  c #175512",
"n  c #175817",
"m  c #204F14",
"M  c #205014",
"N  c #345514",
"B  c #0E611D",
"V  c #19651B",
"C  c #206617",
"Z  c #236D1A",
"A  c #2C7B1E",
"S  c #26731B",
"D  c #30791F",
"F  c #124F24",
"G  c #3B5E24",
"H  c #0F6C23",
"J  c #0C6420",
"K  c #146A23",
"L  c #0F7325",
"P  c #0F7A29",
"I  c #107526",
"U  c #117C29",
"Y  c #1A7925",
"T  c #247825",
"R  c #296926",
"E  c #6B401E",
"W  c #79491E",
"Q  c #68551E",
"!  c #44681F",
"~  c #696D02",
"^  c #46402F",
"/  c #415F25",
"(  c #57462B",
")  c #684525",
"_  c #794827",
"`  c #6E5429",
"'  c #606222",
"]  c #717633",
"[  c #2A445E",
"{  c #58564E",
"}  c #695945",
"|  c #786E5B",
" . c #58566C",
".. c #737E77",
"X. c #8D7717",
"o. c #85562E",
"O. c #8D5C31",
"+. c #92602F",
"@. c #856832",
"#. c #946432",
"$. c #976A37",
"%. c #937338",
"&. c #A57E3F",
"*. c #8C785E",
"=. c #95795A",
"-. c #A27A41",
";. c #A67942",
":. c #8E7C76",
">. c #31821D",
",. c #1A8429",
"<. c #288A29",
"1. c #348C22",
"2. c #368320",
"3. c #2A9028",
"4. c #3C9C27",
"5. c #3C9E28",
"6. c #369526",
"7. c #3DA129",
"8. c #418C1C",
"9. c #528126",
"0. c #438525",
"q. c #41A529",
"w. c #48AA28",
"e. c #57A429",
"r. c #61A632",
"t. c #78C21E",
"y. c #3B8A4E",
"u. c #678853",
"i. c #6A8271",
"p. c #8F8F00",
"a. c #879234",
"s. c #B6942A",
"d. c #AD883B",
"f. c #B89833",
"g. c #AD8A30",
"h. c #96AC30",
"j. c #BDA724",
"k. c #CDB713",
"l. c #C6AA2C",
"z. c #CCAB32",
"x. c #DAB835",
"c. c #CFB923",
"v. c #99CA12",
"b. c #B4D414",
"n. c #DBC81C",
"m. c #DFD116",
"M. c #D1CF0A",
"N. c #E4DB06",
"B. c #E8DE12",
"V. c #E5D519",
"C. c #DEEF07",
"Z. c #F3ED09",
"A. c #FCFB02",
"S. c #F0E019",
"D. c #D0C137",
"F. c #EAD129",
"G. c #8A8256",
"H. c #AB8446",
"J. c #B58845",
"K. c #BC9945",
"L. c #AA8454",
"P. c #B78F55",
"I. c #98836B",
"U. c #A7986D",
"Y. c #AA9070",
"T. c #AB9374",
"R. c #9EA473",
"E. c #BDA17E",
"W. c #C8994B",
"Q. c #C8A14A",
"!. c #D5A54D",
"~. c #DFB04B",
"^. c #C6A276",
"/. c #E9D55F",
"(. c #FDEF7A",
"). c #5B6A95",
"_. c #656984",
"`. c #758BBD",
"'. c #A49A98",
"]. c #B0B588",
"[. c #ABAAAA",
"{. c #CEAC86",
"}. c #D5B48C",
"|. c #D0B492",
" X c #D5BFA3",
".X c #AFC28C",
"XX c #A9C5AB",
"oX c #DBC29D",
"OX c #E1C298",
"+X c #EAD18A",
"@X c #EACDA3",
"#X c #F2D6AC",
"$X c #F1DCB8",
"%X c #FFE6BD",
"&X c #DBE0DC",
"*X c #FFECC8",
"=X c #FFEFD0",
"-X c #FEFDFB",
";X c #489848",
/* pixels */
";X;X;X;X;X;X-.-.-._ ' 7.b x P ;X;X;X;X;X;X;X;X;X;X;X;X;X;X;X;X;X",
";X;X;X;X;X;Xl.f.-.+.] 4.b n <.;X;X;X;X;X;X;X;X;X;X;X;X;X;X;X;X;X",
";X;X;Xd.f.!.S.V.g.d.G.q.b C q.q.q.7.,.,.;X;X;X;X;X;X;X;X;X;X;X;X",
";X;X-.V.m.H.d.l.Z.Z.b.7.b C q.q.q.7.7.3.P U v g ;X;X;X;X;X;X;X;X",
";Xf.n.c.z.W.W.x.A.S.D.h.0.S S 4.q.q.q.4.3.U H B g ;X;X;X;X;X;X;X",
";.s.M.g.;.~.W.z.V.F.~.Q.r.A g 6.4.1.1.6.7.,.P I x k ;X;X;X;X;X;X",
";X;X_ _ O.!.O.O.d.B.n.H.e.>.b 1.A h h S 7.,.P P U v g ;X;X;X;X;X",
";X;X;X;X;X8 =.^.^.K.g.H.M.v.1.M Z 1.6.<.,.U U U U I J . ;X;X;X;X",
";X;X;X;X;X  I.OX@X^.W.c.n.h.3.B V A 3.,.P U U P U U H . ;X;X;X;X",
";X;X;X;X;Xo =.{.oX X/.A.f.] <.Y B x V I P L L L U U H @ . ;X;X;X",
";X;X;X;X;Xo s f 0 ].(.A.f.J.Q.N v L k B I k g x L U L g $   ;X;X",
";X;X;X;Xw *. ._.[.$X+Xj.W.J.$.G.R..X].u.x g > $ k H L k $   ;X;X",
";X;X;X  w }.).`.-X=X}.#.x.f._ {.#X%X@XG., , $   , x I g $   ;X;X",
";X;X;X  w E.).`.-X=X{._ N.k.o.OX$X#XH.y     ;X;X  2 L g $   ;X;X",
";X;X;X;X;X- I. X*X*X{.o.N.S.W.P.P.H.8 X   ;X;X;X  : j @ . ;X;X;X",
";X;X;X;X;X;X^ *.@X@X{.;.s.k.F.E y ^ ` X.p.;X;X;X;X@ $   ;X;X;X;X",
";X;X;X;X;X;X  w I.U.U.Y.) X.B.5   % %.j.M.;X;X;X;X;X  ;X;X;X;X;X",
";X;X;X;X;X;X;X;XX 3 z z # ( Q.6 $ g # X X ;X;X;X;X;X;X;X;X;X;X;X",
";X;X;X;X;X;X      c k % %.` 8 n J V y ;   ;X;X;X;X;X;X;X;X;X;X;X",
";X;X;X;X;X;X< N ~ <.k o ` Q = I Y G y 7 9 o ;X;X;X;X;X;X;X;X;X;X",
";X;X;X;X;X  T t.C.8.c 0 % - s R / f & 9 [ 7 * ;X;X;X;X;X;X;X;X;X",
";X;X;X;X;X  D w.e., { &Xy.j O i _ E < , * Y.}   ;X;X;X;X;X;X;X;X",
";X;X;X;X;Xo V Y 3 7 d I.XXi.o ! 9.9.2.n > ^ 7   ;X;X;X;X;X;X;X;X",
";X;X;X;X;X  2 1 o e a d '.i.> 1.q.q.5.V ,       ;X;X;X;X;X;X;X;X",
";X;X;X;X;Xo       s _ _ * 1 Y 5.q.7.Y 2 o     ;X;X;X;X;X;X;X;X;X",
";X;X    O 8 8 ; o E.@XOX0 3 5.q.6.Y : 5 u X   ;X;X;X;X;X;X;X;X;X",
";X;X  = r f a ; o { | | * % m b z 2 * r p +   ;X;X;X;X;X;X;X;X;X",
";X;X  r f f e -                 o O e t u + ;X;X;X;X;X;X;X;X;X;X",
";X;X;Xo o   o     ;X;X;X;X;X;X  & e e ;   ;X;X;X;X;X;X;X;X;X;X;X",
";X;X;X;X;X;X;X;X;X;X;X;X;X;X;X  o O O O ;X;X;X;X;X;X;X;X;X;X;X;X",
";X;X;X;X;X;X;X;X;X;X;X;X;X;X;X;X      ;X;X;X;X;X;X;X;X;X;X;X;X;X",
";X;X;X;X;X;X;X;X;X;X;X;X;X;X;X;X;X;X;X;X;X;X;X;X;X;X;X;X;X;X;X;X"
};
