/* XPM */
static char *l3[] = {
/* columns rows colors chars-per-pixel */
"32 32 194 2 ",
"   c #010201",
".  c #0B0605",
"X  c #030B04",
"o  c #0E0806",
"O  c #130B06",
"+  c #130B09",
"@  c #1B0F08",
"#  c #041305",
"$  c #051D06",
"%  c #1B1511",
"&  c #181B17",
"*  c #191008",
"=  c #29170C",
"-  c #251916",
";  c #341D16",
":  c #0A2B0A",
">  c #04290A",
",  c #09320B",
"<  c #0C3E0C",
"1  c #152310",
"2  c #123410",
"3  c #382917",
"4  c #332B21",
"5  c #39342C",
"6  c #2F322C",
"7  c #42251D",
"8  c #482A1D",
"9  c #472915",
"0  c #512D1B",
"q  c #4C351A",
"w  c #5C341A",
"e  c #59381B",
"r  c #673A1D",
"t  c #4B2920",
"y  c #422E2B",
"u  c #5C3521",
"i  c #483126",
"p  c #663A21",
"a  c #703F21",
"s  c #0D410D",
"d  c #10480F",
"f  c #0C4B13",
"g  c #0A4C19",
"h  c #154A12",
"j  c #0D5215",
"k  c #0B581D",
"l  c #145113",
"z  c #175A17",
"x  c #235F19",
"c  c #0E631E",
"v  c #1A6117",
"b  c #236E1A",
"n  c #29771C",
"m  c #29771C",
"M  c #0F5D22",
"N  c #194325",
"B  c #215F22",
"V  c #395822",
"C  c #0F6A21",
"Z  c #136A21",
"A  c #0F7727",
"S  c #117B29",
"D  c #137625",
"F  c #286E28",
"G  c #257926",
"H  c #347F22",
"J  c #367524",
"K  c #71680A",
"L  c #564A30",
"P  c #684823",
"I  c #744421",
"U  c #69732D",
"Y  c #0A3A49",
"T  c #4C4846",
"R  c #79684B",
"E  c #706554",
"W  c #555876",
"Q  c #9F7E12",
"!  c #956A1F",
"~  c #A07E12",
"^  c #895A29",
"/  c #8D5D31",
"(  c #8D6036",
")  c #996632",
"_  c #A7763C",
"`  c #887A57",
"'  c #9B7656",
"]  c #987A4D",
"[  c #A37A41",
"{  c #A17743",
"}  c #8F7B60",
"|  c #817A79",
" . c #2F821F",
".. c #168029",
"X. c #1C8529",
"o. c #288C27",
"O. c #338421",
"+. c #348B22",
"@. c #3A8624",
"#. c #2B942A",
"$. c #399324",
"%. c #3C9B26",
"&. c #3B9E29",
"*. c #379123",
"=. c #3CA029",
"-. c #5C9014",
";. c #418618",
":. c #4C9027",
">. c #409929",
",. c #57942C",
"<. c #6E8B3D",
"1. c #41A529",
"2. c #49A223",
"3. c #52A220",
"4. c #4E8C54",
"5. c #76905D",
"6. c #578B65",
"7. c #A78E15",
"8. c #88BF15",
"9. c #A9A900",
"0. c #9F9237",
"q. c #878B39",
"w. c #AB833F",
"e. c #AC8430",
"r. c #B18B35",
"t. c #B6933B",
"y. c #BB9A34",
"u. c #BFA130",
"i. c #B7A12E",
"p. c #C29D39",
"a. c #C5A92A",
"s. c #CAB125",
"d. c #CFA43D",
"f. c #DDB13F",
"g. c #85C21A",
"h. c #AFCE0E",
"j. c #AFCA19",
"k. c #8CC222",
"l. c #BACF22",
"z. c #DBC91A",
"x. c #D9C81A",
"c. c #DDDB11",
"v. c #EBD819",
"b. c #CEE60A",
"n. c #F6F406",
"m. c #EFE510",
"M. c #F2E80F",
"N. c #E4C62E",
"B. c #908A5F",
"V. c #A9804F",
"C. c #B78B48",
"Z. c #AE9043",
"A. c #A48453",
"S. c #9AA540",
"D. c #98836A",
"F. c #949063",
"G. c #B38B64",
"H. c #B28D6A",
"J. c #B49A79",
"K. c #AC9375",
"L. c #A9A375",
"P. c #CB9C4B",
"I. c #C79948",
"U. c #CCA248",
"Y. c #D4A94C",
"T. c #D1AF54",
"R. c #C09B6D",
"E. c #C8A478",
"W. c #F9F241",
"Q. c #586895",
"!. c #787F9A",
"~. c #6AB1AE",
"^. c #35B1D4",
"/. c #8D8783",
"(. c #9BBB9E",
"). c #ABA1A0",
"_. c #C9AC88",
"`. c #C8B494",
"'. c #DDBF96",
"]. c #C1C695",
"[. c #E7C89D",
"{. c #CBC4BE",
"}. c #ECD3AA",
"|. c #EACFA9",
" X c #FDE5BD",
".X c #8CA1CD",
"XX c #9AA6C4",
"oX c #C9CDCA",
"OX c #DFE1C4",
"+X c #FFE8C2",
"@X c #FEE7C1",
"#X c #FFFAEE",
"$X c #FFFFFA",
"%X c #489848",
/* pixels */
"%X%X%X%X%X%X%X[ / P 1.z b 2.2.=.1.1.%X%X%X%X%X%X%X%X%X%X%X%X%X%X",
"%X%X%X%X%X%X%XC.r.7.g.;.b  .=.1.1.1.1.%X%X%X%X%X%X%X%X%X%X%X%X%X",
"%X%X%X%X%X%Xr.P.N.n.n.k.@.l +.=.1.1.1.1.%.l %X%X%X%X%X%X%X%X%X%X",
"%X%X%X%X{ y.M.y.w.C.f.T.S.+.z H 1.1.1.1.=.S j s %X%X%X%X%X%X%X%X",
"%X%X%X[ s.x.s.I.I.I.C.N.l.2.h n 1.1.1.1.&...z s %X%X%X%X%X%X%X%X",
"%X%X%X[ z.m.C.C.I.U.u.x.j.>.l n =.+.+.$.&...c j %X%X%X%X%X%X%X%X",
"%X%X%X[ x.M.Y./ ( t.M.u.q.2.z n +.h d b &...A c s %X%X%X%X%X%X%X",
"%X%X%X[ U.d./ G.E.R.y.w.i.b.3.n v $.$.o...S S c s X %X%X%X%X%X%X",
"%X%X%X%X_ / 3 K.[.[.H.V.a.n.2.D c m o.X.S S S C < X %X%X%X%X%X%X",
"%X%X%X%X%X0 . ' _.`.[.T.s.c.,.D c f c A S S S C s X %X%X%X%X%X%X",
"%X%X%X%X%X%X. p i 6 |.W.z.w.P.U l S k z S A S C < X %X%X%X%X%X%X",
"%X%X%X%X%X4 D.W !.{. XT.p.I.) ] L.].].5.j j C k # %X%X%X%X%X%X%X",
"%X%X%X%X  4 _.Q..X$X@XG.e.N.^ G.}.@X[.` > s c k   %X%X%X%X%X%X%X",
"%X%X%X%X%X4 J.Q.XX#X@X' Q n.! J.OX}.A.q   , c j   %X%X%X%X%X%X%X",
"%X%X%X%X%X%X% D.[.+X@X' Q n.f.~.^.A.3 o     , ,   %X%X%X%X%X%X%X",
"%X%X%X%X%X%X  4 } [.[.E.V.7.v.<.Y 3 R 0.9.%X# # %X%X%X%X%X%X%X%X",
"%X%X%X%X%XO = T E ` B.F.R e z.K   # E 0.9.%X%X%X%X%X%X%X%X%X%X%X",
"%X%X%X%X  @ a oX/.# s f , * Z.L # < #     %X%X%X%X%X%X%X%X%X%X%X",
"%X%X%X%X%X%XO & N C C A j X F 2 O e @   %X%X%X%X%X%X%X%X%X%X%X%X",
"%X%X%X%X%X%X  h -.8.X.A b 3 D 6.| ; 1 $     %X%X%X%X%X%X%X%X%X%X",
"%X%X%X%X%X%X. H g.h.J F V u 4.(.).* 1 $   * O %X%X%X%X%X%X%X%X%X",
"%X%X  .     X H #.S P I 8 & oX/.t 8 & X o p =   %X%X%X%X%X%X%X%X",
"  = w w 7 =   Z #.&.:.:.O.M 6 y 0 I J.E o r r 9   %X%X%X%X%X%X%X",
"  = I I u t - 2 g x #.=.=.#.g 1 i H.D.L o 0 a 0   %X%X%X%X%X%X%X",
"  = w r u t 8 o   # M G O.O.Z > 4 `.5   . 7 p 9   %X%X%X%X%X%X%X",
"%X%Xo 7 t t t o   %XX X X X X     + %X%X. 7 t ;   %X%X%X%X%X%X%X",
"%X%X%X+ + + + %X%X%X%X%X%X%X%X%X%X%X%X%X%X+ @ + %X%X%X%X%X%X%X%X",
"%X%X%X        %X%X%X%X%X%X%X%X%X%X%X%X%X%X    %X%X%X%X%X%X%X%X%X",
"%X%X%X%X%X%X%X%X%X%X%X%X%X%X%X%X%X%X%X%X%X%X%X%X%X%X%X%X%X%X%X%X",
"%X%X%X%X%X%X%X%X%X%X%X%X%X%X%X%X%X%X%X%X%X%X%X%X%X%X%X%X%X%X%X%X",
"%X%X%X%X%X%X%X%X%X%X%X%X%X%X%X%X%X%X%X%X%X%X%X%X%X%X%X%X%X%X%X%X",
"%X%X%X%X%X%X%X%X%X%X%X%X%X%X%X%X%X%X%X%X%X%X%X%X%X%X%X%X%X%X%X%X"
};
