/* XPM */
static char *l4[] = {
/* columns rows colors chars-per-pixel */
"32 32 201 2 ",
"   c #010101",
".  c #090504",
"X  c #020B03",
"o  c #0B0A04",
"O  c #080809",
"+  c #130A09",
"@  c #160C08",
"#  c #041506",
"$  c #031B0A",
"%  c #071805",
"&  c #1E150C",
"*  c #1A1611",
"=  c #25150C",
"-  c #27180C",
";  c #251410",
":  c #281D14",
">  c #341D16",
",  c #351D0D",
"<  c #092C0A",
"1  c #08240A",
"2  c #13290C",
"3  c #0A350C",
"4  c #0B3A0B",
"5  c #0A3814",
"6  c #143012",
"7  c #3D2313",
"8  c #31281E",
"9  c #273816",
"0  c #28240F",
"q  c #323132",
"w  c #2C2B2C",
"e  c #49291F",
"r  c #432618",
"t  c #4C3619",
"y  c #5C341C",
"u  c #56371D",
"i  c #60361B",
"p  c #4B2B22",
"a  c #4C372E",
"s  c #633721",
"d  c #0D420E",
"f  c #11490F",
"g  c #0E4910",
"h  c #0B4514",
"j  c #154A12",
"k  c #1F4E14",
"l  c #124414",
"z  c #0D5416",
"x  c #0E5B1B",
"c  c #0B541C",
"v  c #1A5B14",
"b  c #0F631D",
"n  c #1A661A",
"m  c #246819",
"M  c #28751C",
"N  c #28781C",
"B  c #254930",
"V  c #0F6920",
"C  c #0E6320",
"Z  c #116D22",
"A  c #0E7325",
"S  c #0D7929",
"D  c #117325",
"F  c #117B29",
"G  c #107827",
"H  c #3E792E",
"J  c #2E7429",
"K  c #444B1A",
"L  c #494D20",
"P  c #465526",
"I  c #525426",
"U  c #744324",
"Y  c #7D4C29",
"T  c #7E4B27",
"R  c #685925",
"E  c #68503A",
"W  c #785F35",
"Q  c #676329",
"!  c #7B7A3D",
"~  c #254145",
"^  c #256A69",
"/  c #595555",
"(  c #6F5848",
")  c #7F6B52",
"_  c #7D705F",
"`  c #76634C",
"'  c #4D5174",
"]  c #5F7164",
"[  c #776D67",
"{  c #916E19",
"}  c #80502D",
"|  c #84593C",
" . c #845633",
".. c #956C27",
"X. c #8F623F",
"o. c #996D3A",
"O. c #9D723D",
"+. c #977141",
"@. c #A37942",
"#. c #A67B43",
"$. c #34881E",
"%. c #1B8429",
"&. c #298826",
"*. c #348B22",
"=. c #308420",
"-. c #2C9329",
";. c #399525",
":. c #329629",
">. c #399B28",
",. c #2E8330",
"<. c #3EA329",
"1. c #6F931E",
"2. c #409323",
"3. c #508427",
"4. c #699D31",
"5. c #42A529",
"6. c #43A529",
"7. c #58A12F",
"8. c #7CB924",
"9. c #79C11D",
"0. c #409453",
"q. c #919100",
"w. c #8A830C",
"e. c #88BD14",
"r. c #9C863F",
"t. c #B08F2A",
"y. c #AB853D",
"u. c #AD883A",
"i. c #B89634",
"p. c #B18D39",
"a. c #9EB421",
"s. c #BDA02F",
"d. c #C7B513",
"f. c #C29C2E",
"g. c #C3A72B",
"h. c #C4AA29",
"j. c #CCB427",
"k. c #CBAB37",
"l. c #D4B03B",
"z. c #E1BB3E",
"x. c #A2D010",
"c. c #D2C20A",
"v. c #DAC71C",
"b. c #C7D10D",
"n. c #E3D910",
"m. c #EBE30D",
"M. c #FCFB02",
"N. c #F9F40B",
"B. c #F5E714",
"V. c #FEFB10",
"C. c #F2EB0B",
"Z. c #DDD02B",
"A. c #DEC32B",
"S. c #F3DE22",
"D. c #EAC739",
"F. c #B48846",
"G. c #BE914A",
"H. c #BD9B59",
"J. c #B18749",
"K. c #BDA44B",
"L. c #939760",
"P. c #A8976E",
"I. c #BF9C75",
"U. c #AD9269",
"Y. c #A2A978",
"T. c #C59848",
"R. c #CBA54C",
"E. c #D5A550",
"W. c #DBA851",
"Q. c #C2A058",
"!. c #E0B744",
"~. c #C09E78",
"^. c #C7A479",
"/. c #E2C77C",
"(. c #3D5CA2",
"). c #4B639E",
"_. c #75A8A2",
"`. c #40BDDF",
"'. c #8F8F8E",
"]. c #91939D",
"[. c #A59588",
"{. c #ABAE81",
"}. c #AFB083",
"|. c #B7A391",
" X c #B8B7B6",
".X c #D5B289",
"XX c #D0B692",
"oX c #D9C09D",
"OX c #E1C397",
"+X c #FFE99E",
"@X c #D5C8AF",
"#X c #EACCA4",
"$X c #F3DBB7",
"%X c #F2D7A7",
"&X c #F7E2BB",
"*X c #CED9CD",
"=X c #DBE2DA",
"-X c #FFEBC6",
";X c #D1D8E8",
":X c #FFF7E2",
">X c #489848",
/* pixels */
">X>X>X>X>X>X+.} P S d =.6.5.5.&.S >X>X>X>X>X>X>X>X>X>X>X>X>X>X>X",
">X>X>X>X>Xl.g...Q J n N *.5.5.:.%.>X>X>X>X>X>X>X>X>X>X>X>X>X>X>X",
">X>X>Xy.T.z.C.i.J.r.7.m n ;.5.5.:.%.%.%.>X>X>X>X>X>X>X>X>X>X>X>X",
">X>Xu.m.j.#.p.E.E.E.R.4.=.v ;.5.<.>.>.-.A d >X>X>X>X>X>X>X>X>X>X",
">Xf.v.M.A.T.T.G.l.B.S.8.=.f ;.6.<.6.6.-.F b z >X>X>X>X>X>X>X>X>X",
"@.h.M.N.D.W.T.#.j.M.m.8.=.f ;.;.*.*.:.&.S %.z 4 >X>X>X>X>X>X>X>X",
"@.h.N.!.W.T.} o.j.C.u.4.$.f ;.M g f D F S F x 3   >X>X>X>X>X>X>X",
">X....#.#.G.~.~.H.i.@.b.x.*.v N &.D G F F F A g   >X>X>X>X>X>X>X",
">X>XU O.R ` .X#X.XT.j.v.a.-.b n N F F F F F F c   >X>X>X>X>X>X>X",
">X>X>X>X  8 ~.XXXXOXV.g.) J %.b h Z S F F F F x X >X>X>X>X>X>X>X",
">X>X>X>X  & U : _ +XV.g.F.K.&.b h j Z F F F F V 4 X >X>X>X>X>X>X",
">X>X>X  E [ ' ].@X%Xk.R.p.o.L.Y.}.{.J z x S F V d X >X>X>X>X>X>X",
">X>X>X  +.|.(.;X:X#X+.k.f.} .X$X&XOXP < 3 b A b < X >X>X>X>X>X>X",
">X>X>X  ` '.(.;X:X#X} c.d. .@X&XOX+.:   X 4 b c   >X>X>X>X>X>X>X",
">X>X>X>X* a |.$X-X#XY c.B.Q.`.].o.&     >XX 3 4   >X>X>X>X>X>X>X",
">X>X>X>X>X8 ( XX#XOXU.t.d.Z.^ ~ L W w.q.>X>X# $ >X>X>X>X>X>X>X>X",
">X>X>X>X>X>X  +.P.P.P.E { n.0 X 9 y.d.b.>X>X    >X>X>X>X>X>X>X>X",
">X>X>X>X    O o 2 j j # K R.& 5 c o o o >X>X>X>X>X>X>X>X>X>X>X>X",
">X>X>X  > (  Xw # g V 1 2 H O O $ >X>X>X>X>X>X>X>X>X>X>X>X>X>X>X",
">X>X>X  r | '.B h x F 9 9 G ] q   >X>X>X>X>X>X>X>X>X>X>X>X>X>X>X",
">X>X>X  r t % M &.S S L I 0.*X[     >X>X>X>X>X>X>X>X>X>X>X>X>X>X",
">X>X>X>X. 2 2.b.e.S S < / =X` a >       >X>X>X>X>X>X>X>X>X>X>X>X",
">X>X>X>X  < 6.9.1.L I t a / p y s r @     >X>X>X>X>X>X>X>X>X>X>X",
">X>X>X>X  < :.<.3.R R Q K $ : u T X.r +   >X>X>X>X>X>X>X>X>X>X>X",
">X>X. .   $ D ;.5.5.5.5.:.D $ 7  .I.| 7   >X>X>X>X>X>X>X>X>X>X>X",
"  = i i -   $ Z -.5.5.5.<.>.D 6 @ : e >   >X>X>X>X>X>X>X>X>X>X>X",
"  - U s 7 = ; 6 l k k k k k h $ O ; ; @ >X>X>X>X>X>X>X>X>X>X>X>X",
"  = y e p p p +                 + > + >X>X>X>X>X>X>X>X>X>X>X>X>X",
">X>XO r p p r O   >X>X>X>X>X>X      >X>X>X>X>X>X>X>X>X>X>X>X>X>X",
">X>X>X+ + + + >X>X>X>X>X>X>X>X>X>X>X>X>X>X>X>X>X>X>X>X>X>X>X>X>X",
">X>X>X        >X>X>X>X>X>X>X>X>X>X>X>X>X>X>X>X>X>X>X>X>X>X>X>X>X",
">X>X>X>X>X>X>X>X>X>X>X>X>X>X>X>X>X>X>X>X>X>X>X>X>X>X>X>X>X>X>X>X"
};
