/* XPM */
static char *l5[] = {
/* columns rows colors chars-per-pixel */
"32 32 198 2 ",
"   c #010101",
".  c #0A0505",
"X  c #0B0A04",
"o  c #050B05",
"O  c #110A05",
"+  c #150C09",
"@  c #1C0F0A",
"#  c #041606",
"$  c #061E06",
"%  c #041D09",
"&  c #081809",
"*  c #1E130A",
"=  c #18150A",
"-  c #1A1611",
";  c #25180C",
":  c #251A10",
">  c #2C1C14",
",  c #361D13",
"<  c #0C260A",
"1  c #052A0E",
"2  c #052609",
"3  c #17270D",
"4  c #09330E",
"5  c #062F10",
"6  c #112C12",
"7  c #053311",
"8  c #083A14",
"9  c #10381B",
"0  c #27261B",
"q  c #382717",
"w  c #272503",
"e  c #0F1A26",
"r  c #202E3D",
"t  c #2E2E2A",
"y  c #472819",
"u  c #512C1D",
"i  c #522F17",
"p  c #56391C",
"a  c #65391C",
"s  c #5F3B21",
"d  c #483E34",
"f  c #6D3D20",
"g  c #0E460F",
"h  c #11490F",
"j  c #0C4611",
"k  c #0E4B12",
"l  c #084617",
"z  c #134B11",
"x  c #174814",
"c  c #0D5215",
"v  c #0B551C",
"b  c #0D5C1C",
"n  c #16591A",
"m  c #265317",
"M  c #0F621D",
"N  c #1D6116",
"B  c #17671B",
"V  c #0F6709",
"C  c #26721B",
"Z  c #27761D",
"A  c #174A23",
"S  c #324631",
"D  c #0E6A23",
"F  c #0D6421",
"G  c #106D23",
"H  c #0F7225",
"J  c #0F7A29",
"K  c #117526",
"L  c #107B29",
"P  c #1A7D26",
"I  c #34682B",
"U  c #77471F",
"Y  c #4F4C21",
"T  c #554129",
"R  c #40522C",
"E  c #57583D",
"W  c #575423",
"Q  c #694F20",
"!  c #734322",
"~  c #7D4D2A",
"^  c #794826",
"/  c #68503A",
"(  c #645C23",
")  c #7A6D34",
"_  c #223C4E",
"`  c #254145",
"'  c #256A69",
"]  c #645846",
"[  c #725844",
"{  c #75634A",
"}  c #7F6B52",
"|  c #7D705F",
" . c #6F624A",
".. c #4D5174",
"X. c #736E67",
"o. c #8C6E15",
"O. c #80502D",
"+. c #895A32",
"@. c #9E7538",
"#. c #986935",
"$. c #AE7E3C",
"%. c #977141",
"&. c #826B50",
"*. c #A37942",
"=. c #8D7873",
"-. c #30851F",
";. c #188129",
":. c #278828",
">. c #348B22",
",. c #2C9329",
"<. c #3D9B26",
"1. c #3A9E29",
"2. c #359727",
"3. c #3AA12A",
"4. c #6F931E",
"5. c #508728",
"6. c #449927",
"7. c #699A31",
"8. c #41A429",
"9. c #47A528",
"0. c #73A537",
"q. c #13C20C",
"w. c #2CD31B",
"e. c #79C11D",
"r. c #2F8443",
"t. c #579C67",
"y. c #909000",
"u. c #898414",
"i. c #88BF15",
"p. c #9B8B38",
"a. c #B08F2A",
"s. c #AC873B",
"d. c #AE8A39",
"f. c #B39135",
"g. c #A8832B",
"h. c #9EB421",
"j. c #BDA12B",
"k. c #A2AC3F",
"l. c #C6B519",
"z. c #C29C2E",
"x. c #C4A92A",
"c. c #CEB726",
"v. c #D2BB24",
"b. c #CBAB37",
"n. c #D2AB3F",
"m. c #A2D010",
"M. c #D3C30A",
"N. c #D8C31E",
"B. c #C7D10D",
"V. c #E1CF1A",
"C. c #E6DA13",
"Z. c #D8E30D",
"A. c #ECE30F",
"S. c #F8F409",
"D. c #FEFB10",
"F. c #F2E118",
"G. c #DECB2B",
"H. c #E4C536",
"J. c #E6D024",
"K. c #928658",
"L. c #B98A47",
"P. c #BD9B59",
"I. c #BD9F49",
"U. c #A8976E",
"Y. c #B0916A",
"T. c #A2AB78",
"R. c #C08F45",
"E. c #C79B45",
"W. c #CEA24F",
"Q. c #E3BA42",
"!. c #C09E78",
"~. c #C7A479",
"^. c #E2C77C",
"/. c #3D5CA2",
"(. c #4B639E",
"). c #75A8A2",
"_. c #40BDDF",
"`. c #91939D",
"'. c #A59588",
"]. c #ABAF81",
"[. c #B9A388",
"{. c #B2A195",
"}. c #D4B289",
"|. c #D0B692",
" X c #B0C08B",
".X c #D9C09D",
"XX c #E1C397",
"oX c #FFE99E",
"OX c #D5C8AF",
"+X c #EACCA4",
"@X c #F3DBB7",
"#X c #F2D7A7",
"$X c #F7E2BA",
"%X c #FFEBC6",
"&X c #D1D8E8",
"*X c #FFF7E2",
"=X c #E8EDE9",
"-X c #489848",
/* pixels */
"-X-X-X-X-X-X*.*.+.Q 6.N c L -X-X-X-X-X-X-X-X-X-X-X-X-X-X-X-X-X-X",
"-X-X-X-X-Xn.x.x.g.) 6.N c :.-X-X-X-X-X-X-X-X-X-X-X-X-X-X-X-X-X-X",
"-X-X-Xs.E.H.S.S.N.s.9.N N 8.8.8.2.;.-X-X-X-X-X-X-X-X-X-X-X-X-X-X",
"-X-Xs.A.S.C.f.d.v.Z.9.B N 8.8.8.3.3.;.;.H g -X-X-X-X-X-X-X-X-X-X",
"-Xj.N.l.G.H.W.v.J.H.k.5.C C <.8.8.8.2.;.L M c -X-X-X-X-X-X-X-X-X",
"*.j.M.$.R.W.E.V.J.Q.W.0.-.h >.<.>.>.<.,.J ;.M k -X-X-X-X-X-X-X-X",
"-X-XU ! $.L.O.@.c.A.d.7.-.z <.C k h >.,.J J J D g -X-X-X-X-X-X-X",
"-X-X-X-Xq s !.~.W.f.*.B.m.>.N Z >.H ;.;.J ;.J J D -X-X-X-X-X-X-X",
"-X-X-X-X  t }.+X}.E.c.v.h.,.M N Z L L L L L L L L 1 -X-X-X-X-X-X",
"-X-X-X-X  0 !.|.XXXXS.x.} :.K b v H L L L L L L K %   -X-X-X-X-X",
"-X-X-X-X  * ! > | oXD.x.L.I.m M G z H L L L L L K j $   -X-X-X-X",
"-X-X-X  ] X...`.OX#Xb.E.L.#.K.T. X].I c c 5 j b L k 2   -X-X-X-X",
"-X-X-X  } {./.&X*X#X@.b.z.~ }.#X$XXXR 2 2   2 j J k $   -X-X-X-X",
"-X-X-X  { '.(.&X*X+XO.M.M.+.OX$XXX%.:     -X  2 H j $   -X-X-X-X",
"-X-X-X-X- d [.@X%X+X~ l.F.W._.).%.* o   -X-X  # g # o -X-X-X-X-X",
"-X-X-X-X-X0 ] }.+XXXY.a.l.G.' _ T { u.y.-X-X-Xo $ o -X-X-X-X-X-X",
"-X-X-X-X-X-Xo } U.U.U./ o.C.w   0 U.l.B.-X-X-X-X  -X-X-X-X-X-X-X",
"-X-X-X-X-X-X  o < x x & p E.: 1 4 X X o -X-X-X-X-X-X-X-X-X-X-X-X",
"-X-X-X-X-X@ i O 4 b #  .} 0 v D v   -X-X-X-X-X-X-X-X-X-X-X-X-X-X",
"-X-X-X-Xe 0 y 6 v K j E E 7 l D F   -X-X-X-X-X-X-X-X-X-X-X-X-X-X",
"-X-X-XO r _ & Z :.J D 5 9 r.t A v O -X-X-X-X-X-X-X-X-X-X-X-X-X-X",
"-X-X. s > 6 6.B.i.F # l t.=X=XX.= a @   -X-X-X-X-X-X-X-X-X-X-X-X",
"-X-X-X; O < 8.e.4.W y 6 t =.=.d # I n 7   -X-X-X-X-X-X-X-X-X-X-X",
"-X-X-X    < 2.3.5.( W = + y u , 3 v v 7   -X-X-X-X-X-X-X-X-X-X-X",
"-X-X-X-X  % K 2.8.1.P 5 @ y f f s o       -X-X-X-X-X-X-X-X-X-X-X",
"-X-X-X-X    2 q.w.8.1.P l @ f Y.[..     -X-X-X-X-X-X-X-X-X-X-X-X",
"-X-X-X-X; , : V V m m l 1 . u [ ]     -X-X-X-X-X-X-X-X-X-X-X-X-X",
"-X-X-X  y f u @ . .         > -     -X-X-X-X-X-X-X-X-X-X-X-X-X-X",
"-X-X-X  y f a u y , . -X-X        -X-X-X-X-X-X-X-X-X-X-X-X-X-X-X",
"-X-X-X-XO ; @ @ + + -X-X-X-X-X-X-X-X-X-X-X-X-X-X-X-X-X-X-X-X-X-X",
"-X-X-X-X-X          -X-X-X-X-X-X-X-X-X-X-X-X-X-X-X-X-X-X-X-X-X-X",
"-X-X-X-X-X-X-X-X-X-X-X-X-X-X-X-X-X-X-X-X-X-X-X-X-X-X-X-X-X-X-X-X"
};
