/* XPM */
static char *l6[] = {
/* columns rows colors chars-per-pixel */
"32 32 203 2 ",
"   c #010201",
".  c #030B03",
"X  c #080805",
"o  c #0B0A09",
"O  c #0C0506",
"+  c #120A06",
"@  c #130C0A",
"#  c #100705",
"$  c #031104",
"%  c #021608",
"&  c #041D0A",
"*  c #021804",
"=  c #1D1A18",
"-  c #1A130F",
";  c #321C16",
":  c #251C0D",
">  c #052D0C",
",  c #092B08",
"<  c #092308",
"1  c #10280A",
"2  c #0C3D0C",
"3  c #0A350C",
"4  c #14300C",
"5  c #1A201D",
"6  c #083A12",
"7  c #073311",
"8  c #183C13",
"9  c #383904",
"0  c #2A2A14",
"q  c #352A14",
"w  c #3B2116",
"e  c #2D3114",
"r  c #373111",
"t  c #293108",
"y  c #342B22",
"u  c #312720",
"i  c #383025",
"p  c #452614",
"a  c #5A331B",
"s  c #4A381F",
"d  c #65381E",
"f  c #512E24",
"g  c #49362C",
"h  c #6F3C21",
"j  c #0C410C",
"k  c #11490F",
"l  c #0C4D14",
"z  c #0A4816",
"x  c #184711",
"c  c #0D5516",
"v  c #0B5C1D",
"b  c #0B5619",
"n  c #145515",
"m  c #195A16",
"M  c #214F1B",
"N  c #245B17",
"B  c #0C611C",
"V  c #1D6116",
"C  c #13631C",
"Z  c #236C19",
"A  c #26721B",
"S  c #2A791D",
"D  c #367A17",
"F  c #3F5E2C",
"G  c #3A4227",
"H  c #0D6321",
"J  c #0F6A22",
"K  c #0F7527",
"L  c #0F7A29",
"P  c #0F7728",
"I  c #107325",
"U  c #127927",
"Y  c #117B29",
"T  c #1D7A28",
"R  c #404000",
"E  c #564F1D",
"W  c #43471E",
"Q  c #624B1A",
"!  c #65711E",
"~  c #7D7D1D",
"^  c #4A5422",
"/  c #5E4D3B",
"(  c #7D4D2B",
")  c #754423",
"_  c #6A5625",
"`  c #705633",
"'  c #6E5629",
"]  c #556032",
"[  c #4D662D",
"{  c #7E6030",
"}  c #55484B",
"|  c #6B5F54",
" . c #5C7847",
".. c #7C684F",
"X. c #7E6A51",
"o. c #437476",
"O. c #885E1A",
"+. c #98711E",
"@. c #865832",
"#. c #8A673C",
"$. c #917135",
"%. c #A47F2C",
"&. c #A3773D",
"*. c #876647",
"=. c #976D4A",
"-. c #A27942",
";. c #8A7D67",
":. c #1C8629",
">. c #2B8120",
",. c #228A29",
"<. c #2A8824",
"1. c #368A23",
"2. c #378A23",
"3. c #2A9129",
"4. c #3B9625",
"5. c #379827",
"6. c #3EA129",
"7. c #77B819",
"8. c #429A2A",
"9. c #788136",
"0. c #41A429",
"q. c #46A62B",
"w. c #67A12D",
"e. c #7ABB21",
"r. c #58874B",
"t. c #609857",
"y. c #728C79",
"u. c #A38314",
"i. c #AD873B",
"p. c #B78E3A",
"a. c #B39037",
"s. c #9DB325",
"d. c #BFA22E",
"f. c #CEB912",
"g. c #D1BC14",
"h. c #C2AC16",
"j. c #C5A92A",
"k. c #CCB523",
"l. c #C8A537",
"z. c #D5B82F",
"x. c #E5BF3E",
"c. c #BFD90D",
"v. c #ADCD11",
"b. c #D0C008",
"n. c #D5C21E",
"m. c #E1CE18",
"M. c #E6D617",
"N. c #ECE905",
"B. c #F5F306",
"V. c #FDFC08",
"C. c #F4EB10",
"Z. c #F3EC0A",
"A. c #D5C139",
"S. c #EACF2D",
"D. c #E6D322",
"F. c #A98249",
"G. c #AF8345",
"H. c #B18545",
"J. c #B38845",
"K. c #B1934F",
"L. c #87807F",
"P. c #9B876C",
"I. c #A58C6C",
"U. c #B79365",
"Y. c #C59849",
"T. c #CAA344",
"R. c #D2A04C",
"E. c #DBAA50",
"W. c #D9A752",
"Q. c #D4BD4B",
"!. c #C6A378",
"~. c #D7BA70",
"^. c #3F5C9F",
"/. c #3D5BA0",
"(. c #2398B3",
"). c #7CC4CC",
"_. c #918D95",
"`. c #AE9D91",
"'. c #A09585",
"]. c #B1A093",
"[. c #BBB0AF",
"{. c #CDAE85",
"}. c #CBB08C",
"|. c #D1B38A",
" X c #DCBC93",
".X c #9DC2A7",
"XX c #A7C0AE",
"oX c #AFD8BA",
"OX c #E5C69E",
"+X c #F5DE93",
"@X c #E9CCA4",
"#X c #E4C9A1",
"$X c #EED4AA",
"%X c #F1D6AC",
"&X c #F8DDB4",
"*X c #FEE5BC",
"=X c #FCE6A5",
"-X c #D1C4C3",
";X c #E5DBCC",
":X c #FFF0D1",
">X c #CFD7E9",
",X c #FFF7E4",
"<X c #489848",
/* pixels */
"<X<X<X<X<X<X<X<X<X<X<X<X<X<X<X<X<X<X<X<X<X<X<X<X<X<X<X<X<X<X<X<X",
"<X<X<X<X<X<X<X<X<X<X<X<X<X<X<X<X<X<X<X<X<X<X<X<X<X<X<X<X<X<X<X<X",
"<X<X<X<X<X<Xi.i.$._ T c V 0.0.3.Y <X<X<X<X<X<X<X<X<X<X<X<X<X<X<X",
"<X<X<X-.Y.x.Z.B.k.$.8.V V 0.0.6.6.0.:.B j <X<X<X<X<X<X<X<X<X<X<X",
"<X<XG.g.D.D.k.k.l.K.q.V V 0.0.0.0.0.5.<.S Y c j j <X<X<X<X<X<X<X",
"<Xi.d.M.C.D.J.G.l.A.7.D Z 1.0.0.0.0.0.0.6.,.B l c <X<X<X<X<X<X<X",
"h u.N.p.Y.E.W.W.S.V.V.e.S k 5.0.6.0.0.0.0.6.,.P I l <X<X<X<X<X<X",
"<XO.+.Y.Y.J.H.H.n.B.d.w.>.k 5.S n m 2.0.6.:.:.L U I 6   <X<X<X<X",
"<X<X) R.@.` U.U.l.k.i.s.7.V S A A A <.3.,.Y L L Y Y v > <X<X<X<X",
"<X<X<X<X  y |. X!.F.a.n.c.3.c A 5.5.:.Y Y Y Y Y Y L L H . <X<X<X",
"<X<X<X<X  y }.&X@X~.B.j.9.:.L v n Y Y Y Y Y Y Y L Y :.H . <X<X<X",
"<X<X<X<X  : *.} P.+XV.j.#.^ n B B c c c c c 6 7 c c J K b & <X<X",
"<X<X<X<Xi g } } '.=XD.l.&.h [ r.t. .m 2 2 , $ $ , , l J J > . <X",
"<X<X<X  X.]./.>X,X%XF.T.p.( !.$X*X$X[ 3 3 . <X<X    < 2 6 2 <   ",
"<X<X<X  *.]./.>X,X$X@.g.f.( OX*X$XK.0 . . <X<X<X<X<X. . . . . <X",
"<X<X<X<XW | _.;X:X@X( g.M.F.).[.U.s @   <X<X<X<X<X<X<X<X<X<X<X<X",
"<X<X<X<X<Xy I.#X&XOX=.h.n.Q.(.o.' 0 r 9 <X<X<X<X<X<X<X<X<X<X<X<X",
"<X<X<X<X<X<X@ I.|.{.{.*.u.N.t . q Y.M.N.<X<X<X<X<X<X<X<X<X<X<X<X",
"<X<X<X<X<X<X<Xu G F ^ 0 Q z.: * 4 q p N <X<X<X<X<X<X<X<X<X<X<X<X",
"<X<X<X<X<X<X<X> j v b 7 e ` 8 z j O O <X<X<X<X<X<X<X<X<X<X<X<X<X",
"<X<X<X<X<X<X% H :.L J b 3 * H P B . <X<X<X<X<X<X<X<X<X<X<X<X<X<X",
"<X<X<X<X  & J L L J % b L B & z H   <X<X<X<X<X<X<X<X<X<X<X<X<X<X",
"<X<X<X<X  t v.! ^ W . y.oXXX5 0 ^ l & <X<X<X<X<X<X<X<X<X<X<X<X<X",
"<X<X<X<X  t c.~ _ E X L.-X[.= r [ U &   <X<X<X<X<X<X<X<X<X<X<X<X",
"<X<X<X<X  1 4.8.0.2.. w f f O N 5.I &   <X<X<X<X<X<X<X<X<X<X<X<X",
"<X<X<X<X  . 1 2.q.2.X p d a + N 2.& <X<X<X<X<X<X<X<X<X<X<X<X<X<X",
"<X<X<X<X<X    8 M x . ..U.=.= 1 x <X<X<X<X<X<X<X<X<X<X<X<X<X<X<X",
"<X<X<X<X<X<X  # + O   ;.}.P.=     <X<X<X<X<X<X<X<X<X<X<X<X<X<X<X",
"<X<X<X<X<X<X  a a w O o @ o   <X<X<X<X<X<X<X<X<X<X<X<X<X<X<X<X<X",
"<X<X<X<X<X<X  a h d w @     <X<X<X<X<X<X<X<X<X<X<X<X<X<X<X<X<X<X",
"<X<X<X<X<X<X  w p p ; @     <X<X<X<X<X<X<X<X<X<X<X<X<X<X<X<X<X<X",
"<X<X<X<X<X<X<X        <X<X<X<X<X<X<X<X<X<X<X<X<X<X<X<X<X<X<X<X<X"
};
