/* XPM */
static char *l7[] = {
/* columns rows colors chars-per-pixel */
"32 32 204 2 ",
"   c #010201",
".  c #020B03",
"X  c #0C0A06",
"o  c #08080A",
"O  c #140B09",
"+  c #031405",
"@  c #071907",
"#  c #14110E",
"$  c #1C120A",
"%  c #16190C",
"&  c #161610",
"*  c #23140D",
"=  c #2B1F0D",
"-  c #2D1914",
";  c #271511",
":  c #351C15",
">  c #062A0B",
",  c #062408",
"<  c #0A330B",
"1  c #0C3E0C",
"2  c #073908",
"3  c #0E2D11",
"4  c #083815",
"5  c #172B11",
"6  c #3C3C02",
"7  c #232E10",
"8  c #392314",
"9  c #3B3011",
"0  c #2F3311",
"q  c #392C24",
"w  c #3A332A",
"e  c #393538",
"r  c #2D3426",
"t  c #47271F",
"y  c #502D1F",
"u  c #5C341C",
"i  c #543E1F",
"p  c #423E19",
"a  c #6D3D1E",
"s  c #492A20",
"d  c #5A3823",
"f  c #503B31",
"g  c #623720",
"h  c #0C410D",
"j  c #0B480F",
"k  c #114A0F",
"l  c #0D4C11",
"z  c #0B4417",
"x  c #124613",
"c  c #0C5316",
"v  c #0C551B",
"b  c #0D5C19",
"n  c #135213",
"m  c #165B18",
"M  c #265C18",
"N  c #39531E",
"B  c #0E641E",
"V  c #0F681F",
"C  c #1E6216",
"Z  c #13661D",
"A  c #246C19",
"S  c #216315",
"D  c #29771D",
"F  c #31791F",
"G  c #0C5E20",
"H  c #125D20",
"J  c #3B5229",
"K  c #2E482A",
"L  c #0F6D22",
"P  c #0C6020",
"I  c #176923",
"U  c #0F7426",
"Y  c #0F7A29",
"T  c #117525",
"R  c #107B29",
"E  c #147A27",
"W  c #2A732E",
"Q  c #4B4C1F",
"!  c #697C08",
"~  c #4C4F21",
"^  c #555324",
"/  c #56463B",
"(  c #4F5323",
")  c #774626",
"_  c #6A5021",
"`  c #785529",
"'  c #674B27",
"]  c #486328",
"[  c #5E6123",
"{  c #4F6E3B",
"}  c #6D602E",
"|  c #233A53",
" . c #20614D",
".. c #594B45",
"X. c #585757",
"o. c #725B49",
"O. c #5D7747",
"+. c #796954",
"@. c #7E715D",
"#. c #6B6648",
"$. c #79706F",
"%. c #6C726D",
"&. c #865B17",
"*. c #9B7716",
"=. c #8C5B28",
"-. c #885C3B",
";. c #8D6320",
":. c #96692E",
">. c #926130",
",. c #866233",
"<. c #A87A3C",
"1. c #876744",
"2. c #9F7541",
"3. c #9D7251",
"4. c #8E6C4B",
"5. c #A37A4B",
"6. c #1A8429",
"7. c #1F8829",
"8. c #298825",
"9. c #318420",
"0. c #358D24",
"q. c #2C9229",
"w. c #27922A",
"e. c #389A27",
"r. c #3EA128",
"t. c #4B8F18",
"y. c #6DB31E",
"u. c #499428",
"i. c #478030",
"p. c #41A429",
"a. c #48A629",
"s. c #AC8E19",
"d. c #92BC10",
"f. c #B5A90E",
"g. c #A5882C",
"h. c #BD9E2F",
"j. c #AA853B",
"k. c #A0853C",
"l. c #B49137",
"z. c #AB9434",
"x. c #9FBD2E",
"c. c #BFA12D",
"v. c #B2BF30",
"b. c #C7A727",
"n. c #D2B62F",
"m. c #E5BF3E",
"M. c #9AC717",
"N. c #88C116",
"B. c #D6C60C",
"V. c #D7C51D",
"C. c #E4D518",
"Z. c #D9E90A",
"A. c #EDE40E",
"S. c #EBE903",
"D. c #F2ED09",
"F. c #F2EC03",
"G. c #FCF905",
"H. c #F5E912",
"J. c #E9C92C",
"K. c #E7D221",
"L. c #AE8448",
"P. c #B48A42",
"I. c #B89155",
"U. c #988A7A",
"Y. c #989576",
"T. c #A6977C",
"R. c #BC9B75",
"E. c #B79875",
"W. c #B69468",
"Q. c #9AB06F",
"!. c #BDA27E",
"~. c #C59848",
"^. c #DBAC4D",
"/. c #D9AF44",
"(. c #DCB241",
"). c #C29D77",
"_. c #C4A07B",
"`. c #E3CF4A",
"'. c #FBEC5F",
"]. c #F4E173",
"[. c #757A95",
"{. c #617BB5",
"}. c #0C8BBA",
"|. c #7CCEDB",
" X c #ABA5A8",
".X c #C6B48B",
"XX c #D4B486",
"oX c #CBB595",
"OX c #DABA91",
"+X c #CAAC85",
"@X c #C1B3B1",
"#X c #A9CBAF",
"$X c #E2C298",
"%X c #D8C5A9",
"&X c #F9DEB4",
"*X c #F7DDB4",
"=X c #F3D8AF",
"-X c #FEE5BC",
";X c #C8DCCC",
":X c #FFEECE",
">X c #FFECC7",
",X c #FBEED8",
"<X c #F8F8F9",
"1X c #489848",
/* pixels */
"1X1X1X1X1X1X1X1X1X1X1X1X1X1X1X1X1X1X1X1X1X1X1X1X1X1X1X1X1X1X1X1X",
"1X1X1X1X1X1X1X1X1X1X1X1X1X1X1X1X1X1X1X1X1X1X1X1X1X1X1X1X1X1X1X1X",
"1X1X1X1X1X1Xj.;.] E j 9.a.r.7.6.1X1X1X1X1X1X1X1X1X1X1X1X1X1X1X1X",
"1X1X1X2.~.m.D.F.M.0.k 9.p.r.r.r.e.6.1X1X1X1X1X1X1X1X1X1X1X1X1X1X",
"1X1Xj.V.K.K.n.J.x.8.j 9.p.p.p.p.r.w.6.B 1X1X1X1X1X1X1X1X1X1X1X1X",
"1Xl.h.C.H.K.L.m.v.y.S D e.p.p.p.p.p.w.I l 1X1X1X1X1X1X1X1X1X1X1X",
"2.b.D.l.~.^.^.H.G.Z.a.C C p.p.r.r.p.p.q.U l 1X1X1X1X1X1X1X1X1X1X",
") s.G./.<.>.j.A.C.z.a.C S e.C n A r.p.q.R L c h 1X1X1X1X1X1X1X1X",
"1X*.f.~.L.3.W.n.b.k.M.t.D D A A D w.w.7.R R c 1 1X1X1X1X1X1X1X1X",
"1X1X) ,.W.OXOXW.L.c.A.y.D c 0.e.q.R Y R R R b j 1X1X1X1X1X1X1X1X",
"1X1X1XO +.$X*XOX`.A.l.i.Y U l I 6.Y Y Y R R Y V h 1X1X1X1X1X1X1X",
"1X1X1X  d -...oX'.F.j.} N c h j b Y 6.R R R R V h 1X1X1X1X1X1X1X",
"1X1X1Xf / ..X.%X].V.l.>.' { O.O.O.P b v v V U L h 1X1X1X1X1X1X1X",
"1X1X# R.[.{.<X:XXXj.^.:.-.OX&X-X.Xj .   . < V V h . 1X1X1X1X1X1X",
"1X1X# !.[.{.<X:X).;.A.*.3.&X-XXX1.@ 1X1X1X. < k 1 . 1X1X1X1X1X1X",
"1X1X# / %. X,X>XR.&.F.b.T.|..X1.8   1X1X1X1X@ > 1 . 1X1X1X1X1X1X",
"1X1X1X  ..+X=X*X_.:.B.J.Q.}.#.d 0 6 1X1X1X1X1X+ < . 1X1X1X1X1X1X",
"1X1X1X1X  w +XXXXX).` B.f.. . ` n.A.1X1X1X1X1X1X  1X1X1X1X1X1X1X",
"1X1X1X1X1X1Xr J J J $ g.g.  > 7 9 p 1X1X1X1X1X1X1X1X1X1X1X1X1X1X",
"1X1X1X1X1X+ > v l h @ ^ ^ 4 v 3     1X1X1X1X1X1X1X1X1X1X1X1X1X1X",
"1X1X1X1X. > Y U I M x % 3 R R 4 o 1X1X1X1X1X1X1X1X1X1X1X1X1X1X1X",
"1X1X1X  z U Y @ %.;X6.~ ~ E R  .|   1X1X1X1X1X1X1X1X1X1X1X1X1X1X",
"1X1X1X  ! N.E + q  X#X4.^ E ] r e U.r 1X1X1X1X1X1X1X1X1X1X1X1X1X",
"1X1X1X  ! d.n * ; .. X+.p A [ 0 K +Xr 1X1X1X1X1X1X1X1X1X1X1X1X1X",
"1X1X    z I & u g s s $ 7 _ u.q.G . 1X1X1X1X1X1X1X1X1X1X1X1X1X1X",
"1X1Xo : % w oX-.a u O M i.u.p.w.G     1X1X1X1X1X1X1X1X1X1X1X1X1X",
"1X1X  * ; q @.E.1.= , F p.r.M x 3 8 X   1X1X1X1X1X1X1X1X1X1X1X1X",
"1X1X1X  ; - X Y.+.  < A 0.F %   ; a $   1X1X1X1X1X1X1X1X1X1X1X1X",
"1X1X1X1X      O o       o X : t y a $   1X1X1X1X1X1X1X1X1X1X1X1X",
"1X1X1X1X1X1X1X1X1X1X1X  O : y d u * 1X1X1X1X1X1X1X1X1X1X1X1X1X1X",
"1X1X1X1X1X1X1X1X1X1X1X1XO - - 8 8   1X1X1X1X1X1X1X1X1X1X1X1X1X1X",
"1X1X1X1X1X1X1X1X1X1X1X1X1X        1X1X1X1X1X1X1X1X1X1X1X1X1X1X1X"
};
