/* XPM */
static char *l8[] = {
/* columns rows colors chars-per-pixel */
"32 32 203 2 ",
"   c #010101",
".  c #0B0605",
"X  c #030C05",
"o  c #0C0903",
"O  c #0B0A08",
"+  c #040609",
"@  c #120B06",
"#  c #140D0A",
"$  c #1B0E0A",
"%  c #041504",
"&  c #0B1D08",
"*  c #061707",
"=  c #1A180C",
"-  c #191B13",
";  c #25180D",
":  c #2A1B14",
">  c #291612",
",  c #341D16",
"<  c #361E18",
"1  c #092D09",
"2  c #06250A",
"3  c #17290D",
"4  c #0C370B",
"5  c #082B10",
"6  c #193416",
"7  c #25261C",
"8  c #38231C",
"9  c #252E0C",
"0  c #0F1A26",
"q  c #0D3127",
"w  c #2C2724",
"e  c #3E352C",
"r  c #45261E",
"t  c #492919",
"y  c #512D16",
"u  c #513117",
"i  c #58361C",
"p  c #4C3C1B",
"a  c #683A1D",
"s  c #4C2A20",
"d  c #462921",
"f  c #5A3221",
"g  c #4E3B30",
"h  c #653920",
"j  c #723F21",
"k  c #0C450E",
"l  c #11490F",
"z  c #0A4411",
"x  c #0D4A12",
"c  c #094B1A",
"v  c #144C11",
"b  c #154414",
"n  c #0E5416",
"m  c #0E5817",
"M  c #0D551A",
"N  c #1A5B14",
"B  c #264F15",
"V  c #0D641D",
"C  c #12641D",
"Z  c #1E6719",
"A  c #256918",
"S  c #2A751C",
"D  c #297A1D",
"F  c #30791E",
"G  c #185327",
"H  c #2A5332",
"J  c #0D6D23",
"K  c #0E6422",
"L  c #156722",
"P  c #0F7225",
"I  c #0E7B29",
"U  c #107B29",
"Y  c #157527",
"T  c #296B26",
"R  c #3B6E34",
"E  c #306E27",
"W  c #535200",
"Q  c #57730A",
"!  c #757500",
"~  c #405428",
"^  c #534431",
"/  c #6C4521",
"(  c #7D4C29",
")  c #744424",
"_  c #645622",
"`  c #68513A",
"'  c #7C5334",
"]  c #634730",
"[  c #487824",
"{  c #7B7A3D",
"}  c #24374A",
"|  c #254145",
" . c #256A69",
".. c #4D5149",
"X. c #665A49",
"o. c #75634A",
"O. c #7D705F",
"+. c #7F6B52",
"@. c #4D5174",
"#. c #7E6E63",
"$. c #82551E",
"%. c #8F6C17",
"&. c #80502D",
"*. c #865731",
"=. c #8F6123",
"-. c #996B3B",
";. c #A17939",
":. c #977141",
">. c #857057",
",. c #A57B42",
"<. c #897B65",
"1. c #34881E",
"2. c #198028",
"3. c #238B29",
"4. c #288D28",
"5. c #2A8325",
"6. c #348C22",
"7. c #338521",
"8. c #2C9429",
"9. c #399525",
"0. c #3C9A26",
"q. c #379023",
"w. c #3D8432",
"e. c #3DA129",
"r. c #7D8604",
"t. c #5AA019",
"y. c #74A010",
"u. c #528426",
"i. c #479728",
"p. c #699D31",
"a. c #41A429",
"s. c #42A82A",
"d. c #5EAB2A",
"f. c #7CB924",
"g. c #6B8D6D",
"h. c #6EAD7D",
"j. c #8A8F15",
"k. c #A3A200",
"l. c #B08F2A",
"z. c #AD883B",
"x. c #B79339",
"c. c #AF892F",
"v. c #9EB421",
"b. c #C8B719",
"n. c #C29C2E",
"m. c #C2A52C",
"M. c #CDB626",
"N. c #D2BB25",
"B. c #C9A936",
"V. c #A2D010",
"C. c #D2C20A",
"Z. c #D5C11F",
"A. c #C7C71B",
"S. c #E3D910",
"D. c #E8E50B",
"F. c #F7F10A",
"G. c #FCF907",
"H. c #F2E217",
"J. c #FEFB10",
"K. c #F2EC07",
"L. c #DDD02B",
"P. c #F2DD23",
"I. c #E9CC2F",
"U. c #928658",
"Y. c #B68846",
"T. c #BD9B59",
"R. c #B08B4F",
"E. c #A7966E",
"W. c #AC916C",
"Q. c #A2AB78",
"!. c #C08E46",
"~. c #C69F43",
"^. c #C89F42",
"/. c #CEAB4F",
"(. c #E1B547",
"). c #C09E78",
"_. c #C7A479",
"`. c #E2C77C",
"'. c #3D5CA2",
"]. c #4B639E",
"[. c #75A8A2",
"{. c #40BDDF",
"}. c #91939D",
"|. c #AA9984",
" X c #BDA88D",
".X c #AFA88B",
"XX c #AFB0A9",
"oX c #D4B289",
"OX c #CDB693",
"+X c #B0C08B",
"@X c #D9C09D",
"#X c #E1C397",
"$X c #FFE99E",
"%X c #D5C8AF",
"&X c #EACCA4",
"*X c #F3DBB7",
"=X c #F2D7A7",
"-X c #F7E2BA",
";X c #D5D1D0",
":X c #FFEBC6",
">X c #D1D8E8",
",X c #FFF7E2",
"<X c #489848",
/* pixels */
"<X<X<X<X<X<X;.( E J z 7.e.a.s.4.I <X<X<X<X<X<X<X<X<X<X<X<X<X<X<X",
"<X<X<X<X<XY.Y.c.j.t.A D 6.a.a.8.3.<X<X<X<X<X<X<X<X<X<X<X<X<X<X<X",
"<X<X<X<Xz.x.(.D.F.D.d.A Z 0.e.a.a.a.3.C l <X<X<X<X<X<X<X<X<X<X<X",
"<X<X<X,.N.F.F.n.~.(./.p.D N 9.s.a.e.e.4.J x <X<X<X<X<X<X<X<X<X<X",
"<X<Xc.N.N.N.I.x.B.P.P.f.1.l 9.s.a.a.a.8.P k <X<X<X<X<X<X<X<X<X<X",
"<X<X;.K.N.Y.!.,.M.G.D.f.5.l 9.9.6.6.a.8.P n x <X<X<X<X<X<X<X<X<X",
"<X<X$.D.I.!.&.-.M.K.c.p.1.l 9.S l v 6.8.U U n k <X<X<X<X<X<X<X<X",
"<X<X<X=.=.,.W._.T.c.z.A.V.1.N D q.6.3.U U U m 1   <X<X<X<X<X<X<X",
"<X<X<Xj y ] oX&XoX/.B.Z.v.8.V Z D 8.2.I I I m 1   <X<X<X<X<X<X<X",
"<X<X<X) > w ).OXOX`.J.m.+.5.U m n J I I I I m 1   <X<X<X<X<X<X<X",
"<X<X<X<X  = ) > #.$XJ.m.Y.~.B C C n P I U U m 1   <X<X<X<X<X<X<X",
"<X<X<X  ` #.@.}.%X=XB.B.!.-.U.Q.+XQ.R V U U m 1   <X<X<X<X<X<X<X",
"<X<X<X  >..X'.>X,X=X:.B.n.&.oX=X-X#X~ z J I x &   <X<X<X<X<X<X<X",
"<X<X<X  o.|.'.>X,X&X$.C.b.*.%X-X#X:.: * z P 5   <X<X<X<X<X<X<X<X",
"<X<X<X<X$ g  X*X:X&X&.b.H.~.{.[.-.;     * P 5   <X<X<X<X<X<X<X<X",
"<X<X<X<X<Xw X.OX&X@XW.l.b.I. .} ^ o.j.W X n 2   <X<X<X<X<X<X<X<X",
"<X<X<X<X<X<XO >.W.E.E.` %.S.9   7 W.v.%.  1 *   <X<X<X<X<X<X<X<X",
"<X<X<X<X<X<X<Xo 3 v b % p ~.; 2 4 o o % + + <X<X<X<X<X<X<X<X<X<X",
"<X<X<X<X<X<Xo k.y.V k % 3 w.K K A u @ 0 } + <X<X<X<X<X<X<X<X<X<X",
"<X<X<X<X<X& B r.Q G g.H b E U 2.T / 9 q } X.e <X<X<X<X<X<X<X<X<X",
"<X<X@ . O 3 6.3 . w ;Xh.R i T Y E _ E M 7 OX^ + <X<X<X<X<X<X<X<X",
"  ; a r f s @ u i r ] XXXXO i / _ i.e.4.K 5 +   <X<X<X<X<X<X<X<X",
"  $ i s , d |.*.h h s ....M [ u.u.s.8.K 5 : #     <X<X<X<X<X<X<X",
"  # , d > e |.,.' y < - z 3.e.s.0.D T 6 $ d , $   <X<X<X<X<X<X<X",
"<X<X. 8 r < #  X<.    c 2.i.0.0.F X < r r s h y   <X<X<X<X<X<X<X",
"<X<X<X@ . . <Xw 7 <X  X * & & & & <X. . # r h y   <X<X<X<X<X<X<X",
"<X<X<X<X<X<X<X<X<X<X<X<X<X<X<X<X<X<X<X  . r f r   <X<X<X<X<X<X<X",
"<X<X<X<X<X<X<X<X<X<X<X<X<X<X<X<X<X<X<X<X. < < :   <X<X<X<X<X<X<X",
"<X<X<X<X<X<X<X<X<X<X<X<X<X<X<X<X<X<X<X<X<X    . <X<X<X<X<X<X<X<X",
"<X<X<X<X<X<X<X<X<X<X<X<X<X<X<X<X<X<X<X<X<X<X<X<X<X<X<X<X<X<X<X<X",
"<X<X<X<X<X<X<X<X<X<X<X<X<X<X<X<X<X<X<X<X<X<X<X<X<X<X<X<X<X<X<X<X",
"<X<X<X<X<X<X<X<X<X<X<X<X<X<X<X<X<X<X<X<X<X<X<X<X<X<X<X<X<X<X<X<X"
};
