/* XPM */
static char *l9[] = {
/* columns rows colors chars-per-pixel */
"32 32 202 2 ",
"   c #010101",
".  c #0A0604",
"X  c #020B03",
"o  c #0B0A04",
"O  c #090A08",
"+  c #120D0A",
"@  c #170D08",
"#  c #041405",
"$  c #0B1D08",
"%  c #061A08",
"&  c #1E130B",
"*  c #13160C",
"=  c #041F10",
"-  c #1B1612",
";  c #251A0E",
":  c #221B14",
">  c #291913",
",  c #371E18",
"<  c #351D17",
"1  c #0B260A",
"2  c #072808",
"3  c #10290B",
"4  c #0B340B",
"5  c #0C3E0D",
"6  c #133611",
"7  c #292517",
"8  c #3C221B",
"9  c #372617",
"0  c #242F06",
"q  c #0F1B27",
"w  c #262429",
"e  c #312821",
"r  c #462818",
"t  c #532D1A",
"y  c #59391C",
"u  c #4C3C1B",
"i  c #64391C",
"p  c #482920",
"a  c #5D3421",
"s  c #553021",
"d  c #493E33",
"f  c #5B3D35",
"g  c #0A430D",
"h  c #11490F",
"j  c #0C4612",
"k  c #0A4A16",
"l  c #134C11",
"z  c #184513",
"x  c #0E5315",
"c  c #0C541C",
"v  c #0E5C1B",
"b  c #155514",
"n  c #0F641E",
"m  c #1E6618",
"M  c #236819",
"N  c #29751B",
"B  c #28781C",
"V  c #185227",
"C  c #34542A",
"Z  c #0F6B21",
"A  c #0B6521",
"S  c #176622",
"D  c #0E7426",
"F  c #0E7A29",
"G  c #107325",
"H  c #107B29",
"J  c #137627",
"K  c #3A6325",
"L  c #2B792B",
"P  c #3F6F35",
"I  c #34712D",
"U  c #7E7A00",
"Y  c #435827",
"T  c #55493D",
"R  c #7D4C2A",
"E  c #744426",
"W  c #68503A",
"Q  c #7A5D3E",
"!  c #73582B",
"~  c #487824",
"^  c #7B7A3D",
"/  c #233749",
"(  c #254145",
")  c #256A69",
"_  c #4D5149",
"`  c #655642",
"'  c #7F6B52",
"]  c #7D705F",
"[  c #76634C",
"{  c #4D5174",
"}  c #7E6E63",
"|  c #916E19",
" . c #80502D",
".. c #855936",
"X. c #996D3A",
"o. c #9A7130",
"O. c #9A7243",
"+. c #867057",
"@. c #A37942",
"#. c #A97D43",
"$. c #34881E",
"%. c #1B8128",
"&. c #228B29",
"*. c #2B8723",
"=. c #348B22",
"-. c #308420",
";. c #2A9129",
":. c #399525",
">. c #3C9926",
",. c #329628",
"<. c #3D8432",
"1. c #3CA129",
"2. c #458517",
"3. c #659F17",
"4. c #418E28",
"5. c #798021",
"6. c #699D31",
"7. c #41A429",
"8. c #45A528",
"9. c #58A12F",
"0. c #7CB924",
"q. c #6B8D6D",
"w. c #6EAD7D",
"e. c #929200",
"r. c #8A830C",
"t. c #AE8E18",
"y. c #B08F2A",
"u. c #AB853D",
"i. c #AD883A",
"p. c #B89438",
"a. c #B28E39",
"s. c #9EB421",
"d. c #BEA02F",
"f. c #C7B513",
"g. c #C29C2E",
"h. c #C4AA29",
"j. c #C3A62B",
"k. c #CCB526",
"l. c #CAA839",
"z. c #D3AD3F",
"x. c #D4B238",
"c. c #E1BB3E",
"v. c #A2D010",
"b. c #BFD509",
"n. c #CDCE00",
"m. c #D2C20A",
"M. c #D7C31E",
"N. c #C7C71B",
"B. c #E3D910",
"V. c #ECE40D",
"C. c #FAF607",
"Z. c #FEFB10",
"A. c #F4E810",
"S. c #DDD02B",
"D. c #D8C123",
"F. c #F3DE22",
"G. c #9B8440",
"H. c #B48846",
"J. c #BE904A",
"K. c #BD9B59",
"L. c #B18749",
"P. c #BDA34B",
"I. c #939760",
"U. c #A8946E",
"Y. c #BF9A72",
"T. c #AB906A",
"R. c #A2A977",
"E. c #C69848",
"W. c #D8AB49",
"Q. c #DEB149",
"!. c #D8A851",
"~. c #C5A553",
"^. c #C09E78",
"/. c #C7A479",
"(. c #E2C77C",
"). c #3D5CA2",
"_. c #4B639E",
"`. c #75A8A2",
"'. c #40BDDF",
"]. c #91939D",
"[. c #A59588",
"{. c #BAA68B",
"}. c #B1AB8D",
"|. c #A0A6A0",
" X c #BDBAB2",
".X c #D5B289",
"XX c #D0B692",
"oX c #ACC08A",
"OX c #D9C09D",
"+X c #E1C39A",
"@X c #E0C294",
"#X c #FFE99E",
"$X c #D5C8AF",
"%X c #EACCA4",
"&X c #F3DBB7",
"*X c #F2D7A7",
"=X c #F7E2BB",
"-X c #D5D1D0",
";X c #FFEBC6",
":X c #D1D8E8",
">X c #FFF7E2",
",X c #489848",
/* pixels */
",X,X,X,X,X,XO.R Y D g $.1.8.8.;.F H ,X,X,X,X,X,X,X,X,X,X,X,X,X,X",
",X,X,X,X,Xz.h.t.5.P M B :.1.1.,.%.&.%.,X,X,X,X,X,X,X,X,X,X,X,X,X",
",X,X,Xu.E.c.C.C.D.G.9.M m >.1.7.8.1.%.%.,X,X,X,X,X,X,X,X,X,X,X,X",
",X,Xi.V.k.u.a.W.Q.!.~.6.-.b :.8.8.1.1.;.G j ,X,X,X,X,X,X,X,X,X,X",
",Xg.k.h.l.E.E.J.x.F.F.0.*.h :.7.8.1.7.,.F n x ,X,X,X,X,X,X,X,X,X",
"#.h.C.g.E.!.E.#.f.C.A.0.*.l :.:.=.,.:.&.H H n k ,X,X,X,X,X,X,X,X",
"@.h.C.c.!.E.R O.k.V.i.6.$.h =.N h h G H H H H c   ,X,X,X,X,X,X,X",
",X| o.#.#.L.^.^.~.p.@.N.v.$.m B *.G J H H H H c   ,X,X,X,X,X,X,X",
",X,XE @.! Q .X%X.XK.k.M.s.*.l m ;.H H H H H H v % X ,X,X,X,X,X,X",
",X,X,X,X  e Y.XXOX@XC.j.^ L b n D H H H H H H Z g X ,X,X,X,X,X,X",
",X,X,X,X  - E : ] #XZ.d.H.~.L v c H H H H H H Z 5 X ,X,X,X,X,X,X",
",X,X,X  ` } { ].$X*Xl.l.H.X.I.R.}.}.I x v F H Z 5 X ,X,X,X,X,X,X",
",X,X,X  +.{.).:X>X*X@.l.g.R .X*X=X@XC 2 4 n D Z g X ,X,X,X,X,X,X",
",X,X,X  [ [._.:X>X%X .m.m. .$X;X@XG.;   X 4 n Z 5 X ,X,X,X,X,X,X",
",X,X,X,X+ d {.&X;X%XR f.A.~.'.`.O.; X   ,XX c Z 5 X ,X,X,X,X,X,X",
",X,X,X,X,X7 ` XX%X+XT.y.f.S.) / u ! r.e.,X  5 k % X ,X,X,X,X,X,X",
",X,X,X,X,X,XO +.U.U.U.W | V.;   7 i.f.n.,X  2 2   ,X,X,X,X,X,X,X",
",X,X,X,X,X,X,XO 3 l l # u E.; 1 5 o o o ,X,X    ,X,X,X,X,X,X,X,X",
",X,X,X,X,X,XX k A A 5 # 4 <.S A m y @   ,X,X,X,X,X,X,X,X,X,X,X,X",
",X,X,X,X,X$ l 3.2.V q.C j K J N C 9 w q ,X,X,X,X,X,X,X,X,X,X,X,X",
",X,X,X,X  3 8.n.| w -Xw.P y L Y y # / / - ,X,X,X,X,X,X,X,X,X,X,X",
",X,X,X    3 >.0 0 r f  X|.+ y K J Z = T U.- ,X,X,X,X,X,X,X,X,X,X",
",X,XO r 9 7 0 8 t a r _ _ c ~ 4.*.b # - d ,X,X,X,X,X,X,X,X,X,X,X",
",X,X. i a < . [ @...8 - k &.>.:.N 4 * @ & ,X,X,X,X,X,X,X,X,X,X,X",
",X,X. y y , + {.+XU.+ k %.>.7.M 2 . , a i . ,X,X,X,X,X,X,X,X,X,X",
",X,X,X@ < r 8 e e -   X % = $ # X   , a i . ,X,X,X,X,X,X,X,X,X,X",
",X,X,X,X@ ; > .       ,X,X,X,X,X    , s t . ,X,X,X,X,X,X,X,X,X,X",
",X,X,X,X,X          ,X,X,X,X,X,X,X  > 8 < . ,X,X,X,X,X,X,X,X,X,X",
",X,X,X,X,X,X,X,X,X,X,X,X,X,X,X,X,X,X  .   ,X,X,X,X,X,X,X,X,X,X,X",
",X,X,X,X,X,X,X,X,X,X,X,X,X,X,X,X,X,X,X,X,X,X,X,X,X,X,X,X,X,X,X,X",
",X,X,X,X,X,X,X,X,X,X,X,X,X,X,X,X,X,X,X,X,X,X,X,X,X,X,X,X,X,X,X,X",
",X,X,X,X,X,X,X,X,X,X,X,X,X,X,X,X,X,X,X,X,X,X,X,X,X,X,X,X,X,X,X,X"
};
