/* XPM */
static char *r1[] = {
/* columns rows colors chars-per-pixel */
"32 32 189 2 ",
"   c #010201",
".  c #0A0604",
"X  c #030B04",
"o  c #0B0907",
"O  c #0D0B0A",
"+  c #110C0B",
"@  c #1A0E0C",
"#  c #110907",
"$  c #031406",
"%  c #0A1A07",
"&  c #161405",
"*  c #19160C",
"=  c #191614",
"-  c #25130C",
";  c #241912",
":  c #3A1F15",
">  c #072507",
",  c #05250A",
"<  c #082A09",
"1  c #0B260B",
"2  c #112D0D",
"3  c #0A390C",
"4  c #08350E",
"5  c #18320B",
"6  c #063D14",
"7  c #2F2312",
"8  c #3C211A",
"9  c #293417",
"0  c #3F3015",
"q  c #242304",
"w  c #372E23",
"e  c #3C3328",
"r  c #42241B",
"t  c #522D1D",
"y  c #553119",
"u  c #4A3B1A",
"i  c #61381D",
"p  c #473C2D",
"a  c #6F3C21",
"s  c #0C4D12",
"d  c #0A4817",
"f  c #154C15",
"g  c #0E5115",
"h  c #0C531C",
"j  c #0D5C1D",
"k  c #135313",
"l  c #155815",
"z  c #1A5A14",
"x  c #0C420C",
"c  c #2A521F",
"v  c #3D460D",
"b  c #0D631C",
"n  c #236C19",
"m  c #2B6E1C",
"M  c #29741C",
"N  c #27781D",
"B  c #27741C",
"V  c #337617",
"C  c #105F20",
"Z  c #2D5023",
"A  c #0F6820",
"S  c #166629",
"D  c #0F7226",
"F  c #0F7B29",
"G  c #107425",
"H  c #117B29",
"J  c #1A7725",
"K  c #327F20",
"L  c #4C510C",
"P  c #6B5F1F",
"I  c #4D4F20",
"U  c #4C4E22",
"Y  c #604A26",
"T  c #764824",
"R  c #6E5426",
"E  c #755435",
"W  c #5A7525",
"Q  c #447727",
"!  c #616022",
"~  c #646D3F",
"^  c #667938",
"/  c #52514F",
"(  c #61564C",
")  c #7E6F5C",
"_  c #74614C",
"`  c #7F7270",
"'  c #636165",
"]  c #966D1F",
"[  c #845434",
"{  c #865A37",
"}  c #82532A",
"|  c #916834",
" . c #9A7649",
".. c #846F55",
"X. c #A47B42",
"o. c #947D60",
"O. c #1B8529",
"+. c #178129",
"@. c #1C8234",
"#. c #248C29",
"$. c #288D28",
"%. c #348521",
"&. c #398E22",
"*. c #309227",
"=. c #3D9C27",
"-. c #369B29",
";. c #3A9E29",
":. c #389626",
">. c #3EA028",
",. c #7BBC1E",
"<. c #409E29",
"1. c #53832B",
"2. c #758838",
"3. c #41A429",
"4. c #42A428",
"5. c #5EA12D",
"6. c #67AE20",
"7. c #70B920",
"8. c #6C8252",
"9. c #6F975C",
"0. c #77A064",
"q. c #A78914",
"w. c #8E9B30",
"e. c #AD873B",
"r. c #B28A36",
"t. c #BE9D30",
"y. c #BA993B",
"u. c #A4802A",
"i. c #C1AA14",
"p. c #D0BB1F",
"a. c #C59F3E",
"s. c #CCB523",
"d. c #C6A339",
"f. c #DAB13E",
"g. c #CCB22A",
"h. c #DCCE09",
"j. c #D7C61B",
"k. c #D1D809",
"l. c #E6DA19",
"z. c #DCE704",
"x. c #EFE70C",
"c. c #F9F706",
"v. c #F0EA0A",
"b. c #D9C622",
"n. c #DCC82D",
"m. c #CBC334",
"M. c #E8D329",
"N. c #E7C537",
"B. c #ECD228",
"V. c #AE8344",
"C. c #B58946",
"Z. c #A1805E",
"A. c #98876F",
"S. c #A28A6C",
"D. c #BB9767",
"F. c #A5947E",
"G. c #C69949",
"H. c #DAA851",
"J. c #D9A652",
"K. c #CCA943",
"L. c #C2A576",
"P. c #D0C36A",
"I. c #415FA3",
"U. c #1582A3",
"Y. c #5FC6E1",
"T. c #928381",
"R. c #AA9B95",
"E. c #9AAB9F",
"W. c #ADAF99",
"Q. c #C4A980",
"!. c #D3AF87",
"~. c #D2B189",
"^. c #DEBF97",
"/. c #B1C5B6",
"(. c #DFCA9E",
"). c #E1C39C",
"_. c #E4C597",
"`. c #FAE395",
"'. c #E7CAA1",
"]. c #EED3AB",
"[. c #F2D7AE",
"{. c #F4DAB1",
"}. c #FEE5BC",
"|. c #EEDFC9",
" X c #D4ECDA",
".X c #FFEECC",
"XX c #D9DFEE",
"oX c #FFF6E0",
"OX c #489848",
/* pixels */
"OXOXOXOXOXOXOXOXOXOXOXOXOXOXOXOXOXOXOXOXOXOXOXOXOXOXOXOXOXOXOXOX",
"OXOXOXOXOXOXOXOXOXOXOXOXOXOXOXOXOXOXOXOXOXOXOXOXOXOXOXOXOXOXOXOX",
"OXOXOXOXOXOXOXOXOXOXOXOXOXOXOX+.#.3.3.n s J P | V.e.OXOXOXOXOXOX",
"OXOXOXOXOXOXOXOXOXOXH F $.3.3.>.>.3.3.n z >.k.p.r.v.N.G.X.OXOXOX",
"OXOXOXOXOXOXOXOXb F F $.-.4.>.4.3.3.4.n l 4.m.M.j.g.a.d.b.e.OXOX",
"OXOXOXOXOXOXOXg b +.O.;.3.3.4.4.3.>.&.n V ,.m.B.l.C.V.s.c.g.X.OX",
"OXOXOXOXOXOXs D F O.>.3.3.3.=.=.>.=.k N ,.c.c.M.H.H.J.N.c.c.q.a ",
"OXOXOXOXOXs G G F F O.-.4.=.z k n =.f N 5.r.v.j.V.V.e.G.f.] OXOX",
"OXOXOXOXd A H H F H H #.#.#.N B B B B 1.w.p.p.K.D.D.R R OXOXOXOX",
"OXOXOX  d H F H H F F F F +.-.:.B k *.2.d.c.G.L.^.~.p   OXOXOXOX",
"OXOXOX  d H H H H F F F F F +.l g G H ^ t.c.P.'.[.!.e   OXOXOXOX",
"OXOXX h D D g g 4 , g g g s s b b k I { t.c.`.S.p { ;   OXOXOXOX",
"OX$ > j b s > > $ X > 3 x f 8.0.9.~ T | a.b.`.W.' / / p OXOXOXOX",
"  $ 3 3 3 <     OXOX  < 3 Z ).}.[.~.[ r.H.X.'.oXXXI.R...  OXOXOX",
"OXOXX X X X OXOXOXOXOXX   *  ._.}.].{ i.h.} ^.oXXXI.R...  OXOXOX",
"OXOXOXOXOXOXOXOXOXOXOXOX  . 7  .W.Y.F.M.h.T ^..X|.R.( e OXOXOXOX",
"OXOXOXOXOXOXOXOXOXOXOXOXOXL p Y / U.P.n.i. .^.{.).o.w OXOXOXOXOX",
"OXOXOXOXOXOXOXOXOXOXOXOXOXl.L.p X % k.q.E L.Q.Q.S.O OXOXOXOXOXOX",
"OXOXOXOXOXOXOXOXOXOXOXOXOXq ; 2 > @ d.P % Z Z 9 = OXOXOXOXOXOXOX",
"OXOXOXOXOXOXOXOXOXOXOXOXOXX   6 l 6 U 9 4 b b h 6 X OXOXOXOXOXOX",
"OXOXOXOXOXOXOXOXOXOXOXOXOXOX  h G j , 6 h C D F J 0 OXOXOXOXOXOX",
"OXOXOXOXOXOXOXOXOXOXOXOXOXOXX h h X D @.S X A F &.z.L   OXOXOXOX",
"OXOXOXOXOXOXOXOXOXOXOXOXOX$ j U r = /. XE.o u Y ! 6.5   OXOXOXOX",
"OXOXOXOXOXOXOXOXOXOXOXOXOX$ D Q v = T.R.` o U W W 4.2   OXOXOXOX",
"OXOXOXOXOXOXOXOXOXOXOXOXOX$ j *.M . r t 8 . %.3.=.%.2 OXOXOXOXOX",
"OXOXOXOXOXOXOXOXOXOXOXOXOXOXX m m . y T y . %.3.%.% OXOXOXOXOXOX",
"OXOXOXOXOXOXOXOXOXOXOXOXOXOXOX2 % & Z.!.S.. 1 2 < X OXOXOXOXOXOX",
"OXOXOXOXOXOXOXOXOXOXOXOXOXOXOX  . ; _ A.) = @ - -   OXOXOXOXOXOX",
"OXOXOXOXOXOXOXOXOXOXOXOXOXOXOX  @ 8 #   # 8 r t y . OXOXOXOXOXOX",
"OXOXOXOXOXOXOXOXOXOXOXOXOXOXOXOXOX# 8 @   . . . . OXOXOXOXOXOXOX",
"OXOXOXOXOXOXOXOXOXOXOXOXOXOXOXOXOXOX@ .   OXOXOXOXOXOXOXOXOXOXOX",
"OXOXOXOXOXOXOXOXOXOXOXOXOXOXOXOXOXOX      OXOXOXOXOXOXOXOXOXOXOX"
};
