/* XPM */
static char *r10[] = {
/* columns rows colors chars-per-pixel */
"32 32 199 2 ",
"   c #010101",
".  c #020A04",
"X  c #0B0905",
"o  c #080607",
"O  c #130A09",
"+  c #110906",
"@  c #041305",
"#  c #0C1307",
"$  c #051C06",
"%  c #0B1809",
"&  c #19100A",
"*  c #1B1815",
"=  c #281B0D",
"-  c #261B14",
";  c #311B12",
":  c #06260B",
">  c #0A2C0B",
",  c #072907",
"<  c #173C0F",
"1  c #083413",
"2  c #073C14",
"3  c #153A10",
"4  c #0F360B",
"5  c #2C2409",
"6  c #2A2210",
"7  c #29221B",
"8  c #372618",
"9  c #132330",
"0  c #282322",
"q  c #322A23",
"w  c #3C3328",
"e  c #44251B",
"r  c #482816",
"t  c #552F1E",
"y  c #4A371B",
"u  c #563018",
"i  c #5C371C",
"p  c #683C1D",
"a  c #532E21",
"s  c #593922",
"d  c #4C312B",
"f  c #603621",
"g  c #0D440E",
"h  c #10480F",
"j  c #0B4314",
"k  c #0D4C13",
"l  c #074016",
"z  c #144712",
"x  c #0D5516",
"c  c #0A531A",
"v  c #0E5D1B",
"b  c #175512",
"n  c #175817",
"m  c #204F14",
"M  c #205014",
"N  c #345514",
"B  c #0E611D",
"V  c #19651B",
"C  c #206617",
"Z  c #236D1A",
"A  c #2C7B1E",
"S  c #26731B",
"D  c #30791F",
"F  c #124F24",
"G  c #3B5E24",
"H  c #0F6C23",
"J  c #0C6420",
"K  c #146A23",
"L  c #0F7325",
"P  c #0F7A29",
"I  c #107526",
"U  c #117C29",
"Y  c #1A7925",
"T  c #247825",
"R  c #296926",
"E  c #6B401E",
"W  c #79491E",
"Q  c #68551E",
"!  c #44681F",
"~  c #696D02",
"^  c #46402F",
"/  c #415F25",
"(  c #57462B",
")  c #684525",
"_  c #794827",
"`  c #6E5429",
"'  c #606222",
"]  c #717633",
"[  c #2A445E",
"{  c #58564E",
"}  c #695945",
"|  c #786E5B",
" . c #58566C",
".. c #737E77",
"X. c #8D7717",
"o. c #85562E",
"O. c #8D5C31",
"+. c #92602F",
"@. c #856832",
"#. c #946432",
"$. c #976A37",
"%. c #937338",
"&. c #A57E3F",
"*. c #8C785E",
"=. c #95795A",
"-. c #A27A41",
";. c #A67942",
":. c #8E7C76",
">. c #31821D",
",. c #1A8429",
"<. c #288A29",
"1. c #348C22",
"2. c #368320",
"3. c #2A9028",
"4. c #3C9C27",
"5. c #3C9E28",
"6. c #369526",
"7. c #3DA129",
"8. c #418C1C",
"9. c #528126",
"0. c #438525",
"q. c #41A529",
"w. c #48AA28",
"e. c #57A429",
"r. c #61A632",
"t. c #78C21E",
"y. c #3B8A4E",
"u. c #678853",
"i. c #6A8271",
"p. c #8F8F00",
"a. c #879234",
"s. c #B6942A",
"d. c #AD883B",
"f. c #B89833",
"g. c #AD8A30",
"h. c #96AC30",
"j. c #BDA724",
"k. c #CDB713",
"l. c #C6AA2C",
"z. c #CCAB32",
"x. c #DAB835",
"c. c #CFB923",
"v. c #99CA12",
"b. c #B4D414",
"n. c #DBC81C",
"m. c #DFD116",
"M. c #D1CF0A",
"N. c #E4DB06",
"B. c #E8DE12",
"V. c #E5D519",
"C. c #DEEF07",
"Z. c #F3ED09",
"A. c #FCFB02",
"S. c #F0E019",
"D. c #D0C137",
"F. c #EAD129",
"G. c #8A8256",
"H. c #AB8446",
"J. c #B58845",
"K. c #BC9945",
"L. c #AA8454",
"P. c #B78F55",
"I. c #98836B",
"U. c #A7986D",
"Y. c #AA9070",
"T. c #AB9374",
"R. c #9EA473",
"E. c #BDA17E",
"W. c #C8994B",
"Q. c #C8A14A",
"!. c #D5A54D",
"~. c #DFB04B",
"^. c #C6A276",
"/. c #E9D55F",
"(. c #FDEF7A",
"). c #5B6A95",
"_. c #656984",
"`. c #758BBD",
"'. c #A49A98",
"]. c #B0B588",
"[. c #ABAAAA",
"{. c #CEAC86",
"}. c #D5B48C",
"|. c #D0B492",
" X c #D5BFA3",
".X c #AFC28C",
"XX c #A9C5AB",
"oX c #DBC29D",
"OX c #E1C298",
"+X c #EAD18A",
"@X c #EACDA3",
"#X c #F2D6AC",
"$X c #F1DCB8",
"%X c #FFE6BD",
"&X c #DBE0DC",
"*X c #FFECC8",
"=X c #FFEFD0",
"-X c #FEFDFB",
";X c #489848",
/* pixels */
";X;X;X;X;X;X;X;X;X;X;X;X;X;X;X;X;XP x b 4.' _ -.-.-.;X;X;X;X;X;X",
";X;X;X;X;X;X;X;X;X;X;X;X;X;X;X;X;X<.v b 4.] +.-.f.l.;X;X;X;X;X;X",
";X;X;X;X;X;X;X;X;X;X;X;XU ,.7.q.q.q.C b q.a.d.d.V.B.!.J.d.;X;X;X",
";X;X;X;X;X;X;X;Xg B P P 3.7.q.q.q.q.C b 7.b.Z.Z.l.d.J.V.V.-.;X;X",
";X;X;X;X;X;X;Xg B H ,.3.5.q.q.q.4.Z S 2.h.D.F.A.x.W.W.z.c.n.f.;X",
";X;X;X;X;X;Xk x L U ,.7.6.1.1.4.6.h >.r.!.~.F.B.z.W.~.;.g.M.s.-.",
";X;X;X;X;Xg B U P P ,.4.S h h >.1.h >.r.-.n.B.d.o.#.!.+.E _ ;X;X",
";X;X;X;X. B I U U P P ,.3.1.1.S C 2.v.M.H.d.K.^.^.=.8 ;X;X;X;X;X",
";X;X;X;X. H P U P U P P ,.3.A V B <.h.n.c.Q.E.@XOXI.  ;X;X;X;X;X",
";X;X;X. @ H P P P I L U P B k B Y <.] f.A./.|. X{.=.o ;X;X;X;X;X",
";X;X  $ g L U I k g k I B x L B N Q.J.f.A.(.|.* f s o ;X;X;X;X;X",
";X;X  $ h L H k $ > g x u.]..XR.G.$.J.W.l.+X$X[._. .*.q ;X;X;X;X",
";X;X  $ h L x : . $ , , G.@X%X#X{._ f.x.#.}.=X-X`.).|.w   ;X;X;X",
";X;X  $ g L 2   ;X;X    y L.#X$XOXo.k.N.W {.=X-X`.).E.w   ;X;X;X",
";X;X;X. . g :   ;X;X;X  X 8 L.P.P.W.V.N._ {.*X=X XI.- ;X;X;X;X;X",
";X;X;X;X. $ @ ;X;X;X;Xp.X.` y y Q F.k.s.L.}.@X@X*.( ;X;X;X;X;X;X",
";X;X;X;X;X  ;X;X;X;X;XM.j.%.# . 5 B.X.) U.U.U.Y.q   ;X;X;X;X;X;X",
";X;X;X;X;X;X;X;X;X;X;XX X % 4 $ 5 Q.E # z z 3 X ;X;X;X;X;X;X;X;X",
";X;X;X;X;X;X;X;X;X;X;X  ; y J B x 8 ] #.# k x       ;X;X;X;X;X;X",
";X;X;X;X;X;X;X;X;X;Xo 9 7 y G T K = ) `   c T ~ N < ;X;X;X;X;X;X",
";X;X;X;X;X;X;X;X;X* * [ 9 & p / R i = @ 0 F 1.C.t.D . ;X;X;X;X;X",
";X;X;X;X;X;X;X;X  } Y.* : < E _ i # j y.&X{ 4 e.w.D   ;X;X;X;X;X",
";X;X;X;X;X;X;X;X  7 ^ > n 1.9.9.! . ..XX:.d 7 3 Y V . ;X;X;X;X;X",
";X;X;X;X;X;X;X;X      > V 7.q.q.6.> ..'.d u 8 o 2 2   ;X;X;X;X;X",
";X;X;X;X;X;X;X;X;X    o 2 Y 5.7.5.U 1 & _ _ p   o   o ;X;X;X;X;X",
";X;X;X;X;X;X;X;X;X  X u 6 : Y 3.q.7.4 q oX#XT.X ; 8 ; O     ;X;X",
";X;X;X;X;X;X;X;X;X  + p r - 2 z b M % * | | { o ; a f r =   ;X;X",
";X;X;X;X;X;X;X;X;X;XX u u e O o   o             - e t p r   ;X;X",
";X;X;X;X;X;X;X;X;X;X;Xo - a e &   ;X;X;X;X;X;X    o   o o ;X;X;X",
";X;X;X;X;X;X;X;X;X;X;X;X+ O O o   ;X;X;X;X;X;X;X;X;X;X;X;X;X;X;X",
";X;X;X;X;X;X;X;X;X;X;X;X;X      ;X;X;X;X;X;X;X;X;X;X;X;X;X;X;X;X",
";X;X;X;X;X;X;X;X;X;X;X;X;X;X;X;X;X;X;X;X;X;X;X;X;X;X;X;X;X;X;X;X"
};
