/* XPM */
static char *r2[] = {
/* columns rows colors chars-per-pixel */
"32 32 185 2 ",
"   c #010101",
".  c #080504",
"X  c #020A04",
"o  c #090B09",
"O  c #160C08",
"+  c #031305",
"@  c #051A08",
"#  c #1C130C",
"$  c #14110E",
"%  c #181411",
"&  c #161817",
"*  c #28190C",
"=  c #311B0E",
"-  c #2D1B14",
";  c #231914",
":  c #351C16",
">  c #05270B",
",  c #0B350B",
"<  c #0B390C",
"1  c #13340E",
"2  c #073914",
"3  c #0C3F17",
"4  c #143813",
"5  c #19240D",
"6  c #3C2117",
"7  c #2E2A07",
"8  c #3D3429",
"9  c #47271E",
"0  c #532C1B",
"q  c #6B3C1F",
"w  c #44382C",
"e  c #573A23",
"r  c #603C29",
"t  c #0C420D",
"y  c #0C480F",
"u  c #10490F",
"i  c #074315",
"p  c #0A4414",
"a  c #0C4D13",
"s  c #0A4B19",
"d  c #064B1A",
"f  c #104B11",
"g  c #0D5C1A",
"h  c #0B521A",
"j  c #195A14",
"k  c #145313",
"l  c #26451B",
"z  c #344C1C",
"x  c #2E5810",
"c  c #0F631D",
"v  c #13691E",
"b  c #236C19",
"n  c #216416",
"m  c #27761C",
"M  c #2B5420",
"N  c #0D6320",
"B  c #0F6D23",
"V  c #0F7B29",
"C  c #0F7126",
"Z  c #117225",
"A  c #107B29",
"S  c #1B7726",
"D  c #267C24",
"F  c #3C7829",
"G  c #4E4312",
"H  c #564F0E",
"J  c #554020",
"K  c #415F25",
"L  c #595022",
"P  c #4A4236",
"I  c #55443A",
"U  c #744524",
"Y  c #6D5529",
"T  c #635237",
"R  c #775833",
"E  c #476527",
"W  c #596F24",
"Q  c #636223",
"!  c #377447",
"~  c #594C52",
"^  c #604A44",
"/  c #6F5A4F",
"(  c #537C45",
")  c #657545",
"_  c #727170",
"`  c #7C716B",
"'  c #936C19",
"]  c #926B16",
"[  c #8F5E2B",
"{  c #865329",
"}  c #8A5B38",
"|  c #866A2E",
" . c #A57A3A",
".. c #9E7440",
"X. c #826D53",
"o. c #9E7350",
"O. c #A37A41",
"+. c #1A8529",
"@. c #248C29",
"#. c #288F29",
"$. c #328B22",
"%. c #2B9229",
"&. c #3D9D27",
"*. c #3B9E28",
"=. c #369527",
"-. c #3FA128",
";. c #63AA1B",
":. c #4D8421",
">. c #439E28",
",. c #549530",
"<. c #708D34",
"1. c #41A429",
"2. c #47A426",
"3. c #449054",
"4. c #758758",
"5. c #4EA163",
"6. c #939303",
"7. c #B29417",
"8. c #819F3C",
"9. c #9A9434",
"0. c #AA853A",
"q. c #B38E3A",
"w. c #B9953A",
"e. c #BEB425",
"r. c #CEBB10",
"t. c #D2BD1F",
"y. c #C4AA2A",
"u. c #C8A833",
"i. c #D1B72C",
"p. c #E0BA3D",
"a. c #B2D20D",
"s. c #B0C42B",
"d. c #D9C71B",
"f. c #DBCB0D",
"g. c #E1D415",
"h. c #CFE30D",
"j. c #EDE50C",
"k. c #E7E600",
"l. c #F2EB0A",
"z. c #FAF605",
"x. c #F8EE10",
"c. c #D8C526",
"v. c #E7C33B",
"b. c #B58947",
"n. c #BC9046",
"m. c #B08552",
"M. c #AB835C",
"N. c #B48D65",
"B. c #AF926A",
"V. c #B89568",
"C. c #B19270",
"Z. c #BDA27B",
"A. c #A5A176",
"S. c #C59848",
"D. c #DBAE49",
"F. c #D4AB4B",
"G. c #C19C78",
"H. c #CBA876",
"J. c #EBDC40",
"K. c #E4CD47",
"L. c #FDF156",
"P. c #EDD96A",
"I. c #0D7398",
"U. c #6F7795",
"Y. c #6A83BA",
"T. c #66C7DC",
"R. c #83AC81",
"E. c #89A6A5",
"W. c #BEB2A8",
"Q. c #B2B3B1",
"!. c #C7AB82",
"~. c #DBBB92",
"^. c #D2BB9B",
"/. c #E2C299",
"(. c #EED3AB",
"). c #F2D6AC",
"_. c #E4D0B1",
"`. c #F3D9B1",
"'. c #FDE4BB",
"]. c #FCE0B6",
"[. c #CCCECB",
"{. c #FFECC9",
"}. c #FDEDD2",
"|. c #F9F9F7",
" X c #489848",
/* pixels */
" X X X X X X X X X X X X X X X X X X X X X X X X X X X X X X X X",
" X X X X X X X X X X X X X X X X X X X X X X X X X X X X X X X X",
" X X X X X X X X X X X X X X X X X+.-.1.$.u Z E { 0. X X X X X X",
" X X X X X X X X X X X X X XA =.-.-.-.1.$.y $.<.q.j.v.S.O. X X X",
" X X X X X X X X X X X Xh +.%.-.1.1.1.1.$.u $.8.S.y.n.u.d.0. X X",
" X X X X X X X X X X Xa v @.-.1.1.1.1.=.m n ;.s.p.b.b.u.g.y.w. X",
" X X X X X X X X X Xy B @.-.1.-.-.*.1.b j 2.h.z.x.D.F.S.q.l.y. .",
" X X X X X X X X Xa B V #.1.1.b k j &.b j 2.9.d.l.b.[  .D.l.7.U ",
" X X X X X X X Xt a A V +.#.#.D m m b m F <.e.t.i.V.M.m.S.7.]  X",
" X X X X X X X Xa k A A V V A %.=.$.g m ,.0.j.c.N.~./.V.R U  X X",
" X X X X X X Xt g A A A A A A A v y C V F 0.j.J.~.`././ O  X X X",
" X X X X X X Xt c A A A A A A c y t a l Y b.j.L.~.P R e    X X X",
" X X X X X X X< c Z c s h c N ( 4.4.) Y { n.t.P._._ ~ ~ I  X X X",
" X X X X X X  , c N < X @ < < A.].'./.o.[ D.0.H.{.|.Y.U.Z.%  X X",
" X X X X X X  < t , X  X XX   Y H.'.'.M.] j.' V.{.|.Y.U.Z.%  X X",
" X X X X X X  < , +  X X X X  * T Z.T.E.F.l.] C.{.}.W.` w  X X X",
" X X X X X X  > >    X X X XH G J T I.A.K.r. .Z.).(.C.^    X X X",
" X X X X X X X   X X X X X Xk.i.| X   ;.f.U B.!.!.G.8    X X X X",
" X X X X X X X X X X X X X X7 # 5 ,   | q.# u M l &  X X X X X X",
" X X X X X X X X X X X X X X X  + y y E E o s N g d @  X X X X X",
" X X X X X X X X X X X X X X X  + < 3.5.! X N V A A x 7  X X X X",
" X X X X X X X X X X X X X X XX   & [.|.Q.o N +.A D a.6.   X X X",
" X X X X X X X X X X X X X X  d i . ^ / I X N +.D L :.n         ",
" X X X X X X X X X X X X XX 2 3 4 6 0 0 : . z z K W D d . = O   ",
" X X X X X X X X X X X X X+ C > - } } r - @ J Y Y -.S i O r = . ",
" X X X X X X X X X X X X X+ B > w !.(./ @ Z =.2.>.-.1 # 9 q *   ",
" X X X X X X X X X X X X X X> X $ 8 P ; X > S +.S 1 - 6 9 * O  X",
" X X X X X X X X X X X X X X  O # O         2 s p X * - - .  X X",
" X X X X X X X X X X X X X X  - 9 6 o              X       X X X",
" X X X X X X X X X X X X X X X. . .    X X X X X X X X X X X X X",
" X X X X X X X X X X X X X X X X X X X X X X X X X X X X X X X X",
" X X X X X X X X X X X X X X X X X X X X X X X X X X X X X X X X"
};
