/* XPM */
static char *r5[] = {
/* columns rows colors chars-per-pixel */
"32 32 198 2 ",
"   c #010101",
".  c #0A0505",
"X  c #0B0A04",
"o  c #050B05",
"O  c #110A05",
"+  c #150C09",
"@  c #1C0F0A",
"#  c #041606",
"$  c #061E06",
"%  c #041D09",
"&  c #081809",
"*  c #1E130A",
"=  c #18150A",
"-  c #1A1611",
";  c #25180C",
":  c #251A10",
">  c #2C1C14",
",  c #361D13",
"<  c #0C260A",
"1  c #052A0E",
"2  c #052609",
"3  c #17270D",
"4  c #09330E",
"5  c #062F10",
"6  c #112C12",
"7  c #053311",
"8  c #083A14",
"9  c #10381B",
"0  c #27261B",
"q  c #382717",
"w  c #272503",
"e  c #0F1A26",
"r  c #202E3D",
"t  c #2E2E2A",
"y  c #472819",
"u  c #512C1D",
"i  c #522F17",
"p  c #56391C",
"a  c #65391C",
"s  c #5F3B21",
"d  c #483E34",
"f  c #6D3D20",
"g  c #0E460F",
"h  c #11490F",
"j  c #0C4611",
"k  c #0E4B12",
"l  c #084617",
"z  c #134B11",
"x  c #174814",
"c  c #0D5215",
"v  c #0B551C",
"b  c #0D5C1C",
"n  c #16591A",
"m  c #265317",
"M  c #0F621D",
"N  c #1D6116",
"B  c #17671B",
"V  c #0F6709",
"C  c #26721B",
"Z  c #27761D",
"A  c #174A23",
"S  c #324631",
"D  c #0E6A23",
"F  c #0D6421",
"G  c #106D23",
"H  c #0F7225",
"J  c #0F7A29",
"K  c #117526",
"L  c #107B29",
"P  c #1A7D26",
"I  c #34682B",
"U  c #77471F",
"Y  c #4F4C21",
"T  c #554129",
"R  c #40522C",
"E  c #57583D",
"W  c #575423",
"Q  c #694F20",
"!  c #734322",
"~  c #7D4D2A",
"^  c #794826",
"/  c #68503A",
"(  c #645C23",
")  c #7A6D34",
"_  c #223C4E",
"`  c #254145",
"'  c #256A69",
"]  c #645846",
"[  c #725844",
"{  c #75634A",
"}  c #7F6B52",
"|  c #7D705F",
" . c #6F624A",
".. c #4D5174",
"X. c #736E67",
"o. c #8C6E15",
"O. c #80502D",
"+. c #895A32",
"@. c #9E7538",
"#. c #986935",
"$. c #AE7E3C",
"%. c #977141",
"&. c #826B50",
"*. c #A37942",
"=. c #8D7873",
"-. c #30851F",
";. c #188129",
":. c #278828",
">. c #348B22",
",. c #2C9329",
"<. c #3D9B26",
"1. c #3A9E29",
"2. c #359727",
"3. c #3AA12A",
"4. c #6F931E",
"5. c #508728",
"6. c #449927",
"7. c #699A31",
"8. c #41A429",
"9. c #47A528",
"0. c #73A537",
"q. c #13C20C",
"w. c #2CD31B",
"e. c #79C11D",
"r. c #2F8443",
"t. c #579C67",
"y. c #909000",
"u. c #898414",
"i. c #88BF15",
"p. c #9B8B38",
"a. c #B08F2A",
"s. c #AC873B",
"d. c #AE8A39",
"f. c #B39135",
"g. c #A8832B",
"h. c #9EB421",
"j. c #BDA12B",
"k. c #A2AC3F",
"l. c #C6B519",
"z. c #C29C2E",
"x. c #C4A92A",
"c. c #CEB726",
"v. c #D2BB24",
"b. c #CBAB37",
"n. c #D2AB3F",
"m. c #A2D010",
"M. c #D3C30A",
"N. c #D8C31E",
"B. c #C7D10D",
"V. c #E1CF1A",
"C. c #E6DA13",
"Z. c #D8E30D",
"A. c #ECE30F",
"S. c #F8F409",
"D. c #FEFB10",
"F. c #F2E118",
"G. c #DECB2B",
"H. c #E4C536",
"J. c #E6D024",
"K. c #928658",
"L. c #B98A47",
"P. c #BD9B59",
"I. c #BD9F49",
"U. c #A8976E",
"Y. c #B0916A",
"T. c #A2AB78",
"R. c #C08F45",
"E. c #C79B45",
"W. c #CEA24F",
"Q. c #E3BA42",
"!. c #C09E78",
"~. c #C7A479",
"^. c #E2C77C",
"/. c #3D5CA2",
"(. c #4B639E",
"). c #75A8A2",
"_. c #40BDDF",
"`. c #91939D",
"'. c #A59588",
"]. c #ABAF81",
"[. c #B9A388",
"{. c #B2A195",
"}. c #D4B289",
"|. c #D0B692",
" X c #B0C08B",
".X c #D9C09D",
"XX c #E1C397",
"oX c #FFE99E",
"OX c #D5C8AF",
"+X c #EACCA4",
"@X c #F3DBB7",
"#X c #F2D7A7",
"$X c #F7E2BA",
"%X c #FFEBC6",
"&X c #D1D8E8",
"*X c #FFF7E2",
"=X c #E8EDE9",
"-X c #489848",
/* pixels */
"-X-X-X-X-X-X-X-X-X-X-X-X-X-X-X-X-X-XJ c N 6.Q +.$.@.-X-X-X-X-X-X",
"-X-X-X-X-X-X-X-X-X-X-X-X-X-X-X-X-X-X:.n N 6.) $.x.x.Q.-X-X-X-X-X",
"-X-X-X-X-X-X-X-X-X-X-X-X-X-X;.1.8.8.3.N N 9.p.N.S.S.H.E.s.-X-X-X",
"-X-X-X-X-X-X-X-X-X-Xg K J ;.3.8.8.8.8.N N 9.Z.v.d.f.C.S.A.s.-X-X",
"-X-X-X-X-X-X-X-X-Xc M J ;.2.8.9.8.<.C C 5.k.H.J.v.E.H.G.c.N.x.-X",
"-X-X-X-X-X-X-X-Xk M J J 2.<.>.>.<.2.h -.0.W.Q.J.V.E.W.R.@.M.j.*.",
"-X-X-X-X-X-X-Xg D J ;.J ,.>.h h C <.z -.7.d.A.c.*.O.R.$.! U -X-X",
"-X-X-X-X-X-X-XD J J J J ;.;.K :.C n >.m.B.*.f.W.~.Y.T q -X-X-X-X",
"-X-X-X-X-X-X1 L L L L L J J L Z B F ,.h.N.c.W.}.+X}.t   -X-X-X-X",
"-X-X-X-X-Xo % H L L L L J J H c n L :.) x.S.XX|.|.!.0   -X-X-X-X",
"-X-X-X-X  $ g J L J L L ;.H k G M m I.L.j.D.oX| , ^ *   -X-X-X-X",
"-X-X-X-X  $ c H M j 5 k n I T. XT.K.#.L.E.b.#XOX`...| ]   -X-X-X",
"-X-X-X-X  2 k J j % o 2 2 R XX$X@X}.O.z.b.@.+X*X&X/.{.&.  -X-X-X",
"-X-X-X-X  $ g H 2   -X    : %.XX$XOX+.M.M.O.+X*X&X(.'.{   -X-X-X",
"-X-X-X-X-Xo # j #   -X-X    * %.)._.W.C.l.O.+X%X@X{.d ; -X-X-X-X",
"-X-X-X-X-X-Xo # o -X-X-Xy.u.{ T ` ' G.l.a.Y.XX+X}.] 0 -X-X-X-X-X",
"-X-X-X-X-X-X-X  -X-X-X-XB.l.Y.0 o w C.o./ U.U.U.} o -X-X-X-X-X-X",
"-X-X-X-X-X-X-X-X-X-X-X-XX X o 4 2 : E.p & h x 3 .   -X-X-X-X-X-X",
"-X-X-X-X-X-X-X-X-X-X-X-X-X-X  v M v q }  .# M 4 O i @ -X-X-X-X-X",
"-X-X-X-X-X-X-X-X-X-X-X-X-X-X  F D l 7 E E 8 H v 6 y 0 e -X-X-X-X",
"-X-X-X-X-X-X-X-X-X-X-X-X-X-XO v A t r.9 5 D J ;.C & _ r X -X-X-X",
"-X-X-X-X-X-X-X-X-X-X-X-X  = p = X.=X=Xt.l # D i.B.6.6 > p . -X-X",
"-X-X-X-X-X-X-X-X-X-X-X  7 n I & t =.=.S 6 i Y 4.e.8.3 X ; -X-X-X",
"-X-X-X-X-X-X-X-X-X-X-X  7 v v - q u y + - W ( 5.3.2.3     -X-X-X",
"-X-X-X-X-X-X-X-X-X-X-X      o s ! f y + 5 P 1.8.2.H $   -X-X-X-X",
"-X-X-X-X-X-X-X-X-X-X-X-X    . [.Y.f + l P 1.8.w.q.2 o   -X-X-X-X",
"-X-X-X-X-X-X-X-X-X-X-X-X-X  . ] [ u . 1 l m m V V : , ; -X-X-X-X",
"-X-X-X-X-X-X-X-X-X-X-X-X-X-X    @ , .       . . @ u a y   -X-X-X",
"-X-X-X-X-X-X-X-X-X-X-X-X-X-X-X        -X-X  q y u a a y   -X-X-X",
"-X-X-X-X-X-X-X-X-X-X-X-X-X-X-X-X-X-X-X-X-X-X+ + @ * ; @ -X-X-X-X",
"-X-X-X-X-X-X-X-X-X-X-X-X-X-X-X-X-X-X-X-X-X-X          -X-X-X-X-X",
"-X-X-X-X-X-X-X-X-X-X-X-X-X-X-X-X-X-X-X-X-X-X-X-X-X-X-X-X-X-X-X-X"
};
