/* XPM */
static char *r88[] = {
/* columns rows colors chars-per-pixel */
"32 32 203 2 ",
"   c #010101",
".  c #0B0605",
"X  c #030C05",
"o  c #0C0903",
"O  c #0B0A08",
"+  c #040609",
"@  c #120B06",
"#  c #140D0A",
"$  c #1B0E0A",
"%  c #041504",
"&  c #0B1D08",
"*  c #061707",
"=  c #1A180C",
"-  c #191B13",
";  c #25180D",
":  c #2A1B14",
">  c #291612",
",  c #341D16",
"<  c #361E18",
"1  c #092D09",
"2  c #06250A",
"3  c #17290D",
"4  c #0C370B",
"5  c #082B10",
"6  c #193416",
"7  c #25261C",
"8  c #38231C",
"9  c #252E0C",
"0  c #0F1A26",
"q  c #0D3127",
"w  c #2C2724",
"e  c #3E352C",
"r  c #45261E",
"t  c #492919",
"y  c #512D16",
"u  c #513117",
"i  c #58361C",
"p  c #4C3C1B",
"a  c #683A1D",
"s  c #4C2A20",
"d  c #462921",
"f  c #5A3221",
"g  c #4E3B30",
"h  c #653920",
"j  c #723F21",
"k  c #0C450E",
"l  c #11490F",
"z  c #0A4411",
"x  c #0D4A12",
"c  c #094B1A",
"v  c #144C11",
"b  c #154414",
"n  c #0E5416",
"m  c #0E5817",
"M  c #0D551A",
"N  c #1A5B14",
"B  c #264F15",
"V  c #0D641D",
"C  c #12641D",
"Z  c #1E6719",
"A  c #256918",
"S  c #2A751C",
"D  c #297A1D",
"F  c #30791E",
"G  c #185327",
"H  c #2A5332",
"J  c #0D6D23",
"K  c #0E6422",
"L  c #156722",
"P  c #0F7225",
"I  c #0E7B29",
"U  c #107B29",
"Y  c #157527",
"T  c #296B26",
"R  c #3B6E34",
"E  c #306E27",
"W  c #535200",
"Q  c #57730A",
"!  c #757500",
"~  c #405428",
"^  c #534431",
"/  c #6C4521",
"(  c #7D4C29",
")  c #744424",
"_  c #645622",
"`  c #68513A",
"'  c #7C5334",
"]  c #634730",
"[  c #487824",
"{  c #7B7A3D",
"}  c #24374A",
"|  c #254145",
" . c #256A69",
".. c #4D5149",
"X. c #665A49",
"o. c #75634A",
"O. c #7D705F",
"+. c #7F6B52",
"@. c #4D5174",
"#. c #7E6E63",
"$. c #82551E",
"%. c #8F6C17",
"&. c #80502D",
"*. c #865731",
"=. c #8F6123",
"-. c #996B3B",
";. c #A17939",
":. c #977141",
">. c #857057",
",. c #A57B42",
"<. c #897B65",
"1. c #34881E",
"2. c #198028",
"3. c #238B29",
"4. c #288D28",
"5. c #2A8325",
"6. c #348C22",
"7. c #338521",
"8. c #2C9429",
"9. c #399525",
"0. c #3C9A26",
"q. c #379023",
"w. c #3D8432",
"e. c #3DA129",
"r. c #7D8604",
"t. c #5AA019",
"y. c #74A010",
"u. c #528426",
"i. c #479728",
"p. c #699D31",
"a. c #41A429",
"s. c #42A82A",
"d. c #5EAB2A",
"f. c #7CB924",
"g. c #6B8D6D",
"h. c #6EAD7D",
"j. c #8A8F15",
"k. c #A3A200",
"l. c #B08F2A",
"z. c #AD883B",
"x. c #B79339",
"c. c #AF892F",
"v. c #9EB421",
"b. c #C8B719",
"n. c #C29C2E",
"m. c #C2A52C",
"M. c #CDB626",
"N. c #D2BB25",
"B. c #C9A936",
"V. c #A2D010",
"C. c #D2C20A",
"Z. c #D5C11F",
"A. c #C7C71B",
"S. c #E3D910",
"D. c #E8E50B",
"F. c #F7F10A",
"G. c #FCF907",
"H. c #F2E217",
"J. c #FEFB10",
"K. c #F2EC07",
"L. c #DDD02B",
"P. c #F2DD23",
"I. c #E9CC2F",
"U. c #928658",
"Y. c #B68846",
"T. c #BD9B59",
"R. c #B08B4F",
"E. c #A7966E",
"W. c #AC916C",
"Q. c #A2AB78",
"!. c #C08E46",
"~. c #C69F43",
"^. c #C89F42",
"/. c #CEAB4F",
"(. c #E1B547",
"). c #C09E78",
"_. c #C7A479",
"`. c #E2C77C",
"'. c #3D5CA2",
"]. c #4B639E",
"[. c #75A8A2",
"{. c #40BDDF",
"}. c #91939D",
"|. c #AA9984",
" X c #BDA88D",
".X c #AFA88B",
"XX c #AFB0A9",
"oX c #D4B289",
"OX c #CDB693",
"+X c #B0C08B",
"@X c #D9C09D",
"#X c #E1C397",
"$X c #FFE99E",
"%X c #D5C8AF",
"&X c #EACCA4",
"*X c #F3DBB7",
"=X c #F2D7A7",
"-X c #F7E2BA",
";X c #D5D1D0",
":X c #FFEBC6",
">X c #D1D8E8",
",X c #FFF7E2",
"<X c #489848",
/* pixels */
"<X<X<X<X<X<X<X<X<X<X<X<X<X<X<XI 3.a.a.s.5.k J E &.-.<X<X<X<X<X<X",
"<X<X<X<X<X<X<X<X<X<X<X<X<X<X<X3.8.a.a.q.D A t.j.l.Y.Y.<X<X<X<X<X",
"<X<X<X<X<X<X<X<X<X<X<Xl C 3.e.a.a.e.0.A A d.D.F.H.(.x.c.<X<X<X<X",
"<X<X<X<X<X<X<X<X<X<Xx J 4.e.a.a.a.9.N D p./.(.B.n.F.F.N.,.<X<X<X",
"<X<X<X<X<X<X<X<X<X<Xk P 8.a.a.a.a.9.l 5.f.P.P.m.z.I.N.N.N.z.<X<X",
"<X<X<X<X<X<X<X<X<Xv m P 8.e.6.6.9.9.l 7.f.D.G.M.,.!.Y.N.K.;.<X<X",
"<X<X<X<X<X<X<X<Xk n U U 8.6.v l S 9.v 1.p.z.K.M.,.&.!.I.D.$.<X<X",
"<X<X<X<X<X<X<X  1 m U U U 3.6.q.S N 6.V.A.;.x.T._.W.-.=.%.<X<X<X",
"<X<X<X<X<X<X<X  1 m I U I U 8.D Z C 3.v.Z.N.!.oX&XoX] y a <X<X<X",
"<X<X<X<X<X<X<X  1 m U U I I P n m U 5.{ m.J.#XOXOX_.8 ; ) <X<X<X",
"<X<X<X<X<X<X<X  1 m U U 2.P x J V B ~.Y.m.J.$X#., ) ;   <X<X<X<X",
"<X<X<X<X<X<X<X  1 m I U V E .X+XQ.U.-.Y.^.B.=X%X}.@.#.X.  <X<X<X",
"<X<X<X<X<X<X<X  2 x U J 4 H #X-X-XoX( n.B.,.=X,X>X'..X+.  <X<X<X",
"<X<X<X<X<X<X<X<X  5 I z * : ;.#X-X%X*.C.b.&.&X,X>X].|.o.  <X<X<X",
"<X<X<X<X<X<X<X<X  5 J *   . = :.[.{./.H.C.*.&X:X*X Xg - <X<X<X<X",
"<X<X<X<X<X<X<X<X  2 n X W j.o.f }  .L.b.Y.,.OX&XOXX.7 <X<X<X<X<X",
"<X<X<X<X<X<X<X<X  % 1   ! b.W.7   9 S.%.` E.E.W.>.O <X<X<X<X<X<X",
"<X<X<X<X<X<X<X<X<X<X  + X o . 6 2 ; ~.p % l v 3 @ <X<X<X<X<X<X<X",
"<X<X<X<X<X<X<X<X<X<XO } 0 @ u L V L w.3 X k K y.k.o <X<X<X<X<X<X",
"<X<X<X<X<X<X<X<X<Xe X.} q 6 / T I Y T b H g.G Q r.B & <X<X<X<X<X",
"<X<X<X<X<X<X<X<X  ^ OX7 M D _ T Y T i R h.;Xw . 3 6.3 . . o <X<X",
"<X<X<X<X<X<X<X<X  O 0 J 4.e.i._ ) i O XXXX^ d i u @ u i r a ;   ",
"<X<X<X<X<X<X<X    @ : 1 L 8.e.u.u.[ M ..X.s h a ' E.s 8 s f ;   ",
"<X<X<X<X<X<X<X  # , d $ 6 T F 0.a.e.3.z - < t ' ,.|.e > r , #   ",
"<X<X<X<X<X<X<X  y h s r r , O F i.0.0.2.c     <. X- < d 8 . <X<X",
"<X<X<X<X<X<X<X  y h r # . . <X& & & & * X   <Xw w <XO O . <X<X<X",
"<X<X<X<X<X<X<X  t i r .   <X<X<X<X<X<X<X<X<X<X<X<X<X<X<X<X<X<X<X",
"<X<X<X<X<X<X<X  > 8 < . <X<X<X<X<X<X<X<X<X<X<X<X<X<X<X<X<X<X<X<X",
"<X<X<X<X<X<X<X<X  +   <X<X<X<X<X<X<X<X<X<X<X<X<X<X<X<X<X<X<X<X<X",
"<X<X<X<X<X<X<X<X<X<X<X<X<X<X<X<X<X<X<X<X<X<X<X<X<X<X<X<X<X<X<X<X",
"<X<X<X<X<X<X<X<X<X<X<X<X<X<X<X<X<X<X<X<X<X<X<X<X<X<X<X<X<X<X<X<X",
"<X<X<X<X<X<X<X<X<X<X<X<X<X<X<X<X<X<X<X<X<X<X<X<X<X<X<X<X<X<X<X<X"
};
