/* XPM */
static char *u1[] = {
/* columns rows colors chars-per-pixel */
"32 32 174 2 ",
"   c #000101",
".  c #0B0605",
"X  c #020B04",
"o  c #0E0B04",
"O  c #0A0C0E",
"+  c #130D08",
"@  c #190F0A",
"#  c #120A06",
"$  c #041405",
"%  c #041708",
"&  c #031B09",
"*  c #091A06",
"=  c #101001",
"-  c #1C1C01",
";  c #1D150C",
":  c #081212",
">  c #171914",
",  c #29170C",
"<  c #321D0F",
"1  c #2F1B15",
"2  c #072407",
"3  c #05270A",
"4  c #062B0D",
"5  c #092A09",
"6  c #0D240A",
"7  c #0C330C",
"8  c #093D0B",
"9  c #073209",
"0  c #062F10",
"q  c #063110",
"w  c #083713",
"e  c #123211",
"r  c #1F3916",
"t  c #173A0F",
"y  c #3D3908",
"u  c #3E221B",
"i  c #152A3A",
"p  c #2A2A20",
"a  c #4A2915",
"s  c #4A2A18",
"d  c #713F1E",
"f  c #673A1D",
"g  c #0A430D",
"h  c #0B4512",
"j  c #0C4A11",
"k  c #0A4D1A",
"l  c #1A4311",
"z  c #134D10",
"x  c #0D5517",
"c  c #0A501B",
"v  c #135B1A",
"b  c #165818",
"n  c #204208",
"m  c #29580B",
"M  c #28560B",
"N  c #294514",
"B  c #374718",
"V  c #0E621E",
"C  c #1D6116",
"Z  c #236419",
"A  c #256F1A",
"S  c #2A6A1B",
"D  c #29771C",
"F  c #2C7B1E",
"G  c #084E2A",
"H  c #0C5F20",
"J  c #3D4E2A",
"K  c #0D6622",
"L  c #0E6C24",
"P  c #106F27",
"I  c #0D7125",
"U  c #0E7C29",
"Y  c #0F7628",
"T  c #117525",
"R  c #107B29",
"E  c #187927",
"W  c #336626",
"Q  c #257338",
"!  c #247229",
"~  c #61511D",
"^  c #536E05",
"/  c #5C7A08",
"(  c #475825",
")  c #5E5F21",
"_  c #6D4D21",
"`  c #654529",
"'  c #734220",
"]  c #7C4C25",
"[  c #7A542C",
"{  c #795B30",
"}  c #5E7F34",
"|  c #536625",
" . c #7E7B36",
".. c #1D3045",
"X. c #385470",
"o. c #5A5350",
"O. c #494F55",
"+. c #5C7443",
"@. c #85552B",
"#. c #89582D",
"$. c #875724",
"%. c #835332",
"&. c #935F30",
"*. c #8B6434",
"=. c #916D3A",
"-. c #917139",
";. c #89732E",
":. c #A1773C",
">. c #966B43",
",. c #9C7146",
"<. c #A57C41",
"1. c #A67A43",
"2. c #2E821F",
"3. c #3F8D1D",
"4. c #1F8227",
"5. c #198329",
"6. c #228B29",
"7. c #238127",
"8. c #338821",
"9. c #2D9429",
"0. c #379225",
"q. c #399525",
"w. c #3B9926",
"e. c #339A2A",
"r. c #3D9F28",
"t. c #309428",
"y. c #28873E",
"u. c #3DA129",
"i. c #648508",
"p. c #538426",
"a. c #5A8C2C",
"s. c #479828",
"d. c #4E8632",
"f. c #4D8326",
"g. c #659732",
"h. c #669832",
"j. c #41A429",
"k. c #42A82A",
"l. c #61B027",
"z. c #BDBD00",
"x. c #B69638",
"c. c #97A92A",
"v. c #CFB12E",
"b. c #ACD410",
"n. c #D2C907",
"m. c #DDE302",
"M. c #E4EB04",
"N. c #AF8850",
"B. c #AA8253",
"V. c #908271",
"C. c #B89260",
"Z. c #B4926E",
"A. c #C79649",
"S. c #C1A949",
"D. c #C3A06C",
"F. c #1D6B86",
"G. c #327D80",
"H. c #057CA1",
"J. c #6D7B8C",
"K. c #038FA7",
"L. c #8899A9",
"P. c #B5B3A7",
"I. c #D4B286",
"U. c #BCC6BF",
"Y. c #D5C29F",
"T. c #E5C79E",
"R. c #ECCFA7",
"E. c #E7C9A0",
"W. c #F3D8AD",
"Q. c #F9E2BB",
"!. c #BDC9C0",
"~. c #CED3C4",
"^. c #C3D3D1",
"/. c #489848",
/* pixels */
"/././././././././././.d *.1.:.<.1.{     /./././././././././././.",
"/././././././././.1. .p.a.g.g.g.h.a.D l   /././././././././././.",
"/././././././././.v.c.j.0.2.2.2.2.2.8.Z t 6 /./././././././././.",
"/././././././.1.x.M.b.r.A z z z z z z S s.l $ /././././././././.",
"/././././.' ] A.S.l.3.z D w.w.w.w.w.w.D z F 8.6   /././././././.",
"/././././.' ' } d.Z A 2.w.j.j.j.j.j.j.q.2.A C 7 2   /./././././.",
"/././././.@.[ ! I g b 2.0.j.j.j.j.j.j.q.2.A C v j     /././././.",
"/././././.-.-.! V z z z F j.j.j.j.j.j.F z F 0.E K X   /././././.",
"/./././.d B l % 6 q.w.w.u.j.j.j.j.j.j.r.w.l * K K X   /././././.",
"/./.:.B.Z.( 8 X % E t.j.j.j.j.j.j.j.j.q.6.0   K L 4 J I.C.1././.",
"/.,.D.I.E.+.8 X % Y 6.j.j.j.j.j.j.r.e.E k w 4 I I g } E.I.D.,./.",
"' >.R.W.W.+.8 $ & K E r.u.j.j.u.u.t.Y h   c R T L g +.W.W.R.>.d ",
"/./.%.>.N.( 8 t 7 X w R t.j.j.r.5.T z 3   k R x g g ( N.>.%././.",
"/././.] @.G.K.G 9   0 R 5.6.6.4.v h & * 5 h x g G K.G.@.] /././.",
"/./././.' F.H./ ^   4 R R R R T 7 2 $ 5 8 N y / p.H.F.d /./././.",
"/././././.  = b.z.o 4 R R R Y K X * M m m ~ $.n.b.=   /././././.",
"/././././././.- -   0 R R R x 8   y m.M.M.v.A.a - /././././././.",
"/././././././.      & x x x 3 $ 2 n i.i.i.;.&.; X /././././././.",
"/././././././.4 4 0 4 3 5 5 4 0 x x x j 8 B ( w 4 /././././././.",
"/././././.O : Q y.E b X X $ K R U U U V h v P y.Q X   /././././.",
"/./././.  ..X.^.~.[ ( K L P Y R U U U Y I q > !.U.O   /././././.",
"/./.  , s V.P.L.J.1 r U R R U U U U U U U B s o.O..   /././././.",
"/./.  < ' I.Q.O.i % e W W W W W W W W W W | ) =     /./././././.",
"/./.  < ` Z.Y.p $ h B _ _ _ _ _ _ _ _ _ _ f.q.*   /././././././.",
"/././.. o > > e h P E s.s.s.s.s.s.s.s.s.s.6.T %   /././././././.",
"/././././././.$ 4 Y 6.k.k.k.k.k.k.k.k.e.6.k 4 /././././././././.",
"/././././././.  % k v S S S S S S S S v k &   /././././././././.",
"/././././././././.                  . o + @ + /././././././././.",
"/./././././././././././././././.  # u ` =.=.*.;   /././././././.",
"/././././././././././././././././.# @ s #.#.[ @   /././././././.",
"/./././././././././././././././././.  , a a a #   /././././././.",
"/./././././././././././././././././././.      /././././././././."
};
