/* XPM */
static char *u10[] = {
/* columns rows colors chars-per-pixel */
"32 32 183 2 ",
"   c #010101",
".  c #020B04",
"X  c #0C0A05",
"o  c #060A0E",
"O  c #0C080C",
"+  c #140B06",
"@  c #170D0B",
"#  c #031306",
"$  c #081306",
"%  c #031409",
"&  c #0B1A09",
"*  c #031C06",
"=  c #1E1109",
"-  c #041713",
";  c #1A1612",
":  c #25140B",
">  c #28160C",
",  c #251B06",
"<  c #291712",
"1  c #361E16",
"2  c #052A0D",
"3  c #082C09",
"4  c #092509",
"5  c #0A3D0C",
"6  c #09360B",
"7  c #0F2210",
"8  c #0B3211",
"9  c #15340D",
"0  c #252503",
"q  c #233806",
"w  c #38291D",
"e  c #38231B",
"r  c #26301A",
"t  c #0E2430",
"y  c #392C2C",
"u  c #4C2A15",
"i  c #553819",
"p  c #6E3C1C",
"a  c #66391C",
"s  c #703F1E",
"d  c #5C3D2A",
"f  c #0C420D",
"g  c #15430C",
"h  c #094315",
"j  c #0D4A12",
"k  c #0A4D1A",
"l  c #094718",
"z  c #134E10",
"x  c #0D5416",
"c  c #0D5B1C",
"v  c #0B531B",
"b  c #115F1E",
"n  c #1A5614",
"m  c #24540C",
"M  c #2A590C",
"N  c #0E651F",
"B  c #0F681F",
"V  c #1E6116",
"C  c #216818",
"Z  c #2B6B1B",
"A  c #2C7E1E",
"S  c #1A5935",
"D  c #285121",
"F  c #0D6622",
"G  c #0F6C23",
"H  c #0D682C",
"J  c #0F7225",
"K  c #0E7B2A",
"L  c #107525",
"P  c #1C7924",
"I  c #1C7428",
"U  c #127D29",
"Y  c #2E6023",
"T  c #2B7F20",
"R  c #237E22",
"E  c #4C4B00",
"W  c #515702",
"Q  c #5C5A01",
"!  c #605C02",
"~  c #597C09",
"^  c #7E621E",
"/  c #617305",
"(  c #5B4525",
")  c #4B4034",
"_  c #674821",
"`  c #604727",
"'  c #784726",
"]  c #7B4B28",
"[  c #725828",
"{  c #4E622C",
"}  c #556C3B",
"|  c #776123",
" . c #293E52",
".. c #294052",
"X. c #04655F",
"o. c #376A53",
"O. c #2C4965",
"+. c #3C5C7C",
"@. c #056C61",
"#. c #484B52",
"$. c #4B4249",
"%. c #607A49",
"&. c #83571C",
"*. c #814F27",
"=. c #825329",
"-. c #8B5E3C",
";. c #9B762D",
":. c #926634",
">. c #956C35",
",. c #A27B34",
"<. c #996D49",
"1. c #A77D41",
"2. c #A37A57",
"3. c #2C811E",
"4. c #158129",
"5. c #228A29",
"6. c #2F8420",
"7. c #2E9328",
"8. c #399124",
"9. c #3B9926",
"0. c #309629",
"q. c #3D9028",
"w. c #389C29",
"e. c #3DA129",
"r. c #4E931B",
"t. c #5E8308",
"y. c #638609",
"u. c #6D8410",
"i. c #749307",
"p. c #66AB1A",
"a. c #538126",
"s. c #568D2B",
"d. c #529E20",
"f. c #469F24",
"g. c #41A529",
"h. c #7CAB38",
"j. c #919C03",
"k. c #97A415",
"l. c #89BF14",
"z. c #AFB401",
"x. c #B0BE08",
"c. c #A8A503",
"v. c #AF8B3A",
"b. c #BD8F3C",
"n. c #83BF22",
"m. c #E3BF39",
"M. c #86C71B",
"N. c #DCDD00",
"B. c #D5D11C",
"V. c #EBDA1A",
"C. c #C3E10D",
"Z. c #DDF01E",
"A. c #D7EC1D",
"S. c #E2E802",
"D. c #E6E602",
"F. c #F4EF08",
"G. c #F1EC06",
"H. c #F0F10A",
"J. c #E5E611",
"K. c #E5D02E",
"L. c #F5DF20",
"P. c #E4C334",
"I. c #AE864B",
"U. c #BC9047",
"Y. c #B38C61",
"T. c #C3944C",
"R. c #D3A548",
"E. c #DAA752",
"W. c #E4BB45",
"Q. c #C29E6D",
"!. c #C6A36E",
"~. c #37939D",
"^. c #1DBAD7",
"/. c #AE9D95",
"(. c #94B599",
"). c #98AEAA",
"_. c #B0AEB3",
"`. c #CAA880",
"'. c #DBBB92",
"]. c #F1D6AB",
"[. c #F7DCB2",
"{. c #FAE0B7",
"}. c #489848",
/* pixels */
"}.}.}.}.}.}.}.}.}.}.}.}.}.}.}.}.}.}.}.}.}.}.}.}.}.}.}.}.}.}.}.}.",
"}.}.}.}.}.}.}.}.}.}.}.}.}.}.}.}.}.}.}.}.}.}.}.}.}.}.}.}.}.}.}.}.",
"}.}.}.}.}.}.}.}.}.}.}.}.}.}.}.}.}.}.}.}.}.}.}.}.}.}.}.}.}.}.}.}.",
"}.}.}.}.}.}.}.}.}.}.}.&.;.v.v.v.v.,.] ' }.}.}.}.}.}.}.}.}.}.}.}.",
"}.}.}.}.}.}.}.1.I.E.P.G.G.G.G.G.F.V.R.[   }.}.}.}.}.}.}.}.}.}.}.",
"}.}.}.}.}.}.1.T.R.L.B.M.M.M.M.M.M.n.h.s.Z 9   }.}.}.}.}.}.}.}.}.",
"}.}.}.}.}.1.U.m.K.C.l.T T T A T 3.3.3.3.6.D 9 }.}.}.}.}.}.}.}.}.",
"}.}.}.}.' b.W.J.C.f.T z z z z z z z z z z A 8.3 . }.}.}.}.}.}.}.",
"}.}.}.}.,.B.H.d.6.z V w.9.9.9.f.9.9.9.w.w.V z B b .   }.}.}.}.}.",
"}.}.}.}.}.u.~ n k f C g.g.g.g.g.g.g.g.e.g.A N c h     }.}.}.}.}.",
"}.}.}.}.}.D 5 3 6 n A g.g.g.g.g.g.e.0.0.0.P B c j * r }.}.}.}.}.",
"}.}.I.Q.'.} 5 . & 9.w.g.g.g.w.e.e.0.4.J G x j J L f } '.Q.I.}.}.",
"s <.].[.{.%.6 . & L 5.g.g.g.5.U 4.4.U j . x L U J f %.{.[.].<.s ",
"}.-.2.Y.!.{ 6 . % L 4.5.5.5.U K c j 2 2 4 N U K J f { !.Y.2.-.}.",
"}.}.p =.:.o.X.% % N G K G N v j 3 4 # 3 f c N N H @.o.:.=.p }.}.",
"}.}.}.}.a ~.^.t . 5 x L x 5 $ . . # f f f f f g S ^.~.a }.}.}.}.",
"}.}.}.}.X k.A.0 . f f j 4 . 3 5 5 5 f f f h g i ^ Z.k.X }.}.}.}.",
"}.}.}.}.}.E Q [ ( & # # * 2 5 f f f 5 5 5 i.x.;.:.! E }.}.}.}.}.",
"}.}.}.}.}.}.  ` (   , Q ~ y.m 5 5 m y.y.y.j.c.| (   }.}.}.}.}.}.",
"}.}.}.}.}.}.}.. . . W D.N.N.~ m m ~ N.D.S.W . X # }.}.}.}.}.}.}.",
"}.}.}.}.}.  X N B 5 g M q 0 z.S.S.z.0 q m g 5 F c .   }.}.}.}.}.",
"}.}.      t  .).(.7 6 B c k r.p.p.r.k c F 6 - (.(.w :       }.}.",
"}.+ > > >  .+._./.O 2 K K U K K K K K K K 2 o )._.$.y > > > + }.",
"  = s ] =.$.O.d i . 8 I I I I P I I I I I 8 %  .O.O.#.] ' s =   ",
"  = p <.`.) o X & F Y _ _ _ _ _ _ _ _ _ _ Y F - o o ) `.<.s =   ",
"}.+ : w ) ; . h b 7.q.} a.r.a.a.a.a.a.a.} q.0.b 8 o ; d w ; + }.",
"}.}.        . h N 7.w.g.g.g.g.g.g.g.g.g.g.e.7.b l           }.}.",
"}.}.}.}.}.}.}.  % F P 8.8.8.8.8.8.9.8.8.8.4.F & o     }.}.}.}.}.",
"}.}.}.}.}.        . # $ $ $ $ $ $ # $ $ $ . % e 1     }.}.}.}.}.",
"}.}.}.}.}.    < 1 u u u :     }.}.}.}..       @ @ }.}.}.}.}.}.}.",
"}.}.}.}.}.}.  < 1 u u u >   }.}.}.}.}.}.          }.}.}.}.}.}.}.",
"}.}.}.}.}.}.}.          }.}.}.}.}.}.}.}.}.}.}.}.}.}.}.}.}.}.}.}."
};
