/* XPM */
static char *u2[] = {
/* columns rows colors chars-per-pixel */
"32 32 171 2 ",
"   c #000001",
".  c #0B0605",
"X  c #020903",
"o  c #0E0905",
"O  c #0E0C0C",
"+  c #140B07",
"@  c #140C0B",
"#  c #031305",
"$  c #061C06",
"%  c #041608",
"&  c #091908",
"*  c #1B1A04",
"=  c #100F10",
"-  c #141519",
";  c #21180E",
":  c #361E0F",
">  c #062407",
",  c #04230B",
"<  c #062C0D",
"1  c #092C09",
"2  c #172805",
"3  c #0A350A",
"4  c #0B3B0C",
"5  c #05310E",
"6  c #073412",
"7  c #16370E",
"8  c #272304",
"9  c #27330E",
"0  c #3D2C17",
"q  c #2F3C15",
"w  c #0E1A25",
"e  c #1E2520",
"r  c #4A2914",
"t  c #42241D",
"y  c #462719",
"u  c #46351B",
"i  c #58361C",
"p  c #653A1C",
"a  c #6E3D1E",
"s  c #703E1D",
"d  c #5B3320",
"f  c #5B3E20",
"g  c #623F29",
"h  c #0C430D",
"j  c #06400A",
"k  c #0D4A12",
"l  c #154910",
"z  c #0D5316",
"x  c #0A531B",
"c  c #0D5B1B",
"v  c #185717",
"b  c #3F4A03",
"n  c #3F4B1F",
"m  c #2B5819",
"M  c #3D551D",
"N  c #0E671F",
"B  c #0C691F",
"V  c #1E6316",
"C  c #15681D",
"Z  c #2B6B1B",
"A  c #256A19",
"S  c #2B7B1D",
"D  c #27761C",
"F  c #38721F",
"G  c #09502A",
"H  c #3D4E2A",
"J  c #395D2F",
"K  c #0D6220",
"L  c #0F6B22",
"P  c #1B6923",
"I  c #0F7225",
"U  c #0F7B29",
"Y  c #107526",
"T  c #107C29",
"R  c #127B27",
"E  c #336826",
"W  c #346726",
"Q  c #28792C",
"!  c #5C5B02",
"~  c #524319",
"^  c #465B24",
"/  c #495723",
"(  c #535727",
")  c #6D4420",
"_  c #6D4C21",
"`  c #664C26",
"'  c #724323",
"]  c #7F4E27",
"[  c #784828",
"{  c #7C542A",
"}  c #765731",
"|  c #4A7330",
" . c #6E6A34",
".. c #1D3243",
"X. c #2F3A48",
"o. c #364F68",
"O. c #5B7443",
"+. c #445F79",
"@. c #814E2B",
"#. c #86562C",
"$. c #845833",
"%. c #926920",
"&. c #9B6D38",
"*. c #966633",
"=. c #9B7B3F",
"-. c #8B6235",
";. c #A1773C",
":. c #966B43",
">. c #9C7146",
",. c #A17743",
"<. c #A47A41",
"1. c #1A8329",
"2. c #2A8021",
"3. c #258C29",
"4. c #2B8C25",
"5. c #328721",
"6. c #2C9229",
"7. c #3B9B27",
"8. c #309629",
"9. c #399E29",
"0. c #399224",
"q. c #61A419",
"w. c #50892E",
"e. c #479828",
"r. c #489B29",
"t. c #41A429",
"y. c #42A92A",
"u. c #57AE25",
"i. c #54A72C",
"p. c #559A75",
"a. c #999901",
"s. c #929501",
"d. c #B18B2E",
"f. c #B1873F",
"g. c #AD8E32",
"h. c #C6AA2A",
"j. c #D6AD3F",
"k. c #84C41C",
"l. c #BCD615",
"z. c #DFDC03",
"x. c #E2E105",
"c. c #E9F405",
"v. c #E1E118",
"b. c #F3EA0A",
"n. c #DBD325",
"m. c #AF8850",
"M. c #B99640",
"N. c #93826A",
"B. c #B89260",
"V. c #D0AF4D",
"C. c #CBAA4E",
"Z. c #C3A06C",
"A. c #2F7B81",
"S. c #008BA7",
"D. c #5AD0A3",
"F. c #958F91",
"G. c #989794",
"H. c #8EA280",
"J. c #90B098",
"K. c #A7BD9F",
"L. c #D4B387",
"P. c #C0B298",
"I. c #D2BB9B",
"U. c #A5CAAE",
"Y. c #D7C29F",
"T. c #E5C79E",
"R. c #ECCFA7",
"E. c #EED0A6",
"W. c #F3D8AD",
"Q. c #B2BDCB",
"!. c #489848",
/* pixels */
"!.!.!.!.!.!.!.!.!.!.!.!.!.!.!.!.!.!.!.!.!.!.!.!.!.!.!.!.!.!.!.!.",
"!.!.!.!.!.!.!.!.!.!.!.' -.<.,.,.<.}   !.!.!.!.!.!.!.!.!.!.!.!.!.",
"!.!.!.!.!.!.!.!.!.!.&.*.d.h.h.h.h.d.f 0 !.!.!.!.!.!.!.!.!.!.!.!.",
"!.!.!.!.!.!.!.!.!.g.d.C.n.c.c.c.c.v.V. .& !.!.!.!.!.!.!.!.!.!.!.",
"!.!.!.!.!.!.!.<.g.b.n.y.i.u.u.u.u.u.i.e.0.7   !.!.!.!.!.!.!.!.!.",
"!.!.!.!.!.!.) | w.k.q.C V V V V V V V V V A Z $   !.!.!.!.!.!.!.",
"!.!.!.!.!.{ { Q T 2.D V V V V V V V V V V D S 1 # !.!.!.!.!.!.!.",
"!.!.!.!.!.f.>.Q I h V t.t.t.t.t.t.t.t.t.t.A l h 3 X   !.!.!.!.!.",
"!.!.!.!.!.<.>.3.I h A t.t.t.t.t.t.t.t.t.t.7.0.v 3     !.!.!.!.!.",
"!.!.;.B.L. .M v c K C v 5.t.t.t.t.t.t.t.t.S V N c 1 / L.B.,.!.!.",
"!.>.Z.L.T.O.j k c R I z 2.t.t.t.t.t.t.9.8.C c I Y h | E.L.Z.>.!.",
"s :.R.W.W.O.h L Y L I R 6.t.t.t.t.t.t.6.R Y L I I 4 O.W.W.R.:.a ",
"!.!.$.&.m.^ h k 4 # 6 U 6.t.t.t.t.t.t.6.U 6 # 4 k h ^ m.:.$.!.!.",
"!.!.!.] #.A.S.G 3   < U 1.3.9.t.t.9.3.1.T <   3 G S.A.#.] !.!.!.",
"!.!.!.!.y p.D.J 9   , K I U 3.8.8.3.U I N >   9 J D.p.r !.!.!.!.",
"!.!.!.!.  a.z.%.) 8 2 4 c Y T T T R I c 4 2 ; ) %.z.a.  !.!.!.!.",
"!.!.!.!.!.* 8 f.j.x.s.X 1 k I U T L k < X s.x.j.f.8 * !.!.!.!.!.",
"!.!.!.!.!.!.!.u ~ ! ~ 1 > % K U 1.K # > < b ! ~ u !.!.!.!.!.!.!.",
"!.!.!.!.!.!.!.      # h $   k L L k   $ h 5 ,     !.!.!.!.!.!.!.",
"!.!.!.!.!.!.!.!.!.# $ h > X < 4 4 1 X > k P P $ # !.!.!.!.!.!.!.",
"!.!.!.!.!.!.!.  % L c h 4 3 # X X # 3 x I ^ ` P c X   !.!.!.!.!.",
"!.!.!.!.!.!.!.  e U.H.~ m B x x x c B I U ( ] K.J.O   !.!.!.!.!.",
"!.!.!.!.!.!.!.w X.Q.F.r / W E E E E E E E ^ ( G.G.= !.!.!.!.!.!.",
"!.!.!.!.!.. @ o.+.o...X 0 _ _ _ _ ) p p p E R %   !.!.!.!.!.!.!.",
"!.!.!.!.  r ' I.P.- & 3 Z r.r.e.r.F + + . Z 7.$   !.!.!.!.!.!.!.",
"!.!.!.!.  r #.E.Y.O , L 4.y.y.9.l q ` ~ r m A #   !.!.!.!.!.!.!.",
"!.!.!.!.  : u N.N.= , x v Z Z m - y <.&.@.0 > X   !.!.!.!.!.!.!.",
"!.!.!.!.!.        !.!.  X     . : ` <.;.;.u o !.!.!.!.!.!.!.!.!.",
"!.!.!.!.!.!.!.!.!.!.!.!.!.!.  . t g ,.<.<.{ i +   !.!.!.!.!.!.!.",
"!.!.!.!.!.!.!.!.!.!.!.!.!.!.!.!.@ t <.<.<.#.a +   !.!.!.!.!.!.!.",
"!.!.!.!.!.!.!.!.!.!.!.!.!.!.!.!.  ; $.-.*.[ d +   !.!.!.!.!.!.!.",
"!.!.!.!.!.!.!.!.!.!.!.!.!.!.!.!.  = y d ' d t o   !.!.!.!.!.!.!."
};
