/* XPM */
static char *u3[] = {
/* columns rows colors chars-per-pixel */
"32 32 179 2 ",
"   c #000001",
".  c #0C0605",
"X  c #020C04",
"o  c #0C0805",
"O  c #08090B",
"+  c #130B07",
"@  c #160E08",
"#  c #031205",
"$  c #081506",
"%  c #051906",
"&  c #0A1B08",
"*  c #061709",
"=  c #151205",
"-  c #1E1E01",
";  c #1C1917",
":  c #2A160B",
">  c #25160C",
",  c #361E0F",
"<  c #2C1C13",
"1  c #381F15",
"2  c #052409",
"3  c #062B0C",
"4  c #082A09",
"5  c #072407",
"6  c #0C360C",
"7  c #0A3D0B",
"8  c #0A3007",
"9  c #17390F",
"0  c #103209",
"q  c #092714",
"w  c #093713",
"e  c #1A2103",
"r  c #2B2012",
"t  c #3F3516",
"y  c #2D3F16",
"u  c #382D20",
"i  c #2D2D2D",
"p  c #492A15",
"a  c #452612",
"s  c #532E1E",
"d  c #413817",
"f  c #52331E",
"g  c #6B3C1D",
"h  c #703E1D",
"j  c #5B3D20",
"k  c #6A3F25",
"l  c #0C420D",
"z  c #15440F",
"x  c #0B4513",
"c  c #0E4B11",
"v  c #094818",
"b  c #134E10",
"n  c #174812",
"m  c #0D5315",
"M  c #0D561A",
"N  c #0E5B1A",
"B  c #0E5817",
"V  c #195713",
"C  c #2D4005",
"Z  c #3D4502",
"A  c #3B4518",
"S  c #34520F",
"D  c #0E631D",
"F  c #1D6619",
"G  c #226B19",
"H  c #276518",
"J  c #2B7D1E",
"K  c #38721E",
"L  c #094D27",
"P  c #0A4F33",
"I  c #0B5534",
"U  c #375D22",
"Y  c #3F5D31",
"T  c #0F6D23",
"R  c #0D6622",
"E  c #0F7426",
"W  c #0F7A29",
"Q  c #0F7728",
"!  c #117526",
"~  c #107B29",
"^  c #1D7826",
"/  c #236823",
"(  c #327E20",
")  c #257130",
"_  c #5C5C01",
"`  c #605D03",
"'  c #6B411E",
"]  c #7A7900",
"[  c #617806",
"{  c #515423",
"}  c #5F5F25",
"|  c #5A4B2F",
" . c #6B4925",
".. c #734120",
"X. c #784723",
"o. c #794824",
"O. c #785931",
"+. c #7F5625",
"@. c #4D6435",
"#. c #576E3B",
"$. c #526824",
"%. c #636323",
"&. c #6A682E",
"*. c #70682F",
"=. c #767738",
"-. c #223B54",
";. c #5E7646",
":. c #70684F",
">. c #4D687E",
",. c #814E2B",
"<. c #85562C",
"1. c #885A2E",
"2. c #815E27",
"3. c #8E6424",
"4. c #966B37",
"5. c #9B743D",
"6. c #8D6735",
"7. c #A0783F",
"8. c #996E48",
"9. c #936644",
"0. c #A47B41",
"q. c #937C60",
"w. c #2E811F",
"e. c #1A8228",
"r. c #2C8F27",
"t. c #238B29",
"y. c #218527",
"u. c #2B9229",
"i. c #399124",
"p. c #3B9926",
"a. c #309629",
"s. c #3C9F29",
"d. c #359C2A",
"f. c #65850A",
"g. c #548226",
"h. c #41A529",
"j. c #40A82A",
"k. c #2A8440",
"l. c #7CA140",
"z. c #929200",
"x. c #898A00",
"c. c #A9A300",
"v. c #848C3D",
"b. c #A18330",
"n. c #BEA525",
"m. c #D1BD0B",
"M. c #D7B724",
"N. c #BEE20E",
"B. c #B5CA27",
"V. c #DDD30C",
"C. c #E0DE04",
"Z. c #E2D217",
"A. c #DFE000",
"S. c #E1E100",
"D. c #BD8C48",
"F. c #A9AB45",
"G. c #A1806C",
"H. c #BA9562",
"J. c #A6907C",
"K. c #E2AB54",
"L. c #A7E559",
"P. c #2C89A0",
"I. c #01A7D8",
"U. c #A29989",
"Y. c #BAA88B",
"T. c #9CBBA1",
"R. c #B8B3A0",
"E. c #CDAB85",
"W. c #D6B68C",
"Q. c #CDB390",
"!. c #C1BAA9",
"~. c #DFC091",
"^. c #E8CB9F",
"/. c #E0C293",
"(. c #F1D7AE",
"). c #EBD1AF",
"_. c #D8D7D8",
"`. c #DAE8E2",
"'. c #489848",
/* pixels */
"'.'.'.'.'.'.'.'.'.'.'.'.....4.0.0.0.0.|   '.'.'.'.'.'.'.'.'.'.'.",
"'.'.'.'.'.'.'.'.'.0.D.K.M.m.Z.Z.Z.Z.Z.n.4.d   '.'.'.'.'.'.'.'.'.",
"'.'.'.'.'.'.'.'.'.=.v.F.B.N.N.N.N.N.N.B.F.A # '.'.'.'.'.'.'.'.'.",
"'.'.'.'.'.'.'.5.=.^ ^ p.p.p.p.p.p.p.p.p.p.G b X   '.'.'.'.'.'.'.",
"'.'.'.'.'.h ..S n c b b b b b b b b b b b J i.%   '.'.'.'.'.'.'.",
"'.'.'.'.'.4.6./ D l V w.w.w.w.J w.J w.w.w.G H 7 4   '.'.'.'.'.'.",
"'.'.'.'.'.*.&./ R B F a.s.j.j.h.h.h.h.h.j.H 7 l 6     '.'.'.'.'.",
"'.'.'.'.'.n l w c W ~ ~ r.h.h.h.h.h.h.h.h.G l c 7 X $ '.'.'.'.'.",
"'.'.0.H.W.@.l l c ~ ~ W a.j.j.h.h.h.h.h.j.e.E Q T 7 @.W.H.0.'.'.",
"h 8.~.^.(.;.l D N 3 v ~ e.e.s.j.j.h.h.a.y.e.Q w 3 7 ;.(.^.W.8...",
"h 9.E.W./.#.7 D M   2 R E W u.u.a.a.a.t.W T D # X 6 #./.W.E.9...",
"'.'...1.5.Y L x 6 X % 7 N E W W ~ ~ ~ ~ ~ m 6 # * L Y 5.1...'.'.",
"'.'.'.X.o.P.I.I l 7 3 X 3 c E W Q ~ ~ ~ W 3 X 8 P I.P.o.o.'.'.'.",
"'.'.'.'.: l.L.%.d l 2   5 l T e.~ ~ ~ T B %   t %.L.l.: '.'.'.'.",
"'.'.'.'.  ] c.3.3.f.[ _ y 2 M D Q ~ ~ M 4 Z _ +.3.c.]   '.'.'.'.",
"'.'.'.'.'.  o O.b.C.A.A.] - 0 l ! ~ ~ v   z.C.b.O.o   '.'.'.'.'.",
"'.'.'.'.'.'.'.+ = - - - x.A.t # T ~ ~ v   = - = + '.'.'.'.'.'.'.",
"'.'.'.'.'.'.'.  X 2 4 4 S f.e X c M N 3   : a .   '.'.'.'.'.'.'.",
"'.'.'.'.'.'.'.  X m c l l l % * 4 4 4 4 w :.G.;   '.'.'.'.'.'.'.",
"'.'.'.'.'.'.'.O ; t.) z b c b 7 $ # # w ^ T._.i   '.'.'.'.'.'.'.",
"'.'.'.'.'.  O -.>.`.R.' U Q ! ! T T E U  .u ; '.'.'.'.'.'.'.'.'.",
"'.'.'.'.  1 s U.R._.J.: d { { { { { } $.g.K H &   '.'.'.'.'.'.'.",
"'.'.'.'.  p <.^.(.q.| * y %.%.%.} } %.$.j.d.u.%   '.'.'.'.'.'.'.",
"'.'.'.'.  a  .Q.Y.O * b J h.h.h.h.h.i.i.i.^ D %   '.'.'.'.'.'.'.",
"'.'.'.'.'.o o ; ;   3 Q r.h.h.h.j.J * $ $ $ X '.'.'.'.'.'.'.'.'.",
"'.'.'.'.'.'.'.'.'.'.* 3 6 9 9 9 9 A  .j a @   '.'.'.'.'.'.'.'.'.",
"'.'.'.'.'.'.'.'.'.'.'.            < 0.4.<.p : '.'.'.'.'.'.'.'.'.",
"'.'.'.'.'.'.'.'.'.'.'.'.'.'.'.'.  r 0.0.0.<.g +   '.'.'.'.'.'.'.",
"'.'.'.'.'.'.'.'.'.'.'.'.'.'.'.'.  r 0.0.0.<.g +   '.'.'.'.'.'.'.",
"'.'.'.'.'.'.'.'.'.'.'.'.'.'.'.'.  > <.<.<.k s +   '.'.'.'.'.'.'.",
"'.'.'.'.'.'.'.'.'.'.'.'.'.'.'.'.  @ a p p 1 < .   '.'.'.'.'.'.'.",
"'.'.'.'.'.'.'.'.'.'.'.'.'.'.'.'.'.'.          '.'.'.'.'.'.'.'.'."
};
