/* XPM */
static char *u4[] = {
/* columns rows colors chars-per-pixel */
"32 32 180 2 ",
"   c #010101",
".  c #0A0605",
"X  c #020B03",
"o  c #0C0904",
"O  c #0C0B0C",
"+  c #130E09",
"@  c #041405",
"#  c #081206",
"$  c #051C06",
"%  c #0E1A0A",
"&  c #1B140B",
"*  c #161505",
"=  c #0F0F10",
"-  c #001112",
";  c #361E0F",
":  c #2A1813",
">  c #2E1A10",
",  c #03230A",
"<  c #0A2509",
"1  c #062A0E",
"2  c #082B09",
"3  c #072307",
"4  c #142C09",
"5  c #0A3C0B",
"6  c #0A380A",
"7  c #17370A",
"8  c #0C201D",
"9  c #073211",
"0  c #232201",
"q  c #392915",
"w  c #272C17",
"e  c #0E1A25",
"r  c #16272E",
"t  c #203737",
"y  c #4B2915",
"u  c #442716",
"i  c #54321A",
"p  c #553F1B",
"a  c #522E18",
"s  c #6C3B1C",
"d  c #66391C",
"f  c #703E1D",
"g  c #5D3F21",
"h  c #0C420D",
"j  c #16410E",
"k  c #0D4414",
"l  c #0D4D14",
"z  c #084718",
"x  c #094C1A",
"c  c #134E10",
"v  c #0D5316",
"b  c #0D5C1C",
"n  c #0C521C",
"m  c #135F1A",
"M  c #1A5A18",
"N  c #254919",
"B  c #2A5311",
"V  c #0F641E",
"C  c #1D681A",
"Z  c #216818",
"A  c #296B1B",
"S  c #2D7F1F",
"D  c #1A5935",
"F  c #2B5821",
"G  c #0F6B22",
"H  c #0D6521",
"J  c #0F7226",
"K  c #0F7B29",
"L  c #0B7528",
"P  c #117526",
"I  c #1C7528",
"U  c #107C29",
"Y  c #2B7F20",
"T  c #4C4B00",
"R  c #52431A",
"E  c #605C02",
"W  c #724F1D",
"Q  c #557408",
"!  c #7E621E",
"~  c #5B4525",
"^  c #674821",
"/  c #694523",
"(  c #7B4825",
")  c #77572C",
"_  c #654A3A",
"`  c #4E622C",
"'  c #556C3B",
"]  c #776B2E",
"[  c #2F4256",
"{  c #04655F",
"}  c #376A54",
"|  c #056960",
" . c #607949",
".. c #82532A",
"X. c #88582D",
"o. c #8B5E3C",
"O. c #8B682D",
"+. c #8A6837",
"@. c #946633",
"#. c #916D3A",
"$. c #9B6D36",
"%. c #9B792E",
"&. c #986C48",
"*. c #A47B41",
"=. c #A37A57",
"-. c #897C67",
";. c #2C811F",
":. c #168029",
">. c #1D8629",
",. c #218A29",
"<. c #298724",
"1. c #358E23",
"2. c #36852F",
"3. c #2F9529",
"4. c #3A9124",
"5. c #3B9826",
"6. c #3A9E29",
"7. c #379629",
"8. c #3DA129",
"9. c #589214",
"0. c #7D8001",
"q. c #6D8410",
"w. c #618509",
"e. c #548226",
"r. c #578E2B",
"t. c #7E8E31",
"y. c #41A429",
"u. c #41A82A",
"i. c #7BAA39",
"p. c #5D8055",
"a. c #61A673",
"s. c #849605",
"d. c #97A315",
"f. c #A9A800",
"g. c #A5A303",
"h. c #B1B501",
"j. c #ADBB08",
"k. c #AF8B3A",
"l. c #B48F39",
"z. c #82BD25",
"x. c #86C71B",
"c. c #8BC013",
"v. c #AEC105",
"b. c #BCDD10",
"n. c #BEC422",
"m. c #CCD102",
"M. c #DDCB1D",
"N. c #E1CF18",
"B. c #E7D819",
"V. c #DDEF1E",
"C. c #DDF01E",
"Z. c #E0E100",
"A. c #F4EF08",
"S. c #EEF00B",
"D. c #F4F008",
"F. c #E4CB26",
"G. c #AE864E",
"H. c #B58945",
"J. c #97856B",
"K. c #B38C61",
"L. c #B19678",
"P. c #D19E4D",
"I. c #C89D48",
"U. c #D1AA46",
"Y. c #C29E6D",
"T. c #C49E77",
"R. c #C6A36E",
"E. c #4D6680",
"W. c #596D82",
"Q. c #37939D",
"!. c #1DBBD7",
"~. c #959799",
"^. c #8B8C8D",
"/. c #AFA096",
"(. c #DBBB92",
"). c #F1D6AB",
"_. c #F7DCB2",
"`. c #FAE0B7",
"'. c #E0E5EA",
"]. c #489848",
/* pixels */
"].].].].].].].].].].].].].].].].].].].].].].].].].].].].].].].].",
"].].].].].].].].].].].].].].].].].].].].].].].].].].].].].].].].",
"].].].].].].].].].].].].].].].].].].].].].].].].].].].].].].].].",
"].].].].].].].].].].].( %.k.k.k.k.O.& & ].].].].].].].].].].].].",
"].].].].].].].].].*.H.I.F.A.A.A.D.B.I.)   ].].].].].].].].].].].",
"].].].].].].( $.l.N.M.i.z.x.x.x.x.z.z.r.A 4   ].].].].].].].].].",
"].].].].].$.@.] t.b.z.S Y Y <.S <.;.;.;.<.N 7 ].].].].].].].].].",
"].].].].*.U.U.2.I 5.S c c c c c c c c c c S 7.< @ ].].].].].].].",
"].].].].*.M.S.4.J c Z 5.5.5.5.5.5.5.5.5.5.Z c V b X   ].].].].].",
"].].].].].q.w.M v 5 C u.y.y.y.y.y.y.y.y.u.1.;.m z     ].].].].].",
"].].].].].F 5 h h v C 3.8.y.y.y.y.y.y.y.u.1.;.m k $ w ].].].].].",
"].].G.T.(.' h c v G J U <.y.6.8.y.y.y.y.y.Z l V G h ' (.R.G.].].",
"/ &.)._.`. .h V V @ 9 U U :.U >.5.u.y.y.u.<.G v h 5  .`._.).&.s ",
"].o.=.K.R.` 5 v k   1 U U U U U ,.,.,.,.,.:.L 1 3 5 ` R.K.=.o.].",
"].].f ..@.} | x 6 $ 1 x V V U U U K K P L P V @ - { } @...s ].].",
"].].].].d Q.!.D j h 2 X 3 5 V P U K U U L v 6 o r !.Q.d ].].].].",
"].].].].. d.V.! R j h 6 $ X 6 v P U U L K 9 o a ! V.d.o ].].].].",
"].].].].].T E @.%.j.v.v.Q , $ $ l V U U K 1 . ) O.E T ].].].].].",
"].].].].].].  ~ ! g.f.f.0.w.7 @ 3 5 V V V <   ~ ~   ].].].].].].",
"].].].].].].].      X X 0.Z.w.B X # h h h @       ].].].].].].].",
"].].].].].].].].].  @ 5 4 0 h.m.* # h h h @       ].].].].].].].",
"].].].].].].].  @ z c R N x 9.9.7 3 @ @ @ X O ^.~.= ].].].].].].",
"].].].].].].].e t a. .a F :.:.P b l 1 3 @ X + /./.O   ].].].].].",
"].].].].].O = [ W.'.~.  k I P P I I I m j < o i i .   ].].].].].",
"].].].].  u d / _ E.[   q / W ^ ^ ^ / / d F H % . ].].].].].].].",
"].].].].  y ..T.L.r % 1 F e.' e.e.e.e.e.e.y.3.m z X ].].].].].].",
"].].].].  ; a J.-.. $ b <.y.u.y.3.3.A A A A A n z X ].].].].].].",
"].].].].].          1 G <.4.4.1.P n & + + = +     ].].].].].].].",
"].].].].].].].].].].].X # # @ # X w #.#.#.#.+.&   ].].].].].].].",
"].].].].].].].].].].].].].].].].].& q g X.X...q :   ].].].].].].",
"].].].].].].].].].].].].].].].].].].  : y y y ; :   ].].].].].].",
"].].].].].].].].].].].].].].].].].].].].          ].].].].].].]."
};
