/* XPM */
static char *u5[] = {
/* columns rows colors chars-per-pixel */
"32 32 181 2 ",
"   c #010101",
".  c #020B04",
"X  c #0C0804",
"o  c #060A0E",
"O  c #0B080D",
"+  c #140B06",
"@  c #170D09",
"#  c #041306",
"$  c #081306",
"%  c #041C06",
"&  c #031309",
"*  c #0A1909",
"=  c #1E1109",
"-  c #071C12",
";  c #1A1612",
":  c #25140B",
">  c #28160C",
",  c #2A180C",
"<  c #291712",
"1  c #361E16",
"2  c #072407",
"3  c #062A0C",
"4  c #092B09",
"5  c #08270A",
"6  c #142C08",
"7  c #09330C",
"8  c #0B3C0C",
"9  c #063C0C",
"0  c #0F2210",
"q  c #062F10",
"w  c #0B3211",
"e  c #17390E",
"r  c #262501",
"t  c #38291D",
"y  c #38231B",
"u  c #293616",
"i  c #162637",
"p  c #392C2C",
"a  c #4C2A15",
"s  c #553F1B",
"d  c #6E3C1C",
"f  c #66391C",
"g  c #703F1E",
"h  c #0C420D",
"j  c #14410E",
"k  c #1B4D0C",
"l  c #094415",
"z  c #0D4911",
"x  c #0A4D1A",
"c  c #094718",
"v  c #134E10",
"b  c #0D5B1C",
"n  c #0C5215",
"m  c #115F1E",
"M  c #1B5A15",
"N  c #24550C",
"B  c #2C4312",
"V  c #374A05",
"C  c #0E621E",
"Z  c #0F681F",
"A  c #196117",
"S  c #206818",
"D  c #2B6B1B",
"F  c #2C7E1F",
"G  c #285121",
"H  c #0D6622",
"J  c #0F6C23",
"K  c #0F7426",
"L  c #0E7B2A",
"P  c #107526",
"I  c #1C7428",
"U  c #127D29",
"Y  c #1D7A24",
"T  c #2E6023",
"R  c #2B7F20",
"E  c #247C20",
"W  c #4B4C00",
"Q  c #5E5C03",
"!  c #534D1F",
"~  c #77491D",
"^  c #7C541B",
"/  c #577B09",
"(  c #7D7F01",
")  c #5B4525",
"_  c #4B4034",
"`  c #674821",
"'  c #604727",
"]  c #784726",
"[  c #7A4A27",
"{  c #725828",
"}  c #4D642F",
"|  c #556C3B",
" . c #776123",
".. c #273E53",
"X. c #294052",
"o. c #2B4967",
"O. c #3B5C7E",
"+. c #484A52",
"@. c #4B4249",
"#. c #607A49",
"$. c #825B1B",
"%. c #814F27",
"&. c #845329",
"*. c #915F2F",
"=. c #8B5E3C",
"-. c #9B762D",
";. c #966833",
":. c #9E743D",
">. c #8B652D",
",. c #A87A39",
"<. c #996D49",
"1. c #A37A57",
"2. c #2C811E",
"3. c #158029",
"4. c #218929",
"5. c #288523",
"6. c #368F23",
"7. c #2E9328",
"8. c #399124",
"9. c #3B9826",
"0. c #309629",
"q. c #3D9028",
"w. c #369C29",
"e. c #3B9F29",
"r. c #3CA029",
"t. c #4E931B",
"y. c #5E8308",
"u. c #638609",
"i. c #7D8001",
"p. c #6D8410",
"a. c #66AB1A",
"s. c #7DA80D",
"d. c #538126",
"f. c #568D2B",
"g. c #529F20",
"h. c #41A529",
"j. c #7CAB38",
"k. c #839605",
"l. c #A09A04",
"z. c #A9A800",
"x. c #A5A203",
"c. c #AFB401",
"v. c #ADBB08",
"b. c #AF8B3A",
"n. c #BD8F3C",
"m. c #83BF22",
"M. c #C4963B",
"N. c #DEBA36",
"B. c #86C71B",
"V. c #AEC105",
"C. c #B0C006",
"Z. c #BCD106",
"A. c #D0DB1C",
"S. c #DBC81C",
"D. c #E4DE04",
"F. c #F5DF1F",
"G. c #EBDA1A",
"H. c #E0E100",
"J. c #E7E703",
"K. c #F4EF08",
"L. c #F1EC06",
"P. c #F0F10A",
"I. c #E5E711",
"U. c #E3C730",
"Y. c #AE864E",
"T. c #B38C61",
"R. c #D6A44E",
"E. c #E4BB45",
"W. c #C29E6D",
"Q. c #C6A36E",
"!. c #94B499",
"~. c #9BA2AE",
"^. c #96BAA5",
"/. c #A7AEBA",
"(. c #CAA880",
"). c #DBBB92",
"_. c #F1D6AB",
"`. c #F7DCB2",
"'. c #FAE0B7",
"]. c #A4B3C4",
"[. c #489848",
/* pixels */
"[.[.[.[.[.[.[.[.[.[.[.[.[.[.[.[.[.[.[.[.[.[.[.[.[.[.[.[.[.[.[.[.",
"[.[.[.[.[.[.[.[.[.[.[.[.[.[.[.[.[.[.[.[.[.[.[.[.[.[.[.[.[.[.[.[.",
"[.[.[.[.[.[.[.[.[.[.[.[.[.[.[.[.[.[.[.[.[.[.[.[.[.[.[.[.[.[.[.[.",
"[.[.[.[.[.[.[.[.[.[.[.$.-.b.b.b.b.,.[ ] [.[.[.[.[.[.[.[.[.[.[.[.",
"[.[.[.[.[.[.[.~ &.R.U.L.L.K.K.K.K.G.R.{   [.[.[.[.[.[.[.[.[.[.[.",
"[.[.[.[.[.[.] ,.M.F.A.B.B.B.B.B.B.m.j.f.D 6   [.[.[.[.[.[.[.[.[.",
"[.[.[.[.[.*.;.N.U.V.s.F F 2.F F 2.2.2.2.6.M e [.[.[.[.[.[.[.[.[.",
"[.[.[.[.] M.E.I.Z.k h v v v v v v v v v v F 6.0 . [.[.[.[.[.[.[.",
"[.[.[.[.:.S.P.g.F h A 9.9.9.9.9.9.9.9.8.9.S v Z b .   [.[.[.[.[.",
"[.[.[.[.[.p.y.M n h A 3.w.h.h.h.h.h.h.h.h.6.5.A c     [.[.[.[.[.",
"[.[.[.[.[.G h h 8 5 z L 4.0.r.h.h.h.h.h.h.6.F 8 2 % u [.[.[.[.[.",
"[.[.Y.W.).| h z 8 # q K K U 0.r.9.h.h.h.h.S h . . 8 | ).W.Y.[.[.",
"g <._.`.'.#.h Z P J x . x U 3.3.U 4.h.h.h.4.P # . 9 #.'.`._.<.g ",
"[.=.1.T.Q.} h n b U C 4 3 3 z b P U 4.4.3.3.P # . 9 } Q.T.1.=.[.",
"[.[.d &.;.! B j z Z b h 4 # 2 7 m J U U U U K # X u ! ;.&.d [.[.",
"[.[.[.[.f ~ ^ B j h h j h h # . 7 z J J P P Z % + ^ ~ f [.[.[.[.",
"[.[.[.[.+ l.J.$.! j h h h h 8 7 . . . 3 z z h . r J.l.X [.[.[.[.",
"[.[.[.[.[.W Q >.-.v.V.V./ 9 h h 4 4 2 2 % # * ) { Q W [.[.[.[.[.",
"[.[.[.[.[.[.  '  .x.z.z.k.y.N l h N u.V     . ) )   [.[.[.[.[.[.",
"[.[.[.[.[.[.[.. .     . i.H./ N N / H.i.. .   . . [.[.[.[.[.[.[.",
"[.[.[.[.[.  . b Z 8 8 8 6 r c.H.J.c.6 6 8 7 8 H b .   [.[.[.[.[.",
"[.[.      i ..^.!.0 7 Z b x t.a.a.t.x b Z 7 0 !.^.y :       [.[.",
"[.+ > > < ..O.].~.O 3 U L L L L L L L L U 3 O ~./.@.p , > > + [.",
"  = g ] [ +.o.o...& w I I I I I I I I I I 7 o X.o.o.+.[ ] d :   ",
"  = d <.(._ o o - H T ` ` ` ` ` ` ` ` ` ` T H - o o _ (.<.` =   ",
"[.@ > t _ ;   l m 7.q.d.d.d.d.d.d.d.d.d.d.q.7.m l   ; _ t > + [.",
"[.[.          c m 7.w.h.h.h.h.h.h.h.h.h.h.w.7.m c           [.[.",
"[.[.[.[.[.    . * H Y 8.8.8.9.8.8.9.8.8.8.Y H &   [.[.[.[.[.[.[.",
"[.[.[.[.[.    1 1 & . $ $ $ $ $ & $ $ $ $ $ .         [.[.[.[.[.",
"[.[.[.[.[.[.[.@ @         [.[.[.[.    : a a a 1 <     [.[.[.[.[.",
"[.[.[.[.[.[.[.          [.[.[.[.[.[.  , a a a 1 <   [.[.[.[.[.[.",
"[.[.[.[.[.[.[.[.[.[.[.[.[.[.[.[.[.[.[.[.          [.[.[.[.[.[.[."
};
