/* XPM */
static char *u6[] = {
/* columns rows colors chars-per-pixel */
"32 32 176 2 ",
"   c #000101",
".  c #0B0505",
"X  c #020B04",
"o  c #0E0B04",
"O  c #0C0E0C",
"+  c #130D08",
"@  c #190F0A",
"#  c #120A06",
"$  c #031505",
"%  c #051B06",
"&  c #031508",
"*  c #0B1D08",
"=  c #061707",
"-  c #101001",
";  c #1C1C01",
":  c #1D150C",
">  c #171914",
",  c #29170C",
"<  c #321D0F",
"1  c #2D1914",
"2  c #062307",
"3  c #04250C",
"4  c #062A0C",
"5  c #082A09",
"6  c #0D2209",
"7  c #1A2102",
"8  c #0A3C0C",
"9  c #0A330E",
"0  c #062E10",
"q  c #073511",
"w  c #083A12",
"e  c #173512",
"r  c #173A0F",
"t  c #3B3C01",
"y  c #3E221B",
"u  c #0D3331",
"i  c #2A2A20",
"p  c #4A2915",
"a  c #4C2C1A",
"s  c #472614",
"d  c #5A311A",
"f  c #713F1E",
"g  c #673A1D",
"h  c #4D3229",
"j  c #653C26",
"k  c #0B430D",
"l  c #0B4411",
"z  c #0C4A11",
"x  c #0A4B19",
"c  c #094718",
"v  c #134D10",
"b  c #1B4512",
"n  c #0C5316",
"m  c #0E5B1B",
"M  c #0D551A",
"N  c #125C1A",
"B  c #185B17",
"V  c #29580B",
"C  c #28560B",
"Z  c #2A4614",
"A  c #384819",
"S  c #0E631E",
"D  c #1E6317",
"F  c #17671D",
"G  c #236419",
"H  c #246E1A",
"J  c #2A6A1B",
"K  c #29771C",
"L  c #2C7A1D",
"P  c #095F33",
"I  c #3D4E2A",
"U  c #0D6722",
"Y  c #0E6D24",
"T  c #106F24",
"R  c #0E7125",
"E  c #0F7C29",
"W  c #0F7628",
"Q  c #107426",
"!  c #117B29",
"~  c #177728",
"^  c #336626",
"/  c #237727",
"(  c #257237",
")  c #524713",
"_  c #585704",
"`  c #6F441B",
"'  c #546F05",
"]  c #5C7A08",
"[  c #4B5622",
"{  c #465B27",
"}  c #5E5F21",
"|  c #6D4D21",
" . c #654529",
".. c #734220",
"X. c #7C4C25",
"o. c #7A542C",
"O. c #795B30",
"+. c #5E7F34",
"@. c #536625",
"#. c #7E7B36",
"$. c #353F4C",
"%. c #5A5350",
"&. c #4C4B4C",
"*. c #5C7443",
"=. c #85552B",
"-. c #89582D",
";. c #835332",
":. c #8B6434",
">. c #916D3A",
",. c #917139",
"<. c #8A743A",
"1. c #A1773C",
"2. c #966B44",
"3. c #9C7146",
"4. c #9F7A59",
"5. c #A57C41",
"6. c #A67A43",
"7. c #2D811F",
"8. c #3F8D1D",
"9. c #1F8427",
"0. c #168029",
"q. c #198329",
"w. c #238B29",
"e. c #238127",
"r. c #338821",
"t. c #2E9429",
"y. c #389424",
"u. c #3B9926",
"i. c #3B9F29",
"p. c #349727",
"a. c #28873E",
"s. c #3FA229",
"d. c #638508",
"f. c #538425",
"g. c #5A8C2C",
"h. c #479828",
"j. c #4E8632",
"k. c #4D8326",
"l. c #659732",
"z. c #669832",
"x. c #41A429",
"c. c #42A82A",
"v. c #61B027",
"b. c #BDBD00",
"n. c #B69638",
"m. c #97A92A",
"M. c #C7A82B",
"N. c #ACD410",
"B. c #CDC505",
"V. c #DDE302",
"C. c #E4EB04",
"Z. c #AF8850",
"A. c #AA8253",
"S. c #B89260",
"D. c #B4916E",
"F. c #C89649",
"G. c #C1A949",
"H. c #C3A06C",
"J. c #1D6B86",
"K. c #327D80",
"L. c #057CA1",
"P. c #6E7C8D",
"I. c #0390A7",
"U. c #038DA6",
"Y. c #798291",
"T. c #D4B386",
"R. c #BCC6BF",
"E. c #D5C19F",
"W. c #E5C79E",
"Q. c #ECCFA7",
"!. c #E7C9A0",
"~. c #F3D8AD",
"^. c #BDC9C0",
"/. c #CED3C4",
"(. c #C7CCC4",
"). c #489848",
/* pixels */
").).).).).).).).).).).f :.6.1.5.6.O.    ).).).).).).).).).).).).",
").).).).).).).).).6.#.f.g.z.z.z.z.g.K b   ).).).).).).).).).).).",
").).).).).).).).).M.m.c.y.7.7.7.7.7.r.G r 6 ).).).).).).).).).).",
").).).).).).).6.n.C.N.u.H v v v v v v J u.b = ).).).).).).).).).",
").).).).)...X.F.G.v.8.v K u.u.u.u.u.u.K v L r.*   ).).).).).).).",
").).).).).....+.j.D H 7.y.x.s.x.x.x.x.y.L H D n x   ).).).).).).",
").).).).).-.o./ R k D x.x.x.x.x.x.x.x.x.c.L G S M     ).).).).).",
").).).).).,.<./ R z D s.s.x.x.x.x.x.x.x.x.i.y.B 8 X   ).).).).).",
").).).).f A b v v R W ! t.x.x.x.x.x.x.c.x.H v Y S     ).).).).).",
").).1.A.D.{ 8 S m 0 x ! q.w.i.x.x.x.x.s.x.~ S q 0 5 I T.D.1.).).",
").3.H.T.!.*.k Q U   3 U Q ! w.p.s.x.x.x.x.w.W &   8 +.!.T.H.3.).",
"f 2.Q.~.~.*.k Q T X = 8 m Q ! 0.s.x.s.s.s.e.Y $ X 8 *.~.~.Q.2.f ",
").).;.2.Z.{ l T T 8 2 X 5 z Y 0.i.x.x.t.0.N l X X 8 { Z.2.;.).).",
").).).X.=.K.U.P z k 8 5 2 $ l N 9.9.w.q.! 8 $ 2 u U.K.=.X.).).).",
").).).)...J.L.] ] A Z k 5 $ 2 9 R E E R S 3   ' f.U.J.f ).).).).",
").).).).).  o N.B.` ) C C C = X S W W m 8 $ o b.b.o   ).).).).).",
").).).).).).).; ; o _ C.C.V.A   k v z 5       ; 7 ).).).).).).).",
").).).).).).).  . s ) d.d.d.;   8 k k 2   * 5     ).).).).).).).",
").).).).).).).4 e [ A k z n q 4 5 5 5 2 & w M 0 4 ).).).).).).).",
").).).).).    ( a.Y S k S E E R % X X 5 v U ~ a.( O . ).).).).).",
").).).).).  O ^.R.> 0 W W ! ! W Q Y Y R W [ o./.(.h 1   ).).).).",
").).).).).  . &.%.a A E E E E E E E E E ! e 1 P.Y.j d p ,   ).).",
").).).).).).    o } @.^ ^ ^ ^ ^ ^ ^ ^ ^ ^ e & u $.4.2.X.<   ).).",
").).).).).).).  % p.k.| | | | | | | | | | A l $ i E.D.g <   ).).",
").).).).).).).  & ~ w.h.h.h.h.h.h.h.h.h.h.e.Y l 9 > > # . ).).).",
").).).).).).).).).0 x w.i.c.c.x.c.x.c.x.c.w.Q 4 = ).).).).).).).",
").).).).).).).).).  % x B J J J J J J J J N x &   ).).).).).).).",
").).).).).).).).).+ O + O .                   ).).).).).).).).).",
").).).).).).).  : :.>.>. .y #   ).).).).).).).).).).).).).).).).",
").).).).).).).  @ o.-.-.a @ . ).).).).).).).).).).).).).).).).).",
").).).).).).).  # s p p ,   ).).).).).).).).).).).).).).).).).).",
").).).).).).).).).      ).).).).).).).).).).).).).).).).).).).)."
};
