/* XPM */
static char *u7[] = {
/* columns rows colors chars-per-pixel */
"32 32 180 2 ",
"   c #000001",
".  c #0A0505",
"X  c #020C04",
"o  c #0C0805",
"O  c #0E0F0F",
"+  c #110D0A",
"@  c #120B07",
"#  c #031505",
"$  c #051B06",
"%  c #031B09",
"&  c #0A1B09",
"*  c #0B1308",
"=  c #151205",
"-  c #1E1E01",
";  c #18120B",
":  c #24130B",
">  c #28160B",
",  c #2C1B0F",
"<  c #2D1A13",
"1  c #391F17",
"2  c #052408",
"3  c #05290C",
"4  c #082A09",
"5  c #0B2308",
"6  c #0C350B",
"7  c #0A3D0D",
"8  c #05320D",
"9  c #173A0F",
"0  c #10320F",
"q  c #0A3812",
"w  c #183910",
"e  c #142E07",
"r  c #222D03",
"t  c #362214",
"y  c #3B3416",
"u  c #2C320C",
"i  c #132830",
"p  c #3B2D2D",
"a  c #292B2A",
"s  c #4B2915",
"d  c #45261D",
"f  c #403A15",
"g  c #543A1F",
"h  c #66391D",
"j  c #703E1D",
"k  c #4E3320",
"l  c #5C3B26",
"z  c #603A25",
"x  c #09420B",
"c  c #15450F",
"v  c #0B4412",
"b  c #0D4A12",
"n  c #084818",
"m  c #1A4411",
"M  c #134D10",
"N  c #134610",
"B  c #0E5817",
"V  c #0D551A",
"C  c #0D5A1B",
"Z  c #165814",
"A  c #344315",
"S  c #3E4A03",
"D  c #0E621D",
"F  c #1E6317",
"G  c #11631D",
"H  c #17671B",
"J  c #246D19",
"K  c #2B671B",
"L  c #2B7A1D",
"P  c #094F27",
"I  c #0B5634",
"U  c #3F5D31",
"Y  c #375D22",
"T  c #0F6C22",
"R  c #106E22",
"E  c #0F7326",
"W  c #0F7A29",
"Q  c #107526",
"!  c #107B29",
"~  c #2B6622",
"^  c #366426",
"/  c #27762B",
"(  c #297829",
")  c #247234",
"_  c #397F3D",
"`  c #5D541F",
"'  c #415806",
"]  c #605D03",
"[  c #68401D",
"{  c #646601",
"}  c #7C7A00",
"|  c #515523",
" . c #52493C",
".. c #5F4723",
"X. c #6A4428",
"o. c #724120",
"O. c #784723",
"+. c #794824",
"@. c #7D4C2B",
"#. c #774E2C",
"$. c #7E5629",
"%. c #795A31",
"&. c #576E3B",
"*. c #5A6B3A",
"=. c #4D6135",
"-. c #626324",
";. c #68792D",
":. c #23364A",
">. c #565A55",
",. c #7A5D4A",
"<. c #5D7645",
"1. c #786356",
"2. c #5F6772",
"3. c #885A2E",
"4. c #83582A",
"5. c #8E6424",
"6. c #8D6735",
"7. c #936635",
"8. c #9F743D",
"9. c #93753A",
"0. c #8A7439",
"q. c #996E48",
"w. c #936644",
"e. c #9A7A40",
"r. c #A47B41",
"t. c #A67A42",
"y. c #2E811F",
"u. c #178129",
"i. c #1C8629",
"p. c #1D8427",
"a. c #288D28",
"s. c #268A29",
"d. c #399325",
"f. c #3B9926",
"g. c #399E29",
"h. c #349929",
"j. c #2A833F",
"k. c #339026",
"l. c #3EA129",
"z. c #408D1D",
"x. c #67870A",
"c. c #41A429",
"v. c #55AD25",
"b. c #7CA140",
"n. c #979800",
"m. c #A9A300",
"M. c #A18330",
"N. c #A29134",
"B. c #BBAA33",
"V. c #CDB81F",
"C. c #D0AF2A",
"Z. c #C5A82A",
"A. c #ACD410",
"S. c #B9D41C",
"D. c #BEE20D",
"F. c #B5CA26",
"G. c #E0DE04",
"H. c #E2D217",
"J. c #E4E804",
"K. c #BA8541",
"L. c #AEB045",
"P. c #A9AB45",
"I. c #BA9562",
"U. c #A7E559",
"Y. c #2C89A0",
"T. c #798CA2",
"R. c #02A7D9",
"E. c #B8B3A0",
"W. c #CDAB85",
"Q. c #D6B68C",
"!. c #D2BE9D",
"~. c #BBC6BF",
"^. c #DFC091",
"/. c #E8CB9F",
"(. c #E0C293",
"). c #E8CBA3",
"_. c #F2D6AE",
"`. c #D1D2C4",
"'. c #D7E4DB",
"]. c #489848",
/* pixels */
"].].].].].].].].].].].O.6.t.t.r.r.%..   ].].].].].].].].].].].].",
"].].].].].].].].].r.t.K.C.H.H.H.H.V.9...  ].].].].].].].].].].].",
"].].].].].].].].].Z.B.P.F.D.D.D.D.S.L.;.9 5 ].].].].].].].].].].",
"].].].].].].].9.N.J.A.f.f.f.f.d.f.f.f.f.d.m * ].].].].].].].].].",
"].].].].].o.o./ s.v.z.M M M M M M M M M M L k.&   ].].].].].].].",
"].].].].].7.6./ Q F J y.y.y.L s.y.y.y.y.y.J F V n X ].].].].].].",
"].].].].].t.e.( E x J c.c.c.c.c.c.c.c.c.c.L J H V     ].].].].].",
"].].].].].e.0./ H M J c.c.c.c.c.c.c.c.c.c.l.d.M 7 X * ].].].].].",
"].].r.I.Q.*.m b Z d.g.c.c.c.c.c.c.c.c.l.l.F M R T 7 =.Q.I.r.].].",
"o.q.(.)._.<.x D C 9 K c.c.l.c.c.c.c.c.l.c.( T Q Q x <._.).^.q.j ",
"j w.W.Q.(.&.x D V   0 k.l.l.l.c.c.c.l.l.h.i.! T C x &.(.Q.W.w.j ",
"].].o.3.8.U P v 6   3 E a.l.c.c.c.l.l.a.! E T b N P U 8.3.o.].].",
"].].].+.+.Y.R.I 6   # b G u.h.c.c.h.u.u.! 8 # 6 I R.Y.+.+.].].].",
"].].].].> b.U.-.y 4 2 $ V W i.s.a.i.u.D B %   y -.U.b.> ].].].].",
"].].].].  } m.5.5.x.S   n W W W W W T n 4 S ] $.5.m.}   ].].].].",
"].].].].].  o %.M.G.n.X q Q W W W D x e - n.G.M.%..   ].].].].].",
"].].].].].].].+ = - =   3 M R ! u.C X { G.{ - = + ].].].].].].].",
"].].].].].].].  X n v 4 $ # v C C x   u x.r   ].].].].].].].].].",
"].].].].].].].3 q ^ ~ V v 3 4 4 4 2 % 4 7 8 3 ].].].].].].].].].",
"].].].].].  X ) _ o.| ! ! W 3 X # % b N m ) j.&   ].].].].].].].",
"].].].].].  O ~.`.@.| W ! ! Q T T T Q Y h E.'.a   ].].].].].].].",
"].].].].].].].>.>.~ ^ | | | | | | | | f > 2.T.p >   ].].].].].].",
"].].].].].].].  # p.^ s s s | -.-.-.-.A # i :.1.,.< : ].].].].].",
"].].].].].].].  & d.K o ; ; K f.c.c.c.L b $ + !.).@.s   ].].].].",
"].].].].].].].  X N A h %.6.t 3 d.c.c.a.E 3 + !.).@.s   ].].].].",
"].].].].].].].].].# y 6.8.r.k < w w w 0 3 % ]. . ., : ].].].].].",
"].].].].].].].].].> g r.r.r.z d .         ].].      ].].].].].].",
"].].].].].].].  o h 4.r.r.r.l t .   ].].].].].].].].].].].].].].",
"].].].].].].].  o d #.r.t.e.t . ].].].].].].].].].].].].].].].].",
"].].].].].].].  o d z 3.#.X.;   ].].].].].].].].].].].].].].].].",
"].].].].].].].  o < 1 s t < o   ].].].].].].].].].].].].].].].].",
"].].].].].].].].].              ].].].].].].].].].].].].].].].]."
};
