/* XPM */
static char *u8[] = {
/* columns rows colors chars-per-pixel */
"32 32 176 2 ",
"   c #000101",
".  c #0B0604",
"X  c #020E05",
"o  c #0C0805",
"O  c #0E0C0B",
"+  c #130B07",
"@  c #160E08",
"#  c #031405",
"$  c #081506",
"%  c #051B06",
"&  c #031608",
"*  c #031C09",
"=  c #0C1709",
"-  c #151205",
";  c #1E1E01",
":  c #0F1D10",
">  c #1C1917",
",  c #2A160B",
"<  c #25160C",
"1  c #361E0F",
"2  c #2C1C13",
"3  c #371E15",
"4  c #062207",
"5  c #062A0E",
"6  c #082A09",
"7  c #072409",
"8  c #0B350B",
"9  c #093C0C",
"0  c #17390F",
"q  c #0A3A14",
"w  c #132706",
"e  c #2B2012",
"r  c #382713",
"t  c #3E3214",
"y  c #2D3F16",
"u  c #122730",
"i  c #322D27",
"p  c #492A15",
"a  c #452612",
"s  c #532E1E",
"d  c #493619",
"f  c #6B3C1D",
"g  c #703E1D",
"h  c #5B3D20",
"j  c #6A3F25",
"k  c #0B440D",
"l  c #19410F",
"z  c #0B4413",
"x  c #0E4A11",
"c  c #094C19",
"v  c #134E10",
"b  c #1B4912",
"n  c #0D5215",
"m  c #0C561B",
"M  c #0D5B19",
"N  c #145B18",
"B  c #29580D",
"V  c #354618",
"C  c #36490C",
"Z  c #0E631D",
"A  c #1E6015",
"S  c #24671B",
"D  c #23751E",
"F  c #34791B",
"G  c #094F27",
"H  c #0C5F20",
"J  c #0B5634",
"K  c #3F5D31",
"L  c #365C23",
"P  c #0C6521",
"I  c #0F6D23",
"U  c #0F7426",
"Y  c #0F7A29",
"T  c #117526",
"R  c #117C29",
"E  c #1D7726",
"W  c #236823",
"Q  c #327E20",
"!  c #257130",
"~  c #514019",
"^  c #605D03",
"/  c #6B411E",
"(  c #426007",
")  c #646701",
"_  c #7C7A00",
"`  c #564922",
"'  c #515423",
"]  c #6B4A27",
"[  c #734120",
"{  c #784723",
"}  c #794824",
"|  c #7F4F2D",
" . c #785931",
".. c #7F5625",
"X. c #4E6335",
"o. c #576E3B",
"O. c #526824",
"+. c #636324",
"@. c #69682E",
"#. c #70612D",
"$. c #767738",
"%. c #2B3E51",
"&. c #5F4A41",
"*. c #5E7646",
"=. c #70684F",
"-. c #5F6671",
";. c #814E2B",
":. c #85562C",
">. c #865B2C",
",. c #8E6424",
"<. c #976B38",
"1. c #9B743D",
"2. c #8D6735",
"3. c #A0783F",
"4. c #996E48",
"5. c #936644",
"6. c #A47B41",
"7. c #2E811F",
"8. c #168129",
"9. c #1D8227",
"0. c #228B29",
"q. c #2B8B26",
"w. c #2C9329",
"e. c #399225",
"r. c #3B9926",
"t. c #349929",
"y. c #3C9F29",
"u. c #2A833F",
"i. c #3EA129",
"p. c #69870B",
"a. c #66AC1B",
"s. c #548226",
"d. c #41A529",
"f. c #40A82A",
"g. c #7CA140",
"h. c #929200",
"j. c #A9A300",
"k. c #A1B104",
"l. c #848C3C",
"z. c #AD9620",
"x. c #A18330",
"c. c #A4BC21",
"v. c #D1BD0B",
"b. c #D7B724",
"n. c #BEE20E",
"m. c #B4C927",
"M. c #DDCC13",
"N. c #E0DD04",
"B. c #E2D217",
"V. c #E2E902",
"C. c #B6905F",
"Z. c #BD8C48",
"A. c #A8A945",
"S. c #A1806C",
"D. c #AB8E71",
"F. c #BA9562",
"G. c #E2AB54",
"H. c #CAA77F",
"J. c #A7E559",
"K. c #2C89A0",
"L. c #02A7D9",
"P. c #B7A58C",
"I. c #8295A9",
"U. c #9CBBA1",
"Y. c #B8B3A0",
"T. c #CDAB85",
"R. c #D6B68C",
"E. c #CDB390",
"W. c #DFC091",
"Q. c #E3C597",
"!. c #DCCCAD",
"~. c #EBCDA3",
"^. c #F2D7AE",
"/. c #D8D7D8",
"(. c #DBE6DD",
"). c #489848",
/* pixels */
").).).).).).).).).).).).[ [ <.6.6.6.6.` X ).).).).).).).).).).).",
").).).).).).).).).6.Z.G.b.v.M.B.B.B.B.z.] e   ).).).).).).).).).",
").).).).).).).).).$.l.A.m.n.n.n.n.M.n.c.l.V 5 ).).).).).).).).).",
").).).).).).).1.$.I 0.r.d.e.r.r.w.d.e.d.r.0.T #   ).).).).).).).",
").).).).).[ / V b x x v v v v v v v v v v 7.t.%   ).).).).).).).",
").).).).).<.2.W M k N Q 7.7.7.7.7.7.7.7.7.D A 9 6   ).).).).).).",
").).).).).#.@.W Z M D d.d.d.d.d.i.f.f.f.d.D n k 8     ).).).).).",
").).).:.| V k k n Y 9.d.d.d.d.d.i.i.f.d.y.7.I n 9 # O ).).).).).",
").).6.C.H.X.k Z R Y 0.i.d.d.d.d.i.i.d.w.8.M x I I 8 X.R.C.3.).).",
"g 4.R.~.^.*.9 5 q Y 8.0.t.d.d.d.f.i.0.9.Y q % I U k *.^.Q.Q.4.g ",
"g 5.T.R.Q.o.9 % 4 c Z Y w.d.d.d.t.0.Y Y R 5   M Z k o.Q.R.T.5.g ",
").).{ >.1.K G z 8   5 Y 0.i.y.t.8.R R Y U 5   8 x G K 1.>.[ ).).",
").).).} } K.L.J 8   5 Y R 8.8.8.R T R Z k %   8 J L.K.} } ).).).",
").).).)., g.J.+.t   % N I R R Y R T M 9 % w 6 d +.J.g., ).).).).",
").).).).  _ j.,...^ C 6 m R R Y R P 6 7 # B p.>.,.j._   ).).).).",
").).).).).  o  .x.N.h.  z U Y R R m   w B k.N.x. ..   ).).).).).",
").).).).).).).@ - ; -   6 x I R n 8   ) V.) ; - O ).).).).).).).",
").).).).).).).  o a ,   7 k n x % 4 c F a.B 4     ).).).).).).).",
").).).).).).).  < S.=.5 6 6 6 6 5 q R U Z M n X   ).).).).).).).",
").).).).).).).  i /.U.E q X X * U R R N l ! u.: . ).).).).).).).",
").).).).).).).).).> i ] L U P U Y I x V / Y.(.&.3     ).).).).).",
").).).).).).).  & G A s.O.' ' ' ' ' ~ a , -.I.P.D.s r   ).).).).",
").).).).).).).  & T 0.f.s.+.+.+.+.+.+.V # u %.!.~.;.p   ).).).).",
").).).).).).).  & P E e.e.e.i.i.d.d.d.D x % O P.E.[ a   ).).).).",
").).).).).).).).).X # $ o $ F i.d.d.d.q.U 5   > > O o ).).).).).",
").).).).).).).).).  @ p ` ] V 0 0 0 0 8 5 * ).).).).).).).).).).",
").).).).).).).).)., p :.<.6.2             ).).).).).).).).).).).",
").).).).).).).  + f :.6.6.6.2   ).).).).).).).).).).).).).).).).",
").).).).).).).  + f :.6.6.3.2   ).).).).).).).).).).).).).).).).",
").).).).).).).  + s j :.:.:.<   ).).).).).).).).).).).).).).).).",
").).).).).).).  o 2 3 p p p @   ).).).).).).).).).).).).).).).).",
").).).).).).).).).          ).).).).).).).).).).).).).).).).).)."
};
