/* XPM */
static char *u9[] = {
/* columns rows colors chars-per-pixel */
"32 32 178 2 ",
"   c #010101",
".  c #0A0605",
"X  c #020C04",
"o  c #0D0804",
"O  c #030508",
"+  c #140E09",
"@  c #120A06",
"#  c #041306",
"$  c #081206",
"%  c #051B06",
"&  c #051D09",
"*  c #0E1C08",
"=  c #1B140B",
"-  c #171605",
";  c #361E0F",
":  c #2A1813",
">  c #2E1A10",
",  c #052A0E",
"<  c #082A09",
"1  c #082409",
"2  c #122E0C",
"3  c #0A3C0C",
"4  c #08360A",
"5  c #16370C",
"6  c #072815",
"7  c #073713",
"8  c #222201",
"9  c #272919",
"0  c #392915",
"q  c #243410",
"w  c #1C252F",
"e  c #4A2915",
"r  c #442617",
"t  c #543219",
"y  c #553F1B",
"u  c #6C3C1C",
"i  c #66391C",
"p  c #703E1D",
"a  c #5D3F21",
"s  c #0B420C",
"d  c #18420E",
"f  c #0C4514",
"g  c #0D4D14",
"h  c #084718",
"j  c #0A4B1B",
"k  c #064A16",
"l  c #134E10",
"z  c #0E5416",
"x  c #0B531C",
"c  c #0D5B1B",
"v  c #135D1B",
"b  c #185816",
"n  c #335B19",
"m  c #2A590C",
"M  c #0F651E",
"N  c #216818",
"B  c #296B1B",
"V  c #2D7F1F",
"C  c #1A5935",
"Z  c #2B5722",
"A  c #0C6623",
"S  c #0E6A22",
"D  c #0F7326",
"F  c #0F7B29",
"G  c #107425",
"H  c #1C7528",
"J  c #107C29",
"K  c #1B7823",
"L  c #2B7F20",
"P  c #227B22",
"I  c #4C4B00",
"U  c #505201",
"Y  c #605C02",
"T  c #67411E",
"R  c #4C7E13",
"E  c #7E621E",
"W  c #5B4525",
"Q  c #674821",
"!  c #684721",
"~  c #7B4825",
"^  c #77572C",
"/  c #684632",
"(  c #4E622C",
")  c #556C3B",
"_  c #796C29",
"`  c #192D41",
"'  c #3B3F47",
"]  c #2F4256",
"[  c #04675F",
"{  c #376A54",
"}  c #395361",
"|  c #056960",
" . c #6B4F46",
".. c #607A49",
"X. c #5C5F68",
"o. c #82532A",
"O. c #88582D",
"+. c #8B5E3C",
"@. c #8B682D",
"#. c #8A6837",
"$. c #946633",
"%. c #916D3A",
"&. c #9A6C32",
"*. c #9D703D",
"=. c #9B792E",
"-. c #986C48",
";. c #A47B41",
":. c #A37A57",
">. c #897C67",
",. c #2C811F",
"<. c #168029",
"1. c #1F8829",
"2. c #1A8329",
"3. c #288825",
"4. c #378D23",
"5. c #2E9429",
"6. c #399224",
"7. c #3B9926",
"8. c #3B9F29",
"9. c #379829",
"0. c #3DA129",
"q. c #5E8308",
"w. c #648609",
"e. c #6D8410",
"r. c #749407",
"t. c #5DA31B",
"y. c #548226",
"u. c #578E2B",
"i. c #41A529",
"p. c #41A82A",
"a. c #7BAA39",
"s. c #468D57",
"d. c #739179",
"f. c #63A571",
"g. c #919D03",
"h. c #97A315",
"j. c #B0BC06",
"k. c #A8A503",
"l. c #AF8B3A",
"z. c #B49039",
"x. c #82BD25",
"c. c #86C71B",
"v. c #8BC013",
"b. c #BCDC0F",
"n. c #BEC422",
"m. c #DCDF01",
"M. c #D5D111",
"N. c #E1CF18",
"B. c #E7D819",
"V. c #DDF01E",
"C. c #E6E904",
"Z. c #F4EF08",
"A. c #F4F008",
"S. c #E4CB26",
"D. c #AE864E",
"F. c #B58945",
"G. c #97856B",
"H. c #B38C61",
"J. c #B09779",
"K. c #D19E4D",
"L. c #C89D48",
"P. c #D1A945",
"I. c #C29E6D",
"U. c #C49E77",
"Y. c #C6A36E",
"T. c #4D6680",
"R. c #37929D",
"E. c #76A882",
"W. c #1DBDD7",
"Q. c #96999C",
"!. c #A6A2A6",
"~. c #DBBB92",
"^. c #A9CEB5",
"/. c #F1D6AB",
"(. c #F7DCB2",
"). c #FAE0B7",
"_. c #E1E3E6",
"`. c #489848",
/* pixels */
"`.`.`.`.`.`.`.`.`.`.`.`.`.`.`.`.`.`.`.`.`.`.`.`.`.`.`.`.`.`.`.`.",
"`.`.`.`.`.`.`.`.`.`.`.`.`.`.`.`.`.`.`.`.`.`.`.`.`.`.`.`.`.`.`.`.",
"`.`.`.`.`.`.`.`.`.`.`.`.`.`.`.`.`.`.`.`.`.`.`.`.`.`.`.`.`.`.`.`.",
"`.`.`.`.`.`.`.`.`.`.`.~ &.z.l.l.z.@.= = `.`.`.`.`.`.`.`.`.`.`.`.",
"`.`.`.`.`.`.`.`.`.l.D.L.S.A.A.A.Z.B.L.^   `.`.`.`.`.`.`.`.`.`.`.",
"`.`.`.`.`.`.~ *.z.B.n.a.x.c.c.c.c.x.a.u.B 2   `.`.`.`.`.`.`.`.`.",
"`.`.`.`.`.&.$.^ _ b.v.V L L ,.L ,.,.,.,.,.b 5 `.`.`.`.`.`.`.`.`.",
"`.`.`.`.;.P.P.n b 6.V l l l l l l l l l l ,.i.* X `.`.`.`.`.`.`.",
"`.`.`.`.;.N.C.6.S l N 7.7.7.7.7.7.7.7.6.8.N l M c X   `.`.`.`.`.",
"`.`.`.`.`.e.q.b v V 6.i.i.i.i.i.i.i.i.i.i.K M v f     `.`.`.`.`.",
"`.`.`.`.`.Z 3 s l 5.9.i.i.i.i.i.i.i.i.8.5.K M z g % 9 `.`.`.`.`.",
"`.`.D.Y.~.) s 4 f F 3.0.0.i.i.0.8.0.8.5.J z 3 G D s ) ~.I.D.`.`.",
"p -./.(.)...3 # & D J <.5.i.0.0.2.<.<.J J 7 X A D s ..).(./.-.p ",
"`.+.:.H.Y.( 4 X X g M F 2.3.3.1.J J J J J ,   f z s ( Y.H.:.+.`.",
"`.`.u o.$.{ [ 6 % 1 f F F F F F J J S c g , % 4 h | { $.o.u `.`.",
"`.`.`.`.i R.W.C 5   , F F F F J G M 3 1 X < s d C W.R.i `.`.`.`.",
"`.`.`.`.o h.V.@.t   , J J J J G z 4   1 4 s s W E V.h.o `.`.`.`.",
"`.`.`.`.`.U U @.^ . & z S J M g % % < < 3 r.j.=.@.U I `.`.`.`.`.",
"`.`.`.`.`.`.  W W . # s b M 3 1 , 5 w.w.w.g.k._ Q   `.`.`.`.`.`.",
"`.`.`.`.`.`.`.    X 1 4 3 4 # $ P t.m.C.C.U       `.`.`.`.`.`.`.",
"`.`.`.`.`.`.`.  # S j     X   - M.j.8 q m 1   `.`.`.`.`.`.`.`.`.",
"`.`.`.`.`.`.O ` } ^.E.x 1   7 v t.q.  , M z k #   `.`.`.`.`.`.`.",
"`.`.`.`.`.  O ' X.!.d.S h , A F F A , 7 x s.f.9 + `.`.`.`.`.`.`.",
"`.`.`.`.`.  . t t $ 1 d v H K K D G H h   Q._. .r + o `.`.`.`.`.",
"`.`.`.`.`.`.`.@ * A Z T Q Q Q Q Q Q ! 0 O ' T./ u i e   `.`.`.`.",
"`.`.`.`.`.`.  f c 5.i.) y.y.y.y.u.) R n 6 6 w J.U.o.e   `.`.`.`.",
"`.`.`.`.`.`.X h c B B B B B 5.9.i.p.p.3.x & . >.>.t ;   `.`.`.`.",
"`.`.`.`.`.`.`.    + + + - + x G 4.6.4.3.S ,           `.`.`.`.`.",
"`.`.`.`.`.`.`.  = #.%.%.%.%.9 X % $ $ # # `.`.`.`.`.`.`.`.`.`.`.",
"`.`.`.`.`.`.  : r o.O.O.W 0 = `.`.`.`.`.`.`.`.`.`.`.`.`.`.`.`.`.",
"`.`.`.`.`.`.  : ; r e e :   `.`.`.`.`.`.`.`.`.`.`.`.`.`.`.`.`.`.",
"`.`.`.`.`.`.`.          `.`.`.`.`.`.`.`.`.`.`.`.`.`.`.`.`.`.`.`."
};
