/* XPM */
static char *fire4[] = {
/* columns rows colors chars-per-pixel */
"32 32 103 2 ",
"   c #FF4D00",
".  c #FF4E00",
"X  c #FF4F00",
"o  c #FF4E01",
"O  c #FF4F01",
"+  c #FF4F02",
"@  c #FF5001",
"#  c #FF5002",
"$  c #FF5103",
"%  c #FF5204",
"&  c #FF5406",
"*  c #FF5506",
"=  c #FF5607",
"-  c #FF5708",
";  c #FF5809",
":  c #FF590A",
">  c #FF5A0A",
",  c #FF5B0A",
"<  c #FF5A0B",
"1  c #FF5B0B",
"2  c #FF5B0C",
"3  c #FF5A0D",
"4  c #FF5B0D",
"5  c #FF5C0C",
"6  c #FF5C0D",
"7  c #FF5D0D",
"8  c #FF5E0D",
"9  c #FF5F0D",
"0  c #FF650B",
"q  c #FF660B",
"w  c #FF670B",
"e  c #FF600C",
"r  c #FF610C",
"t  c #FF600D",
"y  c #FF620C",
"u  c #FF630C",
"i  c #FF640C",
"p  c #FF690B",
"a  c #FF6A0B",
"s  c #FF6C0A",
"d  c #FF6F0A",
"f  c #FF7B07",
"g  c #FF7D07",
"h  c #FF7E07",
"j  c #FF7F07",
"k  c #FF7009",
"l  c #FF7209",
"z  c #FF7309",
"x  c #FF7409",
"c  c #FF7509",
"v  c #FF7708",
"b  c #FF7908",
"n  c #FF7A08",
"m  c #FF8102",
"M  c #FF8006",
"N  c #FF8106",
"B  c #FF8206",
"V  c #FF8306",
"C  c #FF8405",
"Z  c #FF8605",
"A  c #FF8705",
"S  c #FF8406",
"D  c #FF8506",
"F  c #FF8B04",
"G  c #FF8A05",
"H  c #FF8D04",
"J  c #FF8E04",
"K  c #FF9003",
"L  c #FF9103",
"P  c #FF9203",
"I  c #FF9303",
"U  c #FF9403",
"Y  c #FF9503",
"T  c #FF9603",
"R  c #FF9703",
"E  c #FF9903",
"W  c #FF9D03",
"Q  c #FFA003",
"!  c #FFA702",
"~  c #FFB102",
"^  c #FFB402",
"/  c #FFC001",
"(  c #FFC101",
")  c #FFC201",
"_  c #FFC401",
"`  c #FFC601",
"'  c #FFC701",
"]  c #FFC801",
"[  c #FFC901",
"{  c #FFCA01",
"}  c #FFCB01",
"|  c #FFCD01",
" . c #FFD701",
".. c #FFDD00",
"X. c #FFDF00",
"o. c #FFE000",
"O. c #FFE200",
"+. c #FFE500",
"@. c #FFE600",
"#. c #FFE700",
"$. c #FFE800",
"%. c #FFE900",
"&. c #489848",
/* pixels */
"&.&.&.&.&.&.&.&.&.&.&.&.&.&.&.&.&.&.&.&.&.&.&.&.&.&.&.&.&.&.&.&.",
"&.&.&.&.&.&.&.&.&.&.&.&.&.&.&.&.&.&.&.&.&.&.&.&.&.&.&.&.&.&.&.&.",
"&.&.&.&.&.&.&.&.&.&.&.&.&.  &.&.&.&.&.&.&.&.&.&.&.&.&.&.&.&.&.&.",
"&.&.&.&.&.&.&.&.&.&.&.&.    &.&.&.&.&.&.&.&.&.&.&.&.&.&.&.&.&.&.",
"&.&.&.&.&.&.&.&.&.&.        &.&.&.&.&.&.&.    &.&.&.&.&.&.&.&.&.",
"&.&.&.&.&.&.&.&.&.&.        &.&.&.&.&.&.&.    &.&.&.&.&.&.&.&.&.",
"&.&.&.&.&.&.&.&.&.&.        &.&.&.&.&.5 1     &.&.&.&.&.&.&.&.&.",
"&.&.&.&.&.&.&.&.&.&.& & & & - &.&.&.1 - &     &.&.&.&.&.&.&.&.&.",
"&.&.&.&.&.&.&.&.&.&.5 5 9 3 9 3 5 5 -       O &.&.&.&.&.&.&.&.&.",
"&.&.&.&.&.&.&.&.&.5 5 5 9 3 3 9 5 3 3 * * * - &.&.&.&.&.&.&.&.&.",
"&.&.&.&.    &.&.9 9 t 5 9 9 9 9 5 9 9 9 3 5 9 &.&.    &.&.&.&.&.",
"&.&.&.&.&.&.&.&.3 9 9 5 z h a 5 3 9 3 9 9 5 9 3 1     &.&.&.&.&.",
"&.&.&.&.&.&.&.&.9 3 5 5 N T c 5 9 9 3 9 9 9 9 9 5     &.&.&.&.&.",
"&.&.&.&.&.&.    3 9 5 5 h T c 5 3 9 9 3 5 t 9 3 1         &.&.&.",
"&.&.&.&.&.&.  # 3 5 t i N T z 5 9 3 5 t t 5 5 5 1 #   #   &.&.&.",
"&.&.&.&.    1 5 3 5 M J J I z 3 3 9 z J h 5 5 5 5 1 1 5 5 &.&.&.",
"&.&.&.&.O & 3 9 5 5 N I I I b a t 9 z I N 9 5 a i 9 9 3 9 &.&.&.",
"&.&.&.&.5 5 3 3 t 5 S I I I I J b 3 z I N 3 a I A t 3 9 3 &.&.&.",
"&.&.&.&.5 5 9 9 9 9 N I J I I I N s h I N 9 i h b 9 3 9 9 &.&.&.",
"&.&.&.&.9 9 3 9 9 9 N I I I I I I I I I h 9 9 3 9 9 9 3 9 &.&.&.",
"&.&.&.& 5 5 5 9 3 9 N I I I I J I I I I A b z 9 9 3 9 3 3 &.&.&.",
"&.&.    5 5 5 9 9 9 N I J I I I I I I I I T S 9 9 9 3 9 9 &.&.&.",
"&.&.  O 3 5 9 5 c N J I I I ~ } ] ] ^ I I I J N v 9 9 &.&.&.&.&.",
"&.&.  O 3 9 9 t A I I I I I ) %.@.%.] T I I J I S t 9 &.&.&.&.&.",
"&.&.&.&.9 9 3 5 C T I I J I ) @.@.%... .^ I G s i t 5 &.&.&.&.&.",
"&.&.&.&.9 3 9 t N J I I E E ` %.@.@.O...} T C 5 9 5 3 &.&.&.&.&.",
"&.&.&.&.5 3 9 9 t i C P ) ..O.@.@.@.} T E I C t 3 O O &.&.&.&.&.",
"&.&.&.&.5 3 3 3 5 5 C P } @.@.@.@.%.| ! Q I C , -     &.&.&.&.&.",
"&.&.&.&.&.&.    1 5 C Y } %.@.@.@.@.@.O.} I M #   &.&.&.&.&.&.&.",
"&.&.&.&.&.&.    1 5 M Y ` @.@.@.@.@.@.%.} T m   &.&.&.&.&.&.&.&.",
"&.&.&.&.&.&.&.&.&.&.&.&.&.&.&.&.&.&.&.&.&.&.&.&.&.&.&.&.&.&.&.&.",
"&.&.&.&.&.&.&.&.&.&.&.&.&.&.&.&.&.&.&.&.&.&.&.&.&.&.&.&.&.&.&.&."
};
