/* XPM */
static char *fire1[] = {
/* columns rows colors chars-per-pixel */
"32 32 86 1 ",
"  c #FF4D00",
". c #FF4E01",
"X c #FF4F01",
"o c #FF5003",
"O c #FF5204",
"+ c #FF5305",
"@ c #FF5506",
"# c #FF5809",
"$ c #FF590A",
"% c #FF5B0B",
"& c #FF5A0D",
"* c #FF5B0D",
"= c #FF5C0C",
"- c #FF5C0D",
"; c #FF5D0D",
": c #FF5E0D",
"> c #FF5F0D",
", c #FF650B",
"< c #FF660B",
"1 c #FF670B",
"2 c #FF600C",
"3 c #FF620C",
"4 c #FF630C",
"5 c #FF640C",
"6 c #FF680B",
"7 c #FF690B",
"8 c #FF6D0A",
"9 c #FF6E0A",
"0 c #FF6F0A",
"q c #FF7C07",
"w c #FF7D07",
"e c #FF7E07",
"r c #FF7F07",
"t c #FF7009",
"y c #FF7109",
"u c #FF7209",
"i c #FF7509",
"p c #FF7808",
"a c #FF7908",
"s c #FF7A08",
"d c #FF8206",
"f c #FF8306",
"g c #FF8605",
"h c #FF8805",
"j c #FF8905",
"k c #FF8A04",
"l c #FF8B04",
"z c #FF8C04",
"x c #FF8D04",
"c c #FF8E04",
"v c #FF8F04",
"b c #FF9003",
"n c #FF9103",
"m c #FF9203",
"M c #FF9303",
"N c #FF9403",
"B c #FF9503",
"V c #FF9603",
"C c #FF9703",
"Z c #FF9903",
"A c #FF9A03",
"S c #FF9F03",
"D c #FFA702",
"F c #FFAC02",
"G c #FFB102",
"H c #FFB302",
"J c #FFB402",
"K c #FFB502",
"L c #FFB702",
"P c #FFBD01",
"I c #FFC901",
"U c #FFD201",
"Y c #FFD301",
"T c #FFD401",
"R c #FFD501",
"E c #FFD601",
"W c #FFD900",
"Q c #FFD801",
"! c #FFDB00",
"~ c #FFDD00",
"^ c #FFE000",
"/ c #FFE200",
"( c #FFE600",
") c #FFE700",
"_ c #FFE800",
"` c #489848",
/* pixels */
"````````````````````````````````",
"````````````````````````````````",
"````````````````` ``````````````",
"`````````````````  `````````````",
"`````````````````  `````````````",
"````````````````` o`````````````",
"``````````` `````;#  ```````````",
"``````````ooo````;#  ```````````",
"``````````;;;``;;;#  ```````````",
"``````````;;;``;;;;++```````````",
"``  ````;;;;;``;;;;;;````  `````",
"``@@````;;;;;``;;;;;;;```` `````",
"``;;````;;;;;``;;;;;;;;`````````",
"```````;;;;;;;;;;;;;;;;``;;`````",
"``````;;;;;;;;;;;;;;;;;``;;`````",
"``````;;;;;;;;;;7gw2;;;``;;`````",
"``````;;;;;;;;22uMg2;;;``;;`````",
"``;;``;;;;;;;;ujvMg;;;;;;;;;;```",
"``;;``;;;;572;uMMMg2;;;;;;;;;```",
"``;;;;;;;&iMa&8MMNg;;;;;;;;;;```",
"``;;;;;;7udMd8wMMMju8;;;;;;;;```",
"``;;;;;;wMMMMvMMMMMMj2;;;;;;;```",
"``;;;;;;wMMMMMMMSPGNvsi2;;;;;```",
"``;;;;;;wMMvMvMMF(YNMMv2;;;;;```",
"````;;;;wMMbMvDIY(ENvMvdw2;;;```",
"````;;;;wMMMNNK(((EANMMMv7;;;```",
"``````;;27wMGE~(((/EINMMv,;;;```",
"``````;;;&aMG~/((((_QAMvj,;;;```",
"``````;;;;aMNAP(((((QAv72;;`````",
"``````;;;;aMMMF(((((QAj2;;;`````",
"````````````````````````````````",
"````````````````````````````````"
};
