/* XPM */
static char *fire3[] = {
/* columns rows colors chars-per-pixel */
"32 32 119 2 ",
"   c #FF4C00",
".  c #FF4D00",
"X  c #FF4D01",
"o  c #FF4E01",
"O  c #FF4F01",
"+  c #FF4D02",
"@  c #FF4F02",
"#  c #FF4F03",
"$  c #FF5003",
"%  c #FF5103",
"&  c #FF5302",
"*  c #FF5104",
"=  c #FF5204",
"-  c #FF5305",
";  c #FF5406",
":  c #FF5506",
">  c #FF5607",
",  c #FF5A01",
"<  c #FF5B02",
"1  c #FF5608",
"2  c #FF5708",
"3  c #FF590A",
"4  c #FF5A0B",
"5  c #FF5B0B",
"6  c #FF5B0C",
"7  c #FF5A0D",
"8  c #FF5B0D",
"9  c #FF5C0C",
"0  c #FF5C0D",
"q  c #FF5D0D",
"w  c #FF5E0D",
"e  c #FF5F0D",
"r  c #FF5D0E",
"t  c #FF6601",
"y  c #FF6B01",
"u  c #FF6D03",
"i  c #FF6805",
"p  c #FF6D07",
"a  c #FF650B",
"s  c #FF660A",
"d  c #FF660B",
"f  c #FF670B",
"g  c #FF600C",
"h  c #FF610C",
"j  c #FF600D",
"k  c #FF620C",
"l  c #FF630C",
"z  c #FF640C",
"x  c #FF690A",
"c  c #FF690B",
"v  c #FF6B0A",
"b  c #FF6A0B",
"n  c #FF6D0A",
"m  c #FF6E0A",
"M  c #FF6F0A",
"N  c #FF7A02",
"B  c #FF7A07",
"V  c #FF7C07",
"C  c #FF7D07",
"Z  c #FF7E07",
"A  c #FF7009",
"S  c #FF7308",
"D  c #FF7209",
"F  c #FF7309",
"G  c #FF7509",
"H  c #FF7708",
"J  c #FF7808",
"K  c #FF7908",
"L  c #FF7A08",
"P  c #FF8306",
"I  c #FF8605",
"U  c #FF8705",
"Y  c #FF8406",
"T  c #FF8D03",
"R  c #FF8E03",
"E  c #FF8F03",
"W  c #FF8A04",
"Q  c #FF8A05",
"!  c #FF8C04",
"~  c #FF8D04",
"^  c #FF8E04",
"/  c #FF8F04",
"(  c #FF9003",
")  c #FF9103",
"_  c #FF9203",
"`  c #FF9303",
"'  c #FF9503",
"]  c #FF9603",
"[  c #FF9903",
"{  c #FF9A03",
"}  c #FF9B03",
"|  c #FF9C03",
" . c #FF9E03",
".. c #FFA202",
"X. c #FFA602",
"o. c #FFA902",
"O. c #FFAA02",
"+. c #FFAC02",
"@. c #FFB002",
"#. c #FFB602",
"$. c #FFBD01",
"%. c #FFBC02",
"&. c #FFC901",
"*. c #FFCE01",
"=. c #FFD101",
"-. c #FFD401",
";. c #FFD701",
":. c #FFD900",
">. c #FFDA00",
",. c #FFDB00",
"<. c #FFDD00",
"1. c #FFDE00",
"2. c #FFE300",
"3. c #FFE400",
"4. c #FFE500",
"5. c #FFE600",
"6. c #FFE700",
"7. c #FFE800",
"8. c #489848",
/* pixels */
"8.8.8.8.8.8.8.8.8.8.8.8.8.8.8.8.8.8.8.8.8.8.8.8.8.8.8.8.8.8.8.8.",
"8.8.8.8.8.8.8.8.8.8.8.8.8.8.8.8.8.8.8.8.8.8.8.8.8.8.8.8.8.8.8.8.",
"8.8.8.8.8.8.8.8.8.8.8.8.8.8.8.8.8.8.. 8.8.8.8.8.8.8.8.8.8.8.8.8.",
"8.8.8.8.8.8.8.8.8.8.8.8.8.8.8.8.8.. . 8.8.8.8.8.8.8.8.8.8.8.8.8.",
"8.8.8.8.8.8.8.8.8.8.8.8.8.q q 8.8.. . . . 8.8.8.8.8.8.8.8.8.8.8.",
"8.8.8.8.8.8.8.8.8.8.8.8.8.q q 8.8.$ $ . . 8.8.8.8.8.8.8.8.8.8.8.",
"8.8.8.8.8.8.8.. . 8.8.q q q q 8.8.5 3 $ . 8.8.8.8.8.. . 8.8.8.8.",
"8.8.8.8.8.8.8.. . 8.8.q q q q 8.8.q q : $ 8.8.8.8.8.. . 8.8.8.8.",
"8.8.8.8.8.8.8.8.8.8.8.q q q q q q q q q q q q 8.8.8.. . 8.8.8.8.",
"8.8.8.8.8.8.8.8.8.8.8.q q m m q q q q q q q q 8.8.8.. 8.8.8.8.8.",
"8.8.8.8.8.8.8.8.8.8.8.q z ~ ~ d q q q q q q q 8.8.8.8.8.8.8.8.8.",
"8.8.8.8.8.8.8.8.8.8.8.q z ~ ~ z q q q q q q q 3 8.8.8.8.8.8.8.8.",
"8.8.8.8.8.. . 8.8.8.8.q z ~ ~ d q q q q q q q : . . . . 8.8.8.8.",
"8.8.8.8.8.. . . . . * q j m m q q q q q q q q p N i 2 : . 8.8.8.",
"8.8.8.8.8.. . . . . $ q q q q q q q q q q q q J ` J q 2 . . 8.8.",
"8.8.8.8.8.. . . $ 3 3 q q q q q q q q B I m q z v j q 2 . . 8.8.",
"8.8.8.8.8.. . . * q q q q q q j l q q I ' m q q 8 q q 2 . $ 8.8.",
"8.8.8.. . . : 3 q q q q q q j I Q d q P ` m q q q q q q q 3 8.8.",
"8.8.8.$ $ * : q q q q q q v m W ` D v I ` m q q q q q q q q 8.8.",
"8.8.8.8 q q q q q q q q j W R ` ` R R ` ` m q q q q q q q q 8.8.",
"8.8.8.q q q q q q q j m D ~ ` ` ` ` ` ` R J m z q q q q q q 8.8.",
"8.8.8.q q q q q q q d ~ ` ` ` ` ` R ` ` ` ` ` D 8 q q q q q 8.8.",
"8.8.8.8.q q q q z H Z ` ` R ' #.%.%.%. .` ` ` P J v q q q q 8.8.",
"8.8.8.8.8.q q q v R ` ` ` ` { ,.6.6.6.o.` ` R ` ` J q q q q 8.8.",
"8.8.8.8.8.* 2 q v ` ` R ` ` { ,.6.2.6.=.&.X.) Z m d q q 8.8.8.8.",
"8.8.8.8.8.. * 8 v R R ` ` ' { ,.6.6.6.6.6.@.) D 8 q q q 8.8.8.8.",
"8.8.8.8.8.8.8.$ : , t R { *.-.6.6.6.6.6.6.@.` y . $ $ $ 8.8.8.8.",
"8.8.8.8.8.8.8.. . . , R { -.1.6.2.6.6.1.,.+.` y . . . . 8.8.8.8.",
"8.8.8.8.8.. * q q 8 d R ) { ..,.6.6.2.+.{ ' ` y . . 8.8.8.8.8.8.",
"8.8.8.8.8.. * q q q d R ) ) { ,.6.6.6.o.R ` ` y   8.8.8.8.8.8.8.",
"8.8.8.8.8.8.8.8.8.8.8.8.8.8.8.8.8.8.8.8.8.8.8.8.8.8.8.8.8.8.8.8.",
"8.8.8.8.8.8.8.8.8.8.8.8.8.8.8.8.8.8.8.8.8.8.8.8.8.8.8.8.8.8.8.8."
};
