/* XPM */
static char *fire2[] = {
/* columns rows colors chars-per-pixel */
"32 32 85 1 ",
"  c #FF4D00",
". c #FF4F01",
"X c #FF5002",
"o c #FF5506",
"O c #FF5607",
"+ c #FF5708",
"@ c #FF5809",
"# c #FF5B0B",
"$ c #FF5A0D",
"% c #FF5C0C",
"& c #FF5C0D",
"* c #FF5D0D",
"= c #FF5F0D",
"- c #FF650B",
"; c #FF660B",
": c #FF670B",
"> c #FF610C",
", c #FF620C",
"< c #FF630C",
"1 c #FF640C",
"2 c #FF650C",
"3 c #FF680B",
"4 c #FF690B",
"5 c #FF6C0A",
"6 c #FF6E0A",
"7 c #FF6F0A",
"8 c #FF7B07",
"9 c #FF7C07",
"0 c #FF7E07",
"q c #FF7009",
"w c #FF7209",
"e c #FF7309",
"r c #FF7508",
"t c #FF7608",
"y c #FF7708",
"u c #FF8006",
"i c #FF8106",
"p c #FF8206",
"a c #FF8306",
"s c #FF8406",
"d c #FF8F03",
"f c #FF8905",
"g c #FF8A04",
"h c #FF8B04",
"j c #FF8C04",
"k c #FF8D04",
"l c #FF8E04",
"z c #FF8F04",
"x c #FF9003",
"c c #FF9103",
"v c #FF9203",
"b c #FF9303",
"n c #FF9403",
"m c #FF9503",
"M c #FF9603",
"N c #FF9703",
"B c #FF9903",
"V c #FF9A03",
"C c #FF9D03",
"Z c #FFA402",
"A c #FFAD02",
"S c #FFB102",
"D c #FFB402",
"F c #FFB602",
"G c #FFBA02",
"H c #FFBC01",
"J c #FFBD01",
"K c #FFC801",
"L c #FFCA01",
"P c #FFCD01",
"I c #FFD001",
"U c #FFD101",
"Y c #FFD201",
"T c #FFD501",
"R c #FFD601",
"E c #FFDC00",
"W c #FFDD00",
"Q c #FFE000",
"! c #FFE200",
"~ c #FFE300",
"^ c #FFE600",
"/ c #FFE700",
"( c #FFE800",
") c #FFE900",
"_ c #489848",
/* pixels */
"________________________________",
"________________________________",
"__________  ____________________",
"__________  ____________________",
"__________  _______ _____  _____",
"__________ X______XXX____  _____",
"__________%%____***@____________",
"__________**____*****___________",
"__________****__*******__  _____",
"__________*****_*******__  _____",
"________***************__  _____",
"________********6y3****__o+_____",
"____  __********pne****__****___",
"____+@**********0be****__****___",
"____************pbe$***__****___",
"____*****>ps:***0be**********___",
"____*****>jb:***pbe**********___",
"__*******>hj3***0be****$*****___",
"__*******>hx3*23pbe$>333:****___",
"__*******2hx2*pxbbe$ydbd0****___",
"__*******>hxyehbbb06pbbbp****___",
"____*****>hbxbjbbddbdbdb0****___",
"____***>y8jbxnDJGJZbbdbbp***____",
"____***2jbbbbnP///Fbbbbb0**_____",
"______*2jnbbxbY///TLAbs63**_____",
"______*2jjbbnBP////)Gb0$***_____",
"______**:6jBLT~//~//Gb8****_____",
"______***>hnPW~///WEFb8****_____",
"________*>hbBCY///GBnb0**_______",
"________*>hbbbY/~/Ddbn8*________",
"________________________________",
"________________________________"
};
