/* XPM */
static char *down_3__[] = {
/* columns rows colors chars-per-pixel */
"32 32 237 2 ",
"   c #080B05",
".  c #0A1907",
"X  c #0A1C0A",
"o  c #091508",
"O  c #15130D",
"+  c #1A1914",
"@  c #201A14",
"#  c #24170E",
"$  c #07310F",
"%  c #0E2812",
"&  c #102914",
"*  c #163317",
"=  c #0A3712",
"-  c #2A241B",
";  c #37291B",
":  c #2A381D",
">  c #1D3622",
",  c #2B2B23",
"<  c #2A362B",
"1  c #2D3B31",
"2  c #393B37",
"3  c #34312D",
"4  c #59381E",
"5  c #47331B",
"6  c #483628",
"7  c #573A25",
"8  c #194719",
"9  c #0B561B",
"0  c #19571C",
"q  c #0C4919",
"w  c #3B511D",
"e  c #274E1A",
"r  c #2D711C",
"t  c #256A1D",
"y  c #155423",
"u  c #194625",
"i  c #38453A",
"p  c #2D512A",
"a  c #0D6622",
"s  c #146A23",
"d  c #0F7728",
"f  c #177927",
"g  c #267624",
"h  c #316E2F",
"j  c #55411E",
"k  c #6E5E1C",
"l  c #5B4625",
"z  c #46433B",
"x  c #5A4938",
"c  c #4C4B25",
"v  c #68543A",
"b  c #6C4F2E",
"n  c #446B24",
"m  c #4F7A22",
"M  c #527136",
"N  c #766F2C",
"B  c #2C3D49",
"V  c #38454B",
"C  c #114C60",
"Z  c #484A46",
"A  c #565B47",
"S  c #5C5C5B",
"D  c #4F524A",
"F  c #635548",
"G  c #6E5A52",
"H  c #576754",
"J  c #557355",
"K  c #78644A",
"L  c #766B5A",
"P  c #656C4F",
"I  c #5B5F63",
"U  c #645D69",
"Y  c #567070",
"T  c #676B65",
"R  c #746D6B",
"E  c #6B786A",
"W  c #787874",
"Q  c #717673",
"!  c #875C36",
"~  c #82582F",
"^  c #9E7927",
"/  c #956A3B",
"(  c #99773A",
")  c #8D6834",
"_  c #A37B39",
"`  c #A2792E",
"'  c #815E44",
"]  c #896645",
"[  c #987149",
"{  c #826A53",
"}  c #977453",
"|  c #8A7257",
" . c #A37A49",
".. c #A37A55",
"X. c #877362",
"o. c #1C8529",
"O. c #258C29",
"+. c #288827",
"@. c #368A26",
"#. c #299029",
"$. c #3B9D29",
"%. c #359628",
"&. c #6A9F1C",
"*. c #78B219",
"=. c #429B28",
"-. c #50922C",
";. c #42A128",
":. c #4BA42A",
">. c #47A133",
",. c #788F32",
"<. c #459745",
"1. c #479846",
"2. c #499849",
"3. c #489748",
"4. c #589858",
"5. c #529552",
"6. c #6D9A5A",
"7. c #6D9455",
"8. c #63855B",
"9. c #5BA15B",
"0. c #5F8364",
"q. c #6A886A",
"w. c #639B62",
"e. c #6A9D6A",
"r. c #7B8C7A",
"t. c #6CA56C",
"y. c #6DAA6E",
"u. c #65A465",
"i. c #6FAB70",
"p. c #73AD74",
"a. c #7AA77B",
"s. c #79B178",
"d. c #79AA6B",
"f. c #B59C1D",
"g. c #A8B013",
"h. c #938130",
"j. c #AC873A",
"k. c #B99735",
"l. c #AF9130",
"z. c #87A22C",
"x. c #91A62A",
"c. c #99AE29",
"v. c #BEA329",
"b. c #B7A237",
"n. c #989C16",
"m. c #CBBA19",
"M. c #D0BA1F",
"N. c #C5AB2A",
"B. c #C4A82B",
"V. c #CCB824",
"C. c #D3BC25",
"Z. c #C3A531",
"A. c #D8B837",
"S. c #C5B93F",
"D. c #E2BC3F",
"F. c #ABCA18",
"G. c #B2D312",
"H. c #DAC91A",
"J. c #DFD117",
"K. c #C9DE0B",
"L. c #E2D515",
"P. c #E6D818",
"I. c #E1D315",
"U. c #EDE50D",
"Y. c #F3EE08",
"T. c #F5F107",
"R. c #ECE214",
"E. c #E8E01F",
"W. c #DAC724",
"Q. c #E8D02B",
"!. c #C5E13E",
"~. c #CAE00B",
"^. c #AA8245",
"/. c #BD9548",
"(. c #A7835B",
"). c #B38C58",
"_. c #B28A4D",
"`. c #929774",
"'. c #A98866",
"]. c #B28D64",
"[. c #B7936A",
"{. c #BD9C74",
"}. c #A28875",
"|. c #81A57D",
" X c #B3AE59",
".X c #C6984E",
"XX c #CDA149",
"oX c #D6B144",
"OX c #D0A24E",
"+X c #E1B746",
"@X c #C19E6E",
"#X c #C9A77C",
"$X c #CBA765",
"%X c #E5C463",
"&X c #1D6D84",
"*X c #576896",
"=X c #6477A7",
"-X c #3094AC",
";X c #788985",
":X c #7EAF80",
">X c #57BEAE",
",X c #868984",
"<X c #879587",
"1X c #959B9D",
"2X c #909A80",
"3X c #AA9783",
"4X c #80AA80",
"5X c #88B685",
"6X c #97A998",
"7X c #96B698",
"8X c #ABA49A",
"9X c #8F99B1",
"0X c #9AAEA5",
"qX c #AAB9AB",
"wX c #A9ABB6",
"eX c #B5BBB3",
"rX c #B0BAAA",
"tX c #C9AC86",
"yX c #D3B48D",
"uX c #D5BB91",
"iX c #D6BB95",
"pX c #C7AE8E",
"aX c #CABDB1",
"sX c #AEC4AE",
"dX c #DCC199",
"fX c #E2C598",
"gX c #E7CCA4",
"hX c #ECD3AC",
"jX c #F4DCB3",
"kX c #E5D0B5",
"lX c #FDE5BC",
"zX c #D2C3AF",
"xX c #B2B8C9",
"cX c #DCD3C7",
"vX c #C1C2C5",
"bX c #E4DDD1",
"nX c #FAEBD1",
/* pixels */
"3.3.2.1.2.1.1.1.4.y.p.sXE < = d d 9 * Z a.t.p.i.9.1.2.2.2.2.1.1.",
"2.2.2.2.2.2.2.2.w.,XQ R Z 9 a d d d 9 p T Q ,X0X5X1.2.2.2.2.2.1.",
"1.1.1.3.2.3.u.a.q.u % & 0 f o.o.o.o.o.s * % > E 6X7Xu.2.1.2.2.1.",
"3.2.2.1.1.2.q.H i y s +.%.%.%.$.%.%.%.%.@.g a u S 6Xa.2.1.2.3.1.",
"2.2.2.1.2.2.8.i * 9 d O.#.#.O.#.O.O.O.O.O.o.s = 2 <Xs.2.<.1.1.1.",
"1.2.1.1.2.w.J i u d o.o.o.o.+.+.o.o.o.o.o.o.f q 1 E :X:X9.1.1.1.",
"2.2.1.2.4.Q i 0 g %.$.;.;.;.;.;.;.;.;.>.;.$.$.O.y i S eXp.1.3.3.",
"2.2.5.9.w.T * a @.,.x.F.g.z.c.F.x.x.F.G.G.g.,.:.g q i qX5X2.1.1.",
"1.-.d.sX1XJ 8 h h.x.C.U.L.W.J.R.Z.B.J.Y.L.M.k.x.-.e i 1X0Xp.1.1.",
"5X5X7Xr.2 e h N l.R.T.T.T.T.Y.R.v.B.L.L.B.C.Q.Q.b.m 0 : H a.5X5X",
"tXyXdX`.7 7 k  .A.R.U.M.P.U.J.B.j.B.P.J.k.l.N.J.W.,.c 4 | pXdXtX",
"/ ).tX#X'.! / ^.A.R.P.Z.H.P.m.j.k.N.C.C..X .j.H.J.v.~ [ [.yX{./ ",
"! '.yXgXiX[. .j.N.P.P.+XQ.U.C.k.J.J.Z.).#X@X/.H.P.N._.iXhXfX{.[ ",
"`.3X'.} }  .l.m.I.Q.+X+XQ.R.C.k.I.I.Z.).#XfXfX%X+Xk.).yX#X[.'.`.",
"s.2XG D Y K ( N.C.A..XOXQ.Q.W.H.U.H.k.).iXgXfX$Xk.k. X6XQ G L w.",
"p.r.V C -XY ) h._..X_._..XoXW.R.U.m.^ ..yXiX{.[ ^ M.!.>X&XB M 4.",
"t.r.Z z `.S.V.v.) l l [ .XOX.Xk.^ _ '.].[ v z v j.H.E. XP Z H 4.",
"y.6X,XL ( B.V.l.] L T R } _ _ /  ._...| G S T { ` N.C.h.K X.;Xu.",
"9.s.7X,Xb N _ ) ..zXxX*XU ' !  .yXuX'.U *X9XvX}.! / ` x T a.s.9.",
"1.1.p.sXrXL x b ).gXxX=X9XaXkXgXjXkXcXwX=X9XaX| - ; v 8XsXs.2.2.",
"1.1.2.u.i.<XQ F ' {.pXwXvXbXnXlXlXnXnXcXeX8X{.x O @ 6 X.<Xu.<.1.",
"1.1.1.1.2.t.a.D ; b '.yXgXjXjXjXjXjXjXhXdX{.[ x 6 7 7 ; Z E u.5.",
"2.3.1.1.>.>.q.2 ; 4 ~ / ].yXuXuXuXiXuX@X[ ~ ! 3X8X{ 4 4 6 F q.w.",
"1.3.1.1.2.9.q.Z , e w w M 8.6.7.6.6.7.P c ; 3 F R X.] l ; 3 H 4.",
"3.2.3.2.t.sX1XS p h h c t h @.=.:.$.r e e = . . , G { b 6 D W 7.",
"1.1.9.a.6XW Z B Y 8X8XF j k n.K.~.g.^ l j w 0 $ O + - , D ;X4X9.",
"2.<.y.6X=X7 6 6 S =X*X1 e n -.*.*.&.m n m @.#.s & O , W <Xe.1.1.",
"2.1.y.q.; 7 K ] K A 3 * 8 s g o.O.o.+.+.%.;.%.r q & 2 wX5X4.1.1.",
"2.<.t.q.z X.tX#X| < % 9 d o.O.$.$.$.$.$.$.$.@.0 o O i eXs.1.1.1.",
"2.<.u.t.8.R L F 3 + X q d #.$.$.;.;.$.%.+.t 8 - # + Z qXp.1.1.1.",
"2.2.<.5.4.`.S Z Z Z 2 * q t r r r r r t q $   # ; Z T a.9.1.3.3.",
"2.2.<.<.5.4.8.5.6.t.<X, . . X . X . . . .       6 =Xp.5.1.1.3.3."
};
