/* XPM */
static char *down_2__[] = {
/* columns rows colors chars-per-pixel */
"32 32 236 2 ",
"   c #15140D",
".  c #1B1C18",
"X  c #100E07",
"o  c #172C16",
"O  c #133812",
"+  c #0D2C0F",
"@  c #282418",
"#  c #372816",
"$  c #37331C",
"%  c #1B2A25",
"&  c #1D3334",
"*  c #2A2B26",
"=  c #362E23",
"-  c #35332C",
";  c #383A36",
":  c #25373E",
">  c #462D1B",
",  c #49351B",
"<  c #57321C",
"1  c #542F19",
"2  c #483929",
"3  c #4F3D2B",
"4  c #6A3B21",
"5  c #194B1B",
"6  c #17541B",
"7  c #0C4616",
"8  c #255A1B",
"9  c #204A1C",
"0  c #1B621A",
"q  c #256A1D",
"w  c #2B751E",
"e  c #1C4C20",
"r  c #264629",
"t  c #364B22",
"y  c #2A4C34",
"u  c #3C593A",
"i  c #36492F",
"p  c #176722",
"a  c #137D29",
"s  c #167825",
"d  c #0E7726",
"f  c #276827",
"g  c #297825",
"h  c #367826",
"j  c #386B2B",
"k  c #6C5C1F",
"l  c #594523",
"z  c #595523",
"x  c #48433B",
"c  c #584A38",
"v  c #46532F",
"b  c #684D28",
"n  c #685120",
"m  c #785834",
"M  c #715331",
"N  c #44742A",
"B  c #4D6B2C",
"V  c #7A7231",
"C  c #4F4B1C",
"Z  c #313C46",
"A  c #355843",
"S  c #3D4D40",
"D  c #3E6545",
"F  c #14414F",
"G  c #484746",
"H  c #5D544B",
"J  c #4D5659",
"K  c #52534C",
"L  c #65584A",
"P  c #705B48",
"I  c #635B52",
"U  c #715D51",
"Y  c #5A6458",
"T  c #5D745C",
"R  c #4F644A",
"E  c #64665B",
"W  c #726C54",
"Q  c #4D5869",
"!  c #566574",
"~  c #6B6B64",
"^  c #686A66",
"/  c #697969",
"(  c #747567",
")  c #66697A",
"_  c #767874",
"`  c #766F6E",
"'  c #80661E",
"]  c #855D3A",
"[  c #886539",
"{  c #966D38",
"}  c #967436",
"|  c #A37D35",
" . c #936A40",
".. c #977148",
"X. c #827159",
"o. c #8E6F52",
"O. c #A57A46",
"+. c #A17A54",
"@. c #917D6B",
"#. c #198329",
"$. c #168029",
"%. c #238B28",
"&. c #288827",
"*. c #368824",
"=. c #2C9229",
"-. c #329629",
";. c #359829",
":. c #3A9627",
">. c #3B883D",
",. c #349131",
"<. c #54971F",
"1. c #64A81B",
"2. c #458526",
"3. c #449328",
"4. c #569027",
"5. c #749A31",
"6. c #6F8E30",
"7. c #7BA82B",
"8. c #469746",
"9. c #479847",
"0. c #499749",
"q. c #499849",
"w. c #539D53",
"e. c #5A9A59",
"r. c #549053",
"t. c #5CA15C",
"y. c #57A057",
"u. c #688667",
"i. c #629D62",
"p. c #6E9F6E",
"a. c #7C847B",
"s. c #789476",
"d. c #6C9075",
"f. c #63A363",
"g. c #6BA56B",
"h. c #6CAA6C",
"j. c #76A976",
"k. c #76AF76",
"l. c #A6921D",
"z. c #89BD1E",
"x. c #B6B716",
"c. c #A88834",
"v. c #B18C3A",
"b. c #B69734",
"n. c #AE9226",
"m. c #85B822",
"M. c #B7AA29",
"N. c #BDA030",
"B. c #D2BE1F",
"V. c #CBB919",
"C. c #C09B3A",
"Z. c #C8AC2B",
"A. c #D3BC26",
"S. c #C6A534",
"D. c #D5B435",
"F. c #8FC719",
"G. c #BBDA32",
"H. c #C9C917",
"J. c #D6C41D",
"K. c #DBCC1A",
"L. c #CBDF11",
"P. c #E3D319",
"I. c #E9DC16",
"U. c #E0CC1F",
"Y. c #EBEA0B",
"T. c #F3EA0D",
"R. c #F2E712",
"E. c #D8C226",
"W. c #E6CC2B",
"Q. c #E9D423",
"!. c #F0DC22",
"~. c #9A8A55",
"^. c #AC8348",
"/. c #B48B45",
"(. c #B48E55",
"). c #84867C",
"_. c #87947A",
"`. c #968268",
"'. c #A98A69",
"]. c #B8956B",
"[. c #B79875",
"{. c #81A37D",
"}. c #B8AE7D",
"|. c #AEA173",
" X c #C29A44",
".X c #C8A244",
"XX c #D3A947",
"oX c #CEAA55",
"OX c #C49E6F",
"+X c #C8A67A",
"@X c #C6A26D",
"#X c #E5C460",
"$X c #687992",
"%X c #556998",
"&X c #2B8FA9",
"*X c #789094",
"=X c #768AA9",
"-X c #4EAEA2",
";X c #76BAD0",
":X c #888A85",
">X c #8B9A8D",
",X c #8BAA8B",
"<X c #87B687",
"1X c #93AC92",
"2X c #9AA39B",
"3X c #97BA97",
"4X c #97AF8B",
"5X c #B9A588",
"6X c #B6A994",
"7X c #B1AC91",
"8X c #8F99AE",
"9X c #BDB4A0",
"0X c #ADBBAF",
"qX c #CDAC84",
"wX c #D6B68A",
"eX c #D9BB93",
"rX c #CDB38C",
"tX c #C8BCA7",
"yX c #9CC89D",
"uX c #A9C6A9",
"iX c #B8CCB7",
"pX c #DEC199",
"aX c #E3C49B",
"sX c #E2C28E",
"dX c #EACCA3",
"fX c #EFD3AA",
"gX c #F3D6AD",
"hX c #FBE3BC",
"jX c #DACBB7",
"kX c #A7AEC2",
"lX c #D6D0C5",
"zX c #E5DDD3",
"xX c #FAE6C4",
"cX c #F6E6CA",
"vX c #E2EAE1",
"bX c #C9DFEB",
/* pixels */
"q.q.9.9.9.9.9.w.f.g.T - 7 d $.$.$.$.d 7 % T uXh.w.9.q.q.q.q.8.q.",
"9.9.9.9.9.9.9.i.1X:XQ y 0 #.=.=.%.=.=.s 6 u _ s.y.9.q.q.8.q.8.q.",
"9.9.9.9.9.e.j.1Xu.y 5 p #.-.;.-.-.;.=.%.s 6 & R s.j.w.q.8.8.8.q.",
"q.9.9.9.9.f.>X/ r p d a #.#.#.#.#.#.#.$.a d p e Y u.e.w.q.8.8.q.",
"8.8.y.f.g./ J y p ,.-.-.;.;.;.;.;.-.;.:.;.;.=.a p u E 3Xk.w.9.9.",
"8.8.g.1X:XR e f 4.5.5.5.7.F.F.z.7.7.m.F.m.7.5.3.g 6 y _ 2X*Xy.9.",
"9.9.r.T = 5 j 6.v.C.C.Z.H.Y.Y.K.M.b.K.Y.Y.H.c.6.3.g p % _ 4Xk.9.",
"y.y.i.T # 1 ' M.U.b.Z.P.T.T.B.N.v.c.b.J.Y.J.c.c.V N 6 + ^ <X<Xw.",
"6XrX9X_.< ] n.U.I.D.A.I.R.B.B.B.J.J.J.B.A.A.J.J.M.6.C > ( 6XtX5X",
"} (.@X].{ N.E.Q.P.Q.W.E.Z.b.U.T.R.I.P.D..XS.P.T.P.N.{ ..].+XOXO.",
"] (.qXqX/.J.J.Z.S.I.U.Z.v.b.U.!.W.XX.XoX@X]. XQ.I.W.oXeXdXdX[. .",
"tX5X'.`.].b.c.v.D.R.T.I.P.I.W.D. X/.@X+XwXpXpX#XXXS.oXwX5X'.[.tX",
"s._.~ Y *X`.{ v.XXW.Q.!.!.!.D.v.O.+.+XeXaXdXaXOX/.S.oX3X2X6X7X1X",
"h.a.K F &X*X~.| | v. X.XXXXX/...{ O.+XeXaXqX]. .l.H.G.-X;XbXvXiX",
"f.u.K * R M.Z.l.n , b { O.O.{  .+.+X+X'.o.c 3 b c.J.x.u *XuXyXt.",
"g.4X:XH l l.n.c.] ( _ ` U [ ..].wXwX^.` ^ ) *Xo.} N.l.$ ( 1Xk.q.",
"0.w.p.$X^ [ { m U s.=X$X) @.}.pXgXaX].) %X8XlX`.m m [ H >X3Xk.q.",
"9.0.e.{.<XE =   2 5X2X=X8XzXhXhXhXxXzXkX=X8XeXI @ @ H 7X0X<Xf.q.",
"9.9.9.9.q.u.^ G = +.6XtXjXcXxXhXxXxXcXzXiX6X].c - K u.j.y.q.q.q.",
"9.0.9.q.f.j.u.R t M +.[.eXdXfXgXfXfXfXpX+X(.[ t i Q *X3Xt.9.q.q.",
"y.t.w.e.2X~ S A D z b M X.|.+X5X}.}.}.`.m n b B j y G :Xe.r.r.0.",
"3X,XE - Z Z ! *X<Xu 9 s h >.>.>.>.,.>.*.g 8 t _.>X~ - ; ; G / <X",
"` L 2 # # Z Q ! E v 8 g a d $.$.d a #.#.a p t L ^ J Z # # > H ~ ",
"  > b ] ] G & % # C B j f g *.<.<.*.w w g B l $ % Z G M ] ] <   ",
". G @.].'.H * o 5 *.h z n k l.H.L.H.' n C B 2.8 + o x `.].'.L * ",
"( ` I 3 G _ _ G O *.<.2.N h <.1.1.<.N w 2.<.*.5 ; ^ :XI c c I ^ ",
"f.1X:XY ^ ).` x + 9 q h =.%.%.%.#.%.&.&.&.w 6 + S a.1X_ E _ s.e.",
"w.f.t.j.uX~ * X X   O q &.-.*.*.*.*.*.w 9 + X o J a.t.t.i.f.t.w.",
"9.q.q.t.3X~ = # 1 1 < 2 2 2 $ o O o o # # # * / 3X<Xy.0.0.0.9.9.",
"9.9.q.0.e.>X` G > 4 b < > * Y _ a.a.a.I 3 H :X>Xi.q.0.q.0.0.9.9.",
"q.9.q.q.q.3X0X).x < 1 1 2 K 0XuX3XyXiX2X@.:XiXk.e.0.9.0.9.9.9.9.",
"9.q.q.q.q.0.e.p./ ;   @ H _.g.y.9.q.y.f.i.i.g.0.9.0.9.9.q.9.9.9."
};
