/* XPM */
static char *down_1__[] = {
/* columns rows colors chars-per-pixel */
"32 32 228 2 ",
"   c #130C07",
".  c #0A1508",
"X  c #1B120C",
"o  c #1E1F1D",
"O  c #0F0C08",
"+  c #281D12",
"@  c #21130D",
"#  c #0D220B",
"$  c #11250E",
"%  c #192C16",
"&  c #0D3813",
"*  c #143819",
"=  c #27271C",
"-  c #382A1C",
";  c #1D3827",
":  c #392E25",
">  c #213B22",
",  c #383429",
"<  c #31332E",
"1  c #482A19",
"2  c #502E1A",
"3  c #4D311E",
"4  c #54301A",
"5  c #493728",
"6  c #593A27",
"7  c #673A20",
"8  c #0C4318",
"9  c #19591C",
"0  c #124F18",
"q  c #34511D",
"w  c #37471C",
"e  c #18621F",
"r  c #1C5222",
"t  c #224627",
"y  c #22512C",
"u  c #354F3A",
"i  c #32402B",
"p  c #1A6B22",
"a  c #146322",
"s  c #0F7826",
"d  c #127D28",
"f  c #167525",
"g  c #0C6E24",
"h  c #346B25",
"j  c #2B7924",
"k  c #367B26",
"l  c #2B692F",
"z  c #4B4E1E",
"x  c #484E2E",
"c  c #575927",
"v  c #4D463C",
"b  c #5B493A",
"n  c #565232",
"m  c #644C28",
"M  c #74562B",
"N  c #785937",
"B  c #6B5034",
"V  c #457726",
"C  c #456A3D",
"Z  c #4D6832",
"A  c #746C31",
"S  c #756A1D",
"D  c #313D4A",
"F  c #4C4946",
"G  c #544B48",
"H  c #495349",
"J  c #46594B",
"K  c #52534B",
"L  c #565652",
"P  c #4B5954",
"I  c #645347",
"U  c #586157",
"Y  c #577158",
"T  c #666658",
"R  c #746254",
"E  c #5F5864",
"W  c #5A746F",
"Q  c #666865",
"!  c #667668",
"~  c #7A796B",
"^  c #777A78",
"/  c #626675",
"(  c #895E39",
")  c #987A23",
"_  c #8C6339",
"`  c #926A37",
"'  c #97753B",
"]  c #8A6B30",
"[  c #A77E3F",
"{  c #896849",
"}  c #9B7854",
"|  c #97774D",
" . c #A67E45",
".. c #A27B55",
"X. c #87796F",
"o. c #188129",
"O. c #248B28",
"+. c #288C29",
"@. c #2A8A27",
"#. c #368B24",
"$. c #2E9529",
"%. c #329729",
"&. c #359726",
"*. c #3C873B",
"=. c #63A81B",
"-. c #538E20",
";. c #52982A",
":. c #6B9433",
">. c #688F34",
",. c #7DAE26",
"<. c #7EB025",
"1. c #3E8C40",
"2. c #4A8D4A",
"3. c #469746",
"4. c #479847",
"5. c #4C944D",
"6. c #499848",
"7. c #489847",
"8. c #529A52",
"9. c #589A57",
"0. c #528853",
"q. c #5CA25C",
"w. c #5F9C65",
"e. c #679566",
"r. c #79887A",
"t. c #6F9775",
"y. c #7A9177",
"u. c #6E8C6D",
"i. c #64A363",
"p. c #69A569",
"a. c #65A669",
"s. c #77A876",
"d. c #6FAB76",
"f. c #A8871E",
"g. c #9DA618",
"h. c #88BE1D",
"j. c #9B853B",
"k. c #8E863D",
"l. c #A7882A",
"z. c #A98739",
"x. c #BD9C32",
"c. c #B59339",
"v. c #B79A2A",
"b. c #BFA52C",
"n. c #D1BD1F",
"m. c #C09A3E",
"M. c #C3AA29",
"N. c #CCB524",
"B. c #C7B029",
"V. c #D3BC25",
"C. c #C8A737",
"Z. c #D5B339",
"A. c #8DC41A",
"S. c #D8C919",
"D. c #D0D413",
"F. c #E5D915",
"G. c #EBE60D",
"H. c #EFE60F",
"J. c #D6C121",
"K. c #DBC523",
"L. c #E4CC28",
"P. c #E8D224",
"I. c #E4C335",
"U. c #99865C",
"Y. c #A78343",
"T. c #B89347",
"R. c #A8815A",
"E. c #B4915F",
"W. c #B1914C",
"Q. c #9A9577",
"!. c #93856A",
"~. c #AB8B68",
"^. c #B9966A",
"/. c #AF9872",
"(. c #B89B75",
"). c #AE8F68",
"_. c #B6AC7C",
"`. c #B9A47B",
"'. c #B0AC64",
"]. c #C39848",
"[. c #C69B55",
"{. c #CDA246",
"}. c #C19C69",
"|. c #C29E77",
" X c #C7A579",
".X c #9BD052",
"XX c #546B9B",
"oX c #6FA28F",
"OX c #6D81AB",
"+X c #5DADB2",
"@X c #47AEB9",
"#X c #888B86",
"$X c #849986",
"%X c #969D95",
"&X c #919A8D",
"*X c #8BA38A",
"=X c #8AAD8A",
"-X c #95A796",
";X c #98B497",
":X c #8AB385",
">X c #B8A485",
",X c #BCA590",
"<X c #A9AC9B",
"1X c #93B4A2",
"2X c #B1B0B2",
"3X c #B0B4A4",
"4X c #C5A983",
"5X c #C7B48E",
"6X c #C1B592",
"7X c #DBBC94",
"8X c #D6BA95",
"9X c #D1B086",
"0X c #C6BCB3",
"qX c #C2B5A8",
"wX c #9AC19A",
"eX c #BCC5BB",
"rX c #DCC198",
"tX c #E1C39A",
"yX c #EED3AA",
"uX c #ECD0A7",
"iX c #F5DBB4",
"pX c #E9CDA5",
"aX c #FBE3BD",
"sX c #9DACC4",
"dX c #AAB4C9",
"fX c #D7DACC",
"gX c #E4D6C1",
"hX c #F9E6C8",
/* pixels */
"6.6.6.6.6.6.3.8.a.s.r.> 8 s d d d o.s 0 ; oXd.e.0.3.6.6.6.6.6.7.",
"7.7.6.7.7.6.6.d.;X#XJ r p @.%.%.$.%.+.p r J oX<Xd.*.7.7.7.6.6.6.",
"7.7.6.7.6.w.=X=X! u * s O.%.%.%.%.$.$.o.g 8 x ~ *X=Xi.6.6.4.6.4.",
"7.7.6.7.6.p.-XQ t a s d d d d d d O.O.d s o.r > Q -Xa.8.4.6.6.6.",
"6.7.3.3.8.u.H y a O.%.%.&.&.#.&.#.&.%.&.%.%.+.p y H ! 5.4.6.6.6.",
"6.4.7.4.2.H % 9 ;.;.,.A.A.A.,.:.:.<.h.h.:.:.;.#.9 * J 2.6.6.6.6.",
"6.3.i.:X*XJ > h >.k.b.G.G.S.M.z.Y.B.F.D.x.z.k.>.h t P *XQ.i.4.6.",
"9.9.p.r.J r h A j.c.N.G.S.V.V.S.x.N.F.H.F.b.Y.j.A h r J u.t.q.q.",
"_.,X6X!.5 3 c j.C.V.L.L.L.n.V.n.V.L.L.I.V.K.M.c.] Z w x } 6X6X>X",
"' E. X X..( ` C.P.F.F.I.F.n.M.m.H.F.Z.].].V.n.N.l.] _ ..|.4XE.' ",
"_ ).rXyXrX^.c.S.F.B.V.F.V.m.z.v.S.V.m.[. X].C.S.n.c.^.tXyX8X/._ ",
"3X,X~.^.5XR.] l.].{.I.H.G.L.Z.m.l.z.}.7XtX XT.C.M.T.}.5X(.).6X0X",
"s.:XQ.$X1XW.f.] [ ].I.P.P.Z.m.[  .^.7XiXiX9X[.T.T.x.'.1X&X&X<XfX",
"5.8.d.+X@X.XD.f.` z.].{.T.' ` |  XrXpXpX7X4X..{ l.D..X@X+Xa.6.6.",
"7.7.e.W J g.D.v.N 6 B  .` _ R.9XpXuX7X^.{ b 5 N v.D.g.J u.e.7.7.",
"7.7.q.Y , l.b.l.{ X.XX{ I _ ^.yXiX7XE.R R XXX.| l.b.) < Y q.7.7.",
"7.3.a.r.R N ( B X.0XdXXX/ Q.8XaXiX7X~.W XXdX0XX.M ] N Q ^ e.7.7.",
"7.3.i.:X;XQ : @ b >X2XOXsXfXhXaXhXhXfXsXOX2X,Xb X : ! =X=Xp.7.7.",
"7.7.3.6.8.e.~ : , !.4XqXgXhXhXhXhXhXhXgXqX4X| , , ^ e.8.6.6.7.7.",
"6.7.3.3.8.*XoXD w M  .|.8XpXyXuXuXiXyX7X`...N w u ^ *X8.6.7.7.7.",
"4.7.8.8.0.P < l l n m N U._._._.`._./.} N m c Y l < H 0.9.8.6.6.",
"q.oX;Xy.H D W -X*XZ 9 l k -.*.*.*.*.1.j p q Z =X%XG : F !.1XoXq.",
"d.<X#XK 5 5 I Q Y x q p o.f o.o.d d d s f q c T R b 3 3 b #XwXd.",
"p.y.F - N { N 5 = z c h p #.#.&.;.#.j h h c z % - N ` ( - v t.q.",
"p.t.L B ~.4X/.Z 9 j V m m S g.D.D.g.S m m V #.9 Z /.4X).b L y.p.",
"e.s.y.T K K F = & f #.V k V -.=.=.-.V h -.#.p & = v K L Q y.s.q.",
"6.;.a.oXX.Q K o . 8 e @.@.@.@.O.O.O.O.O.@.p & . o L Q u.Q.a.6.6.",
"6.6.8.9.s.dX<XG X   & a j #.#.#.#.&.#.j r & .   F %XdXQ.q.8.4.6.",
"6.7.6.6.0.Q v 5 2 1 + . $ $ $ % $ $ # # X + 1 2 5 F W 5.1.4.6.6.",
"6.6.6.7.5.H = 1 7 6 1 + O % K r.r.G % O @ 1 6 7 2 = H 2.4.4.4.6.",
"7.7.7.7.5.! v 5 2 2 1 - < L -XwX1X-XT : - 1 2 4 3 G u.1.4.6.6.6.",
"7.7.7.7.8.s.%XG O O O = U r.e.8.8.q.e.L =       G %Xd.8.4.6.4.6."
};
