/* XPM */
static char *down_4__[] = {
/* columns rows colors chars-per-pixel */
"32 32 232 2 ",
"   c #141109",
".  c #1D120C",
"X  c #13100B",
"o  c #231C12",
"O  c #193617",
"+  c #0D2C12",
"@  c #2A2617",
"#  c #39261A",
"$  c #2F311A",
"%  c #362821",
"&  c #3C2F27",
"*  c #3A372B",
"=  c #2D3C30",
"-  c #313B31",
";  c #4B2C19",
":  c #4B301C",
">  c #54321B",
",  c #5C351D",
"<  c #663A1E",
"1  c #583822",
"2  c #443932",
"3  c #653D23",
"4  c #15491A",
"5  c #16571B",
"6  c #0C591B",
"7  c #245B1B",
"8  c #225318",
"9  c #34481B",
"0  c #185426",
"q  c #2A4928",
"w  c #31412B",
"e  c #295927",
"r  c #3C423B",
"t  c #344C34",
"y  c #395332",
"u  c #0E6922",
"i  c #186B23",
"p  c #0F7627",
"a  c #0F7828",
"s  c #117C29",
"d  c #187425",
"f  c #3C6B28",
"g  c #286C1D",
"h  c #565219",
"j  c #514F14",
"k  c #4B4438",
"l  c #574839",
"z  c #594E26",
"x  c #694528",
"c  c #76572E",
"v  c #6B5534",
"b  c #764F31",
"n  c #476927",
"m  c #456F34",
"M  c #6C7323",
"N  c #3D5441",
"B  c #484B46",
"V  c #564E44",
"C  c #585249",
"Z  c #505850",
"A  c #6C5B4E",
"S  c #51684B",
"D  c #557754",
"F  c #506B51",
"G  c #60645E",
"H  c #736952",
"J  c #4C5571",
"K  c #5F6962",
"L  c #5E7A70",
"P  c #686A64",
"I  c #756C65",
"U  c #677568",
"Y  c #797167",
"T  c #6D7176",
"R  c #8C7E17",
"E  c #845C35",
"W  c #856538",
"Q  c #93683B",
"!  c #967732",
"~  c #A17C39",
"^  c #A17F29",
"/  c #976D44",
"(  c #9D774E",
")  c #866B53",
"_  c #867058",
"`  c #9A7756",
"'  c #836444",
"]  c #A57C4C",
"[  c #A27D57",
"{  c #877568",
"}  c #18832A",
"|  c #158029",
" . c #378B27",
".. c #359227",
"X. c #3A9628",
"o. c #288825",
"O. c #6FA11C",
"+. c #439C29",
"@. c #42952A",
"#. c #4D8E39",
"$. c #73942B",
"%. c #43A127",
"&. c #6B961B",
"*. c #469745",
"=. c #479847",
"-. c #499849",
";. c #4B964B",
":. c #518C51",
">. c #4F9A50",
",. c #549C54",
"<. c #599C59",
"1. c #548D43",
"2. c #57A056",
"3. c #5CA15C",
"4. c #689769",
"5. c #7A837A",
"6. c #778578",
"7. c #799975",
"8. c #638060",
"9. c #63A463",
"0. c #6AA768",
"q. c #78A677",
"w. c #75B174",
"e. c #77AC6B",
"r. c #AE9B17",
"t. c #8EB118",
"y. c #B3A613",
"u. c #A88626",
"i. c #BA9636",
"p. c #AD8C33",
"a. c #91AC26",
"s. c #A9A628",
"d. c #ABA132",
"f. c #91921B",
"g. c #CCB51F",
"h. c #C69E3C",
"j. c #C8AA2D",
"k. c #CBB327",
"l. c #D1BA22",
"z. c #C5A835",
"x. c #D8B536",
"c. c #E2BA3F",
"v. c #B7CA0E",
"b. c #ADD612",
"n. c #A3C018",
"m. c #DCCB19",
"M. c #D5C31B",
"N. c #CECD0F",
"B. c #E6D817",
"V. c #E2DC0A",
"C. c #F1EC0A",
"Z. c #F7F208",
"A. c #F3E714",
"S. c #EAE110",
"D. c #D8C424",
"F. c #E1C928",
"G. c #ECD427",
"H. c #EAD02D",
"J. c #AE8C44",
"K. c #B38947",
"L. c #A98559",
"P. c #B6905D",
"I. c #9E8163",
"U. c #88916C",
"Y. c #858979",
"T. c #9A9375",
"R. c #918174",
"E. c #A88766",
"W. c #B38D61",
"Q. c #B28E6B",
"!. c #A99068",
"~. c #B9966A",
"^. c #BB9A75",
"/. c #A78C75",
"(. c #97A17B",
"). c #A9AE57",
"_. c #C19A4E",
"`. c #D6AB47",
"'. c #C09C6F",
"]. c #C4A77E",
"[. c #D0B060",
"{. c #E0BF72",
"}. c #DBCB40",
"|. c #515F83",
" X c #5B768E",
".X c #6D788E",
"XX c #657BA6",
"oX c #3795AE",
"OX c #6B8C8D",
"+X c #479AA6",
"@X c #4B8E9C",
"#X c #8B8E85",
"$X c #879886",
"%X c #97918A",
"&X c #A29784",
"*X c #8AA68B",
"=X c #88AA88",
"-X c #8BB78B",
";X c #95A996",
":X c #97BD99",
">X c #83A89C",
",X c #B6AE96",
"<X c #8E9BB6",
"1X c #8A97AE",
"2X c #99A1B5",
"3X c #9FAAA1",
"4X c #A4ADA6",
"5X c #AAB6A9",
"6X c #BABEAD",
"7X c #B6B2AF",
"8X c #CCAB84",
"9X c #C7AA86",
"0X c #D2B38A",
"qX c #CAB68A",
"wX c #C9BBB2",
"eX c #9CC198",
"rX c #A1C29B",
"tX c #A8C2A8",
"yX c #B9C2B4",
"uX c #DFC29C",
"iX c #E3C59B",
"pX c #C5D1BA",
"aX c #CCC7B2",
"sX c #E3C8A2",
"dX c #EED4AD",
"fX c #F1D7AF",
"gX c #F2D8AF",
"hX c #D2DBCC",
"jX c #CBC8C5",
"kX c #EFDCC0",
"lX c #FDEBCB",
"zX c #EEE5CD",
/* pixels */
"-.-.=.=.=.-.=.-.3.:X$X= 4 u s s a s p 4 O U ;Xq.9.;.*.=.=.=.=.-.",
"=.-.-.-.=.-.-.>.7.5.Z 0 u a s s s s a u 6 e 8.3X-X3.*.=.=.=.-.-.",
"-.-.-.-.=.,.4.6.D t 4 d a s s s a a a a a 6 e Z OX4.<.>.-.=.=.=.",
"=.=.=.-.3.-X;XK q 6 d } | s | } } } } | } } i 0 B $XtXeX2.*.-.-.",
"=.=.=.<.:X5.N 0 d  .X.%.+.+.+.+.%.%.%.%.%.%...| 0 q D ;X>.*.=.-.",
"=.=.*.<.5XU q 0 X.$.a.t.a.a.a.v.b.b.b.b.b.a.$.X.d O B $X<.=.-.=.",
">.>.3.0.Y.Z q m $.d.k.M.l.l.V.Z.V.S.C.C.B.D.k.d.1.y y T 5.q.0.>.",
"pXpXtX#Xk 8 f M d.m.B.k.l.S.Z.A.j.l.B.m.i.l.D.}.).#.7 q Y yXhXpX",
"^.8X8XE.b z c p.c.A.Z.S.G.G.A.S.j.k.m.m.h.p.j.H.D.f.z x ` 9X0X^.",
"Q W.0X0X^.[ ~ j.B.Z.A.G.G.G.F.l.F.D.k.z.P.L.i.l.B.i.~ Q.8X0X^./ ",
"[ Q.qXaXtXT.K.l.B.B.F.c.G.B.g.h.m.m.z.P.].8X[.H.F.i.T.5XyX,X^.E.",
"OX&XT. XoXL ! i.h.i.h.`.G.A.l.j.m.m.z.P.8XuXiX{.z.i.U.+X@XY.T.7.",
"0.rX5X6.k $.y.u.Q Q K.`.H.A.A.B.F.z._.'.iXiX8XW.~ y.s.f U 5XrX<.",
"-.>.:.S w f.N.r.E 3 b J.z.D.G.H.h.K.W.'.E.) A E ^ N.y.j G =Xw.-.",
"-.-.;.D * f.y.i.W V C ) ] ] _.~ ] [ [ [ A A A A ^ k.r.j P =Xw.-.",
"*.*.;.D k ! p.! ] U.OX XT H Q ] 8X8XE.I |.<X7X/.E ^ ! l 5.=Xw.-.",
"=.*.3.=X4XY 1 1 ( 8X7XXX1X7XaXuXfXkXjX<XXX2X,XY % @ C %XjXeX9.=.",
"=.=.-.3.-X;X.XB v [ ,X7XjXzXlXlXlXlXzXhX7XqXQ.' # # 2 I $Xq.2.=.",
"-.-.-.-.;.q.$XG # x [ 9XiXfXgXgXfXfXfXsX0XW.Q x > , ; % G =Xw.*.",
"-.=.-.-.-.2.4.G & 1 W / E.^.9X9XqXqX].Q.' c x > ; , > 2  X>Xe.#.",
"=.-.=.-.*.0.6.P B %XwXwXR.C r #.@.#.1.m f z < : O @ V #X5X:X9.#.",
"-.=.-.-.w.$XY l C .X2X1XZ @ O m O.t.t.&.n n y 4 O Z 6.e.<.;.-.-.",
"-.-.=.2.tXU & : l Z J |.t O 9 M t.v.v.t.M f d 4 q 5.;X=X2.=.-.-.",
"-.-.=.2.5XP % ; b E ) E.v 9 g ..%.X...X.+.@. .7 O w U *X2.-.=.-.",
"-.-.*.2.tXU k _ 9X9XI.l q i o.X.........X...d 4 = U ;XeX2.=.=.=.",
"=.-.=.>.-X$XR.{ { _ V o + O 4 e 7 8 5 4 8 4 + X - D ,.;.=.=.-.-.",
"-.-.-.-.>.w.;X5.B - k r - N - r y $ o X       X w S ;.-.=.-.=.-.",
"-.=.=.-.=.>.<.<.:.:.:.:.:.:.:.:.4.U B . @ # # . * S :.,.-.-.=.-.",
"-.-.-.-.-.=.-.-.-.-.-.-.-.-.-.;.9.OXJ   # > , > & 2 U *X,.*.=.=.",
"-.-.*.-.=.=.-.-.-.-.-.*.=.-.=.;.9.7.C . ; < < 3 ; @ B OX,.*.-.-.",
"-.*.*.-.-.-.-.=.-.-.=.-.-.=.=.;.9.(.{ 2 > > > > 1 * P $X,.*.=.-.",
"-.-.-.-.=.=.-.-.*.-.-.-.=.-.=.-.,.9.4.G % .   . * S <.3.-.-.*.-."
};
