/* XPM */
static char *left_2__[] = {
/* columns rows colors chars-per-pixel */
"32 32 227 2 ",
"   c #040403",
".  c #090C08",
"X  c #091209",
"o  c #071C09",
"O  c #1A140D",
"+  c #171816",
"@  c #110A06",
"#  c #29190E",
"$  c #261A13",
"%  c #331D17",
"&  c #062109",
"*  c #092A0B",
"=  c #0A240C",
"-  c #18250F",
";  c #0A340D",
":  c #0E2714",
">  c #0B3A13",
",  c #143617",
"<  c #162614",
"1  c #262A1C",
"2  c #3B2519",
"3  c #2E3614",
"4  c #192A22",
"5  c #2A2E2A",
"6  c #2A3A2D",
"7  c #3B352E",
"8  c #393B39",
"9  c #352A25",
"0  c #48281C",
"q  c #4B341E",
"w  c #58311B",
"e  c #4B372B",
"r  c #603D29",
"t  c #0C4112",
"y  c #0D4C17",
"u  c #0D5519",
"i  c #135314",
"p  c #175819",
"a  c #144415",
"s  c #21461F",
"d  c #2C4E1C",
"f  c #0F661F",
"g  c #1A671B",
"h  c #256E1B",
"j  c #2B7B1E",
"k  c #27741C",
"l  c #327B1E",
"z  c #185A24",
"x  c #1B4C24",
"c  c #394437",
"v  c #254A29",
"b  c #0E6922",
"n  c #166924",
"m  c #0E7325",
"M  c #0F7A29",
"N  c #0F7827",
"B  c #127C29",
"V  c #187625",
"C  c #267C23",
"Z  c #326D2C",
"A  c #50491D",
"S  c #6B5E19",
"D  c #5B5126",
"F  c #554735",
"G  c #4E4D2A",
"H  c #694F2B",
"J  c #4D722A",
"K  c #65782D",
"L  c #637218",
"P  c #3D6E44",
"I  c #474A44",
"U  c #475B51",
"Y  c #515751",
"T  c #545C54",
"R  c #585B58",
"E  c #465846",
"W  c #645646",
"Q  c #685D56",
"!  c #795B41",
"~  c #5A665B",
"^  c #517557",
"/  c #6C6B4C",
"(  c #77644E",
")  c #686956",
"_  c #776858",
"`  c #6D7A4A",
"'  c #5D5C6C",
"]  c #5D6767",
"[  c #696967",
"{  c #6E7A70",
"}  c #767A74",
"|  c #667465",
" . c #9E7D1E",
".. c #865A31",
"X. c #875B2C",
"o. c #926B2F",
"O. c #896931",
"+. c #8D702A",
"@. c #A07639",
"#. c #9D794D",
"$. c #87755C",
"%. c #997955",
"&. c #8D6B43",
"*. c #A57E46",
"=. c #A37F59",
"-. c #198129",
";. c #258727",
":. c #378923",
">. c #2E9229",
",. c #2E982A",
"<. c #3C9B26",
"1. c #369828",
"2. c #2F9231",
"3. c #3EA128",
"4. c #4A8728",
"5. c #4D952C",
"6. c #709433",
"7. c #41A429",
"8. c #59A627",
"9. c #74AA24",
"0. c #3E914C",
"q. c #459745",
"w. c #479847",
"e. c #499849",
"r. c #45974B",
"t. c #539E53",
"y. c #5D965C",
"u. c #5A9C5B",
"i. c #528950",
"p. c #609C5F",
"a. c #5BA25C",
"s. c #55A054",
"d. c #62A55E",
"f. c #669A67",
"g. c #7A887A",
"h. c #709578",
"j. c #5DA463",
"k. c #63A562",
"l. c #6CA96C",
"z. c #6EA36E",
"x. c #71AC6E",
"c. c #73AD72",
"v. c #79A878",
"b. c #76B074",
"n. c #B69A1D",
"m. c #BAA21A",
"M. c #95912E",
"N. c #AB882B",
"B. c #A88A39",
"V. c #B48E3C",
"C. c #B79438",
"Z. c #B8A733",
"A. c #8FA715",
"S. c #C9B619",
"D. c #C69E3C",
"F. c #C8AB2C",
"G. c #D6BE25",
"H. c #CAA939",
"J. c #D6B83A",
"K. c #CAB52C",
"L. c #B1C622",
"P. c #D6C817",
"I. c #D0D117",
"U. c #E2D21B",
"Y. c #E5DA0B",
"T. c #EFE80C",
"R. c #D7C424",
"E. c #D2C62D",
"W. c #E0C732",
"Q. c #E8D42B",
"!. c #F6EB3E",
"~. c #95945F",
"^. c #BB9344",
"/. c #A98756",
"(. c #B58E4F",
"). c #848678",
"_. c #9A8B6A",
"`. c #B79A77",
"'. c #B0946C",
"]. c #96A47B",
"[. c #C49A44",
"{. c #C9A14E",
"}. c #D2A648",
"|. c #C4A97E",
" X c #C8AD6F",
".X c #B5C672",
"XX c #DBC24F",
"oX c #70789D",
"OX c #827D80",
"+X c #398B97",
"@X c #5D839C",
"#X c #61879F",
"$X c #7BAA85",
"%X c #55A6A5",
"&X c #879687",
"*X c #919288",
"=X c #A39385",
"-X c #88A689",
";X c #88B588",
":X c #96BB87",
">X c #96A896",
",X c #96B897",
"<X c #99A088",
"1X c #ACAD86",
"2X c #B3B290",
"3X c #A4A8A3",
"4X c #A6B9A7",
"5X c #B6B7A7",
"6X c #82ABB2",
"7X c #D3B38A",
"8X c #CDB595",
"9X c #D1B68D",
"0X c #C1BFBE",
"qX c #98C295",
"wX c #ABC992",
"eX c #A7C4A7",
"rX c #B7CAB8",
"tX c #DBC397",
"yX c #E1C49A",
"uX c #E6CF8A",
"iX c #D5D1B1",
"pX c #E8CDA4",
"aX c #F2D9AD",
"sX c #F4DCB4",
"dX c #EFD5AE",
"fX c #8BC0C1",
"gX c #DFE0DB",
/* pixels */
"e.e.e.d.x.;X1X(...H Z g i k <.3.1.;.j.eXc.c.t.e.e.e.w.w.w.w.w.e.",
"w.w.j.1XtXiX XXXN.K 4.h i h <.7.<.>.e.wX,XqXqX$Xj.e.e.e.e.e.w.w.",
"e.l.wX|.{.{.W.Q.G.B.6.:.i h <.7.7.7.7.7.2.r.4XrXeXb.t.e.w.e.w.e.",
"b.2X7XE.P.F.^.C.D.Z.9.1.p h <.7.7.7.7.7.3.,.q.0.e.y.u.t.e.w.w.e.",
"yX XJ.S.S.H.(.^.}.E.L.9.l k j 1.7.7.7.7.7.3.,.-.n ^ -X,Xk.w.w.w.",
"*.H.Y.G.^.[.}.}.Q.T.T.I.8.k p j <.7.<.3.3.3.3.,.-.n Z -X4Xa.r.e.",
"X.n.Y.W.(.@.@.V.R.T.R.M.8.j p j :.k p g :.<.3.,.-.N V P h.eXqXk.",
"%.^.S.F.V.*.%./.H.I.R.m.6.J h h k h g h j >.,.;.B B m z P b.x.s.",
"].2X#.&.#.`.7X7X`.D.U.U.C.6.4.g g j <.1.-.-.-.B -.B m z Z f.j.t.",
"a.;X<X/ W /.yXpX7X XQ.U.C.K l C g g g ;.-.B M B M B m m Z ^ $Xj.",
"r.7.].~ 7 ( '.'.9XuX!.U.C.K Z Z f y a f m N B B M M B B f v ^ p.",
"t.s.v.T 9 q r F ).uX!.P.C.X.H d p i p p f N N N m m M M m p ^ y.",
"c.>X[ ( _ ] ' #X5XaXXXH.D.o.X.&.%._.1X].i.i u t ; t u m f i s E ",
"h.$X6 _ =XoX@X,XiXdX'.B.J.N...(.pXdXsX9X` ; ; s c 6 t u g y * . ",
"h.*X7 ( =XoX#X,XiXaX/. .P.m.o.`.sXsXyX/.G X X c h.) 5 * t t *   ",
"l.4X*X_ Q OX3XiXsXdX=. .Y.W.'.6XfX2X%.q + + [ &X;X,X).c & ; * X ",
"r.s.-Xg.Q $.2XpXsXpX(.N.m.W..X%X+X^ H 2 3 D 5Xb.t.s.-Xg.5 ; , 8 ",
"w.q.b.,X*XQ W `.7X7X1X(.+.n.I.K 4 + q N.S.R.wXd.r.5.x.,Xg.I R -X",
"w.w.w.t.,X3X} Q W / / F A +.F.S X o 3 D L M.:Xs.e.e.e.s.v.>X>Xf.",
"w.w.w.q.z.4X&X6 , p i a o D o.A & ; * X $ I 4Xl.e.e.e.e.k.c.l.u.",
"w.w.a.l.].) v z f m m i o , Z V n a & + [ 4Xc.r.w.w.w.e.r.w.e.w.",
"e.e.,X4X_.L L V B B N u o U $X;Xf.v   + } ;Xt.q.e.e.e.w.r.w.r.w.",
"-X>X-XR A A.A.l V B N u o [ 0XgX3X8   4 { 4Xj.r.w.e.e.w.e.e.e.w.",
"8 8 7 + * l 5.J G B B u o 2 W Q r $ : y v R >Xl.e.q.w.w.w.w.w.e.",
"  @ # @ o u C J J Z J s X # 0 0 0 0 1 > > 6 g.&Xz.t.q.r.w.e.w.w.",
"  % w 2 O y -.4.J H H q O O 0 H ..H q X t f : U z.a.q.w.w.w.e.e.",
". % w 0 2 - i :.5.4.4.Z p ; 1 $.7X'.! + > b + E v.j.q.w.w.e.w.w.",
"Y F q 0 0 # - p k >.>.;.f & O W _.$.F X * u Y { f.t.w.w.e.w.w.e.",
"f.&XI 2 0 2 2 1 x b m z o     . O O O   . 5 >Xz.e.w.e.e.w.w.w.e.",
"f.&X$XI $ O 7 ^ ^ , : o . .     @ $ % % O 5 4Xz.e.w.w.w.w.e.w.w.",
"r.e.].h.~ R | h.&XY Y Y Y Y I 4 @ O % % e [ rXl.e.e.w.w.w.e.w.e.",
"w.q.a.f.y.y.y.a.j.y.y.y.y.y.i.8 @     + } -Xx.t.w.e.e.e.w.w.w.e."
};
