/* XPM */
static char *left_3__[] = {
/* columns rows colors chars-per-pixel */
"32 32 229 2 ",
"   c #060604",
".  c #090906",
"X  c #090B08",
"o  c #120D0A",
"O  c #071707",
"+  c #121C0C",
"@  c #19150D",
"#  c #181915",
"$  c #22150E",
"%  c #251A0C",
"&  c #251610",
"*  c #2C1B13",
"=  c #231A15",
"-  c #361E13",
";  c #0A250B",
":  c #0D2C0D",
">  c #072E08",
",  c #0A3A0E",
"<  c #132812",
"1  c #183717",
"2  c #0D2C12",
"3  c #33241C",
"4  c #3A2519",
"5  c #263819",
"6  c #2B2516",
"7  c #282725",
"8  c #3A2B22",
"9  c #293727",
"0  c #35332F",
"q  c #393A36",
"w  c #4C2C1D",
"e  c #43291D",
"r  c #58361C",
"t  c #49341B",
"y  c #653A1E",
"u  c #482B20",
"i  c #463629",
"p  c #543526",
"a  c #4D382F",
"s  c #693D21",
"d  c #643A20",
"f  c #0D4812",
"g  c #144A14",
"h  c #0D581A",
"j  c #135B1A",
"k  c #185615",
"l  c #214F1D",
"z  c #0E641E",
"x  c #1B661B",
"c  c #236A19",
"v  c #2A741B",
"b  c #2A771D",
"n  c #185B22",
"m  c #36562B",
"M  c #374537",
"N  c #2A492B",
"B  c #0F6C23",
"V  c #0E6320",
"C  c #106D22",
"Z  c #186823",
"A  c #0F7226",
"S  c #137425",
"D  c #127B29",
"F  c #1A7826",
"G  c #287A25",
"H  c #3A7638",
"J  c #2C7129",
"K  c #505017",
"L  c #4A443C",
"P  c #584235",
"I  c #554D2D",
"U  c #665A23",
"Y  c #6A4D32",
"T  c #526B32",
"R  c #706D2D",
"E  c #3A7844",
"W  c #3E6365",
"Q  c #554D45",
"!  c #575B56",
"~  c #575A56",
"^  c #505348",
"/  c #695E54",
"(  c #536A4D",
")  c #5A625A",
"_  c #586755",
"`  c #4F704D",
"'  c #6F6951",
"]  c #666964",
"[  c #75796A",
"{  c #777876",
"}  c #71756A",
"|  c #865E37",
" . c #8E622C",
".. c #8D6132",
"X. c #95733B",
"o. c #92712B",
"O. c #A6783D",
"+. c #94701E",
"@. c #936E43",
"#. c #9F7642",
"$. c #87674B",
"%. c #A57F4A",
"&. c #907C64",
"*. c #857A6A",
"=. c #2B8B26",
"-. c #248727",
";. c #318521",
":. c #348C24",
">. c #2C9228",
",. c #359225",
"<. c #399826",
"1. c #3EA128",
"2. c #5BA21D",
"3. c #61A31A",
"4. c #499925",
"5. c #4B8F2D",
"6. c #6E982E",
"7. c #41A329",
"8. c #59A821",
"9. c #48A730",
"0. c #7CAC2A",
"q. c #488F1D",
"w. c #469646",
"e. c #479847",
"r. c #4A964A",
"t. c #489848",
"y. c #539D53",
"u. c #5B9C5B",
"i. c #428A43",
"p. c #56A056",
"a. c #5DA25D",
"s. c #57AE42",
"d. c #619B61",
"f. c #669367",
"g. c #7C8678",
"h. c #708C70",
"j. c #64A363",
"k. c #69A669",
"l. c #75AB74",
"z. c #7AA77A",
"x. c #7AB279",
"c. c #6AB757",
"v. c #B49A1D",
"b. c #B6972A",
"n. c #BC963B",
"m. c #AE8A39",
"M. c #B4A735",
"N. c #9CA11D",
"B. c #C8B713",
"V. c #C29F3B",
"C. c #CDB428",
"Z. c #D1BB21",
"A. c #C9A739",
"S. c #D0B433",
"D. c #89C01E",
"F. c #A5CD14",
"G. c #B1D213",
"H. c #D9C81A",
"J. c #D5D116",
"K. c #E1D414",
"L. c #E4D61B",
"P. c #E8DF0E",
"I. c #EDE40E",
"U. c #E3E310",
"Y. c #DBCC26",
"T. c #E5D321",
"R. c #E1C92A",
"E. c #D1E20B",
"W. c #8B9F58",
"Q. c #AB8746",
"!. c #B68D43",
"~. c #B99545",
"^. c #B99154",
"/. c #B7A446",
"(. c #98846A",
"). c #909874",
"_. c #A48564",
"`. c #BA9766",
"'. c #A69175",
"]. c #B09674",
"[. c #85AF76",
"{. c #C59848",
"}. c #CDAB4C",
"|. c #C09D70",
" X c #C4A16A",
".X c #C7A57B",
"XX c #CFB17D",
"oX c #8CC277",
"OX c #EFDA75",
"+X c #C8D559",
"@X c #7A7985",
"#X c #5F72A2",
"$X c #6376AA",
"%X c #258898",
"&X c #7E9D83",
"*X c #7FA580",
"=X c #5FBDD1",
"-X c #868785",
";X c #849184",
":X c #879988",
">X c #939993",
",X c #86AB85",
"<X c #89B688",
"1X c #9AB79A",
"2X c #99AC86",
"3X c #AFAE91",
"4X c #8DA9B2",
"5X c #A2AEA2",
"6X c #A8BAA7",
"7X c #B9BEA5",
"8X c #C8AC84",
"9X c #D5B88C",
"0X c #C7B694",
"qX c #D1BB95",
"wX c #9DC29A",
"eX c #92C48C",
"rX c #A6C69C",
"tX c #B7C2A7",
"yX c #B9CAB6",
"uX c #A8C8A4",
"iX c #DCC298",
"pX c #DDC08C",
"aX c #E2C59B",
"sX c #D4CCA8",
"dX c #D5CDAB",
"fX c #F3DBB2",
"gX c #EBD5AC",
"hX c #F2E1BB",
"jX c #D2CFC1",
/* pixels */
"t.t.t.t.t.e.u.uX9X%...U q.v k b 1.1.7.7.7.c.eXeXx.x.x.j.y.e.e.e.",
"e.t.t.e.e.a.1XdX.X{.m.v.D.3.v v ;.<.7.7.9.9.oXrXuXeX1X1Xy.w.e.e.",
"t.e.e.t.a.uXsX X{.}.T.I.I.G.4.c x :.1.7.7.7.7.9.9.;.H <XrXx.e.e.",
"t.t.e.a.6XqX}.H.C.V.V.A.R.S./.6.b c b <.7.7.7.7.1.=.F ` :XyXl.e.",
"e.e.a.tXdX XH.H.S.{.!.{.{.}.S.0.<.k c ,.7.7.7.7.1.>.A h ` uXz.r.",
"e.e.rX3X}.L.K.M.{.}.{.{.n.C.U.D.<.k c <.7.7.1.1.1.>.A V ` 1X<Xa.",
"e.e.wX.X}.K.T.}.!.O.m.~.H.H.C.0.<.k c :.;.v c ;.<.>.D A J h.wXx.",
"e.e.rX3Xn.K.L.A.#...#.V.J.C.Q.6.4.c c :.v k k c >.=.-.D A Z _ uX",
"t.e.rX8X^.A.n.X.%.|..X X{.m.m.H.G.2.b j b ,.,.=.-.D D S B g 9 q ",
"t.t.[.3X8X^...y $.8XaXpX`.Q.!.H.E.8.F h v ;.>.-.D D D D B f > X ",
"t.t.t.x.yX_.p & Q 8XaXaX9X X!.H.E.8.-.A h h z D D D D D A f ;   ",
"t.t.t.p.yXjX*.7 r | / &.qXOXH.Z.M.m.R c z z h h A D D D B f ;   ",
"t.t.t.t.eXyX>Xa p d Q / iXOXH.C.m.~.X.T 5.5.H J C A A A B f 1 q ",
"t.t.e.p.1X] ~ (.@X$X4XtXfXaX^.~.V. .@.].iXsXdX).m f f B z 2 ! &X",
"t.t.e.p.1X^ a '.-X$X4X2XfX9XX.C.B. .Q.iXhXfXaX&.9 > f V h < ) d.",
"t.t.e.p.1X! Q (.@X$X4X5XgX.X .B.P.o.(.sXhXiX^.Y + O f h h 2 ! d.",
"t.t.e.p.wXyX-XQ / 3XdXfXfX.X .B.P.A.).=X4X(.I @   X O , , # ! d.",
"e.e.e.t.e.*X-Xq p _.qXfXgX.XX.v.Z.R.[.%XW Y P K K I ^ l 1 ~ ;Xk.",
"t.t.t.t.e.x.;Xi o i &.9X9X8X`.@.+.U.N.5 X 7 $./.Y.+X[.^ M ;Xz.u.",
"t.t.t.p.*Xg.Q i / -X] T ' T ( i K v.+.% O 2 m U R W.[.-X>X,Xe.e.",
"t.e.e.p.6X{ 0 i *.5X^ # f g f + 6 m.U $ < 1 + # q h.l.p.a.p.t.t.",
"e.t.e.y.<X6Xg.0 = q N V B A z ; + c l + 4 w @ a ;X,Xj.t.t.t.t.t.",
"t.r.e.t.5.[.;X0 O g 4.8.G D D 5 5 Z E ] P 4 + N _ ( ` f.y.t.t.t.",
"r.y.r.t.w.z.g.0 g 8.F.F.:.F S K r H l.yX! # : : + # q h.y.y.t.t.",
"x.>X^ L M ^ 0 # l 4.8.5.T I K 3 i [.2X{ P 3 O X   @ u L ] z.i.w.",
"f.{ 4 $ @ @ o   g >.>.;.U U U 5 9 h./ a w p a 3 o - r w a [ j.p.",
"7 8 r y r e = X , F =.<.<.4.,.F Z 9 7 u y | ].*.8 - d d r i } j.",
"  $ s Y s r 4 * < 1 g x =.<.<.<.-.f , * $.'.&.L # & r s w @ _ u.",
"7 8 p d s p w u # X = 9 Z J ;.;.-.B , # } './ 7 o & w s w @ ! d.",
":X{ u 4 u w u u # 7 @X:XM ; 2 2 2 ; O   6 ~ g.) 7 & w u e = ) d.",
"z.5X] a * & * - a { 5X1X} ! ! ! ~ ~ ! ! ! { *X*X] L 3 * 8 ^ ;Xk.",
"y.l.5X~ = o . o ) <Xj.y.u.d.d.d.d.d.d.d.d.f.u.d.f.^ # . q z.j.u."
};
