/* XPM */
static char *left_1__[] = {
/* columns rows colors chars-per-pixel */
"32 32 240 2 ",
"   c #070C05",
".  c #160E09",
"X  c #0A160A",
"o  c #18140D",
"O  c #1B1A14",
"+  c #091115",
"@  c #261F0E",
"#  c #251D16",
"$  c #331C10",
"%  c #09260C",
"&  c #08340E",
"*  c #09340D",
"=  c #192517",
"-  c #0B3412",
";  c #0D3D13",
":  c #133314",
">  c #163718",
",  c #102C0F",
"<  c #292718",
"1  c #38281B",
"2  c #293619",
"3  c #26260D",
"4  c #031C27",
"5  c #162D2C",
"6  c #292825",
"7  c #392D24",
"8  c #2E382D",
"9  c #3A3834",
"0  c #2D3330",
"q  c #45291A",
"w  c #46371C",
"e  c #55321D",
"r  c #542E1C",
"t  c #4C3928",
"y  c #553726",
"u  c #493D36",
"i  c #673B21",
"p  c #0D450F",
"a  c #0B4612",
"s  c #0B4B14",
"d  c #174618",
"f  c #0D5D1B",
"g  c #0D5417",
"h  c #135314",
"j  c #155A19",
"k  c #274F1B",
"l  c #0E681F",
"z  c #0F631D",
"x  c #13611C",
"c  c #1B661A",
"v  c #26671A",
"b  c #29761D",
"n  c #35791D",
"m  c #1C5828",
"M  c #255B21",
"N  c #3D5C28",
"B  c #314C2E",
"V  c #0E6C21",
"C  c #0D6620",
"Z  c #126721",
"A  c #0F7425",
"S  c #0F7927",
"D  c #117324",
"F  c #117B29",
"G  c #177627",
"H  c #2B7722",
"J  c #377437",
"K  c #366A2D",
"L  c #5C5608",
"P  c #53411C",
"I  c #64530F",
"U  c #506F17",
"Y  c #46443A",
"T  c #5A4A3C",
"R  c #51592F",
"E  c #6B5428",
"W  c #755A34",
"Q  c #6C502B",
"!  c #51722B",
"~  c #6F762E",
"^  c #756318",
"/  c #494844",
"(  c #544B46",
")  c #4C5449",
"_  c #585B54",
"`  c #56514F",
"'  c #635C56",
"]  c #6E5943",
"[  c #476252",
"{  c #4C704A",
"}  c #7D664D",
"|  c #656457",
" . c #746B52",
".. c #7E715C",
"X. c #5B7463",
"o. c #6A756A",
"O. c #77766A",
"+. c #767B72",
"@. c #646765",
"#. c #936A27",
"$. c #946839",
"%. c #916C33",
"&. c #A17836",
"*. c #895E34",
"=. c #856947",
"-. c #86704E",
";. c #8F7656",
":. c #A3784A",
">. c #827A66",
",. c #37831C",
"<. c #1D862B",
"1. c #2A8A26",
"2. c #338923",
"3. c #348626",
"4. c #2C912B",
"5. c #3C9F29",
"6. c #389726",
"7. c #2B8B38",
"8. c #3EA129",
"9. c #73B01B",
"0. c #429F27",
"q. c #42902A",
"w. c #6A9926",
"e. c #41A329",
"r. c #44A227",
"t. c #44A335",
"y. c #388A45",
"u. c #5A874F",
"i. c #459745",
"p. c #479847",
"a. c #489848",
"s. c #49974A",
"d. c #539C53",
"f. c #5B9D5B",
"g. c #5B9457",
"h. c #538C55",
"j. c #6A8D5C",
"k. c #5DA15D",
"l. c #60AB53",
"z. c #669A66",
"x. c #7B8377",
"c. c #6F8D70",
"v. c #5AA164",
"b. c #63A564",
"n. c #69A669",
"m. c #6CAB6D",
"M. c #67A762",
"N. c #75A96F",
"B. c #6BA771",
"V. c #77AB77",
"C. c #76B27A",
"Z. c #B39E1B",
"A. c #A3931A",
"S. c #879D2F",
"D. c #A78736",
"F. c #B69736",
"G. c #B0922E",
"H. c #81A321",
"J. c #A6AD0F",
"K. c #C4AC19",
"L. c #C6B517",
"P. c #CBB427",
"I. c #D3BD25",
"U. c #C8A834",
"Y. c #D4B639",
"T. c #CFB43E",
"R. c #B2C024",
"E. c #CAC603",
"W. c #D6C51B",
"Q. c #D2D414",
"!. c #E8DA19",
"~. c #ECE215",
"^. c #D8C429",
"/. c #DEC037",
"(. c #D9D721",
"). c #AD8743",
"_. c #B68C4B",
"`. c #B99647",
"'. c #A88659",
"]. c #B9945B",
"[. c #B4A442",
"{. c #968E71",
"}. c #AD8D6A",
"|. c #A99579",
" X c #B89B74",
".X c #B28C67",
"XX c #84B479",
"oX c #A4A76C",
"OX c #C29A44",
"+X c #CCAA4E",
"@X c #C09A71",
"#X c #C6A47B",
"$X c #C7B279",
"%X c #D0B56F",
"&X c #9DC57F",
"*X c #DECF41",
"=X c #DFCB6C",
"-X c #E8D865",
";X c #F9EB58",
":X c #146B8A",
">X c #6C778F",
",X c #6977A4",
"<X c #3C99AC",
"1X c #7B9683",
"2X c #638494",
"3X c #7BAE84",
"4X c #6887A3",
"5X c #898887",
"6X c #869784",
"7X c #909395",
"8X c #A69A83",
"9X c #87A989",
"0X c #90AB8F",
"qX c #88B88A",
"wX c #96AA96",
"eX c #97BA96",
"rX c #90B58C",
"tX c #B1B592",
"yX c #A5A8A6",
"uX c #A7B9A3",
"iX c #BBBDBA",
"pX c #B4BAA8",
"aX c #C6AB81",
"sX c #D8BB92",
"dX c #D2B887",
"fX c #91C19A",
"gX c #B5C59E",
"hX c #B2CBB5",
"jX c #DBC19B",
"kX c #E3D097",
"lX c #DBE586",
"zX c #D0C7A6",
"xX c #C2C1BC",
"cX c #C6C9A5",
"vX c #E7CEA4",
"bX c #E8D7A8",
"nX c #EFD9B0",
"mX c #E9E0B3",
"MX c #F5E2B7",
"NX c #C9D5C7",
/* pixels */
"a.p.d.m.V.N.XXoX_.*.E K G c h n r.8.e.e.4.4.v.fX3Xm.B.B.d.i.i.a.",
"p.p.N.pXxXzXkX=X^.L.Z.w.,.c j 2.r.8.e.e.6.6.t.C.3XqXfXqXv.i.a.a.",
"k.qXgXdX+XOX+X^.!.~.~.R.w.n c b 6.5.r.e.8.8.8.4.<.<.s.3XV.f.i.a.",
"V.gX%XY.!.I.F.).).U.Y.+X[.w.3.c c 1.8.e.8.8.8.6.4.<.F { j.v.d.a.",
"#X%XY.W.I.P.OX_.).U.^.P.G.S.0.c j ,.8.8.8.8.8.4.<.F A Z J c.3Xz.",
"$.G.!.!.OX_.OX_.`.^.~.^.G.H.9.,.b b ,.,.2.1.1.F F F F A C K X.v.",
"*.G.W.!.U.&.=.:.%X/.!.P.F.L.Q.9.2.v h h h h x A S F F S g K h.s.",
"tX$X+XF.&.:..X#XdX+XU.F.F.W.Q.9.b j p z l l A A S F F S V G H { ",
"N.tX#X:.Q =.@XsXsX#XOXOXU.I.Q.S.n c f l A A A V C V A A S A z d ",
"i.k.rX6Xu ( }.jXjXsX$X*X~.P.D.&.~ K x g j V V g a a g A S A f p ",
"s.s.N.x.9 q ] } } 8XvX;X~.P.D.%.W R m Z x f g s & % & g V l a X ",
"n.rXwX+.T T ( ` _ 8XkX-X^.U.:.$.E R ! u.g.u.! d %     * g f *   ",
"m.6X' Y |.x.,X,X9XhXbX%X_.`.OX#.*.'.sXbXnXjX{.N > O = - a p *   ",
"n.1X` Y 8X5X,X4X9XcXvX@X&.K.L.^ T }.bXmXkX#X-.2 ) 1Xo.: a s *   ",
"n.0X5X .-.>.5XyXzXnXvX.X#.K.E.L 0 2XhXzX X=.w # o.iXyX6 - a &   ",
"k.k.V.x.` ` >.jXnXMXvX.X#.L.E.L 5 :X<Xx.W 1 @ 3 +.xXyX9 = - - = ",
"a.a.b.rXwX+.'  .aXsXaX:.#.L.E.L + 4 4 = P W G.Z.=XmXNXgXX.9 [ 6X",
"a.a.a.s.k.wX5Xo. .-. .T P A.K.L X % , % < Q [.-X-XfXm.hXuX7X1XB.",
"a.a.p.p.k.xXiX+.B : d : 3 W &.P , ; f g & = ( uXC.v.a.v.3XqXC.f.",
"a.p.d.g.f.XX_ 8 m C l z j d 1 w 1 6 - f a : [ 9Xl.8.a.a.s.s.s.s.",
"p.i.b.0X6Xj.~ U F F F f a ; d B 2 O % f s > [ 9Xb.p.a.a.a.a.a.a.",
"p.p.M.c.Y U J.9.b v M : % M y.s.J > + d d = Y 6X9XB.s.a.a.a.a.a.",
"p.i.M.c.8 k U U R I P 3 6 >X3XC.g./ O 1 7 1 1 9 5XeXb.a.p.p.a.a.",
"p.p.v.c.8 h G q.! ! R 2 O _ O.>.| 9 o $ t k < X @.9XM.a.p.a.a.a.",
"p.i.b.6X_ B H 6.0.6.3.d . < y i 1 o . 2 k m m B 5XeXv.a.a.a.a.a.",
"p.i.z.9X9Xx.B v 2.1.Z - o q i i e @ = M M d ) 7XuXqXk.a.a.i.a.a.",
"p.p.p.s.f.uX7XX.B d X   # ] .X.X=.7 . , Y x.tXeXv.s.a.a.a.a.a.a.",
"p.p.p.s.f.hXiXO.< @ . . <  .|.|.} w O 0 o.0XC.b.d.a.s.i.a.i.a.a.",
"a.a.p.a.d.x./ 1 r r r q q < O O . # ( 6X9Xk.i.a.p.p.a.p.a.a.a.a.",
"p.a.p.a.s.o.9 $ i i i r q o +   5 [ c.z.d.p.i.a.p.p.a.a.a.i.i.a.",
"a.a.a.a.g.1X| u y r q q 1 9 / ) | c.s.i.a.a.a.a.a.a.p.p.a.p.a.a.",
"p.a.a.a.a.k.j.{ 6 .     9 +.1Xz.h.g.s.s.p.p.p.a.p.p.a.p.p.a.a.a."
};
