/* XPM */
static char *left_new32[] = {
/* columns rows colors chars-per-pixel */
"32 32 223 2 ",
"   c #030402",
".  c #050B05",
"X  c #0A0A06",
"o  c #0B0B07",
"O  c #160D09",
"+  c #061D06",
"@  c #0A1309",
"#  c #091708",
"$  c #18170C",
"%  c #1D1914",
"&  c #0D1E1E",
"*  c #231A0C",
"=  c #281812",
"-  c #341E12",
";  c #0B210B",
":  c #0C2D0B",
">  c #072508",
",  c #14240D",
"<  c #0B380C",
"1  c #0A2E12",
"2  c #142612",
"3  c #073712",
"4  c #183319",
"5  c #193517",
"6  c #10300A",
"7  c #2D2012",
"8  c #28261B",
"9  c #362619",
"0  c #273715",
"q  c #393819",
"w  c #28270A",
"e  c #1B3235",
"r  c #383527",
"t  c #323731",
"y  c #4C2A1C",
"u  c #452717",
"i  c #532F19",
"p  c #5A331D",
"a  c #483B1D",
"s  c #472C22",
"d  c #483A23",
"f  c #5C3420",
"g  c #4A3D30",
"h  c #0B420E",
"j  c #0D4B12",
"k  c #0C4917",
"l  c #114B13",
"z  c #164714",
"x  c #0E5B1B",
"c  c #0B5217",
"v  c #175616",
"b  c #255317",
"n  c #0F601B",
"m  c #0E691F",
"M  c #16641B",
"N  c #236D1A",
"B  c #2A6219",
"V  c #26731B",
"C  c #29771C",
"Z  c #377A1B",
"A  c #32641F",
"S  c #1E5A21",
"D  c #175235",
"F  c #254C26",
"G  c #2B5D2C",
"H  c #265126",
"J  c #2B5936",
"K  c #385A31",
"L  c #394C31",
"P  c #0F6C23",
"I  c #0D6022",
"U  c #116B22",
"Y  c #0F7A29",
"T  c #0F7125",
"R  c #117A29",
"E  c #167926",
"W  c #2A6929",
"Q  c #28732B",
"!  c #346531",
"~  c #356C33",
"^  c #357336",
"/  c #3B7B3A",
"(  c #357835",
")  c #316F27",
"_  c #4D581C",
"`  c #484614",
"'  c #477F16",
"]  c #5F4622",
"[  c #5D522B",
"{  c #494735",
"}  c #584939",
"|  c #51512F",
" . c #694725",
".. c #6E5129",
"X. c #50712A",
"o. c #646B3A",
"O. c #747131",
"+. c #72700A",
"@. c #293F4B",
"#. c #5C514B",
"$. c #685845",
"%. c #735E51",
"&. c #5A7543",
"*. c #447F40",
"=. c #687748",
"-. c #736857",
";. c #76614B",
":. c #907E1E",
">. c #855A36",
",. c #8A623C",
"<. c #946733",
"1. c #977338",
"2. c #9A752B",
"3. c #A47B2B",
"4. c #987B52",
"5. c #9D734B",
"6. c #A37A52",
"7. c #A07D42",
"8. c #847B69",
"9. c #2E811F",
"0. c #34821E",
"q. c #1B8429",
"w. c #288927",
"e. c #338D23",
"r. c #358521",
"t. c #2C9329",
"y. c #3D9B27",
"u. c #359929",
"i. c #3B9E28",
"p. c #349125",
"a. c #3E8A3E",
"s. c #2D8B39",
"d. c #3EA129",
"f. c #418C1A",
"g. c #7BB31C",
"h. c #4E932C",
"j. c #41A429",
"k. c #5DA921",
"l. c #6CAC2F",
"z. c #3D9340",
"x. c #438C43",
"c. c #448341",
"v. c #469446",
"b. c #4A9748",
"n. c #469949",
"m. c #489848",
"M. c #499747",
"N. c #539748",
"B. c #66864B",
"V. c #729940",
"C. c #6A986F",
"Z. c #AE901A",
"A. c #87BB15",
"S. c #A8AE11",
"D. c #8B8D39",
"F. c #AC8838",
"G. c #AE9231",
"H. c #B59431",
"J. c #8FB522",
"K. c #B5A528",
"L. c #BEA130",
"P. c #CAB812",
"I. c #D3BC1B",
"U. c #C3AA10",
"Y. c #C19F37",
"T. c #CCB725",
"R. c #D2BA26",
"E. c #DAB63C",
"W. c #C5AB31",
"Q. c #AFCA18",
"!. c #D2CA0B",
"~. c #D9C71A",
"^. c #CED110",
"/. c #E7D718",
"(. c #D8E112",
"). c #E9E40C",
"_. c #F4ED0C",
"`. c #F6F208",
"'. c #D6C126",
"]. c #E5CF26",
"[. c #E7D027",
"{. c #E3C530",
"}. c #F5EB2D",
"|. c #878344",
" X c #A38649",
".X c #B48D4E",
"XX c #B9B55E",
"oX c #9B886C",
"OX c #B8946A",
"+X c #B99B78",
"@X c #AA906F",
"#X c #C59748",
"$X c #CFA747",
"%X c #C7A67D",
"&X c #E4D145",
"*X c #DFC476",
"=X c #596996",
"-X c #7B7985",
";X c #358FA4",
":X c #4CA09D",
">X c #4EA5A7",
",X c #B29C85",
"<X c #AA9A83",
"1X c #8395BE",
"2X c #97B8A4",
"3X c #B3AA9E",
"4X c #C9AE87",
"5X c #D9BB8F",
"6X c #C3B891",
"7X c #D9BB92",
"8X c #A1C7BD",
"9X c #DEC29A",
"0X c #EED599",
"qX c #C1C3B7",
"wX c #E6CAA2",
"eX c #EED5AC",
"rX c #F3DDB4",
"tX c #FBE3BB",
"yX c #889AC3",
"uX c #E9DFD1",
"iX c #FDF2D6",
"pX c #D6DCE4",
"aX c #FFF8E0",
/* pixels */
"m.m.n.m.b.N.D.1.<...) P c V j.j.y.q.s.h.n.n.n.m.m.m.m.m.m.m.m.m.",
"m.m.n.B. X$XE.R.S.S.h.V v V d.j.y.t.u.u.t.n.m.m.v.m.m.m.m.m.m.m.",
"m.b.b.V.Y.E.{./._.(.l.9.v V d.j.j.d.d.d.w.q.z.v.v.n.m.n.m.m.m.m.",
"b.|.F.R._._.].W.$XL.g.p.v N y.d.j.j.d.d.d.u.q.n W m.v.v.m.m.n.v.",
"7.Y.I.I.R.{.E.$X{.[.^.A.f.N V e.j.j.j.j.j.d.t.q.m x l a.m.m.m.m.",
"<.U./.I..XY.#X$X[.`.(.Q.k.N v r.d.u.0.p.d.j.d.w.E n v a.m.m.m.m.",
">.Z.~.].#X<.<.3.'.).T.D.h.C B 9.r.M l v 9.d.d.t.E R T j ( m.m.m.",
"x.:.3.Y.6.OXOX+X$XW.F.K.Q.g.r.V N C 0.9.w.q.t.q.R R P j ( m.m.m.",
"b.b.o. .,.,X7X5X%X.XY.R.I.J.p.M U V e.t.q.Y Y Y R R T x j Q m.m.",
"M.M.N.! - oX7XwX9X*X}./.H.o.Q E m c x E R R Y Y Y R Y R x h S v.",
"m.m.b.! % #.#.#.@X0X}.~.G.O.| b j l z x T R Y Y Y Y R R n z v m.",
"m.v.K r } #.#.%.+XeX&XR.H.<.....=.=.B.&.Q x c k c x P R n < v x.",
"v.5 % $.,X=XyXpXiXeXOX.X$X3.>.OX9XrXrX6X&.: @ . @ > j U x < > . ",
"v.5 * ;.,X=XyXpXaXwX5.Z.~.Z.,.%XrXrX7X Xd @ ^ m.G . + h j < +   ",
"v.v.K { -.-X3XuXiXwX5.Z./.I. X2X8X6X4.d * . / m.n.^ @ ; < < +   ",
"m.m.m.! 8 8.4XrXtXwX6.Z.!./.XX>X;X-.] 7 % % h.n.n.n.z.# + > + . ",
"m.m.m.m.a.8 $.+X7X4X4X.X2.U.^._ & %  .G.I.^.l.n.n.n.n.x.4 . 4 x.",
"m.m.m.m.M.v.{ } $.=.=.[ a :.K.` @ + q [ +.+.h.n.n.n.b.n.n.v.v.n.",
"m.m.m.m.M.x.2 # < l z : +  .1.q : h : . o # / m.b.n.b.b.b.m.n.n.",
"m.m.m.m./ @ 3 I R P c l h : % c P T 3 4 x.v.m.m.n.b.n.n.m.m.n.n.",
"v.m.n.~ # < n U c D >XC.~ 0 q W Y T D e e x.n.n.n.b.n.n.m.b.m.m.",
"m.m.n.! # f.e.E 3 8 <X,XC.&. .) E Q J @.@.{ c.n.m.n.b.b.m.m.b.m.",
"m.m.n.! w S.A.9.1 O r 8.qX<X[ B ) [ 7 r 8.@X8 G m.m.b.n.n.b.n.m.",
"m.v.F   # ' Z 0 7 i s } %.} 7 ` X.X.A v L } c.n.m.m.n.b.n.m.n.b.",
"v.4   o $ k F { }  .f y - = 0 ` X.h.t.M 1 o ^ b.m.m.m.m.m.m.m.m.",
"v.4 o * - $ } ,XOX.. .u $ b y.j.j.y.w.x 1   . G m.m.m.m.m.m.m.m.",
"m.v.v.! % = 9 } oX+X{ % 6 N j.j.Z z ; , 9 u X H m.m.m.m.m.m.m.m.",
"m.m.n.! X = O % } -.8 @ + z B b b $ $ - i i O G m.m.m.m.m.m.m.m.",
"m.m.m.m./ @ X . . @ X   .     X O 9 y p p y O G m.m.m.m.m.m.m.m.",
"m.m.m.m.M.x.v.x.v.v.x.v.v.F O = u s p p 9 $ ^ m.m.m.m.m.m.m.m.m.",
"m.m.m.m.m.m.m.m.m.m.m.m.m.m.~ = = = - - 8 x.m.m.m.m.m.m.m.m.m.m.",
"v.m.m.m.m.m.m.m.m.m.m.m.m.m.~         4 v.m.m.m.m.m.m.m.m.m.m.m."
};
