/* XPM */
static char *right_new32[] = {
/* columns rows colors chars-per-pixel */
"32 32 226 2 ",
"   c #030402",
".  c #050B05",
"X  c #0A0A06",
"o  c #0B0B07",
"O  c #1A0E0B",
"+  c #150B09",
"@  c #061D06",
"#  c #0B1A0A",
"$  c #081507",
"%  c #18170B",
"&  c #1B1712",
"*  c #0D1E1E",
"=  c #261B0D",
"-  c #271812",
";  c #351E13",
":  c #0C2D0C",
">  c #092409",
",  c #16220D",
"<  c #0C3D0E",
"1  c #0A360A",
"2  c #092D11",
"3  c #172612",
"4  c #073913",
"5  c #183318",
"6  c #173818",
"7  c #10300B",
"8  c #282717",
"9  c #332213",
"0  c #3C2419",
"q  c #283315",
"w  c #3B3919",
"e  c #242508",
"r  c #1C3335",
"t  c #333129",
"y  c #4B2A1C",
"u  c #48281A",
"i  c #532F18",
"p  c #5A331D",
"a  c #4E331C",
"s  c #60391F",
"d  c #493827",
"f  c #513425",
"g  c #653C25",
"h  c #0B430E",
"j  c #0F480F",
"k  c #0E4D12",
"l  c #0C4918",
"z  c #124B13",
"x  c #174713",
"c  c #0E5C1C",
"v  c #0C5118",
"b  c #165717",
"n  c #264917",
"m  c #275F17",
"M  c #0F631D",
"N  c #16651C",
"B  c #236E1B",
"V  c #266417",
"C  c #26721B",
"Z  c #2A781D",
"A  c #337C1D",
"S  c #1E5921",
"D  c #14562E",
"F  c #244B26",
"G  c #2C5D2D",
"H  c #265126",
"J  c #385A31",
"K  c #2F4F37",
"L  c #0F6B23",
"P  c #0E6121",
"I  c #126B22",
"U  c #116720",
"Y  c #0F7326",
"T  c #0F7A29",
"R  c #117525",
"E  c #107A29",
"W  c #157627",
"Q  c #2A6829",
"!  c #237625",
"~  c #326531",
"^  c #356C33",
"/  c #3B7B3A",
"(  c #367636",
")  c #307129",
"_  c #4D591C",
"`  c #474417",
"'  c #467E16",
"]  c #72700A",
"[  c #564523",
"{  c #484736",
"}  c #56473B",
"|  c #58512A",
" . c #6A4624",
".. c #744B28",
"X. c #675422",
"o. c #655636",
"O. c #715134",
"+. c #546B24",
"@. c #4F743B",
"#. c #6B762D",
"$. c #293F4B",
"%. c #5C534F",
"&. c #6F5B48",
"*. c #457F41",
"=. c #5A7846",
"-. c #6A794A",
";. c #716755",
":. c #6F6D4B",
">. c #96781E",
",. c #845936",
"<. c #8B6338",
"1. c #956836",
"2. c #997137",
"3. c #8F6D31",
"4. c #A17B21",
"5. c #917552",
"6. c #A37D45",
"7. c #A27A53",
"8. c #867B69",
"9. c #917D6A",
"0. c #34841F",
"q. c #1B8429",
"w. c #158029",
"e. c #2A8A27",
"r. c #308520",
"t. c #348C22",
"y. c #2B9329",
"u. c #3C9B27",
"i. c #3C9D28",
"p. c #359628",
"a. c #3D893E",
"s. c #2E8B39",
"d. c #3EA129",
"f. c #438B1C",
"g. c #73B51B",
"h. c #4E912B",
"j. c #41A429",
"k. c #5DA921",
"l. c #6DAC2F",
"z. c #3B9140",
"x. c #438C43",
"c. c #408740",
"v. c #469446",
"b. c #4A9748",
"n. c #489848",
"m. c #489748",
"M. c #539748",
"N. c #6D9543",
"B. c #6A986F",
"V. c #B09318",
"C. c #88BB18",
"Z. c #A8AE11",
"A. c #AB8826",
"S. c #AC8738",
"D. c #B79538",
"F. c #AF9430",
"G. c #B8A52A",
"H. c #8B9633",
"J. c #CEBB19",
"K. c #CCB317",
"L. c #C3A927",
"P. c #CEB924",
"I. c #D2BA28",
"U. c #C3A136",
"Y. c #D8B53B",
"T. c #CAAF3B",
"R. c #E1BF36",
"E. c #AAC717",
"W. c #B2D014",
"Q. c #D4CB0C",
"!. c #CBC614",
"~. c #D9C71B",
"^. c #D1D60E",
"/. c #E7D917",
"(. c #D8E112",
"). c #F4ED0C",
"_. c #EFE90C",
"`. c #D7C125",
"'. c #E6CB2D",
"]. c #EAD222",
"[. c #F5EB2D",
"{. c #918249",
"}. c #B68B43",
"|. c #B58A49",
" X c #AC8D50",
".X c #B9B55E",
"XX c #B28D65",
"oX c #A89378",
"OX c #B89D7B",
"+X c #B18F66",
"@X c #C69849",
"#X c #C9A448",
"$X c #C5A47A",
"%X c #C6A56F",
"&X c #E3D147",
"*X c #DFC476",
"=X c #596996",
"-X c #7C7985",
";X c #358FA4",
":X c #4CA09D",
">X c #4EA5A7",
",X c #B19B84",
"<X c #AA9D89",
"1X c #BAAD8D",
"2X c #8395BE",
"3X c #97B8A5",
"4X c #B1ADB2",
"5X c #C7B68E",
"6X c #DABC94",
"7X c #CEB188",
"8X c #A1C7BD",
"9X c #DEC29A",
"0X c #DEC08C",
"qX c #E2C69F",
"wX c #F7E398",
"eX c #C1C2B7",
"rX c #E6CAA1",
"tX c #EED3AB",
"yX c #F3DCB3",
"uX c #EBDBB3",
"iX c #FAE2B9",
"pX c #889AC3",
"aX c #FDF2D7",
"sX c #E9E0D2",
"dX c #D6DCE4",
"fX c #FFF8E0",
/* pixels */
"n.n.m.n.n.m.n.m.n.n.n.m.n.s.q.p.d.d.Z c U Q X.<.2.2.M.M.b.m.m.m.",
"n.n.n.n.m.n.m.n.n.n.m.y.i.p.y.d.d.d.C k B h.Z.K.I.Y.#X}.N.m.m.m.",
"m.m.n.m.m.m.n.v.v.a.q.y.d.d.d.j.d.d.C b 0.g.(.)._.'.Y.U.N.n.b.m.",
"n.n.n.n.m.v.m.Q M q.y.d.d.d.d.j.d.i.C V 0.l.T.@XU.`.).).`.S.{.b.",
"m.m.m.m.a.z c N W p.d.d.j.d.j.d.t.Z C f.C.^./.R.Y.Y.R.I.!.~.G.6.",
"m.m.m.b.a.v M W y.d.d.u.t.0.u.u.r.b C k.W._.).].U.@X}.S.I./.L.2.",
"m.m.n.s.k M Y w.y.d.d.r.N j b 0.r.b Z h.H.G.(.J.S.<.1.@X'./.V...",
"m.m.n.( k Y T w.q.q.q.y.0.0.r.C B r.g.W.G.S.D..X%X$XXX|.S.>.>.b.",
"m.m.Q v c Y E E T T w.q.y.t.Z N N y.C.!.I.U.|.$X6X6XOX,...#.v.m.",
"m.V h c E E T E E T T T R c k M W ! #.F.~.[.*X9XrX6XoX8 J n.m.m.",
"b.b h M T T T T T T T Y S l h j n | O.F.].[.wXoXo.} ..& ~ m.m.m.",
"v.x h M T L c v l l P ) =.N.-.-.o. .<.D.I.&XsX<X;.%.%.g t J v.m.",
"X @ < M M k > . . $ : =.5XyXuX9X+X,.S.T.S.XXtXaXdXpX=X<X&.& 5 v.",
"  @ < h < @ $ G m.( @ d {.0XiXiX7X3.V.Q.A.6.rXaXdXpX=X,X;.- 5 v.",
"  @ 1 1 > $ ( m.n.( o = [ 7.1X8X3X+XJ./.V.6.rXaXsX4X-X;.d J v.v.",
". @ > @ # z.m.m.n.z.= & ; [ ;.;X>X#X].Q.A.7.qXsXtX7X8.8 ^ n.n.n.",
"x.6 . 6 v.b.n.n.n.N.Q.J.D.o.& * _ !.Z.>.7.7X7X9XOX&.q / n.n.n.n.",
"m.v.v.m.m.n.n.n.n.h.] ] X.w # o ` G.>.i | -.-.&.} { x.n.n.n.n.n.",
"m.m.m.n.m.b.n.n.n.z.# $ . > 4 2 w 2.X.: : j l 4 > 2 c.v.n.n.n.n.",
"m.m.m.m.m.m.n.n.m.m.v.x.6 4 L L v 3 , < l v U Y c 2 # / n.n.n.n.",
"n.n.n.m.n.n.n.n.m.v.x.r r D T Y G w q ( B.:XD l L c < # ^ n.n.n.",
"m.n.n.n.n.n.n.n.m.z.d $.$.K W W ) [ :.B.<X<Xt 4 W t.A > ~ n.n.n.",
"n.n.n.m.n.n.b.n.~ t OX8.t 9 [ Q V X.,XeXB.f + 2 f.E.Z.e G n.n.n.",
"n.n.n.n.n.n.n.n.b.*.d K S C h.+.` 0 g &.g y y ; < V ' >   F n.n.",
"n.n.n.m.n.m.n.n.m.( o 2 I y.h.+._ q 8 9 y g g  .{ H < % X   5 m.",
"n.m.n.m.n.n.n.n.G     2 P e.u.i.j.u.z & y  ...XX,X%.% ; - X 5 v.",
"n.n.n.n.n.n.n.n.G X u 0 % > x r.j.j.B 7 = d OX9.} t - O ~ m.v.m.",
"n.m.m.n.n.n.n.n.G + i i = O = n m V x > o 8 ;.%.& O - + ^ n.m.m.",
"n.n.n.n.n.n.n.n.G O i p y y ; O     X X . o $ o . . # / b.b.m.m.",
"n.n.n.n.n.n.n.n.m./ & 9 p p y u - X H v.x.v.x.v.v.x.v.m.m.m.m.m.",
"n.n.n.n.n.n.n.n.n.n.x.8 ; ; - - O ^ m.m.m.n.m.m.v.b.n.m.n.n.m.m.",
"n.n.n.n.n.n.n.n.b.b.b.v.5         ( n.m.m.m.m.b.m.m.n.n.m.n.m.n."
};
