/* XPM */
static char *right_1__[] = {
/* columns rows colors chars-per-pixel */
"32 32 231 2 ",
"   c #090A05",
".  c #0A1909",
"X  c #16130C",
"o  c #1A1713",
"O  c #0E120F",
"+  c #251C0F",
"@  c #261D16",
"#  c #341E13",
"$  c #092C0D",
"%  c #08260B",
"&  c #0B370E",
"*  c #1A2718",
"=  c #0C3712",
"-  c #163717",
";  c #11260E",
":  c #272718",
">  c #3C2A1B",
",  c #3B2319",
"<  c #293417",
"1  c #332B16",
"2  c #102D2B",
"3  c #292A26",
"4  c #392D24",
"5  c #383626",
"6  c #3A3A35",
"7  c #2B342A",
"8  c #43281B",
"9  c #512D1B",
"0  c #46331B",
"q  c #55301B",
"w  c #4C2F24",
"e  c #4B3B28",
"r  c #573424",
"t  c #483B33",
"y  c #663921",
"u  c #623721",
"i  c #0B4513",
"p  c #0C4B16",
"a  c #154816",
"s  c #0C5419",
"d  c #0E5B1B",
"f  c #0C5617",
"g  c #155817",
"h  c #0E460F",
"j  c #235C1A",
"k  c #264617",
"l  c #0E641E",
"z  c #1A641B",
"x  c #1C711F",
"c  c #20661B",
"v  c #29771D",
"b  c #347D1D",
"n  c #1A5722",
"m  c #364626",
"M  c #285325",
"N  c #3C5838",
"B  c #2D4C2B",
"V  c #0E6C22",
"C  c #0F6720",
"Z  c #156821",
"A  c #0F7425",
"S  c #0D7926",
"D  c #0E7B28",
"F  c #117B27",
"G  c #137728",
"H  c #297B23",
"J  c #387029",
"K  c #316830",
"L  c #554719",
"P  c #4E441F",
"I  c #566A10",
"U  c #606105",
"Y  c #766519",
"T  c #5B5A26",
"R  c #46433D",
"E  c #594A3B",
"W  c #6E4928",
"Q  c #6B5631",
"!  c #4D6E2B",
"~  c #6D6E2E",
"^  c #684B1A",
"/  c #367A40",
"(  c #4B4B47",
")  c #564C47",
"_  c #465445",
"`  c #59544C",
"'  c #595852",
"]  c #69594A",
"[  c #645D57",
"{  c #596759",
"}  c #496F46",
"|  c #7B6B56",
" . c #736D50",
".. c #6C746B",
"X. c #787974",
"o. c #6E7067",
"O. c #865930",
"+. c #88662E",
"@. c #916B23",
"#. c #966938",
"$. c #9A7638",
"%. c #966D31",
"&. c #8A704E",
"*. c #A47B4C",
"=. c #847965",
"-. c #168128",
";. c #258A29",
":. c #338523",
">. c #348A24",
",. c #399A27",
"<. c #2E8E34",
"1. c #3EA229",
"2. c #79B61A",
"3. c #468825",
"4. c #739320",
"5. c #749D34",
"6. c #41A429",
"7. c #69A526",
"8. c #3D924B",
"9. c #388248",
"0. c #449745",
"q. c #479847",
"w. c #489848",
"e. c #49964A",
"r. c #578958",
"t. c #489652",
"y. c #549E54",
"u. c #5D9C5B",
"i. c #59884D",
"p. c #60935C",
"a. c #5BA15B",
"s. c #56A056",
"d. c #579D61",
"f. c #688868",
"g. c #788576",
"h. c #6D9073",
"j. c #7C987B",
"k. c #70906A",
"l. c #5DA167",
"z. c #63A463",
"x. c #6BA86B",
"c. c #6BA775",
"v. c #7AAD78",
"b. c #74AD6F",
"n. c #B39E1B",
"m. c #A2921C",
"M. c #AA863B",
"N. c #AC9137",
"B. c #B79538",
"V. c #AD9126",
"C. c #BAA632",
"Z. c #9CA41C",
"A. c #C1B20D",
"S. c #C8B61E",
"D. c #C2AB17",
"F. c #CBB426",
"G. c #C9A835",
"H. c #D7BA3A",
"J. c #CBB22F",
"K. c #B0C223",
"L. c #D9C81C",
"P. c #CDCC0D",
"I. c #E8DB18",
"U. c #ECE115",
"Y. c #D5C227",
"T. c #E1CB2B",
"R. c #E2CD36",
"E. c #D1E10D",
"W. c #9C845B",
"Q. c #AE8640",
"!. c #B38B47",
"~. c #BD9548",
"^. c #AC885D",
"/. c #B0A343",
"(. c #9E9677",
"). c #968C73",
"_. c #AA8D6D",
"`. c #B7936B",
"'. c #B89A75",
"]. c #AC8E6D",
"[. c #87B37B",
"{. c #A5A86D",
"}. c #C29A4A",
"|. c #CCAF4D",
" X c #C5A57B",
".X c #CEB173",
"XX c #9AC57C",
"oX c #E3D553",
"OX c #E7D569",
"+X c #E7D860",
"@X c #166C8A",
"#X c #67739F",
"$X c #6977A4",
"%X c #847F85",
"&X c #3D9BAC",
"*X c #63839E",
"=X c #7CA885",
"-X c #7DB484",
";X c #6789A4",
":X c #8A8986",
">X c #889887",
",X c #979D96",
"<X c #818995",
"1X c #88AA88",
"2X c #87B589",
"3X c #95A995",
"4X c #98B898",
"5X c #8EB88E",
"6X c #AEB08E",
"7X c #B2B3AD",
"8X c #9CA6A9",
"9X c #CBAE86",
"0X c #C4B589",
"qX c #DBBD96",
"wX c #DABA83",
"eX c #AAC3A2",
"rX c #B2CCBA",
"tX c #AEC193",
"yX c #C8C199",
"uX c #DBC59D",
"iX c #DAC38A",
"pX c #E2D297",
"aX c #DBE485",
"sX c #C6C8A6",
"dX c #C0C0BE",
"fX c #E9CEA6",
"gX c #E8D4AB",
"hX c #E5DFB8",
"jX c #F1E2B8",
"kX c #BFD2C0",
"lX c #C3C4C1",
/* pixels */
"w.w.0.0.e.z.x.2X4Xl.<.,.1.1.6.6.:.g d x ! W +.!.{.[.v.v.x.s.q.q.",
"q.w.e.e.y.-X2X-Xc.8.,.,.1.1.6.,.:.g g :.4.n.S.H.OXpXuXsXeXc.e.q.",
"q.0.a.v.v.t.<.;.;.,.1.6.1.1.1.,.v z :.7.K.I.I.I.H.}.G.|..X7X5Xz.",
"w.y.u.p.} G -.;.1.1.1.6.6.1.>.x z :.7.C.H.H.G.B.M.N.J.L.Y.wX0Xv.",
"z.=Xh.K Z A D -.;.,.1.1.1.1.:.z z >.5./.|.T.J.Q.!.B.G.S.Y.|..X X",
"u.r.K d A D D G S ;.>.>.>.:.b c :.7.Z.N.F.U.Y.~.}.}.~.G.I.I.n.%.",
"4Xf.K d F D D D A z g g g h c :.2.E.S.B.F.U.R..X*.#.M.J.I.L.m.Q ",
"h.J A G F D D D A l l l g g g H 2.E.L.V.B.G.|.wX9X*.*.$.~.|. X0X",
"s d G D D V V V V A S V C d c K 4.P.Y.J.}.}. XqXqX'.&.y *.9X6Xb.",
"i d V G A s i i f l l d g Z ! ~ $.N.F.U.oXwXqXqXqX].E t ,X3Xl.w.",
"% i V V p $ % $ & p d z Z g J ~ #.$.F.U.oXiX_.] ] y t 6 g.x.w.w.",
"  = s s & . . % a ! i.u.i.! T W O.!.H.R.+XpX6X] ) ) ) ) X.3X4Xx.",
"  $ i i = * * * M (.uXgXgX0XW.Q %.}.}.B..XjXsX1X$X#X%X).R [ =Xc.",
"  & p i 2 ..).( < &. XfXjXgX_.E Y S.D.%.'.fXsX1X;X$X:X_.e ) g.x.",
"  = i $ 3 8X7X..: 0 ~ '.yXrX;XR U A.D.@.`.gXjXrX8X;X..| [ ).3Xx.",
"* = = * 6 7XlXX.: + w Q g.&X@X2 U P.A.@.^.fXjXgXqX_.[ ' j.v.l.s.",
"=X{ N { 5XrXhXOXn.V.+.e : 2 2 O U P.A.@.*.9XuX0X| ' X.3X5Xz.q.w.",
"p.j.,X3Xb.a.5XaX+XN.T - % % % . ^ D.m.^ Q  .&.| o.:X3Xu.t.e.q.w.",
"u.v.5X2Xs.w.y.v.6X' * $ s d i ; L %.Q < & i a 7 ).dXrXu.w.w.w.w.",
"e.e.w.w.w.w.0.z.>X( * i s = : 0 9 1 - f C C C g B [ ).u.y.w.q.w.",
"0.q.q.q.q.q.q.z.1X( 2 f d % ; B M - = p C A -.v 3.~  .>X3Xx.0.q.",
"q.q.q.q.q.s.c.-Xj.6 : a a . 2 K 8.9.B . = Z J :.2.Z.I 6 h.l.0.q.",
"q.q.q.q.w.z.3X:X6 > w 1 : X _ { c.[...3 @ 0 T T 3.b k 5 f.z.0.q.",
"w.q.q.q.w.z.1Xo.O < m 5 : X t [ g.=.` @ < ! ! ! 3.c a 7 ).z.8.q.",
"w.q.w.q.w.z.4X:X6 n M m > X + 8 r q # X a :.6.6.>.b N ' j.z.0.0.",
"q.w.q.e.w.s.2XeX3X_ a j c ; + 9 W u 8 X = Z :.:.j R g.5X-Xu.0.w.",
"w.w.q.q.q.q.q.y.b.>XX.N & . 4 &.`._.] @ . $ - B { 3X4Xa.w.w.w.w.",
"q.w.w.w.q.q.q.q.w.z.>Xo.4 X 4 &.'.'.| 3     X 3 ..7XdXz.e.w.w.0.",
"w.q.q.w.q.q.q.q.w.e.a.1X>X( o O o @ @ 4 8 9 9 u , ( g.e.w.w.w.w.",
"q.w.w.q.q.q.q.w.w.0.w.s.x.f._ *     X 8 q y y y # 6 ..e.w.w.w.w.",
"w.w.w.w.w.q.q.e.w.w.w.e.e.t.f.{ ( t w # 8 9 9 w t { [.r.w.w.w.w.",
"w.q.q.w.w.q.w.w.w.w.w.0.e.e.l.r.k.[.#X4       4 } p.z.e.w.w.0.w."
};
