/* XPM */
static char *right_2__[] = {
/* columns rows colors chars-per-pixel */
"32 32 236 2 ",
"   c #050504",
".  c #0C0C09",
"X  c #070905",
"o  c #140E0A",
"O  c #0C120B",
"+  c #051C09",
"@  c #061408",
"#  c #16160C",
"$  c #171A15",
"%  c #25170E",
"&  c #261A15",
"*  c #331D15",
"=  c #301D0F",
"-  c #092A0B",
";  c #07260A",
":  c #16260C",
">  c #0C370D",
",  c #0C2713",
"<  c #0C3B13",
"1  c #1A3417",
"2  c #152418",
"3  c #262919",
"4  c #3D231A",
"5  c #352615",
"6  c #352C27",
"7  c #243923",
"8  c #393836",
"9  c #2D2C2A",
"0  c #0E2722",
"q  c #422B1C",
"w  c #4C381C",
"e  c #56331C",
"r  c #512D1C",
"t  c #4C3322",
"y  c #433D37",
"u  c #533724",
"i  c #0C4411",
"p  c #0D4D14",
"a  c #1A4A17",
"s  c #0E551C",
"d  c #0E5B1C",
"f  c #0D5215",
"g  c #175718",
"h  c #0E460F",
"j  c #3D461E",
"k  c #2A571B",
"l  c #0D671E",
"z  c #1C6319",
"x  c #17681E",
"c  c #256B1B",
"v  c #26731C",
"b  c #2B7A1E",
"n  c #29751D",
"m  c #35721D",
"M  c #175922",
"N  c #1B4D24",
"B  c #26482B",
"V  c #2C4E2E",
"C  c #0E6C22",
"Z  c #0F6220",
"A  c #146C24",
"S  c #0E7325",
"D  c #0F7C29",
"F  c #127325",
"G  c #137A27",
"H  c #117C29",
"J  c #197C27",
"K  c #287B26",
"L  c #367523",
"P  c #306A2D",
"I  c #59482A",
"U  c #5D5124",
"Y  c #514B36",
"T  c #684C28",
"R  c #665339",
"E  c #714E2B",
"W  c #4E7226",
"Q  c #70762D",
"!  c #606B16",
"~  c #3F5640",
"^  c #3A6E44",
"/  c #4C534A",
"(  c #555A54",
")  c #50514A",
"_  c #655647",
"`  c #655E57",
"'  c #725C4B",
"]  c #5A615B",
"[  c #507656",
"{  c #79634B",
"}  c #71734C",
"|  c #6C6C58",
" . c #5D5D6C",
".. c #5F7169",
"X. c #676A66",
"o. c #6F7671",
"O. c #767973",
"+. c #647963",
"@. c #9B7D1C",
"#. c #A07D1E",
"$. c #835833",
"%. c #8A6C34",
"&. c #966B37",
"*. c #956933",
"=. c #A0763B",
"-. c #9B7A55",
";. c #8D724E",
":. c #A37C4B",
">. c #A07F59",
",. c #897A6D",
"<. c #2D811F",
"1. c #1F8126",
"2. c #298625",
"3. c #388924",
"4. c #2E9329",
"5. c #3B9A26",
"6. c #3B9E29",
"7. c #359527",
"8. c #309131",
"9. c #3FA229",
"0. c #4D8929",
"q. c #6B942F",
"w. c #41A529",
"e. c #56A12E",
"r. c #6FA923",
"t. c #3E914B",
"y. c #459745",
"u. c #479847",
"i. c #489847",
"p. c #499849",
"a. c #42964B",
"s. c #548852",
"d. c #529D53",
"f. c #5A985C",
"g. c #4A8054",
"h. c #60925F",
"j. c #5CA25C",
"k. c #55A256",
"l. c #5F9D60",
"z. c #679A67",
"x. c #79877A",
"c. c #708F79",
"v. c #5DA66A",
"b. c #64A464",
"n. c #6AA56A",
"m. c #6CAA6B",
"M. c #68A267",
"N. c #72AD72",
"B. c #78A577",
"V. c #79B177",
"C. c #6FAC70",
"Z. c #B2961A",
"A. c #9EB719",
"S. c #BDA21A",
"D. c #999929",
"F. c #A88638",
"G. c #B38F3B",
"H. c #B99739",
"J. c #AC8B2B",
"K. c #B7AB28",
"L. c #918C15",
"P. c #C9B51C",
"I. c #C09E3E",
"U. c #C7AC2A",
"Y. c #D3BB24",
"T. c #C8A63A",
"R. c #D3B53B",
"E. c #CBB726",
"W. c #B1C622",
"Q. c #D7CA18",
"!. c #D5CE17",
"~. c #E3D31B",
"^. c #E2D80A",
"/. c #EAE00D",
"(. c #F3EE0B",
"). c #DAC628",
"_. c #DAC631",
"`. c #E5CE2D",
"'. c #F7EB3D",
"]. c #BD9644",
"[. c #BC965A",
"{. c #A9854E",
"}. c #988F6F",
"|. c #B28D63",
" X c #B89569",
".X c #AF956F",
"XX c #80A77F",
"oX c #AFAB7D",
"OX c #C59A48",
"+X c #D1A845",
"@X c #C7AD6B",
"#X c #D9C05B",
"$X c #F6EB40",
"%X c #D2C07B",
"&X c #E1CB7C",
"*X c #59798F",
"=X c #737A9C",
"-X c #3B8D9B",
";X c #7F9780",
":X c #7FA787",
">X c #68A5A4",
",X c #868E85",
"<X c #859284",
"1X c #919A92",
"2X c #9D9783",
"3X c #89A788",
"4X c #88B588",
"5X c #90BE8C",
"6X c #99A898",
"7X c #96B598",
"8X c #B3AF8E",
"9X c #A9B6A9",
"0X c #ADB0A8",
"qX c #959F9B",
"wX c #CBAD86",
"eX c #D4B68B",
"rX c #D5BA8E",
"tX c #C1BFAD",
"yX c #98C397",
"uX c #9FC8A4",
"iX c #AEC9B0",
"pX c #D7C290",
"aX c #E5CA9E",
"sX c #E9D391",
"dX c #C7C8A6",
"fX c #D2D1B3",
"gX c #EED5AD",
"hX c #F3DAAE",
"jX c #F4DDB4",
"kX c #E5CAA2",
"lX c #DCE1A5",
"zX c #F6E0B8",
"xX c #89BFC3",
"cX c #E1DBC0",
"vX c #E8E4D5",
"bX c #CED6CF",
/* pixels */
"p.p.i.i.i.p.p.p.p.d.N.N.iXv.4.4.9.9.2.f l c T *.OX8X4XV.N.j.y.u.",
"p.u.i.i.i.p.p.p.k.4XyXyXyXk.4.6.9.9.v d v 0.Q =.+X&XkXkXfX5Xe.u.",
"u.i.i.p.a.d.V.5XyXuXa.4.9.9.9.9.w.5.v z 3.q.{.P.~.R.OX[.eXdXyXv.",
"i.i.i.p.d.l.h.s.s.u.7.9.9.9.9.9.w.7.v f 7.r.H.+XH.G.T.Q._.@XdXV.",
"u.u.u.b.4X3X[ A 1.4.9.9.w.9.w.w.5.b v b r.W._.K.OX].+XY.E.R.pXdX",
"u.u.j.7X3X^ Z J 7.9.9.9.5.5.9.9.<.g v r.!.(.(.`.+X+XOXG.P./.K.:.",
"p.u.M.c.^ A S J 4.9.9.<.z g v 3.b g b e.D.Q.(._.G.=.=.].R.^.Z.E ",
"p.p.f.^ M S D 1.2.4.4.v c c n b v c W r.K.P.Q.T.[.-.:.OXE.P.].-.",
"k.b.z.P x S D D H H 1.1.7.7.3.g c 3.q.D.!.~.].@XwXwX X:.&.{.8XV.",
"b.B.h.P S S D G H H D 1.2.A z l F K Q H.~.`.@XrXaXpX>._ ` 2X4Xb.",
"b.s.N A D D D H D D D S A f f M x m Q H.~.'.sXwX.X|.{ 6 ( 4Xp.p.",
"f.[ M Z D G S D H D S Z g a g a j T *.H.~.$XkX}.) T e 6 ` XXd.p.",
"/ B f l l l h > p f g s.}.oX}.}.;.E &.I.U.#XhXdX,X*X .{ { X.6XC.",
". - h d f > 7 B 7 - > [ pXhXzXkX|.$.=.R.G. XhXfX<X*X=X2X;.9 ,XC.",
"X - < h - 9 ..c.8 O O I {.pXjXcXwX&.Z.^.#.>.gXjX3X*X=X1X' 8 ,XN.",
"  - > - V ;X6X4X<Xo.$ & w -.8XuXqX|.Y.^.#.-.gXvXfX8X,.` X.1X9XN.",
"8 1 > 8 x.:Xk.d.V.9XU 5 q R ] -X>X@X).P.F.{.aXjXgX8X;.] =X4Xd.p.",
"3X( / x.7Xn.p.p.m.lX).P.J.w $ 0 q.Q.S.%.|.wXeXeX.X_ ` 6X5XV.p.p.",
"M.6X6X3Xd.t.u.p.m.aXD.! U 1 ; @ U K.L.q Y } } ' ` O.0X7Xd.p.i.i.",
"d.n.m.j.p.u.u.p.m.9X/ 3 O - - ; I :.I o > g a 2 7 <XbX7Xy.i.i.i.",
"p.p.p.p.p.u.p.u.i.m.9XX.O ; i M 1.J a @ s S S C l B X.:Xn.k.p.p.",
"a.u.u.u.u.p.u.u.u.d.4Xx.$ @ B z.4XB.~ ; s H H H b W Q }.0X4Xt.p.",
"u.p.p.u.p.u.u.p.u.b.7XO.$ X y 0XvX9XX.# s H D A 3.A.L.I ( 6X4X4X",
"p.p.u.u.p.u.p.p.b.6X] V N 0 & u ` _ 8 @ s H H L ! 0.k $ $ 8 y 8 ",
"u.u.u.u.p.a.p.C.6Xo.B < i 2 4 r u 4 % o 6 m P W W K f ; o = o   ",
"p.p.p.u.p.y.m.7X] , d i + r E $.T 4 & : w T T 0.8.K p : = e =   ",
"u.u.p.p.u.y.m.7X] , Z < $ ' .XwX;.7 > g L 0.0.0.3.h : 5 r e =   ",
"u.p.p.u.u.i.d.z.o.( N - . Y ,.}._ O - g 2.4.8.K k 3 = 4 q r Y ) ",
"p.p.p.p.p.u.i.i.M.6X9 X . o $ o X     @ s F A N 3 * * q 5 Y ,XB.",
"p.p.p.i.u.i.i.i.n.0X6 o & * % .       X + , 1 [ ..8 & & ) x.3Xb.",
"y.p.i.p.p.i.i.p.n.iXX.y * * & . 9 / ( / ) / X.;Xn.+.( ( ;X4Xp.p.",
"p.p.p.i.p.p.i.i.p.B.1XO.$ .     ( 6Xz.f.f.f.f.l.d.f.f.h.z.f.p.p."
};
