/* XPM */
static char *right_3__[] = {
/* columns rows colors chars-per-pixel */
"32 32 233 2 ",
"   c #060A05",
".  c #0B0B09",
"X  c #090805",
"o  c #0C1B0A",
"O  c #081508",
"+  c #19130D",
"@  c #14140D",
"#  c #1A1714",
"$  c #120C0B",
"%  c #24170C",
"&  c #291B15",
"*  c #331E13",
"=  c #351D0F",
"-  c #0A240B",
";  c #0C2C0C",
":  c #112B0E",
">  c #0C370F",
",  c #172414",
"<  c #173A18",
"1  c #0D3512",
"2  c #2C261C",
"3  c #392619",
"4  c #293916",
"5  c #38371F",
"6  c #292724",
"7  c #352C26",
"8  c #28392A",
"9  c #37342E",
"0  c #373833",
"q  c #4D2B1D",
"w  c #44281B",
"e  c #512E1A",
"r  c #48311B",
"t  c #5A351C",
"y  c #65391E",
"u  c #472B21",
"i  c #463829",
"p  c #583625",
"a  c #453C36",
"s  c #6B3C20",
"d  c #653920",
"f  c #0C4713",
"g  c #154813",
"h  c #0C581B",
"j  c #155414",
"k  c #165B19",
"l  c #0E631E",
"z  c #1A631A",
"x  c #236A19",
"c  c #226319",
"v  c #28751C",
"b  c #195B23",
"n  c #28452A",
"m  c #3D442E",
"M  c #0E6B22",
"N  c #126B22",
"B  c #156A23",
"V  c #0F7225",
"C  c #117B29",
"Z  c #157625",
"A  c #267D24",
"S  c #316F2E",
"D  c #2A5114",
"F  c #484819",
"G  c #58472C",
"H  c #575423",
"J  c #48463A",
"K  c #594434",
"L  c #54532F",
"P  c #655A24",
"I  c #6B5338",
"U  c #507135",
"Y  c #706127",
"T  c #387744",
"R  c #464743",
"E  c #584D43",
"W  c #495947",
"Q  c #565B56",
"!  c #5A5A56",
"~  c #5C5344",
"^  c #6B5F53",
"/  c #5A6559",
"(  c #5E795C",
")  c #4C7244",
"_  c #617547",
"`  c #6A645A",
"'  c #7C6E5F",
"]  c #416C65",
"[  c #666A63",
"{  c #6E796B",
"}  c #787976",
"|  c #70776B",
" . c #99741E",
".. c #885B2C",
"X. c #835F3E",
"o. c #966733",
"O. c #9A753C",
"+. c #8C692D",
"@. c #A77B3E",
"#. c #8E6D4A",
"$. c #A37845",
"%. c #A47B50",
"&. c #8A7A62",
"*. c #937E65",
"=. c #31831F",
"-. c #158029",
";. c #288825",
":. c #358C23",
">. c #2C9229",
",. c #3B9B26",
"<. c #3A9627",
"1. c #3C973B",
"2. c #3EA226",
"3. c #3DA029",
"4. c #5BA21C",
"5. c #469626",
"6. c #599B22",
"7. c #4E892D",
"8. c #6A982B",
"9. c #41A42A",
"0. c #4FA027",
"q. c #52A827",
"w. c #679E1F",
"e. c #469646",
"r. c #479847",
"t. c #4B954A",
"y. c #489848",
"u. c #539D53",
"i. c #599B59",
"p. c #56A056",
"a. c #5CA15B",
"s. c #56AD41",
"d. c #64AD5B",
"f. c #5F9960",
"g. c #629B62",
"h. c #659466",
"j. c #7C8579",
"k. c #7A9B7A",
"l. c #6B836A",
"z. c #6BA56B",
"x. c #68A667",
"c. c #73A96F",
"v. c #7CAB7C",
"b. c #78AA77",
"n. c #7AB279",
"m. c #B59A1F",
"M. c #92893E",
"N. c #B99639",
"B. c #AF8A36",
"V. c #8BA323",
"C. c #A9AB23",
"Z. c #C7B816",
"A. c #C39C3B",
"S. c #CEB22B",
"D. c #CCB727",
"F. c #D3BA24",
"G. c #C5A332",
"H. c #D8BA3A",
"J. c #C5A82A",
"K. c #8AC21C",
"L. c #A6CE14",
"P. c #D9C818",
"I. c #DCD115",
"U. c #C5DB0D",
"Y. c #E4D518",
"T. c #E1CF1B",
"R. c #EBE60E",
"E. c #E4E112",
"W. c #D6C828",
"Q. c #E3C82D",
"!. c #CEE00D",
"~. c #988056",
"^. c #B68C45",
"/. c #BB9643",
"(. c #B48B51",
"). c #B1A848",
"_. c #97846C",
"`. c #82897E",
"'. c #93906F",
"]. c #B9996C",
"[. c #A49379",
"{. c #AB8D6B",
"}. c #83A77F",
"|. c #90AA73",
" X c #96A95C",
".X c #C59846",
"XX c #C79D54",
"oX c #D3A748",
"OX c #C8AC51",
"+X c #C29F6A",
"@X c #C09F75",
"#X c #C8A77D",
"$X c #D3B07A",
"%X c #8CC277",
"&X c #E3D96C",
"*X c #737686",
"=X c #6679AD",
"-X c #2D8591",
";X c #79859D",
":X c #7DB2A6",
">X c #5DBDCF",
",X c #848C83",
"<X c #889987",
"1X c #939994",
"2X c #88A887",
"3X c #87B786",
"4X c #97B496",
"5X c #98AD93",
"6X c #BDAE89",
"7X c #A5AF98",
"8X c #93AFAA",
"9X c #A5B9A3",
"0X c #B1B9A5",
"qX c #C9AD85",
"wX c #D5B78B",
"eX c #C9B592",
"rX c #D8BB92",
"tX c #CFB288",
"yX c #CDBEA0",
"uX c #98C38B",
"iX c #9CC399",
"pX c #A7C79C",
"aX c #A7C5A4",
"sX c #B0C7B0",
"dX c #D9C69B",
"fX c #D4C9AB",
"gX c #D8D1A6",
"hX c #E8CCA4",
"jX c #E7D6B2",
"kX c #F3DDB5",
"lX c #EED2AA",
"zX c #EEE1BC",
"xX c #F9E7C2",
/* pixels */
"y.y.y.y.c.n.n.n.uXuXd.2.2.2.9.,.A j v 7.P ..$.yXaXa.7.y.y.r.y.y.",
"r.y.y.a.aX4XuXpXpX%Xq.2.2.9.,.;.v v 4.K.m.N./.$XgX4Xa.e.y.y.y.r.",
"r.y.n.aX5XT ;.9.9.9.9.9.9.2.:.z v 6.L.R.R.Y.oX.X+XfXsXa.y.r.r.y.",
"r.c.sXk.U Z ;.9.9.9.9.9.2.;.x :.8.).H.Q.S.A.N.S.W.OXeX0Xa.y.r.r.",
"y.t.:X) b V >.3.9.9.9.9.,.x k ,.8.Q.oXXX^.^.^.F.I.D.OXgXaXa.y.y.",
"a.3X3XW h V >.,.9.2.2.9.,.x j 5.K.E.S.N..XoXoX.XG.Y.Y.OXeXiXy.r.",
"c.aXh.S M C >.<.=.v v :.<.c j <.w.D.F.F..X^.@.$.G.T.Y..X6XpXr.y.",
"9X( b M V C >.>.v j j x :.x x 0.8.N.W.Y.G.@.o.$.oXQ.I.).6XpXr.y.",
"m < f V C C C ;.>.:.:.v k v 4.!.Z.@.@..X+X@X].%.O.A.oX(.qXiXr.r.",
"  - f M C C C C ;.>.;.z l -.4.!.P..X%.+XwXrXtX#.y ...XtXfXaXr.r.",
"  ; f V C C C C -.l h z l ;.6.P.P.B.+XwXhXhXqX~ * t ~.0XuXc.r.r.",
"  - f M C C C C l l l k x 7.M.G.Z.Q.&XrX&.^ X.u 6 } 0Xc.t.r.y.y.",
"0 < > V V V V N S U 7.S U ~..X.XS.Y.&XhX` J K i R l.:Xx.t.y.r.y.",
"2X/ - h M h f S |.gXgXeX].O.o..XA.A.wXkXaX1X*X*X_.I ! 4Xa.y.y.r.",
"g./ , h l f - 8 ' wXkXkXdX@...F.J.@.wXlX4X8X=X1X[.K R 4Xp.r.r.r.",
"g./ , h h f O @ P ].dXkXgX'. .I.Z...#XkX9X8X=X*X_.E Q 9Xp.r.r.y.",
"g./ # 1 f O     @ G ~.8X>X|.G.E.Z...#XkXxXjX7X` R ,X9XuXu.r.r.r.",
"z.;XW < < J L F i G I ] -X|.Q.P.m.O.#XhXlXwX*.u 0 ,X:Xt.r.r.r.r.",
"a.n.<Xm W 2X&XU.).&.5 O 4 V.P. .o.+XqXtXeX*.9   7 `.2Xt.y.r.r.r.",
"t.1.2X5X<X}. X+.P m : O %  .J.t i U _ _ E ` ,X` a E &.4Xp.y.y.r.",
"y.y.u.i.y.z.l.a $ O : - % P O.2 o g j > - Q 9X_.p i [ aXp.r.r.r.",
"y.y.y.y.r.x.2X<X0 + w 3 o D A o - B M N l n 9 & 9 `.9X3Xu.r.r.r.",
"y.y.t.u.z.( / _ n + w K / T l 4 4 Z C ;.4.6.D O 9 ,X3Xe.y.y.r.r.",
"y.y.t.u.{ 0 . o : : # W v.b.S L F B Z <.L.L.4.f 9 *Xb.e.t.t.p.y.",
"y.y.b.[ J r % X   @ * a ' <X2XJ 3 F H U 6.q.5.g # 8 R J J Q 1Xn.",
"u.h.{ a w t = $ 6 J i u a _ { 8 4 H P H S ;.>.j . . + + % 3 { l.",
"x.| 7 e y y = 2 &.].X.y q 7 6 b A 5.5.5.5.:.Z > . & u y t d 2 6 ",
"i.! & e y t = # J *.{.I & > h ;.<.2.<.Z z j < , * 3 p y s t %   ",
"h./ + e y q % $ 6 ` [.' @ > B ;.:.:.A b 8 # O & w q p s s t u 6 ",
"h.! & 3 e u # 6 [ j.Q 2 . O - : ; > - n 1X} 6 # w u q u 3 2 } <X",
"x.,XQ 7 * 2 a [ k.v.} Q Q Q Q Q Q Q Q | 4X9X} a * * & & 0 [ 9Xb.",
"u.x.<X0 . # W h.g.i.z.f.g.g.g.g.g.g.g.g.i.g.1X[ $ X   # ` aXz.i."
};
