/* XPM */
static char *up_1__[] = {
/* columns rows colors chars-per-pixel */
"32 32 230 2 ",
"   c #020B03",
".  c #0C0905",
"X  c #0C0907",
"o  c #130D08",
"O  c #041306",
"+  c #061E09",
"@  c #081808",
"#  c #141D0D",
"$  c #18140B",
"%  c #111C10",
"&  c #261B0E",
"*  c #281B14",
"=  c #06250A",
"-  c #092D0C",
";  c #0A270B",
":  c #15230C",
">  c #0A3B0E",
",  c #09330D",
"<  c #0A3C12",
"1  c #083711",
"2  c #183B11",
"3  c #182F10",
"4  c #2A2615",
"5  c #382618",
"6  c #263A15",
"7  c #383318",
"8  c #2A2724",
"9  c #372D26",
"0  c #383528",
"q  c #383732",
"w  c #492B17",
"e  c #48321C",
"r  c #583C1B",
"t  c #47392B",
"y  c #543824",
"u  c #433B35",
"i  c #4A372C",
"p  c #623D25",
"a  c #0B4413",
"s  c #0C4C15",
"d  c #114A19",
"f  c #0D5419",
"g  c #0D591B",
"h  c #155414",
"j  c #13531B",
"k  c #195917",
"l  c #29471A",
"z  c #2C5419",
"x  c #0E651F",
"c  c #19651B",
"v  c #266B1B",
"b  c #2C7B1E",
"n  c #25721B",
"m  c #377C1E",
"M  c #16582C",
"N  c #1D5530",
"B  c #274428",
"V  c #394034",
"C  c #375B2A",
"Z  c #0E6421",
"A  c #0F6C23",
"S  c #0D6B2A",
"D  c #116C22",
"F  c #186726",
"G  c #0F7426",
"H  c #0F7929",
"J  c #0F7728",
"K  c #117425",
"L  c #117C29",
"P  c #177C26",
"I  c #0E663D",
"U  c #247D24",
"Y  c #347822",
"T  c #2D682E",
"R  c #4A481E",
"E  c #5A461D",
"W  c #545711",
"Q  c #42541C",
"!  c #514326",
"~  c #445928",
"^  c #585824",
"/  c #4A443D",
"(  c #4E4D35",
")  c #605A24",
"_  c #6A5235",
"`  c #6F512B",
"'  c #43632B",
"]  c #47742C",
"[  c #52692C",
"{  c #687131",
"}  c #2F3D49",
"|  c #3A4C4F",
" . c #3C7B7D",
".. c #196B4B",
"X. c #4A4C46",
"o. c #564E49",
"O. c #4C524A",
"+. c #565749",
"@. c #595853",
"#. c #52714A",
"$. c #736148",
"%. c #636457",
"&. c #747D52",
"*. c #726758",
"=. c #5E6360",
"-. c #6A7667",
";. c #767976",
":. c #6C6E69",
">. c #835C37",
",. c #936A38",
"<. c #957734",
"1. c #A57C3B",
"2. c #93761C",
"3. c #896945",
"4. c #987757",
"5. c #937251",
"6. c #A27B42",
"7. c #A67E59",
"8. c #36801E",
"9. c #2D811F",
"0. c #1B8529",
"q. c #198028",
"w. c #288826",
"e. c #318621",
"r. c #338922",
"t. c #398623",
"y. c #3A9426",
"u. c #349929",
"i. c #3C9E28",
"p. c #359427",
"a. c #2F9829",
"s. c #3EA229",
"d. c #4E8727",
"f. c #478724",
"g. c #479327",
"h. c #599B2D",
"j. c #548A2B",
"k. c #41A429",
"l. c #59A129",
"z. c #69B322",
"x. c #62A12D",
"c. c #6DAB18",
"v. c #459746",
"b. c #479847",
"n. c #479848",
"m. c #499849",
"M. c #4E954F",
"N. c #4F9B51",
"B. c #539D53",
"V. c #59975A",
"C. c #4F8C4F",
"Z. c #6F8D5B",
"A. c #5DA35D",
"S. c #58A057",
"D. c #75A756",
"F. c #5E9560",
"G. c #77846A",
"H. c #659A65",
"J. c #749C64",
"K. c #7A8778",
"L. c #799D78",
"P. c #6A8A6C",
"I. c #65A463",
"U. c #6AA666",
"Y. c #6EA46D",
"T. c #6BAA6A",
"R. c #76A96A",
"E. c #74AC72",
"W. c #7DAC7C",
"Q. c #7AAA78",
"!. c #72AD74",
"~. c #999B16",
"^. c #AB9E12",
"/. c #B4AA11",
"(. c #A38C37",
"). c #84A139",
"_. c #B7B334",
"`. c #C3A92E",
"'. c #CDB826",
"]. c #A9C91C",
"[. c #CCCC18",
"{. c #DAE80B",
"}. c #E6E113",
"|. c #D3C727",
" X c #96875B",
".X c #B1944F",
"XX c #86BF59",
"oX c #BDAA40",
"OX c #898566",
"+X c #929A77",
"@X c #A88967",
"#X c #B18C63",
"$X c #B69B79",
"%X c #AE936D",
"&X c #84AC79",
"*X c #8AAC7B",
"=X c #B4A67A",
"-X c #C6AD51",
";X c #C6AC7C",
":X c #E6DE7E",
">X c #288E9D",
",X c #12939B",
"<X c #7F8180",
"1X c #859A85",
"2X c #969B94",
"3X c #8C8E89",
"4X c #B19C84",
"5X c #81A386",
"6X c #86B485",
"7X c #97A794",
"8X c #95B793",
"9X c #A9A783",
"0X c #BDA786",
"qX c #BBB789",
"wX c #A9B18B",
"eX c #A3B5A3",
"rX c #B0B6AC",
"tX c #C4AD88",
"yX c #CBB38E",
"uX c #D5B688",
"iX c #C9BA98",
"pX c #C8BCAA",
"aX c #A2C09B",
"sX c #B6C69F",
"dX c #B7C8AE",
"fX c #D5C49B",
"gX c #E0CE95",
"hX c #F0D6AC",
"jX c #D0C3A9",
"kX c #CCD0CB",
/* pixels */
"n.n.b.b.m.m.m.b.b.N.I.Q.OX>.,.1.1.6.6.,.>.tXqX6XR.A.m.k.m.m.m.m.",
"b.n.b.m.m.b.b.b.b.V.Q.2X5..X`.'.'.`.(.,.,.-XgXgXfXaXT.m.m.m.n.n.",
"n.b.b.b.b.n.m.m.W.8X-.V ^ .X[.{.{.[.(.<.(.'.}.'..XjXdXR.m.n.n.n.",
"m.m.m.m.n.n.m.V.L.-.~ Y g.h.z.z.z.z.l.h.x.].}.|..X%XtX&XA.N.n.n.",
"n.n.n.n.b.N.<X8XG.C j v 8.b b b 9.9.9.9.9.c.]._..X'.-X=XwXY.v.b.",
"n.n.v.N.A.&X<XO.l v Y k h h h h h h h k h n g.).`.[./.<. XJ.v.b.",
"n.n.n.m.Y.2XT N k c n 9.8.8.r.r.8.r.r.8.e.n c Y [ W Q <.@XR.v.n.",
"n.n.n.N.H.-.% j c c b i.k.s.k.k.s.k.k.k.s.e.n c j ; 0 5.=XR.b.n.",
"S.I.U.R.Q.;.o , k 9.u.s.k.k.k.k.k.k.k.k.s.s.8.n < + ( Z.R.Y.U.B.",
"E.dXiXyXtX&., f c c b y.k.k.k.k.k.k.k.k.s.9.c c g < ' 9XiXyXqXU.",
"+X0XtX;XtXZ.j Z x x n p.k.k.k.s.s.k.s.s.s.9.x A K j ' =XuXtX0X+X",
"3.#XgXhXiXZ.j A P K q.y.k.k.k.k.k.k.s.s.s.w.P J K j ] qXhXgX$X4.",
"0X$X#X#X#X{ g S G x D P u.k.k.k.s.s.s.s.w.G x x n k ]  X#X%X4X4X",
"&XrX4X6.$.#...I h a s D 0.u.s.k.k.s.a.w.P f a s Z I ..$.,.7.4XJ.",
"A.Q.eX+X$.P.,X..< = , A L 0.p.i.s.a.0.q.J a = - M ,X>X%.5.+XQ.V.",
"b.b.Q.OX( #.XX] 7 $ - x L L q.w.0.0.q.q.J < $ 4 W D.D.( +.F.b.b.",
"n.v.Q.&X%.{ /.2.r & = g J H q.q.q.H H J x 1 # w ` ^.~.{ -.A.v.n.",
"n.v.T.8XwXOXR ` ` 4 + 1 x J q.H q.H J x s = $ y ` E #.<X6XT.v.n.",
"n.n.n.N.Q.pX;.o.5 o   + s G L H q.q.J g - O X 4 _ -.7XT.N.n.n.n.",
"n.n.b.N.6XkXeXO.#     O 1 x J L q.H A s O     . 0 <XkX<XM.n.v.n.",
"n.v.B.T.<X<XV M f < = O = a x K H G f - O + , j M B =.L.T.S.v.n.",
"n.n.6XeX3Xo.q P.F.T > , - - g P q.Z 1 = 1 > k v.<X| } :.1XY.n.n.",
"T.8XeX:.8 9 _ 9X7X#.k x a + s c G f = = x k C K.dX<X} 8 o.1X6XI.",
"E.7X=.0 y p y t t ! ~ F a O - s s 1 O - x C R u q / ` y t O.K.H.",
"E.K.q i 4.7.>.7 6 C [ ' 6 & : = ; : & 7 ~ [ Q 6 6 _ 4.7._ t +.V.",
"E.1X@.*.yXtX@X( z t.j.) ` E 5 # : 3 E E ) j.f.v B &.$XtXOX@.-.F.",
"A.U.Q.;.@.q 8 % 2 e.g.d.d.d.8.b b m f.f.d.g.t.z # 4 u X.=.P.V.S.",
"m.n.Q.1X@.8 X @ 3 z e.r.y.k.k.k.k.k.g.k.u.8.v 6 $ X * X.-.F.v.v.",
"n.n.N.V.P.K.8 5 * # 3 F r.g.g.y.p.y.g.y.U d # * 5 8 o.C.N.M.v.n.",
"n.n.n.m.I.<X-.V * * 7 R ) ) l 6 2 6 ^ W W e * * 9 ;.1XV.v.v.n.n.",
"n.n.b.b.n.N.!.K.o.5 5 w w y X.o.O.X.y w w 5 5 / :.<XI.M.b.b.b.n.",
"n.n.n.b.b.m.A.H.G.q . X X * -.H.5X2Xu o . . 8 -.aXB.n.n.b.n.b.v."
};
