/* XPM */
static char *up_2__[] = {
/* columns rows colors chars-per-pixel */
"32 32 233 2 ",
"   c #080A05",
".  c #051A07",
"X  c #081809",
"o  c #14150B",
"O  c #171A15",
"+  c #221A11",
"@  c #062309",
"#  c #072C0C",
"$  c #09260A",
"%  c #07320E",
"&  c #09330D",
"*  c #0B3B0E",
"=  c #073D0E",
"-  c #1B251A",
";  c #0A3D12",
":  c #083714",
">  c #183C17",
",  c #16360B",
"<  c #23330C",
"1  c #282111",
"2  c #242C16",
"3  c #3C281B",
"4  c #3A3712",
"5  c #1D3422",
"6  c #342C28",
"7  c #36352C",
"8  c #283437",
"9  c #363F36",
"0  c #292C2A",
"q  c #472C18",
"w  c #4A3118",
"e  c #56371C",
"r  c #463829",
"t  c #433F3D",
"y  c #0A4312",
"u  c #0D4B16",
"i  c #1A4818",
"p  c #0D5519",
"a  c #0D5A1A",
"s  c #1C5E15",
"d  c #125E1B",
"f  c #195419",
"g  c #0B400E",
"h  c #29590E",
"j  c #255316",
"k  c #375812",
"l  c #334E0D",
"z  c #0E631E",
"x  c #1C6519",
"c  c #1B671B",
"v  c #236D1A",
"b  c #2B6719",
"n  c #29771E",
"m  c #357A1C",
"M  c #145721",
"N  c #0D4F32",
"B  c #2A462B",
"V  c #364427",
"C  c #2E4A31",
"Z  c #394639",
"A  c #325331",
"S  c #355527",
"D  c #0E6C23",
"F  c #0E6720",
"G  c #136422",
"H  c #116C22",
"J  c #1C6526",
"K  c #0F7928",
"L  c #0F7526",
"P  c #117426",
"I  c #127B28",
"U  c #187625",
"Y  c #2A7B20",
"T  c #297537",
"R  c #35722D",
"E  c #515218",
"W  c #69451D",
"Q  c #54761B",
"!  c #4D6B0E",
"~  c #71651C",
"^  c #584529",
"/  c #445D24",
"(  c #5E5823",
")  c #47453D",
"_  c #584B3A",
"`  c #53503A",
"'  c #684A26",
"]  c #665823",
"[  c #685723",
"{  c #76592C",
"}  c #67573B",
"|  c #765431",
" . c #5E672C",
".. c #496132",
"X. c #45602B",
"o. c #6E6827",
"O. c #796D39",
"+. c #293541",
"@. c #374C4D",
"#. c #137576",
"$. c #3A7974",
"%. c #474748",
"&. c #575641",
"*. c #575653",
"=. c #6A5C4E",
"-. c #4A6C4B",
";. c #586157",
":. c #577A58",
">. c #536E47",
",. c #7B674C",
"<. c #667749",
"1. c #64665A",
"2. c #6E714D",
"3. c #5B656A",
"4. c #6A6D64",
"5. c #706D63",
"6. c #687669",
"7. c #6A7274",
"8. c #727D72",
"9. c #8D781C",
"0. c #83592E",
"q. c #825A33",
"w. c #926A3A",
"e. c #8C6C2F",
"r. c #A37D3E",
"t. c #8D6F49",
"y. c #9C7544",
"u. c #957958",
"i. c #956E42",
"p. c #817B78",
"a. c #1A8329",
"s. c #178129",
"d. c #248B29",
"f. c #2B8926",
"g. c #368D23",
"h. c #2B9028",
"j. c #3B9626",
"k. c #339728",
"l. c #3A9E28",
"z. c #349627",
"x. c #3EA229",
"c. c #599819",
"v. c #708F11",
"b. c #458F26",
"n. c #489227",
"m. c #4E9A2F",
"M. c #40A429",
"N. c #5DAD22",
"B. c #6CA81E",
"V. c #459745",
"C. c #479847",
"Z. c #489847",
"A. c #499649",
"S. c #499849",
"D. c #598859",
"F. c #549D54",
"G. c #5C9C5B",
"H. c #599558",
"J. c #509154",
"K. c #658A53",
"L. c #5BA05A",
"P. c #5E9862",
"I. c #639E63",
"U. c #679769",
"Y. c #788779",
"T. c #7D977B",
"R. c #6B8468",
"E. c #64A363",
"W. c #6DAA6C",
"Q. c #6BA56A",
"!. c #74A76B",
"~. c #77AC74",
"^. c #7BB078",
"/. c #839215",
"(. c #879C0B",
"). c #8EA912",
"_. c #ACB511",
"`. c #A8813D",
"'. c #AF982B",
"]. c #B4A830",
"[. c #8E8830",
"{. c #C9BD19",
"}. c #C8AF32",
"|. c #B3C611",
" X c #D4C11F",
".X c #CFD505",
"XX c #D1E70B",
"oX c #CEE311",
"OX c #CAC926",
"+X c #CDD220",
"@X c #BC9A5A",
"#X c #A7824E",
"$X c #BEA748",
"%X c #818667",
"&X c #998568",
"*X c #84817A",
"=X c #AB8B6A",
"-X c #B39573",
";X c #87AE7D",
":X c #8AB17D",
">X c #BAAA7F",
",X c #93A44E",
"<X c #C4A479",
"1X c #C5AD59",
"2X c #7E9F80",
"3X c #879485",
"4X c #898E8A",
"5X c #87A487",
"6X c #95A989",
"7X c #93B489",
"8X c #95A794",
"9X c #97B893",
"0X c #84B582",
"qX c #A8A985",
"wX c #B7A985",
"eX c #A5BD95",
"rX c #B9BB98",
"tX c #ABAD91",
"yX c #9EA9A2",
"uX c #B9BEAD",
"iX c #C5AC84",
"pX c #CABE94",
"aX c #D6BC92",
"sX c #D4B58C",
"dX c #BBCBAC",
"fX c #B7C6B2",
"gX c #AFC6AD",
"hX c #CAC097",
"jX c #E6C99D",
"kX c #C8C6A7",
"lX c #C5CFB7",
"zX c #D8D4C0",
"xX c #E0DBC9",
/* pixels */
"Z.Z.Z.Z.S.Z.Z.S.A.L.~.9X;.r [ r.`.`.r.w.w.iX8XI.Z.Z.A.Z.Z.Z.Z.Z.",
"Z.Z.Z.Z.Z.Z.C.S.F.^.fX3X1.O.'.{. X X}.].#X<XkXeXE.Z.A.A.Z.Z.Z.Z.",
"Z.Z.Z.Z.S.S.C.W.9X7XY.V o.'.+XXXXXXXXXOX].].@XpXrX7X7XG.Z.Z.Z.Z.",
"Z.Z.Z.Z.S.Z.A.9XyX;.S g.b.N.N.N.N.N.N.N.N.|.+X$X#Xu.-X!.F.Z.Z.Z.",
"Z.Z.Z.S.S.C.P.R.=.S s x v v v v b v x c m B.).v.{ y.@XpXrX!.V.Z.",
"Z.Z.Z.Z.S.U.:.Z f v v x s s s s x x x s v n f.x Q ].}.@XqX~.V.Z.",
"Z.Z.Z.S.J.6.B f z s v g.j.j.j.n.j.j.j.j.g.v d c c.|.OX@XqX~.V.C.",
"Z.F.G.L.I.;.- % a H a.l.M.M.x.x.l.M.M.M.l.g.n x b Q ,XhXlX7XL.Z.",
"F.^.dXzXuX2.- = a G U k.x.x.x.x.M.M.M.M.x.j.f.f ; f K.:XkXxXdXW.",
"9XpXiX<XwX<.f a G p d U h.x.x.x.x.M.M.x.l.d.U p & i <.>X<X<XhXeX",
"u.<XsXjXpXK.G D a : ; P s.a.d.h.x.x.x.k.d.I H : @ > <.hXjXaXwX*X",
"u.=XiXsXwX .f a y @ : D I I I a.h.k.k.d.I P a @ . i  .<XaXiX-Xu.",
"0XwX=Xw.t.X.M y % . % a P K K K K s.s.K K p ; X @ i ..t.y.=XtX;X",
"P.7X>X&X,.$.#.N ; % # & y p H s.K K K K H ; @ $ N #.$.t.&XqX:XQ.",
"S.S.Q.Y.} G.T.-.s y % . @ # u z K K K K H % X 2 *.Y.P.` *X!.m.Z.",
"V.V.U.Y.` [._.9.( l i * @ . $ u F P K K z & o w [.)./.` R.I.V.Z.",
"C.V.W.9X6X2.( { '._./.l * @ @ $ g a H D u X O ' { ( <.6X9XW.C.A.",
"C.C.A.F.I.6X5._ W ~ /.(.v.v.k & # ; p a ; X o w } 5.8XQ.A.Z.C.C.",
"C.C.Z.S.L.0XT.;.2 o ! _..X_.v.b $ . # * : @   O Z T.0XL.C.C.C.C.",
"A.C.Z.A.A.m.J.;XR.6 , k ! ! (.).l     X @ ; u : 9 :.H.A.S.S.S.A.",
"C.A.S.C.C.C.Q.3X5.B > u # < ! B.l $   . i J.U.*.+.7.8XI.Z.S.C.C.",
"A.C.S.A.H.!.:.Z V T T G ; & f U K p & ; T 2XyX7.+.0 ;.J.Z.Z.C.C.",
"V.V.A.S.H.7.t 6 *.8XY.5 y z P K P U M u y 5 9 r r 6 ;.J.C.C.C.C.",
"V.V.R.2X4.%.q e ,.4X3.- < S / / / / / / ^ > : 2 r 4.8XI.S.C.C.C.",
"V.V.W.R.7 q W 0.| %.+.O 4 ( [ [ [ [ [ [ ( R J i 9 :.I.F.A.C.A.S.",
"A.A.U.6.8 3 | -Xp.7 $ ; v b.n.n.n.b.b.b.b.b.f.J M C 6.H.A.C.S.S.",
"A.V.~.9XT._ r &.%.+ # z f.x.n.z.g.v f i i i > > C 8.yXE.Z.C.C.C.",
"A.A.F.W.~.p.*.t t Z C M J Y f.Y G i 2 1 1 1 + O Z U.!.F.Z.C.S.C.",
"C.S.C.A.I.gXfXgXfXuX2XZ - - 1 - 5 r | e.w.w.' q 9 D.Q.F.Z.Z.Z.Z.",
"S.C.S.C.A.F.S.F.L.Q.3X:.-.-.-.-.-.&.r ' 0.0.' w 7 ;.3XE.A.Z.Z.Z.",
"C.S.S.C.S.A.A.S.S.A.A.A.A.A.A.V.A.R.1._ e q q 3 6 *.Y.P.S.Z.Z.Z.",
"C.C.V.S.S.C.C.S.S.A.C.C.A.C.Z.Z.A.I.8Xp.+     o 7 :.P.F.Z.Z.Z.Z."
};
