/* XPM */
static char *up_3__[] = {
/* columns rows colors chars-per-pixel */
"32 32 233 2 ",
"   c #0B0B08",
".  c #090806",
"X  c #051306",
"o  c #041B06",
"O  c #09170A",
"+  c #12130D",
"@  c #1C150B",
"#  c #141A0B",
"$  c #181A15",
"%  c #140C08",
"&  c #251D17",
"*  c #2F1B0F",
"=  c #082B0A",
"-  c #07240A",
";  c #17240A",
":  c #0A330D",
">  c #0B3C0D",
",  c #07380D",
"<  c #1A281A",
"1  c #0B3B14",
"2  c #173917",
"3  c #0C2510",
"4  c #312715",
"5  c #132D2E",
"6  c #282929",
"7  c #363836",
"8  c #2E332D",
"9  c #432715",
"0  c #57331B",
"q  c #43301E",
"w  c #623C1F",
"e  c #41372E",
"r  c #46382A",
"t  c #563925",
"y  c #473D38",
"u  c #0D430D",
"i  c #18480D",
"p  c #0D4B14",
"a  c #0B4315",
"s  c #184718",
"d  c #0E5114",
"f  c #0D551A",
"g  c #0D5E1C",
"h  c #1D5F16",
"j  c #15571B",
"k  c #2F5210",
"l  c #0D651F",
"z  c #1A661B",
"x  c #1F711E",
"c  c #37630C",
"v  c #246C1A",
"b  c #246415",
"n  c #2C791D",
"m  c #307C1F",
"M  c #195B24",
"N  c #2A4629",
"B  c #395C23",
"V  c #3D433D",
"C  c #2C5132",
"Z  c #0F6922",
"A  c #0F6024",
"S  c #126A22",
"D  c #186A21",
"F  c #127325",
"G  c #137B28",
"H  c #167926",
"J  c #0F7627",
"K  c #2E7822",
"L  c #317E20",
"P  c #317326",
"I  c #555E05",
"U  c #5B521B",
"Y  c #4C4018",
"T  c #624F1D",
"R  c #5C6106",
"E  c #597E1A",
"W  c #79671A",
"Q  c #425C24",
"!  c #555634",
"~  c #665723",
"^  c #675824",
"/  c #685037",
"(  c #536434",
")  c #666936",
"_  c #283845",
"`  c #3E4853",
"'  c #1C6948",
"]  c #3F5262",
"[  c #367C7A",
"{  c #116874",
"}  c #474746",
"|  c #514C45",
" . c #455146",
".. c #565649",
"X. c #525B53",
"o. c #575B56",
"O. c #424F5A",
"+. c #605B59",
"@. c #4A6D4A",
"#. c #5C7758",
"$. c #566554",
"%. c #647546",
"&. c #70744C",
"*. c #726D54",
"=. c #465565",
"-. c #55697D",
";. c #686D67",
":. c #697768",
">. c #737C6D",
",. c #747B74",
"<. c #7B7C78",
"1. c #726E67",
"2. c #85711C",
"3. c #805A3A",
"4. c #8C6238",
"5. c #936B37",
"6. c #977346",
"7. c #886D52",
"8. c #977B56",
"9. c #896D52",
"0. c #917F63",
"q. c #1C8429",
"w. c #1E882A",
"e. c #378F23",
"r. c #2E9328",
"t. c #2E9127",
"y. c #3B9625",
"u. c #3B9D28",
"i. c #359727",
"p. c #2A8C28",
"a. c #3EA129",
"s. c #5C8A10",
"d. c #588C13",
"f. c #698709",
"g. c #789207",
"h. c #718106",
"j. c #6BAC1C",
"k. c #4A9328",
"l. c #449828",
"z. c #49942E",
"x. c #41A429",
"c. c #5AAA23",
"v. c #69B220",
"b. c #459746",
"n. c #479847",
"m. c #49964A",
"M. c #479848",
"N. c #499849",
"B. c #569356",
"V. c #539B53",
"C. c #5A9659",
"Z. c #5B9D5A",
"A. c #548554",
"S. c #66845A",
"D. c #5CA15B",
"F. c #519467",
"G. c #5F856B",
"H. c #639563",
"J. c #689868",
"K. c #7B8674",
"L. c #719871",
"P. c #698969",
"I. c #63A362",
"U. c #6DAA6C",
"Y. c #69A568",
"T. c #70AA6E",
"R. c #75A66C",
"E. c #73AA72",
"W. c #7AAC75",
"Q. c #76A572",
"!. c #56A771",
"~. c #889605",
"^. c #98941F",
"/. c #97A016",
"(. c #AEB706",
"). c #958A24",
"_. c #9D8C3A",
"`. c #B89236",
"'. c #B1AA34",
"]. c #C8B01C",
"[. c #D5BD26",
"{. c #D0B22F",
"}. c #90C115",
"|. c #B4CE14",
" X c #CBD204",
".X c #C8D01C",
"XX c #E0DB1C",
"oX c #CFE50B",
"OX c #D0E60C",
"+X c #D2E211",
"@X c #D8C123",
"#X c #D6CD27",
"$X c #E1D02B",
"%X c #B68F50",
"&X c #918970",
"*X c #AA8A6A",
"=X c #B59675",
"-X c #B4966B",
";X c #82AE78",
":X c #85B17D",
">X c #9DA07D",
",X c #96A44F",
"<X c #C79C4F",
"1X c #D5AE44",
"2X c #C6A476",
"3X c #D8BE6E",
"4X c #838782",
"5X c #8D948C",
"6X c #939791",
"7X c #8D938D",
"8X c #8CAB86",
"9X c #8AB687",
"0X c #92AF90",
"qX c #9CB796",
"wX c #96AA86",
"eX c #A8AA87",
"rX c #BDAB86",
"tX c #A1A29E",
"yX c #A0BD95",
"uX c #BDBA96",
"iX c #A3A7A5",
"pX c #ADBBAB",
"aX c #C4AD83",
"sX c #D4B68E",
"dX c #C8BA93",
"fX c #D1BB94",
"gX c #C0AF98",
"hX c #BEC5AB",
"jX c #DEC795",
"kX c #E3C89B",
"lX c #C4CBB5",
"zX c #E7CDA2",
"xX c #D0D5C8",
/* pixels */
"N.N.N.N.M.M.N.M.n.D.W.qX&X5.4.%X%X_.5.2.5.uX0X;XY.D.N.N.N.N.N.N.",
"N.n.n.n.M.M.N.M.D.W.pX4X8.`.{.@X].[.[.].{.3XjXkXuXW.x.n.N.n.n.N.",
"N.n.n.N.m.m.n.Y.9XwX&X7 ) '.#XOXOXOX XOX+X$X1X-X-X2XyXD.n.n.N.N.",
"n.n.n.n.m.M.V.I.P.X.C K e.c.c.c.c.c.c.c.v.|.XX$X<X%XuXU.D.V.n.N.",
"M.M.N.N.m.M.H.S.( B v v v v v v v v v v n j.|..X[.1X%X-XeXU.b.n.",
"N.N.N.M.N.H.#.C s v K b h h z z z z h h h n d.}..X{.{.8.>XT.b.n.",
"N.M.M.N.C.:.N s M l v e.y.y.u.y.y.y.y.y.e.v b n v..X[.%XeXW.b.n.",
"n.V.Z.I.H.$.< , g Z x y.x.x.a.a.x.x.x.x.y.z i d b E ,XjXlX:Xn.b.",
"N.;XhXxXhX&.2 , f Z q.t.i.u.a.a.x.x.x.x.u.n h 1 : s A.;XhXhXW.V.",
"yXuX2X2XrX%.j g A g g S F q.r.a.a.x.x.x.x.u.n : O 2 %.2X2X2XuXyX",
"*X=XsXzXfX&.M Z F Z p > f H w.w.w.r.u.x.l.r.D : X 2 %.fXkXfXrX*X",
"8.-XaXsXaX%.j A G F f = > d l l F w.r.r.r.w.S = o s %.rXfXrX=X8.",
";XeX*X5.6.( A J J Z g u o o = u g S G G G G l = o 1 ! 6.6.*XeX;X",
"I.8XwX*X9.[ [ ' g d p u , = - o = : d Z F A u o 5 { [ *.0.eX8XJ.",
"m.n.T.K.X.F.!.@.N u u u u , = o o - : p g p = o C F.F.! &XR.n.n.",
"m.Y.qX7X! )./.W U k d i u u u u , - o o , , = ; Q ).).! K.Y.b.n.",
"N.N.U.qXwX*.~ ^ ).(.g.k i u i u u > : - O O ; Y T U &.wXtXU.b.n.",
"N.N.N.D.J.6X;./ W ~.~.~.g.s.c u i c f.h.R 4 @ q / 1.6XY.D.n.n.n.",
"M.N.n.N.T.xXiX .+ ; R (. X(.h.c c g.(. X(.I # O  .iXxXT.N.n.n.n.",
"N.V.N.D.H.,.} N j > i c k I ~.|. X~.I k c i u f M  .,.F.Z.D.D.N.",
"E.qX7X:.;.} y :.#.N 1 d a k d.}./.d.h u d > N A.:.` O.;.>.7X0XU.",
"Q.>.y @ & 7 o.tX7X5 : S F G w.q.q.q.G H l : 8 7XiX-._ & @ ! ,.L.",
"7 e t t t _ O.-.=.5 : A F G q.G G G G H l : $ / ;.=.` t 0 0 7 7 ",
". * w 4.9.| 6 5 5 1 s B Q B B Q B Q B Q Q s 2 4 & 6 | 9.4.w * . ",
"7 e t 3.9.r + o 1 D P ^ ^ ^ ~ ~ ~ ~ ~ ~ ^ P D 1 O + y 7./ w y 7 ",
"0X0.y $ 6 @ O 1 D p.u.k.k.l.k.k.k.k.k.k.z.k.p.D a $ $ 8 4 y 0.0X",
"Q.pX0X4X,.7 O 3 f H r.u.u.a.a.x.x.l.x.x.a.r.H j ` ,.5X4X4XtXpXE.",
"F.Y.E.E.L.o.$ . ; f S n L L L L m L m L n F p 3 V 5XlX9XU.U.I.F.",
"M.M.N.N.C.;.6 & *   X O ; < < < < # + O @ #     O 6 ;.C.N.M.N.N.",
"M.n.m.N.C.L.X.6 $ . . $ X.:.$.@.@.V & @ 4 4 9 4 @ $ o.B.N.M.N.N.",
"N.N.M.M.M.M.C.#...} } X.iXqXV.M.m.P.+.y 0 0 9 9 q ..P.F.N.M.M.N.",
"n.M.N.M.m.m.C.C.C.B.B.Z.I.D.V.N.N.D.0X<.& % % + 8 #.J.V.M.M.N.N."
};
