/* XPM */
static char *up_4__[] = {
/* columns rows colors chars-per-pixel */
"32 32 223 2 ",
"   c #130A06",
".  c #051706",
"X  c #171708",
"o  c #1C1816",
"O  c #2C1C0F",
"+  c #221C17",
"@  c #062309",
"#  c #072C0C",
"$  c #0A2B0B",
"%  c #092209",
"&  c #132A09",
"*  c #0A320D",
"=  c #093B0E",
"-  c #1D390C",
";  c #172817",
":  c #0A3D12",
">  c #083711",
",  c #153219",
"<  c #0D2510",
"1  c #3A3B09",
"2  c #262219",
"3  c #3B2D1B",
"4  c #343A17",
"5  c #2B2904",
"6  c #292A26",
"7  c #342B22",
"8  c #39362A",
"9  c #3C3B34",
"0  c #243928",
"q  c #472B18",
"w  c #47331C",
"e  c #57371E",
"r  c #483829",
"t  c #443B36",
"y  c #0B4212",
"u  c #0C4C15",
"i  c #0A4819",
"p  c #134A15",
"a  c #0C5B1C",
"s  c #0C5518",
"d  c #195B15",
"f  c #135B1D",
"g  c #16571A",
"h  c #354B1B",
"j  c #235919",
"k  c #29521C",
"l  c #304B11",
"z  c #0D621F",
"x  c #13611D",
"c  c #196219",
"v  c #246B1A",
"b  c #2A7A1E",
"n  c #26711D",
"m  c #1D5523",
"M  c #1A4F24",
"N  c #3B5925",
"B  c #3B4039",
"V  c #2D5031",
"C  c #0F6A22",
"Z  c #0E6621",
"A  c #116C22",
"S  c #1C6727",
"D  c #0F7828",
"F  c #127425",
"G  c #127B29",
"H  c #1A7623",
"J  c #2C7C21",
"K  c #207320",
"L  c #3A6C29",
"P  c #4F500B",
"I  c #437513",
"U  c #5E720F",
"Y  c #475A26",
"T  c #5B562F",
"R  c #494437",
"E  c #584837",
"W  c #5B563A",
"Q  c #634823",
"!  c #625D23",
"~  c #695728",
"^  c #7B5529",
"/  c #685936",
"(  c #724A23",
")  c #556C3C",
"_  c #54652D",
"`  c #65713C",
"'  c #73672E",
"]  c #145B47",
"[  c #3E4F40",
"{  c #147062",
"}  c #2E7E7D",
"|  c #4B574A",
" . c #585846",
".. c #595A54",
"X. c #4B4948",
"o. c #6A5945",
"O. c #486748",
"+. c #4C764A",
"@. c #587448",
"#. c #596656",
"$. c #56664A",
"%. c #627B49",
"&. c #6F7757",
"*. c #747953",
"=. c #6A634E",
"-. c #4D5963",
";. c #676663",
":. c #7C7A7A",
">. c #757774",
",. c #726F64",
"<. c #4B7870",
"1. c #876F1E",
"2. c #875B30",
"3. c #8D6835",
"4. c #966B36",
"5. c #8E7033",
"6. c #A47E39",
"7. c #886949",
"8. c #9B7E56",
"9. c #8F784F",
"0. c #A27845",
"q. c #19832A",
"w. c #1C8429",
"e. c #228A29",
"r. c #288726",
"t. c #348923",
"y. c #3A9527",
"u. c #329729",
"i. c #359929",
"p. c #3D9E28",
"a. c #2C9229",
"s. c #3EA029",
"d. c #5D9314",
"f. c #488B27",
"g. c #469327",
"h. c #499A22",
"j. c #499628",
"k. c #459734",
"l. c #41A329",
"z. c #43A036",
"x. c #768A1B",
"c. c #15807D",
"v. c #4F8B4F",
"b. c #469746",
"n. c #479847",
"m. c #489749",
"M. c #499849",
"N. c #479748",
"B. c #598959",
"V. c #539C52",
"C. c #5B9856",
"Z. c #648A48",
"A. c #6C9B55",
"S. c #57A057",
"D. c #5DA15C",
"F. c #64A659",
"G. c #70A559",
"H. c #6C8768",
"J. c #75856B",
"K. c #669F63",
"L. c #7A8779",
"P. c #7B9679",
"I. c #739D6C",
"U. c #63A362",
"Y. c #64A964",
"T. c #6CAB6B",
"R. c #69A768",
"E. c #72A76E",
"W. c #79AA77",
"Q. c #7BB278",
"!. c #828706",
"~. c #8D9311",
"^. c #A59415",
"/. c #B1AA10",
"(. c #90902B",
"). c #AD883C",
"_. c #9EB921",
"`. c #A9B535",
"'. c #CBB521",
"]. c #B5DA11",
"[. c #B2D516",
"{. c #D5C41A",
"}. c #8D8D59",
"|. c #8B915F",
" X c #84877E",
".X c #85977D",
"XX c #999373",
"oX c #A49A77",
"OX c #B29778",
"+X c #AC946C",
"@X c #90A673",
"#X c #ACA673",
"$X c #B7A77B",
"%X c #ACAC64",
"&X c #26868B",
"*X c #828381",
"=X c #848B85",
"-X c #8B9B88",
";X c #969694",
":X c #959389",
">X c #B79D83",
",X c #89A588",
"<X c #87B785",
"1X c #97A696",
"2X c #9BB49B",
"3X c #99B898",
"4X c #90B98E",
"5X c #A9A888",
"6X c #B8A585",
"7X c #BBB294",
"8X c #ABAF94",
"9X c #969CA2",
"0X c #AEB2A4",
"qX c #C2A883",
"wX c #C9BC9A",
"eX c #C0B88E",
"rX c #C6B4A6",
"tX c #A5C49F",
"yX c #AAC6A6",
"uX c #BBC4A5",
"iX c #B2C3AC",
"pX c #C7CEB7",
"aX c #D7D3C8",
/* pixels */
"M.M.n.N.M.n.n.M.D.U.O.r Q 6.).).).3.3.Z.U.E.W.Y.V.k.n.n.m.n.M.n.",
"M.n.M.N.M.M.N.A.P.L...' ^.{.{.{.{.{.'.`.%XeXpXtXF.k.m.n.n.M.M.M.",
"n.M.n.n.n.S.W.P.#.0 Y x._.].].].].].[.`.(.(.|.5X@XS.M.m.n.n.n.n.",
"N.M.n.n.n.U.P.-., S J t.h.h.h.h.h.h.h.h.y.a.L 9.5XyXyXV.M.n.n.M.",
"N.N.N.N.M.E.L.| * b n d d d d d d d d d d d u k T 9.XXV.n.n.n.n.",
"N.N.N.S.Q.|...V = d n t.t.b r.t.b b b r.v p u x Y 9.oXC.M.V.V.n.",
"M.V.m.T.iX..; < u d b y.s.p.l.l.h.s.l.l.t.v z z L ` }.@X=XA.z.n.",
"T.tXpXaXpX.., > s z r.i.l.l.l.s.s.s.l.l.i.r.z d p k T 8.uXyXQ.M.",
"<XuXwXqX7X@.g a z a Z e.u.s.s.s.l.l.s.l.i.w.D C s k 3.+X$XwXuX4X",
"oX6XqX$X$X) j z a # i A w.a.i.s.l.l.s.u.e.G C y = V *.@X#X$X6X0X",
"8.>X$X#X#X@.g s y . : C G q.a.u.s.l.p.e.F z = @ $ V *.}.oXOXOXoX",
"aX7X+X6.0._ m u $ . : Z G G G w.u.s.i.e.z * @ # y m ` }.8.>X7X@X",
"*X0X0X+X=.} c.] & . $ u x D D q.q.q.q.G a $ . = { &X<.7.6XpXtXT.",
"m.V.C.@.E A.G._ 4 & % % y z D G G G F z y @   4 Z.G.@.) .XE.M.n.",
"m.n.D.E.*.(.(.' ~ U l & $ y z F G D A u - P P ( (.(.5.,.,XY.n.n.",
"m.n.M.R.2X&.W ' ^./.x.l & . s F G D C = l 1./.5.~ ) H.K.F.V.n.n.",
"m.n.n.m.D.,X*X .1 P !.!.P . > a C C i # X 5 1 3 ;.1X3XS.n.n.n.n.",
"n.n.n.N.m.U.P.X.. $ I d.f.: # = u u : . X O O o :.2XT.M.n.n.n.n.",
"m.n.N.N.m.K.P.... y d H A z y * * * * # 8 / o.6 :.3XY.M.M.n.n.n.",
"n.m.N.m.U.yX;X.., S H c x F z s $ . . y +.,X;XX.*X1XY.M.n.n.n.n.",
"m.n.V.E.0X*XX.t =.1XJ.R 4 f F z z g g N Y W ,.0X9XK.M.n.n.n.n.n.",
"n.n.U.,X*XE E 7.oX9X,.r q h N Y N N Y _ Y k V >.-X@XS.M.n.n.n.n.",
"m.n.C.@.7 q 7.>X8X-.6 + h ! ! ! ! ! ! f.a.H a , *X2XY.n.n.n.n.n.",
"m.m.v.#.t q 7.OXXX8 & y n j.j.j.j.g.g.y.t.H M 0 *X2XY.M.n.n.n.n.",
"N.n.B.=X2X$.r t 8 < > x w.i.h.s.p.J - - $ , [ :XW.D.M.m.N.M.N.M.",
"m.N.n.D.3X-X*X:.>.>.| M g j j j j h w 3 X o X.,XR.m.M.M.M.N.M.V.",
"N.m.n.M.m.L.,X<X<X<XL.| 9 9 B 6 + w 3.2.e 7 X..X3X<XS.m.M.b.M.M.",
"N.m.N.n.m.m.m.m.M.n.V.v.v.v.v.O.8 3 4.0.4.( e t ;X2XY.M.b.M.M.M.",
"n.M.M.n.m.V.M.n.n.n.n.n.m.m.M.O.B w 3.0.4.^ q + :.3XY.M.b.M.M.b.",
"M.n.m.M.m.m.n.n.n.n.m.m.m.M.m.+.R w 2.2.^ Q q + :.3XY.M.M.b.M.b.",
"n.n.n.n.n.M.n.n.n.n.m.m.m.m.m.B...t e e q q 7 R :X3XY.n.M.b.b.M.",
"M.m.m.M.n.n.m.M.n.m.m.m.m.m.n.C.-X:.2     o X.L.W.F.V.n.b.b.M.b."
};
