/* XPM */
static char *down_2__[] = {
/* columns rows colors chars-per-pixel */
"31 40 235 2 ",
"   c #020101",
".  c #090402",
"X  c #0B090A",
"o  c #050B02",
"O  c #011405",
"+  c #061804",
"@  c #0A1609",
"#  c #161617",
"$  c #160D06",
"%  c #2B190E",
"&  c #072409",
"*  c #073812",
"=  c #153E17",
"-  c #123210",
";  c #282706",
":  c #382817",
">  c #272115",
",  c #272728",
"<  c #392D24",
"1  c #2B2D31",
"2  c #333233",
"3  c #383330",
"4  c #303729",
"5  c #172B37",
"6  c #452716",
"7  c #45391B",
"8  c #5B341A",
"9  c #54351B",
"0  c #502E17",
"q  c #61361A",
"w  c #683C1D",
"e  c #723F1E",
"r  c #473621",
"t  c #4F3123",
"y  c #683B20",
"u  c #733E21",
"i  c #0E420C",
"p  c #0C4618",
"a  c #1D5817",
"s  c #115117",
"d  c #304318",
"f  c #2E4C17",
"g  c #16631D",
"h  c #29761D",
"j  c #29671A",
"k  c #105622",
"l  c #0C5F20",
"z  c #375035",
"x  c #0E7326",
"c  c #0C7A27",
"v  c #0E7B29",
"b  c #117C29",
"n  c #1D7128",
"m  c #126922",
"M  c #266E27",
"N  c #326625",
"B  c #367329",
"V  c #5F441E",
"C  c #74431D",
"Z  c #4C5924",
"A  c #56462C",
"S  c #6C4826",
"D  c #744220",
"F  c #7F4E23",
"G  c #685622",
"H  c #7B5339",
"J  c #775530",
"K  c #5A6A23",
"L  c #4C7229",
"P  c #2B3D51",
"I  c #1F384E",
"U  c #374855",
"Y  c #344D68",
"T  c #1B434F",
"R  c #494847",
"E  c #575656",
"W  c #504F4A",
"Q  c #6E594C",
"!  c #5A6D5A",
"~  c #7A6750",
"^  c #796956",
"/  c #6D6452",
"(  c #565976",
")  c #5F6460",
"_  c #6C6C6D",
"`  c #626061",
"'  c #716D69",
"]  c #79797A",
"[  c #757269",
"{  c #845A1C",
"}  c #86572C",
"|  c #8A5C39",
" . c #885A34",
".. c #956936",
"X. c #9A783E",
"o. c #8A682F",
"O. c #A2783C",
"+. c #896346",
"@. c #9A7354",
"#. c #956945",
"$. c #A47B42",
"%. c #A2784F",
"&. c #A27956",
"*. c #90796C",
"=. c #1D8529",
"-. c #188229",
";. c #268929",
":. c #328528",
">. c #2A9129",
",. c #319729",
"<. c #339929",
"1. c #3C9827",
"2. c #3DA229",
"3. c #459923",
"4. c #568F2B",
"5. c #76872D",
"6. c #41A429",
"7. c #4DA12C",
"8. c #55AD25",
"9. c #52A72A",
"0. c #6B881C",
"q. c #2D806F",
"w. c #528E4A",
"e. c #4A8541",
"r. c #728471",
"t. c #95853B",
"y. c #AB843D",
"u. c #AF8C39",
"i. c #B28C36",
"p. c #B99835",
"a. c #B3992D",
"s. c #BEA12E",
"d. c #BFA231",
"f. c #A39E13",
"g. c #D2BF19",
"h. c #C8B30D",
"j. c #C49D39",
"k. c #C5A92A",
"l. c #CFBA22",
"z. c #CCB325",
"x. c #D1BB22",
"c. c #D7B928",
"v. c #DAB836",
"b. c #C9AE34",
"n. c #9AC811",
"m. c #DAC91B",
"M. c #D3D113",
"N. c #E4D715",
"B. c #F1DF1D",
"V. c #ECE50A",
"C. c #F2EB0A",
"Z. c #F2EE05",
"A. c #EAF704",
"S. c #FEFD01",
"D. c #F6F504",
"F. c #F5E816",
"G. c #F1FB10",
"H. c #DAC422",
"J. c #F0DB23",
"K. c #E6C831",
"L. c #AA8346",
"P. c #BA8D49",
"I. c #AC8359",
"U. c #B58F4C",
"Y. c #988670",
"T. c #B7926C",
"R. c #B4916E",
"E. c #A6AA42",
"W. c #C49549",
"Q. c #D09F4E",
"!. c #DCAA54",
"~. c #D2A84B",
"^. c #E1B051",
"/. c #E4B848",
"(. c #C19C6C",
"). c #C9A57C",
"_. c #C9A66F",
"`. c #345094",
"'. c #036284",
"]. c #526DA9",
"[. c #587197",
"{. c #2F81A3",
"}. c #398698",
"|. c #7D8394",
" X c #7883A2",
".X c #08BEFF",
"XX c #32C8E7",
"oX c #858585",
"OX c #9A999A",
"+X c #908F90",
"@X c #A79780",
"#X c #92A78F",
"$X c #8F97AD",
"%X c #A8A8A8",
"&X c #B5B5B5",
"*X c #BBBCBB",
"=X c #A9B4AB",
"-X c #A4B192",
";X c #CDAB82",
":X c #D0AE86",
">X c #D5B48A",
",X c #D7B48A",
"<X c #DCBC93",
"1X c #C0AA9B",
"2X c #E2BF89",
"3X c #CBBAAD",
"4X c #ABCFB5",
"5X c #E5C79C",
"6X c #EECD87",
"7X c #D6C3A8",
"8X c #CEC3BC",
"9X c #E8CBA3",
"0X c #EDD0A7",
"qX c #ECD3AA",
"wX c #F2D7AE",
"eX c #F5D9AB",
"rX c #E2D1BC",
"tX c #F6DCB4",
"yX c #FEE6BD",
"uX c #FCE4BB",
"iX c #8DA0CA",
"pX c #BEC1D0",
"aX c #CBCBCB",
"sX c #DBDBDC",
"dX c #D4D4D4",
"fX c #E8DED4",
"gX c #FDE7C2",
"hX c #F6EAD8",
"jX c #E3E3E4",
"kX c #ECECEC",
"lX c #EEE8E4",
"zX c #F3F3F3",
"xX c #489848",
"cX c #F3F7FA",
"vX c #F6F5F1",
/* pixels */
"xXxXxXxXxXxXxXxXxXxX_   l v b b v b v O 1 kXxXxXxXxXxXxXxXxXxX",
"xXxXxXxXxXxXxXxXkX*X) & m =.=.=.=.=.=.* 4 =XdXxXxXxXxXxXxXxXxX",
"xXxXxXxXxXxXxXxX&X  p b <.2.6.2.6.2.1.=.l   ` xXxXxXxXxXxXxXxX",
"xXxXxXxXxXxXkX+X! * l b >.>.>.>.>.>.>.-.x p z |.aXxXxXxXxXxXxX",
"xXxXxXxXxXxXsX# & v v b b v b v v v v b b -.p   OXxXxXxXxXxXxX",
"xXxXxXxXxX] U k n <.<.<.,.<.,.<.<.,.<.>.<.<.=.l z E sXxXxXxXxX",
"xXxXxXzXsXz O n ,.9.7.7.8.8.9.9.7.6.8.8.8.9.1.-.* @ &XkXxXxXxX",
"xXxXxX+X# l n o.t.~.U.t.M.A.A.M.$.M.A.A.M.t.5.2.-.l , R zXxXxX",
"xXxXxX]   a L a.d.Q.j.d.C.S.V.x.$.z.V.D.V.y.t.4.:.v O 2 kXxXxX",
"xXxXxX] . q F Z.N.$.H.S.S.C.y.$.$.$.L.V.C.y.$.$.L x O 2 zXxXxX",
"7X7XfX*.% } i.D.N.W.m.S.m.g.x.x.z.l.l.H.H.l.x.x.5.z : A rXrX3X",
"$.U.,X%.e W./.D.F.!.J.S.p.u.D.S.S.S.D.a.u.D.S.S.f.u C  .:X(.O.",
"} %.tX(...m.B.k.c.F.H.d.y.u.D.F.K.b.k._._.p.m.S.c.P.;X<XeX_.F ",
"H @.tX).L.N.V.y.j.S.x.L.u.p.Z.B.!.P.L.).;XI.b.S.K.!.eXtXtX).H ",
"lX3X| I.).X.{ Q.K.S.D.D.Z.F./.~.L.(.:X>X>XwX6X/.W.L.>X;X .R.lX",
"xX3X8 [ =X+.} Q.v.F.F.F.F.F.~.P...T.>X<X9XwX2XW.j.p.-XOX@.1XxX",
"xX&X. '..Xr.O.O.P./.^.^.^.!.$...e I.<XtXtX<XT.D h.G.XXXXcXcXcX",
"xX&X  T }.E.z.o.o.J O.W.W.P.....%.(.>X).R.~ H } m.D.q.].cXcXxX",
"xX&X  : { m.Z.F 0   A $.$...u #.>X>X;X .8   : $.m.D.; 2 zXxXxX",
"xXlX%XQ % a.v.F +.=X|.( H  .R.;XwXR.| ( [.=XY.J j.v.; 4 zXxXxX",
"xXxXxXoX# $.U.D *.xXiX`.Q +.;X9XgXR.H `.].cX3Xy O.P.: R zXxXxX",
"xXxXxXkXdXA $ o W gX$X`.aXhXtXtXyXhXsX].].gXR.. $ > &XjXcXxXxX",
"xXxXxXxXxX_ 1   A 5X$X].sXvXgXyXyXhXvX$X[.9X*.  , R sXxXxXxXxX",
"xXxXxXxXxXxXsX# : L.<XgXyXgXyXyXyXgXgXgXeXP.J   OXxXxXxXxXxXxX",
"xXxXxXxXxX%Xr.= d  .I.).5X9X0X0X0X0X9X;XT...Z * ! OXkXxXxXxXxX",
"xXxXxXxXcXR X x M C e C T.,X>X>X,X,X:X .e C Z -.* X aXxXxXxXxX",
"xXdXE E E I Y 4X#Xf f M e.w.w.w.w.w.w.B j ; ! 4X) % R E E OXxX",
"kX%X      I [.sX=Xi g -.v c v c c c b b b i r.zX*.< $ .   ` kX",
", < 8 q q Y Y 1 < w N c v v c c v c -.c n V 7 , P Y t 8 8 t , ",
"  % | |  .R I O ; G Z M M h 3.3.3.B M M B G 7 o 5 U ~ | | 9   ",
"  3 :X>X;X<   * a 6.K D e { V.D.D.f.D D G 7.h i O . R.>X,X^   ",
"_ ' ~ ~ ~ ' ` - s 2.4.K Z K n.n.n.0.Z K K 6.h & R [ ^ ~ ~ ^ _ ",
"xX&X.     *XjX# - 2.6.2.=.v v v v v b <.6.6.j   OXcX4     ` xX",
"xXjX%X%X%X_ W X @ - g ;.>.<.>.,.,.,.>.h a i &   OXxX&X%X%XaXxX",
"xXxXxXxXcXA         = b <.2.3.1.3.1.1.a -   o # %XxXxXxXxXxXxX",
"xXxXxXxXcXR . 8 y 8 r r r r @ + + + + 9 9 . W dXkXxXxXxXxXxXxX",
"xXxXxXxXxX_ 3 9 q D y t 6 < 2 2 2 2 2 9 9 3 oXxXxXxXxXxXxXxXxX",
"xXxXxXxXxXcXdX# % u u u $ , jXzXzXcXkX2 , jXcXxXxXxXxXxXxXxXxX",
"xXxXxXxXxXxXkX] W 6 6 6 E oXzXxXxXxXcXoXoXzXxXxXxXxXxXxXxXxXxX",
"xXxXxXxXxXxXxXxX=X      8XxXxXxXxXxXxXxXxXxXxXxXxXxXxXxXxXxXxX"
};
