/* XPM */
static char *left_1__[] = {
/* columns rows colors chars-per-pixel */
"31 40 233 2 ",
"   c #010101",
".  c #020C02",
"X  c #0B0A04",
"o  c #0A0A0B",
"O  c #0B0606",
"+  c #140B08",
"@  c #031306",
"#  c #071909",
"$  c #171309",
"%  c #1B1B1D",
"&  c #171615",
"*  c #001119",
"=  c #291813",
"-  c #291612",
";  c #2E1C0E",
":  c #06270C",
">  c #0B3C0B",
",  c #08350B",
"<  c #182C13",
"1  c #173612",
"2  c #0B2C10",
"3  c #28241A",
"4  c #3C2211",
"5  c #39251A",
"6  c #293F1E",
"7  c #312A12",
"8  c #0A2730",
"9  c #242323",
"0  c #29292B",
"q  c #342C2B",
"w  c #45261D",
"e  c #472817",
"r  c #502D1E",
"t  c #683A1D",
"y  c #703D1E",
"u  c #4C2A21",
"i  c #463B2E",
"p  c #5B3320",
"a  c #4E3628",
"s  c #713D20",
"d  c #0C420D",
"f  c #0A4314",
"g  c #0D4B12",
"h  c #0A4A1A",
"j  c #0D5B1A",
"k  c #0D5315",
"l  c #1B5C14",
"z  c #1A4A16",
"x  c #234918",
"c  c #205115",
"v  c #0E631D",
"b  c #0F681F",
"n  c #1C6719",
"m  c #206517",
"M  c #236A19",
"N  c #2B6C19",
"B  c #2B771D",
"V  c #3C5B23",
"C  c #2B5324",
"Z  c #0F6D22",
"A  c #0D6522",
"S  c #0E7325",
"D  c #0D7C2A",
"F  c #0D7A26",
"G  c #107626",
"H  c #107B29",
"J  c #187826",
"K  c #187329",
"L  c #276223",
"P  c #2E7030",
"I  c #4B500B",
"U  c #7A4D1C",
"Y  c #797801",
"T  c #55453A",
"R  c #4F4F28",
"E  c #754121",
"W  c #784828",
"Q  c #674C2A",
"!  c #50712C",
"~  c #636F31",
"^  c #25515E",
"/  c #387540",
"(  c #004864",
")  c #575755",
"_  c #584748",
"`  c #675846",
"'  c #526E4F",
"]  c #77695A",
"[  c #79644C",
"{  c #5F6560",
"}  c #656664",
"|  c #787776",
" . c #6F736C",
".. c #885E19",
"X. c #85542C",
"o. c #855535",
"O. c #9C7525",
"+. c #866732",
"@. c #996A37",
"#. c #9A763B",
"$. c #936D20",
"%. c #A4783D",
"&. c #876B1A",
"*. c #9C7149",
"=. c #906D4A",
"-. c #A47B41",
";. c #A47B49",
":. c #8E7973",
">. c #83706B",
",. c #30821F",
"<. c #1D8629",
"1. c #1A8429",
"2. c #1A8034",
"3. c #268E29",
"4. c #2D8127",
"5. c #328921",
"6. c #2F9629",
"7. c #389425",
"8. c #228731",
"9. c #3EA229",
"0. c #5E851E",
"q. c #4A8627",
"w. c #41A429",
"e. c #4AA52B",
"r. c #5AB122",
"t. c #6BA626",
"y. c #318945",
"u. c #60864F",
"i. c #62A05C",
"p. c #4D9D60",
"a. c #6F8F6F",
"s. c #5A874B",
"d. c #BABA00",
"f. c #BBB608",
"g. c #92803E",
"h. c #A9863B",
"j. c #B28F37",
"k. c #B18C3B",
"l. c #B79734",
"z. c #AF8C2F",
"x. c #BEA423",
"c. c #8CB133",
"v. c #D4BD27",
"b. c #C5A731",
"n. c #91C313",
"m. c #BBD511",
"M. c #CFCD18",
"N. c #E8DA18",
"B. c #F3EC09",
"V. c #F9F602",
"C. c #FDFB01",
"Z. c #F6F204",
"A. c #F0E31D",
"S. c #FDFB19",
"D. c #ECE80F",
"F. c #EBD52B",
"G. c #F8F22A",
"H. c #CEE80A",
"J. c #82825B",
"K. c #AE8444",
"L. c #B78844",
"P. c #BD9247",
"I. c #B38D5A",
"U. c #AC9645",
"Y. c #908373",
"T. c #B3946F",
"R. c #C99B4B",
"E. c #C1924B",
"W. c #C3A64A",
"Q. c #D5A947",
"!. c #DDAA53",
"~. c #E0AD53",
"^. c #E1B15A",
"/. c #C19C75",
"(. c #C19D68",
"). c #C6A26E",
"_. c #C3A67C",
"`. c #D1B576",
"'. c #2D4F9C",
"]. c #669F8B",
"[. c #00B5F7",
"{. c #5DCDE8",
"}. c #878786",
"|. c #819C81",
" X c #8A8892",
".X c #979696",
"XX c #83BB90",
"oX c #90A091",
"OX c #B2A694",
"+X c #ABABAC",
"@X c #A5A5A6",
"#X c #B6B6B7",
"$X c #A9B4AA",
"%X c #96B5A6",
"&X c #C6AC8A",
"*X c #D8B78D",
"=X c #D9B88E",
"-X c #D5B589",
";X c #D0B590",
":X c #D1BDA1",
">X c #A8CFAF",
",X c #DAC496",
"<X c #E2C397",
"1X c #E0C48A",
"2X c #D4C8B0",
"3X c #EACDA4",
"4X c #F3D8AF",
"5X c #F6DBB1",
"6X c #EED1A8",
"7X c #FEE5BC",
"8X c #FCE6B9",
"9X c #FDEAAF",
"0X c #AEBBD8",
"qX c #CBCBCC",
"wX c #C3C5C3",
"eX c #D9D9DA",
"rX c #D3D4CA",
"tX c #E1D4C3",
"yX c #CBE2D0",
"uX c #D4E7D9",
"iX c #FFEDCF",
"pX c #FFE9C4",
"aX c #EDE5DA",
"sX c #F8ECD8",
"dX c #E0DFE0",
"fX c #EBEBEB",
"gX c #E4E4E4",
"hX c #FDFDE4",
"jX c #F5F0E9",
"kX c #F2F2F2",
"lX c #489848",
"zX c #F8F6F3",
"xX c #F0EFF0",
/* pixels */
"lXlXlXlXlXlXlX&X#.W E J S d l w.w.w.w.w.<.2.uXlXlXlXlXlXlXlXlX",
"lXlXlXkXaXaXsX`.l.O.&.4.J d l w.w.w.w.w.3.8.>XyXyXuXzXlXlXlXlX",
"lXlXlXtX;.E.^.A.C.V.B.r.7.f l w.w.w.w.w.9.9.8.2.H p.lXlXlXlXlX",
"lXzXtX1Xb.W.R.v.N.N.N.c.t.m M 4.7.w.w.w.9.9.3.3.H y.$XqXlXlXlX",
"lXaX-.b.C.v.-.-.;.Q.!.~.Q.e.5.d m w.w.w.w.w.w.7.1.Z > a.lXlXlX",
":X-Xv.v.M.b.E.L.;.v.F.R.U.e.5.d M w.w.w.w.w.6.3.D F j P |.wXlX",
"#.l.C.N.%.E.~.P.g.D.V.j.K.9.5.d M w.w.w.w.w.1.H F D F b > |.lX",
"X.O.V.A.R.%.@.I.).A.V.k.h.m.n.,.B n m m m m G G H D F b > |.lX",
"E $.V.A.~.%.s I.*XA.B.j.j.C.H.w.B > d d d d Z H H H H Z d a.lX",
"rX2Xl.z.X.;./.&X*XR.l.-.j.V.H.1.n > j G Z G G H H H H G Z P ' ",
"lXaXI.=.t *.*X*X=XI.;.k.l.B.m.4.Z g v G H H S G S G H H F j > ",
"lXlXjXOXO ` *X3X7X=X`.A.D.j.h.#.~ G j d Z H k g g k G H F v d ",
"lXlXlX+X  T /.&X;X:X1XS.D.h.@.@.~ b v g v Z g d , f b G F j , ",
"lXlXlX+X  4 X.; o &X9XS.B.h.@.X.R d j F k d d > X . d j 1.f   ",
"lXfX+X}.i T _ ) ) :X9XF.M.E.%.E Q ! s.i.s.' z >   . > k A ,   ",
"lXqXO i -X X'.0XlXiX5XI.;.~.E.s =.-X3X8XpX4X! >   . > d d :   ",
"lXqXo i =X X'.0XlXiX5X;.@.F.x.4 =.3X5X7X<X_.x <  .} : , j ,   ",
"lXqXo i *X X'.0XlXiX4Xo...V.d.  ) pX7X7X).#.- % fXqXo : D f   ",
"lXgX@X:.a ] .X2XiXpX4Xo...V.d.  ^ {.%X).Q 5 o < gXqXX # j 2   ",
"lXlXlX#Xo ` `.6X7XpX4Xo...V.d.O ( [.].%.5   X 9 fXqX& # > : o ",
"lXlXlXfXwX| 3 Y.<X=X=Xo.&.V.d.  * 8 % = [ j.f.M.jXxXwX].. } wX",
"lXlXlXlXlX.X% ] _._.T.W U Z.f.      .   +.Q.G.G.hXlXzX#X% }.lX",
"lXlXlXlXlXxXgX} & x C o 7 Q.z.  2 S h > $ 3 2XhXlXlXlXkXgXfXlX",
"lXlXlXlXlXfXqX) @ > h : 3 %.+.+ 2 A j h : X qXlXlXlXlXlXlXlXlX",
"lXlXlXlXlX}.O z G H G D A X ; y e   h D : o qXlXlXlXlXlXlXlXlX",
"lXlXlXdX+Xa.I N D H G j h 2 1 R 7   f D : o qXlXlXlXlXlXlXlXlX",
"lXlXlX+XO 0.C.t.F D S @ @ G F F h   h D : o qXlXlXlXlXlXlXlXlX",
"lXlXlX+X  I n.0.V V V X < ].XXXX'   < C 3 =  ..XkXlXlXlXlXlXlX",
"lXlXlX+X  , D R s E y + 0 xXlXlX.X  = u u u   % gXlXlXlXlXlXlX",
"lXlXlX+X  z 6.q.q.0.! @ &  .:.:._   = u C C . % gXlXlXlXlXlXlX",
"lXlXlX+XX c 9.w.w.9.7.@ O w u u =   = u L D # 9 gXlXlXlXlXlXlX",
"lXlXlXfXwX .: B e.3.J X + p t s 4   c q.1 : @XqXzXlXlXlXlXlXlX",
"lXlXlXlXlX.X& N 7.K A @ + W W o.r   z 7.x 9 rXlXlXlXlXlXlXlXlX",
"lXlXlXlXlXxXgX{ @ . .   3 <X3X&X[   . @ .XdXzXlXlXlXlXlXlXlXlX",
"lXlXlXlXlXfXrX) + + O + 3 OX&XT.`   % q wXlXlXlXlXlXlXlXlXlXlX",
"lXlXlXlXlX Xo e s r w w w & o o     }.kXlXlXlXlXlXlXlXlXlXlXlX",
"lXlXlXlXlX}.  e E p r r w       9 ) +XlXlXlXlXlXlXlXlXlXlXlXlX",
"lXlXlXlXlX}.  e W E E r 5       } lXlXlXlXlXlXlXlXlXlXlXlXlXlX",
"lXlXlXlXlXwX| T e 4 4 - q  .| | +XlXlXlXlXlXlXlXlXlXlXlXlXlXlX",
"lXlXlXlXlXlXlX}         0 kXlXlXlXlXlXlXlXlXlXlXlXlXlXlXlXlXlX"
};
