/* XPM */
static char *left_2__[] = {
/* columns rows colors chars-per-pixel */
"36 40 232 2 ",
"   c #010101",
".  c #010B03",
"X  c #0B0A0C",
"o  c #080707",
"O  c #120B06",
"+  c #190E0B",
"@  c #061F06",
"#  c #041507",
"$  c #1A140B",
"%  c #111213",
"&  c #19191A",
"*  c #0E0F12",
"=  c #25170D",
"-  c #251410",
";  c #241A16",
":  c #321C16",
">  c #07270B",
",  c #0B3E0B",
"<  c #0A3509",
"1  c #162710",
"2  c #073311",
"3  c #093D13",
"4  c #18300F",
"5  c #2D241D",
"6  c #262512",
"7  c #3B221B",
"8  c #2E2E0F",
"9  c #1E1C21",
"0  c #201F21",
"q  c #193421",
"w  c #002335",
"e  c #212122",
"r  c #2D2D2D",
"t  c #3A342A",
"y  c #383939",
"u  c #2B3528",
"i  c #472819",
"p  c #4F311C",
"a  c #6D3C1D",
"s  c #64381C",
"d  c #723F1E",
"f  c #4C2A21",
"g  c #47342A",
"h  c #4F332B",
"j  c #6F3E20",
"k  c #0C420D",
"l  c #0B480F",
"z  c #0A4315",
"x  c #0B4A14",
"c  c #134A14",
"v  c #0E5A18",
"b  c #0C5318",
"n  c #185918",
"m  c #1E450F",
"M  c #2A4014",
"N  c #304A10",
"B  c #0F631D",
"V  c #1C6518",
"C  c #226A19",
"Z  c #276219",
"A  c #29781D",
"S  c #2D5421",
"D  c #2F5A37",
"F  c #0E6C23",
"G  c #0D6622",
"H  c #176621",
"J  c #0F7125",
"K  c #0E7C29",
"L  c #107426",
"P  c #107C29",
"I  c #197526",
"U  c #2A6D27",
"Y  c #347322",
"T  c #1A5027",
"R  c #4B4A08",
"E  c #425C27",
"W  c #52472F",
"Q  c #734122",
"!  c #7B4927",
"~  c #675B22",
"^  c #4B6F28",
"/  c #646326",
"(  c #403F41",
")  c #434244",
"_  c #5A544F",
"`  c #665B50",
"'  c #4C7050",
"]  c #726657",
"[  c #75634B",
"{  c #676464",
"}  c #777977",
"|  c #6C6F73",
" . c #4A4A6A",
".. c #97701B",
"X. c #86562B",
"o. c #875E3E",
"O. c #896734",
"+. c #946734",
"@. c #9C7833",
"#. c #A47B3F",
"$. c #875D17",
"%. c #835F43",
"&. c #956B48",
"*. c #987452",
"=. c #837153",
"-. c #A37A42",
";. c #A17641",
":. c #A37A53",
">. c #1B8528",
",. c #1C8332",
"<. c #2F8320",
"1. c #278C29",
"2. c #328821",
"3. c #2D9429",
"4. c #399B28",
"5. c #258739",
"6. c #3EA229",
"7. c #408418",
"8. c #73BD1E",
"9. c #52882C",
"0. c #669432",
"q. c #739035",
"w. c #41A529",
"e. c #43A82A",
"r. c #4CA838",
"t. c #36924A",
"y. c #348D48",
"u. c #538D5D",
"i. c #789072",
"p. c #A48316",
"a. c #B79639",
"s. c #A68135",
"d. c #87AF2F",
"f. c #B5B034",
"g. c #91AD21",
"h. c #C7B30D",
"j. c #D2BE1E",
"k. c #C5AF15",
"l. c #C7AC25",
"z. c #CAB226",
"x. c #D1BB23",
"c. c #D1AE39",
"v. c #96C713",
"b. c #D2C613",
"n. c #E4D714",
"m. c #ECE50B",
"M. c #F0E909",
"N. c #FEFD01",
"B. c #F7F403",
"V. c #F6EC19",
"C. c #D9CC2A",
"Z. c #E7CB2D",
"A. c #EAC73E",
"S. c #E0EB1A",
"D. c #B58945",
"F. c #AC8957",
"G. c #B88F50",
"H. c #9D8972",
"J. c #939D6E",
"K. c #B99369",
"L. c #B19373",
"P. c #9FA578",
"I. c #A3A47C",
"U. c #87895B",
"Y. c #C6974A",
"T. c #C08D43",
"R. c #C8A645",
"E. c #D3A649",
"W. c #DEAB53",
"Q. c #D2B949",
"!. c #E2B34D",
"~. c #C19C74",
"^. c #CEAC7B",
"/. c #E0B161",
"(. c #E7D44F",
"). c #FAED57",
"_. c #E3CA71",
"`. c #2F509B",
"'. c #32529A",
"]. c #7C90BF",
"[. c #1FB1E3",
"{. c #6FA5C7",
"}. c #48C5EA",
"|. c #8A8A8A",
" X c #858586",
".X c #939493",
"XX c #9C9C9B",
"oX c #908B8B",
"OX c #A79890",
"+X c #8EA68E",
"@X c #B3A693",
"#X c #9EA4A0",
"$X c #A9A9A9",
"%X c #B8B9B9",
"&X c #AEB0AF",
"*X c #C8AA82",
"=X c #D0AE85",
"-X c #D4B38B",
";X c #D4B689",
":X c #DCBC94",
">X c #C7B9A8",
",X c #B5C5B5",
"<X c #DFC097",
"1X c #E3C69C",
"2X c #DECFBB",
"3X c #E7CEA6",
"4X c #E0D2B3",
"5X c #F6DBB2",
"6X c #E7D3AA",
"7X c #FEE5BC",
"8X c #FFE8BF",
"9X c #FAE0B6",
"0X c #C6C6C6",
"qX c #CCCCCC",
"wX c #C8D9CA",
"eX c #D6D6D6",
"rX c #DBD9D7",
"tX c #D0C9C8",
"yX c #E7DED4",
"uX c #DAE6DC",
"iX c #C8E1CA",
"pX c #FFEAC2",
"aX c #FFEDCF",
"sX c #EAE9DC",
"dX c #ECECEC",
"fX c #E4E7E5",
"gX c #F2ECE4",
"hX c #FAF5E9",
"jX c #F5F5F5",
"kX c #489848",
"lX c #F2FAF4",
"zX c #EFEFF0",
/* pixels */
"kXkXkXkXkXkXkX4X#.O.d E P v k <.w.w.6.>.,.uXkXkXkXkXkXkXkXkXkXkXkXkXkXkX",
"kXkXkXkXgXgXgX3Xa.+.! E >.n k <.w.w.w.>.5.2XuXuXfXkXkXkXkXkXkXkXkXkXkXkX",
"kXkXkXyXF.G./.A.B.C.;.q.6.C k <.w.w.w.6.w.r.r.5.u.lXlXkXkXkXkXkXkXkXkXkX",
"kXkXsX4Xa.R.E.c.m.x.D.q.6.C k <.w.w.w.w.w.e.4.>.t.iXiXiXuXkXkXkXkXkXkXkX",
"kXgXF.a.N.n.-.-.#.T.W.d.6.C , <.e.w.w.w.w.w.w.4.4.,.L x ' kXkXkXkXkXkXkX",
"yX4Xa.l.n.b.D.D.D.R.A.f.8.7.n A 2.4.e.e.w.w.w.w.4.1.P l ' ,XuXkXkXkXkXkX",
"-.a.B.m.s.D.W.W.W.Z.N.N.N.v.4.V k 2.e.e.w.w.e.w.6.e.4.>.B k i.jXkXkXkXkX",
"+.s.B.V.T.D.D.Y.Y.C.N.M.n.d.6.V k 2.e.2.<.<.2.w.6.e.3.>.J b ' ,XiXkXkXkX",
"a $.B.M.!.T.d X.-.l.N.x.;.0.6.Z k 2.w.n k k c 4.e.w.4.P K P B , ].hXhXkX",
"L.L.k.k.Y.D.&.:.K.c.b.x.l.d.0.Y C A A C C C C 1.3.3.1.P P P B , i.kXkXkX",
"kXyX! ! #.G.-X-X;XK.-.x.N.z.F.0.w.n k 4.e.e.6.>.P P P P K K B k i.kXkXkX",
"kXzX@XH.W %.-X:X3X;XK.Z.N.z.;.9.1.V B C A 2.1.P P P P P K K F v ' +XwXkX",
"kXkXkX0Xo t -X1XpX6X-X(.N.z.-.^ K >.K x k L P P L P P P P P P P B < +XkX",
"kXkXkX0Xo 5 *.*.] L.6X).N.z.-./ S Z v l k v B L P P P K K P P P B , +XkX",
"kXkXkX0Xo + d i   ] pX).N.l.;.X.d m k k , , z L P K K P P P P P n k +XkX",
"kXfX| { =.]  .| XX>X8X_.z.c.Y.X.d =.U.J.P.P.J.H v v b 2 , v B P B , D { ",
"kXeX* 5 -XOX`.].kXhX7X=X;.Y.!.+.d ~.:X5X8X8X6Xn , z <   # , v P B k >   ",
"kXeX+ r =XOX`.].kXhX7X~.X.l.V.@.Q =X5X9X9X^.F.4 # # u $X} # > v c k @   ",
"kXeX& 5 *XOX'.].kXaXpXL.s h.N.p.Q <X8X7X9XF.O.O     ( kX&X  @ , , k >   ",
"kXjX%XOXt _ OX>XaXaX5XK.a h.N.Q.L.{.}.I.F.i =   0 &XqXkXdX2X} . > k @   ",
"kXkXkX0X% g *X<X9X9XpXK.! k.N.(.:X[.[.i.O.+   . y zXkXkXkXkX$Xo > k 1 X ",
"kXkXkXjXqXXX5 ` <X<X<X=XK.#.$.b.V.E w & 6 @.a.b.C.hXkXkXkXkXdXqX|   | qX",
"kXkXkXkXkX%X% W *X~.*X*X*X&.s h.N.R     O D.Q.M.S.kXkXkXkXkXkXkX.X* .XkX",
"kXkXkXkXkXjXuX.X& u S S S 4 O s.!.p   < < $ = 6 W zXkXkXkXkXkXkXdXrXfXkX",
"kXkXkXkXkXkXfX.X. > l l l >   O.E.8 . , , .   & ) lXkXkXkXkXkXkXkXkXkXkX",
"kXkXkXkXkX%X0 q F F J J J 2   v 5.L G x , . & qXfXkXkXkXkXkXkXkXkXkXkXkX",
"kXkXkXjXrX@X8 m P P P P K 2   D t.t.y.c <   e fXkXkXkXkXkXkXkXkXkXkXkXkX",
"kXkXkXqX& R M.v.K P K P P 2   #XlXlXfXy     & fXkXkXkXkXkXkXkXkXkXkXkXkX",
"qXqXtXXXo N n.v.U A P P P 2   oXrXrXtXr   # q %XeXkXkXkXkXkXkXkXkXkXkXkX",
"X X X o   > >.Z d E K K K 2   7 h h f O . G G * y dXkXkXkXkXkXkXkXkXkXkX",
"  . + +   @ K U ~ ^ U U U 1   : f f f : $ b b > u &XqXkXkXkXkXkXkXkXkXkX",
"  O a p   > K 1.e.^ d Q Q =   : f s d d s X . F G . ) jXkXkXkXkXkXkXkXkX",
"  O a s - & b U 6.9./ / / M > 6 : %.:.&.o.+ # F F   y kXkXkXkXkXkXkXkXkX",
"  O a a f :   , e.w.e.6.6.1.K > o @XpX1X*X; . J G   y jXkXkXkXkXkXkXkXkX",
"{ ` i i f : - 4 Z A 3.3.3.H x #   ] H.=.[ %   z T { |.kXkXkXkXkXkXkXkXkX",
"kXeX% O f f f :   2 >.K ,.2                     r dXkXkXkXkXkXkXkXkXkXkX",
"kXfX X{ - - - g | ' 3 z z #           - - - -   r dXkXkXkXkXkXkXkXkXkXkX",
"kXkXkX0XX     { kX.X                o : f f i o r zXkXkXkXkXkXkXkXkXkXkX",
"kXkXkXfX|.|. X&XkXqX|.|.|.|.|.|. Xe   + - + : } #XjXkXkXkXkXkXkXkXkXkXkX",
"kXkXkXkXkXkXkXkXkXkXkXkXkXkXkXkXkX)         9 fXkXkXkXkXkXkXkXkXkXkXkXkX"
};
