/* XPM */
static char *left_3__[] = {
/* columns rows colors chars-per-pixel */
"38 40 231 2 ",
"   c #010101",
".  c #0B0504",
"X  c #020B03",
"o  c #0B0A0A",
"O  c #0D0906",
"+  c #170D09",
"@  c #041806",
"#  c #1D110D",
"$  c #12140C",
"%  c #1A1919",
"&  c #0F0F11",
"*  c #24150C",
"=  c #2A190D",
"-  c #321C16",
";  c #2C1A13",
":  c #07290B",
">  c #0A3D0A",
",  c #09310A",
"<  c #062E10",
"1  c #0D2910",
"2  c #083310",
"3  c #183E10",
"4  c #143B10",
"5  c #14290E",
"6  c #2B2416",
"7  c #382716",
"8  c #353317",
"9  c #1E2420",
"0  c #2B2A2B",
"q  c #262425",
"w  c #3A3327",
"e  c #363535",
"r  c #2D3027",
"t  c #4D2B16",
"y  c #45261D",
"u  c #49281F",
"i  c #47381C",
"p  c #58341D",
"a  c #4E3416",
"s  c #64381C",
"d  c #713E1F",
"f  c #4B2920",
"g  c #522D20",
"h  c #46352C",
"j  c #5B3420",
"k  c #463F39",
"l  c #683B21",
"z  c #723F20",
"x  c #0D420D",
"c  c #10490F",
"v  c #0C4D13",
"b  c #144A11",
"n  c #0D5516",
"m  c #0E5619",
"M  c #0C591B",
"N  c #155211",
"B  c #195B16",
"V  c #255D18",
"C  c #0F661F",
"Z  c #1C6218",
"A  c #216316",
"S  c #35781C",
"D  c #2E5230",
"F  c #0D6521",
"G  c #0F6B21",
"H  c #0F7A29",
"J  c #0F7124",
"K  c #117B29",
"L  c #167525",
"P  c #156C24",
"I  c #256829",
"U  c #3A6B2A",
"Y  c #175526",
"T  c #4B4309",
"R  c #75441D",
"E  c #7F581D",
"W  c #5B4A24",
"Q  c #425B2E",
"!  c #525323",
"~  c #4B423A",
"^  c #52483E",
"/  c #6F4426",
"(  c #744221",
")  c #7B4B27",
"_  c #436232",
"`  c #4E682B",
"'  c #003043",
"]  c #4D4D4E",
"[  c #454744",
"{  c #545354",
"}  c #575758",
"|  c #515145",
" . c #7B6755",
".. c #585C6F",
"X. c #7A7D7A",
"o. c #676666",
"O. c #5E6747",
"+. c #977119",
"@. c #88572A",
"#. c #855837",
"$. c #986933",
"%. c #A67D3F",
"&. c #A3783D",
"*. c #A07B2C",
"=. c #946844",
"-. c #9E7641",
";. c #8D654B",
":. c #A77C43",
">. c #967D61",
",. c #836C66",
"<. c #2E811F",
"1. c #19842A",
"2. c #1A8130",
"3. c #218A29",
"4. c #268525",
"5. c #338721",
"6. c #348B22",
"7. c #3D9D27",
"8. c #379727",
"9. c #2E9329",
"0. c #3EA229",
"q. c #3FA327",
"w. c #58A31E",
"e. c #61AB1D",
"r. c #70BA1F",
"t. c #528226",
"y. c #5A9C28",
"u. c #498D29",
"i. c #629F2D",
"p. c #41A429",
"a. c #4CA829",
"s. c #51AB30",
"d. c #6EB426",
"f. c #59AF44",
"g. c #718974",
"h. c #BDBD00",
"j. c #AC863A",
"k. c #B69435",
"l. c #B99735",
"z. c #B29136",
"x. c #B3AB21",
"c. c #C7A82F",
"v. c #A6CB0F",
"b. c #DED207",
"n. c #D9CD13",
"m. c #E9DE13",
"M. c #E7D915",
"N. c #DDEF07",
"B. c #EDE50C",
"V. c #F2EC0A",
"C. c #FCFC01",
"Z. c #F8F507",
"A. c #EEEC0E",
"S. c #E7C23C",
"D. c #F5EB2E",
"F. c #AC8346",
"G. c #B38943",
"H. c #B18C57",
"J. c #B79358",
"K. c #B09350",
"L. c #958675",
"P. c #A68C6D",
"I. c #B89466",
"U. c #AC9774",
"Y. c #B99A74",
"T. c #BDBD7D",
"R. c #B2A149",
"E. c #CE9E4C",
"W. c #C1914A",
"Q. c #D09E4D",
"!. c #CBA84C",
"~. c #D3A24E",
"^. c #DBAD4B",
"/. c #DDB344",
"(. c #D3A350",
"). c #DAA952",
"_. c #C7A951",
"`. c #E1B44A",
"'. c #C8A57A",
"]. c #3B5BA2",
"[. c #4E6399",
"{. c #455486",
"}. c #00B5FB",
"|. c #39B4CD",
" X c #62B7C2",
".X c #3EC5F0",
"XX c #888685",
"oX c #9B9B9C",
"OX c #939190",
"+X c #93A992",
"@X c #B1A494",
"#X c #A6A6A6",
"$X c #BCBCBC",
"%X c #B4B3B4",
"&X c #A9B4AD",
"*X c #C7AA86",
"=X c #D4B38B",
"-X c #D7B68C",
";X c #DCBC93",
":X c #D6BA95",
">X c #CDB694",
",X c #B2C3B2",
"<X c #B5D9B5",
"1X c #C8C396",
"2X c #CCD09E",
"3X c #E1C299",
"4X c #C0C0A9",
"5X c #F7DCB3",
"6X c #F1D8AD",
"7X c #C7E4BF",
"8X c #FDE4BB",
"9X c #FCE3B7",
"0X c #FFFFAB",
"qX c #C5C5C5",
"wX c #D1D5D0",
"eX c #EADDCD",
"rX c #FEEAC2",
"tX c #FDE9C9",
"yX c #E8E0DA",
"uX c #D8DEEC",
"iX c #E4E4E5",
"pX c #EBECEC",
"aX c #E7EDE7",
"sX c #F1EAE0",
"dX c #ECF4EA",
"fX c #F7F3EE",
"gX c #F2F2F2",
"hX c #F9F6F2",
"jX c #489848",
"kX c #F8F8F6",
"lX c #DAE1EF",
/* pixels */
"jXjXjXjXjXjXjXjXjXkXI.&.) ( u.p.N x 6.p.p.p.p.p.p.p.7XjXjXjXjXjXjXjXjXjXjXjX",
"jXjXjXjXjXjXjXjXhXsXJ.:.@.E w.a.A N 5.7.p.p.p.p.p.p.<XdXdXdXaXaXkXjXjXjXjXjX",
"jXjXjXjXjXjXjXkXY.J.(.^.m.V.V.N.e.6.A N 6.p.p.p.p.p.s.f.f.f.U D ,XjXjXjXjXjX",
"jXjXjXjXjXjXfXsXJ.j.Q.).B.Z.Z.Z.r.a.A c 5.7.p.p.p.p.p.p.q.q.Z v +XaXkXjXjXjX",
"jXjXjXjXjXhXY.J.M.B.l.F.j.z./.`.!.!.i.8.Z N 6.p.p.p.p.p.q.q.3.J I D ,XkXjXjX",
"jXjXjXjXhXsXJ.z.B.Z.k.:.:.F.E.).`./.i.0.B x 6.p.p.p.p.p.p.p.3.H n x &XkXjXjX",
"jXjXjXhXY.K.m.B.l.k.~.~.).(.G.F.M.V.d.0.B x 6.p.p.p.p.p.p.p.1.1.m x &XjXjXjX",
"jXjXjXfXH.j.V.C.k.:.E.~.).).z.j.m.Z.r.0.B x 6.p.7.7.7.q.p.p.1.H M c +XdXkXjX",
"jXjXjXfXH.j.V.Z.`.Q.$.@.&.G.M.B.c.z.i.0.B x 6.p.A N N N 5.p.3.K H J I D ,XjX",
"jXjXjXfXH.%.V.Z./.Q.@.( -.G.m.Z.k.-.i.p.Z c 5.0.Z c c x <.p.3.K K K n > +XdX",
"jXjXjXfXH.%.c./.$.#.I.'.'.'.G.k.j.-.n.N.e.6.A N <.8.8.8.3.1.K K K K m x r 0 ",
"jXjXjXfXI.H.).Q.) z '.-X-X-XH.%.&.F.B.C.r.q.B x 5.q.p.7.1.H K K K K n x @   ",
"jXjXjXjXsXeX=.) * * Y.:X6X5X=X'.F.-.m.C.w.K J G Z N L 1.L K K K K K m x @   ",
"jXjXjXjXjXgX;.z O . P.=X6X6X3X=XK.j.B.Z.w.K K H n x C K K K K K K K m x @   ",
"jXjXjXjXjXkXyXwXq . / #.h e >X9XD.B.c.z.R.R.U v C G M b C K K K K K m 4 @   ",
"jXjXjXjXjXjXkXiX0 O l l + & >X8XD.C.l.-.~.~.! c L 2.B b C H H H K K m > : o ",
"jXjXjXjXjXgX} e >.P...{.%XqX8X8X_.l.!.E.$.@.P.Y.1X2X2X1X` v n v G 1.2 X g.qX",
"jXjXjXjXjXpXq O Y.>X].].lXjXtX9XJ.-.~.^.#.z I.;X5X8X8X8XO.v > x C K <   oXjX",
"jXjXjXjXjXpXq o U.>X[.].lXjXtX9X=.@.n.A.+.z =X5X9X8X'.J.w X , x C K <   oXjX",
"jXjXjXjXjXpX0 & U.*X[.].uXjXtX5X=.( b.C.+.( :XrX8X9XI.&.7   : x C K <   oXjX",
"jXjXjXjXjXkXqX%X~ w L.@XeXtX8X9X=.z b.C.c.W. X.X+XJ.W * O   X X > v @   oXjX",
"jXjXjXjXjXjXjXgX0 . U.-X5X8X8X9X=.R b.C.S.).|.}.g.&.6   X X . . : x @ o oXjX",
"jXjXjXjXjXjXjXpX0   - h *X3X3X;X'.I.*.+.M.A._ ' 9 =  .P.x.h.T.$X] @ X.$XiXjX",
"jXjXjXjXjXjXjXpX0     & P.=X=X=X=X*X#.( n.C.T       >.-XD.C.0XjX}   #XjXjXjX",
"jXjXjXjXjXpXo.[ g j #X%X| w D ` Q U 6 # l.S.8   : , r w T T ,XjXwX$XiXjXjXjX",
"jXjXjXjXjXpXq   p ) yXhX0   , x > x X o j.).7   , > X       #XjXjXjXjXjXjXjX",
"jXjXjXjXjXkX$X#Xw * ~ ] Y M F G G F @   U u.%   t W +   X.%XiXjXjXjXjXjXjXjX",
"jXjXjXjXjXjXjXgX0       C 1.K K K K @   M H :   t R *   &XjXjXjXjXjXjXjXjXjX",
"jXjXjXjXjXjXjXpXq   A S v.v.6.K K K h t I K +X%X~ * 5 , D ] ] ] qXjXjXjXjXjX",
"jXjXjXjXjXjXjXpX0 X 6.s.N.C.7.L K K W R I K 7XkX[   : x .       oXjXjXjXjXjX",
"jXpXo.{ { { { ] & X 5.p.w.w.` W ! ! 7 * +X<XL.,.h - $ @     - t ^ { $XjXjXjX",
"jXiX%             . 5.p.1.H W z z R + X $XjX .y u f +       t @.=   oXjXjXjX",
"} { t t t y - ; . X L 3.9.8.u.` t.t.Z M ] } h f l l >.U.w   t ( p t ^ } $XjX",
"  . s ( ( z g y O   F K 7.p.q.a.q.0.2.H :   - f l z :XtX^   t ( R ( =   oXjX",
"  O s ( ( z f f - ; 1 < 4 x 1.3.0.0.8.9.M m % # P.*X .| %   - j l z =   oXjX",
"  O s ( ( z g f f y O       C 1.8.p.p.p.1.K :   @XrX~       - f l R =   oXjX",
"oXOXw = g p f f f y . o XXoXD : 4 3 3 3 2 < X   h O.XXoXe   - f g p *   oXjX",
"jXpX%   y u f f f f . o wXkXe                       %XjX{   - f f f +   oXjX",
"jXkX#XOX- # # # # % XXoXpXjX&XoXoXoXoXoXoXoXoXoXoXoXiXjX$XoXk # * # o.oXwXjX",
"jXjXjXpXq         & wXjXjXjXjXjXjXjXjXjXjXjXjXjXjXjXjXjXjXjX}       #XjXjXjX"
};
