/* XPM */
static char *right_3__[] = {
/* columns rows colors chars-per-pixel */
"36 40 232 2 ",
"   c #010101",
".  c #010B03",
"X  c #0B0A0C",
"o  c #080707",
"O  c #120B06",
"+  c #190E0B",
"@  c #061F06",
"#  c #041507",
"$  c #1A140B",
"%  c #111213",
"&  c #19191A",
"*  c #0E0F12",
"=  c #25170D",
"-  c #251410",
";  c #241A16",
":  c #321C16",
">  c #07270B",
",  c #0B3E0B",
"<  c #0A3509",
"1  c #162710",
"2  c #073311",
"3  c #093D13",
"4  c #18300F",
"5  c #2D241D",
"6  c #262512",
"7  c #3B221B",
"8  c #2E2E0F",
"9  c #1E1C21",
"0  c #201F21",
"q  c #193421",
"w  c #002335",
"e  c #212122",
"r  c #2D2D2D",
"t  c #3A342A",
"y  c #383939",
"u  c #2B3528",
"i  c #472819",
"p  c #4F311C",
"a  c #6D3C1D",
"s  c #64381C",
"d  c #723F1E",
"f  c #4C2A21",
"g  c #47342A",
"h  c #4F332B",
"j  c #6F3E20",
"k  c #0C420D",
"l  c #0B480F",
"z  c #0A4315",
"x  c #0B4A14",
"c  c #134A14",
"v  c #0E5A18",
"b  c #0C5318",
"n  c #185918",
"m  c #1E450F",
"M  c #2A4014",
"N  c #304A10",
"B  c #0F631D",
"V  c #1C6518",
"C  c #226A19",
"Z  c #276219",
"A  c #29781D",
"S  c #2D5421",
"D  c #2F5A37",
"F  c #0E6C23",
"G  c #0D6622",
"H  c #176621",
"J  c #0F7125",
"K  c #0E7C29",
"L  c #107426",
"P  c #107C29",
"I  c #197526",
"U  c #2A6D27",
"Y  c #347322",
"T  c #1A5027",
"R  c #4B4A08",
"E  c #425C27",
"W  c #52472F",
"Q  c #734122",
"!  c #7B4927",
"~  c #675B22",
"^  c #4B6F28",
"/  c #646326",
"(  c #403F41",
")  c #434244",
"_  c #5A544F",
"`  c #665B50",
"'  c #4C7050",
"]  c #726657",
"[  c #75634B",
"{  c #676464",
"}  c #777977",
"|  c #6C6F73",
" . c #4A4A6A",
".. c #97701B",
"X. c #86562B",
"o. c #875E3E",
"O. c #896734",
"+. c #946734",
"@. c #9C7833",
"#. c #A47B3F",
"$. c #875D17",
"%. c #835F43",
"&. c #956B48",
"*. c #987452",
"=. c #837153",
"-. c #A37A42",
";. c #A17641",
":. c #A37A53",
">. c #1B8528",
",. c #1C8332",
"<. c #2F8320",
"1. c #278C29",
"2. c #328821",
"3. c #2D9429",
"4. c #399B28",
"5. c #258739",
"6. c #3EA229",
"7. c #408418",
"8. c #73BD1E",
"9. c #52882C",
"0. c #669432",
"q. c #739035",
"w. c #41A529",
"e. c #43A82A",
"r. c #4CA838",
"t. c #36924A",
"y. c #348D48",
"u. c #538D5D",
"i. c #789072",
"p. c #A48316",
"a. c #B79639",
"s. c #A68135",
"d. c #87AF2F",
"f. c #B5B034",
"g. c #91AD21",
"h. c #C7B30D",
"j. c #D2BE1E",
"k. c #C5AF15",
"l. c #C7AC25",
"z. c #CAB226",
"x. c #D1BB23",
"c. c #D1AE39",
"v. c #96C713",
"b. c #D2C613",
"n. c #E4D714",
"m. c #ECE50B",
"M. c #F0E909",
"N. c #FEFD01",
"B. c #F7F403",
"V. c #F6EC19",
"C. c #D9CC2A",
"Z. c #E7CB2D",
"A. c #EAC73E",
"S. c #E0EB1A",
"D. c #B58945",
"F. c #AC8957",
"G. c #B88F50",
"H. c #9D8972",
"J. c #939D6E",
"K. c #B99369",
"L. c #B19373",
"P. c #9FA578",
"I. c #A3A47C",
"U. c #87895B",
"Y. c #C6974A",
"T. c #C08D43",
"R. c #C8A645",
"E. c #D3A649",
"W. c #DEAB53",
"Q. c #D2B949",
"!. c #E2B34D",
"~. c #C19C74",
"^. c #CEAC7B",
"/. c #E0B161",
"(. c #E7D44F",
"). c #FAED57",
"_. c #E3CA71",
"`. c #2F509B",
"'. c #32529A",
"]. c #7C90BF",
"[. c #1FB1E3",
"{. c #6FA5C7",
"}. c #48C5EA",
"|. c #8A8A8A",
" X c #858586",
".X c #939493",
"XX c #9C9C9B",
"oX c #908B8B",
"OX c #A79890",
"+X c #8EA68E",
"@X c #B3A693",
"#X c #9EA4A0",
"$X c #A9A9A9",
"%X c #B8B9B9",
"&X c #AEB0AF",
"*X c #C8AA82",
"=X c #D0AE85",
"-X c #D4B38B",
";X c #D4B689",
":X c #DCBC94",
">X c #C7B9A8",
",X c #B5C5B5",
"<X c #DFC097",
"1X c #E3C69C",
"2X c #DECFBB",
"3X c #E7CEA6",
"4X c #E0D2B3",
"5X c #F6DBB2",
"6X c #E7D3AA",
"7X c #FEE5BC",
"8X c #FFE8BF",
"9X c #FAE0B6",
"0X c #C6C6C6",
"qX c #CCCCCC",
"wX c #C8D9CA",
"eX c #D6D6D6",
"rX c #DBD9D7",
"tX c #D0C9C8",
"yX c #E7DED4",
"uX c #DAE6DC",
"iX c #C8E1CA",
"pX c #FFEAC2",
"aX c #FFEDCF",
"sX c #EAE9DC",
"dX c #ECECEC",
"fX c #E4E7E5",
"gX c #F2ECE4",
"hX c #FAF5E9",
"jX c #F5F5F5",
"kX c #489848",
"lX c #F2FAF4",
"zX c #EFEFF0",
/* pixels */
"kXkXkXkXkXkXkXkXkXkXkXkXkXkXuX5.>.6.e.e.<.k v K S Q +.#.2XkXkXkXkXkXkXkX",
"kXkXkXkXkXkXkXkXkXkXkXfXuXuXiX5.>.6.e.e.<.k v >.^ ! +.a.3XgXgXgXjXkXkXkX",
"kXkXkXkXkXkXkXkXkXkXlXu.5.r.r.6.6.6.6.e.<.k C 6.q.#.j.B.A./.G.F.sXkXkXkX",
"kXkXkXkXkXkXkXuXwXiXiXt.>.6.e.6.w.w.w.e.<.l C 6.q.D.x.m.c.E.a.a.4XyXjXkX",
"kXkXkXkXkXkXkXu.c I ,.4.w.w.w.w.w.w.w.w.<.k V 6.d.W.G.-.s.s.n.N.a.F.gXkX",
"kXkXkXkXkXrX,X' b I >.4.w.w.w.w.w.w.w.2.A n 7.8.f.A.R.D.G.D.C.n.l.R.4XyX",
"kXkXkXkXlXi.k H P 4.4.w.w.w.w.w.w.w.2.l C 4.v.N.N.N.Z.W.W.!.D.#.m.B.a.-.",
"kXkXkXwX,X' b J P 4.w.w.w.2.<.<.2.w.2.k V w.g.n.M.N.Z.E.T.D.D.T.m.B.#.+.",
"kXkXkXi., B K K P 4.e.e.4.c k , n e.2.k Z 4.0.;.x.N.z.#.X.d D.!.V.B.$.a ",
"kXkXkXi.k B K K P 1.3.3.3.C C C C A A C Y 0.d.z.x.b.c.K.:.&.G.Y.k.k.K.H.",
"kXkXkXi., B P P P P P K >.4.e.e.4.k n 6.0.-.z.N.x.;.~.;X-X-XG.#.X.! yXkX",
"kXwX+Xu.v F P P P P P P P 1.1.A C v H 3.9.;.z.N.Z.K.;X1X:X-XO.W H.@XzXkX",
"kX+X< B K K P P P P P P P P J l x P K K ^ F.l.N.(.-X6XpX1X-Xt o 0XkXkXkX",
"kX+X, H P K K P P P K P J B v k c v n E / ;.z.N.).6XL.] *.*.5 o 0XkXkXkX",
"kX+X, v P P P P P P P P L l , k k k M d X.;.z.N.).pX`   i d + o tXkXkXkX",
"{ D , B P B v 3 2 x v b V J.P.P.J.U.=.d X.Y.c.z._.pX>XXX|  .] =.{ | fXkX",
"  @ k B P v , #   < k , n 6XpXpX5X:XK.Q +.!.Y.;.^.8XgXkX].`.OX=X5 % eXkX",
"  > k c b > # } $Xu # # 1 F.^.9X7X5X=XQ ..V.l.X.~.8XhXkX].'.OX=X5 % eXkX",
"  @ k k k @ X %XkX(     O O.D.5X8XpX:XQ ..N.h.a K.pXhXkX.X'.OX*X5 % eXkX",
"  @ k > . } %XfXkXqX&Xe   ; g F.I.}.{.L.Q.N.h.a K.pXpXaX>XOX_ t XX0XjXkX",
"X > k 1 X $XkXkXkXkXdXt     = +.i.[.}.=X(.B.k.j K.8X7X7X>X=Xg * qXkXkXkX",
"qX|   | qXdXkXkXkXkXlXC.b.a.@.6 & w E V.b.$.D.~.=X<X:X:X` 5 XXqXjXkXkXkX",
"kX.XX .XkXkXkXkXkXkXhXV.M.c.D.O     R N.h.s &.*X*X*X*X*XW % %XkXkXkXkXkX",
"kXdXrXzXkXkXkXkXkXkXlXW 1 = 6 < <   8 !.s.O 1 S S S 5 & XXrXjXkXkXkXkXkX",
"kXkXkXkXkXkXkXkXkXkXzX) &   . k , # u Y.O.  @ l l l > . .XfXlXkXkXkXkXkX",
"kXkXkXkXkXkXkXkXkXkXkXfXqX9   , l B L 1.n   2 P J J J F q 9 %XkXkXkXkXkX",
"kXkXkXkXkXkXkXkXkXkXkXkXfX9   < c y.t.t.D   2 P >.K K K m 8 #XrXjXkXkXkX",
"kXkXkXkXkXkXkXkXkXkXkXkXfX9     y fXlXlX#X  2 P K K K K v.B.R 9 qXkXkXkX",
"kXkXkXkXkXkXkXkXkXkXkXeX%Xq #   r tXeXrX|.  2 P P P I U v.n.N   XXqXqXqX",
"kXkXkXkXkXkXkXkXkXkXdXy X F G . X h p h 7   2 K P P E d Y I >   o o X X ",
"kXkXkXkXkXkXkXkXkXqX&Xu > b c $ : f p f :   1 U U U ^ ~ U L >   + =     ",
"kXkXkXkXkXkXkXkXlX) . G F . O s a d a f :   : d d d ^ e.1.P >   p a O   ",
"kXkXkXkXkXkXkXkXjXy   F J # O o.&.:.%.: 6 > M / / / 9.6.I b 1 + s a O   ",
"kXkXkXkXkXkXkXkXjX(   G J . & *X1XpX@Xo > K 1.6.6.6.e.e.4   : f j a O   ",
"kXkXkXkXkXkXkXkXkX|.{ T z . + [ =.H.]   # x H 3.3.3.A Z 6 $ : f i i ` { ",
"kXkXkXkXkXkXkXkXkXkXdXr                     2 ,.P K 3   : f f f X % eXkX",
"kXkXkXkXkXkXkXkXkXkXzXr   + - - -           # z z z ' | g - - : {  XfXkX",
"kXkXkXkXkXkXkXkXkXkXzXr   i f f : o                 .XkX{     X 0XkXkXkX",
"kXkXkXkXkXkXkXkXkXkXjX#X=.e - - $   e |.|.|.|.|.|.|.qXkX&X X|.|.fXkXkXkX",
"kXkXkXkXkXkXkXkXkXkXkXkXzX9         ) jXkXkXkXkXkXkXkXkXkXkXkXkXkXkXkXkX"
};
