/* XPM */
static char *right_new32[] = {
/* columns rows colors chars-per-pixel */
"26 32 200 2 ",
"   c #010101",
".  c #0A0705",
"X  c #020A03",
"o  c #0B0C09",
"O  c #130C09",
"+  c #170C0A",
"@  c #061807",
"#  c #171608",
"$  c #010E17",
"%  c #23170D",
"&  c #291712",
"*  c #2B1C11",
"=  c #221F1A",
"-  c #331C16",
";  c #0C2609",
":  c #082908",
">  c #052707",
",  c #13280D",
"<  c #0C340B",
"1  c #0C3D0C",
"2  c #093714",
"3  c #29241D",
"4  c #3C2212",
"5  c #372517",
"6  c #111B28",
"7  c #352A21",
"8  c #3C3429",
"9  c #44251C",
"0  c #472A16",
"q  c #512D18",
"w  c #463A19",
"e  c #593219",
"r  c #623A1F",
"t  c #4C2A20",
"y  c #493B2D",
"u  c #5F3520",
"i  c #483F36",
"p  c #6A3C21",
"a  c #0C430D",
"s  c #09490F",
"d  c #11470F",
"f  c #0D4B12",
"g  c #0C4D1A",
"h  c #094416",
"j  c #144E11",
"k  c #0E5315",
"l  c #0D5A1B",
"z  c #145011",
"x  c #145C1B",
"c  c #244B16",
"v  c #0E651E",
"b  c #0D681F",
"n  c #19681B",
"m  c #236B19",
"M  c #286317",
"N  c #2A7A1D",
"B  c #27781C",
"V  c #317B1F",
"C  c #095D21",
"Z  c #314C2E",
"A  c #235F22",
"S  c #2B4C2D",
"D  c #0F6C23",
"F  c #0B6321",
"G  c #0F7326",
"H  c #0F7B29",
"J  c #117324",
"K  c #117B29",
"L  c #10762C",
"P  c #2A6928",
"I  c #316926",
"U  c #2C752F",
"Y  c #4E4B15",
"T  c #7E501E",
"R  c #556317",
"E  c #736F09",
"W  c #58492A",
"Q  c #544436",
"!  c #4E4226",
"~  c #724322",
"^  c #784B28",
"/  c #655731",
"(  c #7B5633",
")  c #624C31",
"_  c #586E25",
"`  c #1D3F45",
"'  c #323940",
"]  c #264753",
"[  c #5A4E4C",
"{  c #625743",
"}  c #755E58",
"|  c #5D7443",
" . c #72624F",
".. c #697647",
"X. c #7E6B54",
"o. c #956F18",
"O. c #89582B",
"+. c #896234",
"@. c #986D3A",
"#. c #93773D",
"$. c #A87F2C",
"%. c #976B4A",
"&. c #9C7150",
"*. c #A57B43",
"=. c #A17743",
"-. c #80786A",
";. c #2F821F",
":. c #3E881D",
">. c #1B8629",
",. c #1B8429",
"<. c #288B27",
"1. c #318520",
"2. c #348C22",
"3. c #2B9229",
"4. c #3A9625",
"5. c #3C9C27",
"6. c #329629",
"7. c #369B29",
"8. c #3DA129",
"9. c #4A8918",
"0. c #7DB816",
"q. c #4A9325",
"w. c #7C8F36",
"e. c #41A429",
"r. c #43AA2B",
"t. c #6EB22B",
"y. c #4D8D52",
"u. c #698050",
"i. c #728354",
"p. c #66986D",
"a. c #AD900F",
"s. c #AF9019",
"d. c #BBA80F",
"f. c #A8813E",
"g. c #B99837",
"h. c #BFA02F",
"j. c #B3A82B",
"k. c #BEA130",
"l. c #CDBA13",
"z. c #CCB328",
"x. c #D2BB22",
"c. c #DAB937",
"v. c #ABD114",
"b. c #D8C719",
"n. c #CBCF0C",
"m. c #E8DB12",
"M. c #CAE112",
"N. c #EAE507",
"B. c #F4EC09",
"V. c #F0E70A",
"C. c #F9F607",
"Z. c #F6E818",
"A. c #DCC525",
"S. c #EDD823",
"D. c #E6C831",
"F. c #FAF328",
"G. c #AE8342",
"H. c #B78C44",
"J. c #B28C5A",
"K. c #99856A",
"L. c #8E816B",
"P. c #AB906E",
"I. c #BF9A71",
"U. c #B68F66",
"Y. c #C6944A",
"T. c #D4A748",
"R. c #DAB242",
"E. c #D3A052",
"W. c #E3BB44",
"Q. c #C39E67",
"!. c #C7A87C",
"~. c #C4A264",
"^. c #E7D542",
"/. c #4B6198",
"(. c #7A7987",
"). c #2D91AC",
"_. c #4AABB2",
"`. c #8D9183",
"'. c #A59C9D",
"]. c #BBA88B",
"[. c #97B8A4",
"{. c #CAAB88",
"}. c #D9B98C",
"|. c #DABB94",
" X c #D2AE87",
".X c #E0BF95",
"XX c #C2BDBE",
"oX c #DFC097",
"OX c #E0C39B",
"+X c #E7CAA1",
"@X c #EED4A9",
"#X c #F6DEB4",
"$X c #FCE3BA",
"%X c #F8E0B6",
"&X c #9AABD1",
"*X c #A4CCC3",
"=X c #E2DED7",
"-X c #FFF3DB",
";X c #FFFDF3",
":X c #489848",
/* pixels */
":X:X:X:X:X:X:X:X:X:X:XK 6.e.5.z v P ~ @.@.:X:X:X:X:X",
":X:X:X:X:X:X:X:X:X<.8.3.7.e.5.z n q.d.b.c.E.G.:X:X:X",
":X:X:X:X:X:X:X:XK 3.e.e.e.e.5.z N t.C.B.S.R.g.:X:X:X",
":X:X:X:X:X:Xf K 6.e.e.e.e.e.5.z N t.T.H.x.C.C.h.=.:X",
":X:X:X:Xa l n 3.5.r.e.e.r.2.m N 0.M.S.R.c.D.z.b.x.*.",
":X:X:X:Xf v >.e.e.5.1.4.5.;.d 4.v.B.C.c.Y.H.G.m.b.@.",
":X:X:Xa D H >.8.e.N d d 1.1.j 4.w.k.C.g.+.O.E.Z.l.~ ",
":X:X:Xa G H ,.>.>.<.2.1.m m 4.v.j.*.g.~.!.U.H.$.o.:X",
":X:Xf l G K H H H >.7.2.n n e.n.x.g.J.|.oX!.( ~ :X:X",
":Xa f K K H K H K K J a v K B #.b.F.}.@X+XP.o :X:X:X",
":X1 k K H H K H K D f a s c ) @.b.F.#X{ W ^ . :X:X:X",
":X< k K D l g g C U u...../ ~ *.z.^.=XX.[ [ Q 3 :X:X",
"  : k J a @     : i.%X$X+XU.^ c.H.U.$X;X&X/.{.8   :X",
"  : d a @ X :X:XX ! ~.%X$X!.T m.s.=.$X;X&X/.{.y   :X",
"  : 1 > X :X:X:X  * / !.*X[.f.B.a.%.$X-XXX(. .7 :X:X",
"  > :   :X:X:X:X# # * +.)._.W.V.s.&.#X$XOXK.o :X:X:X",
":XX X :X:X:X:X:XN.A.G.% $ R V.o.&. X|.oXX.# :X:X:X:X",
":X:X:X:X:X:X:X:XE E W ; X Y A.q W u...{ y :X:X:X:X:X",
":X:X:X:X:X:X:X:XX   X h > w G., > a s > X :X:X:X:X:X",
":X:X:X:X:X:X:X:X:X:X@ D G g O < a f J J 2   :X:X:X:X",
":X:X:X:X:X:X:X:X:X6 ` G K A 0 l p._.2 D F 2 X :X:X:X",
":X:X:X:X:X:X:X:X8 ' ] P L I ~ y.].].o C 3.1.X :X:X:X",
":X:X:X:X:X:X:Xo {.-.o r P I O.=X`.9   C v.n.. :X:X:X",
":X:X:X:X:X:X:X:Xi Z x q._ w & } p t t , k 9.X   :X:X",
":X:X:X:X:X:X:X:X  2 ,.8._ Y , * 9 r ~ Q S h O .   :X",
":X:X:X:X:X:X:X    2 K 5.8.r.4.@ 0 ~ ^ |.-.. 9 O   :X",
":X:X:X:X:X:X:X  9 5 @ , V r.8.d # y |.[ 7 - O :X:X:X",
":X:X:X:X:X:X:X. e q + + c M M < X 3 K.= + & . :X:X:X",
":X:X:X:X:X:X:X. q u 0 t +                   :X:X:X:X",
":X:X:X:X:X:X:X:XO 4 p t t &   :X:X:X:X:X:X:X:X:X:X:X",
":X:X:X:X:X:X:X:X:X% 4 & & + :X:X:X:X:X:X:X:X:X:X:X:X",
":X:X:X:X:X:X:X:X:X:X        :X:X:X:X:X:X:X:X:X:X:X:X"
};
