/* XPM */
static char *up_2__[] = {
/* columns rows colors chars-per-pixel */
"33 40 207 2 ",
"   c #000201",
".  c #020D04",
"X  c #070707",
"o  c #160D07",
"O  c #051505",
"+  c #041C08",
"@  c #171407",
"#  c #181718",
"$  c #0B1216",
"%  c #23150D",
"&  c #23180C",
"*  c #331C14",
"=  c #251813",
"-  c #062509",
";  c #082D0B",
":  c #06270B",
">  c #0A340B",
",  c #0B3D0B",
"<  c #063C09",
"1  c #093B13",
"2  c #073C14",
"3  c #143517",
"4  c #183D09",
"5  c #373700",
"6  c #3B2110",
"7  c #362918",
"8  c #111E28",
"9  c #28272A",
"0  c #333233",
"q  c #393838",
"w  c #373738",
"e  c #30312D",
"r  c #472916",
"t  c #523819",
"y  c #6C3B1C",
"u  c #743E1C",
"i  c #4B352D",
"p  c #6B3D22",
"a  c #0C410C",
"s  c #0E4D12",
"d  c #0B4413",
"f  c #134D10",
"g  c #154514",
"h  c #0E5315",
"j  c #0B521A",
"k  c #0C5C1B",
"l  c #164D0F",
"z  c #24550C",
"x  c #254816",
"c  c #205712",
"v  c #394D0F",
"b  c #0D631E",
"n  c #0F681F",
"m  c #1B6218",
"M  c #27731B",
"N  c #2D7E1E",
"B  c #2D6D15",
"V  c #155524",
"C  c #0D4C2F",
"Z  c #2C5130",
"A  c #0C6421",
"S  c #0E6B23",
"D  c #0F7928",
"F  c #0D7526",
"G  c #117425",
"H  c #107B29",
"J  c #177A27",
"K  c #196824",
"L  c #207321",
"P  c #51471B",
"I  c #70401F",
"U  c #546E07",
"Y  c #7C7E01",
"T  c #4E5623",
"R  c #57552C",
"E  c #754322",
"W  c #784927",
"Q  c #775829",
"!  c #675133",
"~  c #6E5129",
"^  c #586526",
"/  c #697D33",
"(  c #75672D",
")  c #1F354C",
"_  c #3D4B5E",
"`  c #2F4F6F",
"'  c #086D62",
"]  c #544B48",
"[  c #59595A",
"{  c #555453",
"}  c #4B4E4E",
"|  c #496E5A",
" . c #737D52",
".. c #5F6061",
"X. c #7F7F62",
"o. c #7D7D7C",
"O. c #757473",
"+. c #676667",
"@. c #89592C",
"#. c #815438",
"$. c #946939",
"%. c #9D763C",
"&. c #906430",
"*. c #A4763A",
"=. c #946846",
"-. c #A47A42",
";. c #A37A45",
":. c #2E811F",
">. c #198329",
",. c #248A28",
"<. c #338722",
"1. c #2C9329",
"2. c #3A9425",
"3. c #3B9B27",
"4. c #319729",
"5. c #369B29",
"6. c #3A9D29",
"7. c #3DA129",
"8. c #5F921E",
"9. c #61A71A",
"0. c #4D8D27",
"q. c #429A21",
"w. c #41A529",
"e. c #57B025",
"r. c #2C8C42",
"t. c #768150",
"y. c #539264",
"u. c #738C77",
"i. c #818005",
"p. c #A58216",
"a. c #9ABC0D",
"s. c #92B918",
"d. c #B89833",
"f. c #B69533",
"g. c #AEB935",
"h. c #C6AB2D",
"j. c #CFBD24",
"k. c #E4BA3F",
"l. c #B7CF09",
"z. c #BDE00E",
"x. c #94C915",
"c. c #C8C707",
"v. c #D2D801",
"b. c #D2D007",
"n. c #E9E906",
"m. c #FEFB02",
"M. c #F0ED10",
"N. c #E6C434",
"B. c #AB8244",
"V. c #B08D5C",
"C. c #B8935D",
"Z. c #A6A642",
"A. c #869465",
"S. c #A5846C",
"D. c #BC996D",
"F. c #AC8B72",
"G. c #BA9B76",
"H. c #97A770",
"J. c #C8984B",
"K. c #D0AA4D",
"L. c #E1AF53",
"P. c #C4A06E",
"I. c #A5EA5E",
"U. c #047D84",
"Y. c #397E8F",
"T. c #7F7F80",
"R. c #748191",
"E. c #76AF83",
"W. c #00BEFF",
"Q. c #808081",
"!. c #8B8B8C",
"~. c #9A9B9A",
"^. c #839C81",
"/. c #B89F8F",
"(. c #BBA393",
"). c #AAABAB",
"_. c #A5A5A3",
"`. c #B4AEAA",
"'. c #BBBBBC",
"]. c #CDAC86",
"[. c #DBBD99",
"{. c #D5B58C",
"}. c #CEBCB0",
"|. c #D3BFA2",
" X c #E2C296",
".X c #DFD0BA",
"XX c #D8C8B7",
"oX c #F8DEB4",
"OX c #E0CFB3",
"+X c #FEE5BC",
"@X c #C6C6C6",
"#X c #C9C9C9",
"$X c #D3D3D3",
"%X c #DFDFDF",
"&X c #D9D2D0",
"*X c #E0D4CA",
"=X c #E4DAD4",
"-X c #FFE8C0",
";X c #EEE6DB",
":X c #D3DAE2",
">X c #EFEAE6",
",X c #EDEDED",
"<X c #E3E3E3",
"1X c #F6F2EC",
"2X c #489848",
"3X c #F5F4F3",
"4X c #EBEEE4",
/* pixels */
"2X2X2X2X2X2X2X2X2X2X2X2X@XX 7 -.-.-.-.*.W #.>X2X2X2X2X2X2X2X2X2X2X",
"2X2X2X2X2X2X2X2X2X2X3X$X_.7 R d.d.d.f.f.&.=.*X;X2X2X2X2X2X2X2X2X2X",
"2X2X2X2X2X2X2X2X2X2X%X9 7 J.N.m.m.m.m.m.k.K.B.D.3X2X2X2X2X2X2X2X2X",
"2X2X2X2X2X2X2X2X3X'.~.x v Z.g.z.z.z.z.z.g.d.g.K.OX.X}.=X2X2X2X2X2X",
"2X2X2X2X2X2X2X2X3X_ O 2.w.w.w.w.w.w.w.w.w.e.n.M.*.$.y /.2X2X2X2X2X",
"2X2X2X2X2X2X2X).=.Z l M M M M M M M M M M :.x.s.^ ( *.G.|.;X2X2X2X",
"2X2X2X2X2X2X2X[   <.3.f a a a , 1 , a , , f 2.2.a ^ L.J.*..X2X2X2X",
"2X2X2X2X2X).[ Z j m m N <.<.N <.<.N <.N <.N m m b 8.M.h.;..X2X2X2X",
"2X2X2X2X2XT.  j H s f 3.w.w.w.w.w.w.w.w.w.3.f s D 9.m.j.;.*X2X2X2X",
"2X2X2X2X2XT.  ; s S G 6.w.w.w.w.w.w.w.7.w.7.2.<.h c B H.=X3X2X2X2X",
"2X2X1X1X3XA.  > s S J 5.w.w.w.w.w.w.w.w.w.w.7.<.a a < H.2X1X1X3X2X",
"2X;XV.D.[. ., k G h s J >.w.w.w.w.w.w.w.w.7.>.G g a a  .[.D.C.;X2X",
"=XXXV.P. X .a n H d 1 G >.5.6.5.6.w.w.w.7.4.>.S > , a t. XP.C.XX=X",
"I =.oX+X-XA., n D + . S H H H H 1.w.w.w.>.H D A X + < A.+X+XoX=.E ",
"S.F.].{. Xt., k b O . F H H H H ,.4.4.1.>.F S h   O < t. X{.].F.S.",
"2X*XE @.-.^ a a , . . S H H H H D H D D H G s >   O < ^ *.@.E =X2X",
"2X>X(.S.&.| ' C a : - 2 d k n D H H H H H F : - + C ' | &.S./.,X2X",
"2X2X2X}.E Y.W.' a a ,   O < k >.H H H H D F X . > ' W.R.I XX2X2X2X",
"2X2X2X`.& 8.I./ t l a ; - O ; h n H D H D F . o t / I.( & ).2X2X2X",
"2X2X2X_.. &.m.*.u x l a >   O , k D D H D S . o y p.m.8.X _.2X2X2X",
"2X2X2X>X@XA.5 Q *.c.l.l > > - . > h S D k a . % =.Q 5 t.@X,X2X2X2X",
"2X2X2X2X2X!.$ ! $.b.b.U z z 4 . - , k G f ,   % $.! # !.2X2X2X2X2X",
"2X2X2X2X2X,X=X{ X @ 5 c.n.n.a.A 1   > s a , .   o [ %X,X2X2X2X2X2X",
"2X2X2X2X2X2X2Xo.e X @ l.v.b.a.q.x   - > > > + O   [ 2X2X2X2X2X2X2X",
"2X2X2X2X2X2X2X2X,X0   g 4 X U m.Y X     X O A A   [ 2X2X2X2X2X2X2X",
"2X2X2X2X2X2X2X@X_.Z : j a   v z.U : . X + 2 y.y.8 } ).$X2X2X2X2X2X",
"2X2X2X2X2X2X2X[   k D J A   : H H H : X A r.3X:X` )   T.2X2X2X2X2X",
"2X2X2X2X2X@XR.i = u.E.V 2 2 j D H H j 2 j K R.=.{ w   T.2X2X2X2X2X",
"2X2X2X2X2XT.  * i $X<X8 + F >.D H H >.H d <   o u r   o.2X2X2X2X2X",
"2X2X2X@X..R r t p T.R.$ $ T T T T T T T P P j 1 & ] ~.$X2X2X2X2X2X",
"2X2X2X_.X 6 u u ~ _ ` X o I E E I E E E E ~ J A   [ 2X2X2X2X2X2X2X",
"2X2X2X_.  6 u G.{.0 $ ; g 0.0.0.0.0.0.0.0.0.3.<.K V q ~.2X2X2X2X2X",
"2X2X2X).# 7 y G.OX7   2 m 7.w.w.7.7.5.2.2.2.2.<.D V $ !.2X2X2X2X2X",
"2X2X2X3X<XO.X o # X . S >.w.w.w.1.J 1 O O O O O X { %X,X2X2X2X2X2X",
"2X2X2X2X2X~.e 0 0 0 0 K K :.<.:.L A 3 @ = @ % @   [ 2X2X2X2X2X2X2X",
"2X2X2X2X2X3X,X3X3X3X$X#       X     ~ ;.*.-.-.Q   [ 2X2X2X2X2X2X2X",
"2X2X2X2X2X2X2X2X2X2X,X+.{ { { } { { ! ~ &.$.$.Q o ] ).&X2X2X2X2X2X",
"2X2X2X2X2X2X2X2X2X2X2X2X2X2X2X2X2X2X[   y E E y r *   R.2X2X2X2X2X",
"2X2X2X2X2X2X2X2X2X2X2X2X2X2X2X2X2X2X_.O.i 6 6 * = i O.'.2X2X2X2X2X",
"2X2X2X2X2X2X2X2X2X2X2X2X2X2X2X2X2X2X2X3Xw         [ 2X2X2X2X2X2X2X"
};
