/* XPM */
static char *up_4__[] = {
/* columns rows colors chars-per-pixel */
"31 40 217 2 ",
"   c #010101",
".  c #0B0602",
"X  c #020B02",
"o  c #0D0B02",
"O  c #08070A",
"+  c #0B0A0C",
"@  c #070709",
"#  c #140A05",
"$  c #130C0A",
"%  c #021104",
"&  c #051E06",
"*  c #061A0A",
"=  c #191B05",
"-  c #28170D",
";  c #251D16",
":  c #321D16",
">  c #072207",
",  c #072B0C",
"<  c #092B09",
"1  c #05240C",
"2  c #132B0B",
"3  c #1C210E",
"4  c #0A330A",
"5  c #0B3D0C",
"6  c #073B0C",
"7  c #17370B",
"8  c #0A2812",
"9  c #073412",
"0  c #083B14",
"q  c #173E10",
"w  c #2B250A",
"e  c #3A3A01",
"r  c #2C2713",
"t  c #362F12",
"y  c #151A22",
"u  c #182B3E",
"i  c #232425",
"p  c #2A2B2B",
"a  c #362C27",
"s  c #302F31",
"d  c #343436",
"f  c #393738",
"g  c #2E302E",
"h  c #4A2918",
"j  c #4C361B",
"k  c #5B3319",
"l  c #553319",
"z  c #6B3C1D",
"x  c #663A1D",
"c  c #713F1F",
"v  c #463F35",
"b  c #523720",
"n  c #633922",
"m  c #0C430D",
"M  c #0B4414",
"N  c #0D4D12",
"B  c #0A4B19",
"V  c #134D11",
"C  c #1B4B13",
"Z  c #0E5315",
"A  c #0D5C1C",
"S  c #0C551B",
"D  c #1C5F15",
"F  c #165516",
"G  c #3A481A",
"H  c #235319",
"J  c #284510",
"K  c #0E611D",
"L  c #17651B",
"P  c #236B19",
"I  c #0E572E",
"U  c #255521",
"Y  c #345926",
"T  c #354D35",
"R  c #0D6421",
"E  c #0F6C22",
"W  c #0F7326",
"Q  c #0F7A29",
"!  c #0F7628",
"~  c #127425",
"^  c #107B29",
"/  c #157523",
"(  c #227228",
")  c #2F7C2E",
"_  c #326D2A",
"`  c #4C4C0D",
"'  c #72441F",
"]  c #7D7C0B",
"[  c #4B5B25",
"{  c #534A30",
"}  c #6E4320",
"|  c #7C4B2B",
" . c #794823",
".. c #675822",
"X. c #7C5A35",
"o. c #6D4B33",
"O. c #5D6B24",
"+. c #517D2E",
"@. c #7B7837",
"#. c #626F3E",
"$. c #527909",
"%. c #3F4043",
"&. c #3B5A7A",
"*. c #474749",
"=. c #585859",
"-. c #575555",
";. c #524D4D",
":. c #71724E",
">. c #656465",
",. c #6A6A6A",
"<. c #787875",
"1. c #876F12",
"2. c #87582E",
"3. c #87572C",
"4. c #8F6B39",
"5. c #886434",
"6. c #936939",
"7. c #9E733D",
"8. c #99743D",
"9. c #8A6528",
"0. c #A1763D",
"q. c #8C6244",
"w. c #916A4E",
"e. c #A47B42",
"r. c #A07753",
"t. c #8A786A",
"y. c #16812B",
"u. c #198229",
"i. c #1F8829",
"p. c #248425",
"a. c #258C29",
"s. c #368A23",
"d. c #328721",
"f. c #3A9A27",
"g. c #319629",
"h. c #339929",
"j. c #359828",
"k. c #2E9429",
"l. c #3EA229",
"z. c #518F2E",
"x. c #6D9E2F",
"c. c #41A429",
"v. c #7DA938",
"b. c #7B8D5D",
"n. c #498677",
"m. c #888802",
"M. c #8B801C",
"N. c #A58416",
"B. c #91A807",
"V. c #ABB302",
"C. c #B49235",
"Z. c #B89E29",
"A. c #85BE23",
"S. c #C2A72B",
"D. c #CAB620",
"F. c #89C71A",
"G. c #86C31C",
"H. c #B3C909",
"J. c #D6D60A",
"K. c #FFFF00",
"L. c #F7F704",
"P. c #F6E718",
"I. c #BC9749",
"U. c #AC8A58",
"Y. c #8F8379",
"T. c #B28D6A",
"R. c #BA9767",
"E. c #B19275",
"W. c #ACA276",
"Q. c #E0AE52",
"!. c #C29E72",
"~. c #C7A576",
"^. c #397C86",
"/. c #7F7F80",
"(. c #37AD9D",
"). c #0B90B0",
"_. c #42B2A8",
"`. c #009FCE",
"'. c #3DC8C0",
"]. c #878888",
"[. c #969996",
"{. c #918D82",
"}. c #A29996",
"|. c #B09585",
" X c #BBA08A",
".X c #BEA696",
"XX c #A9AAA9",
"oX c #BEBEBE",
"OX c #B6B6B6",
"+X c #CFB897",
"@X c #D0B287",
"#X c #D2BDA3",
"$X c #C7B2A2",
"%X c #94C39F",
"&X c #E3C49B",
"*X c #D4C6BD",
"=X c #D2C2B6",
"-X c #EFD6AD",
";X c #FEE4BB",
":X c #FFE8BE",
">X c #C4C4C4",
",X c #CECECE",
"<X c #D7D7D8",
"1X c #CED5C5",
"2X c #E6D9C6",
"3X c #E6DDD7",
"4X c #489848",
"5X c #EDE5D9",
"6X c #DCE0E7",
"7X c #E4E4E4",
"8X c #ECECEC",
"9X c #EDE9E4",
"0X c #F4F4F4",
"qX c #F8F6F2",
"wX c #489848",
"eX c #F9F8F5",
"rX c #F5F1EF",
/* pixels */
"wXwXwXwXwXwXwXwXwXwX%.$ 4.e.e.e.e.c t.wXwXwXwXwXwXwXwXwXwXwXwX",
"wXwXwXwXwXwXwXwX<XXX{ j Z.S.S.S.Z.N.I.4X2X2XqXwXwXwXwXwXwXwXwX",
"wXwXwXwXwXwXwXwX].  X.C.L.K.K.K.K.K.P.Q.I.e.5XwXwXwXwXwXwXwXwX",
"wXwXwXwXwXwX<X>.T M z.x.G.F.F.F.F.F.A.v.z.+.W.=XwXwXwXwXwXwXwX",
"wXwXwXwXwXwX>X  0 u.g.f.f.f.f.f.f.f.f.f.p.~ @.U.9XqXwXwXwXwXwX",
"wXwXwXwXwXwX>XO C f.L V V V V V V V V V V N C G X..XwXwXwXwXwX",
"wXwXwXwXwX$X].* C d.P D D D L D D D D D V m N H  . XwXwXwXwXwX",
"wXwXwXwX0Xd X m m m d.c.c.c.c.l.c.c.l.c.P m E ) 7.+XwXwXwXwXwX",
"wXwXwXwX8Xg X 5 Z L g.c.c.c.c.c.c.c.c.c.( K A F [ :.E.3XwXwXwX",
"wXeX0XeX9Xg % M A ^ g.l.c.c.c.c.c.c.c.c.k.^ Z m 5 G  .=XqXwXwX",
"wX2XU.@X+XY m W K N / i.l.c.c.c.c.c.l.c.a.^ ~ E m #.~.R.W.qXwX",
"1X#XR.@X@XY N ^ S 4 K y.h.f.c.c.c.c.l.j.i.^ R S m :.&X!.!.=X3X",
"c r.;X4X-XY N ^ M   A ^ ^ a.c.c.c.c.j.y.^ ^ * X 6 b.4X4X-X| t.",
"$X XT.!.~.Y m A ,   A ^ ^ y.a.f.c.c.j.^ S 9 1 < 5 :.~.T.T.@X#X",
"eX*X| 2.8.Y M m >   A ^ ^ ^ ^ k.l.l.g.^ 9   4 M M [ e.3.q.rXwX",
"wXrX3XT.o.).).M >   6 S ! ^ ^ y.y.y.y.y.0   4 I `.^.3.$X3XeXwX",
"wXwXwXt.b _.(.J 2 % < 6 L ~ ^ ^ ^ Q W E 9   7 T '.n.k *XwXwXwX",
"wXwXwX>.. J.J.' j 6 X X 5 A ^ ^ ^ y.K N &   k 1.L.m.  OXwXwXwX",
"wXwXwXOXt.x.] 3.M.B.J > & M ^ ^ Q Q K > ` m.9.9.x.4.].<XwXwXwX",
"wXwXwXwXrXs ; e.Z.L.$.5   , ^ ^ Q ^ A   m.L.C.X.. <.wXwXwXwXwX",
"wXwXwXwXwX,X[.r e e V.V.# & N E Q Z 6   = e w v oX6XwXwXwXwXwX",
"wXwXwXwXwXwX>X+   % B.H.2 & 4 A K N <   . #   d 0XwXwXwXwXwXwX",
"wXwXwXwXwXwX>X@ & m / i.! B   , N m <   : z # d 0XwXwXwXwXwXwX",
"wXwXwXwXwXwX>X. < K K K ^ R 0 , > < < 0 :.|.; d 0XwXwXwXwXwXwX",
"wXwXwXwXwXeXoXO 0 ^ I V ~ ^ ^ 9     1 W %X0Xf f 0XwXwXwXwXwXwX",
"wXwXwXwX0X>.f : b.1X:.j V R ^ R A K U ..v *.XX,XwXwXwXwXwXwXwX",
"wXwXwX7X>Xp - o.}.6Xq.l q H ( ( / ( _  .r * XX<XwXwXwXwXwXwXwX",
"wXwXwX<.$ l q.-X[.&.y # z c } } } } ..c.p.W 8 *.rXwXwXwXwXwXwX",
"wXwXwX,.  k w.;XY.u 8 2 O.O.O.O.O.O.+.c.a.! % d 0XwXwXwXwXwXwX",
"wXwXwX,.. k q.;Xt.  < F c.c.c.c.c.c.c.c.a.~ * f 0XwXwXwXwXwXwX",
"wXwXwX<XXXa - v ;   N / f.c.c.c.c.q 2 2 < 8 [.>XwXwXwXwXwXwXwX",
"wXwXwXwXeX;.i i i p A / s.s.s.s.) 3 $ #   @ ,XwXwXwXwXwXwXwXwX",
"wXwXwXwXwX8X8X8X8X7XT     X X X = 5.5.n - + ,XwXwXwXwXwXwXwXwX",
"wXwXwXwXwXwXwXwXwXwX].>.>.>.>.i o 4.e.3.l : Y.XXeXwXwXwXwXwXwX",
"wXwXwXwXwXwXwXwXwXwXwXwXwXwXwX=.. 6.e.e.2.z # d 0XwXwXwXwXwXwX",
"wXwXwXwXwXwXwXwXwXwXwXwXwXwXwX=.o 6.e.e.2.} # f 0XwXwXwXwXwXwX",
"wXwXwXwXwXwXwXwXwXwXwXwXwXwXwX=.. 5.e.7.2.n # d 0XwXwXwXwXwXwX",
"wXwXwXwXwXwXwXwXwXwXwXwXwXwXwX-.  z  . .n h . d 0XwXwXwXwXwXwX",
"wXwXwXwXwXwXwXwXwXwXwXwXwXwXwX[.-.j h h : : ;.<.qXwXwXwXwXwXwX",
"wXwXwXwXwXwXwXwXwXwXwXwXwXwXwXwX7Xi       $ ,XwXwXwXwXwXwXwXwX"
};
