/* XPM */
static char *xpm__portal1[] = {
/* columns rows colors chars-per-pixel */
"32 32 78 1 ",
"  c #0E1C2B",
". c #0C2233",
"X c #0B263B",
"o c #0B283E",
"O c #0A2B43",
"+ c #0A2E48",
"@ c #0B314C",
"# c #0B3552",
"$ c #0D3B5B",
"% c #133F5F",
"& c #0C3F61",
"* c #0C4165",
"= c #0C466C",
"- c #0D486F",
"; c #124365",
": c #15496D",
"> c #0E4A71",
", c #104D75",
"< c #114F78",
"1 c #13527C",
"2 c #1B547B",
"3 c #165682",
"4 c #1B5780",
"5 c #175885",
"6 c #185986",
"7 c #175B88",
"8 c #1A5C8A",
"9 c #1D608E",
"0 c #1C6393",
"q c #1F6798",
"w c #1E6899",
"e c #21628F",
"r c #246794",
"t c #276895",
"y c #286A97",
"u c #216B9D",
"i c #2E709C",
"p c #31749F",
"a c #226EA2",
"s c #2471A5",
"d c #2675AB",
"f c #2976AB",
"g c #2978AF",
"h c #397BA6",
"j c #297AB1",
"k c #2B7FB8",
"l c #337FB1",
"z c #3C80AC",
"x c #2D82BC",
"c c #3687BC",
"v c #3B8ABE",
"b c #4083AD",
"n c #4389B5",
"m c #478EBA",
"M c #5195BE",
"N c #2F85C0",
"B c #3187C2",
"V c #3189C4",
"C c #3A8CC2",
"Z c #348ECC",
"A c #3F90C5",
"S c #3690CD",
"D c #3C93CD",
"F c #3591D0",
"G c #4692C2",
"H c #4C95C2",
"J c #4296CC",
"K c #4598CF",
"L c #4C9BCD",
"P c #559CC7",
"I c #529ECE",
"U c #55A0CF",
"Y c #5CA3CE",
"T c #56A2D0",
"R c #5AA3D0",
"E c #62A6CF",
"W c #61A7D0",
"Q c #489848",
/* pixels */
"QQQQQQQQQQQULUUIIIITQQQQQQQQQQQQ",
"QQQQQQQQSLYzsssssjZJLIQQQQQQQQQQ",
"QQQQQQQSTmy851313600aDIWQQQQQQQQ",
"QQQQQQJLnp611>->>,<39svIYQQQQQQQ",
"QQQQQDLMe66,--,3da1555aZIYQQQQQQ",
"QQQSDRhe831,>9qudkNdw670BKEQQQQQ",
"QQQZJWh631>>>2%O#:wxB978cKWQQQQQ",
"QQQDJMp6q7>>*OOOO#>axNa7jCYYQQQQ",
"QQQRMe68Vs>>*OOoO#->5Zd67uZUWQQQ",
"QQSTM8ak03>=*OX.O@==3xa65uZIWQQQ",
"QQSTM8jV1=-#OX  XX+*1q075uZIEQQQ",
"QQSTM8gV1>>@o    .O*>0865uZIEQQQ",
"QQSTM8gB1--@o    .O&>=166uZIEQQQ",
"QQSYM8gZs8-#o     O*>><66uZIEQQQ",
"QQSTM8fVFd>@X.   .O$>1366uZUEQQQ",
"QQSTM889ss03:O. o@#*3Bs66uZIEQQQ",
"QQSTM663,1qkf@XXO#>=3Zs65uZIWQQQ",
"QQQTHie531=1,OOOO#-3qxa60fJIEQQQ",
"QQQZJYh661=-*OOOO*wxx888xKEQQQQQ",
"QQQZJEh663,-,<$O$>888667xKEQQQQQ",
"QQQQDInp865,<a82q7>1660sALEQQQQQ",
"QQQQQZLIy86,,-6005>178gDYEQQQQQQ",
"QQQQQQDDPb653,<>><330xJYQQQQQQQQ",
"QQQQQQQFLHhr77777qddlLIQQQQQQQQQ",
"QQQQQQQQQQKCccvcvCDLTQQQQQQQQQQQ",
"QQQQQQQQQQQQRRWRRRRQQQQQQQQQQQQQ",
"QQQQQQQQQQQQQQQQQQQQQQQQQQQQQQQQ",
"QQQQQQQQQQQQQQQQQQQQQQQQQQQQQQQQ",
"QQQQQQQQQQQQQQQQQQQQQQQQQQQQQQQQ",
"QQQQQQQQQQQQQQQQQQQQQQQQQQQQQQQQ",
"QQQQQQQQQQQQQQQQQQQQQQQQQQQQQQQQ",
"QQQQQQQQQQQQQQQQQQQQQQQQQQQQQQQQ"
};
