/* XPM */
static char *potion2[] = {
/* columns rows colors chars-per-pixel */
"32 32 146 2 ",
"   c #3C3628",
".  c #2F3634",
"X  c #303735",
"o  c #333339",
"O  c #353A3B",
"+  c #433422",
"@  c #473B25",
"#  c #334138",
"$  c #39413F",
"%  c #3D703F",
"&  c #434127",
"*  c #56422C",
"=  c #645134",
"-  c #775B3D",
";  c #012F7D",
":  c #04327E",
">  c #3E7140",
",  c #444E4C",
"<  c #494949",
"1  c #49534F",
"2  c #4B4F53",
"3  c #4E5456",
"4  c #52565A",
"5  c #545A5D",
"6  c #457D47",
"7  c #7C6141",
"8  c #74694A",
"9  c #73695D",
"0  c #575C60",
"q  c #595E63",
"w  c #5D6367",
"e  c #6A6561",
"r  c #636B6F",
"t  c #676B72",
"y  c #696E75",
"u  c #6A7274",
"i  c #6C7279",
"p  c #70787E",
"a  c #866945",
"s  c #9A754D",
"d  c #9D7951",
"f  c #448545",
"g  c #468D46",
"h  c #488649",
"j  c #478B48",
"k  c #488E49",
"l  c #479247",
"z  c #489346",
"x  c #479947",
"c  c #489847",
"v  c #4D954A",
"b  c #489848",
"n  c #518555",
"m  c #528956",
"M  c #558F5A",
"N  c #4E9051",
"B  c #519454",
"V  c #BA8D5D",
"C  c #8C8379",
"Z  c #AA947C",
"A  c #C39665",
"S  c #DEA972",
"D  c #003485",
"F  c #0C3B84",
"G  c #033B93",
"H  c #164286",
"J  c #274D87",
"K  c #25549F",
"L  c #3C6093",
"P  c #004BBE",
"I  c #0B50BA",
"U  c #446595",
"Y  c #5C769C",
"T  c #787F86",
"R  c #647DA0",
"E  c #0151C9",
"W  c #0355D5",
"Q  c #025BE6",
"!  c #0260EF",
"~  c #1C6EED",
"^  c #0E6AFA",
"/  c #1774FC",
"(  c #2A73E0",
")  c #297FFB",
"_  c #778584",
"`  c #798CA7",
"'  c #6D8AB4",
"]  c #7A96BD",
"[  c #3A88FD",
"{  c #7B98C0",
"}  c #7A9ED2",
"|  c #448FFE",
" . c #4490FF",
".. c #75A2E2",
"X. c #62A0F9",
"o. c #74ACFF",
"O. c #81878F",
"+. c #9F968B",
"@. c #858D94",
"#. c #888F96",
"$. c #869099",
"%. c #8C939A",
"&. c #94999D",
"*. c #A79A8D",
"=. c #A39B94",
"-. c #8696AA",
";. c #939BA4",
":. c #939EA9",
">. c #98A2AC",
",. c #9EA8B2",
"<. c #92A4BA",
"1. c #A4ACB4",
"2. c #C5A98B",
"3. c #C4B19B",
"4. c #D9C2A9",
"5. c #DBC9B6",
"6. c #F5D7B6",
"7. c #ACB7C3",
"8. c #AFB9C4",
"9. c #B1BBC5",
"0. c #B7BEC5",
"q. c #80ACEC",
"w. c #99BAE7",
"e. c #84B5FC",
"r. c #91BEFF",
"t. c #BCC5CE",
"y. c #98C2FF",
"u. c #B7CCE7",
"i. c #A5C9FF",
"p. c #B8D4FD",
"a. c #C7CCD2",
"s. c #CBD3DB",
"d. c #D5D6D7",
"f. c #DADCDF",
"g. c #EBE6DF",
"h. c #D5DCE3",
"j. c #D8DEE5",
"k. c #C3DCFE",
"l. c #CBE0FD",
"z. c #D3E5FF",
"x. c #E7E7E8",
"c. c #F9F2EB",
"v. c #E2ECFB",
"b. c #EAF0F8",
"n. c #F6F6F7",
"m. c #EAF0F8",
/* pixels */
"b b b b b b b b b b b b b b b b b b b b b b b b b b b b b b b b ",
"b b b b b b b b b b b b b b b b b b b b b b b z b b b b b b b b ",
"b b b b b b b b b b b b b b b v b b x x x x x x b b b b b b b b ",
"b b b b b b b b b b b v v v v B v z z z z z x x b b b b b b b b ",
"b b b b b b b b b b z 8 7 a d d a = @ + & g x x b b b b b b b b ",
"b b b b b b b b b v 7 7 a s V V d - * + +   f x b b b b b b b b ",
"b b b b b b b c N u 9 a s A S S A d 7 * @   O f b b b b b b b b ",
"b b b b b b b c N u p *.3.4.6.6.4.3.*.C e < O f b b b b b b b b ",
"b b b b b b c c N u &.t.x.n.c.g.d.a.a.7.$.q $ f x b b b b b b b ",
"b b b b b b b b b B _ ;.t.f.5.2.Z =.1.$.w 1 j b b b b b b b b b ",
"b b b b b b b b b b B M 7.f.5.2.Z +.;.i $ z b b b b b b b b b b ",
"b b b b b b b b b b v _ 0.b.c.x.s.0.1.i , z b b b b b b b b b b ",
"b b b b b b b b b B O.1.f.n.n.k.e...<.%.p 5 k b b b b b b b b b ",
"b b b b b b c b B O.1.h.v.v.z.r.[ ( ' :.;.u 3 h b b b b b b b b ",
"b b b b b b z M @.9.j.b.k.i.i.o.) W K Y >.:.T 4 6 b b b b b b b ",
"b b b b b x n y %.s.v.l.p.y.o. .^ W G J Y -.$.5 o > b b b b b b ",
"b b b b b x n t &.f.l.y.i.r. .^ ! E G : H R #.4 o > b b b b b b ",
"b b b b b x n y #.s.p.e.X.[ / Q P G D ; F Y @.5 o > b b b b b b ",
"b b b b b x m y @.9.u.y.| ^ Q P G ; D H L ` $.5 o % b b b b b b ",
"b b b b x x m y T ;.9.u.X.~ I G F F H U -.:.#.5 O 6 x b b b b b ",
"b b b b b b b M r r @.9.w.q.} { ] ' R ` >.O.q < 6 c b b b b b b ",
"b b b b b b b x h $ 5 O.,.7.8.8.7.1.%.$.O.q $ f c c b b b b b b ",
"b b b b b b b b c j , 2 4 5 0 0 0 5 3 2 2 , j c b b b b b b c b ",
"b b b b b b b b b b j # . . . . . . X X # j b b b b b b b b b b ",
"b b b b b b b b b b b l l l l l l l l l l c b b b b b b b b b b ",
"b b b b b b b b b b b b b b b b b c b b b c b c b b b b b b b b ",
"b x b b b b b b b b b b b b b b b b b b b b b b b b b b b b b b ",
"b b b b b b b b b b b b b b b b b b b b b b b b b b b b b b b b ",
"b b b b b b b b b b b b b b b b b b b b b b b b b b b b b b b b ",
"b b b b b b b b b b b b b b b c b b b b b b b b b b b b b b b b ",
"b b b b b b b b b b b b b b b c b b b b b b b b b b b b b b b b ",
"b b b b b b b b b b b b b b b c b b b b b b b b b b b b b b b b "
};
