/* XPM */
static char *potion32x[] = {
/* columns rows colors chars-per-pixel */
"26 32 234 2 ",
"   c #48494B",
".  c #4A4B4D",
"X  c #4B4C4E",
"o  c #4B4D4F",
"O  c #4C4D4F",
"+  c #4D4E50",
"@  c #4D4F50",
"#  c #4E4F51",
"$  c #4F5052",
"%  c #505153",
"&  c #515254",
"*  c #545556",
"=  c #545557",
"-  c #555557",
";  c #565759",
":  c #57585A",
">  c #595A5C",
",  c #5A5B5C",
"<  c #5A5B5D",
"1  c #5B5C5E",
"2  c #5B5D5F",
"3  c #5C5D5F",
"4  c #5D5F61",
"5  c #606163",
"6  c #606264",
"7  c #626466",
"8  c #636466",
"9  c #636567",
"0  c #656667",
"q  c #646668",
"w  c #656668",
"e  c #656769",
"r  c #666769",
"t  c #66686A",
"y  c #68696A",
"u  c #696A6B",
"i  c #6D6D6F",
"p  c #6D6E6F",
"a  c #717273",
"s  c #737375",
"d  c #737475",
"f  c #737476",
"g  c #757678",
"h  c #767778",
"j  c #777879",
"k  c #797A7B",
"l  c #7D7E7F",
"z  c #B12337",
"x  c #B22439",
"c  c #B22539",
"v  c #B2263A",
"b  c #B3273B",
"n  c #B42438",
"m  c #B3283C",
"M  c #B3293C",
"N  c #B3293D",
"B  c #B4283C",
"V  c #B6293C",
"C  c #BA2B3E",
"Z  c #BE2A3C",
"A  c #BE2C3E",
"S  c #C02C3E",
"D  c #C62E3F",
"F  c #B52C40",
"G  c #B52D40",
"H  c #B62F43",
"J  c #B63144",
"K  c #B73245",
"L  c #BB3043",
"P  c #B8374A",
"I  c #BF384A",
"U  c #B9394C",
"Y  c #C02E40",
"T  c #C22F40",
"R  c #C82F40",
"E  c #C33344",
"W  c #CB3041",
"Q  c #CF3444",
"!  c #CF3544",
"~  c #C03A4C",
"^  c #D03443",
"/  c #D03544",
"(  c #D13645",
")  c #D23645",
"_  c #D33645",
"`  c #BE4758",
"'  c #BF4B5B",
"]  c #C15061",
"[  c #C55B6A",
"{  c #C65E6D",
"}  c #CA5E6D",
"|  c #CA616F",
" . c #CA6876",
".. c #CC6B79",
"X. c #CB6C7A",
"o. c #CC6F7D",
"O. c #CC707D",
"+. c #CF717E",
"@. c #CE727F",
"#. c #7E7F80",
"$. c #CE7582",
"%. c #D07D89",
"&. c #D27D89",
"*. c #D17E8A",
"=. c #D27F8B",
"-. c #848586",
";. c #868688",
":. c #878789",
">. c #88898A",
",. c #89898B",
"<. c #8A8B8C",
"1. c #8B8C8D",
"2. c #929495",
"3. c #949596",
"4. c #969798",
"5. c #979899",
"6. c #999A9B",
"7. c #9A9A9C",
"8. c #9B9C9D",
"9. c #9C9D9E",
"0. c #9D9D9E",
"q. c #9E9FA0",
"w. c #9F9FA0",
"e. c #A2A3A4",
"r. c #A5A6A7",
"t. c #A9A9AA",
"y. c #AAABAC",
"u. c #ACACAD",
"i. c #ADAEAF",
"p. c #B0B1B2",
"a. c #B2B4B5",
"s. c #B4B4B5",
"d. c #B5B5B6",
"f. c #B5B6B6",
"g. c #B8B8B9",
"h. c #BDBDBE",
"j. c #D3818D",
"k. c #D4838F",
"l. c #D48692",
"z. c #D68B96",
"x. c #D78F99",
"c. c #D9949E",
"v. c #DB98A2",
"b. c #DC9BA4",
"n. c #DFA5AD",
"m. c #E0A8B0",
"M. c #E2AEB6",
"N. c #E4B1B9",
"B. c #E4B2B9",
"V. c #E7BCC2",
"C. c #E8BDC3",
"Z. c #E8BEC4",
"A. c #C1C1C2",
"S. c #C1C3C3",
"D. c #C2C2C3",
"F. c #C3C4C4",
"G. c #C4C5C5",
"H. c #C5C6C6",
"J. c #C6C7C8",
"K. c #C7C9C9",
"L. c #CACBCB",
"P. c #CCCCCD",
"I. c #CDCECE",
"U. c #CECECE",
"Y. c #D0D0D0",
"T. c #D3D3D3",
"R. c #D3D3D4",
"E. c #D3D4D4",
"W. c #D7D9D9",
"Q. c #D8D8D9",
"!. c #DBDBDB",
"~. c #DEDBDC",
"^. c #DDDDDE",
"/. c #DEDFDF",
"(. c #E9C0C6",
"). c #EAC1C7",
"_. c #EAC2C8",
"`. c #EAC3C8",
"'. c #EECED2",
"]. c #EED1D5",
"[. c #EFD2D6",
"{. c #F1D4D9",
"}. c #F1D7DB",
"|. c #E0E0E0",
" X c #E0E1E1",
".X c #E7E3E4",
"XX c #E2E4E4",
"oX c #E4E5E5",
"OX c #E5E5E6",
"+X c #E5E6E6",
"@X c #E8E8E8",
"#X c #EAECEC",
"$X c #EDEDED",
"%X c #ECEEEE",
"&X c #EEEEEF",
"*X c #F5E2E5",
"=X c #F0E4E6",
"-X c #F7E6E8",
";X c #F7EAEC",
":X c #F6ECEE",
">X c #F4EEEF",
",X c #F9E8EA",
"<X c #F8E9EB",
"1X c #EFF0F0",
"2X c #F0F0F0",
"3X c #F1F1F1",
"4X c #F1F2F2",
"5X c #F2F2F2",
"6X c #F4F4F4",
"7X c #F4F5F5",
"8X c #F7F7F7",
"9X c #F9F2F3",
"0X c #FBF5F6",
"qX c #FCF5F6",
"wX c #FCF6F7",
"eX c #F6F8F8",
"rX c #F8F8F8",
"tX c #F9F9F9",
"yX c #F8FAFA",
"uX c #F8FBFA",
"iX c #FAFAFA",
"pX c #FCF8F8",
"aX c #FCF9F9",
"sX c #FDF9F9",
"dX c #FCFCFC",
"fX c #FDFDFD",
"gX c #FEFCFD",
"hX c #FEFDFD",
"jX c #FDFEFE",
"kX c #FEFEFE",
"lX c #FFFEFE",
"zX c #FEFFFF",
"xX c white",
"cX c #489848",
/* pixels */
"cXcXcXcXcXcXcXcXcXcX8 t t t e 6 cXcXcXcXcXcXcXcXcXcX",
"cXcXcXcXcXcXcXcXcXcX4 8 e e 8 2 cXcXcXcXcXcXcXcXcXcX",
"cXcXcXcXcXcXcXcXcXcX+ $ $ & $ O cXcXcXcXcXcXcXcXcXcX",
"cXcXcXcXcXcXcXcXcX7.5 O $ + + e cXcXcXcXcXcXcXcXcXcX",
"cXcXcXcXcXcXcXcXg.5Xe.; $ $ : f.1Xi.cXcXcXcXcXcXcXcX",
"cXcXcXcXcXcXcXcXcXf.5XY.D.D.Q.oXw.cXcXcXcXcXcXcXcXcX",
"cXcXcXcXcXcXcXcXcXk 6XxXxXxXxXY.; cXcXcXcXcXcXcXcXcX",
"cXcXcXcXcXcXcXcXcXa $XxXxXxXxXU.* cXcXcXcXcXcXcXcXcX",
"cXcXcXcXcXcXcXcXcXy @XxXxXxXxXG.& cXcXcXcXcXcXcXcXcX",
"cXcXcXcXcXcXcXcXcX5  XxXxXxXxXh.$ cXcXcXcXcXcXcXcXcX",
"cXcXcXcXcXcXcXcXcX, Q.xXxXxXxXf.+ cXcXcXcXcXcXcXcXcX",
"cXcXcXcXcXcXcXcXcX& U.xXxXxXxXy.  cXcXcXcXcXcXcXcXcX",
"cXcXcXcXcXcXcXcXl 6.oXxXxXxXxXU.-.y cXcXcXcXcXcXcXcX",
"cXcXcXcXcX* ;.F.$XxXxXxXxXxXxXxXiX/.y.p O cXcXcXcXcX",
"cXcXcXcX8 f.6XxXxXxXxXxXxXxXxXxXxXxXxXoX4.* cXcXcXcX",
"cXcXcXy Y.xXxXxXxXxXxXxXxXxXxXxXxXxXxXxXiXp.; O cXcX",
"cXcX, L.xXxXxXxXxXxXxXxXxXxXxXxXxXxXxXxXxXiXt.% cXcX",
"cXO 8.xXxXxXxXxXxXxXxXxXxXxXxXxXxXxXxXpXxXxX6X#.O cX",
"O 3 /.xXxXxXxXxXxXxXxXxXxXxXxXpX[.b.o.{ $.'.xXF.& + ",
". j 6XxX0XxXxXxXxXxXxXxXxX0XZ.X.P x z x z ] ;X%X0 O ",
". >.xX_.[ =.V.;XxXxXxX0X`. .J x m m m m m G (.eXg X ",
". ;.xXc.n Z L ' o.l.j.{ K x m m m m m m m m B.iXg X ",
"X a eXn.A ) Q A x x z x x m m m m m m m m V _.%Xe O ",
"cX> Q.}.I ) ) ) T m m m m m m m m m m m x ' <XD.& cX",
"cXO 3.iX=.D / _ ) S V m m m m m m m m m m v.5Xk . cX",
"cXcX2 G.-X} D ) _ / C m m m m m m m m x @.:Xq.$ cXcX",
"cXcXcXp Y.*X+.E D _ L m m m m m x x J k.=Xr.* cXcXcX",
"cXcXcXcXf L.:XN.} ~ V x x x x V U o.Z.~.2.cXcXcXcXcX",
"cXcXcXcXcXcXi.oX9X[.n.z.=.=.x.M.}..Xa.d cXcXcXcXcXcX",
"cXcXcXcXcXcXcXG.xXxXxXxXxXxXxXxXxX/.<.cXcXcXcXcXcXcX",
"cXcXcXcXcXcXcXt. X5XiXxXxXxXxX6X5XQ.5.cXcXcXcXcXcXcX",
"cXcXcXcXcXcXcXcXcX1.3.8.8.8.8.3.>.cXcXcXcXcXcXcXcXcX"
};
