/* XPM */
static char *_23455[] = {
/* columns rows colors chars-per-pixel */
"26 32 79 1 ",
"  c black",
". c #020001",
"X c #150406",
"o c #1A0507",
"O c #1E0608",
"+ c #28080B",
"@ c #2B090C",
"# c #2C090D",
"$ c #300A0D",
"% c #310A0E",
"& c #330B0E",
"* c #350B0F",
"= c #360B0F",
"- c #370B0F",
"; c #370C0F",
": c #380C10",
"> c #410E12",
", c #440E13",
"< c #450E14",
"1 c #4D0F15",
"2 c #4F1116",
"3 c #501116",
"4 c #511116",
"5 c #531117",
"6 c #531118",
"7 c #5A1319",
"8 c #5C131A",
"9 c #5D131A",
"0 c #6E171F",
"q c #71171E",
"w c #741820",
"e c #861C25",
"r c #931F2A",
"t c #941F2A",
"y c #951F2A",
"u c #961F2A",
"i c #9B1F2A",
"p c #98202A",
"a c #98202B",
"s c #9B202B",
"d c #A7232F",
"f c #AC232F",
"g c #AE2431",
"h c #AF2531",
"j c #B02531",
"k c #B12531",
"l c #B32531",
"z c #B02532",
"x c #B22532",
"c c #B62531",
"v c #B42632",
"b c #B42633",
"n c #B52633",
"m c #B62632",
"M c #BA2330",
"N c #B92633",
"B c #BA2632",
"V c #BB2633",
"C c #BE2431",
"Z c #BE2532",
"A c #BC2633",
"S c #BD2633",
"D c #BE2633",
"F c #BC2734",
"G c #BE2734",
"H c #BE2835",
"J c #BF2A37",
"K c #BF2C38",
"L c #BF2E3A",
"P c #C02734",
"I c #C32734",
"U c #C12E3A",
"Y c #C0303D",
"T c #C6515B",
"R c #C9626B",
"E c #CE878D",
"W c #D09095",
"Q c #D6B4B7",
"! c #489848",
/* pixels */
"!!!!!!!!!!!!!!!!!!!!!!!!!!",
"!!!!!!!!!!!!!!!!!!!!!!!!!!",
"!!!!!!!!!!!!!!!!!!!!!!!!!!",
"!!!!!!!!!!!!!!!!!!!!!!!!!!",
"!!!!!!!!!!!!!!!!!!!!!!!!!!",
"!!!!!!!!!!!!!!!!!!!!!!!!!!",
"!!!!!!!!!!!!!!!!!!!!!!!!!!",
"!!!!!!!!!!!!!!!!!!!!!!!!!!",
"!!!!!!!!!!!!   !!!!!!!!!!!",
"!!!!!!!!!!! !!! !!!!!!!!!!",
"!!!!!!!!!!!     !!!!!!!!!!",
"!!!!!!!!!!!  ! !!!!!!!!!!!",
"!!!!!!!!!!!! ! !!!!!!!!!!!",
"!!!!!!!!!!!! ! !!!!!!!!!!!",
"!!!!!!!!!!!! ! !!!!!!!!!!!",
"!!!!!!!!!!!! ! !!!!!!!!!!!",
"!!!!!!!!!!! !!!!!!!!!!!!!!",
"!!!!!!!!!! !!!!! !!!!!!!!!",
"!!!!!!!!!  !!!!!  !!!!!!!!",
"!!!!!!!! !!>*!!!!@#!!!!!!!",
"!!!!!!!! *1Me:O!X05!!!!!!!",
"!!!!!!!+:iLTSS7$6n0o!!!!!!",
"!!!!!!!3SJREPSBBxgx*!!!!!!",
"!!!!!!!3PYQJSSSBxgx*!!!!!!",
"!!!!!!!,fUWPSSSjgxs$!!!!!!",
"!!!!!!!!qISPPSxggn3!!!!!!!",
"!!!!!!!!9nSSSngxgd<!!!!!!!",
"!!!!!!!! qsspttts8!!!!!!!!",
"!!!!!!!!!......   !!!!!!!!",
"!!!!!!!!!!!!!!!!!!!!!!!!!!",
"!!!!!!!!!!!!!!!!!!!!!!!!!!",
"!!!!!!!!!!!!!!!!!!!!!!!!!!"
};
