/* XPM */
static char *potionx32xz[] = {
/* columns rows colors chars-per-pixel */
"26 32 205 2 ",
"   c #4A4B4D",
".  c #4B4C4E",
"X  c #4C4D4F",
"o  c #4C4D50",
"O  c #4D4E50",
"+  c #4E4F51",
"@  c #4F5052",
"#  c #505153",
"$  c #515254",
"%  c #555658",
"&  c #565759",
"*  c #58595A",
"=  c #58595B",
"-  c #585A5C",
";  c #5A5B5D",
":  c #5B5D5F",
">  c #5C5D5F",
",  c #5E5F61",
"<  c #606163",
"1  c #636465",
"2  c #656668",
"3  c #666769",
"4  c #676869",
"5  c #66686A",
"6  c #67696B",
"7  c #686A6C",
"8  c #696A6C",
"9  c #6B6C6E",
"0  c #6F7071",
"q  c #727375",
"w  c #78797A",
"e  c #7B7C7D",
"r  c #7C7C7E",
"t  c #7D7E7F",
"y  c #B12338",
"u  c #B22439",
"i  c #B22539",
"p  c #B2253A",
"a  c #B2263A",
"s  c #B2263B",
"d  c #B3273B",
"f  c #B4273B",
"g  c #B3283C",
"h  c #B3293D",
"j  c #B42A3E",
"k  c #B42B3F",
"l  c #B42C3F",
"z  c #B9283B",
"x  c #B82A3D",
"c  c #BA2B3E",
"v  c #C42D3F",
"b  c #B92E41",
"n  c #B63043",
"m  c #B73447",
"M  c #B8374A",
"N  c #B8384A",
"B  c #B9384A",
"V  c #C72F40",
"C  c #C63041",
"Z  c #C63344",
"A  c #C43647",
"S  c #CA3041",
"D  c #CC3040",
"F  c #CC3242",
"G  c #CC3343",
"H  c #CE3444",
"J  c #D03443",
"K  c #D23544",
"L  c #D33645",
"P  c #BB4052",
"I  c #BC4052",
"U  c #BC4152",
"Y  c #BC4354",
"T  c #BE4859",
"R  c #BF485A",
"E  c #C14455",
"W  c #C64555",
"Q  c #C04C5C",
"!  c #C25161",
"~  c #C25363",
"^  c #C45262",
"/  c #C65C6B",
"(  c #C65E6D",
")  c #C7606F",
"_  c #C86472",
"`  c #CC6775",
"'  c #CA6876",
"]  c #7E7F80",
"[  c #7E7F81",
"{  c #D17A87",
"}  c #808182",
"|  c #858687",
" . c #878889",
".. c #8D8D8F",
"X. c #8F8F91",
"o. c #8F9091",
"O. c #929394",
"+. c #939395",
"@. c #949596",
"#. c #969798",
"$. c #97999A",
"%. c #98999A",
"&. c #999A9C",
"*. c #9A9B9C",
"=. c #9A9C9D",
"-. c #9B9C9D",
";. c #9C9C9D",
":. c #9F9FA0",
">. c #A0A0A1",
",. c #A1A2A3",
"<. c #A2A4A5",
"1. c #A3A4A5",
"2. c #A5A6A7",
"3. c #A6A7A8",
"4. c #ABABAC",
"5. c #ADAEAF",
"6. c #AFAFB0",
"7. c #B0B0B1",
"8. c #B3B5B6",
"9. c #B5B5B6",
"0. c #B4B6B7",
"q. c #B5B6B7",
"w. c #B6B6B7",
"e. c #B6B7B7",
"r. c #B7B7B8",
"t. c #B7B8B8",
"y. c #B8B9BA",
"u. c #B9BABA",
"i. c #B9BABB",
"p. c #D58893",
"a. c #DA909A",
"s. c #D9929C",
"d. c #DA99A3",
"f. c #DFA1A9",
"g. c #DEA1AA",
"h. c #DFA2AA",
"j. c #E1AAB2",
"k. c #E2ADB4",
"l. c #E2ADB5",
"z. c #E4B2B9",
"x. c #E6B8BF",
"c. c #E7BCC3",
"v. c #E8BAC0",
"b. c #E8BEC4",
"n. c #C0C0C1",
"m. c #C6C7C7",
"M. c #C7C7C8",
"N. c #CACBCB",
"B. c #CBCBCC",
"V. c #CECCCD",
"C. c #CCCECE",
"Z. c #CECECF",
"A. c #CFD0D0",
"S. c #D1D1D2",
"D. c #D2D1D2",
"F. c #D2D2D3",
"G. c #D5D5D5",
"H. c #D7D7D8",
"J. c #D8DADA",
"K. c #DADADA",
"L. c #DDDDDD",
"P. c #DDDDDE",
"I. c #EECBD0",
"U. c #E3D0D3",
"Y. c #EFD2D6",
"T. c #EDD5D8",
"R. c #F1D7DB",
"E. c #F1D8DC",
"W. c #E3E3E3",
"Q. c #E5E5E5",
"!. c #EBE6E7",
"~. c #EAE7E8",
"^. c #EAEAEA",
"/. c #EEEDEE",
"(. c #EDEEEE",
"). c #F4E1E4",
"_. c #F5E3E5",
"`. c #F6E5E7",
"'. c #F6E5E8",
"]. c #F7E6E9",
"[. c #F8E6E8",
"{. c #F8EBED",
"}. c #F8EDEE",
"|. c #FBEFF1",
" X c #F1F1F1",
".X c #F2F2F2",
"XX c #F3F3F3",
"oX c #F5F0F1",
"OX c #F7F7F7",
"+X c #FAF0F2",
"@X c #FAF1F2",
"#X c #FBF4F5",
"$X c #FCF7F7",
"%X c #F8FAF9",
"&X c #F9F9FA",
"*X c #FAFAFA",
"=X c #FBFBFB",
"-X c #FDF9F9",
";X c #FEF9FA",
":X c #FEFBFB",
">X c #FCFCFC",
",X c #FEFEFE",
"<X c #FEFFFF",
"1X c #FFFFFF",
"2X c #489848",
/* pixels */
"2X2X2X2X2X2X2X2X2X2X2X2X2X2X2X2X2X2X2X2X2X2X2X2X2X2X",
"2X2X2X2X2X2X2X2X2X2X2X2X2X2X2X2X2X2X2X2X2X2X2X2X2X2X",
"2X2X2X2X2X2X2X2X2X2X, 6 8 7 6 : 2X2X2X2X2X2X2X2X2X2X",
"2X2X2X2X2X2X2X2X2X2X# & ; = & @ 2X2X2X2X2X2X2X2X2X2X",
"2X2X2X2X2X2X2X2X2X2X1 + + X + 2 2X2X2X2X2X2X2X2X2X2X",
"2X2X2X2X2X2X2X2X2XZ.m.; X + < A.M.2X2X2X2X2X2X2X2X2X",
"2X2X2X2X2X2X2X2X2X1.L.F.r.y.K.N.;.2X2X2X2X2X2X2X2X2X",
"2X2X2X2X2X2X2X2X2X2Xn.1X1X1X1X@.2X2X2X2X2X2X2X2X2X2X",
"2X2X2X2X2X2X2X2X2X2Xw.1X1X1X1XX.2X2X2X2X2X2X2X2X2X2X",
"2X2X2X2X2X2X2X2X2X2X4.1X1X1X=X| 2X2X2X2X2X2X2X2X2X2X",
"2X2X2X2X2X2X2X2X2X2X>.1X1X1X=X} 2X2X2X2X2X2X2X2X2X2X",
"2X2X2X2X2X2X2X2X2X2XO.1X1X1XOXw 2X2X2X2X2X2X2X2X2X2X",
"2X2X2X2X2X2X2X2X2X8 2.1X1X1XOX..> 2X2X2X2X2X2X2X2X2X",
"2X2X2X2X2X2X2Xe t.W.=X1X1X1X1XXXG.>.6 2X2X2X2X2X2X2X",
"2X2X2X2X2X* >.^.1X1X1X1X1X1X1X1X1X1XK.| @ 2X2X2X2X2X",
"2X2X2X2X& 6.=X1X1X1X1X1X1X1X1X1X1X1X1XXXO.+ 2X2X2X2X",
"2X2X2XX %.=X1X1X1X1X1X1X1X1X1X1X1X1X1X1XXXt   2X2X2X",
"2X2X2X2 Q.1X1X1X1X1X1X1X1X1X1X1X-X).Y.`.1XF.= 2X2X2X",
"2X2X  o.1X1X1X1X1X1X1X1X1X1X}.k.' P m T b.=Xe . 2X2X",
"2X2XX 5.-Xx.b.}.1X1X1X1X+Xj.~ g s s s y _ -X-.. 2X2X",
"2X2X+ w.`.U b ^ p.z.c.f.( g s g s s d s R +X2.. 2X2X",
"2X2X  <.].E F S z g n g s g g g g g s s ! +X@.  2X2X",
"2X2X2Xt oX` S L H c s s g g g g g g g s { /.0 2X2X2X",
"2X2X2X* Z.v.A L L H g g g g g g g g s B I.0.$ 2X2X2X",
"2X2X2X2X] ~.a.A H L C g g g s g d s n f.F.6 2X2X2X2X",
"2X2X2X2X2X$.!.f.W V v f d s s s s R k.Z.q 2X2X2X2X2X",
"2X2X2X2X2X2X%.L.T.s./ P B B Y ) d.U.w.9 2X2X2X2X2X2X",
"2X2X2X2X2X2X2X2XK.1X#X_.R.E.`.$X/.-.2X2X2X2X2X2X2X2X",
"2X2X2X2X2X2X2X2XN.OX1X1X1X1X1X1XXXw.2X2X2X2X2X2X2X2X",
"2X2X2X2X2X2X2X2X2X>.7.r.y.y.w.5.&.2X2X2X2X2X2X2X2X2X",
"2X2X2X2X2X2X2X2X2X2X2X2X2X2X2X2X2X2X2X2X2X2X2X2X2X2X",
"2X2X2X2X2X2X2X2X2X2X2X2X2X2X2X2X2X2X2X2X2X2X2X2X2X2X"
};
