/* XPM */
static char *tree[] = {
/* columns rows colors chars-per-pixel */
"32 32 83 1 ",
"  c #2A2B29",
". c #26342A",
"X c #29352A",
"o c #293A2B",
"O c #35352B",
"+ c #3B362D",
"@ c #343C2B",
"# c #3B392B",
"$ c #433C2C",
"% c #483F2D",
"& c #403C30",
"* c #27442C",
"= c #2B442E",
"- c #274C2E",
"; c #294B2E",
": c #34452D",
"> c #3D432E",
", c #27532F",
"< c #28542F",
"1 c #2F4630",
"2 c #2C4B30",
"3 c #334C32",
"4 c #3A4D33",
"5 c #275431",
"6 c #285630",
"7 c #275A32",
"8 c #285A32",
"9 c #335234",
"0 c #355936",
"q c #3B5E35",
"w c #385F38",
"e c #28643C",
"r c #3B6136",
"t c #376038",
"y c #306D3A",
"u c #3A6B3B",
"i c #32713D",
"p c #3B733E",
"a c #3C793F",
"s c #4C432E",
"d c #51462E",
"f c #54492F",
"g c #5A4C2F",
"h c #4F4530",
"j c #524730",
"k c #534E33",
"l c #5C4D31",
"z c #475F3A",
"x c #5E5134",
"c c #5B5837",
"v c #5C5E38",
"b c #645433",
"n c #695736",
"m c #6B5936",
"M c #61583B",
"N c #715F3A",
"B c #466138",
"V c #446F3C",
"C c #5E6038",
"Z c #40743E",
"A c #70623A",
"S c #7B663D",
"D c #286840",
"F c #397D41",
"G c #417E40",
"H c #5B7140",
"J c #6D6340",
"K c #616A43",
"L c #796944",
"P c #826C41",
"I c #897245",
"U c #8F7A4E",
"Y c #907A4E",
"T c #3D8443",
"R c #438442",
"E c #4B8544",
"W c #448C45",
"Q c #469347",
"! c #489647",
"~ c #479748",
"^ c #489748",
"/ c #479848",
"( c #489848",
/* pixels */
"(((((!QQRu;o-88eee82o3uRQQ!!!(((",
"((((!Gw9;,<8eeeee8ee85239wFQ((((",
"(((Wu1=,78eee888777eDe86-21uW(((",
"((Qp126eeee878eee8778eeDe7;1GQ((",
"~Qu1*7eDe8867eeeeee8878eDe6*1uQ!",
"Qu1*5eDe86eeee7e88eee888eDe6*1uQ",
"F327eDe778eee77eDe78De778eDe7=3F",
"3268DD8777eee7eeDe8eDe8788DD8523",
"X-8eee8868eee77ee76eye7688eee82o",
"X-8eee86868eee7766eee77778eDe8-o",
"o-eeee867678eyee8eee767677eDee-X",
"X-8eee8667678eeeeyee7667678De8-X",
"X-8eeee67676778yee7776668eeee7-X",
"X-<7eeee8767676877667888eeee7<-.",
"=;,78eeeyee66668666788eeeee86,;:",
"w=;678eeeee876866767eeeeee866-=0",
"a3-<778eDDDee888767eeeeDee867=9Z",
"!u==<778eeDeeeeeeeeeeyee886<*;u/",
"(W9o=<77788eeDeyyeeee78787<=o0R/",
"!!Z4X=<777777eeeeee876768<*o:a!/",
"(RCC$o-<66666688e76667<65-o&MCW(",
"!VvM+ .*;;--<<66<7<<;;;;*X ObCZ(",
"(Rw@   O##$Oo=:=*;*o#$#OO   @rR(",
"((F8;oO$ssbbs%s%ss%snbss$Oo,8a/(",
"((Ty7:smmlfbbllbbglbnfgmmj:6yT((",
"((~F84slmmdglf%ddsfggdmNxs:8F~((",
"(((RBJAlfls$$sxnnls$$sgflNABR(((",
"(((EKYPl##=oOfnnnnf#oo@$kLUKE/((",
"(((Rzck>o;55*sfxxf>=,<-:>kczR/((",
"(((!WGRTFFe8,:bIIb:,eeiaRGRW~(((",
"((((((!!~~WTy9kSSk9iTW~~~!~!((((",
"(((((((!//~~WF4sd4pQ~!~((((((((("
};
