/* XPM */
static char *tree50[] = {
/* columns rows colors chars-per-pixel */
"32 32 90 1 ",
"  c #272A27",
". c #2A2B28",
"X c #27362A",
"o c #2A362A",
"O c #273F2C",
"+ c #2A3B2B",
"@ c #35352B",
"# c #3A372C",
"$ c #343B2B",
"% c #3B3A2B",
"& c #433D2D",
"* c #27472D",
"= c #2A442D",
"- c #274C2E",
"; c #294B2E",
": c #3E4925",
"> c #34442D",
", c #3A472E",
"< c #3E482F",
"1 c #27502F",
"2 c #28522F",
"3 c #2E4B30",
"4 c #324630",
"5 c #324D32",
"6 c #394A32",
"7 c #275230",
"8 c #285531",
"9 c #275B35",
"0 c #285B34",
"q c #275F38",
"w c #285F38",
"e c #325334",
"r c #3A5132",
"t c #345A35",
"y c #3A5B36",
"u c #296037",
"i c #27613A",
"p c #28643C",
"a c #2A683F",
"s c #356137",
"d c #3B6139",
"f c #316C3A",
"g c #3A6B3B",
"h c #33733D",
"j c #3B743D",
"k c #37783F",
"l c #3A7A3F",
"z c #404625",
"x c #43402D",
"c c #4C432E",
"v c #51462F",
"b c #53482F",
"n c #4F4A30",
"m c #554B31",
"M c #5A4D31",
"N c #4B5E38",
"B c #545133",
"V c #5E5132",
"C c #5C5836",
"Z c #635333",
"A c #6A5735",
"S c #6B5936",
"D c #615938",
"F c #705D39",
"G c #456239",
"H c #496239",
"J c #5C6139",
"K c #576E3E",
"L c #5B6B3C",
"P c #40743E",
"I c #417B3F",
"U c #6E603A",
"Y c #79653D",
"T c #3C7D40",
"R c #427E40",
"E c #497F43",
"W c #616B41",
"Q c #7F6A40",
"! c #806940",
"~ c #887245",
"^ c #8D784C",
"/ c #3E8442",
"( c #438242",
") c #4A8444",
"_ c #438C45",
"` c #469347",
"' c #489647",
"] c #479648",
"[ c #489748",
"{ c #489848",
/* pixels */
"{{{[{'`_)N:=;0uiii9-O;f(```[[[[[",
"{{{{`Ise5889quuuiiqq02;8tsT`[[[[",
"{{{_g=;;29upu99999qupi08;33j_[[[",
"[[`j4;9ipii999iuuu999iiiq8-3P`[[",
"`TT==9ipiu00uiiiiap9000iiT9O5g_{",
"`T+*0ipp080upiuu9qpai0009qi7=3g`",
"R5*9iip900ipu9iipw9pai909iii0;ej",
"53-9iT9900ipiuippi99pp9099Tp97;5",
"X-qTpi9979qTiu0uu99ipq9779iaiq-X",
"X-99pi997979pi0000uui89797iapq-X",
"X*9ipi99977qipiuiiipi0999qqpi91X",
"X*iii9799977upapppi900977qqpT91X",
"X-9qT999990009uuuu027797999T97-X",
"X-7q9ii99929028000087799iiii91-X",
"**7q9qiiii99088008809qipppq797*=",
"t3-799iTipi9000808887iTapi999-3t",
"je;1080paaaau8000000paapp0082*2I",
"_g;*200uupaaaapipppappapu082-;g`",
"{_t==102899uuaaaaaapu000882*Ot){",
"'`P>@*8088889upppu00000888*$>j`{",
"'(LAx+*298890000000880822-oxDK(`",
"`PCV@ oO*-;*;80000221;*==X.%ZJP`",
"'(d6@ .##%:$++==*=+o+%%#@. o>d){",
"''k9*o#&&cZZcccczccvZZvc&@X-8k`{",
"[{/f8=mAAMmAAmMZZMMAZmVSSb>8f_]]",
"{{`T9,nVFSbmbvcbbcvbMnSSZc60T`{{",
"{{[(GUFMmMc@&vMAAZc&&cMbMFUG({{{",
"{{[)W^QM%@OX#vZAZZb$o$%&mY^W)]{{",
"{{{)GCB,=-7-4%bVZbx=22;;<VCG_{{{",
"{{{`_RRTTTT77,Z~~Z,29ahlRIR_`{{{",
"{{{[[[[[]]`TT3BYYmeh//```{{{{{{{",
"{{{{{[[[{]]`/T6nnrj_{{{{{{{{{{{{"
};
