/* XPM */
static char *tree50[] = {
/* columns rows colors chars-per-pixel */
"50 61 92 1 ",
"  c #262627",
". c #282627",
"X c #272728",
"o c #282728",
"O c #272C29",
"+ c #292A28",
"@ c #322F29",
"# c #263027",
"$ c #2B3227",
"% c #27342A",
"& c #29332A",
"* c #293D2C",
"= c #34332A",
"- c #3B362B",
"; c #3D3C2C",
": c #313D33",
"> c #433C2C",
", c #493F2D",
"< c #443E30",
"1 c #28442D",
"2 c #274B2E",
"3 c #284D2E",
"4 c #27532F",
"5 c #28522F",
"6 c #274131",
"7 c #284733",
"8 c #304330",
"9 c #3F4530",
"0 c #324A32",
"q c #394E33",
"w c #285630",
"e c #275B36",
"r c #285931",
"t c #275F38",
"y c #2A5F3A",
"u c #335434",
"i c #3E5236",
"p c #365A36",
"a c #385E37",
"s c #385F38",
"d c #2E6636",
"f c #28643C",
"g c #2C683C",
"h c #336036",
"j c #376139",
"k c #3A663A",
"l c #37693A",
"z c #3B693B",
"x c #3F773F",
"c c #3F793F",
"v c #58521C",
"b c #44402D",
"n c #4D422D",
"m c #52462E",
"M c #55482E",
"N c #5B4C2F",
"B c #4C4332",
"V c #434F36",
"C c #5E4E30",
"Z c #445334",
"A c #625231",
"S c #685634",
"D c #6D5A35",
"F c #705D36",
"G c #75613A",
"H c #78643A",
"J c #7E683B",
"K c #286840",
"L c #337741",
"P c #367C43",
"I c #494C4C",
"U c #5D5F4B",
"Y c #4D5152",
"T c #426A42",
"R c #796543",
"E c #82760B",
"W c #836C3E",
"Q c #846E42",
"! c #897143",
"~ c #957D4C",
"^ c #3B8244",
"/ c #3E8946",
"( c #428442",
") c #428D45",
"_ c #459247",
"` c #479748",
"' c #489748",
"] c #489848",
"[ c #9F8757",
"{ c #978158",
"} c #A48C5C",
"| c #8F9C9F",
/* pixels */
"]]]]]']]]]]]T|UEv.O&4rrttrttr3%X 2x'']]]]]]]]]]]]]",
"]]]]]]]]]]]]T|I$**14rffKfKKffrr1*1&j']]`]]]]]]]']]",
"]]]]]]]]')pu8Y:2rrtfffffKgKKKKfrwr4#0uqp)']]]]]]]]",
"]]]]]]]'z*&#+&2rrffgfffrtrerfffffww4&OO%*z']]']]]]",
"]]]]']'z##4444rffgKffrrrrrr4rtfgKftr44w4&+z''`]]]'",
"']]]]]zO#4r4rfffKKfrrrrr4rrrrrtfKKftftwr2&@z]`]]]]",
"]]]]]_8O4wffffffftr44rffffftrrrrtfgKfffrr5O8_]]]]]",
"]]]]_p+*wrfgfffferrrrfffgfKffrrrrtffffKfew*+p_]]]]",
"]]]_pOO54ffffff4wrwtffffffffKferrrwrfffKdw5#+p__]]",
"]]_pXX14egKKfrrrrrrKgfff4refKKferrrrtKKKfr41++p_]]",
"''a+*34tfKKKfrw4rffKKtrrrdrrfffffrrrrfffffrw2$#h]]",
"])8+4rrfKKffrrwwfffftrrffff4rffKftrrrrffKKfrr4 1)]",
"]z+14rffKKfrrr4dfKKtrrffKKffrrffKKfrr4rfKKgfrr2#k]",
"(:*4wrfKKKtrr4rtKKffreffKKKfwrffKgtrrrrfKKffrr41*(",
"kO2rwtfKKfrrrwwrKKffrrfKKKffrrfffgrrrrwefKKKrrr2@k",
"+*rrrdfKKfrrrrwdKKKfwrffKKfrrrfffff44rwwfKKKtr4r*+",
" 1rrtKKKdr4rrrrrfKKfrrrrttrrrrKKdfrrrrr4rgKKKtrr*X",
" 1rrrKKKdrrr4rrrrfKKtrrrrrrrrrKKtrrrrr4rrgKKftrr*+",
" *rrtKKKdrrrrr4rrtKKKrrrrrrrtKKKrrrrrr4rrfKKKtrr*X",
"#*rrtKKKtr4rrrrrrrtKKKtrrrrrtKKtrrr4rrrrrfKKgr4r*X",
" 144tfKKtrrrr4rrrrrfgKKfttKKKKKt4rrrrrrrrtKKKrrr*X",
" #rrtKKKtrrrrr4rrrrtKKKKKKKKKKfrrrrrrrrrrtKKKtrr*X",
" *rrtKKKtrrrrrrrr4r4tfgKKKfgfrr4rrr4rrrrrfKKKtrr*X",
" 1rrrfKKKrrrrrrr4rrrrtKKKKfffrrrr4r4rrrrtKKKfrrr*+",
"##rr4rdgKftrrrrr4rrrrrrrttrrrr4r4r44rrrrfggfdwww*X",
"#1rrrrfgKKftrrrrrrr4rrr4rrrrrr4rrrrrrrttKfffrrrw*X",
" $3rrrrfKKKKttrrrrrrrrr4rrrrrrr4rrrrrKKKKKfwrrr5%X",
"5$1rrrrrtKKKfKttrrrrr4rrrrrr4rrrrrtffgKKKKrww4r1+p",
"x+1r44rrrtKKKKKKrrrrrrrrrr4rrrr4rffKKKKKfrwrrrr1+x",
"(*#3rrrrrtfKKKKKdrrrrrr44rrrrrrrtKfKKKKKtrwr4r2@*(",
"]k 3rrr4rrfKKKKKKKdrrrrrr4rrrrrtKKKKKKffrrrrrr5Ok]",
"]z#*4rrrrrtfKKKKKKgrrrr4rrrrrrtdKKKKKKfrrrrrr4*+z]",
"]_0$3wwwrwregfKKKKKgfffrefrrtfKKKKKKKKtrrrrrr3#1_]",
"]]k$&wrrrr4regKKKfKKKfKKffffKKKKKKKKdrrrrrr44#$l]]",
"]]_*.&3rw4rrrrffffffKKKKKKKKKKgfgfttrrrr4rr4$o8_]]",
"]]'x& %5rrrrr4rrrrfffKKKKKKKKKKrtrrrrr4rrr4#o$x']]",
"]]]]lO %2rrrrrrw4rrrffKgKKffffrrrrrrrr4re3%X#k'']]",
"]]]_fb= *rrrrrwwrrrrwffgKKfffr4rrrr4r4r4r*X=9f_]]]",
"]]](VQB *4rrrrwrrrrrrwrrffrrrrr4rrrrrr4rr%XBQZ(`]]",
"]](ZW~< #1rrwwrwrrrrwrrwrrrrrrrrrrrrrrrr1OXb~JZ(]]",
"]]uN!W> + *2rrrrrrrrwwwrwrwwr4rrrrrrrr21+OO<!!Cu`]",
"]]hbFF-  + $******14wrwwrwrrwrr1******O.. .-FD>a]]",
"'])u-=$ + +@@.$++.O$2w44444442$O.++++@@.+..+==r)]]",
"]]')e%%# ++nN-mNAb@.==$O#$O#==.@,ANm-Nn+ +&&%u)]]]",
"]]]_fww4$.+@>@,CDWA=>M>>>>->M-=AWDA,=>@+X%3rrf_]]]",
"]]'_grrr1+,nn,-NAFWA@NDANAAFN=SWDCN-,nm>+1rrrf_]]]",
"]]]'^rrr1>FWWDm,NADWmmFDCCDFmmWDAN>mFWJG>1rrt^'']]",
"]]]])drr1>MSWWDm,NCGS-SDAADS-SGCN,mDWWSm>1rrg)]']`",
"]']]]Pt41->nSWWA>mASA=>>>>>>=ADAm>AWWSn>=1reP]]]]`",
"]]]]]_d3;CCnnSHA>nAN>=,mnmmn@>NAn>AHDnnCC93d_]]`]]",
"]]]]''h9R!FC>mAA-@m>@MASFDSAM=>m@>CAM>CD!R;s'`]]]]",
"]]]'''qR}}!A>>NN=.+.nSHWWWWHAn.o =MC>>SW}}Rq']]]]`",
"]]]]`'i{}~WA>.-=%2* mAFFDDFFAnX*1*=-o>AW~}~i]]]]]]",
"]]]]`'qG!WDn+O%24w3$,Cn----nAbO3r43%$+mFW!Rq]]]]`]",
"']]]]'u=mM,+O2rrwrw1@,,CASAb>@1rrrr42Oo,mm=w]]]]]]",
"]]]]]]^jaaaazdtrwrww%@NH~~HN=%r4wr4dhlpaaaj/]]]]]]",
"]]]]]]]]]]]]]_^fgrrr2=SW}}WS=3rrrgg^/]]]]]]]]]]]`]",
"]]]']]]]]]]]]]'__xftt=AW!!WA=yffx//`]]]]]]]]]]]]]]",
"]]]]]]]]]]]]]]]]]]/cK6-GWQF>*KP)]]]]]]]]]]]]]]]]]`",
"]]]]]]']]]]]]]]]]]]//g$nDDm$f/]]]]]]]]]]]]]]]]]]]]",
"]']]]]]]]]]]]]]]]]]]]/4&--@6^]]]]]]]]]]]]]]]]]]]]]"
};
