/* XPM */
static char *zelda4[] = {
/* columns rows colors chars-per-pixel */
"50 50 172 2 ",
"   c #000000",
".  c #0D0000",
"X  c #0B0C03",
"o  c #0D0A09",
"O  c #060A02",
"+  c #110D0B",
"@  c #140000",
"#  c #071100",
"$  c #0B1300",
"%  c #0A1900",
"&  c #0E1D0F",
"*  c #191603",
"=  c #131C0A",
"-  c #1E1A00",
";  c #1A1612",
":  c #1D1A14",
">  c #261F19",
",  c #0E2200",
"<  c #112801",
"1  c #1E2717",
"2  c #1D391D",
"3  c #292209",
"4  c #312702",
"5  c #363300",
"6  c #3A3300",
"7  c #293321",
"8  c #430100",
"9  c #510000",
"0  c #5F0000",
"q  c #670000",
"w  c #6B0000",
"e  c #750000",
"r  c #7A0000",
"t  c #3C4300",
"y  c #3F4B00",
"u  c #255600",
"i  c #2A5B07",
"p  c #355713",
"a  c #2F7600",
"s  c #307500",
"d  c #3C7F00",
"f  c #366817",
"g  c #4E4500",
"h  c #504600",
"j  c #674F3D",
"k  c #69523D",
"l  c #6D5A3C",
"z  c #725B38",
"x  c #6E603C",
"c  c #7A6536",
"v  c #7B793C",
"b  c #755B44",
"n  c #795D45",
"m  c #7B5E48",
"M  c #775E48",
"N  c #625850",
"B  c #6F6E45",
"V  c #7A6A48",
"C  c #6D635C",
"Z  c #716359",
"A  c #7B6C61",
"S  c #86693E",
"D  c #896C3E",
"F  c #8E763B",
"G  c #9A7C3C",
"H  c #856A41",
"J  c #83664E",
"K  c #86684E",
"L  c #8A6D4B",
"P  c #806541",
"I  c #8D7345",
"U  c #947545",
"Y  c #9E7F40",
"T  c #9D7D4E",
"R  c #856950",
"E  c #866952",
"W  c #927256",
"Q  c #927359",
"!  c #997951",
"~  c #8D7058",
"^  c #806E61",
"/  c #9E7D62",
"(  c #3A8C00",
")  c #3E8208",
"_  c #358400",
"`  c #3C9600",
"'  c #3D9800",
"]  c #418808",
"[  c #409E00",
"{  c #469109",
"}  c #539D00",
"|  c #539200",
" . c #4F8E10",
".. c #4E9911",
"X. c #509A12",
"o. c #43A400",
"O. c #4FAD00",
"+. c #54A500",
"@. c #4BB400",
"#. c #4BBA00",
"$. c #51B108",
"%. c #64BE11",
"&. c #4FC300",
"*. c #51C400",
"=. c #53CC00",
"-. c #58C208",
";. c #5DC808",
":. c #55D200",
">. c #69D300",
",. c #67D400",
"<. c #65CB64",
"1. c #73D26C",
"2. c #74E574",
"3. c #7BEC76",
"4. c #A99612",
"5. c #B49E1A",
"6. c #90803E",
"7. c #9F803E",
"8. c #A4833D",
"9. c #C2AB13",
"0. c #CDB31D",
"q. c #D4B91A",
"w. c #D0B61A",
"e. c #C5AB23",
"r. c #DECF08",
"t. c #D8C101",
"y. c #D6D400",
"u. c #DDC314",
"i. c #E7C900",
"p. c #EECD0B",
"a. c #E7C707",
"s. c #E8D400",
"d. c #EBDC00",
"f. c #FEDC01",
"g. c #F2D108",
"h. c #F3D306",
"j. c #E3C411",
"k. c #F0CF0A",
"l. c #A18040",
"z. c #AA8F76",
"x. c #B7987E",
"c. c #BCA87C",
"v. c #81DF78",
"b. c #3083D7",
"n. c #3C9CFB",
"m. c #498BCD",
"M. c #5A90C7",
"N. c #458CD3",
"B. c #4A90D7",
"V. c #4194E8",
"C. c #4194E7",
"Z. c #BC9D82",
"A. c #BDA481",
"S. c #C4A386",
"D. c #C8A686",
"F. c #C9A78A",
"G. c #D0AE8F",
"H. c #C6B285",
"J. c #D2AF91",
"K. c #C9BA90",
"L. c #D5B192",
"P. c #DEBA9A",
"I. c #D8BA93",
"U. c #E2BD9C",
"Y. c #D2B8A2",
"T. c #86FB82",
"R. c #DAC2AE",
"E. c #ECC6A4",
"W. c #EFC8A6",
"Q. c #E2CCA1",
"!. c #F0C9A7",
"~. c None",
/* pixels */
"~.~.~.~.~.~.~.~.~.~.~.~.~.~.~.~.~.~.  # _ ` ` ` ` ` ` _ $   ~.~.~.~.~.~.~.~.~.~.~.~.~.~.~.~.~.~.~.~.",
"~.~.~.~.~.~.~.~.~.~.~.~.~.~.~.~.~.~.# , ( [ [ ' [ [ [ ( , # ~.~.~.~.~.~.~.~.~.~.~.~.~.~.~.~.~.~.~.~.",
"~.~.~.~.~.~.~.~.~.~.~.~.~.~.~.~.  # s ( *.=.=.=.=.=.=.*.( a #   ~.~.~.~.~.~.~.~.~.~.~.~.~.~.~.~.~.~.",
"~.~.~.~.~.~.~.~.~.~.~.~.~.~.~.~.# , ( o.=.:.:.:.:.:.:.=.o.( , # ~.~.~.~.~.~.~.~.~.~.~.~.~.~.~.~.~.~.",
"~.~.~.~.~.~.~.~.~.~.~.~.~.~.  # a ( &.=.:.:.:.:.:.:.:.:.=.&.( a #   ~.~.~.~.~.~.~.~.~.~.~.~.~.~.~.~.",
"~.~.~.~.~.~.~.~.~.~.~.~.~.~.# , ( o.=.:.:.:.:.:.:.:.:.:.:.=.o.( , # ~.~.~.~.~.~.~.~.~.~.~.~.~.~.~.~.",
"~.~.~.~.~.~.~.~.~.~.~.~.  # a ( &.=.:.:.:.:.:.:.:.:.:.:.:.:.=.&.( a $   ~.~.~.~.~.~.~.~.~.~.~.~.~.~.",
"~.~.~.~.~.~.~.~.~.~.~.~.  $ ( o.-.;.,.,.,.,.>.>.>.>.>.,.,.,.;.-.o.( #   ~.~.~.~.~.~.~.~.~.~.~.~.~.~.",
"~.~.~.~.~.~.~.~.~.~.~.~.  % @.-. .6.r.d.d.d.d.d.d.d.d.d.d.r.6.v -.@.%   ~.~.~.~.~.~.~.~.~.~.~.~.~.~.",
"~.~.~.~.~.~.~.~.~.~.~.~.# < $.%.T 8.g.f.f.f.f.f.f.f.f.f.f.g.8.6.%.$.< # ~.~.~.~.~.~.~.~.~.~.~.~.~.~.",
"~.~.~.~.~.~.~.~.~.~.  $ a ) v 6.j.g.f.f.f.f.f.f.f.f.f.f.f.f.h.j.6.v ) a #   ~.~.~.~.~.~.~.~.~.~.~.~.",
"~.~.~.~.~.~.~.~.~.~.+ = )  .I Y k.f.f.f.f.f.f.f.f.f.f.f.g.g.f.h.8.F  .) = + ~.~.~.~.~.~.~.~.~.~.~.~.",
"~.~.~.~.~.~.K W G.F.b k l c e.q.g.f.u.j.f.f.f.f.f.f.j.q.l.8.g.f.g.j.S l k b F.G.W K ~.~.~.~.~.~.~.~.",
"~.~.~.~.~.~.K W J.L.Q K V H w.j.g.p.u.u.f.f.f.f.f.f.q.e.! T j.g.f.k.D V K Q L.G.W K ~.~.~.~.~.~.~.~.",
"~.~.~.~.~.~.n R U.E.U.L.W U p.g.l.l.p.f.f.f.f.f.f.k.G ! D.F.l.l.g.g.U W L.U.E.U.E n ~.~.~.~.~.~.~.~.",
"~.~.~.~.~.~.b R L.U.E.U.W U j.j.l.l.k.f.f.f.f.f.k.j.T / L.L.Q T k.k.U Q U.E.U.L.K n ~.~.~.~.~.~.~.~.",
"~.~.~.~.~.~.~.~.K Q J.G.K m U Y e.q.f.f.f.f.j.w.F I S.L.E.U.W U q.q.U Q J.J.Q J ~.~.~.~.~.~.~.~.~.~.",
"~.~.~.~.~.~.~.~.b K S.S.U S K U 0.u.h.h.g.p.w.e.L ~ G.P.E.U.! T e.9.Y T F.F.K n ~.~.~.~.~.~.~.~.~.~.",
"~.~.~.~.~.~.~.~.~.~.K U j.j.S P 0.u.j.q.Y U S L S.G.E.E.W.E.L.F.L F j.j.U J ~.~.~.~.~.~.~.~.~.~.~.~.",
"~.~.~.~.~.~.~.~.~.~.k z i.p.S S 5.e.0.e.I K J ~ G.P.E.E.U.P.S.Z.J S g.k.z j ~.~.~.~.~.~.~.~.~.~.~.~.",
"~.~.~.~.~.~.~.~.~.~.o 3 i.h.U n 1 3 S U m K S.J.E.E.U.J.Q M > > m U h.i.3 o ~.~.~.~.~.~.~.~.~.~.~.~.",
"~.~.~.~.~.~.~.~.~.~.  - q.p.Y n + + Z ^ M J G.U.E.E.J.S.A N o + m U k.t.-   ~.~.~.~.~.~.~.~.~.~.~.~.",
"~.~.~.~.~.~.~.~.~.~.  - 9.q.H b ~.~.V.B.Z R P.E.E.U.W Z B.V.~.~.n H q.9.*   ~.~.~.~.~.~.~.~.~.~.~.~.",
"~.~.~.~.~.~.~.~.~.~.  * 4.5.l b ~.~.n.V.C R U.!.W.U.K Z n.n.~.~.k z 5.4.*   ~.~.~.~.~.~.~.~.~.~.~.~.",
"~.~.~.~.~.~.~.~.~.~.~.~.* * o > L.R.N.b.~.~.E.W.W.E.~.~.b.N.R.L.> o * * ~.~.~.~.~.~.~.~.~.~.~.~.~.~.",
"~.~.~.~.~.~.~.~.~.~.~.~.      ; F.Y.M.m.~.~.W.W.W.W.~.~.m.M.Y.F.:       ~.~.~.~.~.~.~.~.~.~.~.~.~.~.",
"~.~.~.~.~.~.~.~.~.~.~.~.~.~.  + K / Y.R.W.W.W.W.W.W.W.E.R.Y./ K +   ~.~.~.~.~.~.~.~.~.~.~.~.~.~.~.~.",
"~.~.~.~.~.~.~.~.~.~.~.~.~.~.& 1 n W L.U.E.E.E.E.E.E.E.E.U.L.W n 1 & ~.~.~.~.~.~.~.~.~.~.~.~.~.~.~.~.",
"~.~.~.~.~.~.~.~.~.~.~.~.  < <.2.V V J Q J.P.P.P.P.P.P.J.Q K m V 1.<.&   ~.~.~.~.~.~.~.~.~.~.~.~.~.~.",
"~.~.~.~.~.~.~.~.~.~.~.~.& 2 2.3.B l l V c.H.H.H.H.H.H.c.V x l B 3.2.2 & ~.~.~.~.~.~.~.~.~.~.~.~.~.~.",
"~.~.~.~.~.~.~.~.~.~.  & <.2.v.3.f i ] { ....X.....X.X.X.{ ] i f 3.T.2.<.&   ~.~.~.~.~.~.~.~.~.~.~.~.",
"~.~.~.~.~.~.~.~.~.~.; > T.T.2.<.p u ( ` ` ` ` ` ` ` ` ` ' ( i i <.2.T.v.7 : ~.~.~.~.~.~.~.~.~.~.~.~.",
"~.~.~.~.~.~.~.~.  : Z.L.Q.K.7 1 4 5 ( ` ` [ ` ` ` ` ` ` ` ( 5 4 = 7 K.Q.L.Z.:   ~.~.~.~.~.~.~.~.~.~.",
"~.~.~.~.~.~.~.~.  : L.!.!.L.: O 5 t _ ( ( ] } } } } ] ( ( d t 5 X : L.!.W.J.:   ~.~.~.~.~.~.~.~.~.~.",
"~.~.~.~.~.~.~.~.  ; S.P.E.I.p u @.O.t 6 5 g q.s.d.q.g 5 5 t O.O.u p I.!.U.S.;   ~.~.~.~.~.~.~.~.~.~.",
"~.~.~.~.~.~.~.~.  ; z.S.K.A.p u &.&.g 6 5 h i.f.f.i.h 5 6 y *.*.u p A.L.S.z.;   ~.~.~.~.~.~.~.~.~.~.",
"~.~.~.~.~.~.~.~.~.~.; ; : ; O , #.:.*.#.( | s.f.f.s.| ( #.*.:.#., O : : ; ; ~.~.~.~.~.~.~.~.~.~.~.~.",
"~.~.~.~.~.~.~.~.~.~.          % o.#.=.*.o.+.y.d.d.y.+.o.*.=.#.o.%           ~.~.~.~.~.~.~.~.~.~.~.~.",
"~.~.~.~.~.~.~.~.~.~.~.~.~.~.    % , ` o.*.=.,.,.,.>.=.*.o.( < %     ~.~.~.~.~.~.~.~.~.~.~.~.~.~.~.~.",
"~.~.~.~.~.~.~.~.~.~.~.~.~.~.. . . X s ( @.#.#.#.#.#.#.@.( s $ . . . ~.~.~.~.~.~.~.~.~.~.~.~.~.~.~.~.",
"~.~.~.~.~.~.~.~.~.~.~.~.  . q q 9 8 $ # % % % % % % % % $ $ 8 9 q q .   ~.~.~.~.~.~.~.~.~.~.~.~.~.~.",
"~.~.~.~.~.~.~.~.~.~.~.~.  . w e 0 9 @ .                 . . 9 0 e w .   ~.~.~.~.~.~.~.~.~.~.~.~.~.~.",
"~.~.~.~.~.~.~.~.~.~.~.~.  . w r e e 9 8 .   ~.~.~.~.  . 8 9 e e r w .   ~.~.~.~.~.~.~.~.~.~.~.~.~.~.",
"~.~.~.~.~.~.~.~.~.~.~.~.  . 0 w w q 9 8 .   ~.~.~.~.  . 8 9 w w q q .   ~.~.~.~.~.~.~.~.~.~.~.~.~.~.",
"~.~.~.~.~.~.~.~.~.~.~.~.~.~.. . . . . . ~.~.~.~.~.~.~.~.. . . . . . ~.~.~.~.~.~.~.~.~.~.~.~.~.~.~.~.",
"~.~.~.~.~.~.~.~.~.~.~.~.~.~.            ~.~.~.~.~.~.~.~.            ~.~.~.~.~.~.~.~.~.~.~.~.~.~.~.~.",
"~.~.~.~.~.~.~.~.~.~.~.~.~.~.~.~.~.~.~.~.~.~.~.~.~.~.~.~.~.~.~.~.~.~.~.~.~.~.~.~.~.~.~.~.~.~.~.~.~.~.",
"~.~.~.~.~.~.~.~.~.~.~.~.~.~.~.~.~.~.~.~.~.~.~.~.~.~.~.~.~.~.~.~.~.~.~.~.~.~.~.~.~.~.~.~.~.~.~.~.~.~.",
"~.~.~.~.~.~.~.~.~.~.~.~.~.~.~.~.~.~.~.~.~.~.~.~.~.~.~.~.~.~.~.~.~.~.~.~.~.~.~.~.~.~.~.~.~.~.~.~.~.~.",
"~.~.~.~.~.~.~.~.~.~.~.~.~.~.~.~.~.~.~.~.~.~.~.~.~.~.~.~.~.~.~.~.~.~.~.~.~.~.~.~.~.~.~.~.~.~.~.~.~.~."
};
