/* XPM */
static char *zelda3[] = {
/* columns rows colors chars-per-pixel */
"32 32 187 2 ",
"   c #010100",
".  c #0A0202",
"X  c #090804",
"o  c #040903",
"O  c #130000",
"+  c #0B1B00",
"@  c #091405",
"#  c #1E1E1E",
"$  c #151515",
"%  c #18120E",
"&  c #280000",
"*  c #320000",
"=  c #231200",
"-  c #211913",
";  c #0D2000",
":  c #153300",
">  c #232B00",
",  c #382500",
"<  c #223000",
"1  c #292117",
"2  c #333415",
"3  c #322F2E",
"4  c #480000",
"5  c #5C0000",
"6  c #560000",
"7  c #690000",
"8  c #620000",
"9  c #790000",
"0  c #720000",
"q  c #463E07",
"w  c #433E29",
"e  c #453527",
"r  c #463933",
"t  c #4A2525",
"y  c #314805",
"u  c #245900",
"i  c #255801",
"p  c #3E5700",
"a  c #2A6700",
"s  c #3A6607",
"d  c #2F7300",
"f  c #337E00",
"g  c #3C7B00",
"h  c #307700",
"j  c #385822",
"k  c #3B4633",
"l  c #3D7A3D",
"z  c #4D4409",
"x  c #524700",
"c  c #477F00",
"v  c #424F39",
"b  c #685239",
"n  c #4C7629",
"m  c #404840",
"M  c #5A5A5A",
"N  c #615040",
"B  c #775C45",
"V  c #795D46",
"C  c #7B5F48",
"Z  c #546648",
"A  c #436443",
"S  c #7C6146",
"D  c #7C6A59",
"F  c #666665",
"G  c #7A6F65",
"H  c #777471",
"J  c #957938",
"K  c #927926",
"L  c #84664B",
"P  c #8B6B4D",
"I  c #8B6D54",
"U  c #826D5B",
"Y  c #98785C",
"T  c #87705B",
"R  c #8C7867",
"E  c #997D65",
"W  c #3D9500",
"Q  c #3E9A00",
"!  c #388A00",
"~  c #4D8E11",
"^  c #518317",
"/  c #5C9C1E",
"(  c #519107",
")  c #45AB00",
"_  c #48A800",
"`  c #49B300",
"'  c #4CBC00",
"]  c #6AA500",
"[  c #6F8C2D",
"{  c #6AA221",
"}  c #4FC100",
"|  c #54CD00",
" . c #55D200",
".. c #75CD00",
"X. c #5B9352",
"o. c #798353",
"O. c #5BAD49",
"+. c #7CB164",
"@. c #67CD67",
"#. c #61C261",
"$. c #7AF37A",
"%. c #A08A1F",
"&. c #B79B00",
"*. c #B9A21A",
"=. c #988B32",
"-. c #AD922C",
";. c #B69A2A",
":. c #A5853C",
">. c #A1A127",
",. c #BAA625",
"<. c #CEB41E",
"1. c #DCBF13",
"2. c #D7B71A",
"3. c #C7A625",
"4. c #C5A725",
"5. c #89D500",
"6. c #B9C200",
"7. c #DAC015",
"8. c #EBCB09",
"9. c #EBDC00",
"0. c #EFD405",
"q. c #FEDC00",
"w. c #F1D208",
"e. c #F6D505",
"r. c #E3C511",
"t. c #AC8F4E",
"y. c #A88A54",
"u. c #AF9057",
"i. c #96886A",
"p. c #888572",
"a. c #A6876B",
"s. c #AC8C70",
"d. c #BC9B7D",
"f. c #B59579",
"g. c #358CE3",
"h. c #4C8DCE",
"j. c #5397DB",
"k. c #759BC3",
"l. c #4098F0",
"z. c #8E8E8E",
"x. c #858585",
"c. c #9F9287",
"v. c #979696",
"b. c #B59B85",
"n. c #A09F9D",
"m. c #B4A08F",
"M. c #AFA195",
"N. c #B5A598",
"B. c #A4A4A5",
"V. c #ADADAD",
"C. c #BEBEBE",
"Z. c #C09F81",
"A. c #CAA788",
"S. c #D0AD8F",
"D. c #C4AF9C",
"F. c #D1AF90",
"G. c #D9B697",
"H. c #DAB798",
"J. c #D7B293",
"K. c #E3BE9D",
"L. c #C1B4AA",
"P. c #B5DE90",
"I. c #80FF80",
"U. c #BAE294",
"Y. c #E6C29F",
"T. c #C9C3BE",
"R. c #E7C1A0",
"E. c #ECC5A4",
"W. c #EFC8A6",
"Q. c #E8C7AB",
"!. c #F1D0B3",
"~. c #94B0CE",
"^. c #99C3EE",
"/. c #CDCCCC",
"(. c #CBC7C4",
"). c #D7CEC6",
"_. c #DED5CD",
"`. c #D6D6D6",
"'. c #DEDBD8",
"]. c #E6DDD6",
"[. c #EFE5DD",
"{. c #F5E8DD",
"}. c #C8DAEC",
"|. c #E7E6E5",
" X c #F4F4F4",
".X c #none",
"XX c #F9F7F6",
/* pixels */
".X.X.X.X.X.X.X.X.X.X.Xx.+ W W W W !   /..X.X.X.X.X.X.X.X.X.X.X.X",
".X.X.X.X.X.X.X.X.X.XH j f } } } } ' a v B..X.X.X.X.X.X.X.X.X.X.X",
".X.X.X.X.X.X.X.X.Xz.j h '  . . . .| ` i Z V..X.X.X.X.X.X.X.X.X.X",
".X.X.X.X.X.X.X X/.@ f '  . . . . . . .) i k `..X.X.X.X.X.X.X.X.X",
".X.X.X.X.X.X.XV.o Q }  . . . . . . . . .` d   XX.X.X.X.X.X.X.X.X",
".X.X.X.X.X.X.XV.o  .[ ,.9.9.9.9.9.9.9.=.{ _   XX.X.X.X.X.X.X.X.X",
".X.X.X.X.X.XB.Z u [ ,.r.q.q.q.q.q.q.q.1.>.n i F /..X.X.X.X.X.X.X",
".X.X.XXX).[.G 2 ^ :.8.q.e.q.q.q.e.w.2.e.<.=.^ 1 N.]._..X.X.X.X.X",
".X.X.X|.P S.a.S S 7.w.8.r.q.q.q.w.2.I r.q.1.B C b.d.E .X.X.X.X.X",
".X.X.X[.B H.E.A.P q.:.4.q.q.q.q.2.I K.Y 3.r.P E.W.Z.U .X.X.X.X.X",
".X.X.XXX_.a.A.b.C :.,.r.q.q.r.-.y.A.E.Y ;.3.P G.s.b.]..X.X.X.X.X",
".X.X.X.X.XV.b.u.;.L 4.r.r.3.-.y.d.K.W.d.t.-.3.a.b.)..X.X.X.X.X.X",
".X.X.X.X.X.Xc.K e.B %.*.,.P I Z.K.R.J.f.E J q.b T..X.X.X.X.X.X.X",
".X.X.X.X.X.XF x q.P - e L V F.R.R.F.V % e :.q.X V..X.X.X.X.X.X.X",
".X.X.X.X.X.XF q 2.B (.^.h.B K.W.A.D l.}.M.J 7.X V..X.X.X.X.X.X.X",
".X.X.X.X.X.X(.p.z 1 D.~.j.(.W.W.Q.C.g./.R 2 z v.|..X.X.X.X.X.X.X",
".X.X.X.X.X.X.X/.M   E n.~.{.W.W.!.[.k.N.N $ M XX.X.X.X.X.X.X.X.X",
".X.X.X.X.X.X.XXX'.$ N b.R.W.W.E.Q.W.R.Y r m |..X.X.X.X.X.X.X.X.X",
".X.X.X.X.X.X.XV.o I.o.C I G.G.G.G.F.V B +.#.  XX.X.X.X.X.X.X.X.X",
".X.X.X.X.X.Xx.A @.I.^ s ~ / / / / / ~ p O.$.@.3 C..X.X.X.X.X.X.X",
".X.X.X.X.Xz.G i.P.l y s W W W Q W W W y j X.U.U H V..X.X.X.X.X.X",
".X.X.X.X.X# R Y.R.@ y s g g ] ] ( g g p : k W.E.v F .X.X.X.X.X.X",
".X.X.X.X.X# U H.Y.i ` c , , 0.q.&., , ` W n W.H.r F .X.X.X.X.X.X",
".X.X.X.X.XXXF X X   Q | ' W 0.q.6.( |  .a   O X V.XX.X.X.X.X.X.X",
".X.X.X.X.X.X/.V.B.  : d ) } 5.5...' ) i ; 3 V.V.|.XX.X.X.X.X.X.X",
".X.X.X.X.X.X.X|.v.* & > a f f f f f i = & t v.XX.X.X.X.X.X.X.X.X",
".X.X.X.X.X.X.XV.  9 8 *     # # $   . 4 7 5    X.X.X.X.X.X.X.X.X",
".X.X.X.X.X.X.XV.. 9 9 7 4   |..XB.  6 0 9 5    X.X.X.X.X.X.X.X.X",
".X.X.X.X.X.X.X X/.O O O 3 `..X.X X(.. O O r `..X.X.X.X.X.X.X.X.X",
".X.X.X.X.X.X.X.XXXz.z.z.B..X.X.X.X Xz.z.z.V..X.X.X.X.X.X.X.X.X.X",
".X.X.X.X.X.X.X.X.X.X.X.X.X.X.X.X.X.X.X.X.X.X.X.X.X.X.X.X.X.X.X.X",
".X.X.X.X.X.X.X.X.X.X.X.X.X.X.X.X.X.X.X.X.X.X.X.X.X.X.X.X.X.X.X.X"
};
